<svg width="101" height="66" viewBox="0 0 101 66" fill="none" xmlns="http://www.w3.org/2000/svg">
<g clip-path="url(#clip0_6962_20229)">
<path d="M85.0436 55.6936C78.2005 53.0859 71.8149 50.6398 65.3966 48.2556C64.9351 48.0804 64.2741 48.4558 62.8815 48.7398C65.5711 50.6076 67.5285 52.1918 69.6806 53.449C75.4104 56.6687 81.233 59.7337 87.014 62.856C87.7018 63.2693 88.4268 63.617 89.1797 63.8944C91.7482 64.704 93.2527 63.5635 93.041 60.8529C92.9608 59.5763 92.7259 58.3141 92.3412 57.0942C90.9043 52.5105 89.3983 47.9508 87.8231 43.4149C87.3688 42.478 86.8225 41.5885 86.1923 40.7596C83.6755 45.1756 87.5097 48.7761 86.5966 52.8723C85.8752 52.2891 85.2446 51.8554 84.6829 51.3338C64.2428 32.1998 40.0845 20.3866 12.9715 14.2507C10.1746 13.6644 7.34808 13.2291 4.50435 12.9464C3.00047 12.7763 1.45928 13.1064 1.33431 15.0183C1.20935 16.9302 2.44587 17.4794 4.09833 17.6034C23.6642 18.8624 40.9009 26.9076 57.7253 36.058C66.4896 40.754 74.7156 46.3916 82.2577 52.871C83.1714 53.6684 83.9706 54.5977 85.0436 55.6936Z" fill="black"/>
</g>
<defs>
<clipPath id="clip0_6962_20229">
<rect width="103.5" height="19.23" fill="white" transform="matrix(-0.884883 -0.465814 -0.465814 0.884883 100.543 48.2119)"/>
</clipPath>
</defs>
</svg>
