<svg width="85" height="43" viewBox="0 0 85 43" fill="none" xmlns="http://www.w3.org/2000/svg">
<path d="M43.3803 41.834C45.9297 34.6624 45.9297 34.6624 62.4807 27.0526C55.4301 26.1562 50.411 25.4191 45.3919 24.8812C39.9944 24.3235 34.5969 23.8055 29.1795 23.5465C21.85 23.188 14.5205 23.168 7.27075 22.7895C4.36287 22.6501 -0.0786116 23.9051 0.00105638 19.0444C0.00105633 14.7415 4.36289 14.7415 7.35044 14.8013C18.1654 14.9805 29.0002 15.379 39.8151 16.0762C45.7902 16.4746 51.7654 17.6101 58.816 18.5663C52.6815 10.9565 42.6235 9.30308 37.5446 5.659e-07C40.7513 0.179289 42.982 -0.239055 44.7546 0.478099C57.8405 5.61993 70.0232 12.8154 80.8442 21.7935C81.8356 22.5988 82.7251 23.522 83.4931 24.5426C86.162 28.3674 85.2857 32.511 80.8641 33.7461C69.2525 37.1127 57.5014 39.9813 45.7902 42.9894C45.2724 43.089 44.6351 42.4714 43.3803 41.834Z" fill="#3D4349"/>
</svg>
