<svg width="157" height="201" viewBox="0 0 157 201" fill="none" xmlns="http://www.w3.org/2000/svg">
<path d="M140.078 176.463L154.864 156.915C156.146 158.62 156.878 160.676 156.963 162.807C157.049 164.939 156.483 167.046 155.341 168.848C149.517 178.7 143.149 188.22 136.269 197.364C132.266 202.537 126.823 201.298 124.288 195.32C120.03 185.339 116.301 175.119 112.351 165.007C112.131 164.409 111.737 163.698 111.893 163.174C112.407 161.561 113.144 159.995 113.812 158.409C115.149 159 117.086 159.187 117.774 160.276C120.02 163.756 121.819 167.51 123.783 171.151C124.845 173.424 126.497 175.371 128.567 176.79C128.977 173.515 129.556 170.253 129.826 166.965C132.62 134.683 124.778 102.372 107.497 74.9616C90.2161 47.5509 64.4444 26.5444 34.1121 15.1456C26.0782 12.0534 17.6651 9.96251 9.42345 7.33409C6.55678 6.41985 3.74496 5.35453 0.898104 4.37121L0.948148 2.21144C2.76993 1.55487 4.63647 0.1807 6.31167 0.275816C12.3617 0.748805 18.3703 1.65334 24.2914 2.98251C83.6851 17.5329 129.252 69.0632 137.543 131.718C139.12 143.686 138.51 155.94 138.83 168.058C138.934 170.584 138.604 173.06 138.47 175.553C138.971 175.99 139.532 176.22 140.078 176.463Z" fill="#3D4349"/>
</svg>
