<svg width="87" height="50" viewBox="0 0 87 50" fill="none" xmlns="http://www.w3.org/2000/svg">
<path d="M40.3301 48.4472C38.6017 39.9002 38.6017 39.9002 22.9871 29.4878C30.1056 29.1343 35.1841 28.7682 40.2402 28.6326C45.6752 28.5106 51.1057 28.4348 56.5268 28.6606C63.8621 28.9566 71.1593 29.6446 78.4176 29.9098C81.3275 30.0305 85.6064 31.9138 86.0754 26.2807C86.5608 21.3009 82.2195 20.8778 79.2393 20.6572C68.4551 19.8155 57.6265 19.2256 46.7839 18.9834C40.792 18.8649 34.717 19.5994 27.5918 20.022C34.5557 11.8102 44.7528 10.8724 50.8571 0.598561C47.6453 0.49499 45.4723 -0.205552 43.6272 0.452461C30.023 5.13373 17.0861 12.2792 5.30346 21.62C4.2259 22.4558 3.23644 23.4379 2.35692 24.5446C-0.730798 28.7122 -0.32601 33.5926 3.9354 35.4509C15.1125 40.4735 26.4846 44.9333 37.8012 49.5506C38.3054 49.7161 39.0094 49.0632 40.3301 48.4472Z" fill="#3D4349"/>
</svg>
