<svg width="115" height="299" viewBox="0 0 115 299" fill="none" xmlns="http://www.w3.org/2000/svg">
<path d="M11.6022 134.098C29.5166 121.451 41.1865 120.405 51.4358 129.421C60.281 137.198 63.2253 152.21 57.8609 162.144C52.0316 173.012 41.7123 174.776 19.7786 167.771C35.2499 208.322 62.1527 238.821 92.6978 269.932C94.2378 257.348 87.1175 247.71 90.8021 234.865C93.0913 237.429 95.1316 240.203 96.8958 243.152C102.214 256.112 107.397 269.127 112.445 282.198C116.424 292.665 113.527 297.856 101.902 298.112C92.8163 298.376 83.691 296.662 73.8214 295.725C76.2296 284.412 85.3008 286.231 91.8189 284.4C56.1563 247.179 20.7186 210.846 7.92874 158.682C-4.86115 106.518 0.595537 55.9418 19.7174 6.40677C21.173 3.61127 23.642 1.47776 26.6191 0.443038C20.0829 22.1637 14.1063 43.5715 11.9819 65.8323C9.85745 88.0931 5.15489 110.473 11.6022 134.098ZM21.2299 152.784C27.5121 161.327 38.7595 165.166 45.4766 160.787C51.0787 157.128 51.9805 146.987 47.2726 140.182C46.0855 138.436 44.551 136.954 42.765 135.828C40.9791 134.702 38.98 133.957 36.8929 133.638C34.8057 133.32 32.6753 133.436 30.6349 133.978C28.5944 134.521 26.6879 135.478 25.0344 136.791C18.3606 141.633 17.1163 147.056 21.2927 152.87L21.2299 152.784Z" fill="#3D4349"/>
</svg>
