<svg width="87" height="43" viewBox="0 0 87 43" fill="none" xmlns="http://www.w3.org/2000/svg">
<path d="M45.9465 41.7055C47.935 34.3586 47.935 34.3586 63.8496 25.4945C56.7508 25.1447 51.6898 24.7971 46.6442 24.6481C41.2198 24.5084 35.7984 24.4084 30.3771 24.5682C23.0418 24.7761 15.7327 25.3218 8.47529 25.5037C5.56531 25.589 1.2339 27.183 0.938317 22.3306C0.606339 18.0405 4.95517 17.704 7.93842 17.5331C18.735 16.8775 29.5682 16.4388 40.4047 16.2995C46.3928 16.2358 52.4377 16.9069 59.541 17.3163C52.8378 10.2024 42.6821 9.32993 36.9007 0.44642C40.1116 0.377776 42.3034 -0.211423 44.126 0.366833C57.5696 4.48374 70.2712 10.7178 81.7526 18.8343C82.8031 19.5607 83.7612 20.4125 84.6057 21.3709C87.5617 24.9784 87.0077 29.1772 82.6946 30.7497C71.3773 35.0022 59.8826 38.7689 48.4384 42.6715C47.9298 42.8108 47.2467 42.2442 45.9465 41.7055Z" fill="#3D4349"/>
</svg>
