<svg width="123" height="219" viewBox="0 0 123 219" fill="none" xmlns="http://www.w3.org/2000/svg">
<path d="M26.8726 209.089L51.2449 211.685C50.4441 213.662 49.0602 215.349 47.2774 216.521C45.4945 217.692 43.3972 218.294 41.2644 218.244C29.8204 218.33 18.3805 217.78 6.99757 216.597C0.501522 215.833 -1.24181 210.531 2.57457 205.276C8.93325 196.484 15.7697 188.02 22.3986 179.424C22.7978 178.928 23.2041 178.223 23.7342 178.087C25.381 177.696 27.1027 177.521 28.8057 177.275C28.9889 178.726 29.8264 180.482 29.248 181.633C27.4236 185.351 25.1338 188.828 23.0263 192.387C21.6258 194.469 20.8084 196.889 20.659 199.393C23.6776 198.057 26.7713 196.872 29.7275 195.409C58.8319 181.164 82.4787 157.791 97.0617 128.855C111.645 99.9187 116.363 67.0068 110.498 35.1386C109.007 26.6603 106.463 18.373 104.468 9.95563C103.774 7.02785 103.237 4.06919 102.613 1.12278L104.489 0.0525178C105.991 1.27529 108.131 2.16657 108.913 3.65116C111.625 9.07952 113.947 14.6947 115.86 20.4539C134.002 78.8506 113.329 144.457 63.9096 183.855C54.4673 191.375 43.6516 197.168 33.4317 203.688C31.3205 205.079 29.0282 206.072 26.8234 207.242C26.7072 207.897 26.7994 208.496 26.8726 209.089Z" fill="#3D4349"/>
</svg>
