<svg width="87" height="54" viewBox="0 0 87 54" fill="none" xmlns="http://www.w3.org/2000/svg">
<path d="M39.3731 1.91377C38.1945 11.1993 38.1946 11.1993 23.2528 23.1159C30.3924 23.1782 35.4934 23.3454 40.5571 23.2653C45.9987 23.1534 51.4329 22.9921 56.8383 22.5062C64.153 21.8591 71.4043 20.7914 78.644 20.1808C81.5455 19.9206 85.7024 17.7001 86.5335 23.748C87.3389 29.0913 83.0257 29.7414 80.0604 30.1125C69.3327 31.5018 58.5443 32.6219 47.7197 33.368C41.7367 33.7639 35.6158 33.2444 28.465 33.1079C35.9553 41.6433 46.2105 42.1974 52.9739 52.9928C49.7695 53.2481 47.642 54.1001 45.755 53.4738C31.8528 49.0391 18.4594 41.9197 6.07877 32.3836C4.94772 31.5314 3.89534 30.5176 2.94486 29.3647C-0.410117 25.0128 -0.319173 19.7368 3.82183 17.5441C14.6736 11.6328 25.7565 6.31907 36.7738 0.838178C37.2672 0.637307 38.013 1.30918 39.3731 1.91377Z" fill="#3D4349"/>
</svg>
