<svg width="26" height="51" viewBox="0 0 26 51" fill="none" xmlns="http://www.w3.org/2000/svg">
<path d="M1.00185 27.2696C5.35969 28.2637 5.35969 28.2637 10.9358 37.3953C10.9739 33.2209 11.0587 30.2424 11.0273 27.2777C10.9815 24.0908 10.9124 20.9066 10.691 17.7287C10.3962 13.4285 9.90383 9.15164 9.6261 4.89659C9.5075 3.19074 8.47017 0.686162 11.3105 0.398496C13.82 0.102702 14.1199 2.64709 14.2905 4.39393C14.9295 10.7149 15.4421 17.0626 15.7791 23.4193C15.9575 26.9321 15.7061 30.4956 15.6332 34.6742C19.6496 30.5727 19.9224 24.5918 24.9989 20.9897C25.1148 22.8725 25.5121 24.145 25.2158 25.2283C23.1167 33.2152 19.7578 40.8164 15.2657 47.7458C14.8642 48.3795 14.3869 48.9618 13.8445 49.48C11.7973 51.2998 9.32044 51.0734 8.2961 48.5791C5.53425 42.0371 3.05326 35.3795 0.493689 28.7548C0.399993 28.4596 0.716339 28.0454 1.00185 27.2696Z" fill="#3D4349"/>
</svg>
