<svg width="24" height="77" viewBox="0 0 24 77" fill="none" xmlns="http://www.w3.org/2000/svg">
<path d="M21.5907 32.9709C16.7983 30.2994 13.8672 30.3487 11.5562 32.8635C9.56177 35.033 9.22731 38.8462 10.8254 41.1754C12.5639 43.7248 15.178 43.89 20.4493 41.5656C17.6754 52.0647 11.7907 60.3662 5.01613 68.9166C4.29932 65.8265 5.81525 63.2398 4.55795 60.1417C4.05637 60.8401 3.6223 61.5846 3.26159 62.3651C2.28215 65.7305 1.33773 69.1061 0.428324 72.4918C-0.284013 75.2016 0.574248 76.4161 3.4734 76.1716C5.74087 75.9964 7.96575 75.328 10.3964 74.8333C9.49732 72.0823 7.28867 72.7755 5.61843 72.4927C13.5042 62.2867 21.3576 52.3075 23.1566 38.99C24.9555 25.6726 22.2568 13.2341 16.1859 1.41693C15.7496 0.76001 15.0787 0.294668 14.3106 0.116171C16.5127 5.3469 18.5673 10.5146 19.6861 15.9967C20.805 21.4788 22.5684 26.9221 21.5907 32.9709ZM19.6909 37.8753C18.3544 40.1675 15.6579 41.4209 13.8705 40.5092C12.3797 39.7475 11.8865 37.2485 12.8774 35.4306C13.1264 34.9647 13.4689 34.5552 13.8834 34.2277C14.2979 33.9002 14.7755 33.6618 15.2863 33.5272C15.7971 33.3927 16.3303 33.365 16.8523 33.4458C17.3743 33.5267 17.874 33.7144 18.3203 33.9971C20.1091 35.0248 20.5624 36.3411 19.6775 37.8983L19.6909 37.8753Z" fill="#3D4349"/>
</svg>
