<svg width="60" height="113" viewBox="0 0 60 113" fill="none" xmlns="http://www.w3.org/2000/svg">
<path d="M49.6034 101.186L59.0145 93.2734C59.4514 94.2504 59.5804 95.3372 59.3844 96.3894C59.1885 97.4415 58.6768 98.4091 57.9176 99.1633C53.9706 103.332 49.795 107.279 45.4102 110.985C42.8757 113.069 40.3519 111.856 39.7781 108.649C38.8082 103.293 38.1236 97.8782 37.3186 92.4924C37.2779 92.1755 37.1644 91.7836 37.2992 91.5445C37.7305 90.8131 38.2654 90.1293 38.7687 89.4281C39.3571 89.8661 40.2833 90.1736 40.4986 90.7829C41.2092 92.7353 41.6707 94.772 42.2255 96.7715C42.4918 98.0019 43.0826 99.1385 43.9367 100.063C44.5026 98.5068 45.1494 96.9759 45.6478 95.3982C50.6128 79.9197 50.3791 63.2422 44.9824 47.9089C39.5856 32.5757 29.322 19.4283 15.7568 10.4718C12.1721 8.06379 8.2902 6.10327 4.5521 3.89895C3.25189 3.13223 1.99536 2.29773 0.712542 1.49942L0.977775 0.448636C1.94202 0.330581 3.00815 -0.133473 3.81691 0.0997893C6.72333 1.00555 9.56134 2.11776 12.3093 3.42792C39.7375 17.1655 56.2802 47.449 53.3513 79.0186C52.7887 85.0477 51.1243 90.9734 49.9301 96.9364C49.6992 98.1835 49.2615 99.3577 48.9182 100.562C49.1147 100.832 49.3635 101.007 49.6034 101.186Z" fill="black"/>
</svg>
