<svg width="46" height="27" viewBox="0 0 46 27" fill="none" xmlns="http://www.w3.org/2000/svg">
<g clip-path="url(#clip0_6962_20236)">
<path d="M20.7619 3.40271C19.9574 7.13784 19.9574 7.13784 12.2102 11.9987C15.7786 11.9879 18.3253 12.0295 20.8591 11.9719C23.5825 11.8997 26.3034 11.8076 29.0175 11.5854C32.6899 11.2888 36.3404 10.8236 39.9745 10.542C41.4313 10.423 43.5613 9.51033 43.8366 11.9351C44.1155 14.077 41.9438 14.3597 40.4525 14.5236C35.0563 15.1354 29.636 15.6394 24.2063 15.9934C21.2056 16.1824 18.1571 16.0045 14.5848 15.9855C18.1322 19.3759 23.247 19.547 26.3786 23.8487C24.7705 23.9673 23.687 24.3201 22.7579 24.0781C15.9095 22.3668 9.37759 19.5747 3.40817 15.807C2.86238 15.4704 2.35967 15.0685 1.91114 14.6102C0.334479 12.8793 0.502236 10.7599 2.62361 9.85849C8.18663 7.42995 13.8514 5.24028 19.4872 2.98378C19.7386 2.90063 20.0959 3.16673 20.7619 3.40271Z" fill="black"/>
</g>
<defs>
<clipPath id="clip0_6962_20236">
<rect width="21.59" height="42.68" fill="white" transform="translate(2.7876 26.9199) rotate(-97.4179)"/>
</clipPath>
</defs>
</svg>
