<svg width="46" height="27" viewBox="0 0 46 27" fill="none" xmlns="http://www.w3.org/2000/svg">
<g clip-path="url(#clip0_7068_5250)">
<path d="M20.7615 3.40206C19.9569 7.13718 19.957 7.13718 12.2097 11.9981C15.7782 11.9873 18.3248 12.0288 20.8586 11.9712C23.5821 11.899 26.303 11.807 29.017 11.5847C32.6894 11.2881 36.3399 10.8229 39.974 10.5414C41.4308 10.4223 43.5608 9.50968 43.8361 11.9344C44.115 14.0763 41.9433 14.3591 40.452 14.523C35.0558 15.1348 29.6356 15.6388 24.2058 15.9927C21.2051 16.1817 18.1566 16.0038 14.5843 15.9849C18.1317 19.3753 23.2466 19.5463 26.3781 23.848C24.77 23.9666 23.6865 24.3195 22.7574 24.0774C15.909 22.3661 9.3771 19.5741 3.40768 15.8063C2.86189 15.4697 2.35918 15.0678 1.91066 14.6096C0.33399 12.8786 0.501748 10.7593 2.62312 9.85783C8.18615 7.4293 13.8509 5.23962 19.4867 2.98312C19.7381 2.89997 20.0954 3.16607 20.7615 3.40206Z" fill="#3D4349"/>
</g>
<defs>
<clipPath id="clip0_7068_5250">
<rect width="21.59" height="42.68" fill="white" transform="translate(2.78735 26.9194) rotate(-97.4179)"/>
</clipPath>
</defs>
</svg>
