<svg width="43" height="22" viewBox="0 0 43 22" fill="none" xmlns="http://www.w3.org/2000/svg">
<g clip-path="url(#clip0_7068_5256)">
<path d="M21.82 21C23.1 17.4 23.1 17.4 31.41 13.58C27.87 13.13 25.35 12.76 22.83 12.49C20.12 12.21 17.41 11.95 14.69 11.82C11.01 11.64 7.32998 11.63 3.68998 11.44C2.22998 11.37 -1.03846e-05 12 0.0399896 9.56C0.0399896 7.4 2.22999 7.4 3.72999 7.43C9.15999 7.52 14.6 7.72 20.03 8.07C23.03 8.27 26.03 8.84 29.57 9.32C26.49 5.5 21.44 4.67 18.89 2.84129e-07C20.5 0.0900003 21.62 -0.120002 22.51 0.239998C29.0802 2.82112 35.197 6.43311 40.63 10.94C41.1277 11.3442 41.5744 11.8077 41.96 12.32C43.3 14.24 42.86 16.32 40.64 16.94C34.81 18.63 28.91 20.07 23.03 21.58C22.77 21.63 22.45 21.32 21.82 21Z" fill="#3D4349"/>
</g>
<defs>
<clipPath id="clip0_7068_5256">
<rect width="21.59" height="42.68" fill="white" transform="translate(42.6799) rotate(90)"/>
</clipPath>
</defs>
</svg>
