<svg width="77" height="66" viewBox="0 0 77 66" fill="none" xmlns="http://www.w3.org/2000/svg">
<g style="mix-blend-mode:multiply">
<path d="M3.11704 20.6443L3.11616 20.6424C1.69332 17.5462 1.37764 14.0554 2.22225 10.7544L2.22814 10.7313L2.23264 10.708C2.57424 8.93635 3.40797 7.29694 4.63802 5.97793C5.24761 5.46466 5.96177 5.27649 6.89141 5.27891C7.69393 5.28101 8.57577 5.42153 9.62189 5.58823C9.86183 5.62646 10.1104 5.66608 10.3687 5.70571C13.0877 6.12301 16.5008 6.46606 20.5444 4.59701C21.51 4.15071 22.3811 3.72727 23.1777 3.33926L23.2698 3.29438C24.0325 2.92287 24.7221 2.58695 25.3707 2.29021C26.7216 1.67217 27.8443 1.24827 28.9634 1.05667C31.1495 0.682381 33.4985 1.16492 37.6637 3.34784L37.6638 3.3479C41.6105 5.41548 49.8286 10.1026 57.6954 17.3345C65.566 24.5699 73.0307 34.3025 75.5729 46.4559L75.575 46.4652C76.0084 48.4197 76.0477 50.4411 75.6903 52.4107C75.3333 54.378 74.5877 56.2545 73.4974 57.9305C72.1224 59.9585 70.0769 61.9496 67.0421 63.1969C64.0033 64.4459 59.9122 64.9737 54.4084 63.9714L53.7435 63.8503L53.739 63.863C53.521 63.8222 53.2486 63.768 52.9257 63.6981C51.976 63.4925 50.5928 63.1522 48.8747 62.6217C45.438 61.5607 40.6665 59.7405 35.3463 56.7194C24.7118 50.6806 11.8771 39.8407 3.11704 20.6443Z" stroke="#3D4349" stroke-width="1.58417"/>
</g>
</svg>
