<svg width="120" height="154" viewBox="0 0 120 154" fill="none" xmlns="http://www.w3.org/2000/svg">
<g clip-path="url(#clip0_6962_20382)">
<path d="M63.2398 153.26C56.2424 153.437 49.2563 152.598 42.4998 150.769C30.7098 147.889 18.8398 145.29 6.98977 142.64C4.44977 142.07 2.98977 141.53 2.76977 138.09C1.93977 126.82 3.00978 115.6 2.96978 104.36C2.96978 95.0998 2.75978 85.8596 2.02978 76.6396C1.79978 73.7496 -0.0402217 71.2498 0.0297783 68.1098C0.129778 59.8998 1.78977 56.6598 9.43977 53.7998C23.6598 48.4998 38.3498 45.2194 53.6198 45.6494C58.2298 45.7894 62.4698 44.2996 66.9198 43.8496C72.2398 43.3196 76.9198 42.8495 82.1098 46.4795C87.2998 50.1095 94.0398 51.2195 100.11 53.3095C103.44 54.4495 106.42 56.2595 109.55 57.7695C111.68 58.7695 111.85 60.6098 112.81 62.3398C115.57 67.3398 112.81 69.8794 110.46 73.4194C108.85 75.8494 109.94 79.2694 110.25 82.1894C112.33 101.929 111.33 121.72 111.48 141.49C111.48 143.86 111.48 145.57 107.95 145.13C105.74 144.85 103.22 146.31 100.95 147.26C88.8998 152.35 76.0298 152.64 63.2398 153.26ZM62.8998 48.4394C57.2998 51.4394 51.3298 53.8897 47.3598 58.2797C50.8398 57.8497 55.3598 59.7795 59.3598 56.9795C63.1398 54.3395 66.8398 51.5898 70.5698 48.8798C71.4698 48.5498 72.8598 48.4394 72.9098 47.4194C72.9798 45.9694 71.5298 46.4194 70.6998 46.4194C67.9898 46.4794 65.2298 46.6394 62.8998 48.4394ZM76.0498 49.3496C65.8398 54.3496 61.3798 58.4396 62.0498 62.0796C64.5598 61.5596 65.6098 57.3297 68.0498 58.4297C74.5998 61.3597 81.7198 59.9698 88.3398 61.8598C91.0728 62.6664 93.9648 62.7725 96.7498 62.1694C98.5098 61.7694 101.32 62.0994 101.61 59.6494C101.93 56.9394 99.1898 56.6495 97.2698 55.7895C92.3498 53.5095 86.8898 54.6596 81.8098 53.3296C82.0998 51.9896 83.8098 52.4198 83.7498 52.0698C83.6983 51.8463 83.6012 51.6357 83.4644 51.4516C83.3276 51.2675 83.1541 51.1137 82.9549 51C82.7557 50.8863 82.5351 50.8152 82.3071 50.791C82.079 50.7668 81.8484 50.7904 81.6298 50.8598C79.2408 51.6372 77.2039 53.2346 75.8798 55.3696C83.8798 58.0196 92.3398 56.5695 99.8098 60.0395C89.4598 60.8495 79.5098 58.2398 68.8098 57.5698C71.3698 54.1298 74.8098 52.9796 76.3998 49.9096C76.8698 49.6996 77.7998 49.6296 77.3298 48.9096C77.0498 48.3496 76.3598 48.6896 76.0498 49.3496ZM102.15 70.4795C103.279 70.5906 104.418 70.5605 105.54 70.3896C108.09 69.6996 107.61 67.1596 108.17 65.3896C108.62 63.9396 108.07 62.7697 106.17 63.4497C94.4398 66.9397 82.2898 67.2496 70.2298 68.3496C49.2298 70.2596 28.4398 70.3495 7.86977 65.0395C6.60977 64.7195 4.73978 63.3496 4.33978 65.8496C4.05978 67.5996 3.20978 69.9598 6.33978 70.5898C13.9798 72.1298 21.5298 74.4995 29.2398 75.2295C53.6998 77.5195 78.1298 76.8295 102.15 70.4795ZM80.9298 79.5796C79.3598 79.2796 78.0098 78.2596 76.2098 78.5796C69.8598 79.8696 63.3898 79.1495 56.9798 79.4795C52.5798 79.7095 48.0998 78.8296 43.7798 80.3296C42.6222 79.8819 41.3438 79.8573 40.1698 80.2597C30.5098 79.0097 20.8298 77.9096 11.3698 75.3896C5.31977 73.7796 5.27977 73.9397 6.36977 80.0097C6.59977 84.3197 6.99978 88.6197 7.02978 92.9297C7.08978 105.74 7.02978 118.56 7.02978 131.37C7.02978 134.79 7.24978 138.57 11.4498 139.28C26.7798 141.88 41.5798 147.36 57.4998 146.79C71.9698 146.28 86.3798 146.13 100.22 141.07C103.15 140 104.38 138.669 104.42 135.399C104.61 120.249 105.25 105.1 105.34 89.9497C105.34 85.7197 106.42 81.3994 105.03 77.1894C105.75 75.7994 107.15 73.6398 104.09 74.0698C97.9898 74.9298 91.7498 75.5198 86.0898 78.3198C84.3398 78.6398 82.4398 78.2696 80.8998 79.5796H80.9298ZM24.5798 62.3198C26.9898 62.9698 31.5798 60.8996 34.7198 64.8896C34.8283 65.0697 34.9816 65.2188 35.1646 65.3222C35.3477 65.4257 35.5545 65.4799 35.7648 65.4799C35.9751 65.4799 36.1818 65.4257 36.3649 65.3222C36.548 65.2188 36.7013 65.0697 36.8098 64.8896C37.5978 63.4651 38.1228 61.9104 38.3598 60.2998C38.4498 59.4298 37.0498 59.7094 36.2998 59.6494C27.2398 58.8594 18.0898 59.2394 9.08978 57.6494C7.56978 57.3694 5.72978 57.5395 5.49978 59.2695C5.29978 60.8095 7.31977 60.8894 8.42977 61.4194C13.1998 63.6394 18.2298 61.6898 24.5798 62.3198ZM49.5798 51.8896C40.2698 49.7396 31.0598 49.3996 22.0998 53.4096C31.2198 52.8696 40.6098 57.8596 49.5398 51.8896H49.5798ZM49.8298 62.4897V62.6694C47.6798 62.6694 45.5198 62.6694 43.3698 62.6694C42.3698 62.6694 41.3698 62.9996 41.3698 64.3296C41.3698 65.3796 42.1398 65.7798 42.9798 65.8398C47.4398 66.1698 51.9098 66.4998 56.3598 65.5898C57.2398 65.4098 57.9398 65.0095 57.9198 63.9995C57.9198 62.6195 56.8098 62.5197 55.8098 62.4897C53.7698 62.4497 51.7798 62.4897 49.7898 62.4897H49.8298ZM65.2698 63.1098C71.5198 63.2598 76.5698 65.3398 82.0298 64.1098C73.9898 61.6398 69.8998 61.2498 65.2298 63.1098H65.2698Z" fill="#404141"/>
<path d="M111.35 44.5801C106.08 48.9001 96.7998 48.8802 91.7798 44.4302C88.3298 41.3702 88.8898 37.7001 90.7798 34.1401C92.8398 30.3201 95.7798 27.1402 98.7798 23.9902C104.22 18.0902 109.07 11.8403 110.2 3.51025C110.339 2.75695 110.653 2.04669 111.117 1.43701C111.58 0.827335 112.181 0.335044 112.87 0C115.16 4.61 113.18 9.88021 115.24 14.4702C116.1 24.7902 117.35 35.1501 111.35 44.5801ZM111.12 19.5801C111.02 18.0601 110.93 16.58 110.79 14.46C107.87 18.72 105.41 22.39 102.87 26C100.7 29.09 97.7699 31.5799 96.1899 35.1699C94.2999 39.4599 95.2498 42.0901 99.9598 43.1001C108.7 42.7701 109.62 41.7599 111.35 33.6499C112.38 28.8099 111.9 24.22 111.12 19.54V19.5801Z" fill="#404141"/>
<path d="M111.35 44.5796C117.35 35.1496 116.1 24.7897 115.23 14.4697C121.65 21.8497 120.69 34.5299 116.83 40.8599C115.62 42.8399 113.96 44.4996 111.35 44.5796Z" fill="#ADB3B6"/>
<path d="M40.1701 80.2998C41.3476 79.8975 42.6291 79.9221 43.7901 80.3696C46.2401 80.5196 48.7201 80.5196 51.1501 80.8496C61.1501 82.2096 71.0301 80.7796 80.9301 79.5796C82.4401 78.2696 84.3401 78.5796 86.1101 78.3696C92.4901 79.1696 98.7701 78.1795 105.05 77.2295C106.44 81.4395 105.39 85.7597 105.36 89.9897C105.27 105.14 104.63 120.289 104.44 135.439C104.44 138.709 103.17 140.04 100.24 141.11C86.4001 146.17 71.9901 146.32 57.5201 146.83C41.6001 147.4 26.8001 141.92 11.4701 139.32C7.27014 138.61 7.05013 134.83 7.05013 131.41C7.05013 118.6 7.13013 105.78 7.05013 92.9697C7.05013 88.6597 6.62014 84.3596 6.39014 80.0596C7.06014 79.0596 7.72013 78.1096 9.16013 78.5596C19.3601 81.7496 29.8301 79.9998 40.1701 80.2998Z" fill="#F1C49D"/>
<path d="M102.15 70.48C78.15 76.83 53.7 77.4802 29.15 75.2002C21.44 74.4702 13.89 72.1001 6.25005 70.5601C3.16005 69.9301 4.01005 67.5603 4.25005 65.8203C4.65005 63.3203 6.52005 64.6903 7.78005 65.0103C28.35 70.3003 49.17 70.2303 70.14 68.3203C82.2 67.2203 94.35 66.9099 106.08 63.4199C106.9 66.9499 103.55 68.17 102.15 70.48Z" fill="#ADB3B6"/>
<path d="M76.4901 49.9194C74.9101 52.9794 71.4901 54.1298 68.8901 57.5698C79.5701 58.2398 89.5201 60.8496 99.8901 60.0396C92.4201 56.5696 83.9801 58.0396 75.9601 55.3696C77.2842 53.2346 79.321 51.6372 81.7101 50.8599C81.9287 50.7905 82.1593 50.7668 82.3873 50.791C82.6154 50.8152 82.836 50.8863 83.0352 51C83.2344 51.1137 83.4078 51.2676 83.5446 51.4517C83.6814 51.6357 83.7786 51.8463 83.8301 52.0698C83.8301 52.4198 82.1801 51.9896 81.8901 53.3296C86.9701 54.6596 92.4301 53.5096 97.3501 55.7896C99.2701 56.6796 102.01 56.9394 101.69 59.6494C101.4 62.0994 98.5901 61.7694 96.8301 62.1694C94.045 62.7726 91.1531 62.6664 88.4201 61.8599C81.8001 59.9699 74.6801 61.3597 68.1301 58.4297C65.6701 57.3297 64.6201 61.5596 62.1301 62.0796C61.4201 58.4396 65.8801 54.3896 76.1301 49.3496C76.2001 49.5296 76.3501 49.7194 76.4901 49.9194Z" fill="#ADB3B6"/>
<path d="M24.5801 62.32C18.2301 61.69 13.2001 63.6 8.43014 61.32C7.32013 60.79 5.30014 60.7096 5.50014 59.1696C5.73014 57.4396 7.57014 57.27 9.09014 57.55C18.0901 59.18 27.2401 58.8 36.3001 59.55C37.0501 59.61 38.4501 59.3299 38.3601 60.1999C38.1232 61.8105 37.5981 63.3652 36.8101 64.7897C36.7016 64.9698 36.5484 65.1189 36.3653 65.2223C36.1822 65.3258 35.9754 65.38 35.7651 65.38C35.5548 65.38 35.3481 65.3258 35.165 65.2223C34.9819 65.1189 34.8287 64.9698 34.7201 64.7897C31.5601 60.8997 26.9901 62.97 24.5801 62.32Z" fill="#ADB3B6"/>
<path d="M49.5401 51.8898C40.6101 57.8898 31.2201 52.8898 22.0601 53.4098C31.0201 49.3998 40.2301 49.7398 49.5401 51.8898Z" fill="#ADB3B6"/>
<path d="M70.6202 48.8799C66.8902 51.5899 63.1902 54.3395 59.4102 56.9795C55.4102 59.7795 50.8402 57.8498 47.4102 58.2798C51.4102 53.8898 57.3502 51.4595 62.9502 48.4395L70.6202 48.8799Z" fill="#ADB3B6"/>
<path d="M40.1699 80.3002C29.8299 80.0002 19.3599 81.7499 9.16995 78.5599C7.72995 78.1099 7.06994 79.0899 6.39994 80.0599C5.26994 73.9799 5.30994 73.82 11.3999 75.43C20.8299 77.95 30.5099 79.0502 40.1699 80.3002Z" fill="#D7D5CC"/>
<path d="M49.7901 62.4902C51.7901 62.4902 53.7901 62.4902 55.7901 62.4902C56.7901 62.4902 57.8801 62.62 57.9001 64C57.9001 65 57.2201 65.4103 56.3401 65.5903C51.8901 66.5003 47.4201 66.1703 42.9601 65.8403C42.1201 65.7803 41.3501 65.3801 41.3501 64.3301C41.3501 63.0001 42.3501 62.6999 43.3501 62.6699C45.5001 62.6199 47.6601 62.6699 49.8101 62.6699L49.7901 62.4902Z" fill="#ADB3B6"/>
<path d="M80.8998 79.5799C70.9998 80.7799 61.1298 82.2099 51.1198 80.8499C48.6898 80.5199 46.2098 80.5199 43.7598 80.3699C48.0698 78.8699 52.5498 79.7498 56.9498 79.5198C63.3598 79.1898 69.8298 79.9099 76.1798 78.6199C78.0098 78.2599 79.3598 79.2799 80.8998 79.5799Z" fill="#ADB3B6"/>
<path d="M105.05 77.2302C98.7699 78.1802 92.4899 79.1703 86.1099 78.3703C91.7699 75.5603 98.0099 74.9706 104.11 74.1106C107.17 73.6406 105.77 75.8402 105.05 77.2302Z" fill="#D7D5CC"/>
<path d="M65.23 63.1104C69.9 61.2504 73.99 61.6004 81.99 64.1104C76.53 65.3404 71.48 63.2604 65.23 63.1104Z" fill="#ADB3B6"/>
<path d="M102.15 70.4793C103.55 68.1693 106.89 66.9492 106.15 63.4192C108.09 62.7392 108.64 63.9097 108.15 65.3597C107.59 67.1597 108.07 69.6997 105.52 70.3597C104.406 70.5389 103.274 70.5788 102.15 70.4793Z" fill="#D7D5CC"/>
<path d="M70.6199 48.88L62.8999 48.4395C65.2299 46.6795 67.9899 46.4395 70.7499 46.4395C71.5799 46.4395 73.0299 45.9595 72.9599 47.4395C72.8999 48.4395 71.5199 48.55 70.6199 48.88Z" fill="#D7D5CC"/>
<path d="M76.0498 49.35C76.3598 48.69 77.0498 48.3498 77.4098 48.8998C77.8798 49.6298 76.9498 49.6998 76.4898 49.8998C76.3498 49.7198 76.1998 49.53 76.0498 49.35Z" fill="#ADB3B6"/>
<path d="M111.12 19.54C111.88 24.22 112.38 28.8104 111.35 33.6104C109.62 41.7204 108.7 42.7301 99.96 43.0601C101.71 34.2801 106.35 26.88 111.12 19.54Z" fill="#ADB3B6"/>
<path d="M111.12 19.54C106.35 26.88 101.71 34.2801 99.9602 43.0601C95.2502 42.0601 94.3002 39.4204 96.1902 35.1304C97.7702 31.5404 100.7 29.05 102.87 25.96C105.41 22.35 107.87 18.6799 110.79 14.4199C110.9 16.4999 111.02 18.02 111.12 19.54Z" fill="#FCFCFC"/>
</g>
<defs>
<clipPath id="clip0_6962_20382">
<rect width="119.89" height="153.31" fill="white"/>
</clipPath>
</defs>
</svg>
