<svg width="67" height="180" viewBox="0 0 67 180" fill="none" xmlns="http://www.w3.org/2000/svg">
<g clip-path="url(#clip0_6962_20407)">
<path d="M41.54 179.31C29.87 180.41 18.54 177.39 7.89001 170.61C2.31001 167.07 0.950007 162.69 1.03001 156.76C1.16001 147.22 1.43001 137.64 0.670007 128.15C-0.155924 118.503 -0.216121 108.806 0.489999 99.1501C0.969999 92.9801 0.760012 86.78 1.41001 80.55C2.14001 73.43 6.99001 68.72 9.69001 62.8C13.23 55.03 16.31 47.0199 19.11 38.9499C21.28 32.6799 23.43 26.4001 24.24 19.6701C24.4983 16.7538 24.3503 13.8157 23.8 10.9401C22.86 4.78015 25.33 1.75023 31.4 0.770225C34.35 0.290225 37.28 1.31011 40.25 0.150108C42.31 -0.659892 42.48 1.64017 42.79 2.96017C44.65 11.0202 45.46 19.25 47.46 27.32C50.11 37.99 53.58 48.3799 57.17 58.6999C59.4 65.1299 61.77 71.5102 63.65 78.0402C65.78 85.4102 64.02 93.0403 64.65 100.58C65.93 115.42 65.1 130.36 66.23 145.24C66.83 153.08 66.39 161 66.57 168.87C66.65 172.01 64.38 173.5 62.31 174.44C56.02 177.29 49.5 179.59 41.54 179.31ZM20.71 168.71C25.22 170.71 29.94 170.06 34.71 170.31C41.2484 170.543 47.7861 169.829 54.12 168.19C56.76 167.57 57.35 166.05 57.72 163.67C58.45 159.11 57.48 154.58 57.78 150.04L57.99 149.69L57.75 150.01C45.43 150.21 33.11 150.86 20.83 149.24C19.3816 148.039 17.6994 147.152 15.8901 146.636C14.0809 146.12 12.1841 145.985 10.32 146.24C8.5 146.49 9.56 151.8 9.32 154.82C9.17 156.42 9.71 158.1 9.48 159.68C9.30317 160.573 9.42946 161.5 9.83883 162.313C10.2482 163.126 10.9173 163.78 11.74 164.17C14.58 165.87 17.18 168.22 20.71 168.71ZM33.4 22.7102C29.78 20.0402 28.55 20.8901 28.4 25.4201C28.3076 29.5374 27.6343 33.621 26.4 37.55C21.4 52.95 15.6 68.0099 7.29 81.99C5.14 85.61 6.42001 88.6701 10.45 89.6301C12.66 90.1601 14.91 90.5499 17.13 90.99C29.73 95.2 42.35 93.9199 54.98 91.1999C58.85 90.3599 57.86 87.2002 57.3 85.2502C54.74 76.4802 51.73 67.8401 48.84 59.1701C45.37 48.7701 41.22 38.4601 39.89 27.6101C39.27 22.3101 36.99 22.4802 33.4 22.7502V22.7102ZM56.56 96.4699C54.914 98.3035 52.7474 99.5909 50.35 100.16C36.95 103.57 24.1 100.58 11.42 96.7502C6.97001 95.4102 6.63 96.87 6.9 100.51C7.65 110.71 8.48001 120.92 8.78001 131.14C8.93001 136.29 9.44 139.85 15.87 140.34C18.39 140.53 21.18 141.51 23.87 141.87C33.08 143.266 42.4436 143.324 51.67 142.04C55.04 141.52 57.38 140.46 57.84 135.99C58.3 131.52 57.08 127.27 56.84 122.93C56.29 114.36 58.23 105.74 56.56 96.51V96.4699ZM36.47 11.9602C37.47 8.29017 35.39 7.82017 32.47 7.71017C29.76 7.61017 28.47 8.71001 28.52 11.3C28.63 15.06 31.96 11.8002 33.42 13.5002C35.64 16.1302 37.04 15.5102 36.47 12.0002V11.9602Z" fill="#404141"/>
<path d="M56.5601 96.5104C58.2301 105.74 56.2901 114.36 56.8201 122.97C57.0901 127.31 58.3101 131.47 57.8201 136.03C57.3301 140.59 55.0201 141.561 51.6501 142.081C42.4237 143.364 33.0601 143.307 23.8501 141.91C21.1501 141.55 18.3601 140.57 15.8501 140.38C9.42007 139.89 8.91007 136.33 8.76007 131.18C8.46007 120.96 7.63008 110.75 6.88008 100.55C6.61008 96.9104 6.95007 95.4506 11.4001 96.7906C24.0801 100.621 36.9301 103.61 50.3301 100.2C52.7347 99.6351 54.9087 98.3474 56.5601 96.5104Z" fill="#FCFCFC"/>
<path d="M33.3999 22.7504C36.9899 22.4804 39.2699 22.3103 39.9299 27.6503C41.2599 38.5003 45.4099 48.8104 48.8799 59.2104C51.7699 67.8804 54.7799 76.5204 57.3399 85.2904C57.8999 87.2004 58.8899 90.4002 55.0199 91.2402C42.3899 93.9602 29.7699 95.2402 17.1699 91.0302C16.6899 89.0802 16.1699 87.08 16.7499 85.12C18.9399 77.46 20.3599 69.6304 23.0199 62.0404C27.4999 49.2504 33.6299 36.8204 33.3999 22.7504Z" fill="#F1C49D"/>
<path d="M57.7502 150.041C57.4502 154.581 58.4202 159.11 57.6902 163.67C57.3202 166.05 56.6902 167.57 54.0902 168.19C47.7562 169.829 41.2185 170.543 34.6802 170.311C29.9402 170.061 25.2202 170.7 20.6802 168.71L20.7702 149.24C33.0502 150.86 45.3702 150.24 57.6902 150.01L57.7502 150.041Z" fill="#F1C49D"/>
<path d="M33.4001 22.7506C33.6301 36.8206 27.5001 49.2506 23.0201 62.0406C20.3601 69.6306 18.9401 77.4602 16.7501 85.1202C16.1901 87.1202 16.6901 89.1204 17.1701 91.0304C14.9501 90.5904 12.7001 90.2005 10.4901 89.6705C6.49007 88.6705 5.18008 85.6704 7.33008 82.0304C15.6401 68.0304 21.4701 53.0304 26.4401 37.5904C27.6743 33.6614 28.3477 29.5778 28.4401 25.4605C28.5501 20.9305 29.8101 20.0806 33.4001 22.7506Z" fill="#FCFCFC"/>
<path d="M20.81 149.24L20.72 168.71C17.19 168.22 14.59 165.87 11.67 164.17C10.8473 163.78 10.1782 163.127 9.76886 162.313C9.35949 161.5 9.23322 160.573 9.41005 159.68C9.64005 158.1 9.10005 156.42 9.25005 154.82C9.54005 151.82 8.48005 146.49 10.25 146.24C12.1221 145.978 14.0283 146.109 15.8467 146.625C17.6651 147.142 19.3556 148.032 20.81 149.24Z" fill="#FCFCFC"/>
<path d="M36.4698 12.0006C37.0398 15.5106 35.6398 16.1306 33.4698 13.5406C32.0098 11.8406 28.6798 15.1004 28.5698 11.3404C28.4898 8.71042 29.8098 7.65057 32.5198 7.75057C35.3898 7.86057 37.4598 8.33057 36.4698 12.0006Z" fill="#D7D5CC"/>
<path d="M57.7202 150.01L57.9602 149.69L57.7502 150.041L57.7202 150.01Z" fill="#F1C49D"/>
</g>
<defs>
<clipPath id="clip0_6962_20407">
<rect width="66.58" height="179.53" fill="white"/>
</clipPath>
</defs>
</svg>
