<svg width="212" height="215" viewBox="0 0 212 215" fill="none" xmlns="http://www.w3.org/2000/svg">
<g clip-path="url(#clip0_6962_20424)">
<path d="M119.15 70.6202C114.4 63.0002 115.87 55.7704 116.25 48.8004C116.58 42.8704 118.04 37.0004 118.64 31.0704C119.15 26.0704 121.64 23.6503 126.43 22.2003C136.95 19.1931 147.761 17.3224 158.68 16.6202C161.37 16.4102 163.37 17.0803 163.32 20.2203C163.32 23.2203 161.96 24.7601 158.67 24.5601C148.99 23.9901 140.03 27.4103 130.86 29.7203C128.86 30.2203 127.58 31.0405 127.64 33.3805C127.87 43.0305 126.17 52.6404 126.91 62.3204C127.01 63.5604 126.51 65.4702 128.39 65.3902C130.27 65.3102 129.39 63.2802 129.54 62.1602C130.35 54.2502 131.03 46.3305 131.72 38.4005C132 35.2305 133.38 33.2601 136.85 33.9801C149.16 36.5101 161.66 35.3301 174.07 35.9801C177.225 36.1129 180.371 36.4267 183.49 36.92C186.72 37.47 188.25 39.56 188.05 42.92C187.83 46.64 185.59 46.8002 182.57 46.6602C173.43 46.2102 164.29 45.9101 155.14 45.8101C151.24 45.8101 147.59 44.71 143.86 43.94C141.04 43.35 139.48 43.7701 139.8 47.3101C140.63 56.3801 138.33 65.5305 140.57 74.6305C141.2 77.1705 142.02 77.7404 144.5 77.5504C150.5 77.1004 156.34 78.8601 162.34 78.2301C164.4 78.0101 165.84 79.0603 165.56 81.4903C165.373 82.1407 165.343 82.8258 165.47 83.4903C172.17 98.6303 168.1 114.74 169.65 130.34C170.65 140.56 170.17 150.93 170.95 161.19C171.3 165.89 167.95 167.13 165.36 167.37C155.8 168.24 146.36 170.29 136.69 170.19C117.41 169.98 98.12 169.77 78.84 169.39C56.84 168.96 35.02 166.71 13.2299 164.01C10.7199 163.69 7.90996 162.89 6.68996 166.52C6.37996 167.43 4.95995 168.77 3.89995 167.95C2.02995 166.5 -0.100051 165.06 0.0099485 162.07C0.299948 156.01 0.309952 149.95 0.669952 143.9C1.58995 128.52 2.37995 113.01 0.929947 97.7804C0.209947 90.2604 3.69995 88.1704 7.75995 84.0904C14.9199 76.8904 23.31 77.8504 31.86 78.3404C37.31 78.6504 42.0999 77.44 47.3499 75.44C65.6099 68.49 84.8 66.6702 104.27 68.1002C109.319 68.2817 114.322 69.1291 119.15 70.6202V70.6202ZM81.83 73.5601C82.28 70.7501 80.16 71.6803 78.94 71.7403C68.2074 72.1874 57.6011 74.2299 47.47 77.8004C44.83 78.8004 40.9199 79.6703 40.8699 82.9503C40.8199 85.8703 44.61 86.6704 46.94 88.0904C48.04 88.7604 49.0099 89.8 50.4799 89.69C53.89 91.25 57.4799 90.69 61.8699 90.69C58.4629 88.5676 54.6 87.286 50.5999 86.9503C48.9499 83.9503 49.04 83.5204 51.53 82.5704C51.53 85.0604 53.2599 85.6704 55.1799 85.5704C62.4599 85.2504 69.73 84.7802 77 84.3702C77.92 84.3702 78.6299 84.0203 78.5999 82.9703C78.6185 82.5502 78.4789 82.1382 78.2086 81.816C77.9382 81.4938 77.5569 81.2847 77.14 81.2301C76 81.0401 74.8299 80.9802 73.6799 80.8902C66.1899 80.2702 58.82 81.2802 51.4799 82.6002C52.3399 79.1402 55.56 79.1503 58.05 78.5103C65.13 76.6703 72.45 76.2702 79.7 75.4102C81.12 76.0102 80.12 78.0603 81.7 79.2003C82.41 76.9803 82.67 75.2901 81.83 73.5601ZM92.53 119.62C93.8 120.05 95.53 119.39 96.53 121.39C80.83 121.62 65.4399 121.5 50.2299 118.58C47.9499 118.15 44.04 118.97 45.31 114.06C45.51 113.3 44.31 110.58 41.92 111.93C40.5826 112.614 39.0553 112.832 37.58 112.55C37.7 111.08 41.81 111.19 39.17 108.68C36.84 106.47 37.29 104.68 39.17 102.29C41.05 99.9001 39.42 95.7204 36.55 95.6104C27.75 95.2804 18.9299 95.3002 10.1199 95.0802C5.48995 94.9602 4.18995 97.2301 4.60995 101.54C4.79066 104.871 4.79066 108.209 4.60995 111.54C4.38665 112.054 4.28406 112.613 4.31006 113.172C4.33606 113.732 4.48995 114.279 4.75995 114.77C4.87995 117.25 4.95995 119.77 5.10995 122.22C5.77662 133.674 6.47996 145.127 7.21996 156.58C7.32996 158.43 7.26996 160.2 9.93996 160.44C20.5 161.44 31.03 162.77 41.61 163.53C65.19 165.24 88.8 164.6 112.42 164.53C128.365 164.615 144.288 163.32 160.01 160.66C162.24 160.27 162.79 159.66 163.01 157.26C164.09 144.74 164.15 132.19 164.39 119.65V117.49C164.55 111.55 164.57 105.6 164.95 99.67C165.09 97.5 164.69 96.67 162.48 96.67C157.36 96.67 152.23 96.3601 147.12 96.5401C145.73 96.5901 142.65 95.8001 143 97.7701C143.54 100.87 139.83 103.13 141.85 106.04C144.08 109.25 144.2 112.88 144.35 116.53C143.35 116.98 142.35 117.75 141.04 117.36C141.6 113.91 142.4 110.36 138.97 107.62C138.12 109.13 139.47 109.96 139.52 111.1C139.61 113.2 139.26 115.2 137.61 116.52C135.96 117.84 134.61 115.89 133.19 115.39C129.65 114.19 126.09 112.97 122.46 112.06C119.84 111.41 119.86 111.63 119.53 114.75C119.53 115.12 118.16 115.35 117.43 115.65C115.54 114.623 113.368 114.237 111.24 114.55C105.781 115.511 100.242 115.95 94.7 115.86C92.99 115.39 91.01 115.52 89.41 113.69C90.99 113.69 92.1699 113.58 93.3199 113.69C108 115.28 121.47 110.41 134.96 105.82C139.61 104.24 140.76 101.33 138.96 96.8204C138.52 100.7 136.45 102.45 133.25 103.82C122.7 108.27 111.71 110.22 100.37 110.74C86.5599 111.37 72.8199 109.74 59.0399 109.38C56.0374 109.354 53.0651 108.777 50.27 107.68C48.27 106.85 45.01 106.88 46.27 102.89C46.76 101.29 44.84 101.38 43.8 101.46C42.3 101.57 41.61 102.83 41.02 104.04C40.3 105.53 41.13 106.49 42.16 107.49C45.79 111.05 50.71 110.77 55.16 112.04C56.56 112.44 60.3199 111.17 58.2599 115.31C57.9699 115.9 59.0699 116.87 60.3699 116.16C68.7599 111.61 77.06 113.34 85.31 116.65C85.61 122.68 90.14 118.52 92.53 119.62ZM132.71 77.0904C135.97 74.3704 136.23 71.4104 136.31 68.5504C136.51 60.5504 136.603 52.5802 136.59 44.6402C136.59 41.8902 137.22 39.6401 140.44 40.5401C151.8 43.8201 163.44 42.5904 175.01 43.0504C177.71 43.1604 181.01 44.1304 184.07 41.5304C183.364 41.1367 182.616 40.8245 181.84 40.6002C167.02 38.6002 151.99 38.8204 137.21 36.3604C134.79 35.9604 134.49 37.3601 134.51 39.3101C134.516 43.7923 134.182 48.2687 133.51 52.7003C132.373 60.7784 132.105 68.9552 132.71 77.0904V77.0904ZM7.61995 88.2501C10.5099 90.0301 13.28 88.79 15.95 88.92C23.29 89.26 30.62 89.61 37.95 90.19C39.95 90.34 42.14 89.44 41.17 88.19C39.17 85.64 39.2499 80.4002 33.5399 81.6202C30.2733 82.265 26.9141 82.2855 23.64 81.6803C16.84 80.4803 12.4099 84.2301 7.61995 88.2501ZM159.56 22.6505C159.31 20.7305 158.56 20.6505 157.98 20.6505C147.184 20.9712 136.49 22.847 126.23 26.2203C125.182 26.5227 124.252 27.1412 123.569 27.9913C122.885 28.8414 122.48 29.8817 122.41 30.9703C121.71 36.4103 120.58 41.7901 119.94 47.2301C119.25 52.5159 119.15 57.862 119.64 63.17C119.82 64.95 120.73 66.7002 122.56 66.6602C124.39 66.6202 123.68 64.66 123.73 63.46C124.13 54.34 124.73 45.2104 124.73 36.0904C124.73 30.9204 127.08 28.61 131.73 27.44C140.87 25.14 149.82 21.9705 159.56 22.6505ZM129.26 97.5201C125.39 96.3001 121.71 95.6804 118 97.0704C109.66 100.19 100.81 100.84 92.09 101.5C76.75 102.68 61.59 101.21 46.95 96.0601C45.55 95.5701 43.47 94.9202 42.95 96.3702C42.21 98.3702 44.5499 98.5202 45.8499 98.8702C51.4159 100.547 57.098 101.81 62.8499 102.65C80.3763 104.792 98.1363 104.019 115.41 100.36C119.99 99.4104 124.63 98.4601 129.31 97.5201H129.26ZM141.08 87.4102C141.36 87.9102 138.35 91.1002 142.59 91.1202C147.92 91.1202 153.29 91.55 158.59 90.19C159.97 89.83 162.1 90.6703 162.59 88.9503C163.1 87.0203 161.73 85.14 160.75 83.44C160 82.15 158.38 82.2602 157.13 82.1402C153.32 81.7902 149.49 81.7102 145.68 81.4102C141.87 81.1102 139.16 81.5402 141.08 87.4102ZM124.64 79.9005C123.91 79.2905 123.64 78.9003 123.2 78.7203C121.956 78.2578 120.687 77.8637 119.4 77.5401C109.05 75.0401 98.58 75.7001 88.13 76.5401C86.94 76.6301 84.97 76.0403 84.91 77.9303C84.84 79.9903 86.8399 79.8303 88.2899 79.9303C95.5899 80.3003 102.97 80.0602 110.16 81.1402C115.08 81.8202 119.59 81.9605 124.64 79.8805V79.9005ZM106.08 73.46C112.75 73.46 119.31 73.9201 125.63 76.3101C126.63 76.7001 128.14 77.2102 128.25 75.4102C128.31 74.4702 127.36 74.3304 126.15 74.3404C123.692 74.1788 121.256 73.7698 118.88 73.1202C108.616 71.1544 98.1631 70.3561 87.72 70.7403C85.99 70.7403 84.3199 70.8802 84.4599 73.3502C84.6099 76.0902 86.4599 74.8301 87.7299 74.7501C93.8499 74.3501 99.9599 73.8802 106.08 73.4102V73.46ZM138.08 75.6202C133.39 82.4902 125.91 83.69 118.71 85.42C111.51 87.15 104.27 88.8004 97.5999 90.3604C101.77 91.4504 106.39 90.7701 111.1 89.5001C117.81 87.6901 124.63 86.3002 131.42 84.8302C136.37 83.7502 138.38 81.1002 138.11 75.6002L138.08 75.6202ZM110.08 83.5103C102 82.9003 94.76 82.3502 87.52 81.8302C86.52 81.7602 85.41 81.8901 85.52 83.2901C85.52 84.2901 86.44 84.5802 87.3 84.6002C94.58 84.7902 101.93 88.0503 110.11 83.4903L110.08 83.5103ZM98.92 105.41C106.23 104.87 113.6 109.23 121.15 104.9C113.868 102.746 106.095 102.924 98.92 105.41V105.41ZM62.1499 97.4102C67.3799 99.1902 71.78 100.07 76.41 99.5802C77.47 99.4702 78.41 99.3 78.41 97.96C78.4424 97.7124 78.4221 97.461 78.3504 97.2218C78.2786 96.9825 78.1571 96.7613 77.9937 96.5723C77.8302 96.3834 77.6287 96.231 77.4023 96.1256C77.1759 96.0201 76.9297 95.9636 76.6799 95.96C72.0599 96.52 67.2299 94.4702 62.1499 97.4102ZM98.38 98.2003C93.99 95.0403 89.43 97.0001 84.97 96.7501C83.91 96.6901 83.4999 97.3301 83.6499 98.2901C83.8399 99.5201 84.12 100.16 85.84 99.8404C89.97 99.0404 94.19 98.71 98.38 98.19V98.2003ZM106.38 108.11C100.81 107.51 95.2599 105.9 89.6199 107.5C95.1299 109.03 100.67 110.11 106.37 108.1L106.38 108.11ZM60.11 87.1104C66.26 88.6404 72.32 89.17 78.33 87.17C72.22 86.59 66.1199 85.9802 60.0999 87.1002L60.11 87.1104ZM119.11 101.95C122.11 102.4 124.34 102.79 126.63 103.07C127.26 103.15 128.01 103.07 128.24 102.25C128.53 101.25 127.94 100.67 127.07 100.43C124.52 99.7203 122.2 100.59 119.13 101.94L119.11 101.95ZM77.69 107.11C73.08 106.58 68.5 105.3 63.83 106.46C68.366 107.608 73.0875 107.826 77.7099 107.1L77.69 107.11ZM138 85.4102C136.52 88.0102 133.9 88.6503 133 91.2603C138.47 91.0403 138.47 91.0402 138 85.4102ZM78.31 118.29C74.74 116.76 71.1999 117.64 67.6499 118.11C71.1499 119.32 74.68 120.25 78.31 118.29ZM56.31 104.1C55.7301 103.847 55.1274 103.649 54.5099 103.51C52.5099 103.21 50.5099 101.62 48.5099 103.32C48.3499 103.45 48.5099 104.38 48.7599 104.53C50.9499 105.79 53.2199 106.62 55.6199 105.04C55.8899 104.87 56.02 104.52 56.31 104.1V104.1ZM128.75 69.5201C126.94 68.1001 125.62 67.1904 123.56 67.8004C124.141 68.5911 124.954 69.1812 125.886 69.4893C126.817 69.7975 127.822 69.8083 128.76 69.5201H128.75Z" fill="#404141"/>
<path d="M56.7099 202.41C56.7099 208.35 53.3599 212.41 47.1099 213.96C44.2891 214.732 41.3099 214.711 38.5007 213.897C35.6916 213.084 33.1617 211.51 31.1899 209.35C27.2699 205.15 28.9299 199.9 30.9999 194.91C34.0799 187.48 38.9399 181.19 43.2499 174.54C44.0399 173.32 44.9999 171.671 46.5199 171.901C48.0399 172.131 47.3999 174.1 47.7399 175.29C49.4699 181.35 53.3899 186.5 54.9099 192.67C55.7099 195.87 56.7099 199.03 56.7099 202.41ZM36.5199 204.48C37.7899 200.3 37.6099 195.53 41.7599 192.57C44.1199 190.89 45.6599 191.11 46.6299 193.97C47.8499 197.57 47.2599 201.13 46.7399 204.77C46.5199 206.33 44.1799 208.51 46.4499 209.45C49.1499 210.57 50.3399 207.6 51.5499 205.75C52.0763 204.71 52.2883 203.539 52.1599 202.381C51.7399 194.381 48.3399 187.48 44.0199 180.43C39.0199 186.76 34.9199 192.731 33.4699 200.111C31.9299 203.961 33.5299 206.17 37.5699 207.79L36.5199 204.48ZM41.7299 208.57C44.2699 204.2 44.7299 200.35 42.8999 195.69C39.5599 199.89 39.9399 203.82 41.7299 208.55V208.57Z" fill="#404141"/>
<path d="M128.07 171.41C131.46 182.76 136.65 191.65 137.63 201.93C138.3 208.98 136.51 211.73 129.63 213.25C125.733 214.232 121.636 214.069 117.83 212.78C114.36 211.54 112.01 209.04 112.33 205.37C113.45 192.63 120.43 182.64 128.07 171.41ZM119.15 197.96C119.71 197.35 120.22 196.69 120.82 196.15C122.61 194.54 124.08 191.69 126.88 192.72C129.68 193.75 129.38 196.67 129.5 199.15C129.5 199.64 129.59 200.15 129.63 200.62C130.12 203.89 127.34 206.12 126.38 209.34C129.32 208.67 132.48 208.71 132.66 205.61C132.9 201.61 133.44 197.32 130.66 193.74C128.51 190.1 128.91 185.22 125.26 182.02C122.61 187.38 119.59 192.13 118.32 197.65C116.92 201.02 115.18 204.4 118.8 207.53C117.6 204.25 118.54 201.1 119.15 197.94V197.96ZM124.81 196.81C122.05 200.15 120.28 202.99 125.06 206.16C125.24 202.93 126.62 200.19 124.81 196.79V196.81Z" fill="#404141"/>
<path d="M85.2301 174.17C86.5301 179.84 89.9301 184.17 92.7201 188.87C95.5101 193.57 97.6101 198.32 98.1801 203.67C98.4701 206.39 98.8201 209.34 96.2901 211.52C92.8801 214.46 84.4701 214.97 79.6501 212.52C74.8301 210.07 72.6501 205.52 73.3801 199.64C73.7958 196.337 74.8776 193.153 76.5601 190.28C78.9401 186.11 81.4301 182.04 82.3001 177.21C82.4147 176.463 82.7579 175.769 83.2825 175.225C83.8072 174.681 84.4875 174.312 85.2301 174.17V174.17ZM78.5901 201.98C79.5301 200.26 79.7601 198.15 81.4801 196.86C82.7501 195.91 83.5701 194.07 85.5601 194.49C87.8001 194.98 88.0601 197.08 88.3601 198.78C88.9887 201.71 88.8054 204.757 87.8301 207.59C86.9001 210.06 87.9301 211.05 90.5001 210.13C92.6501 209.89 94.9601 209.73 94.7401 206.7C94.5201 203.67 94.7401 200.51 92.5001 198.02C90.7601 194.7 89.1401 191.3 87.2301 188.08C85.3201 184.86 83.2801 184.27 81.4101 188.24C80.5001 190.15 79.4101 191.98 78.4101 193.84C76.2801 197.79 75.2501 201.69 79.0801 206.69C78.8201 204.25 78.7101 203.12 78.5901 201.98V201.98ZM84.0001 199.1C81.7501 201.93 81.7301 204 84.7401 206.59C85.5401 203.74 85.7001 201.67 84.0001 199.1V199.1Z" fill="#404141"/>
<path d="M198.7 37.8203C200.92 42.0503 195.56 43.66 195.6 47.48C200.07 46.38 204.32 48.16 208.66 47.75C212.23 47.42 211.79 50.4104 211.97 52.1304C212.26 54.8804 209.97 53.9101 208.42 53.8101C206.6 53.6901 204.78 53.6501 202.95 53.6001C196.79 53.4401 196.83 53.43 198.06 59.48C198.3 60.63 199.11 62.4101 197.21 62.8101C196.474 63.0048 195.692 62.9129 195.022 62.5527C194.352 62.1925 193.843 61.591 193.6 60.8701C192.98 59.1701 192.75 56.8699 191.52 55.9399C186.16 51.7999 188.14 48.2902 191.95 44.7002C194.31 42.5202 194.9 38.6603 198.7 37.8203Z" fill="#FFDB85"/>
<path d="M178.47 16.4701C177.079 14.314 175.577 12.231 173.97 10.2298C172.43 8.49985 172.27 7.16024 174.09 5.63024C176.09 3.96024 176.7 5.97983 177.54 6.95983C179.9 9.73983 182.22 12.5599 184.38 15.4999C186.38 18.2699 186.84 21.2001 184.76 24.2801C183.38 26.3301 182.34 28.6198 180.95 30.6698C179.82 32.3498 178.03 32.27 176.5 31.37C174.79 30.37 175.96 28.9998 176.57 27.9198C177.71 25.9198 178.99 24.0102 180.21 22.0702C175.65 19.0702 170.43 21.8202 165.66 20.3202C168.46 14.1002 174.14 18.2301 178.47 16.4701Z" fill="#FFDB85"/>
<path d="M92.23 58.3004C97.61 52.8404 97.02 47.5805 92.32 42.3805C91.08 41.0205 89.72 39.5203 91.56 37.6603C93.4 35.8003 95.19 33.7102 98.11 33.5402C98.2761 33.5174 98.4453 33.5305 98.606 33.5783C98.7668 33.626 98.9155 33.7073 99.0423 33.817C99.1691 33.9268 99.2711 34.0627 99.3414 34.215C99.4117 34.3672 99.4487 34.5326 99.45 34.7003C99.31 38.8803 102.06 42.1602 102.9 46.0402C104.42 53.0302 100.31 57.9904 92.23 58.3004Z" fill="#404141"/>
<path d="M67.79 55.9499C74.53 53.5199 72.9801 50.1199 70.2701 45.9499C67.1801 41.1799 70.09 35.1897 75.65 33.7497C76.95 33.4097 78.41 33.5198 78.05 35.0798C77.05 39.2798 79.3 42.7698 80.05 46.5798C81.67 54.8098 77.64 58.1399 67.79 55.9499ZM74.93 42.4596C73.93 42.3896 73.83 42.9201 73.93 43.3801C73.9443 44.0161 74.1347 44.6353 74.48 45.1696C74.89 45.6296 75.38 45.1701 75.35 44.6301C75.2609 43.8978 75.1206 43.1723 74.93 42.4596V42.4596ZM77.6301 50.9396L76.91 50.0397C76.76 50.3097 76.45 50.6098 76.49 50.8298C76.635 51.1932 76.8376 51.5308 77.09 51.8298L77.6301 50.9396ZM75.99 46.9396C75.86 47.0296 75.61 47.1496 75.62 47.2096C75.7083 47.4945 75.8186 47.7721 75.95 48.0397C76.07 47.9397 76.3 47.8099 76.29 47.7399C76.2121 47.4655 76.1118 47.1976 75.99 46.9396V46.9396Z" fill="#404141"/>
<path d="M53.74 33.1602C53.1221 36.8095 53.9547 40.5559 56.06 43.6001C58.22 47.1301 55.74 54.05 51.87 55.96C50.7 56.54 48.92 57.6203 49.37 54.5103C49.53 53.4203 48.51 52.08 47.84 50.96C43.18 43.15 44.6 38.2802 53.74 33.1602ZM49.46 39.6104C47.19 43.4104 49.46 46.0302 50.59 48.7202C50.94 49.5202 51.73 50.7202 52.83 50.2002C54.13 49.6302 53.92 48.1502 53.47 47.2002C52.38 44.8002 51.04 42.5404 49.46 39.6104Z" fill="#404141"/>
<path d="M34.97 117.65C28.66 117.71 22.64 117.13 17.08 113.35C12.99 110.56 8.86999 114.05 4.75999 114.75C4.49 114.259 4.33611 113.712 4.3101 113.152C4.2841 112.592 4.38669 112.034 4.61 111.52C6.36 111.91 7.85999 111.04 9.39999 110.52C14.06 108.97 18.59 109.03 22.67 111.97C27.58 115.51 32.49 115.12 37.57 112.54C39.0453 112.822 40.5726 112.604 41.91 111.92C44.31 110.57 45.5 113.29 45.3 114.05C44.03 118.96 47.94 118.14 50.22 118.57C65.43 121.49 80.82 121.57 96.52 121.38C95.52 119.38 93.8 120.04 92.52 119.61C90.87 116.71 87.78 117.32 85.22 116.61C76.97 113.3 68.67 111.61 60.28 116.12C58.98 116.83 57.88 115.86 58.17 115.27C60.23 111.13 56.47 112.4 55.07 112C50.66 110.73 45.74 111 42.07 107.45C41.07 106.45 40.21 105.45 40.93 104C41.52 102.79 42.21 101.53 43.71 101.42C44.71 101.34 46.71 101.25 46.18 102.85C44.93 106.85 48.18 106.85 50.18 107.64C52.9751 108.737 55.9474 109.313 58.95 109.34C72.73 109.7 86.47 111.34 100.28 110.7C111.62 110.18 122.61 108.23 133.16 103.78C136.36 102.44 138.43 100.69 138.87 96.7803C140.71 101.27 139.56 104.18 134.87 105.78C121.38 110.37 107.87 115.24 93.23 113.65C92.08 113.53 90.9 113.65 89.32 113.65C90.92 115.48 92.9 115.35 94.61 115.82C102.24 120.76 109.79 118.74 117.34 115.61C118.07 115.31 119.4 115.08 119.44 114.71C119.77 111.59 119.75 111.37 122.37 112.02C126 112.93 129.56 114.15 133.1 115.35C134.57 115.85 135.77 117.89 137.52 116.48C139.27 115.07 139.52 113.16 139.43 111.06C139.43 109.92 138.03 109.06 138.88 107.58C142.31 110.35 141.51 113.87 140.95 117.32C142.24 117.71 143.21 116.94 144.26 116.49C150.943 116.12 157.647 116.456 164.26 117.49V119.65C158.73 120.52 153.26 119.38 147.71 119.44C145.9 119.44 144.1 119.51 142.53 120.61C141.53 120.61 140.66 120.61 140.17 121.61H138.58C137.84 121.28 137.11 120.89 136.34 120.61C131.55 118.99 127.34 122.25 122.77 122.38C106.67 122.81 90.55 124.32 74.47 123.18C61.96 122.3 49.1 122.67 37.42 116.73C36.37 116.22 35.67 116.91 34.97 117.65ZM130.12 119.48C125.51 116.76 121.01 117.48 116.58 119.48H130.12Z" fill="#ADB3B6"/>
<path d="M132.71 77.0903C132.122 68.9533 132.407 60.7765 133.56 52.7002C134.232 48.2686 134.566 43.7923 134.56 39.3101C134.56 37.3101 134.84 35.9604 137.26 36.3604C152.04 38.8204 167.07 38.6401 181.89 40.6001C182.666 40.8244 183.415 41.1366 184.12 41.5303C181.12 44.1303 177.76 43.1603 175.06 43.0503C163.52 42.5903 151.85 43.82 140.49 40.54C137.27 39.61 136.64 41.8901 136.64 44.6401C136.64 52.6401 136.547 60.6103 136.36 68.5503C136.23 71.4103 135.97 74.4103 132.71 77.0903Z" fill="#ADB3B6"/>
<path d="M159.56 22.6498C149.82 21.9698 140.87 25.1396 131.73 27.4296C127.05 28.5996 124.73 30.9095 124.73 36.0795C124.73 45.1995 124.16 54.3296 123.73 63.4496C123.73 64.6196 124.49 66.6098 122.56 66.6498C120.63 66.6898 119.82 64.9396 119.64 63.1596C119.149 57.8515 119.25 52.5055 119.94 47.2196C120.58 41.7796 121.71 36.3994 122.41 30.9594C122.48 29.8707 122.885 28.8305 123.569 27.9804C124.252 27.1302 125.182 26.5117 126.23 26.2094C136.49 22.8361 147.184 20.9603 157.98 20.6395C158.61 20.6195 159.31 20.7298 159.56 22.6498Z" fill="#ADB3B6"/>
<path d="M129.31 97.5203C124.68 98.4603 120.04 99.3606 115.42 100.361C98.1463 104.019 80.3862 104.793 62.8599 102.651C57.108 101.811 51.4259 100.547 45.8599 98.8704C44.5599 98.5204 42.2199 98.3404 42.9599 96.3704C43.5099 94.9204 45.5899 95.5703 46.9599 96.0603C61.5999 101.21 76.7599 102.68 92.0999 101.5C100.82 100.84 109.67 100.191 118.01 97.0706C121.71 95.6806 125.39 96.3003 129.31 97.5203Z" fill="#ADB3B6"/>
<path d="M50.4801 89.6896C49.0101 89.7996 48.0401 88.7599 46.9401 88.0899C44.6101 86.6699 40.8201 85.8698 40.8701 82.9498C40.9201 79.6698 44.8701 78.7599 47.4701 77.7999C57.6013 74.2294 68.2075 72.1869 78.9401 71.7398C80.1601 71.6798 82.2801 70.7397 81.8301 73.5597C80.7001 73.7097 79.7001 73.9898 79.7001 75.4298C72.4501 76.2898 65.1301 76.6899 58.0501 78.5299C55.5601 79.1699 52.3401 79.1597 51.4801 82.6197L51.5301 82.5699C49.0401 83.5199 48.9501 83.9298 50.6001 86.9498L50.4801 89.6896Z" fill="#ADB3B6"/>
<path d="M124.64 79.8805C119.64 81.9605 115.08 81.8202 110.16 81.0802C102.97 80.0002 95.59 80.2402 88.29 79.8702C86.84 79.7902 84.84 79.9502 84.91 77.8702C84.97 75.9802 86.91 76.5701 88.13 76.4801C98.58 75.6601 109.05 75.0001 119.4 77.4801C120.687 77.8036 121.956 78.1977 123.2 78.6603C123.61 78.8503 123.91 79.2705 124.64 79.8805Z" fill="#D7D5CC"/>
<path d="M106.08 73.4096C99.9599 73.8496 93.8499 74.3196 87.7299 74.6996C86.4899 74.7796 84.6099 76.0397 84.4599 73.2997C84.3199 70.8297 85.9899 70.7294 87.7199 70.6894C98.1631 70.3051 108.616 71.1039 118.88 73.0697C121.256 73.7194 123.692 74.1278 126.15 74.2895C127.36 74.2895 128.31 74.4198 128.25 75.3598C128.14 77.1598 126.67 76.6497 125.63 76.2597C119.31 73.8997 112.75 73.4096 106.08 73.4096Z" fill="#ADB3B6"/>
<path d="M138.11 75.5996C138.38 81.0996 136.37 83.7496 131.45 84.8096C124.66 86.2796 117.84 87.6695 111.13 89.4795C106.42 90.7495 101.8 91.4798 97.6299 90.3398C104.3 88.7798 111.53 87.1299 118.74 85.3999C125.95 83.6699 133.42 82.4696 138.11 75.5996Z" fill="#ADB3B6"/>
<path d="M51.48 82.6198C58.82 81.2998 66.19 80.2899 73.68 80.9099C74.83 80.9999 76 81.0597 77.14 81.2497C77.557 81.3044 77.9383 81.5135 78.2086 81.8356C78.4789 82.1578 78.6186 82.5698 78.6 82.9899C78.6 84.0399 77.92 84.3398 77 84.3898C69.73 84.7998 62.46 85.27 55.18 85.59C53.26 85.67 51.52 85.06 51.53 82.59L51.48 82.6198Z" fill="#ADB3B6"/>
<path d="M110.11 83.4899C101.93 88.0499 94.5798 84.7898 87.2998 84.5798C86.4398 84.5798 85.5698 84.2897 85.5198 83.2697C85.4398 81.8697 86.5198 81.7397 87.5198 81.8097C94.7898 82.3297 102.03 82.8799 110.11 83.4899Z" fill="#ADB3B6"/>
<path d="M117.44 115.64C109.89 118.77 102.34 120.79 94.71 115.85C100.252 115.939 105.791 115.5 111.25 114.54C113.378 114.226 115.55 114.612 117.44 115.64V115.64Z" fill="#FCFCFC"/>
<path d="M98.9199 105.41C106.095 102.924 113.868 102.746 121.15 104.9C113.6 109.26 106.23 104.9 98.9199 105.41Z" fill="#D7D5CC"/>
<path d="M62.1499 97.41C67.2299 94.48 72.0599 96.53 76.6699 95.97C76.9197 95.9735 77.1658 96.0296 77.3922 96.1351C77.6187 96.2405 77.8202 96.3929 77.9836 96.5818C78.147 96.7707 78.2686 96.992 78.3403 97.2312C78.4121 97.4705 78.4324 97.7224 78.3999 97.97C78.3999 99.31 77.4699 99.4801 76.3999 99.5901C71.7799 100.06 67.3799 99.18 62.1499 97.41Z" fill="#D7D5CC"/>
<path d="M98.38 98.1902C94.19 98.7102 89.97 99.0403 85.84 99.8303C84.12 100.15 83.84 99.5105 83.65 98.2805C83.5 97.2805 83.91 96.6805 84.97 96.7405C89.43 96.9905 93.99 95.0302 98.38 98.1902Z" fill="#FCFCFC"/>
<path d="M106.37 108.1C100.67 110.1 95.1299 109.03 89.6099 107.49C95.2499 105.89 100.8 107.5 106.37 108.1Z" fill="#ADB3B6"/>
<path d="M60.1001 87.0998C66.1001 85.9798 72.2201 86.5898 78.3201 87.1598C72.3101 89.1598 66.2501 88.6298 60.1001 87.0998Z" fill="#D7D5CC"/>
<path d="M50.48 89.6899L50.6 86.9502C54.6 87.2859 58.4629 88.5676 61.87 90.6899C57.46 90.6799 53.89 91.2499 50.48 89.6899Z" fill="#D7D5CC"/>
<path d="M119.13 101.94C122.2 100.59 124.52 99.7197 127.13 100.42C128 100.66 128.59 101.22 128.3 102.24C128.07 103.05 127.3 103.14 126.69 103.06C124.36 102.78 122.09 102.41 119.13 101.94Z" fill="#ADB3B6"/>
<path d="M77.7101 107.1C73.0935 107.82 68.379 107.599 63.8501 106.45C68.5201 105.29 73.1001 106.57 77.7101 107.1Z" fill="#ADB3B6"/>
<path d="M138 85.4102C138.47 91.0302 138.47 91.0303 133 91.2603C133.9 88.6603 136.52 88.0202 138 85.4102Z" fill="#ADB3B6"/>
<path d="M78.3099 118.29C74.7199 120.29 71.1899 119.29 67.6499 118.11C71.1599 117.64 74.6999 116.76 78.3099 118.29Z" fill="#D7D5CC"/>
<path d="M56.3102 104.1C56.0102 104.52 55.8802 104.87 55.6302 105.04C53.2302 106.62 50.9602 105.79 48.7702 104.53C48.5202 104.38 48.3602 103.45 48.5202 103.32C50.5202 101.62 52.5202 103.21 54.5202 103.51C55.1343 103.649 55.7336 103.847 56.3102 104.1V104.1Z" fill="#D7D5CC"/>
<path d="M85.23 116.64C87.79 117.33 90.88 116.72 92.53 119.64C90.14 118.52 85.61 122.68 85.23 116.64Z" fill="#FCFCFC"/>
<path d="M79.7002 75.4102C79.7002 73.9702 80.7002 73.69 81.8302 73.54C82.6702 75.27 82.4102 76.9602 81.7002 79.2002C80.1202 78.0802 81.1202 76.0302 79.7002 75.4102Z" fill="#F1C49D"/>
<path d="M128.76 69.5199C127.823 69.8058 126.821 69.7938 125.891 69.4857C124.961 69.1776 124.15 68.5889 123.57 67.8002C125.63 67.1902 126.95 68.0999 128.76 69.5199Z" fill="#ADB3B6"/>
<path d="M33.4702 200.09C34.9202 192.71 38.9802 186.74 44.0202 180.41C48.3402 187.46 51.7402 194.32 52.1602 202.36C52.2886 203.519 52.0766 204.69 51.5502 205.73C50.3402 207.58 49.1502 210.55 46.4502 209.43C44.1802 208.49 46.5202 206.31 46.7402 204.75C47.2602 201.11 47.8502 197.55 46.6302 193.95C45.6302 191.09 44.1202 190.87 41.7602 192.55C37.6102 195.55 37.7602 200.28 36.5202 204.46C35.5102 203 34.4902 201.55 33.4702 200.09Z" fill="#FFDB85"/>
<path d="M41.7302 208.55C39.9402 203.82 39.5602 199.89 42.9002 195.67C44.7502 200.33 44.3102 204.18 41.7302 208.55Z" fill="#FFDB85"/>
<path d="M33.4701 200.09C34.4701 201.55 35.4701 202.999 36.5201 204.459L37.5201 207.77C33.5301 206.15 31.9301 203.94 33.4701 200.09Z" fill="#D7D5CC"/>
<path d="M129.63 200.6C129.63 200.11 129.52 199.6 129.5 199.13C129.38 196.65 129.56 193.68 126.88 192.7C124.2 191.72 122.61 194.52 120.82 196.13C120.22 196.67 119.71 197.33 119.15 197.93C118.875 197.799 118.587 197.699 118.29 197.63C119.56 192.11 122.58 187.36 125.23 182C128.88 185.2 128.48 190.08 130.63 193.72C130.01 195.97 130.89 198.41 129.63 200.6Z" fill="#FFDB85"/>
<path d="M129.63 200.6C130.89 198.44 130.01 195.97 130.63 193.72C133.44 197.3 132.9 201.58 132.63 205.59C132.45 208.69 129.29 208.65 126.35 209.32C127.31 206.1 130.12 203.87 129.63 200.6Z" fill="#D7D5CC"/>
<path d="M124.81 196.79C126.62 200.19 125.24 202.93 125.06 206.14C120.31 202.97 122.05 200.13 124.81 196.79Z" fill="#FFDB85"/>
<path d="M118.31 197.63C118.607 197.698 118.895 197.799 119.17 197.93C118.56 201.1 117.62 204.25 118.79 207.51C115.15 204.41 116.89 201 118.31 197.63Z" fill="#ADB3B6"/>
<path d="M90.4999 210.13C87.9299 211.05 86.8999 210.06 87.8299 207.59C88.8053 204.756 88.9885 201.71 88.3599 198.78C88.0599 197.08 87.7999 194.98 85.5599 194.49C83.5599 194.07 82.7499 195.91 81.4799 196.86C79.7599 198.15 79.5299 200.26 78.5899 201.98C78.5299 199.27 78.4599 196.55 78.3999 193.84C79.3999 191.98 80.4999 190.15 81.3999 188.24C83.2699 184.24 85.3299 184.87 87.2199 188.08C89.1099 191.29 90.7499 194.7 92.4899 198.02C92.4147 202.131 91.7444 206.211 90.4999 210.13Z" fill="#FFDB85"/>
<path d="M90.5 210.13C91.7479 206.211 92.4215 202.132 92.5 198.02C94.78 200.51 94.5 203.69 94.74 206.7C94.98 209.71 92.65 209.89 90.5 210.13Z" fill="#D7D5CC"/>
<path d="M78.4002 193.84C78.4602 196.55 78.5302 199.269 78.5902 201.979C78.7102 203.119 78.8202 204.249 79.0702 206.689C75.2402 201.689 76.3102 197.79 78.4002 193.84Z" fill="#ADB3B6"/>
<path d="M84 199.1C85.7 201.67 85.5399 203.74 84.7399 206.59C81.7299 204 81.75 201.93 84 199.1Z" fill="#FFDB85"/>
<path d="M70 0.300293L70.25 0C70.34 0.09 70.51 0.170254 70.52 0.260254C70.53 0.350254 70.37 0.460059 70.29 0.560059L70 0.300293Z" fill="#FCFCFC"/>
<path d="M74.9298 42.4595C75.1102 43.1728 75.2406 43.8983 75.3198 44.6299C75.3198 45.1499 74.8598 45.6294 74.4498 45.1694C74.1045 44.6351 73.9141 44.0159 73.8998 43.3799C73.8298 42.9199 73.9398 42.4095 74.9298 42.4595Z" fill="#F1C49D"/>
<path d="M77.6302 50.9395L77.0902 51.8398C76.8378 51.5409 76.6352 51.2033 76.4902 50.8398C76.4902 50.6198 76.7602 50.3198 76.9102 50.0498L77.6302 50.9395Z" fill="#F1C49D"/>
<path d="M75.9899 46.9395C76.1116 47.1975 76.212 47.4653 76.2899 47.7397C76.2899 47.8097 76.0699 47.9396 75.9499 48.0396C75.8185 47.7719 75.7082 47.4943 75.6199 47.2095C75.6099 47.1495 75.8599 47.0295 75.9899 46.9395Z" fill="#F1C49D"/>
<path d="M49.4602 39.6104C51.0402 42.5404 52.3802 44.7999 53.4602 47.1699C53.9102 48.1699 54.1202 49.6299 52.8202 50.1699C51.7202 50.6599 50.9302 49.4899 50.5802 48.6899C49.4202 46.0299 47.1902 43.4104 49.4602 39.6104Z" fill="#D7D5CC"/>
<path d="M34.9702 117.65C35.6702 116.91 36.3702 116.22 37.5302 116.81C49.2102 122.75 62.0702 122.38 74.5802 123.26C90.6602 124.4 106.78 122.89 122.88 122.46C127.5 122.33 131.66 119.07 136.45 120.69C137.22 120.95 137.95 121.34 138.69 121.69C139.2 126.03 137.28 128.83 133.25 130.31C132.15 130.71 131.03 131.1 131.56 132.67C127.15 131.49 123.04 133.62 118.76 133.85C107.314 134.47 95.8702 135.137 84.4302 135.85C83.1202 135.94 80.7902 135.14 80.8802 137.26C80.9702 139.38 83.2702 138.4 84.6002 138.45C93.9087 138.843 103.234 138.509 112.49 137.45C118.97 136.69 125.61 135.95 131.49 132.55C139.98 131.42 141.07 130.07 140.28 121.66C140.77 120.66 141.69 120.59 142.64 120.66C143.48 126.01 141.25 131.38 142.88 136.79C143.45 138.68 142.47 141.37 140.71 142.04C135.09 144.17 135.12 148.41 135.4 153.22C135.48 154.73 135.51 157.22 133.06 157.53C132.057 157.663 131.038 157.481 130.142 157.01C129.246 156.539 128.519 155.802 128.06 154.9C127.684 153.814 127.615 152.644 127.86 151.52C128.18 148.33 127.63 146.95 123.64 147.1C104.2 147.83 84.7402 148.24 65.2802 148.43C61.5602 148.43 61.4002 149.89 61.3802 152.81C61.3802 158.29 60.2402 158.93 55.7602 157.39C53.3402 156.55 53.1902 154.91 53.7002 153.1C55.2402 147.66 52.3802 145.74 47.7002 144.98C46.2805 144.646 44.8921 144.191 43.5502 143.62C42.6558 143.109 41.9007 142.385 41.3515 141.513C40.8022 140.641 40.4755 139.648 40.4002 138.62C42.3002 136.53 43.9502 134.73 39.8802 132.87C37.6202 131.87 37.7902 129.26 38.8102 127.17C39.7559 125.453 40.7871 123.784 41.9002 122.17C39.5202 120.59 36.3102 120.6 34.9702 117.65ZM48.6002 126.59C48.7902 128.59 50.2002 128.79 51.7802 128.88C53.2102 128.95 54.4902 128.69 55.1002 127.3C55.1942 127.006 55.2187 126.694 55.1719 126.389C55.125 126.083 55.0081 125.793 54.8302 125.54C53.7302 124.32 52.4602 124.85 51.2202 125.47C50.3502 125.9 49.4402 126.25 48.5502 126.64C47.9502 125.43 49.1102 123.05 46.4202 123.22C43.5602 123.41 42.9102 125.86 41.9402 127.9C41.1002 129.69 42.0202 130.74 43.6302 131.33C48.4302 133.07 53.3002 134.6 58.4802 134.68C64.8002 135.83 71.1202 136.97 77.4802 138.14C78.7002 138.37 80.1002 138.44 80.2802 137.01C80.5002 135.33 78.7602 135.68 77.7702 135.43C71.5002 133.79 65.0002 133.9 58.6402 132.94C55.2902 132.27 51.9302 131.63 48.6402 130.89C47.5002 130.64 46.3402 130.09 46.4302 128.66C46.4302 127.41 46.6602 125.98 48.6002 126.59V126.59ZM123.27 130.09C110.78 123.3 98.3902 126.89 86.3702 126.71C83.9202 126.71 84.8402 129.63 84.5602 131.24C84.1802 133.45 86.1002 132.85 87.2102 132.8C98.9302 132.29 110.73 132.82 123.31 130.09H123.27ZM86.5602 144.57C84.9102 144.57 83.2602 144.57 81.6102 144.57C71.8253 144.515 62.0643 143.598 52.4402 141.83C50.3002 141.48 45.5802 142.16 47.4402 136.96C47.5202 136.74 46.9502 136.14 46.5602 135.96C45.8602 135.59 45.3602 136.07 44.8802 136.58C42.8802 138.79 44.0402 141.4 47.8802 142.67C60.3531 146.85 73.7377 147.508 86.5602 144.57V144.57ZM62.0602 139.92C78.4402 144.22 94.8002 142.43 111.16 140.23C94.7702 141.01 78.3802 141.29 62.0602 139.92V139.92ZM73.4902 125.87C69.8102 125.36 67.1502 127.02 64.2502 127.55C63.8344 127.617 63.4547 127.826 63.1757 128.142C62.8967 128.457 62.7357 128.859 62.7202 129.28C62.6402 130.73 63.8302 130.59 64.7702 130.73C68.1902 131.24 71.6302 131.73 75.0402 132.28C77.6102 132.72 78.4602 132.39 78.4102 129.19C78.3102 124.32 74.9702 126.41 73.4902 125.87V125.87ZM138.96 139.97C130.06 143.29 120.58 143.09 111.33 144.31C120.82 144.75 130.31 145.16 138.96 139.97V139.97ZM57.2402 155.1C58.5902 152.93 58.1702 151.1 58.2402 149.36C58.3002 148.52 57.8702 147.7 56.8802 147.76C56.7181 147.779 56.5618 147.831 56.4213 147.914C56.2808 147.997 56.1595 148.109 56.0651 148.242C55.9707 148.375 55.9055 148.526 55.8736 148.686C55.8418 148.846 55.844 149.011 55.8802 149.17C56.2202 151.05 54.8102 153.31 57.2402 155.1ZM113.81 140.1C117.54 141.1 120.45 139.36 123.54 138.89C120.42 139.14 117.1 137.81 113.81 140.11V140.1ZM131.59 147.02C130.95 149.25 129.89 151.51 132.04 153.65C132.23 151.41 133.15 149.19 131.59 147.03V147.02Z" fill="#404141"/>
<path d="M40.3102 138.58C40.3855 139.608 40.7121 140.601 41.2614 141.473C41.8107 142.345 42.5657 143.068 43.4601 143.58C43.8101 147.53 44.1102 151.48 44.5302 155.42C44.9002 158.79 43.4402 160.37 40.1102 160.52C32.7802 160.85 25.5102 160.52 18.4402 158.39C14.7602 157.31 12.1102 155.25 11.1102 151.1C9.00016 142.38 9.45016 133.75 11.1102 125.1C11.5302 123.01 12.8401 121.61 14.1801 119.79C21.0701 128.91 30.0102 134.73 40.3102 138.58Z" fill="#D7D5CC"/>
<path d="M161.31 139.41C161.477 141.406 161.477 143.413 161.31 145.41C159.31 157.13 152.51 162.039 140.58 160.539C139.06 160.339 137.51 160.059 136.82 158.539C135.97 156.709 137.12 155.38 138.37 154.2C139.004 153.42 139.757 152.745 140.6 152.2C148.27 148.7 148.47 146.33 146.38 137.84C146.26 137.36 146.07 136.89 145.96 136.41C144.71 131.04 147.85 125.409 152.45 124.729C155.74 124.249 161.07 129.599 161.45 133.939C161.62 135.749 161.45 137.59 161.45 139.41H161.31Z" fill="#D7D5CC"/>
<path d="M140.31 121.67C141.1 130.08 140.01 131.43 131.52 132.56L131.59 132.65C131.06 131.08 132.18 130.65 133.28 130.29C137.28 128.81 139.28 126.01 138.72 121.67H140.31Z" fill="#D7D5CC"/>
<path d="M130.12 119.479H116.58C121.01 117.459 125.51 116.759 130.12 119.479Z" fill="#404141"/>
<path d="M123.31 130.09C110.77 132.82 98.9702 132.29 87.2502 132.8C86.1402 132.8 84.2502 133.45 84.6002 131.24C84.8802 129.63 83.9602 126.67 86.4102 126.71C98.3902 126.89 110.78 123.3 123.31 130.09Z" fill="#FCFCFC"/>
<path d="M131.49 132.56C125.61 135.96 118.97 136.7 112.49 137.46C103.233 138.518 93.9085 138.852 84.6 138.46C83.27 138.41 80.97 139.34 80.88 137.27C80.79 135.2 83.12 135.95 84.43 135.86C95.87 135.127 107.313 134.46 118.76 133.86C123.04 133.63 127.15 131.5 131.56 132.68L131.49 132.56Z" fill="#D7D5CC"/>
<path d="M86.5599 144.57C73.7388 147.5 60.3579 146.836 47.8899 142.65C44.0399 141.38 42.8299 138.77 44.8899 136.56C45.3699 136.05 45.8899 135.56 46.5699 135.94C46.9599 136.14 47.5699 136.74 47.4499 136.94C45.5899 142.14 50.3099 141.46 52.4499 141.81C62.074 143.577 71.835 144.495 81.6199 144.55C83.3099 144.55 84.9099 144.57 86.5599 144.57Z" fill="#ADB3B6"/>
<path d="M62.0601 139.92C78.3801 141.29 94.7701 141.01 111.16 140.23C94.8001 142.41 78.4401 144.22 62.0601 139.92Z" fill="#ADB3B6"/>
<path d="M73.4901 125.87C74.9701 126.44 78.3301 124.32 78.4101 129.19C78.4601 132.39 77.6101 132.72 75.0401 132.28C71.6301 131.7 68.1901 131.28 64.7701 130.73C63.8301 130.59 62.6401 130.73 62.7201 129.28C62.7356 128.859 62.8966 128.457 63.1756 128.141C63.4546 127.826 63.8343 127.617 64.2501 127.55C67.1501 127.02 69.8101 125.41 73.4901 125.87Z" fill="#D7D5CC"/>
<path d="M58.4801 134.68C53.3001 134.6 48.4801 133.069 43.6301 131.329C42.0201 130.739 41.1001 129.69 41.9401 127.9C42.9401 125.9 43.5601 123.41 46.4201 123.22C49.1101 123.05 47.9501 125.43 48.5501 126.64C46.6101 126.03 46.3801 127.439 46.2901 128.709C46.2001 130.139 47.3601 130.709 48.5001 130.939C51.8301 131.679 55.1901 132.32 58.5001 132.99C58.5501 133.52 58.5101 134.1 58.4801 134.68Z" fill="#ADB3B6"/>
<path d="M58.48 134.68C58.48 134.1 58.55 133.519 58.59 132.939C64.95 133.939 71.45 133.79 77.72 135.43C78.72 135.68 80.45 135.33 80.23 137.01C80.05 138.44 78.65 138.37 77.43 138.14C71.12 136.97 64.8 135.83 58.48 134.68Z" fill="#D7D5CC"/>
<path d="M138.96 139.97C130.31 145.16 120.82 144.75 111.33 144.31C120.58 143.09 130.06 143.29 138.96 139.97Z" fill="#ADB3B6"/>
<path d="M48.5498 126.64C49.4398 126.25 50.3498 125.9 51.2198 125.47C52.4598 124.85 53.7298 124.32 54.8298 125.54C55.0077 125.793 55.1246 126.083 55.1715 126.389C55.2183 126.694 55.1938 127.006 55.0998 127.3C54.4898 128.69 53.2098 128.95 51.7798 128.88C50.1998 128.79 48.7798 128.56 48.5998 126.59L48.5498 126.64Z" fill="#D7D5CC"/>
<path d="M57.24 155.1C54.81 153.31 56.2401 151.1 55.9101 149.17C55.8739 149.011 55.8716 148.846 55.9035 148.686C55.9353 148.526 56.0006 148.374 56.0949 148.241C56.1893 148.108 56.3107 147.997 56.4511 147.914C56.5916 147.831 56.748 147.778 56.9101 147.76C57.9101 147.7 58.3301 148.52 58.2701 149.36C58.1701 151.1 58.59 152.93 57.24 155.1Z" fill="#ADB3B6"/>
<path d="M113.81 140.11C117.1 137.81 120.42 139.11 123.54 138.9C120.45 139.41 117.54 141.09 113.81 140.11Z" fill="#F1C49D"/>
<path d="M131.59 147.03C133.15 149.19 132.23 151.44 132.04 153.66C129.89 151.52 130.95 149.26 131.59 147.03Z" fill="#F1C49D"/>
</g>
<defs>
<clipPath id="clip0_6962_20424">
<rect width="211.99" height="214.48" fill="white"/>
</clipPath>
</defs>
</svg>
