<svg width="383" height="122" viewBox="0 0 383 122" fill="none" xmlns="http://www.w3.org/2000/svg">
<g clip-path="url(#clip0_6964_20995)">
<path d="M141.03 75.3887C142.12 61.7187 142.52 46.3887 145.63 31.3887C146.94 25.0787 150.8 20.7287 155.95 17.3887C160.15 14.6787 164.48 15.8285 166.81 20.2385C168.81 24.0985 170.51 27.9186 176.17 25.8286C178.02 25.1486 179.44 26.4387 180.4 28.3887C182.58 32.8587 183.23 37.6287 183.4 42.3887C183.75 53.1487 183.75 63.8587 182.16 74.6387C180.03 89.0687 171.96 98.6387 159.79 105.459C154.42 108.459 144.21 103.169 142.17 96.6186C140.13 90.0686 141.47 83.5887 141.03 75.3887ZM144.91 78.0185C145.63 84.2985 144.22 89.8587 146.55 95.1587C149.55 101.949 156.91 103.589 162.75 99.1587C166.232 96.6801 169.179 93.5239 171.413 89.8794C173.647 86.2348 175.122 82.177 175.75 77.9487C178.16 63.8187 178.75 49.8287 176.52 35.6687C176.04 32.6687 174.69 30.8985 171.78 30.9785C167.66 31.0885 166.02 28.7286 164.62 25.3586C162.19 19.4986 158.86 18.8886 154.06 23.1186C152.099 24.6925 150.696 26.8558 150.06 29.2886C146.21 45.6386 146.04 62.2985 144.92 78.0185H144.91Z" fill="#404141"/>
<path d="M144.92 78.0189C146.05 62.2989 146.22 45.639 150.09 29.339C150.726 26.9062 152.129 24.7429 154.09 23.1691C158.89 18.9391 162.22 19.549 164.65 25.409C166.05 28.779 167.65 31.1389 171.81 31.0289C174.72 30.9489 176.07 32.7689 176.55 35.7189C178.82 49.8789 178.19 63.8689 175.78 77.9989C175.152 82.2272 173.677 86.2852 171.443 89.9298C169.209 93.5743 166.263 96.7305 162.78 99.2091C156.94 103.589 149.56 101.949 146.58 95.2091C144.22 89.8591 145.63 84.2989 144.92 78.0189ZM163.92 71.9391C162.84 72.9391 162.78 74.379 164.02 74.639C165.63 74.979 165.34 73.2991 165.31 72.1991C167.57 62.6891 169.31 53.129 168.88 43.359L167.02 43.109L163.92 71.9391ZM158.99 35.8089C153.26 39.9589 151.31 69.1189 155.72 77.2589C156.31 63.4589 155.01 49.7089 158.92 35.8089H158.99Z" fill="#FCFCFC"/>
<path d="M158.92 35.8086C154.98 49.7086 156.28 63.4585 155.65 77.2585C151.27 69.1185 153.22 39.9586 158.92 35.8086Z" fill="#404141"/>
<path d="M163.92 71.9395L167.02 43.1094L168.88 43.3594C169.35 53.1294 167.57 62.6895 165.31 72.1995L163.92 71.9395Z" fill="#404141"/>
<path d="M163.92 71.9395L165.31 72.1995C165.31 73.2995 165.63 74.9794 164.02 74.6394C162.74 74.3794 162.8 72.9095 163.92 71.9395Z" fill="#ADB3B6"/>
</g>
<g clip-path="url(#clip1_6964_20995)">
<path d="M61.2399 88.4686C59.9299 98.0886 56.82 106.789 48.83 113.059C45.7712 115.52 42.1946 117.256 38.3689 118.138C34.5431 119.02 30.5674 119.023 26.7399 118.149C20.8999 116.989 15.08 115.839 9.62996 113.049C3.21996 109.759 -0.0800443 104.919 -4.42797e-05 97.7486C0.189956 81.2186 0.490014 64.6686 2.56001 48.2686C4.56001 32.0486 12.68 18.6487 24.32 7.35869C29.65 2.18868 35.87 2.17875 42.42 4.42875C42.63 4.87875 42.92 5.15868 43.42 4.84868L44.56 5.35869C45.41 6.75868 46.83 8.07864 47.02 9.55864C47.63 14.3486 50.1099 17.3687 54.4799 19.1687C56.8199 20.1687 57.82 22.3087 58.55 24.5787C59.6403 28.0735 60.3116 31.6855 60.55 35.3387C61.82 53.0887 61.1299 70.7586 61.2399 88.4686ZM6.35994 100.959C6.54994 103.719 8.44992 105.359 10.4599 106.789C16.0211 110.65 22.5253 112.931 29.28 113.389C35.92 113.959 42.86 112.619 47.57 107.299C53.07 101.089 55.26 93.2986 55.42 85.0386C55.58 76.1086 54.7099 67.1886 55.3499 58.2386C55.8499 51.1586 56.45 44.0188 56.06 36.9488C55.76 31.5288 55.85 25.1887 49.82 22.1687C44.82 19.6287 42.8799 15.4987 42.2199 10.3487C37.8999 5.48868 32.12 4.72873 27.03 9.15873C16.3706 18.3516 9.23992 30.9654 6.85994 44.8387C3.99994 61.1587 4.10999 77.8886 4.40999 94.5086C4.44999 96.8186 4.39994 99.2088 6.35994 100.959Z" fill="#404141"/>
<path d="M61.2401 88.4692C61.1301 70.7592 61.8201 53.0394 60.5901 35.3394C60.3517 31.6862 59.6804 28.0742 58.5901 24.5793C57.8601 22.3093 56.8601 20.1294 54.5201 19.1694C50.1501 17.3694 47.6702 14.3493 47.0602 9.55933C46.8702 8.07933 45.4501 6.75937 44.6001 5.35938C50.7501 6.15938 53.9902 10.7394 56.8302 15.3594C62.1602 24.0594 64.0501 33.8794 64.3501 43.8994C64.7301 56.4494 65.4602 69.0293 63.4502 81.5293C63.0202 83.9593 62.8901 86.4492 61.2401 88.4692Z" fill="#D7D5CC"/>
<path d="M42.2198 10.3487C42.8798 15.4987 44.7699 19.6288 49.8199 22.1688C55.8199 25.1688 55.7599 31.5288 56.0599 36.9488C56.4499 44.0188 55.8499 51.1586 55.3499 58.2386C54.7099 67.1886 55.5799 76.1087 55.4199 85.0387C55.2599 93.2687 53.0699 101.089 47.5699 107.299C42.8599 112.619 35.9199 113.959 29.2799 113.389C22.5252 112.931 16.0211 110.65 10.4598 106.789C8.45984 105.359 6.54986 103.719 6.35986 100.959C6.68986 99.3488 7.09986 97.7488 7.35986 96.1288C8.93841 85.3949 11.2301 74.778 14.2198 64.3487C14.2198 66.1687 14.2898 67.9887 14.2198 69.7987C14.0298 74.9387 12.8499 80.0788 13.7799 85.1888C14.0399 86.6288 13.7099 89.5388 16.4099 89.1888C18.5099 88.9188 18.0298 86.5586 18.0898 85.0086C18.2198 81.8586 18.0898 78.6887 18.0898 75.5287C18.3798 63.0787 18.5 50.6088 21.45 38.3888C24.88 32.3888 25.5299 25.5188 27.8899 19.1688C31.4399 9.6488 32.8098 8.64873 42.2198 10.3487ZM44.2198 100.269C46.2798 98.5887 46.3299 96.8387 46.7999 95.2687C49.7999 85.2687 48.5 75.0986 48.58 64.9886C48.6593 57.9905 47.9888 51.0041 46.58 44.1488C46.35 43.0588 46.2599 41.4688 44.7599 41.6288C43.4699 41.7688 43.1299 43.1388 43.1899 44.3888C43.2056 45.0583 43.2623 45.7262 43.3599 46.3888C45.7699 60.3888 45.5 74.4487 44.45 88.5687C44.14 92.1987 42.7199 95.9787 44.1899 100.269H44.2198ZM30.9399 77.8788C31.7199 75.9688 32.8599 41.4688 32.3199 39.6888C31.8699 38.1988 31.1099 38.3686 30.2499 39.2186C29.8142 39.7255 29.4866 40.316 29.2871 40.954C29.0876 41.5919 29.0205 42.264 29.0898 42.9288C29.0298 52.0588 28.8699 61.1887 29.0099 70.3187C29.0199 72.8587 28.9199 75.6588 30.9099 77.8788H30.9399Z" fill="#D7D5CC"/>
<path d="M14.2101 64.3494C11.2204 74.7786 8.92867 85.3955 7.35013 96.1294C7.10013 97.7494 6.69013 99.3495 6.35013 100.959C4.35013 99.2095 4.44018 96.8193 4.40018 94.5093C4.10018 77.8893 3.99013 61.1593 6.85013 44.8393C9.23011 30.966 16.3608 18.3523 27.0202 9.15941C32.1102 4.72941 37.8901 5.48935 42.2101 10.3494C32.8001 8.64935 31.4302 9.64942 27.9102 19.1694C25.5502 25.5194 24.9101 32.4194 21.4701 38.3894C21.2601 33.3894 24.2802 28.8595 23.5702 23.7095C16.3402 36.2795 16.3101 50.5594 14.2101 64.3494Z" fill="#FCFCFC"/>
<path d="M14.21 64.3489C16.31 50.5589 16.3401 36.279 23.5801 23.709C24.2901 28.859 21.27 33.3589 21.48 38.3889C18.48 50.6089 18.41 63.0788 18.12 75.5288C18.05 78.6888 18.21 81.8588 18.12 85.0088C18.06 86.5588 18.5401 88.919 16.4401 89.189C13.7401 89.539 14.0701 86.629 13.8101 85.189C12.8801 80.079 14.06 74.9388 14.25 69.7988C14.28 67.9888 14.22 66.1689 14.21 64.3489Z" fill="#404141"/>
<path d="M44.1899 100.269C42.7199 95.9793 44.1399 92.1993 44.4199 88.5693C45.4199 74.4493 45.7399 60.3994 43.3299 46.3894C43.2323 45.7268 43.1755 45.0589 43.1599 44.3894C43.0999 43.1394 43.4398 41.7694 44.7298 41.6294C46.2298 41.4694 46.3199 43.0594 46.5499 44.1494C47.9588 51.0047 48.6293 57.9911 48.5499 64.9892C48.4699 75.0992 49.7498 85.3193 46.7698 95.2693C46.2998 96.8393 46.2499 98.5893 44.1899 100.269Z" fill="#404141"/>
<path d="M30.9101 77.8793C28.9101 75.6593 29.01 72.8793 28.98 70.3193C28.84 61.1893 28.9801 52.0594 29.0601 42.9294C28.9907 42.2646 29.0578 41.5925 29.2572 40.9545C29.4567 40.3166 29.7843 39.726 30.22 39.2192C31.08 38.3692 31.8401 38.2194 32.2901 39.6894C32.8301 41.4694 31.6901 75.9693 30.9101 77.8793Z" fill="#404141"/>
</g>
<g clip-path="url(#clip2_6964_20995)">
<path d="M382.11 59.0087C381.11 75.0987 381.46 91.1887 380.34 107.279C379.98 112.459 375.44 111.519 373.09 112.539C350.27 122.369 326.22 122.709 301.89 121.089C290.109 120.33 278.503 117.851 267.44 113.729C261.03 111.339 259.84 109.549 260.02 102.729C260.53 83.5089 260.95 64.2787 261.38 45.0487C261.55 37.2787 263.13 29.1488 261.38 21.8188C259.38 13.3588 264.66 12.1589 269.53 9.45889C284.92 0.948888 301.53 -0.621112 318.72 0.208888C325.44 0.538888 332.19 0.138722 338.93 0.288722C353.43 0.618722 367.1 3.73876 377.93 14.0788C379.265 15.3764 380.323 16.9322 381.038 18.6513C381.753 20.3704 382.111 22.2169 382.09 24.0788C382.03 35.7188 382.11 47.3687 382.11 59.0087ZM330.24 56.8888C328.89 56.1188 329.51 54.8887 329.52 53.7987C329.63 46.9987 324.58 43.8789 318.6 47.1789C314.85 49.2489 311.89 52.3487 308.66 55.2987C313.99 58.2987 316.49 53.4189 319.89 51.6989C321.32 53.8889 318.31 54.6188 318.89 56.1588L330.19 58.4889C332.11 59.1889 333.94 60.4889 336.13 59.4889C336.34 59.3889 336.45 58.5889 336.3 58.2389C335.08 55.3589 332.51 57.7388 330.75 56.8688C330.6 56.8088 330.4 56.8888 330.24 56.8888ZM286.31 77.7887C290.413 71.3847 294.898 65.2336 299.74 59.3688C293.56 61.4988 288.95 59.6689 284.56 57.2289C282.136 55.7717 279.454 54.7939 276.66 54.3488C270.19 53.5088 266.15 57.1988 266.39 63.5788C266.51 66.8988 266.54 70.2187 266.62 73.5287C266.62 83.1187 266.76 92.7087 266.72 102.289C266.72 104.439 266.99 105.919 269.23 107.089C278.806 112.11 289.512 114.585 300.32 114.279C309.5 114.029 318.64 114.949 327.86 114.279C338.96 113.479 350.1 113.589 360.42 108.599C363.79 107.939 367.18 107.359 370.52 106.599C372.34 106.179 373.14 104.779 373.24 102.909C373.83 90.9888 374.24 79.0588 375.11 67.1588C376 54.6588 377.22 42.1589 378.45 29.7089C378.99 24.3489 378.96 24.1588 373.81 25.5788C361.12 29.0688 348.18 31.6987 335.06 31.5187C312.43 31.1987 289.89 29.4687 268.41 21.2987C266.67 20.6387 265.88 21.0588 265.88 22.9088V54.6989C274 48.8689 280.82 50.5488 287.88 54.3488C294.94 58.1488 301.51 56.9788 307.22 51.3488C310.502 48.058 314.2 45.2106 318.22 42.8788C322.5 40.4788 327.79 40.0287 330.56 43.7987C333.742 48.104 337.347 52.0805 341.32 55.6688C343.32 57.5288 343.77 58.4188 345.93 56.5888C350.16 52.9988 354.93 52.9788 359.41 55.6388C363.41 58.0488 367.41 59.3789 372.57 57.9389C370.98 61.6989 369.03 62.9989 365.36 62.2389C362.142 61.4153 359.038 60.1959 356.12 58.6088C349.88 55.6088 343.62 58.9789 343.04 65.6789C343.016 67.3461 342.451 68.9601 341.43 70.2787C336.31 76.3687 331.02 82.0487 323.83 86.0487C313.23 91.9387 302.56 96.1588 290.21 93.1688C287.59 92.3988 286.41 90.6389 285.73 87.9789C284.83 84.4189 285.68 81.1487 286.31 77.7887V77.7887ZM372.97 18.6388C364.3 11.0988 361.97 10.0988 351.71 7.82876C347.27 6.82876 342.8 6.93886 338.35 6.42886C324.326 4.66719 310.168 4.22184 296.06 5.09878C285.692 5.69259 275.684 9.11295 267.12 14.9889C281.27 25.1989 349.89 31.4588 372.97 18.6388ZM310.26 60.2787C306.11 58.7887 303.98 60.5088 302.08 63.1588C297.85 69.0688 292.68 74.3589 290.75 81.6889C289.43 86.6889 290.45 87.8687 295.56 88.9987C300.301 89.9963 305.239 89.4169 309.62 87.3488C315.959 84.5077 322.109 81.261 328.03 77.6288C332.044 75.2351 335.359 71.8277 337.64 67.7487C339.18 64.9487 339.11 63.0688 335.18 62.8188C332.354 62.7321 329.552 62.2647 326.85 61.4289C319.15 58.7389 312.79 59.4287 307.76 66.7587C306.24 68.9887 304.19 71.9788 299.69 71.5788L310.26 60.2787Z" fill="#404141"/>
<path d="M290.22 93.1591C293.48 100.669 299.93 102.849 307.37 103.909C316.48 105.209 325.59 104.849 334.72 104.819C341.04 104.819 347.35 104.699 353.67 104.819C356.51 104.819 359.44 105.089 360.42 108.609C350.1 113.609 338.96 113.489 327.86 114.289C318.64 114.949 309.5 114.029 300.32 114.289C289.512 114.596 278.806 112.12 269.23 107.099C266.99 105.929 266.72 104.449 266.72 102.299C266.72 92.719 266.67 83.129 266.62 73.539C267.45 71.129 267.03 68.6592 267.01 66.1992C267.01 64.9192 266.69 63.259 267.9 62.529C269.46 61.529 270.56 63.1692 271.76 63.9292C277.55 67.5792 281.54 73.1191 286.31 77.8391C285.68 81.1991 284.83 84.469 285.74 88.019C286.42 90.629 287.6 92.3691 290.22 93.1591Z" fill="#ADB3B6"/>
<path d="M310.26 60.279L299.69 71.579C304.19 71.979 306.24 68.989 307.76 66.759C312.76 59.409 319.15 58.7591 326.85 61.4291C329.551 62.265 332.353 62.7324 335.18 62.819C339.11 63.069 339.18 64.949 337.64 67.749C335.358 71.828 332.044 75.2354 328.03 77.6291C322.109 81.2613 315.959 84.508 309.62 87.3491C305.239 89.4172 300.301 89.9965 295.56 88.999C290.45 87.869 289.43 86.6891 290.75 81.6891C292.68 74.3591 297.85 69.0691 302.08 63.1591C304.03 60.5091 306.11 58.789 310.26 60.279ZM311.72 76.6992C318.52 75.7792 324.65 69.9191 325.51 63.6991C321.464 68.582 316.833 72.9481 311.72 76.6992Z" fill="#FCFCFC"/>
<path d="M330.16 58.4895L318.86 56.1595C318.31 54.6195 321.32 53.8895 319.86 51.6995C316.46 53.4195 313.96 58.3294 308.63 55.2994C311.86 52.3494 314.82 49.2995 318.57 47.1795C324.57 43.8795 329.57 46.9994 329.49 53.7994C329.49 54.8994 328.86 56.1195 330.21 56.8895L330.16 58.4895Z" fill="#FCFCFC"/>
<path d="M330.16 58.4887L330.24 56.8886C330.4 56.8886 330.6 56.8086 330.72 56.8886C332.48 57.7586 335.05 55.3785 336.27 58.2585C336.42 58.6085 336.27 59.4085 336.1 59.5085C333.91 60.5085 332.08 59.1887 330.16 58.4887Z" fill="#ADB3B6"/>
<path d="M311.72 76.6992C316.833 72.9482 321.464 68.582 325.51 63.6992C324.65 69.9192 318.52 75.7792 311.72 76.6992Z" fill="#404141"/>
</g>
<defs>
<clipPath id="clip0_6964_20995">
<rect width="42.58" height="90.43" fill="white" transform="translate(141 15.999)"/>
</clipPath>
<clipPath id="clip1_6964_20995">
<rect width="64.79" height="115.76" fill="white" transform="translate(0 2.99902)"/>
</clipPath>
<clipPath id="clip2_6964_20995">
<rect width="122.14" height="121.83" fill="white" transform="translate(260 -0.000976562)"/>
</clipPath>
</defs>
</svg>
