<svg width="128" height="202" viewBox="0 0 128 202" fill="none" xmlns="http://www.w3.org/2000/svg">
<g clip-path="url(#clip0_6962_20107)">
<path d="M0 98.3296C5.7 93.2696 6.43002 86.8597 8.83002 81.1597C14.22 68.3797 24.83 62.0097 37.83 58.3797C56.16 53.2797 74.08 56.1997 91.83 60.3797C103.45 63.0797 110.77 71.8596 117.42 81.2896C120.57 85.7396 121.42 91.2896 125.66 95.2896C128.15 97.6596 127.57 101.01 123.43 101.85C120.2 102.52 120.03 103.95 120.31 107.02C121.392 119.095 121.499 131.237 120.63 143.33C120.41 146.59 120.97 149.899 121.04 153.179C121.04 155.319 120.48 156.91 117.79 155.83C115.51 154.91 113.85 155.94 111.86 157.13C103.3 162.3 93.49 163.21 83.86 164.23C65.04 166.23 46.44 164.18 28.1 159.82C20.78 158.08 14.0201 154.82 7.43005 151.25C6.43005 150.68 4.99005 150.469 5.43005 148.449C7.56005 137.709 5.53005 126.86 5.99005 116.06C6.14005 112.6 5.69005 109.109 5.93005 105.669C6.22005 101.739 6.17 98.3996 0 98.3296ZM12 110.16C11.49 121.26 12.22 132.33 13 143.4C13.29 147.79 15.8701 149.85 19.7401 151.4C34.1101 157.05 49.07 159.07 64.36 159.06C75.36 159.06 86.42 158.43 97.08 155.06C98.8674 155.428 100.727 155.174 102.35 154.34C106.84 152.28 112.35 151.429 113.35 144.949C113.79 142.229 112.47 139.95 112.77 137.23C113.92 126.59 114.33 115.879 115.01 105.439C79.66 112.809 45.35 107.19 10.85 102.12C11.17 104.63 11.59 107.4 11.98 110.16H12ZM86.11 93.7295C91.7 93.5395 99.41 93.3496 107.11 91.5296C116.33 89.3496 116.56 89.5296 111.64 82.0296C106.72 74.5296 100.44 67.7195 91.94 65.2595C76.47 60.7795 60.53 57.4495 44.27 61.2595C34.16 63.6495 23.59 65.3496 16.72 74.5796C11.8 81.1996 11.87 81.5797 19.47 84.3897C21.18 85.0297 22.88 85.7295 24.64 86.1995C44.04 91.3895 63.84 93.5795 86.09 93.7295H86.11ZM120.65 97.7295C118.78 94.2095 116.59 92.7296 112.65 94.5696C110.029 95.6177 107.264 96.2616 104.45 96.4795C75.16 100.04 46.45 97.1197 18.23 88.6597C10.94 86.4797 10.63 86.4995 8.08002 93.0095C7.34002 94.8895 7.53001 95.7795 9.45001 96.2595C15.39 97.7195 21.01 100.53 27.16 101.05C47.45 102.79 67.73 105.33 88.16 104.88C99.18 104.69 110.39 103.78 120.59 97.7796L120.65 97.7295Z" fill="#404141"/>
<path d="M37.0898 32.92C38.3498 28.84 38.4998 25.9201 35.5698 23.6001C33.4198 21.8801 35.6797 20.7401 36.6297 19.6001C37.9597 18.0701 39.6298 16.4402 38.7698 14.4002C37.9098 12.3602 35.8898 12.5001 33.7698 13.0401C32.4198 13.3801 30.0298 13.1401 31.2198 10.3601C32.2198 7.90014 31.4998 5.92996 29.1198 5.17996C28.5981 5.00265 28.0439 4.94202 27.4962 5.00198C26.9485 5.06195 26.4206 5.24113 25.9496 5.52713C25.4787 5.81313 25.0762 6.19891 24.7704 6.65726C24.4646 7.1156 24.263 7.6353 24.1798 8.17996C23.3298 12.07 22.0198 12.66 18.5498 10.47C15.8898 8.79 13.9498 11.26 12.3498 13.17C10.7498 15.08 11.7898 16.8 13.4298 18.26C16.1698 20.69 17.4798 22.6302 12.5998 24.4102C9.19978 25.6502 9.2198 28.4101 12.3698 30.2701C15.1998 31.95 18.0298 33.71 21.3698 34.43C22.4998 34.68 24.3698 34.7501 23.8598 36.7801C23.4798 38.4901 21.9698 38.48 20.6498 38.42C16.1312 38.3412 11.749 36.8595 8.10979 34.18C3.79979 30.91 3.63979 27.66 7.35979 23.76C8.56979 22.48 9.80975 21.53 8.12975 19.76C5.55975 17.09 6.7198 14.48 8.6798 12.26C11.3998 9.17004 14.0398 5.78995 18.8598 5.91995C21.1898 5.97995 22.0098 3.69003 23.5098 2.50003C28.6298 -1.54997 32.5098 -0.889832 35.4498 4.89017C35.6566 5.49727 36.0166 6.04063 36.4948 6.46805C36.973 6.89546 37.5534 7.19243 38.1798 7.33011C40.8698 7.94011 42.1798 10.1301 43.0398 12.5501C45.3498 18.9301 42.9298 28.7 37.0898 32.92Z" fill="#404141"/>
<path d="M106.03 17.3997C107.3 16.1536 108.636 14.9753 110.03 13.8697C112.26 12.2997 113.09 10.3297 111.8 7.86966C110.51 5.40966 108.42 4.96964 105.8 5.59964C103.729 6.21877 101.848 7.35039 100.33 8.88968C98.4299 10.5497 96.3799 10.1895 95.8899 7.73953C95.2099 4.31953 93.19 4.97953 91.05 5.48953C85.51 6.79953 83.3999 9.84947 84.4599 14.9295C84.8599 16.8395 84.6299 18.0897 82.1399 18.1197C80.6951 18.0976 79.2891 18.5876 78.1709 19.5027C77.0526 20.4178 76.2942 21.6991 76.0299 23.1197C75.4099 26.1997 78.0299 28.0196 80.2699 29.8596C81.4899 30.8596 84.7699 30.8596 83.5099 33.3096C82.2499 35.7596 79.61 34.4096 77.74 33.5396C70.29 30.1096 69.2499 22.6095 75.4399 17.2495C77.0829 15.931 78.3061 14.1624 78.9599 12.1597C80.8199 6.52969 89.1499 -0.240324 93.6099 1.63968C99.0599 3.93968 103.53 1.6396 108.43 1.5596C114.14 1.4296 116.92 4.77961 115.97 11.0696C115.62 13.4096 115.85 14.8497 117.53 16.6297C121.03 20.3497 120.53 24.4595 116.46 27.6795C115.68 28.2995 114.72 28.5396 114.85 29.8396C115.37 35.3496 111.71 36.8995 106.66 37.9995C109.22 34.6295 113.58 32.1397 108.85 27.6297C107.8 26.6297 110.34 24.5196 112.42 24.2996C114.03 24.1296 116.03 24.6095 115.73 21.9295C115.47 19.6395 114.14 18.1895 111.81 18.2495C110.06 18.3095 108.26 18.8797 106.03 17.3997Z" fill="#404141"/>
<path d="M32.3798 164.24C32.7498 168.29 33.6498 171.05 36.6198 173.42C40.8798 176.83 42.4498 194.32 39.4998 198.74C37.6698 201.49 34.7298 201.48 31.9198 201.74C29.281 202.122 26.5952 202.027 23.9898 201.46C17.2498 199.77 14.6998 195.04 17.6098 188.72C18.7974 186.163 20.3689 183.803 22.2698 181.72C25.9498 177.67 28.6798 173.23 29.4498 167.72C29.6598 166.21 30.6898 165.54 32.3798 164.24ZM29.8098 198.3C32.9598 197.8 35.8098 198.4 36.2198 194.45C36.7798 188.25 34.6698 182.69 32.2198 177.19C31.7498 176.1 30.5398 174.86 29.7498 176.58C28.5098 179.27 25.4998 181.02 25.2498 184.25C27.6898 184.82 28.6198 180.97 30.7698 182.77C32.5998 184.31 31.7698 186.77 31.8698 188.93C32.0498 192.04 30.3098 194.64 29.8098 198.3V198.3ZM22.4498 195.54C22.1098 191.97 24.7598 188.92 24.5498 184.64C20.9698 188.18 19.7298 191.46 22.4498 195.54V195.54Z" fill="#404141"/>
<path d="M96.4898 165.88C97.8198 173.16 102.21 178.75 105.2 184.97C106.109 186.743 106.829 188.606 107.35 190.53C108.53 195.4 105.56 198.98 100.59 199.05C96.6009 199.161 92.6253 198.541 88.8598 197.22C85.1798 195.89 82.3698 192.91 83.5998 189.33C86.5348 180.838 90.8937 172.909 96.4898 165.88V165.88ZM98.3798 183.18C97.8898 186.7 99.7698 189.3 98.1198 191.86C97.5898 192.69 96.1198 193.66 97.7598 194.64C98.6665 195.036 99.6783 195.124 100.64 194.89C102.21 194.59 102.07 193.26 101.78 192.12C101.05 189.32 100.71 186.36 98.3798 183.18V183.18ZM90.7898 182.84C92.1632 182.129 93.5871 181.521 95.0498 181.02C96.2098 180.72 96.9598 180.42 96.3598 179.13C96.065 178.214 95.5419 177.388 94.8398 176.73C93.7198 176.02 93.0898 177.27 92.6998 178.02C91.9793 179.592 91.3418 181.201 90.7898 182.84V182.84Z" fill="#404141"/>
<path d="M73.3602 193.51C72.6902 199.74 71.0402 201.29 64.8902 201.3C63.3939 201.295 61.9012 201.154 60.4302 200.88C50.1502 199.08 48.2901 194.88 53.7501 185.83C56.1601 181.83 58.5402 177.92 59.3402 173.19C59.6902 171.19 60.6402 169.03 63.3402 168.46C64.2702 171.46 65.1702 174.46 66.0702 177.4C65.9102 179.35 66.9302 180.89 67.8202 182.48C69.8202 186.04 72.5002 189.33 73.3602 193.51ZM59.8802 183.13C59.1502 183.13 59.0002 183.65 58.8802 184.21H58.9302C53.9302 191.06 53.7102 192.99 57.5902 195.88C58.0502 193.12 57.4902 190.24 58.9702 187.74C59.8002 185.43 66.3302 186.39 62.5702 181.45C62.9002 180.45 62.3402 178.8 61.8502 178.95C59.9102 179.56 59.7702 181.41 59.8502 183.2L59.8802 183.13ZM66.3602 190.55C67.4902 192.86 63.4302 195.09 66.3002 197.15C66.5558 197.296 66.8395 197.386 67.1326 197.415C67.4257 197.443 67.7215 197.409 68.0003 197.314C68.2792 197.22 68.5348 197.067 68.7503 196.866C68.9657 196.666 69.1361 196.422 69.2501 196.15C70.6901 193.38 68.2302 192.2 66.3602 190.55V190.55Z" fill="#404141"/>
<path d="M29.1501 39.8295C29.2239 38.5332 29.364 37.2413 29.5701 35.9594C29.8801 34.6194 30.5701 33.2594 31.9501 32.9594C33.8101 32.6294 33.7601 34.4995 34.1701 35.6295C35.4801 39.2395 36.5201 42.9195 36.1001 46.8395C35.9301 48.3795 34.6301 49.9693 33.7201 48.4393C31.9501 45.5093 28.1401 43.2895 29.1501 39.8295Z" fill="#404141"/>
<path d="M73.3602 193.51C72.5002 189.33 69.8202 186.07 67.8102 182.51C66.9202 180.92 65.9002 179.38 66.0602 177.43C73.9402 179.7 76.9202 186.29 73.3602 193.51Z" fill="#FFDB85"/>
<path d="M89.7999 35.6104C89.1599 41.2604 86.1899 45.7503 82.8599 50.0803C84.2099 44.8003 84.1699 38.9004 89.7999 35.6104Z" fill="#404141"/>
<path d="M11.98 110.16C11.57 107.4 11.17 104.63 10.79 102.07C45.29 107.14 79.6 112.76 114.95 105.39C114.27 115.83 113.86 126.54 112.71 137.18C112.41 139.93 113.71 142.18 113.29 144.9C112.29 151.38 106.77 152.23 102.29 154.29C100.667 155.124 98.8074 155.378 97.02 155.01C94.02 149.23 88.78 151.07 84.3 151.71C76.3 152.85 68.77 152.88 61.96 147.77C54.7685 142.398 48.3369 136.077 42.84 128.98C34.88 118.7 25.27 111.5 11.98 110.16Z" fill="#FCFCFC"/>
<path d="M86.0901 93.7303C63.8401 93.5803 44.0901 91.3903 24.6101 86.2403C22.8501 85.7703 21.1501 85.0703 19.4401 84.4303C11.8401 81.5803 11.7701 81.2404 16.6901 74.6204C23.5601 65.3904 34.1301 63.6904 44.2401 61.3004C60.5001 57.4504 76.4401 60.7804 91.9101 65.3004C100.41 67.7604 106.7 74.5604 111.61 82.0704C116.52 89.5804 116.3 89.3904 107.08 91.5704C99.3901 93.3504 91.6801 93.5403 86.0901 93.7303Z" fill="#FCFCFC"/>
<path d="M11.9798 110.16C25.2698 111.5 34.8798 118.7 42.8298 128.98C48.3266 136.077 54.7582 142.398 61.9498 147.77C68.7598 152.88 76.3198 152.85 84.2898 151.71C88.7698 151.07 94.0098 149.23 97.0098 155.01C86.3498 158.4 75.3398 159.01 64.2898 159.01C48.9998 159.01 34.0398 157.01 19.6698 151.35C15.7998 149.83 13.2198 147.77 12.9298 143.35C12.1998 132.33 11.4698 121.26 11.9798 110.16Z" fill="#ADB3B6"/>
<path d="M120.59 97.7804C110.35 103.78 99.1401 104.69 88.0801 104.93C67.6801 105.38 47.4001 102.84 27.0801 101.1C20.9301 100.58 15.3101 97.7704 9.37014 96.3104C7.45014 95.8304 7.26008 94.9404 8.00008 93.0604C10.5501 86.5504 10.8601 86.5303 18.1501 88.7103C46.3401 97.1703 75.0801 100.09 104.37 96.5304C107.184 96.3125 109.949 95.6686 112.57 94.6205C116.59 92.8005 118.76 94.2604 120.59 97.7804Z" fill="#FCFCFC"/>
<path d="M29.81 198.3C30.31 194.64 32.05 192 31.91 188.93C31.81 186.81 32.64 184.31 30.81 182.77C28.66 180.97 27.73 184.82 25.29 184.25C25.54 181.02 28.55 179.25 29.79 176.58C30.58 174.86 31.79 176.1 32.26 177.19C34.67 182.69 36.78 188.25 36.26 194.45C35.86 198.4 32.96 197.8 29.81 198.3Z" fill="#FFDB85"/>
<path d="M22.45 195.54C19.73 191.46 20.97 188.18 24.55 184.64C24.76 188.92 22.11 191.97 22.45 195.54Z" fill="#FFDB85"/>
<path d="M98.38 183.18C100.71 186.36 101.05 189.32 101.78 192.12C102.07 193.26 102.21 194.59 100.64 194.89C99.6785 195.124 98.6667 195.036 97.76 194.64C96.08 193.64 97.59 192.69 98.12 191.86C99.77 189.3 97.89 186.7 98.38 183.18Z" fill="#FFDB85"/>
<path d="M90.79 182.84C91.342 181.201 91.9795 179.593 92.7 178.02C93.09 177.27 93.7 176.02 94.84 176.73C95.5421 177.388 96.0652 178.214 96.36 179.13C96.96 180.42 96.21 180.72 95.05 181.02C93.5873 181.522 92.1634 182.13 90.79 182.84V182.84Z" fill="#FFDB85"/>
<path d="M58.9799 187.7C57.4999 190.2 58.0599 193.08 57.5999 195.84C53.7199 192.95 53.9699 191.02 58.9399 184.17C58.9499 185.34 58.9599 186.52 58.9799 187.7Z" fill="#ADB3B6"/>
<path d="M66.3601 190.55C68.2301 192.2 70.6901 193.38 69.2501 196.18C69.136 196.451 68.9657 196.695 68.7502 196.896C68.5347 197.097 68.2791 197.249 68.0003 197.344C67.7214 197.439 67.4256 197.473 67.1325 197.444C66.8394 197.416 66.5558 197.326 66.3001 197.18C63.4301 195.09 67.4901 192.86 66.3601 190.55Z" fill="#FFDB85"/>
<path d="M58.9802 187.7C58.9802 186.52 58.9802 185.34 58.9802 184.17H58.9302C59.0685 184.17 59.2054 184.142 59.3323 184.087C59.4591 184.032 59.5731 183.951 59.6671 183.849C59.7611 183.748 59.833 183.628 59.8783 183.497C59.9236 183.366 59.9412 183.228 59.9302 183.09L62.6602 181.34C66.3402 186.35 59.8102 185.39 58.9802 187.7Z" fill="#FFDB85"/>
<path d="M62.5901 181.41L59.8601 183.16C59.7901 181.37 59.9301 179.52 61.8601 178.91C62.3501 178.76 62.9101 180.37 62.5901 181.41Z" fill="#ADB3B6"/>
<path d="M59.8799 183.13C59.891 183.268 59.8733 183.406 59.8281 183.537C59.7828 183.668 59.7109 183.788 59.6169 183.889C59.5229 183.991 59.4088 184.072 59.282 184.127C59.1551 184.182 59.0182 184.21 58.8799 184.21C58.9999 183.65 59.1499 183.13 59.8799 183.13Z" fill="#ADB3B6"/>
</g>
<defs>
<clipPath id="clip0_6962_20107">
<rect width="127.2" height="202" fill="white"/>
</clipPath>
</defs>
</svg>
