<svg width="157" height="180" viewBox="0 0 157 180" fill="none" xmlns="http://www.w3.org/2000/svg">
<g clip-path="url(#clip0_6962_20185)">
<path d="M0.0601691 137.63C0.0601691 131.49 0.160181 125.351 0.0101813 119.221C-0.0998777 118.074 0.130828 116.921 0.673389 115.905C1.21595 114.889 2.04622 114.056 3.06017 113.51C28.5202 97.4004 56.1302 85.5105 83.3602 72.9205C87.3602 71.0405 91.7402 69.8606 95.6202 67.4806C97.9502 66.0506 100.79 67.1805 103.42 67.6505C115.23 69.7905 126.21 74.4905 137.42 78.3605C142.744 80.1887 148.174 81.6915 153.68 82.8605C156.62 83.4805 157.23 85.6404 156.08 87.0604C151.66 92.4804 153.18 98.7706 152.9 104.741C152.51 113.031 152.54 121.341 152.48 129.651C152.48 131.861 152.72 133.12 149.48 133.84C146.24 134.56 143.14 137.47 140.72 140.1C138.2 142.775 134.819 144.477 131.17 144.911C127.34 145.531 124.97 147.741 123.22 150.911C119.22 158.221 115.64 163.301 105 160.181C94.7902 157.181 87.8802 160.771 81.5202 168.421C76.8187 174.105 70.2975 177.991 63.0602 179.421C56.7502 180.761 51.7302 179.64 48.2202 174.27C45.9402 170.79 43.5502 170.33 39.8402 171.79C32.8402 174.55 26.5602 172.791 20.9002 167.951C17.9002 165.371 14.9902 162.561 11.2702 160.951C8.75019 159.851 6.42021 157.24 3.79021 161.5C2.71021 163.26 0.160154 162.431 0.170154 159.411C0.170154 152.161 0.170154 144.911 0.170154 137.661L0.0601691 137.63ZM97.1602 121.01L97.1002 121.11C98.0102 121.28 98.5402 121.11 98.1802 120.01L98.1302 120.241C99.2602 120.641 99.9102 120.24 100.18 119.07H100.1C100.94 119.19 101.58 119.071 101.19 117.991L101.13 118.211C102.26 118.621 102.91 118.15 103.19 117.05L103.11 117.14C103.315 117.214 103.533 117.242 103.749 117.224C103.965 117.206 104.176 117.142 104.365 117.036C104.555 116.929 104.719 116.784 104.848 116.609C104.976 116.434 105.066 116.233 105.11 116.02L105.21 116.25C113.978 112.016 122.285 106.889 130 100.951L131.09 99.9506L131.01 100.14C131.84 100.01 132.79 100.14 133.13 99.0304V99.2006C133.655 99.1179 134.14 98.8742 134.52 98.5033C134.9 98.1324 135.155 97.6527 135.25 97.1305L135.09 97.1905C140.93 94.8705 145.38 90.4205 151.69 87.1905C139.402 83.7237 127.305 79.6112 115.45 74.8705C104.95 70.5305 95.3002 71.6104 84.9202 76.2804C64.9202 85.2804 45.3002 95.1206 25.4502 104.471C19.5102 107.261 13.4502 109.901 8.20018 114.181C12.8502 117.341 16.3502 117.38 20.3002 112.85C23.9702 108.63 31.2302 109.79 34.9102 104.85C38.7702 107.48 40.1802 103.061 42.8202 102.201C44.6002 101.631 47.1502 98.7405 48.4902 102.921L45.9802 105.12C43.6402 104.62 42.4002 106.271 41.0602 107.681C40.0602 108.751 38.9102 110.291 37.3902 109.681C33.7502 108.181 32.3902 110.481 31.0602 112.981C28.9757 113.426 26.8517 113.661 24.7202 113.681C22.3402 113.681 19.8302 115.31 19.4702 117.58C19.1602 119.53 22.0002 119.78 23.6102 120.36C39.2902 126.07 55.0202 131.67 70.7102 137.36C71.1612 137.574 71.6674 137.641 72.1585 137.553C72.6495 137.466 73.101 137.227 73.4502 136.87C79.4502 131.79 86.9402 129.161 93.1402 124.451C93.7202 124.111 94.4702 123.901 94.1402 122.961L94.0802 123.1C95.1402 123.44 95.7202 122.81 96.1902 122.01L96.0602 122.1C96.6402 121.95 97.4502 121.97 97.1602 121.01ZM17.8702 138.31C15.9702 134.63 14.3902 130.57 15.1902 126.83C16.5502 120.5 12.1902 120.33 8.44017 119.02C7.97017 118.85 7.44018 118.79 7.01018 118.58C4.14018 117.2 3.63018 118.581 3.70018 121.161C3.93018 129.641 4.14018 138.16 4.13018 146.6C4.13018 151.3 3.13021 155.44 10.4102 156.34C16.4102 157.08 20.7202 162.631 25.6902 166.181C29.4402 168.861 33.5702 170.18 37.8502 168.29C44.3302 165.45 49.4102 165.52 53.2902 172.51C53.9684 173.893 55.1677 174.95 56.6246 175.449C58.0816 175.947 59.6769 175.847 61.0602 175.171C64.4402 173.641 68.0602 172.57 67.9702 167.6C67.8202 159.7 68.0202 151.801 68.1702 143.901C68.2857 142.913 68.0479 141.916 67.4988 141.087C66.9496 140.258 66.1247 139.65 65.1702 139.37C61.5835 138.037 58.0102 136.68 54.4502 135.3C51.3002 134.05 50.2502 134.981 49.9202 138.431C49.4402 143.431 49.3702 148.591 47.6602 153.921C47.0602 153.191 46.6602 152.921 46.6602 152.691C46.3202 146.931 46.0802 141.11 47.7102 135.53C48.1902 133.86 48.3402 133.21 46.7102 132.63C38.1102 129.57 29.5102 126.51 20.9402 123.39C18.6602 122.56 18.0202 123.1 18.2502 125.57C18.6402 129.79 19.3202 134.06 17.8702 138.31ZM94.2402 128.84C87.5702 132.42 81.1802 135.84 74.8102 139.29C73.7402 139.745 72.8587 140.553 72.3127 141.58C71.7667 142.606 71.5893 143.789 71.8102 144.931C72.4302 150.201 72.4802 155.54 73.0602 160.81C73.3602 163.52 71.8302 167.81 74.0602 168.56C76.7202 169.43 78.9102 165.56 80.6702 163.34C87.6702 154.55 96.1202 152.21 106.8 155.86C110.85 157.24 114.7 155.931 117.15 151.401C119.6 146.871 122.75 142.32 128.41 140.83C133.89 139.39 138.41 136.44 142.76 132.83C144.76 131.14 145.76 129.761 145.85 127.241C146.017 119.861 146.457 112.494 147.17 105.14C147.47 101.99 149.97 97.1904 147.72 96.0704C144.92 94.6604 142.28 99.4104 139.14 100.81C136.48 101.99 135.55 104.02 135.63 107.12C135.77 112.42 135.26 117.74 134.98 123.06C134.92 124.29 134.98 125.65 133.31 126.35C131.23 119.81 133.17 112.93 131.58 106.12C121.8 112.96 111.58 118.171 101.73 123.951C99.0702 125.511 97.5202 127.21 97.8502 130.61C98.2102 134.31 97.6302 138.021 96.2902 142.701C93.8602 137.711 95.0202 133.33 94.2402 128.87V128.84ZM148.56 94.8405L148.68 94.5704H148.45L148.56 94.8405Z" fill="#404141"/>
<path d="M75.1999 38.7097C72.1487 38.8113 69.1119 38.2481 66.2999 37.0595C60.5499 34.8095 59.1599 32.0595 61.2499 26.2495C63.6999 19.4095 66.2499 12.5997 69.2499 5.95969C71.8499 0.0596867 82.7499 -1.79031 89.1699 1.95969C93.9599 4.72969 96.6899 7.70952 94.3799 13.7895C92.6299 18.3795 92.1699 23.4495 90.9299 28.2595C88.8399 36.3695 87.5099 37.4196 79.0199 38.3496L75.1999 38.7097ZM76.9699 4.18967C76.233 4.03476 75.4652 4.14037 74.7977 4.48874C74.1301 4.83711 73.6042 5.40652 73.3099 6.09958C69.8671 11.9197 67.1152 18.1216 65.1099 24.5796C67.6499 24.8896 69.1099 23.2297 70.9499 22.7197C74.3799 23.2497 77.8599 22.5496 81.3299 23.3496C83.5199 23.8596 85.7799 26.6797 87.4099 25.2297C89.0399 23.7797 89.0999 20.7096 89.8099 18.3396C90.0499 17.5496 90.1599 16.7196 90.3599 15.9196C92.0099 9.58965 88.5099 4.60954 81.9199 4.05954C80.2688 4.0031 78.6158 4.04664 76.9699 4.18967ZM77.8199 34.9697C78.9799 34.9697 80.1299 34.9697 81.2899 34.9697C82.8899 34.9097 84.7699 35.3097 85.2299 32.9697C85.4234 32.1501 85.34 31.2895 84.9926 30.5224C84.6452 29.7553 84.0535 29.1249 83.3099 28.7297C81.0498 27.3357 78.4929 26.4941 75.8467 26.2734C73.2006 26.0527 70.5396 26.4593 68.0799 27.4597C64.8299 28.7597 64.7899 31.3197 67.7399 33.2097C70.6899 35.0997 74.3499 35.0997 77.8199 34.9697Z" fill="#404141"/>
<path d="M37.6099 67.1603C40.3499 66.7503 41.9399 68.0501 41.9299 71.2901C41.9299 75.0901 38.12 79.0403 34.21 78.9803C30.89 78.9803 28.97 76.9801 28.53 73.7801C28.13 70.9301 33.0999 67.2703 37.6099 67.1603ZM35.6099 75.5902C37.4999 75.4502 38.0099 74.0702 38.2399 72.5902C38.4899 70.9202 37.2399 70.7201 36.0499 70.7601C34.8599 70.8001 33.1999 70.9902 32.9199 72.5602C32.5899 74.4302 34.4499 74.8702 35.6099 75.5902Z" fill="#404141"/>
<path d="M59.1499 73.87C57.2799 73.87 55.8399 73.72 55.2599 72.36C55.0595 71.809 55.0346 71.2093 55.1885 70.6435C55.3425 70.0777 55.6678 69.5736 56.1199 69.2001C58.5299 67.0001 60.7099 64.3101 64.6099 65.2001C66.3999 65.6201 67.6099 66.5001 67.7499 68.4501C67.8399 70.2301 67.3799 71.7101 65.3499 72.2101C63.1199 72.8101 60.8999 73.42 59.1499 73.87Z" fill="#404141"/>
<path d="M49.82 56.8702C47.62 57.1802 45.34 57.4603 44.88 54.4403C44.53 52.2103 49.19 48.0402 51.88 47.9302C54.57 47.8202 56.46 48.9301 56.55 51.7501C56.67 55.2901 55.15 57.4403 51.21 56.9503C51.3524 56.6544 51.5233 56.373 51.72 56.1102C52.79 54.8502 54.2 53.6502 52.41 51.9302C52.0746 51.5528 51.6087 51.3161 51.106 51.2679C50.6034 51.2197 50.1011 51.3635 49.7 51.6702C47.41 53.0402 50.01 54.1402 49.92 55.3902C49.91 55.8702 49.86 56.3402 49.82 56.8702Z" fill="#404141"/>
<path d="M76.0602 61.9498C73.7002 61.9498 72.8702 60.4098 72.9002 58.4098C72.9002 56.1598 77.7102 52.4097 80.1202 52.5997C80.5336 52.5772 80.9469 52.6459 81.3308 52.8011C81.7147 52.9563 82.0596 53.1941 82.3412 53.4977C82.6228 53.8012 82.8341 54.1631 82.9601 54.5575C83.0861 54.9519 83.1236 55.3691 83.0702 55.7797C83.0202 58.4397 79.0002 61.9998 76.0602 61.9498Z" fill="#404141"/>
<path d="M103.3 60.1997C101.3 59.5197 99.59 57.8097 100.12 56.1297C100.468 54.7698 101.216 53.546 102.268 52.617C103.32 51.6879 104.628 51.0965 106.02 50.9197C108.25 50.6997 109.32 52.2096 109.17 54.3396C108.9 57.8696 106.3 59.1597 103.3 60.1997Z" fill="#404141"/>
<path d="M50.4501 74.4602C52.9501 74.7302 53.1501 76.15 52.9501 77.77C52.5001 81.53 49.7801 83.0402 46.5701 83.6902C46.2379 83.7759 45.8893 83.7747 45.5578 83.6868C45.2262 83.5988 44.9228 83.4272 44.6767 83.1882C44.4307 82.9492 44.2503 82.6509 44.1528 82.322C44.0553 81.9931 44.044 81.6445 44.1201 81.31C44.2701 79.55 49.3301 74.4202 50.4501 74.4602Z" fill="#404141"/>
<path d="M49.8202 56.8702C49.8202 56.3802 49.9102 55.8702 49.9402 55.3902C50.0302 54.1402 47.4302 53.0403 49.7202 51.6703C50.1213 51.3635 50.6236 51.2197 51.1263 51.2679C51.6289 51.3162 52.0947 51.5528 52.4302 51.9303C54.2202 53.6503 52.8102 54.8502 51.7402 56.1102C51.5434 56.3731 51.3727 56.6545 51.2302 56.9503L49.8202 56.8702Z" fill="#D7D5CC"/>
<path d="M93.11 124.49C86.91 129.2 79.39 131.83 73.42 136.91C73.0689 137.244 72.625 137.463 72.1466 137.54C71.6683 137.617 71.1779 137.547 70.74 137.34C55.05 131.61 39.32 126.01 23.64 120.34C22.03 119.76 19.19 119.51 19.5 117.56C19.86 115.29 22.37 113.63 24.75 113.66C26.8815 113.64 29.0056 113.406 31.09 112.96C38.29 114.57 42.55 110.61 46.01 105.11L48.52 102.91C50.6633 103.157 52.8347 102.946 54.89 102.29C63.89 98.9199 72.05 94.0201 80.55 89.7201C81.16 89.4101 81.43 88.4201 81.86 87.7201V87.9C82.8 87.9 83.69 87.9001 83.94 86.7101L83.64 86.64C86.51 87 88.64 85.2299 90.98 84.0499L93.38 82.9C98.06 82.85 102.25 86.0498 107.09 84.9998C111.44 86.3498 115.61 88.9998 120.46 86.9998L124.38 88.2799C124.38 89.6599 125.75 89.2799 126.45 89.7899C128.9 91.0199 131.3 92.39 133.83 93.42C135.98 94.29 135.71 95.6499 135.11 97.2699L135.27 97.2101C133.69 97.0201 132.97 97.6899 133.15 99.2799V99.11C132.23 99.11 131.41 99.2201 131.03 100.22L131.11 100.04L130.02 101.04C128.72 101.2 127.25 101.04 126.13 101.57C119.033 105.14 112.275 109.347 105.94 114.14C105.597 114.379 105.343 114.723 105.214 115.12C105.086 115.518 105.092 115.946 105.23 116.34L105.13 116.11C104.19 116.02 103.39 116.17 103.13 117.23L103.21 117.14C102.21 117.03 101.43 117.19 101.15 118.3L101.21 118.08L100.12 119.16H100.2C99.2 119.05 98.43 119.23 98.15 120.33L98.2 120.1L97.12 121.2L97.18 121.1L96.1 122.23L96.23 122.14C95.32 122.14 94.47 122.2 94.12 123.23L94.18 123.09L93.11 124.49ZM88.37 98.19C90.37 98.86 92.19 98.4499 92.69 96.2599C93.19 94.0699 91.04 93.9899 89.69 93.2599C84.69 90.4399 82.85 95.1199 80.05 97.3499C79.16 98.0599 77.28 98.9999 78.48 100.35C79.38 101.41 81.23 101.35 82.62 100.41C84.38 99.25 85.98 97.69 88.37 98.19ZM57.11 113.06C56.9981 112.323 56.6414 111.645 56.0972 111.135C55.5529 110.625 54.8529 110.313 54.11 110.25C50.69 109.84 49.51 112.8 47.78 114.84C47.07 115.67 46.97 117.22 48 117.29C51 117.51 52.34 112.77 56.06 114.42C56.38 114.57 57.2 113.87 57.11 113.06ZM65.62 126.06C69.02 125.92 69.82 122.87 72.01 121.94C72.2511 121.865 72.4701 121.732 72.6476 121.552C72.8251 121.372 72.9556 121.152 73.0277 120.91C73.0999 120.667 73.1113 120.411 73.0611 120.164C73.011 119.916 72.9007 119.685 72.74 119.49C71.74 118.12 70.74 119.04 69.87 119.89C68.23 121.52 66.45 123.03 65.62 126.06ZM100.91 109.7C99.66 109.2 100.78 106.49 98.65 106.8C97.65 106.94 96.48 108.48 96.22 109.58C95.86 111.08 97.22 111.83 98.67 111.91C99.98 111.98 100.88 111.49 100.91 109.7ZM102.61 97.9998C105.28 97.6498 107.47 98.6899 108.92 96.5299C109.34 95.8999 108.7 94.93 107.84 94.61C105.11 93.6 104.17 95.4798 102.61 97.9998Z" fill="#D7D5CC"/>
<path d="M17.8698 138.31C19.3198 134.06 18.6399 129.79 18.2299 125.57C17.9999 123.1 18.6398 122.57 20.9198 123.39C29.4898 126.51 38.0898 129.57 46.6898 132.63C48.3098 133.21 48.1598 133.86 47.6898 135.53C46.0598 141.11 46.2998 146.93 46.6398 152.69C46.6398 152.95 47.0298 153.19 47.6398 153.92C49.3498 148.59 49.4199 143.44 49.8999 138.43C50.2299 134.98 51.2798 134.05 54.4298 135.3C57.9898 136.7 61.5632 138.056 65.1499 139.37C66.1044 139.649 66.9293 140.257 67.4784 141.086C68.0275 141.915 68.2654 142.912 68.1498 143.9C67.9998 151.8 67.7998 159.7 67.9498 167.6C68.0498 172.6 64.4199 173.6 61.0399 175.17C59.6566 175.847 58.0613 175.947 56.6043 175.448C55.1474 174.949 53.948 173.892 53.2698 172.51C49.3898 165.51 44.2698 165.45 37.8298 168.29C33.5498 170.17 29.4198 168.86 25.6698 166.18C20.6698 162.63 16.3998 157.08 10.3898 156.34C3.11984 155.44 4.10981 151.34 4.10981 146.6C4.10981 138.12 3.90982 129.6 3.67982 121.16C3.60982 118.58 4.11982 117.16 6.98982 118.58C7.42982 118.79 7.98981 118.85 8.41981 119.02C12.1198 120.33 16.5298 120.5 15.1698 126.83C14.3898 130.57 15.9698 134.63 17.8698 138.31Z" fill="#FCFCFC"/>
<path d="M94.2398 128.87C95.0198 133.36 93.8598 137.74 96.3098 142.7C97.6498 138.02 98.2298 134.31 97.8698 130.61C97.5398 127.21 99.0898 125.51 101.75 123.95C111.62 118.17 121.82 112.95 131.6 106.12C133.19 112.93 131.25 119.81 133.33 126.35C135 125.65 134.94 124.29 135 123.06C135.28 117.74 135.79 112.42 135.65 107.12C135.57 104.02 136.5 101.99 139.16 100.81C142.3 99.4101 144.94 94.6602 147.74 96.0702C149.99 97.1902 147.49 101.99 147.19 105.14C146.523 112.474 146.083 119.84 145.87 127.24C145.82 129.76 144.79 131.14 142.78 132.83C138.44 136.47 133.91 139.42 128.43 140.83C122.77 142.32 119.67 146.76 117.17 151.4C114.67 156.04 110.87 157.24 106.82 155.86C96.1398 152.21 87.7198 154.55 80.6898 163.34C78.9298 165.54 76.7398 169.43 74.0798 168.56C71.8298 167.82 73.3598 163.56 73.0798 160.81C72.4998 155.54 72.4498 150.2 71.8298 144.93C71.609 143.789 71.7863 142.606 72.3323 141.58C72.8783 140.553 73.7599 139.745 74.8298 139.29C81.1798 135.87 87.5698 132.42 94.2398 128.87Z" fill="#FCFCFC"/>
<path d="M81.86 87.7101C81.43 88.3801 81.16 89.3701 80.55 89.7101C72.05 94.0101 63.85 98.9099 54.89 102.28C52.8346 102.936 50.6632 103.148 48.52 102.9C47.18 98.7201 44.63 101.61 42.85 102.18C40.21 103.04 38.8499 107.46 34.9399 104.83C31.2599 109.83 24 108.63 20.33 112.83C16.33 117.36 12.88 117.32 8.22998 114.16C13.45 109.88 19.54 107.24 25.48 104.45C45.33 95.1001 64.93 85.2599 84.95 76.2599C95.3299 71.5899 104.95 70.51 115.48 74.85C127.344 79.6053 139.451 83.7311 151.75 87.2101C145.44 90.4501 140.99 94.9001 135.15 97.2101C135.75 95.5901 136.02 94.21 133.87 93.36C131.34 92.36 128.94 90.9601 126.49 89.7301C129.49 88.4701 132.26 90.64 135.2 90.13C136.43 89.92 137.49 89.6001 137.72 88.2401C137.747 88.0744 137.739 87.9044 137.694 87.7423C137.65 87.5803 137.57 87.4301 137.462 87.3017C137.353 87.1733 137.218 87.07 137.066 86.9989C136.914 86.9279 136.748 86.8907 136.58 86.89C132.45 86.59 127.99 83.4501 124.42 88.2201L120.5 86.9401C119.39 83.8001 116.55 83.3301 113.85 82.7401C112.85 82.5201 111.92 83 110.85 81.89C106.54 77.5001 105.27 77.82 102.24 83.07C102.96 86.61 106.42 81.0701 107.15 84.9901C102.31 86.0401 98.1499 82.84 93.4399 82.89C94.3999 82.2673 95.4024 81.7127 96.4399 81.2301C97.9399 80.6401 100.09 80.46 98.9799 78.12C98.1 76.25 96.24 76.6401 94.61 77.2201C93.4 77.6501 92.46 79.3801 91.12 78.7201C84.39 75.4001 82.6099 81.72 79.5999 84.87C77.1499 87.42 80.15 87.4601 81.86 87.7101ZM73.2199 87.87C72.7899 86.21 71.3999 86.7301 70.0399 87.4501C67.4499 88.8201 64.4399 91.91 62.4199 91.35C56.4199 89.68 55.42 94.3501 53.2 97.4001C52.67 98.1201 51.38 99.97 52.85 100.84C54.32 101.71 54.9899 100 55.7599 98.9401C56.9699 97.2901 57.64 94.78 60.48 95.31C65.14 96.18 67.7099 91.96 71.5699 90.83C72.3699 90.59 73.1599 89.63 73.2199 87.87Z" fill="#FCFCFC"/>
<path d="M105.26 116.28C105.121 115.886 105.116 115.458 105.244 115.061C105.372 114.663 105.627 114.319 105.97 114.08C112.305 109.287 119.063 105.08 126.16 101.51C127.28 100.96 128.75 101.14 130.05 100.98C122.335 106.919 114.027 112.046 105.26 116.28Z" fill="#FCFCFC"/>
<path d="M46.0098 105.07C42.5498 110.57 38.2898 114.53 31.0898 112.92C32.4598 110.42 33.7798 108.12 37.4198 109.62C38.9398 110.24 40.0598 108.7 41.0898 107.62C42.4498 106.22 43.6698 104.57 46.0098 105.07Z" fill="#FCFCFC"/>
<path d="M133.19 99.2196C133.01 97.6296 133.73 96.9596 135.31 97.1496C135.215 97.6718 134.96 98.1515 134.58 98.5224C134.2 98.8932 133.715 99.137 133.19 99.2196Z" fill="#FCFCFC"/>
<path d="M101.13 118.24C101.41 117.13 102.23 116.97 103.19 117.08C102.91 118.18 102.26 118.65 101.13 118.24Z" fill="#FCFCFC"/>
<path d="M94.1001 123.14C94.4501 122.14 95.3001 122.01 96.2101 122.05C95.7401 122.87 95.1601 123.48 94.1001 123.14Z" fill="#FCFCFC"/>
<path d="M98.1299 120.24C98.4099 119.14 99.2199 118.96 100.18 119.07C99.9099 120.19 99.2599 120.64 98.1299 120.24Z" fill="#FCFCFC"/>
<path d="M103.11 117.17C103.42 116.11 104.22 115.96 105.11 116.05C105.065 116.263 104.976 116.464 104.847 116.639C104.719 116.814 104.554 116.959 104.365 117.066C104.175 117.172 103.965 117.236 103.749 117.254C103.532 117.272 103.314 117.244 103.11 117.17Z" fill="#FCFCFC"/>
<path d="M131.06 100.16C131.44 99.1602 132.26 99.0001 133.18 99.0501C132.84 100.13 131.89 100.03 131.06 100.16Z" fill="#FCFCFC"/>
<path d="M148.55 94.8601L148.46 94.5801L148.68 94.5901L148.55 94.8601Z" fill="#FCFCFC"/>
<path d="M130.05 100.98L131.14 99.9805L130.05 100.98Z" fill="#FCFCFC"/>
<path d="M100.1 119.1L101.19 118.02C101.58 119.14 100.94 119.22 100.1 119.1Z" fill="#FCFCFC"/>
<path d="M97.1001 121.11L98.1801 120.01C98.5401 121.09 98.0101 121.28 97.1001 121.11Z" fill="#FCFCFC"/>
<path d="M96.0801 122.14L97.1601 121.01C97.4501 121.97 96.6401 121.95 96.0801 122.14Z" fill="#FCFCFC"/>
<path d="M93.1099 124.49L94.1099 123C94.4499 123.94 93.6899 124.15 93.1099 124.49Z" fill="#FCFCFC"/>
<path d="M76.9702 4.19043C78.6327 4.04538 80.3024 4.00184 81.9702 4.0603C88.5602 4.6103 92.0602 9.59041 90.4102 15.9204C90.2102 16.7204 90.1002 17.5503 89.8602 18.3403C89.1502 20.7103 89.0502 23.8305 87.4602 25.2305C85.8702 26.6305 83.5702 23.8603 81.3802 23.3503C77.9102 22.5503 74.4302 23.2505 71.0002 22.7205C70.8002 21.3305 71.6202 20.2205 72.0002 18.9805C73.4502 13.9905 76.3702 9.48042 76.9702 4.19043Z" fill="#ADB3B6"/>
<path d="M77.8198 34.9698C74.3498 35.0998 70.8198 35.2198 67.7398 33.2398C64.6598 31.2598 64.8298 28.7898 68.0798 27.4898C70.5395 26.4894 73.2005 26.0829 75.8467 26.3035C78.4929 26.5242 81.0497 27.3656 83.3098 28.7596C84.0534 29.1548 84.6452 29.7852 84.9925 30.5523C85.3399 31.3194 85.4234 32.18 85.2298 32.9996C84.7698 35.2996 82.8898 34.8996 81.2898 34.9996C80.1298 35.0096 78.9798 34.9698 77.8198 34.9698Z" fill="#ADB3B6"/>
<path d="M76.9699 4.18974C76.3699 9.47974 73.4499 13.9898 71.9699 18.9798C71.5999 20.2198 70.7799 21.3298 70.9699 22.7198C69.1299 23.2298 67.6699 24.8896 65.1299 24.5796C67.1351 18.1217 69.8871 11.9198 73.3299 6.09966C73.6236 5.41059 74.1463 4.84418 74.8096 4.49614C75.4729 4.1481 76.236 4.03988 76.9699 4.18974Z" fill="#FCFCFC"/>
<path d="M35.6098 75.5899C34.3998 74.8199 32.6098 74.4298 32.9198 72.5298C33.1998 70.9598 34.7198 70.78 36.0498 70.73C37.3798 70.68 38.4898 70.8899 38.2398 72.5599C38.0098 74.0699 37.4998 75.4499 35.6098 75.5899Z" fill="#D7D5CC"/>
<path d="M81.8601 87.7104C80.1501 87.4604 77.1501 87.4204 79.5801 84.8704C82.5801 81.7104 84.37 75.4005 91.1 78.7205C92.44 79.3805 93.3801 77.6505 94.5901 77.2205C96.2201 76.6405 98.0801 76.2204 98.9601 78.1204C100.07 80.4604 97.96 80.6405 96.42 81.2305C95.3825 81.713 94.38 82.2676 93.42 82.8904L91.0201 84.0403C87.7701 82.6303 84.8901 82.2704 83.6801 86.6304L83.98 86.7004C82.68 86.0404 82.3801 87.1304 81.9001 87.8904L81.8601 87.7104Z" fill="#404141"/>
<path d="M88.37 98.1899C85.98 97.6899 84.37 99.2499 82.62 100.42C81.23 101.35 79.38 101.42 78.48 100.36C77.28 98.9698 79.16 98.0298 80.05 97.3598C82.85 95.1298 84.66 90.4497 89.69 93.2697C91.04 94.0297 93.18 94.1197 92.69 96.2697C92.2 98.4197 90.45 98.8699 88.37 98.1899Z" fill="#404141"/>
<path d="M107.13 84.9898C106.4 81.0698 102.94 86.6096 102.22 83.0696C105.22 77.8196 106.52 77.4997 110.83 81.8897C111.92 82.9997 112.83 82.5198 113.83 82.7398C116.53 83.3298 119.37 83.7997 120.48 86.9397C115.65 88.9797 111.45 86.3398 107.13 84.9898Z" fill="#404141"/>
<path d="M57.11 113.07C57.2 113.89 56.38 114.57 56.04 114.42C52.32 112.77 50.95 117.51 47.98 117.29C46.98 117.22 47.05 115.67 47.76 114.84C49.49 112.84 50.67 109.84 54.09 110.25C54.838 110.31 55.5437 110.621 56.0922 111.133C56.6406 111.645 56.9994 112.328 57.11 113.07Z" fill="#404141"/>
<path d="M124.45 88.2204C128.02 83.4504 132.45 86.5903 136.61 86.8903C136.778 86.891 136.944 86.9282 137.096 86.9992C137.249 87.0703 137.384 87.1736 137.492 87.302C137.601 87.4304 137.68 87.5806 137.724 87.7426C137.769 87.9047 137.778 88.0747 137.75 88.2404C137.52 89.6004 136.46 89.9203 135.23 90.1303C132.29 90.6403 129.48 88.4704 126.52 89.7304C125.79 89.2404 124.45 89.6004 124.45 88.2204Z" fill="#404141"/>
<path d="M65.6201 126.06C66.4201 123.06 68.2301 121.52 69.8701 119.89C70.7201 119.04 71.7201 118.12 72.7401 119.49C72.9008 119.685 73.0111 119.916 73.0612 120.163C73.1114 120.411 73.1 120.667 73.0278 120.909C72.9557 121.151 72.8252 121.372 72.6477 121.552C72.4702 121.731 72.2512 121.865 72.0101 121.94C69.8201 122.87 69.0201 125.92 65.6201 126.06Z" fill="#404141"/>
<path d="M100.91 109.7C100.91 111.49 99.98 111.98 98.67 111.91C97.21 111.83 95.86 111.08 96.22 109.58C96.48 108.48 97.69 106.94 98.65 106.8C100.78 106.49 99.66 109.2 100.91 109.7Z" fill="#404141"/>
<path d="M102.61 98.0001C104.17 95.4801 105.11 93.6002 107.84 94.6102C108.7 94.9302 109.34 95.9001 108.92 96.5301C107.45 98.6901 105.28 97.6501 102.61 98.0001Z" fill="#404141"/>
<path d="M83.6802 86.6302C84.8902 82.2702 87.7702 82.6301 91.0202 84.0401C88.6802 85.2201 86.5502 86.9902 83.6802 86.6302Z" fill="#FCFCFC"/>
<path d="M81.8999 87.8702C82.3799 87.1102 82.6799 86.0203 83.9799 86.6803C83.7299 87.8703 82.8399 87.9302 81.8999 87.8702Z" fill="#FCFCFC"/>
<path d="M73.22 87.8697C73.16 89.6297 72.37 90.5897 71.57 90.8697C67.71 91.9997 65.1401 96.2197 60.4801 95.3497C57.6401 94.8197 56.97 97.3498 55.76 98.9798C54.99 100.04 54.3301 101.76 52.8501 100.88C51.3701 99.9997 52.67 98.1597 53.2 97.4397C55.42 94.3797 56.39 89.7197 62.42 91.3897C64.42 91.9497 67.42 88.8598 70.04 87.4898C71.45 86.7298 72.79 86.2097 73.22 87.8697Z" fill="#404141"/>
</g>
<defs>
<clipPath id="clip0_6962_20185">
<rect width="156.67" height="179.92" fill="white"/>
</clipPath>
</defs>
</svg>
