<svg width="157" height="180" viewBox="0 0 157 180" fill="none" xmlns="http://www.w3.org/2000/svg">
<g clip-path="url(#clip0_6962_20156)">
<path d="M3.4998 131.199C3.8698 112.699 2.12979 94.2996 0.919785 75.8796C0.359785 67.2996 1.65981 58.6696 0.0398107 50.1196C-0.280189 48.4296 1.2898 47.4994 2.3098 46.4594C7.9598 40.6994 15.5798 39.4595 22.9198 38.7395C38.646 37.2762 54.4706 37.2026 70.2098 38.5195C79.1098 39.2195 87.3398 42.2794 95.6398 45.2294C98.9798 46.4094 98.6398 48.9696 98.3898 51.3496C97.7098 59.4696 96.3898 67.5594 96.0998 75.6894C95.2098 98.6294 94.6998 121.579 94.0298 144.519C94.0298 145.519 93.9498 146.519 93.8798 147.519C93.1998 157.669 93.2898 158.119 83.3898 160.189C58.5598 165.399 33.9698 165.189 9.60979 156.769C3.98979 154.819 2.65979 152.52 3.35979 147.06C4.01979 141.84 3.4998 136.489 3.4998 131.199ZM76.7598 122.459C80.894 122.553 84.996 121.712 88.7598 119.999C75.8098 113.309 19.5698 111.63 11.0798 117.54C11.9298 118.54 13.0798 118.539 14.2598 118.779C21.8684 121.512 29.8224 123.165 37.8898 123.689C50.8698 124.589 63.8698 125.159 76.7598 122.459ZM4.5598 67.7895C4.3598 80.2895 6.2698 92.6596 6.6898 105.12C6.7798 107.94 6.00979 111.7 7.48979 113.34C9.62979 115.69 12.6398 112.389 15.3098 111.769C25.9798 109.309 36.6998 109.539 47.4498 110.409C61.2698 111.529 75.3698 109.91 88.8598 114.56C92.6298 115.86 91.0298 112.56 91.1198 111.32C92.4898 93.3195 90.7398 75.1895 94.0298 57.3195C94.7598 53.3195 92.4298 54.2695 90.3898 54.7895C83.3098 56.6095 76.2898 58.6794 68.9998 59.4394C48.5998 61.5394 28.4898 60.0996 8.87981 53.8396C5.68981 52.8396 4.27981 53.0796 4.50981 56.8396C4.73981 60.5996 4.5598 64.1395 4.5598 67.7895ZM50.0998 158.719C61.9398 159.449 73.3998 157.819 84.7698 155.249C88.1398 154.489 89.7698 152.649 89.8398 149.029C90.0498 142.249 90.1298 135.449 91.3098 128.709C91.7498 126.149 91.5798 124.009 87.3698 124.919C77.9691 127.14 68.339 128.241 58.6798 128.199C42.5398 127.859 26.3898 127.48 10.9398 121.88C8.32981 120.94 7.29981 121.679 7.37981 124.529C7.54981 130.689 7.57979 136.849 7.54979 143.009C7.49979 151.489 8.16979 152.289 16.2998 154.729C27.2701 157.91 38.6903 159.259 50.0998 158.719ZM94.4298 49.5295C73.6698 38.9295 16.0798 38.3396 4.8098 48.6096C34.5098 58.4496 63.8098 59.9895 94.4298 49.5295Z" fill="#404141"/>
<path d="M124.87 134.28C119.44 128.81 119.28 126.22 124.31 120.09C130.68 112.33 139.31 106.869 145.79 97.9395C146.22 103.259 146.55 107.3 146.88 111.34C146.8 115.16 146.77 118.98 146.63 122.79C146.38 129.41 142.72 133.33 136.25 134.79C132.32 135.73 128.69 133.84 124.87 134.28ZM141.28 114.28C142.63 112.51 142.28 110.999 140.68 109.669C138.25 111.949 136 114.34 133.47 116.39C130.761 118.548 128.516 121.232 126.87 124.28C125.95 126.02 124.42 127.86 127.54 129.05C136.68 132.05 141.94 130.28 141.81 119.6C141.77 117.8 141.46 116.009 141.29 114.219L141.28 114.28Z" fill="#404141"/>
<path d="M133.28 179.58L130.74 179.31C128.38 179.07 125.68 178.739 124.74 176.489C123.6 173.879 125.6 171.88 127.48 170.11C128.84 168.84 130.48 167.939 129.56 165.239C128.75 162.969 131.22 161.529 132.71 159.999C137.4 155.189 143.12 155.189 148.91 156.999C150.458 157.439 151.8 158.412 152.699 159.746C153.597 161.081 153.995 162.69 153.82 164.289C153.61 168.659 151.66 172.089 147.69 173.769C145.05 174.889 142.29 175.17 140.3 177.87C138.95 179.71 136.08 179.64 133.28 179.58ZM142.46 160.259L140.75 160.409C138.34 160.569 135.63 161.309 135.01 163.509C134.24 166.219 137.72 164.86 138.82 166.11C139.68 167.094 140.594 168.029 141.56 168.909C143.87 170.979 146.32 169.909 148.1 168.419C149.88 166.929 150.03 164.749 148.38 162.719C147.655 161.875 146.741 161.214 145.713 160.79C144.684 160.366 143.569 160.191 142.46 160.279V160.259ZM129.79 173.439C130.67 175.769 132.48 175.439 134.28 175.039C135.81 174.679 138.56 176.039 138.28 173.039C138.09 170.739 136.28 169.309 133.7 169.529C131.37 169.709 130.59 171.579 129.79 173.439Z" fill="#404141"/>
<path d="M139.6 37.4001C134.52 37.4001 129.76 37.1799 128.3 32.9899C127 29.2799 130.73 26.3999 133.4 23.9899C137.57 20.1799 142 16.6699 146.24 12.9899C148.64 10.8799 150.75 11.42 152.86 13.31C156.43 16.51 157.72 22.74 155.31 27.09C151.72 33.5 146.77 38.1001 139.6 37.4001ZM139.67 33.9799C147.48 33.7899 153.22 28.6599 153.02 22.4999C152.92 19.3499 150.63 17.4999 148.78 15.4999C147.96 14.6199 146.61 15.69 145.85 16.62C142.76 20.39 138.47 22.76 135.02 26.1C133.51 27.55 131.09 28.9799 132.02 31.2599C132.84 33.3199 135.45 33.5799 137.65 33.7499C138.44 33.8499 139.27 33.9499 139.67 33.9799Z" fill="#404141"/>
<path d="M125.72 80.4898C123.36 79.1298 122.47 77.3698 123.89 74.7398C127.229 68.2347 131.978 62.5568 137.79 58.12C140.5 56.12 143.33 55.88 145.19 60.12C149.8 70.56 149.71 71.92 141.78 79.65C141.21 79.65 140.78 79.79 140.71 80.4L139.54 81.0699L139.45 81.12C134.893 82.0633 130.172 81.8466 125.72 80.4898ZM132.39 78.0199C136.84 77.4999 140.39 76.5699 142.63 72.7999C144.5 69.5899 144.43 66.8998 141.36 64.4898C141.151 64.2408 140.994 63.9523 140.9 63.6412C140.805 63.3301 140.775 63.003 140.81 62.6798C140.99 58.8298 138.99 60.4199 137.61 61.5099C134.115 64.3484 131.3 67.9325 129.37 71.9998C127.27 76.1398 128.37 78.0399 132.39 78.0199Z" fill="#404141"/>
<path d="M124.87 134.28C128.68 133.86 132.31 135.75 136.25 134.83C142.72 133.33 146.38 129.41 146.63 122.83C146.77 119.02 146.8 115.2 146.88 111.38C154.75 114.93 152.88 124.99 149.18 130.93C145.48 136.87 139.55 140.03 132.77 141.22C127.13 142.16 124.96 140.05 124.87 134.28Z" fill="#ADB3B6"/>
<path d="M115.46 150.4C118.31 152.5 121.25 154.6 124.13 156.81C125.4 157.81 126.29 159.16 125.07 160.65C123.85 162.14 122.64 160.98 121.55 160.29C120.15 159.41 118.88 158.29 117.45 157.49C116.02 156.69 114.36 155.07 113.45 158.26C113.35 158.544 113.175 158.796 112.943 158.989C112.71 159.181 112.43 159.307 112.132 159.352C111.834 159.397 111.529 159.36 111.25 159.245C110.972 159.13 110.729 158.942 110.55 158.699C108.55 156.179 108.09 152.93 108.03 149.89C108.03 147.67 110.46 147.06 112.34 146.4C112.499 146.352 112.664 146.325 112.83 146.32C114.57 146.15 116.73 144.52 117.94 146.32C119.44 148.54 115.56 148.39 115.46 150.4Z" fill="#404141"/>
<path d="M111.87 39.3301C113.87 40.4901 117.53 39.0101 117.3 41.8501C117.08 44.5301 113.76 43.4799 111.8 43.4099C109.09 43.3199 104.97 44.64 104.04 41.97C103.04 38.97 104.65 35.2401 106.12 32.1001C106.313 31.6423 106.637 31.2518 107.052 30.9778C107.467 30.7038 107.953 30.5584 108.45 30.5601C109.97 32.0801 108.27 34.17 109.59 35.97C113.94 34.46 115.32 29.4299 120.36 26.9199C118.87 32.7399 114.14 35.1201 111.87 39.3301Z" fill="#404141"/>
<path d="M111.16 106.08C112.73 109.08 109.41 109.74 108.67 112.08C113.16 112.72 117.05 110.79 121.1 110.19C122.1 110.03 123.43 108.79 124.1 110.42C124.77 112.05 123.24 112.67 121.94 113.03C119.55 113.69 117.12 114.19 114.75 114.91C113.03 115.44 110.06 115.02 112.1 118.67C112.99 120.27 111.1 120.86 109.7 120.67C107.275 120.119 104.97 119.13 102.9 117.75C101.77 117.1 101.61 116.31 102.5 115.41C105.42 112.4 107.52 108.57 111.16 106.08Z" fill="#404141"/>
<path d="M111.25 69.2798C113.65 68.6498 116.04 67.9597 118.46 67.4397C119.29 67.2597 120.58 66.6697 120.87 68.1697C121.09 69.3397 120.19 69.9898 119.2 70.3098C116.25 71.2598 113.28 72.1297 109.85 73.1697C110.85 74.8097 114.24 75.1699 112.58 77.5999C111.22 79.5999 109.28 78.2099 107.63 77.5999C105.79 76.9199 103.98 76.1097 101.74 75.1797C105.55 71.5597 106.87 66.5198 110.83 63.2998C112.46 65.3698 110.53 66.5398 110.2 67.9998C109.8 68.5098 109.43 69.0999 110.03 69.6199C110.21 69.7199 110.87 69.3598 111.25 69.2798Z" fill="#404141"/>
<path d="M138.41 6.87024C138.41 8.49024 137.87 9.87023 136.15 10.3502C133.15 11.1202 135.49 8.56009 134.74 7.96009C133.05 6.62009 131.3 5.35019 129.57 4.06019C129.16 7.43019 122.83 5.45017 123.99 10.2902C124.4 12.0202 123.94 13.3603 121.79 13.1403C119.92 12.9503 119.98 11.4103 120.03 10.1403C120.13 7.14026 127.78 0.0101666 130.83 0.0401666C132.62 0.0101666 138.39 5.28024 138.41 6.87024Z" fill="#404141"/>
<path d="M125.72 80.4902C130.162 81.8419 134.873 82.0586 139.42 81.1204C137.62 84.8104 134.12 85.8803 130.56 86.2703C126.53 86.7203 125.65 83.8402 125.72 80.4902Z" fill="#D7D5CC"/>
<path d="M139.51 81.0703L140.68 80.4004C140.66 80.5286 140.612 80.6506 140.539 80.7576C140.466 80.8646 140.369 80.9536 140.257 81.0181C140.144 81.0825 140.019 81.1209 139.889 81.1299C139.76 81.1389 139.63 81.1185 139.51 81.0703Z" fill="#D7D5CC"/>
<path d="M140.71 80.3797C140.81 79.7697 141.21 79.5797 141.78 79.6297L140.71 80.3797Z" fill="#D7D5CC"/>
<path d="M50.0998 158.72C38.6898 159.256 27.2695 157.904 16.2998 154.72C8.16977 152.28 7.49977 151.48 7.54977 143C7.54977 136.84 7.54979 130.68 7.37979 124.52C7.29979 121.67 8.32979 120.93 10.9398 121.87C26.3898 127.47 42.5398 127.87 58.6798 128.19C68.339 128.231 77.9691 127.13 87.3698 124.91C91.5798 124 91.7498 126.14 91.3098 128.7C90.1298 135.44 90.0498 142.24 89.8398 149.02C89.7198 152.64 88.1398 154.48 84.7698 155.24C73.3998 157.82 61.9398 159.45 50.0998 158.72Z" fill="#D7D5CC"/>
<path d="M14.27 118.78C35.06 115.5 55.59 117.78 76.03 121.78C76.31 121.83 76.52 122.2 76.76 122.42C63.88 125.12 50.89 124.55 37.9 123.65C29.8345 123.138 21.8805 121.499 14.27 118.78Z" fill="#D7D5CC"/>
<path d="M141.29 114.22C141.46 116.01 141.77 117.8 141.79 119.59C141.92 130.27 136.66 132.08 127.52 129.04C132.54 124.5 135.29 117.84 141.29 114.22Z" fill="#ADB3B6"/>
<path d="M141.29 114.22C135.29 117.84 132.54 124.5 127.52 129.04C124.4 127.85 125.93 126.04 126.85 124.27C128.499 121.202 130.755 118.5 133.48 116.33C136.01 114.28 138.26 111.89 140.69 109.61C142.31 110.94 142.64 112.45 141.29 114.22Z" fill="#FCFCFC"/>
<path d="M142.46 160.28C143.571 160.194 144.686 160.372 145.715 160.799C146.744 161.227 147.657 161.892 148.38 162.74C150.03 164.74 149.82 167.02 148.1 168.44C146.38 169.86 143.87 171 141.56 168.93C140.594 168.049 139.68 167.115 138.82 166.13C137.72 164.88 134.24 166.24 135.01 163.53C135.63 161.33 138.34 160.59 140.75 160.43L142.46 160.28Z" fill="#ADB3B6"/>
<path d="M129.79 173.44C130.59 171.58 131.37 169.71 133.73 169.5C136.3 169.28 138.12 170.71 138.31 173.01C138.56 176.01 135.81 174.68 134.31 175.01C132.48 175.46 130.67 175.77 129.79 173.44Z" fill="#ADB3B6"/>
<path d="M139.67 33.9796C139.27 33.9796 138.44 33.8496 137.62 33.7896C135.42 33.6196 132.81 33.3596 131.99 31.2996C131.09 29.0196 133.51 27.5897 134.99 26.1397C138.44 22.7997 142.73 20.4295 145.82 16.6595C146.58 15.7295 147.93 14.6596 148.75 15.5396C150.6 17.5396 152.89 19.3496 152.99 22.5396C153.22 28.6596 147.48 33.7896 139.67 33.9796Z" fill="#FCFCFC"/>
<path d="M132.39 78.0196C128.39 78.0196 127.27 76.1396 129.39 72.0196C131.32 67.9523 134.135 64.3682 137.63 61.5296C139.01 60.4396 141.01 58.8495 140.83 62.6995C140.795 63.0227 140.825 63.3497 140.92 63.6607C141.014 63.9718 141.171 64.2606 141.38 64.5096C144.45 66.9196 144.52 69.6097 142.65 72.8197C140.43 76.5697 136.87 77.4996 132.39 78.0196Z" fill="#D7D5CC"/>
<path d="M111.25 69.28C110.83 69.41 110.25 69.7701 110.03 69.6201C109.43 69.1001 109.8 68.51 110.2 68L111.25 69.28Z" fill="#FCFCFC"/>
</g>
<defs>
<clipPath id="clip0_6962_20156">
<rect width="156.55" height="179.61" fill="white"/>
</clipPath>
</defs>
</svg>
