<svg width="132" height="143" viewBox="0 0 132 143" fill="none" xmlns="http://www.w3.org/2000/svg">
<g clip-path="url(#clip0_6962_20137)">
<path d="M1.26001 96.2604C1.57001 80.8504 0.260018 65.4804 1.80908e-05 50.0904C-0.00364497 44.3836 0.548977 38.69 1.65003 33.0904C2.36003 29.1704 5.79001 26.7905 8.98001 24.6405C24.5 14.1605 41.98 9.95049 60.36 9.64049C73.31 9.46049 86.26 9.1203 99.2 10.6903C110.79 12.0903 121.12 15.7705 129.55 24.1205C131.04 25.6005 132.55 26.8505 130.79 29.1205C130.325 29.803 130.119 30.6293 130.21 31.4503C131.83 43.7703 131.28 56.1804 131.57 68.5504C132.01 87.1504 131.62 105.781 131.65 124.401C131.65 127.091 130.97 128.27 128.2 126.96C127.03 126.41 125.47 126.33 125.15 127.56C123.94 132.15 119.82 132.2 116.54 133.12C100.54 137.59 84.34 142.75 67.65 142.12C46.56 141.33 25.52 138.63 6.31002 128.51C2.79002 126.65 0.760024 124.66 1.10002 120.04C1.67002 112.18 1.26001 104.21 1.26001 96.2604ZM59.21 138.161C63.2608 139.176 67.4742 139.366 71.6 138.72C73.26 138.6 74.93 138.58 76.6 138.32C91.6 135.94 105.88 131.09 119.82 125.07C123.45 123.5 124.56 121.271 124.31 117.911C123.59 108.461 124.05 98.9104 124.48 89.5804C125.15 75.1904 125.73 60.7605 126.82 46.3905C127.18 41.7105 126.26 40.0403 121.57 41.7103C120.33 42.1503 118.98 42.3203 117.72 42.7103C105.1 46.9303 91.94 47.0805 78.89 47.3705C67.5 47.6205 56.09 46.9005 44.68 46.6205C32.76 44.9205 20.79 43.5205 8.95002 41.3905C3.87002 40.4705 3.22002 42.2905 3.95002 46.3905C3.83002 63.7405 4.14002 81.0805 5.52002 98.3905C4.33692 102.891 4.33692 107.62 5.52002 112.12C5.52002 114.93 5.41002 117.75 5.36002 120.56C4.46002 121.72 4.02002 122.82 5.66002 123.75C7.66002 124.88 9.56002 126.171 11.66 127.151C26.7 134.291 42.84 136.711 59.21 138.161ZM127.7 34.2704C124.48 33.7704 124.87 31.0805 123.03 30.3505C116.23 27.6205 109.51 25.0503 101.9 24.9403C97.1 24.8703 92.52 21.5404 87.35 23.3304C86.92 23.4804 86.04 22.9604 85.64 22.5004C82 18.3404 77.79 19.0305 73.37 20.8805C72.6675 21.3054 71.8476 21.4944 71.03 21.4203C64.82 19.4203 59.03 23.4203 53.09 22.7303C47.7403 22.0872 42.3181 22.4261 37.09 23.7303C36.5837 23.7726 36.0811 23.6147 35.69 23.2904C32.54 20.8604 30.04 21.8203 28.26 24.9203C27.08 26.9903 25.39 27.3503 23.66 26.4903C17.58 23.4903 13.81 27.1604 10.33 31.0804C7.48002 34.2804 8.72002 37.3303 12.89 37.7403C34.67 39.9103 56.49 40.9905 78.38 41.1105C94.78 41.2005 110.7 38.5404 127.7 34.2704ZM32.25 17.0004C36.5 19.7704 40.12 21.0004 44.15 17.8404C44.8392 17.3621 45.646 17.0813 46.4832 17.0284C47.3204 16.9756 48.1562 17.1525 48.9 17.5404C53.67 19.8704 58.9 18.2205 63.32 17.4005C70.02 16.1505 76.64 17.8805 83.17 16.4005C83.5791 16.3074 84.0032 16.301 84.4149 16.3819C84.8265 16.4629 85.2167 16.6294 85.56 16.8705C90.22 21.6605 96.73 18.4205 102.41 20.8705C108.48 23.4505 116.63 20.8703 122.47 26.4703C122.9 26.8803 124.07 26.4703 125.47 26.4703C118.2 19.1603 109.73 16.0203 100.55 14.7203C77.833 11.341 54.6911 12.1136 32.25 17.0004ZM21.63 21.4803C25.63 24.2503 27.07 21.7003 29.51 18.4803C26.6739 18.8061 23.9647 19.8375 21.63 21.4803ZM30.06 18.4005L30.26 18.1903L29.93 18.1405L30.06 18.4005Z" fill="#404141"/>
<path d="M6.16016 1.82972C6.26016 1.21972 6.23015 0.139707 6.50015 0.0697075C7.67015 -0.270293 7.60016 0.869698 7.90016 1.5597L6.16016 1.82972Z" fill="#D7D5CC"/>
<path d="M68.6499 2.71973C68.7263 2.39077 68.7263 2.04868 68.6499 1.71973L69.7199 2.6499L68.6499 2.71973Z" fill="#D7D5CC"/>
<path d="M5.39992 120.54C5.44992 117.73 5.5099 114.91 5.5599 112.1C7.6999 107.51 6.2499 102.94 5.5599 98.3698C4.1799 81.0598 3.86991 63.7198 3.98991 46.3698C5.12991 44.5598 6.7899 44.3198 8.7299 44.6598C11.8145 45.306 14.9326 45.78 18.0699 46.0797C26.9299 46.6297 35.7799 48.4198 44.6899 46.6198C56.0999 46.8998 67.5099 47.6198 78.8999 47.3698C91.8999 47.0798 105.11 46.9296 117.73 42.7096C118.99 42.2896 120.34 42.1196 121.58 41.7096C126.27 40.0396 127.19 41.7098 126.83 46.3898C125.74 60.7598 125.16 75.1897 124.49 89.5797C124.06 98.9297 123.6 108.46 124.32 117.91C124.57 121.27 123.46 123.5 119.83 125.07C105.89 131.07 91.6399 135.94 76.6099 138.32C74.9799 138.58 73.3099 138.6 71.6099 138.72C68.1399 137.14 64.3599 137.27 60.6899 136.77L55.8399 135.77C38.5199 132.35 20.2099 132.26 5.39992 120.54Z" fill="#F1C49D"/>
<path d="M127.7 34.2703C110.7 38.5103 94.7802 41.2004 78.3802 41.1104C56.4902 40.9904 34.6702 39.9102 12.8902 37.7402C8.72016 37.3302 7.48016 34.2803 10.3302 31.0803C13.8102 27.1603 17.5802 23.4802 23.6602 26.4902C25.3902 27.3502 27.0802 26.9902 28.2602 24.9202C30.0402 21.8202 32.5402 20.8603 35.6902 23.2903C36.0812 23.6146 36.5839 23.7725 37.0902 23.7302C42.3182 22.426 47.7404 22.0871 53.0902 22.7302C59.0102 23.4302 64.8202 19.4102 71.0302 21.4202C71.8478 21.4943 72.6677 21.3053 73.3701 20.8804C77.7901 19.0304 82.0002 18.3402 85.6402 22.5002C86.0402 22.9602 86.9202 23.5003 87.3502 23.3303C92.5202 21.5403 97.1002 24.8702 101.9 24.9402C109.51 25.0502 116.23 27.6203 123.03 30.3503C124.87 31.0803 124.48 33.7703 127.7 34.2703ZM44.2502 33.9802C46.7802 35.2602 49.6502 32.1103 51.2502 33.5703C54.4502 36.4903 58.0902 35.5703 61.5802 36.1003C63.2102 36.3603 65.5802 36.9402 65.8202 34.9702C66.1302 32.5302 63.4102 32.7602 61.7402 32.4802C59.8002 32.1402 57.7402 32.3802 56.0002 31.2302C51.6602 28.3402 47.7902 29.1902 44.2502 33.9802ZM82.0502 32.9802C86.2602 31.2702 89.6702 34.4503 93.5101 34.5703C94.5101 34.5703 95.6601 34.7803 96.0602 33.5703C96.4602 32.3603 95.5501 31.7104 94.7601 31.1504C90.6301 28.2504 85.9602 28.7503 82.0502 33.0303V32.9802Z" fill="#FCFCFC"/>
<path d="M5.4001 120.54C20.2101 132.24 38.5201 132.33 55.8301 135.77L60.6801 136.77L59.2101 138.16C42.8401 136.71 26.7001 134.29 11.6701 127.16C9.60009 126.16 7.67009 124.89 5.67009 123.76C4.06009 122.82 4.5001 121.72 5.4001 120.54Z" fill="#D7D5CC"/>
<path d="M44.6402 46.6503C35.7302 48.4503 26.8802 46.6502 18.0202 46.1102C14.8829 45.8105 11.7648 45.3363 8.6802 44.6901C6.7402 44.3501 5.0802 44.5903 3.9402 46.4003C3.1802 42.3203 3.8302 40.5003 8.9402 41.4003C20.7502 43.5403 32.7202 44.9503 44.6402 46.6503Z" fill="#D7D5CC"/>
<path d="M5.50988 98.3896C6.24988 102.96 7.69988 107.53 5.50988 112.12C4.32678 107.619 4.32678 102.89 5.50988 98.3896Z" fill="#ADB3B6"/>
<path d="M21.6299 21.4795C23.9646 19.8367 26.6738 18.8052 29.5099 18.4795C27.0699 21.6995 25.5799 24.2495 21.6299 21.4795Z" fill="#D7D5CC"/>
<path d="M59.21 138.16L60.68 136.77C64.35 137.27 68.13 137.139 71.6 138.719C67.4742 139.365 63.2607 139.175 59.21 138.16Z" fill="#ADB3B6"/>
<path d="M30.0602 18.3996L29.9302 18.1396L30.2602 18.1796L30.0602 18.3996Z" fill="#D7D5CC"/>
<path d="M44.25 33.9799C47.79 29.1899 51.66 28.3399 55.99 31.2299C57.71 32.3799 59.79 32.1399 61.73 32.4799C63.4 32.7599 66.12 32.4799 65.81 34.9699C65.56 36.9699 63.2 36.3601 61.57 36.1C58.08 35.5401 54.44 36.49 51.24 33.57C49.65 32.11 46.78 35.2599 44.25 33.9799Z" fill="#404141"/>
<path d="M82.0498 33.0299C85.9598 28.7499 90.6298 28.2498 94.7598 31.2398C95.5498 31.7998 96.4298 32.55 96.0598 33.66C95.6898 34.77 94.4998 34.66 93.5098 34.66C89.6698 34.54 86.2598 31.3199 82.0498 33.0299Z" fill="#404141"/>
</g>
<defs>
<clipPath id="clip0_6962_20137">
<rect width="131.78" height="142.2" fill="white"/>
</clipPath>
</defs>
</svg>
