<svg width="136" height="189" viewBox="0 0 136 189" fill="none" xmlns="http://www.w3.org/2000/svg">
<g clip-path="url(#clip0_6962_20248)">
<path d="M129.31 28.7402L135.31 28.8701C135.22 30.1001 136.62 31.3801 135.2 32.5801C118.52 32.4001 101.99 34.6502 85.3801 35.7202C84.5901 35.7702 83.0101 35.2802 83.3801 36.9402C84.6201 42.2302 81.6501 40.6002 79.6901 38.9902C74.2201 34.4902 67.9701 36.5701 61.9801 36.3901C60.8701 36.3901 59.9801 36.6402 59.9801 37.9602C59.9801 41.7902 59.8801 45.6202 60.1601 49.4302C60.3101 51.5202 62.3101 50.9101 63.7301 51.1001C71.3101 52.1001 78.9801 52.8302 84.3301 59.4802C85.6582 60.9737 86.6263 62.7516 87.1602 64.6775C87.6941 66.6034 87.7796 68.626 87.4101 70.5901C86.5601 75.3301 84.5901 78.3301 79.1401 77.5901C75.9101 77.1801 74.5101 77.6402 76.6501 81.4902C82.0501 91.1702 87.1001 100.94 90.7301 111.6C96.0801 127.31 91.4401 138.83 80.2301 149.07C78.4101 150.74 76.2301 151.98 74.2301 153.52C66.4301 159.74 57.4001 157.37 48.8601 156.68C38.8601 155.87 30.7501 150.85 23.7801 143.63C17.2301 136.82 17.7301 128.63 19.5101 120.76C23.8201 101.68 31.1801 83.6303 43.0601 68.0103C49.9001 59.0103 51.0601 49.2003 51.4601 38.7603C51.5401 36.9003 50.7801 36.3701 49.2001 36.3901C45.7401 36.3901 42.1301 35.9302 39.7401 39.4602C39.2696 40.1172 38.6142 40.6192 37.8573 40.9023C37.1004 41.1855 36.2763 41.2371 35.4901 41.0503C34.1301 39.1203 37.1801 38.7102 36.4901 36.7202H-0.129883C0.450117 34.0102 2.23012 33.7201 4.08012 33.5901C14.9001 33.5901 25.7301 33.4002 36.5301 33.7302C43.1501 33.9302 46.4101 29.6301 50.1601 25.8301C37.9101 25.8301 25.9401 25.7601 13.9801 25.8301C11.0601 25.8301 7.98011 24.9902 5.21011 26.6902C4.42011 26.5202 3.05012 26.5302 2.94012 26.1702C2.87948 25.8904 2.87666 25.6012 2.93187 25.3203C2.98708 25.0394 3.09915 24.7729 3.26117 24.5369C3.42319 24.3009 3.63175 24.1005 3.87404 23.948C4.11633 23.7955 4.38724 23.6941 4.67012 23.6501C7.86166 22.8043 11.1484 22.3707 14.4501 22.3601C26.5901 22.4301 38.7401 22.3603 51.1601 21.7903C47.3901 17.5703 46.2301 12.9201 48.0301 8.38013C48.8845 6.39071 50.1629 4.61195 51.7762 3.16797C53.3894 1.72399 55.2985 0.649756 57.3701 0.0202637L57.3101 -0.0898438C60.9201 1.91016 61.9601 5.2701 62.1301 9.6001C63.9067 8.34118 65.7566 7.18919 67.6701 6.15015C72.4401 3.94015 75.0701 5.7402 75.0101 10.9502C74.9401 15.9502 71.5401 18.4302 67.3901 20.4802C75.5401 20.4802 83.3901 20.7202 91.1901 20.4202C103.97 19.9502 116.7 18.5102 129.51 18.9202C131.4 18.9802 133.95 18.0602 133.08 21.6602L67.7301 24.4402C72.2901 28.4902 76.0801 33.1601 82.6301 32.5801C98.2701 31.3001 113.8 30.0402 129.31 28.7402ZM58.9301 153.6C64.6201 154.67 69.7001 152.91 74.1201 148.77C80.6301 142.67 83.6901 134.83 84.7201 126.34C86.5501 111.27 79.9501 98.2203 73.9501 85.0703C72.1801 81.1703 70.0301 79.3802 65.5901 80.9602C63.2901 81.7802 60.6801 81.7702 58.2001 81.9602C56.8901 82.0802 54.5001 81.9003 54.6501 81.0203C55.5301 75.9203 50.2601 75.5603 48.6501 72.5203C47.0401 69.4803 45.6501 69.6501 43.8901 72.6201C35.2101 87.6201 27.5801 103.15 23.7601 120.17C22.2901 126.75 21.2501 133.91 26.4801 139.65C35.0301 149.11 45.5601 154.42 58.9301 153.6ZM56.2201 62.6802C56.6501 66.2902 57.3701 70.2502 57.5001 74.2202C57.6201 77.5602 59.0101 77.8603 61.9001 77.5303C68.4701 76.7603 74.4301 72.9802 81.3001 73.7102C82.6901 73.8602 83.2001 72.8403 83.5701 71.5703C83.9451 70.2939 84.0119 68.9467 83.765 67.6394C83.5182 66.3321 82.9647 65.1021 82.1501 64.0503C77.0401 56.4403 69.1001 55.7303 61.0401 55.0503C57.3901 54.7603 55.1901 55.4903 56.1901 59.8103C56.2998 60.7633 56.3098 61.7251 56.2201 62.6802ZM58.3901 11.5002C58.2701 8.50024 59.1201 5.25015 55.8601 5.40015C53.0401 5.54015 52.6401 8.97027 52.4001 11.2803C52.1401 13.7503 53.2801 17.3502 55.5801 17.1602C58.2401 16.9502 58.2801 13.3002 58.3901 11.5002ZM60.0501 18.7903C70.1601 16.1203 71.8201 14.4602 70.0501 8.98022C65.8301 11.1002 62.1701 13.7503 60.0501 18.7903ZM69.8601 32.9302C68.2204 31.0043 66.1702 29.4701 63.8601 28.4402C62.7501 27.8602 61.8601 26.2203 60.4301 27.0203C59.0001 27.8203 59.9301 29.3901 59.9501 30.6501C59.9501 32.7401 61.3201 32.9802 62.9501 32.9402C65.0301 32.8902 67.1201 32.9302 69.8601 32.9302ZM55.5301 50.5503C56.4601 45.9703 58.0201 41.4003 55.8201 36.8103C54.4001 41.3903 53.9301 45.9603 55.5301 50.5503Z" fill="#404141"/>
<path d="M57.9901 188.76C55.9901 182.3 57.5201 175.99 58.9201 169.69C59.0447 169.025 59.3521 168.408 59.8079 167.908C60.2636 167.409 60.8496 167.046 61.5001 166.86C62.9301 166.62 63.5001 168.38 64.0001 169.4C65.3307 172.086 66.0676 175.026 66.1608 178.021C66.254 181.017 65.7012 183.997 64.5401 186.76L57.9901 188.76ZM61.9901 186.03C62.6201 181.64 63.9901 178.62 61.6101 175.28C60.2901 178.68 59.4601 181.64 61.9501 186.03H61.9901Z" fill="#404141"/>
<path d="M38.1198 187.421C35.5198 179.321 38.7698 172.47 42.9298 165.91C43.4898 165.02 44.4298 162.91 46.2598 165.13C50.9398 170.86 48.6798 183.65 42.2598 187.13C40.7898 186.53 39.5298 188.511 38.1198 187.421ZM43.9398 170.57C41.2098 173.78 40.4598 177.38 40.3398 181.14C40.2993 181.472 40.3286 181.809 40.4259 182.129C40.5231 182.449 40.6862 182.745 40.9047 182.999C41.1231 183.252 41.3921 183.456 41.6943 183.6C41.9966 183.743 42.3254 183.822 42.6598 183.83C43.2432 183.868 43.8191 183.683 44.2704 183.311C44.7218 182.94 45.0148 182.41 45.0898 181.83C45.5498 178.12 46.3698 174.35 43.8998 170.57H43.9398Z" fill="#404141"/>
<path d="M129.31 28.74C113.8 30.04 98.3099 31.2999 82.7599 32.6699C76.2099 33.2499 72.4199 28.58 67.8599 24.53L133.21 21.75C132.88 24.62 128.89 25.45 129.31 28.74Z" fill="#ADB3B6"/>
<path d="M5.33993 26.7799C8.11993 25.0799 11.1899 25.9498 14.1099 25.9198C26.1099 25.7998 38.0399 25.9198 50.2899 25.9198C46.5399 29.7198 43.2899 34.02 36.6599 33.82C25.8599 33.49 15.0299 33.6998 4.20992 33.6798C3.61992 31.1998 2.22993 28.6099 5.33993 26.7799Z" fill="#ADB3B6"/>
<path d="M82.1199 185.56C79.9299 188.7 77.1199 187.56 74.3999 186.61C74.2999 172.18 74.8099 169.3 78.3399 165.7C81.5899 172.05 84.9799 178.2 82.1199 185.56ZM78.1899 176.17C77.0899 179.03 77.0899 181.17 78.1399 183.26C78.2599 183.5 79.1899 183.69 79.3299 183.53C81.0499 181.53 79.4599 179.53 79.3299 177.53C79.2799 177.31 78.9299 177.08 78.1999 176.2L78.1899 176.17Z" fill="#404141"/>
<path d="M58.9299 153.6C45.5599 154.42 35.0299 149.11 26.4399 139.69C21.2099 133.95 22.2499 126.79 23.7199 120.21C27.5399 103.21 35.1699 87.6904 43.8499 72.6604C45.5699 69.6604 46.9399 69.5005 48.6099 72.5605C50.2799 75.6205 55.5299 75.9605 54.6099 81.0605C54.4599 81.9405 56.8499 82.1205 58.1599 82.0005C60.6399 81.7705 63.2499 81.7805 65.5499 81.0005C69.9899 79.4205 72.1399 81.2103 73.9099 85.1103C79.9099 98.2603 86.5099 111.31 84.6799 126.38C83.6799 134.87 80.5899 142.71 74.0799 148.81C69.6999 152.91 64.6199 154.67 58.9299 153.6ZM63.8299 84.9905C61.6299 91.4605 64.3899 97.8405 65.1399 104.23C65.9499 111.11 66.3599 118.09 68.6299 125.95C70.1199 118.89 67.4799 94.2605 63.8299 84.9905ZM50.9499 79.9905C46.2999 82.7405 41.3499 102.99 42.8599 111.52C46.7599 101.2 47.3899 90.4904 50.9499 79.9704V79.9905Z" fill="#FCFCFC"/>
<path d="M56.22 62.6805C56.3183 61.733 56.3183 60.7778 56.22 59.8304C55.22 55.5104 57.42 54.7806 61.07 55.0706C69.13 55.7306 77.07 56.4406 82.18 64.0706C82.9946 65.1224 83.5481 66.3524 83.795 67.6597C84.0418 68.967 83.975 70.3139 83.6 71.5904C83.23 72.8604 82.72 73.8805 81.33 73.7305C74.46 73.0005 68.5 76.7306 61.93 77.5506C59.04 77.8806 57.65 77.5505 57.53 74.2405C57.37 70.2505 56.65 66.2905 56.22 62.6805Z" fill="#FCFCFC"/>
<path d="M58.3902 11.5006C58.2802 13.3006 58.2402 16.9505 55.5802 17.1605C53.2802 17.3505 52.1402 13.7506 52.4002 11.2806C52.6402 8.97059 53.0402 5.54047 55.8602 5.40047C59.1202 5.25047 58.2702 8.53057 58.3902 11.5006Z" fill="#D7D5CC"/>
<path d="M60.0498 18.7905C62.1698 13.7905 65.8298 11.1005 70.0498 8.98047C71.8198 14.4605 70.1198 16.1205 60.0498 18.7905Z" fill="#D7D5CC"/>
<path d="M69.8599 32.9304C67.1099 32.9304 65.0299 32.9304 62.9499 32.9304C61.2899 32.9304 59.9499 32.7304 59.9499 30.6404C59.9499 29.3804 58.9499 27.8205 60.4299 27.0105C61.9099 26.2005 62.7499 27.8504 63.8599 28.4304C66.171 29.4633 68.2213 31.001 69.8599 32.9304Z" fill="#ADB3B6"/>
<path d="M55.5301 50.5505C53.9301 45.9605 54.4001 41.3905 55.8201 36.8105C58.0201 41.4005 56.4601 45.9705 55.5301 50.5505Z" fill="#ADB3B6"/>
<path d="M61.95 186.03C59.46 181.64 60.29 178.68 61.57 175.28C63.97 178.62 62.58 181.64 61.95 186.03Z" fill="#D7D5CC"/>
<path d="M43.8999 170.57C46.3699 174.35 45.5499 178.12 45.0499 181.79C44.9749 182.37 44.6819 182.899 44.2305 183.271C43.7792 183.642 43.2033 183.828 42.6199 183.79C42.2856 183.781 41.9567 183.703 41.6545 183.56C41.3522 183.416 41.0832 183.212 40.8648 182.958C40.6463 182.705 40.4833 182.409 40.386 182.089C40.2887 181.769 40.2594 181.432 40.2999 181.1C40.4199 177.38 41.1699 173.78 43.8999 170.57Z" fill="#D7D5CC"/>
<path d="M78.2 176.2C78.93 177.11 79.28 177.34 79.3 177.6C79.47 179.6 81.06 181.6 79.3 183.6C79.16 183.76 78.23 183.6 78.11 183.33C77.12 181.2 77.12 179.03 78.2 176.2Z" fill="#ADB3B6"/>
<path d="M63.8298 84.9902C67.4798 94.2602 70.0998 118.89 68.6298 125.99C66.3598 118.13 65.9498 111.15 65.1398 104.27C64.3898 97.8403 61.6298 91.4602 63.8298 84.9902Z" fill="#404141"/>
<path d="M50.9501 79.9697C47.3901 90.4897 46.7601 101.15 42.8601 111.5C41.3501 102.96 46.3001 82.7197 50.9501 79.9697Z" fill="#404141"/>
</g>
<defs>
<clipPath id="clip0_6962_20248">
<rect width="135.89" height="188.76" fill="white"/>
</clipPath>
</defs>
</svg>
