<svg width="154" height="101" viewBox="0 0 154 101" fill="none" xmlns="http://www.w3.org/2000/svg">
<g clip-path="url(#clip0_6962_20273)">
<path d="M140.75 30.5195C140.75 32.4095 140.75 33.2496 140.75 34.0796C140.63 43.0096 140.63 43.0798 149.75 43.3398C152.92 43.4398 154.35 44.6299 152.51 47.6299C151.05 50.0199 151.77 52.5296 151.81 54.8896C151.88 58.4296 150.81 59.9498 147.24 59.2598C142.45 58.3298 140.58 60.0295 141.33 65.0195C141.8 68.0795 142.69 72.0195 141.33 74.2495C137.52 80.2495 138.67 87.0095 136.8 93.2495C136.1 95.5695 135.1 96.3195 132.56 96.0396C121.85 94.8696 121.56 94.9598 121.9 82.5298C121.97 79.2098 121.45 78.9495 118.36 78.9795C105.86 79.0895 93.5102 80.9099 81.1002 81.8799C65.7402 83.0799 50.5302 82.1697 35.2902 81.1997C31.5602 80.9697 30.0202 81.8197 30.4302 85.7397C30.8102 89.3697 30.7402 93.0497 30.8602 96.7397C30.9402 99.1697 29.8602 100.15 27.3302 100.44C18.7802 101.44 16.4902 99.9399 15.4502 91.4399C14.8402 86.4399 14.9702 81.4398 12.4502 76.7798C11.0702 74.1898 11.4502 71.1096 12.2902 68.1396C13.2902 64.4796 13.2902 61.1399 7.94023 61.4399C7.44221 61.421 6.94689 61.357 6.46024 61.2495C-0.209763 60.4595 -0.209767 60.4599 0.190233 53.6299C0.480233 48.6299 2.19023 46.8899 8.19023 47.6299C13.3202 48.2399 14.6202 46.6297 14.7602 41.7197C15.0202 32.1497 15.9502 22.5995 16.6502 13.0395C16.8402 10.4495 16.4602 7.52992 19.5602 6.16992C22.9102 4.68992 26.0502 6.37949 29.2402 6.97949C29.4668 7.06955 29.6666 7.21624 29.8207 7.40527C29.9747 7.5943 30.0778 7.81946 30.1202 8.05957C30.1202 13.9296 34.1202 12.3396 37.4102 12.0596C51.7902 10.8796 66.1702 11.7896 80.5402 12.3896C86.5402 12.6296 92.4502 12.9099 98.3802 11.6499C105.12 10.2099 111.93 10.6499 118.7 11.6499C121.05 11.9599 123.24 12.3397 124.55 9.4497C125.17 8.0697 136.06 5.8697 137.55 6.4497C139.04 7.0297 138.77 8.28965 138.99 9.38965C140.36 16.6296 140.18 24.1295 140.75 30.5195ZM112.61 72.6196C89.0402 73.1496 65.4602 73.6996 41.8902 72.6196C39.2402 72.4996 36.5802 72.4495 33.8902 72.4795C32.2102 72.4795 31.6102 73.5799 31.7102 75.1499C31.8202 77.1499 33.0502 77.1498 34.5102 76.7998C36.2931 76.3733 38.1442 76.3155 39.9502 76.6299C47.423 77.9795 55.0274 78.456 62.6102 78.0498C79.3002 77.0498 95.9402 75.3998 112.61 74.0498C115.68 74.6598 118.4 73.2095 121.26 72.2495L112.61 72.6196ZM69.8302 49.1699C69.8302 49.6599 69.8302 50.1697 69.8302 50.6597C58.3702 50.6597 46.9102 50.7297 35.4502 50.6597C32.1802 50.6597 31.6402 52.1099 31.7802 54.9399C31.9902 59.0399 34.7802 58.0798 37.1702 58.0498C53.4302 57.8798 69.6102 55.9498 85.9302 56.7998C96.9302 57.3698 108.07 56.5895 119.15 56.2495C120.8 56.2495 123.83 56.8796 123.15 53.5596C122.75 51.5596 122.93 48.5595 118.92 49.2895C115.356 49.9689 111.713 50.1408 108.1 49.7998C95.3302 48.2998 82.5802 49.9799 69.8302 49.1699ZM19.8302 40.3296C19.4302 51.4296 19.4102 62.5296 20.1102 73.6196C20.3402 77.2996 22.4102 77.6197 24.9502 77.7197C27.9502 77.8597 27.8302 75.5598 27.7002 73.5498C27.1902 65.7898 26.7002 58.0498 26.7502 50.2598C26.8202 37.7998 25.0602 25.3599 26.4602 12.8999C26.8202 9.7099 24.6802 9.46957 22.4602 9.05957C19.2802 8.46957 19.8502 10.7895 19.8402 12.4795C19.8502 21.7595 19.8702 31.0496 19.8702 40.3296H19.8302ZM133.96 54.7598C134.26 40.9498 134.35 27.1696 132.68 13.3896C132.36 10.7796 131.12 10.9499 129.47 10.8999C127.2 10.8299 127.25 12.3599 127.47 13.8999C127.97 18.5099 128.7 23.1097 128.95 27.7397C129.65 40.9597 130.12 54.1897 130.77 67.4097C130.84 68.6797 130.14 71.0096 132.36 70.8096C133.63 70.6896 133.99 68.5996 134 67.0996C134.02 63.0196 134 58.8898 134 54.7598H133.96ZM71.4002 30.2998H71.6302C71.6302 34.1298 71.6302 37.9598 71.6302 41.7798C71.6302 43.7798 71.7002 45.3596 74.4302 45.3896C76.9802 45.3896 77.4302 44.2495 77.4302 42.0395C77.6302 34.2895 78.0002 26.5498 78.3702 18.7998C78.4702 16.7998 78.6002 15.1896 75.7402 15.3296C73.2802 15.4496 71.0602 15.1498 71.3102 18.8198C71.5602 22.4898 71.4402 26.4698 71.4402 30.2998H71.4002ZM44.6602 30.5298H44.3102C44.3102 26.5298 44.2502 22.5298 44.3102 18.5298C44.3602 16.5998 44.7002 14.8998 41.7202 15.0298C39.1302 15.1498 38.2902 16.0299 38.4502 18.6499C38.9402 26.9399 39.2102 35.2498 39.6702 43.5498C39.7402 44.8098 39.0202 46.8996 41.4702 46.8696C43.6102 46.8696 44.7302 45.7599 44.6702 43.4199C44.6202 39.1599 44.7002 34.8398 44.7002 30.5298H44.6602ZM30.6602 41.3398H31.6602C31.6002 42.6698 31.4702 43.9898 31.5002 45.3398C31.5302 46.6898 32.3402 47.4098 33.7602 47.3398C35.0002 47.3398 36.2202 47.1499 36.3402 45.6299C36.4452 44.1417 36.4452 42.6478 36.3402 41.1597C35.9102 33.7097 35.4402 26.2596 34.9702 18.8096C34.8902 17.4496 36.4802 15.4196 33.3202 15.3096C30.1602 15.1996 30.7502 17.2597 30.7402 18.9897C30.6502 26.4697 30.6802 33.8798 30.6802 41.3398H30.6602ZM96.5002 30.6797H95.8302C95.8302 34.3397 95.7702 37.9997 95.8302 41.6797C95.8302 42.9297 94.8302 44.9599 97.4702 44.8999C99.6002 44.8999 99.6402 43.1997 99.7802 41.7197C100.52 33.9597 101.3 26.1997 101.85 18.4297C101.94 17.1397 102.94 14.6899 100.09 14.6699C97.8602 14.6699 96.3502 15.5595 96.4402 18.2495C96.6202 22.3695 96.5202 26.5297 96.5202 30.6797H96.5002ZM111.12 29.8096H110.97C110.8 33.4596 110.5 37.1098 110.5 40.7598C110.5 42.4598 109.08 45.0899 112.5 45.3599C115.57 45.6099 114.75 42.9099 114.97 41.4399C116.2 33.3799 115.46 25.2199 115.85 17.1099C115.93 15.4199 115.28 14.6595 113.63 14.5395C111.98 14.4195 111.17 15.2196 111.17 16.8496C111.177 21.1696 111.18 25.4896 111.18 29.8096H111.12ZM54.9802 30.0596H55.4802C55.4802 33.8696 55.3502 37.6897 55.5402 41.4897C55.6402 43.3197 54.4402 46.2699 58.1502 46.1299C61.4502 46.0199 61.0802 43.4296 60.9802 41.3896C60.7574 33.4474 59.972 25.531 58.6302 17.6997C58.3802 16.4397 58.6802 14.8398 56.6302 15.0898C54.7002 15.3298 55.0202 16.8596 55.0202 18.1396C54.9902 22.1096 55.0002 26.0896 55.0002 30.0596H54.9802ZM118.98 29.9795C118.98 34.1095 118.98 38.2496 118.98 42.3896C118.98 43.9296 119.48 44.9697 121.1 45.1997C122.72 45.4297 123.1 44.1295 123.1 42.9995C123.4 34.7595 123.58 26.4995 123.9 18.2495C123.98 16.2495 123.66 15.0498 121.31 15.0898C118.73 15.0898 119.01 16.9198 119.01 18.5498C118.94 22.3598 118.95 26.1695 118.95 29.9795H118.98ZM87.7702 30.8398H87.4102C87.4102 34.4898 87.4102 38.1298 87.4102 41.7798C87.4102 43.0198 86.1902 44.9799 88.8302 45.1699C91.1602 45.3399 91.8302 44.2397 91.9102 41.9297C92.2502 34.5097 92.9102 27.0999 93.3902 19.6699C93.5002 17.9699 94.2402 15.8699 91.1002 15.9199C88.2902 15.9699 87.4302 17.0999 87.6602 19.9199C87.9502 23.5199 87.7402 27.1898 87.7402 30.8398H87.7702ZM67.7702 30.1997H68.1502C68.1502 25.9097 67.9302 21.6098 68.2302 17.3398C68.4502 14.1798 66.2302 15.4795 64.9802 15.2495C63.5902 14.9995 61.7302 14.7299 61.9802 17.1899C62.8902 25.8999 63.8402 34.6098 64.7802 43.3198C64.8902 44.3198 64.9602 45.4998 66.3602 45.3198C67.5102 45.1598 67.7802 44.1698 67.7702 43.0698C67.7602 38.7698 67.7802 34.4697 67.7802 30.1997H67.7702ZM51.7102 30.5996H51.6502C51.6502 26.4496 51.6502 22.2999 51.6502 18.1499C51.6502 16.7699 51.7402 15.4497 49.7502 15.4097C47.5602 15.4097 47.4302 16.7097 47.4802 18.4097C47.7002 26.7197 47.8802 35.0296 48.1002 43.3296C48.1002 44.5896 47.7402 46.1498 49.7802 46.2798C51.8202 46.4098 51.6902 44.8998 51.7002 43.5898C51.7402 39.2298 51.7202 34.9096 51.7202 30.5996H51.7102ZM108.05 26.3999C108.05 23.3999 108.16 20.3997 108.05 17.4697C107.98 16.3597 110.16 14.4699 107.24 14.1299C105.12 13.8899 104.97 15.6099 104.87 17.1299C104.32 25.2199 103.75 33.3197 103.29 41.4097C103.22 42.6797 102.29 44.6696 104.78 44.8496C107.06 45.0296 106.89 43.1595 107 41.7495C107.38 36.6395 107.7 31.5299 108.06 26.3999H108.05ZM84.9602 27.6899H84.7402C84.7402 24.3699 84.7402 21.0595 84.7402 17.7495C84.7402 16.3495 84.1902 15.4999 82.6902 15.6099C81.4502 15.6999 81.0402 16.5599 81.0602 17.6699C81.2802 26.1099 81.5902 34.5395 81.0002 42.9795C80.9202 43.9795 81.1902 45.1097 82.4502 45.1797C83.7102 45.2497 83.8602 44.0498 83.9302 43.0698C84.3002 37.9298 84.6302 32.8099 84.9702 27.6899H84.9602ZM23.9602 89.0996H24.1002C23.9602 87.0996 23.7702 85.0996 23.6902 83.0996C23.6102 81.0996 22.3402 81.0396 20.9402 81.0996C19.5402 81.1596 17.8702 81.0998 18.1102 83.0098C18.6102 86.9398 18.5502 91.0099 20.3802 94.6899C20.6289 95.2286 21.041 95.675 21.5581 95.9658C22.0752 96.2567 22.6708 96.3768 23.2602 96.3096C24.9702 96.0796 24.4002 94.5898 24.3402 93.5098C24.2302 92.0698 24.0502 90.5796 23.9202 89.0996H23.9602ZM125.68 83.8799H125.49C125.49 84.7099 125.49 85.5296 125.49 86.3496C125.65 88.4296 125.28 90.6599 128.68 90.6699C131.93 90.6699 131.47 88.3599 131.68 86.6099C131.792 84.4772 131.768 82.3397 131.61 80.21C131.55 77.4 129.06 77.9397 127.61 77.6597C125.82 77.3197 125.76 79.0597 125.73 80.4097C125.63 81.5597 125.64 82.7199 125.64 83.8799H125.68ZM61.9702 64.8799C62.4402 62.1399 62.4302 60.0397 58.7902 60.4097C56.1802 60.6697 53.5602 60.1197 53.6702 64.4097C53.7702 67.7597 54.2302 69.4098 58.1402 69.5298C62.0502 69.6498 62.4902 67.7499 61.9302 64.8799H61.9702ZM9.36023 58.0698C11.1602 58.0698 14.0602 58.9297 13.9802 54.9697C13.8802 49.6097 9.54024 52.0498 6.98024 51.2998C4.42024 50.5498 3.57023 51.5698 3.52023 54.2998C3.40023 58.4698 6.09024 58.0998 9.32024 58.0698H9.36023ZM102.77 69.3799C99.6302 66.0599 103.11 59.8498 96.6602 60.5298C93.0302 60.9198 94.7902 64.6896 95.0202 66.6396C95.5402 71.3496 99.1802 68.1899 102.73 69.3799H102.77ZM148.18 47.4697C145.69 48.2197 142.1 45.2297 141.18 49.1997C140.75 50.9797 139.32 54.6798 143.01 55.2998C150.12 56.4698 145.29 49.4697 148.18 47.4697ZM76.6402 64.0796C76.4102 62.9196 78.0502 60.0797 73.8002 60.2197C70.9302 60.3297 70.3502 61.5596 70.8002 63.8096C71.2002 65.8096 69.1702 69.0996 73.4802 69.3896C77.1802 69.6296 76.8202 67.1898 76.6402 64.0698V64.0796ZM36.9802 64.8696C37.1502 66.9796 36.1802 69.4696 39.9802 69.0796C42.4702 68.8196 43.0502 68.0297 42.6302 65.7397C42.2802 63.7397 43.2302 61.2799 39.7602 61.1899C36.7102 61.1099 36.6902 62.8699 36.9802 64.8599V64.8696ZM84.7702 65.4097C84.0102 63.8297 86.1302 60.2597 82.0502 60.1797C79.2602 60.1197 79.9902 62.6598 80.0502 64.2998C80.0502 66.3998 79.1002 69.2996 82.8602 69.3496C85.6102 69.3696 84.6602 67.2699 84.7702 65.3999V65.4097ZM50.6502 65.0898C50.1302 63.7398 51.4202 61.0895 48.1702 61.0195C45.7802 60.9395 45.4802 62.4598 45.8302 64.2598C46.1802 66.0598 44.8302 68.9898 48.2002 69.2598C51.0702 69.4698 50.2902 66.9896 50.6502 65.0796V65.0898ZM122.8 64.7397C123.19 61.9897 123.71 60.0595 120.7 60.0395C118.7 60.0395 117.7 61.0395 118.41 62.7695C119.12 64.4995 116.85 67.4895 120.86 67.5395C124.18 67.5695 122.78 65.3595 122.8 64.7295V64.7397ZM103.96 64.0498C104.68 65.3898 102.67 68.5298 106.08 68.2798C108.64 68.0998 107.69 65.4599 107.8 63.8599C107.91 62.2599 108.25 60.2395 105.69 60.2695C102.9 60.2995 104.02 62.4095 103.96 64.0395V64.0498ZM114.89 64.3198C114.62 62.8398 116.39 60.3898 113.09 60.3198C110.54 60.2398 110.53 62.1098 110.83 63.7598C111.13 65.4098 109.41 67.8196 112.47 68.0796C115.18 68.2496 115.3 66.3696 114.89 64.3096V64.3198ZM91.7902 64.4399C91.2602 63.0999 92.9602 60.5999 89.9002 60.3599C87.2002 60.1499 87.6102 62.3598 87.9002 63.8198C88.1702 65.4898 86.5002 68.2898 89.6602 68.5698C92.8202 68.8498 91.3202 66.0997 91.7902 64.4697V64.4399ZM32.5602 60.9897C31.7302 63.7997 31.3802 66.2097 32.2602 68.7197C32.2602 68.8397 33.4602 68.8396 33.5802 68.6196C34.8602 66.1796 35.3602 63.7395 32.5602 60.9795V60.9897ZM67.0502 70.2197C68.5202 66.7897 67.7202 64.3097 67.8502 61.9097C67.8789 61.7507 67.8757 61.5875 67.8409 61.4297C67.806 61.2719 67.7401 61.1228 67.6471 60.9907C67.5541 60.8586 67.4357 60.7461 67.2989 60.6602C67.1621 60.5742 67.0096 60.5163 66.8502 60.4897C66.6858 60.4472 66.5132 60.4471 66.3488 60.4897C66.1844 60.5324 66.0335 60.6163 65.9104 60.7334C65.7874 60.8505 65.6961 60.9966 65.6454 61.1587C65.5946 61.3208 65.5859 61.4933 65.6202 61.6597C65.6902 64.1697 65.0602 66.82 67.0502 70.21V70.2197Z" fill="#404141"/>
<path d="M69.8298 49.1699C82.5798 49.9799 95.3298 48.2995 108.13 49.7495C111.742 50.0905 115.385 49.919 118.95 49.2397C122.95 48.5197 122.78 51.4997 123.18 53.5097C123.82 56.8297 120.79 56.1497 119.18 56.1997C108.1 56.5397 96.9898 57.3195 85.9598 56.7495C69.6398 55.8995 53.4598 57.8295 37.1998 57.9995C34.8298 57.9995 32.0198 58.9996 31.8098 54.8896C31.6698 52.0596 32.2098 50.5698 35.4798 50.6098C46.9398 50.7298 58.3998 50.6098 69.8598 50.6098C69.8198 50.1598 69.8298 49.6599 69.8298 49.1699Z" fill="#D7D5CC"/>
<path d="M19.87 40.33C19.87 31.05 19.87 21.7599 19.87 12.4799C19.87 10.7899 19.31 8.47997 22.49 9.05997C24.69 9.46997 26.83 9.7103 26.49 12.9003C25.09 25.3603 26.85 37.8002 26.78 50.2602C26.73 58.0502 27.22 65.7902 27.73 73.5502C27.86 75.5502 28 77.8601 24.98 77.7201C22.44 77.6001 20.37 77.3 20.14 73.62C19.45 62.53 19.47 51.47 19.87 40.33Z" fill="#D7D5CC"/>
<path d="M112.64 73.9995C95.9801 75.3895 79.3401 76.9995 62.6401 77.9995C55.0572 78.4057 47.4529 77.9293 39.9801 76.5796C38.1741 76.2652 36.3229 76.323 34.5401 76.7495C33.0801 77.0895 31.8501 77.0596 31.7401 75.0996C31.6401 73.5296 32.2401 72.4497 33.9201 72.4297C36.5701 72.4297 39.2301 72.4298 41.9201 72.5698C65.4901 73.6598 89.0701 73.1098 112.64 72.5698V73.9995Z" fill="#D7D5CC"/>
<path d="M134 54.76C134 58.89 134 63.0202 134 67.1502C134 68.6502 133.63 70.7401 132.36 70.8601C130.14 71.0601 130.84 68.7302 130.77 67.4602C130.12 54.2402 129.65 41.0098 128.95 27.7898C128.7 23.1598 127.95 18.56 127.47 13.95C127.29 12.36 127.24 10.83 129.47 10.95C131.12 10.95 132.36 10.8302 132.68 13.4402C134.39 27.1702 134.3 40.95 134 54.76Z" fill="#D7D5CC"/>
<path d="M71.4398 30.2999C71.4398 26.4699 71.6498 22.63 71.3798 18.82C71.1098 15.01 73.3798 15.4497 75.8098 15.3297C78.6698 15.1897 78.5398 16.8099 78.4398 18.7999C78.0698 26.5499 77.6998 34.2897 77.4998 42.0397C77.4398 44.2497 77.0098 45.4098 74.4998 45.3898C71.7698 45.3898 71.6798 43.7699 71.6998 41.7799C71.6998 37.9599 71.6998 34.1299 71.6998 30.2999H71.4398Z" fill="#D7D5CC"/>
<path d="M44.6998 30.5304C44.6998 34.8404 44.6198 39.1604 44.6998 43.4704C44.7598 45.8104 43.6398 46.9006 41.4998 46.9206C39.0498 46.9206 39.7698 44.8603 39.6998 43.6003C39.2398 35.3003 38.9698 26.9904 38.4798 18.7004C38.3198 16.1204 39.1598 15.2002 41.7498 15.0802C44.7498 14.9502 44.3898 16.6502 44.3398 18.5802C44.2598 22.5802 44.3398 26.5802 44.3398 30.5802L44.6998 30.5304Z" fill="#D7D5CC"/>
<path d="M30.6798 41.3402C30.6798 33.8802 30.6798 26.4298 30.6798 18.9798C30.6798 17.2498 30.2299 15.1901 33.2599 15.3001C36.2899 15.4101 34.8298 17.4401 34.9098 18.8001C35.3798 26.2501 35.8499 33.7002 36.2799 41.1502C36.3848 42.6384 36.3848 44.1318 36.2799 45.6199C36.1599 47.1399 34.9399 47.2899 33.6999 47.3299C32.2799 47.3799 31.4698 46.7299 31.4398 45.3299C31.4098 43.9299 31.5398 42.6899 31.5998 41.3299L30.6798 41.3402Z" fill="#D7D5CC"/>
<path d="M96.5201 30.6798C96.5201 26.5298 96.6201 22.3698 96.5201 18.2198C96.4301 15.5298 97.9401 14.6297 100.17 14.6397C103.02 14.6397 102.02 17.11 101.93 18.4C101.38 26.17 100.6 33.93 99.8601 41.69C99.7201 43.17 99.6801 44.8297 97.5501 44.8697C94.8601 44.9297 95.9401 42.87 95.9101 41.65C95.8201 38 95.9101 34.34 95.9101 30.65L96.5201 30.6798Z" fill="#D7D5CC"/>
<path d="M111.18 29.8101C111.18 25.4901 111.18 21.1568 111.18 16.8101C111.18 15.1801 111.94 14.38 113.64 14.5C115.34 14.62 115.94 15.3804 115.86 17.0704C115.47 25.1804 116.21 33.3404 114.98 41.4004C114.76 42.8704 115.58 45.5704 112.51 45.3204C109.13 45.0504 110.51 42.4203 110.51 40.7203C110.51 37.0703 110.81 33.4201 110.98 29.7701L111.18 29.8101Z" fill="#D7D5CC"/>
<path d="M54.9998 30.0602C54.9998 26.0602 54.9998 22.1103 54.9998 18.1403C54.9998 16.8603 54.6798 15.3305 56.6098 15.0905C58.6898 14.8405 58.3898 16.4404 58.6098 17.7004C59.9516 25.5316 60.7369 33.4481 60.9598 41.3903C61.0598 43.3903 61.4298 46.0206 58.1298 46.1306C54.4198 46.2706 55.6198 43.3204 55.5198 41.4904C55.3298 37.6904 55.4598 33.8702 55.4598 30.0602H54.9998Z" fill="#D7D5CC"/>
<path d="M118.95 29.9795C118.95 26.1695 118.95 22.3598 118.95 18.5498C118.95 16.9198 118.67 15.1298 121.25 15.0898C123.6 15.0898 123.92 16.2795 123.84 18.2495C123.52 26.4995 123.34 34.7595 123.04 42.9995C123.04 44.1295 122.73 45.4397 121.04 45.1997C119.35 44.9597 118.91 43.9296 118.92 42.3896C118.97 38.2496 118.95 34.1095 118.95 29.9795Z" fill="#D7D5CC"/>
<path d="M87.7402 30.8402C87.7402 27.1902 87.9502 23.5203 87.6702 19.9003C87.4402 17.1003 88.3002 15.9703 91.1102 15.9003C94.2502 15.8503 93.5102 17.9503 93.4002 19.6503C92.9202 27.0803 92.2602 34.4901 91.9202 41.9101C91.8202 44.2201 91.1702 45.3203 88.8402 45.1503C86.2002 44.9603 87.4502 43.0002 87.4202 41.7602C87.3302 38.1102 87.4202 34.4702 87.4202 30.8202L87.7402 30.8402Z" fill="#D7D5CC"/>
<path d="M67.7799 30.1997C67.7799 34.4897 67.7799 38.7698 67.7799 43.0498C67.7799 44.1498 67.5199 45.1398 66.3699 45.2998C64.9699 45.4998 64.8999 44.2998 64.7899 43.2998C63.8499 34.5898 62.8999 25.8799 61.9899 17.1699C61.7299 14.7099 63.5899 14.9795 64.9899 15.2295C66.2299 15.4595 68.4599 14.1598 68.2399 17.3198C67.9399 21.5898 68.1599 25.8897 68.1599 30.1797L67.7799 30.1997Z" fill="#D7D5CC"/>
<path d="M51.7199 30.6001C51.7199 34.9101 51.7199 39.23 51.7199 43.54C51.7199 44.85 51.8699 46.37 49.7999 46.23C47.7299 46.09 48.15 44.5403 48.12 43.2803C47.9 34.9803 47.72 26.6704 47.5 18.3604C47.45 16.7104 47.5799 15.3604 49.7699 15.3604C51.7699 15.3604 51.68 16.7201 51.67 18.1001C51.67 22.2501 51.67 26.4003 51.67 30.5503L51.7199 30.6001Z" fill="#D7D5CC"/>
<path d="M108.06 26.4098C107.7 31.5298 107.38 36.6396 106.96 41.7496C106.85 43.1596 107.02 45.0297 104.74 44.8497C102.25 44.6697 103.18 42.6798 103.25 41.4098C103.71 33.3198 104.25 25.22 104.83 17.13C104.93 15.61 105.08 13.89 107.2 14.13C110.12 14.45 107.94 16.3598 108.01 17.4698C108.18 20.4698 108.06 23.4698 108.06 26.4098Z" fill="#D7D5CC"/>
<path d="M84.9699 27.6897C84.6299 32.8097 84.2999 37.9293 83.9699 43.0593C83.8999 44.0593 83.8499 45.2297 82.4899 45.1697C81.1299 45.1097 80.9599 44.0095 81.0399 42.9695C81.6299 34.5295 81.3199 26.0994 81.0999 17.6594C81.0999 16.5494 81.4899 15.6594 82.7299 15.5994C84.2299 15.4894 84.7799 16.3395 84.7799 17.7395C84.7799 21.0495 84.7799 24.3595 84.7799 27.6795L84.9699 27.6897Z" fill="#ADB3B6"/>
<path d="M23.9199 89.1003C24.0499 90.5803 24.2299 92.1005 24.2999 93.5505C24.3599 94.6305 24.9299 96.1203 23.2199 96.3503C22.6305 96.4176 22.0348 96.2974 21.5178 96.0066C21.0007 95.7157 20.5885 95.2689 20.3399 94.7302C18.5099 91.0602 18.5699 86.9805 18.0699 83.0505C17.8299 81.1405 19.5999 81.2104 20.8999 81.1404C22.1999 81.0704 23.5799 81.2104 23.6499 83.1404C23.7199 85.0704 23.9199 87.1404 24.0599 89.1404L23.9199 89.1003Z" fill="#D7D5CC"/>
<path d="M125.64 83.8805C125.64 82.7205 125.64 81.5603 125.64 80.4103C125.64 79.0603 125.73 77.3203 127.52 77.6603C129.01 77.9403 131.52 77.4006 131.52 80.2106C131.678 82.3403 131.702 84.4778 131.59 86.6105C131.39 88.3605 131.85 90.6906 128.59 90.6706C125.19 90.6706 125.59 88.4303 125.4 86.3503C125.34 85.5303 125.4 84.7105 125.4 83.8805H125.64Z" fill="#D7D5CC"/>
<path d="M61.9298 64.8804C62.4898 67.7504 62.0598 69.57 58.0998 69.48C54.1398 69.39 53.7298 67.7104 53.6298 64.3604C53.5198 60.1204 56.1398 60.6704 58.7498 60.3604C62.3898 60.0404 62.3998 62.1404 61.9298 64.8804Z" fill="#D7D5CC"/>
<path d="M9.31999 58.0702C6.08999 58.0702 3.39999 58.4201 3.48999 54.2601C3.53999 51.5701 4.48999 50.5801 6.94999 51.2601C9.40999 51.9401 13.84 49.5701 13.95 54.9301C14.02 58.9301 11.12 58.1002 9.31999 58.0702Z" fill="#D7D5CC"/>
<path d="M102.73 69.3802C99.2198 68.1902 95.5398 71.38 94.9798 66.64C94.7498 64.69 92.9798 60.9201 96.6198 60.5301C103.07 59.8501 99.5898 66.0602 102.73 69.3802Z" fill="#D7D5CC"/>
<path d="M148.18 47.4701C145.29 49.4701 150.12 56.4702 142.98 55.3002C139.29 54.6802 140.72 50.9801 141.15 49.2001C142.1 45.2201 145.69 48.2101 148.18 47.4701Z" fill="#D7D5CC"/>
<path d="M76.64 64.0704C76.82 67.1904 77.1699 69.6305 73.4699 69.3805C69.1599 69.0905 71.19 65.8404 70.79 63.8004C70.35 61.5504 70.93 60.3206 73.79 60.2106C78.05 60.0506 76.41 62.9104 76.64 64.0704Z" fill="#D7D5CC"/>
<path d="M36.9801 64.8599C36.6901 62.8599 36.7101 61.1098 39.7601 61.1798C43.2301 61.2698 42.2801 63.7696 42.6301 65.7296C43.0501 68.0196 42.4701 68.8099 39.9801 69.0699C36.1801 69.4699 37.1801 66.9699 36.9801 64.8599Z" fill="#D7D5CC"/>
<path d="M84.7699 65.4C84.6599 67.27 85.6099 69.3999 82.8399 69.3399C79.0799 69.2899 80.0699 66.3896 80.0299 64.2896C80.0299 62.6496 79.2599 60.11 82.0299 60.17C86.1799 60.25 84.0099 63.82 84.7699 65.4Z" fill="#ADB3B6"/>
<path d="M50.65 65.0803C50.29 66.9903 51.07 69.4604 48.2 69.2404C44.86 68.9804 46.2 66.1004 45.83 64.2404C45.46 62.3804 45.78 60.9202 48.17 61.0002C51.42 61.1202 50.18 63.7303 50.65 65.0803Z" fill="#D7D5CC"/>
<path d="M122.8 64.73C122.8 65.36 124.17 67.5703 120.86 67.5303C116.86 67.4803 119.05 64.3803 118.41 62.7603C117.77 61.1403 118.7 60.0203 120.7 60.0303C123.71 60.0503 123.18 61.98 122.8 64.73Z" fill="#D7D5CC"/>
<path d="M103.96 64.0396C104.02 62.4096 102.9 60.2998 105.69 60.2598C108.25 60.2598 107.9 62.3596 107.8 63.8496C107.7 65.3396 108.64 68.0895 106.08 68.2695C102.67 68.5195 104.68 65.3796 103.96 64.0396Z" fill="#ADB3B6"/>
<path d="M114.89 64.3099C115.3 66.3699 115.14 68.2501 112.47 68.0301C109.41 67.7701 111.1 65.2203 110.83 63.7103C110.56 62.2003 110.54 60.1899 113.09 60.2699C116.39 60.3799 114.62 62.8299 114.89 64.3099Z" fill="#D7D5CC"/>
<path d="M91.79 64.4701C91.32 66.1401 92.67 68.86 89.62 68.6C86.57 68.34 88.13 65.52 87.86 63.85C87.61 62.37 87.2 60.18 89.86 60.39C92.96 60.59 91.26 63.0901 91.79 64.4701Z" fill="#D7D5CC"/>
<path d="M32.5602 60.9795C35.3602 63.7395 34.8602 66.1799 33.5602 68.6099C33.4402 68.8299 32.2802 68.83 32.2402 68.71C31.3802 66.2 31.7302 63.7895 32.5602 60.9795Z" fill="#ADB3B6"/>
<path d="M67.0502 70.2104C65.0502 66.8204 65.6902 64.2103 65.5802 61.6503C65.5459 61.484 65.5545 61.3115 65.6053 61.1494C65.6561 60.9873 65.7473 60.8407 65.8704 60.7236C65.9934 60.6065 66.1443 60.523 66.3087 60.4804C66.4732 60.4378 66.6457 60.4374 66.8102 60.4799C66.9696 60.5065 67.1221 60.5648 67.2589 60.6508C67.3957 60.7368 67.514 60.8488 67.607 60.9809C67.7001 61.113 67.7659 61.2626 67.8008 61.4204C67.8357 61.5781 67.8389 61.7413 67.8102 61.9003C67.7202 64.3003 68.5202 66.7804 67.0502 70.2104Z" fill="#ADB3B6"/>
<path d="M112.64 74V72.6201L121.32 72.2002C118.43 73.1602 115.71 74.61 112.64 74Z" fill="#ADB3B6"/>
</g>
<defs>
<clipPath id="clip0_6962_20273">
<rect width="153.28" height="100.65" fill="white"/>
</clipPath>
</defs>
</svg>
