<svg width="48" height="88" viewBox="0 0 48 88" fill="none" xmlns="http://www.w3.org/2000/svg">
<path opacity="0.19" d="M9.58509 8.25277C11.2428 5.06953 13.9439 2.55271 17.2363 1.12402C18.9918 0.233594 20.9642 -0.139867 22.9236 0.0469004C27.1058 0.886508 26.5197 7.96765 34.0128 11.8489C41.5059 15.7301 44.2307 15.7933 45.9099 25.1715C47.4941 34.0112 51.2961 62.9381 34.9159 82.2015C33.5702 83.8232 31.9146 85.1603 30.0458 86.1341C28.177 87.1079 26.1325 87.699 24.0325 87.8729C18.8839 88.2056 12.0722 86.2096 6.79694 76.071C6.74941 76.0868 -10.1853 45.9717 9.58509 8.25277Z" fill="#404141"/>
<path d="M24.0486 59.9593C30.4092 59.9593 35.5655 52.8242 35.5655 44.0226C35.5655 35.221 30.4092 28.0859 24.0486 28.0859C17.688 28.0859 12.5317 35.221 12.5317 44.0226C12.5317 52.8242 17.688 59.9593 24.0486 59.9593Z" fill="#404141"/>
</svg>
