<svg width="48" height="88" viewBox="0 0 48 88" fill="none" xmlns="http://www.w3.org/2000/svg">
<g clip-path="url(#clip0_6962_20061)">
<path opacity="0.19" d="M9.5846 8.30026C11.2423 5.11702 13.9434 2.60021 17.2359 1.17152C18.9913 0.281088 20.9637 -0.0919867 22.9231 0.094781C27.1053 0.934389 26.5192 8.01555 34.0123 11.9126C41.5054 15.8096 44.2302 15.8412 45.9094 25.2194C47.4936 34.0591 51.2957 62.9859 34.9154 82.2494C33.5711 83.8739 31.9161 85.2139 30.0472 86.1905C28.1784 87.167 26.1332 87.7604 24.032 87.9363C18.8834 88.2531 12.0717 86.273 6.79645 76.1185C6.74893 76.1343 -10.1858 46.0192 9.5846 8.30026Z" fill="#404141"/>
<path d="M24.0477 70.591C31.9307 70.591 38.3211 59.0159 38.3211 44.7374C38.3211 30.4588 31.9307 18.8838 24.0477 18.8838C16.1648 18.8838 9.77441 30.4588 9.77441 44.7374C9.77441 59.0159 16.1648 70.591 24.0477 70.591Z" fill="#404141"/>
</g>
<defs>
<clipPath id="clip0_6962_20061">
<rect width="47.3982" height="87.9687" fill="white"/>
</clipPath>
</defs>
</svg>
