<svg width="48" height="88" viewBox="0 0 48 88" fill="none" xmlns="http://www.w3.org/2000/svg">
<g clip-path="url(#clip0_6962_20064)">
<path opacity="0.19" d="M9.5846 8.30098C11.2423 5.11774 13.9434 2.60092 17.2359 1.17223C18.9913 0.281804 20.9637 -0.0920447 22.9231 0.094723C27.1053 0.934331 26.5192 8.01586 34.0123 11.8971C41.5054 15.7783 44.2302 15.8411 45.9094 25.2194C47.4936 34.059 51.2957 62.97 34.9154 82.2493C33.5697 83.871 31.9141 85.2081 30.0453 86.1819C28.1766 87.1557 26.1321 87.7468 24.032 87.9208C18.8834 88.2534 12.0717 86.2579 6.79645 76.1192C6.74893 76.135 -10.1858 46.02 9.5846 8.30098Z" fill="#404141"/>
<path d="M11.026 20.0238C11.026 20.0238 18.1865 8.83989 23.4618 11.232C28.7371 13.6241 24.7133 15.7468 28.6103 19.1528C32.5074 22.5588 40.9193 21.4178 40.9193 34.6139C40.9193 47.81 41.5528 58.5982 34.0122 72.3012C26.4716 86.0043 14.2575 75.6598 11.2793 70.4162C8.14264 64.8082 0.855613 41.0457 11.026 20.0238Z" fill="#404141"/>
</g>
<defs>
<clipPath id="clip0_6962_20064">
<rect width="47.3982" height="87.9687" fill="white"/>
</clipPath>
</defs>
</svg>
