<svg width="48" height="88" viewBox="0 0 48 88" fill="none" xmlns="http://www.w3.org/2000/svg">
<g clip-path="url(#clip0_6962_20067)">
<path d="M9.58411 8.30098C11.2418 5.11774 13.943 2.60092 17.2354 1.17223C18.9908 0.281804 20.9632 -0.0920447 22.9227 0.094723C27.1049 0.934331 26.5187 8.01509 34.0118 11.8963C41.5049 15.7775 44.2297 15.8411 45.9089 25.2194C47.4931 34.059 51.2952 62.9859 34.9149 82.2493C33.5692 83.871 31.9136 85.2081 30.0448 86.1819C28.1761 87.1557 26.1316 87.7468 24.0315 87.9208C18.883 88.2534 12.0712 86.2571 6.79596 76.1184C6.74844 76.1343 -10.1863 46.02 9.58411 8.30098Z" fill="#404141"/>
</g>
<defs>
<clipPath id="clip0_6962_20067">
<rect width="47.3982" height="87.9687" fill="white"/>
</clipPath>
</defs>
</svg>
