<svg width="335" height="185" viewBox="0 0 335 185" fill="none" xmlns="http://www.w3.org/2000/svg">
<rect width="335" height="185" rx="20" fill="url(#paint0_linear_1707_17621)"/>
<g filter="url(#filter0_b_1707_17621)">
<rect width="335" height="185" rx="20" fill="white" fill-opacity="0.03"/>
</g>
<path fill-rule="evenodd" clip-rule="evenodd" d="M44.9798 0H20C8.95431 0 0 8.9543 0 20V165C0 176.046 8.95431 185 20 185H315C325.026 185 333.329 177.622 334.777 168C333.04 115.464 282.418 42.4787 44.9798 0Z" fill="white" fill-opacity="0.06"/>
<path d="M30.048 155V152.808H24.544V151.624L29.376 143.832H31.328V151.704H32.992V152.808H31.328V155H30.048ZM25.744 151.704H30.048V144.872H29.984L25.744 151.704ZM41.6098 145H36.6178L36.2978 149.272H36.4098C36.6871 148.899 36.9964 148.605 37.3378 148.392C37.6791 148.168 38.1484 148.056 38.7458 148.056C39.2364 148.056 39.6844 148.136 40.0898 148.296C40.5058 148.445 40.8631 148.669 41.1618 148.968C41.4604 149.267 41.6951 149.629 41.8658 150.056C42.0364 150.472 42.1218 150.952 42.1218 151.496C42.1218 152.04 42.0364 152.541 41.8658 153C41.6951 153.448 41.4444 153.837 41.1138 154.168C40.7831 154.488 40.3831 154.739 39.9138 154.92C39.4444 155.101 38.9111 155.192 38.3138 155.192C37.8444 155.192 37.4231 155.139 37.0498 155.032C36.6871 154.925 36.3618 154.781 36.0738 154.6C35.7964 154.419 35.5511 154.216 35.3378 153.992C35.1244 153.768 34.9324 153.533 34.7618 153.288L35.7698 152.52C35.9191 152.744 36.0684 152.947 36.2178 153.128C36.3778 153.309 36.5591 153.469 36.7618 153.608C36.9644 153.736 37.1938 153.837 37.4498 153.912C37.7058 153.987 38.0044 154.024 38.3458 154.024C39.1138 154.024 39.7004 153.816 40.1058 153.4C40.5218 152.984 40.7298 152.408 40.7298 151.672V151.544C40.7298 150.808 40.5218 150.232 40.1058 149.816C39.6898 149.4 39.0924 149.192 38.3138 149.192C37.7804 149.192 37.3644 149.283 37.0658 149.464C36.7778 149.645 36.5111 149.869 36.2658 150.136L35.1298 149.976L35.5298 143.832H41.6098V145ZM51.2035 145H46.2115L45.8915 149.272H46.0035C46.2808 148.899 46.5902 148.605 46.9315 148.392C47.2728 148.168 47.7422 148.056 48.3395 148.056C48.8302 148.056 49.2782 148.136 49.6835 148.296C50.0995 148.445 50.4568 148.669 50.7555 148.968C51.0542 149.267 51.2888 149.629 51.4595 150.056C51.6302 150.472 51.7155 150.952 51.7155 151.496C51.7155 152.04 51.6302 152.541 51.4595 153C51.2888 153.448 51.0382 153.837 50.7075 154.168C50.3768 154.488 49.9768 154.739 49.5075 154.92C49.0382 155.101 48.5048 155.192 47.9075 155.192C47.4382 155.192 47.0168 155.139 46.6435 155.032C46.2808 154.925 45.9555 154.781 45.6675 154.6C45.3902 154.419 45.1448 154.216 44.9315 153.992C44.7182 153.768 44.5262 153.533 44.3555 153.288L45.3635 152.52C45.5128 152.744 45.6622 152.947 45.8115 153.128C45.9715 153.309 46.1528 153.469 46.3555 153.608C46.5582 153.736 46.7875 153.837 47.0435 153.912C47.2995 153.987 47.5982 154.024 47.9395 154.024C48.7075 154.024 49.2942 153.816 49.6995 153.4C50.1155 152.984 50.3235 152.408 50.3235 151.672V151.544C50.3235 150.808 50.1155 150.232 49.6995 149.816C49.2835 149.4 48.6862 149.192 47.9075 149.192C47.3742 149.192 46.9582 149.283 46.6595 149.464C46.3715 149.645 46.1048 149.869 45.8595 150.136L44.7235 149.976L45.1235 143.832H51.2035V145ZM57.5973 155.192C57.0106 155.192 56.4826 155.096 56.0133 154.904C55.5439 154.701 55.1439 154.419 54.8133 154.056C54.4933 153.683 54.2426 153.229 54.0613 152.696C53.8906 152.163 53.8053 151.565 53.8053 150.904C53.8053 150.072 53.9279 149.293 54.1733 148.568C54.4293 147.832 54.7493 147.165 55.1332 146.568C55.5279 145.96 55.9653 145.427 56.4453 144.968C56.9253 144.499 57.3946 144.12 57.8533 143.832H59.5813C58.9733 144.269 58.4293 144.696 57.9493 145.112C57.4799 145.528 57.0639 145.965 56.7013 146.424C56.3386 146.872 56.0346 147.357 55.7893 147.88C55.5439 148.392 55.3413 148.973 55.1813 149.624L55.2613 149.656C55.5279 149.197 55.8799 148.819 56.3173 148.52C56.7546 148.211 57.3199 148.056 58.0133 148.056C58.5039 148.056 58.9519 148.136 59.3573 148.296C59.7626 148.456 60.1146 148.685 60.4133 148.984C60.7119 149.283 60.9413 149.645 61.1013 150.072C61.2719 150.499 61.3573 150.973 61.3573 151.496C61.3573 152.04 61.2666 152.541 61.0853 153C60.9039 153.448 60.6479 153.837 60.3173 154.168C59.9973 154.488 59.6026 154.739 59.1333 154.92C58.6746 155.101 58.1626 155.192 57.5973 155.192ZM57.5813 154.056C58.3493 154.056 58.9413 153.848 59.3573 153.432C59.7839 153.016 59.9973 152.429 59.9973 151.672V151.544C59.9973 150.787 59.7839 150.2 59.3573 149.784C58.9413 149.368 58.3493 149.16 57.5813 149.16C56.8133 149.16 56.2159 149.368 55.7893 149.784C55.3733 150.2 55.1653 150.787 55.1653 151.544V151.672C55.1653 152.429 55.3733 153.016 55.7893 153.432C56.2159 153.848 56.8133 154.056 57.5813 154.056ZM74.4488 150.808V149.464H79.0888V150.808H74.4488ZM99.1723 145H94.1803L93.8603 149.272H93.9723C94.2496 148.899 94.5589 148.605 94.9003 148.392C95.2416 148.168 95.7109 148.056 96.3083 148.056C96.7989 148.056 97.2469 148.136 97.6523 148.296C98.0683 148.445 98.4256 148.669 98.7243 148.968C99.0229 149.267 99.2576 149.629 99.4283 150.056C99.5989 150.472 99.6843 150.952 99.6843 151.496C99.6843 152.04 99.5989 152.541 99.4283 153C99.2576 153.448 99.0069 153.837 98.6763 154.168C98.3456 154.488 97.9456 154.739 97.4763 154.92C97.0069 155.101 96.4736 155.192 95.8763 155.192C95.4069 155.192 94.9856 155.139 94.6123 155.032C94.2496 154.925 93.9243 154.781 93.6363 154.6C93.3589 154.419 93.1136 154.216 92.9003 153.992C92.6869 153.768 92.4949 153.533 92.3243 153.288L93.3323 152.52C93.4816 152.744 93.6309 152.947 93.7803 153.128C93.9403 153.309 94.1216 153.469 94.3243 153.608C94.5269 153.736 94.7563 153.837 95.0123 153.912C95.2683 153.987 95.5669 154.024 95.9083 154.024C96.6763 154.024 97.2629 153.816 97.6683 153.4C98.0843 152.984 98.2923 152.408 98.2923 151.672V151.544C98.2923 150.808 98.0843 150.232 97.6683 149.816C97.2523 149.4 96.6549 149.192 95.8763 149.192C95.3429 149.192 94.9269 149.283 94.6283 149.464C94.3403 149.645 94.0736 149.869 93.8283 150.136L92.6923 149.976L93.0923 143.832H99.1723V145ZM105.566 155.192C104.979 155.192 104.451 155.096 103.982 154.904C103.513 154.701 103.113 154.419 102.782 154.056C102.462 153.683 102.211 153.229 102.03 152.696C101.859 152.163 101.774 151.565 101.774 150.904C101.774 150.072 101.897 149.293 102.142 148.568C102.398 147.832 102.718 147.165 103.102 146.568C103.497 145.96 103.934 145.427 104.414 144.968C104.894 144.499 105.363 144.12 105.822 143.832H107.55C106.942 144.269 106.398 144.696 105.918 145.112C105.449 145.528 105.033 145.965 104.67 146.424C104.307 146.872 104.003 147.357 103.758 147.88C103.513 148.392 103.31 148.973 103.15 149.624L103.23 149.656C103.497 149.197 103.849 148.819 104.286 148.52C104.723 148.211 105.289 148.056 105.982 148.056C106.473 148.056 106.921 148.136 107.326 148.296C107.731 148.456 108.083 148.685 108.382 148.984C108.681 149.283 108.91 149.645 109.07 150.072C109.241 150.499 109.326 150.973 109.326 151.496C109.326 152.04 109.235 152.541 109.054 153C108.873 153.448 108.617 153.837 108.286 154.168C107.966 154.488 107.571 154.739 107.102 154.92C106.643 155.101 106.131 155.192 105.566 155.192ZM105.55 154.056C106.318 154.056 106.91 153.848 107.326 153.432C107.753 153.016 107.966 152.429 107.966 151.672V151.544C107.966 150.787 107.753 150.2 107.326 149.784C106.91 149.368 106.318 149.16 105.55 149.16C104.782 149.16 104.185 149.368 103.758 149.784C103.342 150.2 103.134 150.787 103.134 151.544V151.672C103.134 152.429 103.342 153.016 103.758 153.432C104.185 153.848 104.782 154.056 105.55 154.056ZM116.392 155V152.808H110.888V151.624L115.72 143.832H117.672V151.704H119.336V152.808H117.672V155H116.392ZM112.088 151.704H116.392V144.872H116.328L112.088 151.704ZM128.53 155H121.074V153.624L124.802 150.264C125.346 149.773 125.794 149.272 126.146 148.76C126.498 148.237 126.674 147.688 126.674 147.112V146.92C126.674 146.248 126.498 145.731 126.146 145.368C125.794 144.995 125.271 144.808 124.578 144.808C123.895 144.808 123.367 144.984 122.994 145.336C122.631 145.677 122.359 146.136 122.178 146.712L120.978 146.264C121.084 145.933 121.228 145.613 121.41 145.304C121.602 144.984 121.842 144.701 122.13 144.456C122.418 144.211 122.764 144.013 123.17 143.864C123.586 143.715 124.066 143.64 124.61 143.64C125.164 143.64 125.655 143.72 126.082 143.88C126.519 144.04 126.882 144.264 127.17 144.552C127.468 144.84 127.692 145.181 127.842 145.576C128.002 145.971 128.082 146.403 128.082 146.872C128.082 147.299 128.018 147.699 127.89 148.072C127.772 148.445 127.602 148.803 127.378 149.144C127.164 149.485 126.903 149.821 126.594 150.152C126.295 150.472 125.959 150.792 125.586 151.112L122.466 153.832H128.53V155ZM141.605 150.808V149.464H146.245V150.808H141.605ZM163.113 155.192C162.43 155.192 161.843 155.064 161.353 154.808C160.862 154.541 160.457 154.163 160.137 153.672C159.817 153.181 159.582 152.579 159.433 151.864C159.283 151.149 159.209 150.333 159.209 149.416C159.209 148.509 159.283 147.699 159.433 146.984C159.582 146.259 159.817 145.651 160.137 145.16C160.457 144.669 160.862 144.296 161.353 144.04C161.843 143.773 162.43 143.64 163.113 143.64C163.795 143.64 164.382 143.773 164.873 144.04C165.363 144.296 165.769 144.669 166.089 145.16C166.409 145.651 166.643 146.259 166.793 146.984C166.942 147.699 167.017 148.509 167.017 149.416C167.017 150.333 166.942 151.149 166.793 151.864C166.643 152.579 166.409 153.181 166.089 153.672C165.769 154.163 165.363 154.541 164.873 154.808C164.382 155.064 163.795 155.192 163.113 155.192ZM163.113 154.024C163.561 154.024 163.945 153.939 164.265 153.768C164.585 153.587 164.841 153.336 165.033 153.016C165.235 152.696 165.385 152.312 165.481 151.864C165.577 151.405 165.625 150.893 165.625 150.328V148.504C165.625 147.949 165.577 147.443 165.481 146.984C165.385 146.525 165.235 146.136 165.033 145.816C164.841 145.496 164.585 145.251 164.265 145.08C163.945 144.899 163.561 144.808 163.113 144.808C162.665 144.808 162.281 144.899 161.961 145.08C161.641 145.251 161.379 145.496 161.177 145.816C160.985 146.136 160.841 146.525 160.745 146.984C160.649 147.443 160.601 147.949 160.601 148.504V150.328C160.601 150.893 160.649 151.405 160.745 151.864C160.841 152.312 160.985 152.696 161.177 153.016C161.379 153.336 161.641 153.587 161.961 153.768C162.281 153.939 162.665 154.024 163.113 154.024ZM163.113 150.36C162.739 150.36 162.478 150.285 162.329 150.136C162.19 149.987 162.121 149.805 162.121 149.592V149.24C162.121 149.027 162.19 148.845 162.329 148.696C162.478 148.547 162.739 148.472 163.113 148.472C163.486 148.472 163.742 148.547 163.881 148.696C164.03 148.845 164.105 149.027 164.105 149.24V149.592C164.105 149.805 164.03 149.987 163.881 150.136C163.742 150.285 163.486 150.36 163.113 150.36ZM172.722 155.192C172.136 155.192 171.608 155.096 171.138 154.904C170.669 154.701 170.269 154.419 169.938 154.056C169.618 153.683 169.368 153.229 169.186 152.696C169.016 152.163 168.93 151.565 168.93 150.904C168.93 150.072 169.053 149.293 169.298 148.568C169.554 147.832 169.874 147.165 170.258 146.568C170.653 145.96 171.09 145.427 171.57 144.968C172.05 144.499 172.52 144.12 172.978 143.832H174.706C174.098 144.269 173.554 144.696 173.074 145.112C172.605 145.528 172.189 145.965 171.826 146.424C171.464 146.872 171.16 147.357 170.914 147.88C170.669 148.392 170.466 148.973 170.306 149.624L170.386 149.656C170.653 149.197 171.005 148.819 171.442 148.52C171.88 148.211 172.445 148.056 173.138 148.056C173.629 148.056 174.077 148.136 174.482 148.296C174.888 148.456 175.24 148.685 175.538 148.984C175.837 149.283 176.066 149.645 176.226 150.072C176.397 150.499 176.482 150.973 176.482 151.496C176.482 152.04 176.392 152.541 176.21 153C176.029 153.448 175.773 153.837 175.442 154.168C175.122 154.488 174.728 154.739 174.258 154.92C173.8 155.101 173.288 155.192 172.722 155.192ZM172.706 154.056C173.474 154.056 174.066 153.848 174.482 153.432C174.909 153.016 175.122 152.429 175.122 151.672V151.544C175.122 150.787 174.909 150.2 174.482 149.784C174.066 149.368 173.474 149.16 172.706 149.16C171.938 149.16 171.341 149.368 170.914 149.784C170.498 150.2 170.29 150.787 170.29 151.544V151.672C170.29 152.429 170.498 153.016 170.914 153.432C171.341 153.848 171.938 154.056 172.706 154.056ZM186.076 147.928C186.076 148.76 185.948 149.544 185.692 150.28C185.447 151.005 185.127 151.672 184.732 152.28C184.337 152.877 183.9 153.411 183.42 153.88C182.951 154.339 182.487 154.712 182.028 155H180.3C180.908 154.563 181.447 154.136 181.916 153.72C182.396 153.304 182.817 152.872 183.18 152.424C183.543 151.965 183.847 151.48 184.092 150.968C184.337 150.445 184.54 149.859 184.7 149.208L184.62 149.176C184.343 149.635 183.985 150.019 183.548 150.328C183.121 150.627 182.561 150.776 181.868 150.776C181.377 150.776 180.924 150.696 180.508 150.536C180.103 150.376 179.751 150.147 179.452 149.848C179.164 149.549 178.935 149.192 178.764 148.776C178.604 148.349 178.524 147.869 178.524 147.336C178.524 146.792 178.609 146.296 178.78 145.848C178.961 145.389 179.217 145 179.548 144.68C179.879 144.349 180.273 144.093 180.732 143.912C181.201 143.731 181.719 143.64 182.284 143.64C182.871 143.64 183.399 143.741 183.868 143.944C184.337 144.136 184.732 144.419 185.052 144.792C185.383 145.155 185.633 145.603 185.804 146.136C185.985 146.669 186.076 147.267 186.076 147.928ZM182.3 149.672C183.068 149.672 183.66 149.464 184.076 149.048C184.503 148.632 184.716 148.045 184.716 147.288V147.16C184.716 146.403 184.503 145.816 184.076 145.4C183.66 144.984 183.068 144.776 182.3 144.776C181.532 144.776 180.935 144.984 180.508 145.4C180.092 145.816 179.884 146.403 179.884 147.16V147.288C179.884 148.045 180.092 148.632 180.508 149.048C180.935 149.464 181.532 149.672 182.3 149.672ZM195.11 145H190.118L189.798 149.272H189.91C190.187 148.899 190.496 148.605 190.838 148.392C191.179 148.168 191.648 148.056 192.246 148.056C192.736 148.056 193.184 148.136 193.59 148.296C194.006 148.445 194.363 148.669 194.662 148.968C194.96 149.267 195.195 149.629 195.366 150.056C195.536 150.472 195.622 150.952 195.622 151.496C195.622 152.04 195.536 152.541 195.366 153C195.195 153.448 194.944 153.837 194.614 154.168C194.283 154.488 193.883 154.739 193.414 154.92C192.944 155.101 192.411 155.192 191.814 155.192C191.344 155.192 190.923 155.139 190.55 155.032C190.187 154.925 189.862 154.781 189.574 154.6C189.296 154.419 189.051 154.216 188.838 153.992C188.624 153.768 188.432 153.533 188.262 153.288L189.27 152.52C189.419 152.744 189.568 152.947 189.718 153.128C189.878 153.309 190.059 153.469 190.262 153.608C190.464 153.736 190.694 153.837 190.95 153.912C191.206 153.987 191.504 154.024 191.846 154.024C192.614 154.024 193.2 153.816 193.606 153.4C194.022 152.984 194.23 152.408 194.23 151.672V151.544C194.23 150.808 194.022 150.232 193.606 149.816C193.19 149.4 192.592 149.192 191.814 149.192C191.28 149.192 190.864 149.283 190.566 149.464C190.278 149.645 190.011 149.869 189.766 150.136L188.63 149.976L189.03 143.832H195.11V145ZM208.761 150.808V149.464H213.401V150.808H208.761ZM233.485 145H228.493L228.173 149.272H228.285C228.562 148.899 228.871 148.605 229.213 148.392C229.554 148.168 230.023 148.056 230.621 148.056C231.111 148.056 231.559 148.136 231.965 148.296C232.381 148.445 232.738 148.669 233.037 148.968C233.335 149.267 233.57 149.629 233.741 150.056C233.911 150.472 233.997 150.952 233.997 151.496C233.997 152.04 233.911 152.541 233.741 153C233.57 153.448 233.319 153.837 232.989 154.168C232.658 154.488 232.258 154.739 231.789 154.92C231.319 155.101 230.786 155.192 230.189 155.192C229.719 155.192 229.298 155.139 228.925 155.032C228.562 154.925 228.237 154.781 227.949 154.6C227.671 154.419 227.426 154.216 227.213 153.992C226.999 153.768 226.807 153.533 226.637 153.288L227.645 152.52C227.794 152.744 227.943 152.947 228.093 153.128C228.253 153.309 228.434 153.469 228.637 153.608C228.839 153.736 229.069 153.837 229.325 153.912C229.581 153.987 229.879 154.024 230.221 154.024C230.989 154.024 231.575 153.816 231.981 153.4C232.397 152.984 232.605 152.408 232.605 151.672V151.544C232.605 150.808 232.397 150.232 231.981 149.816C231.565 149.4 230.967 149.192 230.189 149.192C229.655 149.192 229.239 149.283 228.941 149.464C228.653 149.645 228.386 149.869 228.141 150.136L227.005 149.976L227.405 143.832H233.485V145ZM236.423 155V153.832H239.623V144.824H239.511L236.695 147.448L235.911 146.6L238.871 143.832H240.967V153.832H243.911V155H236.423ZM249.472 155.192C248.886 155.192 248.358 155.096 247.888 154.904C247.419 154.701 247.019 154.419 246.688 154.056C246.368 153.683 246.118 153.229 245.936 152.696C245.766 152.163 245.68 151.565 245.68 150.904C245.68 150.072 245.803 149.293 246.048 148.568C246.304 147.832 246.624 147.165 247.008 146.568C247.403 145.96 247.84 145.427 248.32 144.968C248.8 144.499 249.27 144.12 249.728 143.832H251.456C250.848 144.269 250.304 144.696 249.824 145.112C249.355 145.528 248.939 145.965 248.576 146.424C248.214 146.872 247.91 147.357 247.664 147.88C247.419 148.392 247.216 148.973 247.056 149.624L247.136 149.656C247.403 149.197 247.755 148.819 248.192 148.52C248.63 148.211 249.195 148.056 249.888 148.056C250.379 148.056 250.827 148.136 251.232 148.296C251.638 148.456 251.99 148.685 252.288 148.984C252.587 149.283 252.816 149.645 252.976 150.072C253.147 150.499 253.232 150.973 253.232 151.496C253.232 152.04 253.142 152.541 252.96 153C252.779 153.448 252.523 153.837 252.192 154.168C251.872 154.488 251.478 154.739 251.008 154.92C250.55 155.101 250.038 155.192 249.472 155.192ZM249.456 154.056C250.224 154.056 250.816 153.848 251.232 153.432C251.659 153.016 251.872 152.429 251.872 151.672V151.544C251.872 150.787 251.659 150.2 251.232 149.784C250.816 149.368 250.224 149.16 249.456 149.16C248.688 149.16 248.091 149.368 247.664 149.784C247.248 150.2 247.04 150.787 247.04 151.544V151.672C247.04 152.429 247.248 153.016 247.664 153.432C248.091 153.848 248.688 154.056 249.456 154.056ZM259.05 155.192C258.399 155.192 257.829 155.112 257.338 154.952C256.847 154.781 256.437 154.552 256.106 154.264C255.786 153.976 255.541 153.635 255.37 153.24C255.21 152.845 255.13 152.419 255.13 151.96C255.13 151.192 255.338 150.584 255.754 150.136C256.17 149.688 256.719 149.373 257.402 149.192V149.064C256.805 148.861 256.33 148.536 255.978 148.088C255.637 147.629 255.466 147.08 255.466 146.44C255.466 145.587 255.781 144.909 256.41 144.408C257.039 143.896 257.919 143.64 259.05 143.64C260.181 143.64 261.061 143.896 261.69 144.408C262.319 144.909 262.634 145.587 262.634 146.44C262.634 147.08 262.458 147.629 262.106 148.088C261.765 148.536 261.295 148.861 260.698 149.064V149.192C261.381 149.373 261.93 149.688 262.346 150.136C262.762 150.584 262.97 151.192 262.97 151.96C262.97 152.419 262.885 152.845 262.714 153.24C262.554 153.635 262.309 153.976 261.978 154.264C261.647 154.552 261.237 154.781 260.746 154.952C260.266 155.112 259.701 155.192 259.05 155.192ZM259.05 154.056C259.839 154.056 260.458 153.88 260.906 153.528C261.354 153.176 261.578 152.68 261.578 152.04V151.688C261.578 151.048 261.354 150.552 260.906 150.2C260.469 149.848 259.85 149.672 259.05 149.672C258.25 149.672 257.626 149.848 257.178 150.2C256.741 150.552 256.522 151.048 256.522 151.688V152.04C256.522 152.68 256.746 153.176 257.194 153.528C257.642 153.88 258.261 154.056 259.05 154.056ZM259.05 148.584C259.775 148.584 260.325 148.429 260.698 148.12C261.082 147.811 261.274 147.368 261.274 146.792V146.568C261.274 145.992 261.077 145.549 260.682 145.24C260.298 144.931 259.754 144.776 259.05 144.776C258.346 144.776 257.797 144.931 257.402 145.24C257.018 145.549 256.826 145.992 256.826 146.568V146.792C256.826 147.368 257.013 147.811 257.386 148.12C257.77 148.429 258.325 148.584 259.05 148.584Z" fill="white"/>
<path d="M25.44 131V119.832H32.48V121H26.784V124.76H32V125.928H26.784V131H25.44ZM41.5138 131C41.0124 131 40.6551 130.872 40.4418 130.616C40.2284 130.36 40.0951 130.04 40.0418 129.656H39.9618C39.7804 130.136 39.4871 130.515 39.0818 130.792C38.6871 131.059 38.1538 131.192 37.4818 131.192C36.6178 131.192 35.9298 130.968 35.4178 130.52C34.9058 130.072 34.6497 129.459 34.6497 128.68C34.6497 127.912 34.9271 127.32 35.4818 126.904C36.0471 126.488 36.9538 126.28 38.2018 126.28H39.9618V125.464C39.9618 124.856 39.7911 124.403 39.4498 124.104C39.1084 123.795 38.6231 123.64 37.9938 123.64C37.4391 123.64 36.9858 123.752 36.6338 123.976C36.2818 124.189 35.9991 124.483 35.7858 124.856L34.9218 124.216C35.0284 124.003 35.1724 123.795 35.3538 123.592C35.5351 123.389 35.7591 123.213 36.0258 123.064C36.2924 122.904 36.5964 122.781 36.9378 122.696C37.2791 122.6 37.6578 122.552 38.0738 122.552C39.0444 122.552 39.8124 122.797 40.3778 123.288C40.9538 123.779 41.2418 124.461 41.2418 125.336V129.88H42.3938V131H41.5138ZM37.7057 130.12C38.0364 130.12 38.3351 130.083 38.6018 130.008C38.8791 129.923 39.1191 129.816 39.3218 129.688C39.5244 129.549 39.6791 129.389 39.7858 129.208C39.9031 129.016 39.9618 128.813 39.9618 128.6V127.24H38.2018C37.4338 127.24 36.8738 127.347 36.5218 127.56C36.1698 127.773 35.9938 128.083 35.9938 128.488V128.824C35.9938 129.251 36.1431 129.576 36.4418 129.8C36.7511 130.013 37.1724 130.12 37.7057 130.12ZM48.4995 120.92C48.1262 120.92 47.8648 120.845 47.7155 120.696C47.5662 120.536 47.4915 120.339 47.4915 120.104V119.848C47.4915 119.613 47.5662 119.421 47.7155 119.272C47.8648 119.112 48.1262 119.032 48.4995 119.032C48.8728 119.032 49.1342 119.112 49.2835 119.272C49.4328 119.421 49.5075 119.613 49.5075 119.848V120.104C49.5075 120.339 49.4328 120.536 49.2835 120.696C49.1342 120.845 48.8728 120.92 48.4995 120.92ZM44.8835 129.912H47.8595V123.832H44.8835V122.744H49.1395V129.912H51.9235V131H44.8835V129.912ZM54.1413 131V129.768L59.4693 123.832H54.3173V122.744H60.8612V123.976L55.5333 129.912H61.0213V131H54.1413ZM79.6648 131L78.7208 127.816H74.8008L73.8568 131H72.4648L75.8888 119.832H77.6648L81.0888 131H79.6648ZM76.8328 121.256H76.6888L75.1208 126.648H78.4008L76.8328 121.256ZM83.1305 131V122.744H84.4105V124.088H84.4745C84.5598 123.885 84.6665 123.693 84.7945 123.512C84.9225 123.32 85.0772 123.155 85.2585 123.016C85.4505 122.877 85.6745 122.765 85.9305 122.68C86.1865 122.595 86.4852 122.552 86.8265 122.552C87.6905 122.552 88.3838 122.829 88.9065 123.384C89.4292 123.928 89.6905 124.701 89.6905 125.704V131H88.4105V125.928C88.4105 125.171 88.2452 124.611 87.9145 124.248C87.5838 123.875 87.0985 123.688 86.4585 123.688C86.2025 123.688 85.9518 123.72 85.7065 123.784C85.4612 123.848 85.2425 123.944 85.0505 124.072C84.8585 124.2 84.7038 124.365 84.5865 124.568C84.4692 124.771 84.4105 125.005 84.4105 125.272V131H83.1305ZM91.6363 122.744H92.7723L93.7163 129.88H93.8603L95.2682 122.744H96.6763L98.0843 129.88H98.2283L99.1723 122.744H100.276L99.0123 131H97.3483L96.0363 124.088H95.9083L94.5643 131H92.9003L91.6363 122.744ZM108.67 131C108.169 131 107.811 130.872 107.598 130.616C107.385 130.36 107.251 130.04 107.198 129.656H107.118C106.937 130.136 106.643 130.515 106.238 130.792C105.843 131.059 105.31 131.192 104.638 131.192C103.774 131.192 103.086 130.968 102.574 130.52C102.062 130.072 101.806 129.459 101.806 128.68C101.806 127.912 102.083 127.32 102.638 126.904C103.203 126.488 104.11 126.28 105.358 126.28H107.118V125.464C107.118 124.856 106.947 124.403 106.606 124.104C106.265 123.795 105.779 123.64 105.15 123.64C104.595 123.64 104.142 123.752 103.79 123.976C103.438 124.189 103.155 124.483 102.942 124.856L102.078 124.216C102.185 124.003 102.329 123.795 102.51 123.592C102.691 123.389 102.915 123.213 103.182 123.064C103.449 122.904 103.753 122.781 104.094 122.696C104.435 122.6 104.814 122.552 105.23 122.552C106.201 122.552 106.969 122.797 107.534 123.288C108.11 123.779 108.398 124.461 108.398 125.336V129.88H109.55V131H108.67ZM104.862 130.12C105.193 130.12 105.491 130.083 105.758 130.008C106.035 129.923 106.275 129.816 106.478 129.688C106.681 129.549 106.835 129.389 106.942 129.208C107.059 129.016 107.118 128.813 107.118 128.6V127.24H105.358C104.59 127.24 104.03 127.347 103.678 127.56C103.326 127.773 103.15 128.083 103.15 128.488V128.824C103.15 129.251 103.299 129.576 103.598 129.8C103.907 130.013 104.329 130.12 104.862 130.12ZM111.576 129.912H113.992V123.832H111.576V122.744H115.272V124.824H115.352C115.522 124.173 115.842 123.667 116.312 123.304C116.792 122.931 117.4 122.744 118.136 122.744H119.288V124.024H117.736C117 124.024 116.402 124.237 115.944 124.664C115.496 125.091 115.272 125.651 115.272 126.344V129.912H118.472V131H111.576V129.912Z" fill="white"/>
<path opacity="0.9" d="M30.144 46.24C29.3653 46.24 28.656 46.112 28.016 45.856C27.376 45.6 26.8267 45.2267 26.368 44.736C25.9093 44.2453 25.552 43.6427 25.296 42.928C25.0507 42.2027 24.928 41.376 24.928 40.448C24.928 39.52 25.0667 38.6987 25.344 37.984C25.632 37.2587 26.016 36.6507 26.496 36.16C26.976 35.6693 27.536 35.296 28.176 35.04C28.816 34.784 29.4987 34.656 30.224 34.656C30.6827 34.656 31.0933 34.688 31.456 34.752C31.8293 34.816 32.1493 34.8907 32.416 34.976C32.6933 35.0613 32.9173 35.1467 33.088 35.232C33.2587 35.3173 33.376 35.3813 33.44 35.424L32.992 36.704C32.896 36.64 32.7573 36.5707 32.576 36.496C32.3947 36.4213 32.1867 36.3467 31.952 36.272C31.728 36.1973 31.4773 36.1387 31.2 36.096C30.9333 36.0427 30.6613 36.016 30.384 36.016C29.7973 36.016 29.2693 36.1173 28.8 36.32C28.3307 36.5227 27.9307 36.816 27.6 37.2C27.2693 37.584 27.0133 38.0533 26.832 38.608C26.6613 39.152 26.576 39.7653 26.576 40.448C26.576 41.1093 26.6507 41.712 26.8 42.256C26.96 42.8 27.1947 43.2693 27.504 43.664C27.8133 44.048 28.1973 44.3467 28.656 44.56C29.1253 44.7733 29.6693 44.88 30.288 44.88C31.0027 44.88 31.5947 44.8053 32.064 44.656C32.5333 44.5067 32.8853 44.3733 33.12 44.256L33.52 45.536C33.4453 45.5893 33.312 45.6587 33.12 45.744C32.928 45.8187 32.688 45.8933 32.4 45.968C32.112 46.0427 31.776 46.1067 31.392 46.16C31.008 46.2133 30.592 46.24 30.144 46.24ZM38.2739 37.504C38.4019 37.504 38.5459 37.5147 38.7059 37.536C38.8765 37.5467 39.0419 37.568 39.2019 37.6C39.3619 37.6213 39.5059 37.648 39.6339 37.68C39.7725 37.7013 39.8739 37.7227 39.9379 37.744L39.6819 39.04C39.5645 38.9973 39.3672 38.9493 39.0899 38.896C38.8232 38.832 38.4765 38.8 38.0499 38.8C37.7725 38.8 37.4952 38.832 37.2179 38.896C36.9512 38.9493 36.7752 38.9867 36.6899 39.008V46H35.2019V38.032C35.5539 37.904 35.9912 37.7867 36.5139 37.68C37.0365 37.5627 37.6232 37.504 38.2739 37.504ZM40.9098 41.856C40.9098 41.12 41.0164 40.48 41.2298 39.936C41.4431 39.3813 41.7258 38.9227 42.0778 38.56C42.4298 38.1973 42.8351 37.9253 43.2938 37.744C43.7524 37.5627 44.2218 37.472 44.7018 37.472C45.8218 37.472 46.6804 37.824 47.2778 38.528C47.8751 39.2213 48.1737 40.2827 48.1737 41.712C48.1737 41.776 48.1737 41.8613 48.1737 41.968C48.1737 42.064 48.1684 42.1547 48.1578 42.24H42.4618C42.5258 43.104 42.7764 43.76 43.2138 44.208C43.6511 44.656 44.3338 44.88 45.2618 44.88C45.7844 44.88 46.2218 44.8373 46.5738 44.752C46.9364 44.656 47.2084 44.5653 47.3898 44.48L47.5978 45.728C47.4164 45.824 47.0964 45.9253 46.6378 46.032C46.1898 46.1387 45.6778 46.192 45.1018 46.192C44.3764 46.192 43.7471 46.0853 43.2138 45.872C42.6911 45.648 42.2591 45.344 41.9178 44.96C41.5764 44.576 41.3204 44.1227 41.1497 43.6C40.9898 43.0667 40.9098 42.4853 40.9098 41.856ZM46.6218 41.04C46.6324 40.368 46.4618 39.8187 46.1098 39.392C45.7684 38.9547 45.2938 38.736 44.6858 38.736C44.3444 38.736 44.0404 38.8053 43.7738 38.944C43.5178 39.072 43.2991 39.2427 43.1178 39.456C42.9364 39.6693 42.7924 39.9147 42.6858 40.192C42.5898 40.4693 42.5258 40.752 42.4938 41.04H46.6218ZM55.6873 39.44C55.5059 39.2907 55.2446 39.1467 54.9033 39.008C54.5619 38.8693 54.1886 38.8 53.7833 38.8C53.3566 38.8 52.9886 38.88 52.6793 39.04C52.3806 39.1893 52.1353 39.4027 51.9433 39.68C51.7513 39.9467 51.6126 40.2667 51.5273 40.64C51.4419 41.0133 51.3993 41.4133 51.3993 41.84C51.3993 42.8107 51.6393 43.5627 52.1193 44.096C52.5993 44.6187 53.2393 44.88 54.0393 44.88C54.4446 44.88 54.7806 44.864 55.0473 44.832C55.3246 44.7893 55.5379 44.7467 55.6873 44.704V39.44ZM55.6873 33.84L57.1753 33.584V45.76C56.8339 45.856 56.3966 45.952 55.8633 46.048C55.3299 46.144 54.7166 46.192 54.0233 46.192C53.3833 46.192 52.8073 46.0907 52.2953 45.888C51.7833 45.6853 51.3459 45.3973 50.9833 45.024C50.6206 44.6507 50.3379 44.1973 50.1353 43.664C49.9433 43.12 49.8473 42.512 49.8473 41.84C49.8473 41.2 49.9273 40.6133 50.0872 40.08C50.2579 39.5467 50.5033 39.088 50.8233 38.704C51.1433 38.32 51.5326 38.0213 51.9913 37.808C52.4606 37.5947 52.9939 37.488 53.5913 37.488C54.0713 37.488 54.4926 37.552 54.8553 37.68C55.2286 37.808 55.5059 37.9307 55.6873 38.048V33.84ZM61.2211 46H59.7331V37.68H61.2211V46ZM60.4691 36.176C60.2025 36.176 59.9731 36.0907 59.7811 35.92C59.5998 35.7387 59.5091 35.4987 59.5091 35.2C59.5091 34.9013 59.5998 34.6667 59.7811 34.496C59.9731 34.3147 60.2025 34.224 60.4691 34.224C60.7358 34.224 60.9598 34.3147 61.1411 34.496C61.3331 34.6667 61.4291 34.9013 61.4291 35.2C61.4291 35.4987 61.3331 35.7387 61.1411 35.92C60.9598 36.0907 60.7358 36.176 60.4691 36.176ZM65.172 37.68H68.324V38.928H65.172V42.768C65.172 43.184 65.204 43.5307 65.268 43.808C65.332 44.0747 65.428 44.288 65.556 44.448C65.684 44.5973 65.844 44.704 66.036 44.768C66.228 44.832 66.452 44.864 66.708 44.864C67.156 44.864 67.5133 44.816 67.78 44.72C68.0573 44.6133 68.2493 44.5387 68.356 44.496L68.644 45.728C68.4947 45.8027 68.2333 45.8933 67.86 46C67.4867 46.1173 67.06 46.176 66.58 46.176C66.0147 46.176 65.5453 46.1067 65.172 45.968C64.8093 45.8187 64.516 45.6 64.292 45.312C64.068 45.024 63.908 44.672 63.812 44.256C63.7267 43.8293 63.684 43.3387 63.684 42.784V35.36L65.172 35.104V37.68Z" fill="white"/>
<path d="M281.224 28.524L274.94 43.516H270.84L267.748 31.55C267.56 30.814 267.398 30.544 266.826 30.234C265.894 29.728 264.354 29.254 263 28.958L263.092 28.524H269.692C270.123 28.5236 270.541 28.6774 270.868 28.9576C271.196 29.2378 271.413 29.626 271.48 30.052L273.114 38.728L277.15 28.524H281.224ZM297.29 38.622C297.306 34.664 291.818 34.446 291.856 32.678C291.868 32.14 292.38 31.568 293.5 31.422C294.813 31.2974 296.134 31.5296 297.326 32.094L298.006 28.914C296.846 28.4779 295.617 28.2524 294.378 28.248C290.544 28.248 287.846 30.288 287.822 33.206C287.798 35.364 289.748 36.566 291.218 37.286C292.73 38.02 293.238 38.492 293.23 39.148C293.22 40.156 292.026 40.598 290.91 40.616C288.96 40.646 287.83 40.09 286.926 39.67L286.224 42.954C287.13 43.37 288.802 43.734 290.536 43.75C294.61 43.75 297.276 41.738 297.29 38.622ZM307.412 43.516H311L307.87 28.524H304.558C304.204 28.5208 303.857 28.6239 303.563 28.82C303.268 29.0162 303.039 29.2963 302.906 29.624L297.088 43.516H301.16L301.97 41.276H306.946L307.412 43.516ZM303.086 38.204L305.126 32.574L306.302 38.204H303.086ZM286.766 28.524L283.56 43.516H279.68L282.89 28.524H286.766Z" fill="white"/>
<defs>
<filter id="filter0_b_1707_17621" x="-80" y="-80" width="495" height="345" filterUnits="userSpaceOnUse" color-interpolation-filters="sRGB">
<feFlood flood-opacity="0" result="BackgroundImageFix"/>
<feGaussianBlur in="BackgroundImage" stdDeviation="40"/>
<feComposite in2="SourceAlpha" operator="in" result="effect1_backgroundBlur_1707_17621"/>
<feBlend mode="normal" in="SourceGraphic" in2="effect1_backgroundBlur_1707_17621" result="shape"/>
</filter>
<linearGradient id="paint0_linear_1707_17621" x1="-48" y1="-20" x2="382" y2="205.5" gradientUnits="userSpaceOnUse">
<stop offset="0.119355" stop-color="#282828"/>
<stop offset="0.843296" stop-color="#0B0B0B"/>
</linearGradient>
</defs>
</svg>
