<svg width="42" height="186" viewBox="0 0 42 186" fill="none" xmlns="http://www.w3.org/2000/svg">
<path d="M40.7378 131.397C40.8599 131.646 41.0415 131.861 41.2665 132.022C41.4476 132.131 41.6214 132.698 41.4983 132.611L40.9551 132.182C40.8754 132.131 40.6726 132.451 40.5422 132.502L40.4843 132.589L40.3395 132.792L39.847 133.119C39.7745 133.177 40.0208 133.439 40.1367 133.519H40.3105C40.4902 133.518 40.6672 133.563 40.8247 133.65C41.013 133.744 41.549 133.773 41.5924 133.81C41.598 133.846 41.595 133.884 41.5837 133.919C41.5724 133.954 41.5531 133.987 41.5273 134.013C41.3948 134.116 41.2713 134.231 41.1579 134.355C41.071 134.442 40.8537 134.02 40.7813 133.97C40.7088 133.919 40.5785 133.919 40.6799 134.086C40.7813 134.253 40.4916 134.718 40.5205 134.813C40.5495 134.907 40.8682 134.813 40.9768 134.762H41.071H41.1724C41.2738 134.762 41.3245 134.994 41.2882 135.263V135.525C41.5128 135.525 41.6721 135.641 41.6359 135.707C41.6038 135.901 41.6161 136.099 41.6721 136.288V136.288L41.4621 136.411C41.4621 136.201 41.339 136.055 41.2593 136.084C41.1796 136.113 40.9913 136.31 41.1144 136.433C41.3115 136.64 41.4599 136.888 41.549 137.16C41.5617 137.402 41.5617 137.645 41.549 137.887C41.4998 137.824 41.4719 137.748 41.4693 137.669C41.4693 137.538 41.31 137.182 41.1724 137.175C41.0348 137.167 40.8682 136.651 40.8537 136.557C40.8235 136.406 40.7645 136.263 40.6799 136.135H40.6437C40.593 136.135 40.5205 136.237 40.535 136.266C40.7007 136.761 40.791 137.278 40.803 137.799V138.163C40.9914 138.296 41.1577 138.457 41.2955 138.642C41.3462 138.73 41.1072 138.926 41.0782 138.97C41.0145 139.084 40.9588 139.203 40.9116 139.326C40.8754 139.42 40.7306 139.653 40.6871 139.595C40.6437 139.536 40.5423 139.326 40.5785 139.246H40.6292L40.8899 139.115C40.8655 138.907 40.8194 138.702 40.7523 138.504C40.6635 138.417 40.5493 138.361 40.4264 138.345C40.3322 138.345 40.1656 138.737 40.1439 138.868H40.1077C39.579 138.984 39.8832 139.333 40.0643 139.398C40.3902 139.515 40.4191 139.9 40.593 140.125L40.7523 140.329C40.9551 140.467 41.0347 140.605 40.9261 140.641H40.832H40.6581C40.564 140.888 40.3974 141.251 40.296 141.455H40.1729C39.8615 141.542 39.8542 141.775 39.8542 142.08C39.8542 142.211 39.7239 142.363 39.7456 142.472C39.7673 142.581 39.9339 142.618 40.0208 142.712C40.0208 142.828 40.0932 142.828 40.1512 142.712C40.2091 142.596 40.4191 142.4 40.4916 142.494C40.564 142.589 40.296 143.272 40.2018 143.221L40.1149 143.177C39.8542 143.068 39.6949 143.221 39.8035 143.555C39.9121 143.89 39.7021 143.89 39.6876 144.049V144.253C39.7226 144.591 39.7831 144.927 39.8687 145.256L39.7818 145.43L39.6804 145.648C39.7071 145.872 39.7507 146.093 39.8108 146.31C39.8061 146.605 39.7623 146.898 39.6804 147.182C39.6804 147.312 39.6804 147.639 39.6804 147.799C39.6385 148.07 39.6634 148.347 39.7528 148.606C39.8353 148.754 39.8786 148.92 39.8786 149.089C39.8786 149.259 39.8353 149.425 39.7528 149.573L39.8397 149.936L39.9049 150.19C39.8668 150.496 39.8498 150.805 39.8542 151.113C39.9012 151.53 39.9762 151.942 40.0787 152.349C40.1584 152.647 39.9846 153.548 40.028 153.904L39.8687 154.26L39.7456 154.522L39.9846 155.532C39.9846 155.619 39.9846 156.004 39.9846 156.259C40.0272 156.535 40.0418 156.815 40.028 157.094C39.9773 157.094 39.8759 157.247 39.9339 157.327C39.9918 157.407 40.0715 157.69 39.9846 157.792L39.9194 157.894L39.8759 157.966C39.8597 158.062 39.8804 158.161 39.9339 158.242C39.9846 158.293 40.0715 158.49 40.0208 158.555C39.9701 158.62 40.0715 158.889 40.1005 158.955C40.1648 159.176 40.2108 159.402 40.2381 159.631L40.1512 159.899C40.1077 160.038 40.0498 160.176 39.9918 160.314C39.9339 160.452 39.6949 160.633 39.9266 160.873C39.9266 160.873 39.9266 161.033 39.8832 161.069C39.6442 161.331 39.5717 161.455 39.9411 161.731L40.1946 161.912C39.8977 162.036 39.7166 162.189 39.7818 162.247C39.847 162.305 39.9991 162.516 39.9266 162.567C39.7964 162.661 39.6938 162.789 39.6297 162.937C39.6297 163.053 39.8687 163.344 39.9339 163.41C39.9991 163.475 39.8832 163.722 39.9339 163.758C39.9846 163.795 40.0135 163.867 39.8687 163.846C39.7238 163.824 39.9701 164.274 39.9773 164.303C40.0642 164.601 39.6007 164.609 39.7528 164.979L39.8325 165.176C39.8325 165.452 39.8325 165.742 39.8325 165.83C39.8325 165.917 39.8759 166.2 39.8832 166.382C39.8904 166.564 39.7601 167.109 39.8832 167.232L39.9556 167.356L39.9918 167.428C39.9435 167.611 39.8678 167.785 39.7673 167.944C39.6732 168.09 39.9194 168.824 39.8325 168.896C39.7456 168.969 39.608 169.26 39.6949 169.347C39.7818 169.434 39.6007 169.768 39.6442 169.819L39.6876 169.863C39.7383 169.914 39.847 169.972 39.8397 170.016C39.8397 170.175 39.9484 170.459 39.6804 170.437H39.608C39.5211 170.248 39.4197 170.161 39.3762 170.248C39.3327 170.335 39.3038 170.619 39.3762 170.684C39.4486 170.75 39.6659 171.048 39.4631 171.048H39.3617C39.3183 171.048 39.2313 171.098 39.2313 171.113V171.273C39.2675 171.447 39.1662 171.556 39.0141 171.513L39.0792 171.796V171.847C39.1268 171.981 39.1268 172.127 39.0792 172.261C39.0295 172.617 39.0125 172.977 39.0285 173.337C39.0285 173.54 38.7895 174.172 38.8113 174.34C38.833 174.507 38.9054 174.943 38.7461 175.008C38.5868 175.074 38.4926 175.837 38.5071 175.902L38.0653 176.251C38.0001 176.883 37.9349 177.443 37.9204 177.501C37.9059 177.559 37.9204 177.842 37.9204 178.068C37.9204 178.293 37.9639 179.209 37.9929 179.608L37.58 179.688C37.5493 179.713 37.5239 179.744 37.5053 179.779C37.4866 179.814 37.4751 179.852 37.4714 179.892L37.58 180.124C37.5163 180.318 37.4208 180.5 37.2976 180.662C37.1922 180.846 37.1072 181.041 37.0441 181.244C36.9774 181.414 36.9335 181.592 36.9137 181.774C36.9203 181.826 36.9106 181.878 36.8859 181.924C36.8612 181.969 36.8228 182.006 36.7761 182.028L36.7109 182.108C36.6675 182.108 36.6675 182.297 36.7109 182.363C36.7977 182.595 36.8442 182.841 36.8485 183.089C36.8485 183.489 36.7326 183.293 36.5733 183.271C36.414 183.249 36.3922 183.511 36.356 183.191C36.3372 183.045 36.2956 182.903 36.2329 182.77C36.175 182.617 36.1098 182.639 36.0084 182.77L35.8997 182.893L35.4724 182.341C35.3276 182.167 34.7916 181.949 34.7481 182.145V182.29V182.457C34.8134 182.655 34.8134 182.869 34.7481 183.068C34.6757 183.228 34.0239 183.191 33.7921 183.126C33.4851 183.048 33.1728 182.992 32.8578 182.959C32.912 183.095 32.9962 183.216 33.1041 183.315L32.8651 183.504L32.7419 183.605C32.5792 183.542 32.4257 183.456 32.2857 183.351L32.2205 183.533L32.1843 183.627C32.2784 183.845 32.2567 183.969 32.1336 183.911H32.0249L31.7352 183.874C31.5081 184.009 31.2647 184.114 31.011 184.187C30.871 184.165 30.7382 184.11 30.6236 184.027C30.509 183.944 30.4159 183.834 30.3519 183.707C30.236 183.417 29.5769 183.424 29.6276 183.635L29.7073 183.758L29.8014 183.889C29.8811 184.042 29.7435 184.332 29.4972 184.543L29.2872 184.434C29.222 184.434 29.1351 184.434 29.0772 184.361C29.0192 184.289 28.7802 184.129 28.6281 184.012C28.476 183.896 28.8454 183.736 28.6281 183.584H28.563C28.563 183.402 28.4616 183.424 28.4036 183.627H28.3457C28.237 183.627 28.1139 183.54 28.0198 183.46C27.9256 183.38 27.9763 183.286 27.9329 183.213C27.8894 183.14 27.5345 182.98 27.491 183.155C27.479 183.234 27.4466 183.308 27.397 183.371C27.3475 183.433 27.2825 183.482 27.2086 183.511L27.1289 183.555C27.1289 183.853 26.9913 183.823 26.8899 183.489C26.7885 183.155 26.3539 182.232 26.5857 181.803L26.5205 181.287C26.5205 181.185 26.6871 180.96 26.8102 180.924L27.1144 180.815C27.0275 180.568 26.832 180.43 26.6871 180.517H26.564C26.1846 180.471 25.8093 180.395 25.4414 180.292H25.3617C25.2965 180.153 25.2169 179.986 25.1879 179.906C25.1589 179.826 24.9344 179.645 24.9344 179.514C24.9241 179.321 24.8975 179.129 24.8547 178.94C24.7896 178.849 24.7195 178.761 24.6447 178.678C24.5868 178.62 24.7895 178.351 24.8258 178.308C24.862 178.264 24.8982 178.039 24.7533 178.017C24.6085 177.995 24.3477 177.821 24.4419 177.661C24.4613 177.56 24.4591 177.455 24.4354 177.355C24.4117 177.255 24.367 177.161 24.3043 177.079C24.2868 177.09 24.2674 177.096 24.2472 177.099C24.2271 177.102 24.2066 177.1 24.1871 177.095C24.1675 177.089 24.1492 177.08 24.1332 177.067C24.1173 177.055 24.104 177.039 24.0942 177.021V176.963C24.1739 176.731 24.4781 176.469 23.9929 176.396C23.9948 176.265 24.0168 176.135 24.058 176.011C24.0388 175.766 23.9976 175.522 23.9349 175.284C23.9349 175.146 23.9349 174.739 23.9349 174.558C23.9349 174.376 23.6307 174.013 23.5728 174.151C23.5148 174.289 23.1962 174.609 22.9934 174.529C22.7906 174.449 22.2184 175.255 22.1967 175.175C22.175 175.095 22.0011 175.037 21.8635 175.241H21.7476H21.4869C21.4832 175.438 21.4283 175.631 21.3276 175.8L21.2406 175.866L21.0451 176.011C20.778 175.916 20.4866 175.916 20.2194 176.011L20.0022 176.062H19.937C19.8428 176.062 19.8645 175.829 19.9732 175.619C20.0192 175.317 19.9764 175.009 19.8501 174.732C19.7957 174.738 19.7439 174.758 19.7004 174.792C19.657 174.825 19.6235 174.87 19.6038 174.921V174.979L19.6762 175.124C19.7704 175.313 19.7704 175.437 19.6762 175.401H19.5893H19.5024C19.401 175.401 19.3286 175.401 19.3503 175.437C19.3728 175.564 19.3728 175.695 19.3503 175.822C19.3503 175.931 18.8796 175.72 18.6695 175.633L18.6116 175.335C18.6116 175.277 18.6116 175.168 18.5681 175.168L18.0756 175.219C17.8873 174.747 17.6773 174.492 17.6121 174.579C17.5469 174.667 17.6121 175.183 17.6121 175.263C17.6121 175.343 17.4238 175.909 17.2645 176.353L17.3369 176.818C17.3731 177.021 17.2717 177.05 17.1196 177.108L16.9023 177.188C16.9739 177.265 17.0259 177.358 17.0536 177.459C17.0814 177.561 17.0842 177.667 17.0617 177.77C16.9679 178.08 16.8417 178.38 16.685 178.664V178.664L16.504 178.504C16.358 178.58 16.2197 178.67 16.0912 178.773C16.0912 178.824 15.9898 178.976 16.0912 179.02V179.071L16.1491 179.151C16.1998 179.26 16.2794 179.47 16.3301 179.623C16.4025 179.858 16.4271 180.105 16.4026 180.35C16.3374 180.43 16.0622 180.59 15.9535 180.51C15.8449 180.43 16.026 179.856 16.026 179.623H15.9101C15.7797 179.623 15.49 179.71 15.49 179.776L15.4538 180.793C14.8816 180.662 14.3964 180.669 14.3747 180.793C14.3529 180.917 14.6209 181.185 14.5919 181.229L14.4543 181.389C14.3765 181.45 14.2913 181.502 14.2008 181.542C14.0849 181.6 13.6793 181.403 13.5852 181.331H13.4911H13.4041C13.3557 181.344 13.3134 181.374 13.2844 181.415C13.2553 181.456 13.2413 181.506 13.2448 181.556V181.643V181.716C13.2557 181.752 13.2537 181.79 13.2391 181.825C13.2246 181.859 13.1984 181.888 13.1651 181.905V181.905L12.9985 181.767C12.7523 181.534 12.6292 181.563 12.7161 181.832V181.978V182.268C12.7161 182.595 12.6147 182.879 12.5133 182.901H12.4409L11.7166 182.842C11.4951 183.105 11.2872 183.379 11.0937 183.664H11.0503L10.8909 183.744C10.6391 183.724 10.387 183.779 10.1667 183.903L10.116 184.071C9.97837 184.485 9.72487 184.478 9.44965 184.456H9.34102C9.14547 184.456 9.0658 184.674 9.15995 184.928L8.90645 184.761C8.67469 184.601 8.68195 184.885 8.58055 184.972C8.47915 185.059 8.88474 185.153 8.58055 185.233H8.53707L8.38498 184.943C8.19524 184.968 8.01803 185.052 7.87801 185.182L7.59554 185.11C7.52311 185.11 7.45068 185.037 7.3855 185.044H7.30584C7.22617 185.103 7.16823 185.088 7.18995 185.044C7.1972 184.852 7.14673 184.662 7.04509 184.499C6.93645 184.361 6.51639 184.565 6.48742 184.499C6.67573 184.238 6.71195 184.012 6.45121 183.773L6.21945 183.584C6.37878 183.373 6.44397 183.184 6.35706 183.162C6.12318 183.001 5.95384 182.761 5.87904 182.486L6.27738 182.261L6.48017 182.137C6.24841 181.818 6.05286 181.607 6.03113 181.672C6.0094 181.738 5.91525 181.898 5.85731 181.883C5.85731 181.723 5.85731 181.571 5.90077 181.418V181.345C5.91004 181.306 5.90579 181.264 5.88872 181.227C5.87165 181.19 5.84274 181.16 5.80661 181.142C5.74143 181.106 5.80662 180.837 5.72695 180.815C5.64728 180.793 5.53863 180.64 5.62554 180.59C5.65934 180.558 5.68548 180.519 5.70195 180.475C5.71843 180.432 5.7248 180.385 5.72061 180.339C5.71642 180.293 5.70178 180.248 5.67777 180.208C5.65377 180.169 5.62104 180.135 5.58209 180.11L5.47346 179.994L5.4155 179.935C5.40358 179.749 5.43584 179.562 5.50966 179.39C5.58209 179.223 5.41551 178.606 5.50966 178.482C5.60381 178.358 5.74867 178.002 5.50966 177.872L5.35757 177.755L5.21996 177.639C5.20483 177.437 5.23198 177.234 5.29964 177.043C5.35758 176.927 5.06785 176.694 5.0751 176.549C5.09319 176.349 5.13452 176.151 5.19823 175.96C5.24169 175.909 5.29963 175.67 5.19823 175.611C5.09684 175.553 4.7854 175.284 4.82885 175.146C4.85763 174.955 4.8377 174.76 4.77092 174.579C4.73471 174.47 4.85059 174.165 4.81437 174.114H4.77817H4.64056C4.70075 173.865 4.78316 173.622 4.8868 173.388L4.51017 173.351C4.51017 173.293 4.41602 173.01 4.35083 172.734C4.34643 172.248 4.36821 171.763 4.41604 171.28L4.45949 171.106C4.50295 170.924 4.70573 170.8 4.37981 170.793C4.3436 170.793 4.27841 170.582 4.28565 170.575C4.54639 170.357 4.33635 170.03 4.28565 169.965C4.06113 169.768 4.35809 169.492 4.15529 169.282L4.07563 169.194C4.17703 168.853 4.26394 168.533 4.27843 168.468C4.21977 168.284 4.12902 168.111 4.01043 167.959C3.86558 167.77 4.11909 167.123 4.09736 167.087H3.7135C3.78782 166.737 3.75757 166.373 3.62657 166.04L3.92352 165.815L4.07563 165.706C3.97424 165.474 3.84387 165.161 3.77868 165.023V164.87V164.819C3.75856 164.699 3.75856 164.576 3.77868 164.456C3.77868 164.303 3.74247 163.729 3.77868 163.599C3.8149 163.468 3.64831 163.032 3.68453 162.988C3.72074 162.944 3.82937 162.785 3.77143 162.748H3.72798L3.68453 162.705C3.63383 162.654 3.62658 162.603 3.68453 162.581C3.75608 162.549 3.82019 162.502 3.87284 162.443V162.443L3.80041 162.152C3.76973 161.906 3.71884 161.663 3.6483 161.426H3.61209L3.33687 161.128C3.59036 160.902 3.73522 160.677 3.65555 160.619C3.57588 160.561 3.42379 160.372 3.46001 160.314C3.49622 160.256 3.34411 160.132 3.03992 160.125L3.42378 159.703L3.48898 159.623C3.45417 159.417 3.4372 159.208 3.43828 158.998C3.43828 158.867 3.5107 158.57 3.43828 158.562C3.36585 158.555 3.32964 158.112 3.39482 158.046C3.46001 157.981 3.34411 157.857 3.06165 157.872L3.41655 157.407C3.45276 157.356 3.31515 157.101 3.24996 156.942V156.862C3.1532 156.625 3.07333 156.383 3.01097 156.135C2.92405 155.801 3.32239 154.943 3.32239 154.878C3.32239 154.812 3.2572 154.398 3.19926 154.151C3.1628 153.638 3.1628 153.123 3.19926 152.61L3.13408 152.523L2.96751 152.305C3.05577 152.115 3.11906 151.915 3.15581 151.709V151.353C3.06165 151.113 2.95301 150.823 2.92404 150.699C2.875 150.35 2.8484 149.998 2.84438 149.645V149.267C2.80816 149.173 2.84437 149.086 2.90231 149.064C2.96025 149.042 2.93852 148.7 2.90231 148.65C2.8661 148.599 2.72851 148.388 2.78645 148.308C2.84439 148.228 2.96025 147.959 2.90231 147.85C2.80205 147.59 2.7316 147.32 2.69229 147.044L2.7792 146.971C2.98199 146.804 2.58364 146.615 2.83713 146.44L2.94579 146.368C2.84039 146.17 2.79984 145.943 2.8299 145.721C2.8806 145.648 2.99648 145.408 2.94579 145.387C2.89509 145.365 2.77195 145.263 2.79367 145.212C2.8154 145.161 2.79367 144.994 2.69952 144.958C2.6343 144.602 2.59318 144.243 2.5764 143.882L2.68504 143.461C2.7485 143.264 2.77159 143.056 2.75292 142.85C2.73425 142.644 2.67421 142.444 2.5764 142.262L2.46052 142.065C2.48822 141.815 2.55416 141.569 2.65606 141.339C2.68665 141.274 2.69472 141.201 2.67896 141.131C2.6632 141.061 2.62453 140.999 2.56915 140.953C2.40982 140.844 2.67779 140.329 2.61261 140.292C2.54742 140.256 2.40983 140.11 2.51122 140.096C2.61262 140.081 2.72125 139.958 2.59088 139.878C2.46051 139.798 2.65607 139.188 2.59088 138.94L2.62711 138.642L2.68504 138.257C2.55675 137.97 2.49486 137.657 2.50397 137.342C2.56191 137.342 2.67055 137.182 2.61261 137.145C2.55467 137.109 2.38085 136.942 2.37361 136.847L2.59813 136.571C2.57069 136.201 2.57069 135.83 2.59813 135.459C2.59813 135.212 2.51122 134.457 2.64159 134.275L2.40259 134.064C2.35913 134.064 2.47501 133.766 2.46777 133.614V133.156C2.46777 132.654 2.35912 131.957 2.30118 131.6L2.55468 131.332L2.60538 131.281C2.57503 131.086 2.55809 130.889 2.55468 130.692C2.55468 130.547 2.63435 130.183 2.55468 130.169C2.47501 130.154 2.51846 129.667 2.68504 129.5L2.475 129.239L2.40982 129.151C2.45327 128.912 2.49674 128.635 2.51122 128.526C2.52571 128.417 2.56915 128.025 2.56915 127.88V127.749C2.5764 127.652 2.5764 127.555 2.56915 127.458C2.56915 127.356 2.475 127.269 2.46052 127.167V127.102C2.49273 126.988 2.49273 126.867 2.46052 126.753C2.46327 126.528 2.5312 126.308 2.65606 126.121H2.35188C2.39625 125.84 2.46408 125.562 2.55468 125.292V124.973V124.26C2.44604 123.97 2.32291 123.686 2.30118 123.621C2.27945 123.556 2.40259 123.323 2.58365 123.221L2.4895 122.909C2.4388 122.749 2.38809 122.458 2.45327 122.4C2.714 122.146 2.2867 122.066 2.39534 121.833L2.4895 121.63C2.49594 121.35 2.53236 121.073 2.59813 120.801L2.55468 120.75L2.30843 120.438C2.41938 120.213 2.46457 119.961 2.43879 119.711C2.38809 119.653 2.29394 119.399 2.37361 119.333C2.48039 119.247 2.58196 119.155 2.67779 119.057C2.67779 119.057 2.59089 118.846 2.51122 118.672C2.43627 118.289 2.41675 117.897 2.45327 117.509C2.48948 117.269 2.45327 116.637 2.49672 116.448C2.54018 116.259 2.31568 115.794 2.40259 115.634L1.90285 115.184C2.07344 114.749 2.19962 114.299 2.27945 113.839C2.27945 113.694 2.22876 113.418 2.37361 113.439C2.51846 113.461 2.24324 112.887 2.1853 112.713C2.14499 112.523 2.14499 112.328 2.1853 112.139C2.1853 112.03 2.1346 111.753 2.1853 111.724C2.23599 111.695 2.35911 111.572 2.29393 111.521C2.16694 111.331 2.0943 111.11 2.08391 110.881L2.1853 110.671L2.37361 110.046L2.2867 109.9C2.17082 109.719 2.11286 109.537 2.15632 109.501C2.2708 109.364 2.37035 109.215 2.45327 109.057L2.1853 108.73V108.687C2.19707 108.575 2.23425 108.468 2.29393 108.374C2.34077 108.029 2.30604 107.678 2.19255 107.349V107.349L2.07666 107.211C2.12698 107.12 2.20713 107.05 2.3035 107.011C2.39988 106.973 2.50655 106.969 2.60538 107.001L2.38084 106.572L2.20702 106.252C2.4243 106.252 2.475 106.252 2.32291 106.252C2.17081 106.252 2.40258 105.751 2.39534 105.721C2.3881 105.692 2.39533 105.489 2.32291 105.315C2.34451 104.974 2.40527 104.638 2.50397 104.312C2.54019 104.13 2.33739 103.701 2.38809 103.636C2.43879 103.57 2.58364 103.389 2.59088 103.374C2.56345 103.307 2.52419 103.246 2.475 103.192C2.39325 103.021 2.36305 102.829 2.38809 102.64V102.509C2.38809 102.429 2.27945 102.299 2.29393 102.277L2.46052 102.052C2.3734 101.755 2.3734 101.44 2.46052 101.143L2.53295 100.881V100.78C2.53221 100.653 2.49985 100.528 2.43879 100.416C2.38809 100.336 2.37361 100.024 2.30843 99.9222C2.30871 99.5736 2.34022 99.2258 2.40259 98.883V98.5922V98.3452C2.4659 98.1656 2.47843 97.9719 2.43879 97.7856C2.34556 97.6149 2.3076 97.4193 2.33016 97.226L2.39534 97.0734C2.46052 96.9063 2.67055 96.7754 2.32291 96.7609C2.31119 96.7009 2.31119 96.6392 2.32291 96.5792C2.37667 96.2038 2.39848 95.8246 2.38809 95.4455L2.35188 95.1693C2.41629 95.0003 2.47188 94.8281 2.51845 94.6534C2.50655 94.4866 2.4799 94.3212 2.43879 94.1592C2.4223 93.7038 2.45629 93.248 2.54018 92.8002C2.6126 92.5386 2.25048 91.8118 2.25773 91.6447C2.251 91.3046 2.19738 90.9671 2.09839 90.6418C2.01148 90.431 2.38808 89.9151 2.38084 89.9151C2.3736 89.9151 2.1853 89.5444 2.33016 89.4136V89.2755C2.33016 89.1302 2.19254 88.9194 2.22875 88.7886L2.30118 88.5197C2.18025 88.3937 2.09955 88.2342 2.06941 88.0619L2.11287 87.9965L2.1853 87.8729C2.29394 87.7567 2.33015 87.604 2.2722 87.5386C2.21426 87.4732 2.14908 87.2843 2.2722 87.2697C2.39533 87.2552 2.3736 86.841 2.2722 86.7756C2.17081 86.7102 2.10563 86.4049 2.1853 86.3395C2.26496 86.2741 2.48949 86.0561 2.48225 86.0198C2.12012 85.809 2.41707 85.4965 2.40259 85.2349V85.1114C2.34997 84.9571 2.32543 84.7946 2.33016 84.6317C2.34762 84.4819 2.37668 84.3337 2.41707 84.1884C2.47501 84.0431 2.31566 83.4617 2.38084 83.1637L2.32291 82.873C2.28669 82.7131 2.43154 82.4879 2.38809 82.3352L2.32291 82.0809C2.36636 81.8193 2.41706 81.4268 2.43879 81.1943V80.9835L2.38084 80.6129C2.38084 80.1986 2.3229 79.8062 2.31566 79.7335C2.35971 79.5843 2.44511 79.4508 2.5619 79.3484C2.67779 79.2466 2.49672 78.7815 2.5619 78.7088C2.62709 78.6362 2.72126 78.3818 2.67056 78.3309H2.63434C2.5257 78.3309 2.34463 78.4763 2.33739 78.4617L2.22875 78.2147C2.36221 78.1843 2.48041 78.107 2.5619 77.9967C2.56717 77.8858 2.5367 77.7762 2.475 77.6841C2.4243 77.6187 2.3374 77.3862 2.39534 77.3135C2.45328 77.2409 2.39533 77.0301 2.16357 77.0083L2.32291 76.6304C2.44603 76.6958 2.51121 76.5432 2.475 76.2888C2.43878 76.0345 2.72125 75.4531 2.67779 75.3949H2.63434H2.36636C2.39456 75.2109 2.45592 75.0336 2.54743 74.8717C2.59813 74.8208 2.69952 74.6246 2.61261 74.6101C2.58031 74.5981 2.5511 74.579 2.52707 74.5542C2.50304 74.5295 2.48481 74.4996 2.47371 74.4669C2.46262 74.4342 2.45893 74.3995 2.46291 74.3651C2.46689 74.3308 2.47844 74.2978 2.49672 74.2685C2.60536 74.1086 2.43879 73.4691 2.43154 73.2947C2.46352 73.0528 2.55567 72.8229 2.69952 72.6261C2.7647 72.6261 2.63434 72.1101 2.56915 72.0519C2.54017 72.0117 2.51991 71.9658 2.50965 71.9172C2.4994 71.8687 2.49938 71.8184 2.50961 71.7698C2.51984 71.7213 2.5401 71.6754 2.56907 71.6351C2.59803 71.5948 2.63505 71.5611 2.67779 71.536L2.59813 71.1944C2.51846 70.8383 2.33015 71.4197 2.30118 71.1581V70.8965C2.30118 70.5912 2.30118 69.8718 2.30118 69.2904V68.7671C2.30118 68.5055 2.30118 68.2439 2.30118 67.9823V67.7643C2.32501 67.4733 2.25383 67.1825 2.09839 66.9358L2.36636 66.7032L2.53295 66.5651C2.35299 66.5252 2.19052 66.4284 2.06941 66.289L2.1853 66.18L2.36636 66.0056C2.30842 65.7875 2.23599 65.4751 2.20702 65.2788C2.15991 64.9909 2.09214 64.7067 2.00423 64.4285C1.92456 64.2977 2.13461 63.8108 2.14909 63.6364C2.18456 63.3813 2.19667 63.1234 2.1853 62.8661C2.10683 62.6455 2.0439 62.4197 1.99698 62.1902L1.91007 62.0158L1.74351 61.6815C1.93906 61.5434 2.04045 61.4126 1.96078 61.3981C1.8821 61.3648 1.81704 61.3057 1.77624 61.2304C1.73545 61.1551 1.72134 61.0682 1.73626 60.9838C1.84516 60.6478 1.92275 60.3023 1.96803 59.9519C1.96803 59.7557 1.68556 59.058 1.67108 58.6874V58.3749C1.67108 58.0551 1.63486 57.7571 1.67108 57.4519V57.2412C1.58157 57.0325 1.56373 56.7998 1.62037 56.5798L1.56967 56.4853C1.41757 56.1801 1.49001 56.0857 1.74351 56.0566C1.69114 55.7465 1.57254 55.4515 1.39585 55.1918L1.6928 54.7339V54.6903C1.72902 54.6395 1.64935 54.5886 1.51899 54.5886C1.38862 54.5886 1.51898 53.9927 1.57692 53.8618C1.6128 53.6039 1.6128 53.3422 1.57692 53.0842C1.51408 52.8468 1.47765 52.603 1.46828 52.3575C1.46828 52.2412 1.34515 51.7834 1.37413 51.5217C1.4031 51.2601 1.37413 50.4971 1.37413 50.388C1.37413 50.279 1.59141 50.0465 1.54071 50.0247C1.49002 50.0029 1.38862 49.8575 1.54071 49.8067V49.7267L1.58417 49.5959C1.58417 49.4215 1.53347 49.0363 1.51899 48.7384L1.41033 48.564L1.27272 48.3314C1.34347 48.192 1.39233 48.0425 1.41758 47.8881C1.39761 47.771 1.35845 47.6581 1.30169 47.5538C1.30923 47.3081 1.34569 47.0642 1.41033 46.8271C1.40964 46.5048 1.36331 46.1843 1.27272 45.8751C1.27272 45.8097 1.57691 45.5117 1.48276 45.4971C1.39914 45.4566 1.32728 45.3953 1.27402 45.3189C1.22077 45.2426 1.18791 45.1538 1.17858 45.0611V44.8867V44.6542C1.28018 44.4133 1.3248 44.1521 1.30894 43.891C1.30894 43.7166 1.12063 43.1643 1.0989 43.0408C1.07717 42.9172 1.20754 42.5611 1.0989 42.5393C0.990262 42.5175 0.787474 42.4158 0.787474 42.3577C0.975782 42.1251 1.19306 41.9289 0.96854 41.5364L0.903359 41.4202C0.944386 41.2244 0.961417 41.0242 0.954063 40.8243C0.977365 40.6527 1.01122 40.4828 1.05545 40.3155V40.2574L1.00474 40.0176C0.949637 39.7402 0.932596 39.4566 0.954063 39.1746V38.9856V38.8403C0.80921 38.6441 0.758494 38.426 0.845405 38.3606C0.932317 38.2952 1.03373 38.0772 0.954063 37.9828C0.874394 37.8883 0.707804 37.4958 0.809201 37.3941C0.936953 37.1725 1.00905 36.9231 1.01924 36.6673L1.0627 36.4203L1.0989 36.1804C1.01979 35.973 0.971018 35.7551 0.954063 35.5336L0.881632 35.381L0.845405 35.3011C0.838893 35.0103 0.792588 34.7217 0.707794 34.4435L0.939563 34.0947L1.0627 33.913C1.0627 33.5569 0.932326 33.2517 0.809201 33.2299C0.686076 33.2081 0.809201 32.7793 0.809201 32.6703C0.859384 32.445 0.895662 32.2169 0.917836 31.9872C0.917836 31.8419 0.772989 31.493 0.787474 31.4567C0.801959 31.4203 0.896114 31.304 0.946813 31.2241C0.997511 31.1442 1.12064 30.5918 1.04097 30.679C0.961302 30.7663 0.86715 30.7445 0.97579 30.4974L0.729521 30.2212C0.620881 30.1049 0.729521 29.7198 0.729521 29.4945V29.3056C0.824293 29.202 0.902483 29.0843 0.96129 28.9567C0.96129 28.9131 0.961288 28.5497 1.00474 28.1936L0.73677 27.9465L0.693316 27.9029C0.816441 27.5614 0.845416 27.307 0.765747 27.3506C0.686078 27.3942 0.48329 27.4524 0.454319 27.4233C0.396562 27.2591 0.360033 27.0881 0.345662 26.9146C0.309449 26.682 0.505018 26.0425 0.454319 25.9335V25.8899L0.555705 25.6646C0.543789 25.4187 0.575677 25.1726 0.649862 24.9379C0.715046 24.8071 0.352912 24.3492 0.171846 24.0585L0.273254 23.7751L0.381889 23.4481C0.274686 23.321 0.182341 23.182 0.106665 23.0338C0.0868956 22.9498 0.055183 22.869 0.0125075 22.794C-0.0454335 22.7068 0.113898 22.3289 0.164597 22.2271C0.215295 22.1254 0.316692 21.733 0.164597 21.8129C0.0125013 21.8929 0.164605 21.4423 0.128392 21.3551C0.115575 21.1693 0.153111 20.9834 0.237027 20.8173C0.307811 20.6342 0.320473 20.4337 0.273254 20.2432C0.229798 20.2432 0.142884 19.858 0.157369 19.2403L0.294981 19.015L0.555705 18.5935C0.280485 18.5571 0.193581 18.3755 0.360162 18.1865L0.244277 17.7941C0.132686 17.3286 0.173317 16.8394 0.360162 16.3988C0.429321 16.2915 0.46907 16.1679 0.475427 16.0403C0.481785 15.9127 0.454518 15.7857 0.396366 15.672C0.32394 15.534 0.490534 15.1561 0.591931 14.9453C0.642629 14.829 0.751251 15.2433 0.845405 14.9453C0.845405 14.8726 0.729528 14.7273 0.73677 14.6255C0.744013 14.5238 0.801948 14.2113 0.888859 14.1604L1.17858 14.0151C1.26549 13.6808 1.3886 13.2302 1.45378 13.0194C1.54253 12.6795 1.59593 12.3312 1.61312 11.9802C1.61312 11.8494 1.70005 11.4497 1.67108 11.3552C1.64211 11.2608 1.61314 11.0791 1.74351 11.0936C1.87387 11.1082 1.68555 10.6358 1.66383 10.5558C1.64874 10.3284 1.64874 10.1001 1.66383 9.87268C1.66383 9.61106 1.9463 8.95702 1.92457 8.89161C1.90284 8.8262 1.88836 8.59366 1.92457 8.5864C2.0099 8.53502 2.0777 8.45888 2.11908 8.36807C2.16045 8.27726 2.17343 8.17603 2.15632 8.07767C2.20206 7.59599 2.30916 7.12217 2.475 6.66781L2.80092 6.57333C2.9675 6.52246 2.98923 6.05734 3.30067 5.97013L3.44551 5.92653L3.68453 5.26522C3.71323 5.21683 3.75799 5.18012 3.81095 5.16152C3.86392 5.14291 3.92172 5.1436 3.97423 5.16347V5.16347L4.08286 4.89458C4.26757 5.00369 4.47696 5.06371 4.69124 5.06899H4.85058L5.16926 5.01811C5.41286 4.98721 5.64466 4.89469 5.84284 4.74922V4.61842C5.84284 4.54574 5.84283 4.48033 5.90802 4.47306C5.9732 4.4658 6.04562 4.61115 6.10356 4.7565L6.17599 4.87276C6.17599 4.87276 6.27737 4.87276 6.32083 4.87276C6.36429 4.87276 6.32083 4.78555 6.32083 4.74195C6.32083 4.69835 6.27015 4.69836 6.27015 4.66929V4.51666C6.27015 4.34952 6.27015 4.21873 6.33533 4.226C6.50855 4.17265 6.65899 4.06264 6.76264 3.91351L6.90748 3.78993L7.00889 3.71C7.1972 3.71 7.28412 3.8699 7.1972 4.09519C7.11029 4.32048 7.1972 4.82191 7.58106 4.66929C7.96492 4.51668 9.07305 4.45128 9.12375 4.63297C9.17808 4.84554 9.25835 5.05055 9.36274 5.2434C9.43326 5.07966 9.52063 4.92381 9.62347 4.77832L9.7466 4.7129C10.116 4.53121 9.55105 4.41495 9.7466 4.226L9.85524 4.11697C9.93491 3.89168 10.1015 3.77541 10.2174 3.84808C10.3333 3.92076 10.9416 3.70273 11.2313 3.65913L11.4921 3.80448C11.5783 3.83048 11.6692 3.83762 11.7584 3.82542C11.8477 3.81321 11.9332 3.78194 12.0094 3.73373C12.0856 3.68552 12.1506 3.62148 12.2001 3.54593C12.2495 3.47038 12.2822 3.38507 12.296 3.29576V2.98327C12.3539 2.63444 12.4119 2.48181 12.4191 2.64896C12.4264 2.8161 12.5422 3.29576 12.6364 3.29576C12.7306 3.29576 13.042 3.12137 13.0058 2.91789V2.72166V2.61263C13.0055 2.46858 13.0201 2.32492 13.0492 2.18388C13.0492 2.0676 13.0492 1.45713 13.0492 1.21004C13.0492 0.962949 13.6576 0.606873 13.7083 0.64321V0.788521C13.7083 1.07921 13.8677 1.23184 14.0632 1.11556C14.2105 1.0578 14.3403 0.962634 14.4398 0.839398L14.5919 0.534182C14.8527 0.534182 15.0048 0.439714 14.9396 0.359774V0.287074C14.9226 0.199809 14.938 0.109329 14.983 0.0327349C15.0126 0.0114399 15.048 0 15.0844 0C15.1208 0 15.1563 0.0114399 15.1858 0.0327349C15.2725 0.098235 15.3394 0.186561 15.379 0.287916C15.4186 0.389272 15.4295 0.499668 15.4103 0.606838C15.4191 0.643363 15.4361 0.677409 15.4599 0.706373C15.4837 0.735337 15.5139 0.758486 15.548 0.774017C15.6059 0.774017 15.6928 0.708616 15.7218 0.64321L15.8087 0.432429C15.8883 0.18534 16.0477 0.192607 16.1708 0.432429V0.657715V0.839398C16.0404 1.10829 16.1056 1.31907 16.3229 1.31907H16.4678L16.6778 1.37717C16.7419 1.61559 16.7879 1.85853 16.8154 2.10391C16.8154 2.24925 17.2789 2.21292 17.5397 2.10391C17.8004 1.9949 18.5899 1.83503 18.6478 1.98765C18.7057 2.14026 19.1331 1.98767 19.2127 1.91499C19.2924 1.84232 19.5386 1.67514 19.6038 1.79142L19.6618 1.94405C19.7052 2.06759 19.4662 2.22748 19.6618 2.36556C19.6243 2.53967 19.571 2.70993 19.5024 2.87424C19.486 3.22177 19.5227 3.56981 19.6111 3.90623C19.5969 4.36151 19.5063 4.8111 19.3431 5.23612C19.2937 5.61435 19.2719 5.99569 19.2779 6.3771C19.2779 6.54425 19.0389 6.95848 19.1258 7.00935C19.2831 7.09002 19.4562 7.13473 19.6328 7.1402C19.7559 7.1402 19.8211 6.62422 19.8211 6.50068L19.8646 6.4498C19.9515 6.34079 20.1905 6.44978 20.1543 6.10821V6.05733C20.1927 6.0373 20.2257 6.00796 20.25 5.97195C20.2743 5.93594 20.2893 5.89441 20.2937 5.85112C20.298 5.80783 20.2915 5.76417 20.2747 5.72404C20.258 5.68391 20.2315 5.6486 20.1977 5.62131H20.5236H20.5888C20.6537 5.38463 20.6853 5.14003 20.683 4.89458L20.8858 4.85098H21.0524C21.2407 4.80011 21.3348 4.85099 21.2769 4.95273C21.2025 5.13188 21.1824 5.329 21.2189 5.51956C21.256 5.60432 21.2752 5.69588 21.2752 5.78845C21.2752 5.88102 21.256 5.97258 21.2189 6.05733C21.1175 6.22448 20.8133 6.6024 20.8785 6.66054C21.0958 6.57333 21.3203 6.34804 21.5159 6.38437L21.7404 6.42798C21.9939 6.6896 22.2619 6.83495 22.327 6.74774C22.3596 6.65481 22.3713 6.55582 22.3613 6.45783C22.3513 6.35983 22.3198 6.26528 22.2691 6.18091L22.146 6.08643L22.0663 6.02828C21.9504 6.02828 21.8708 5.97015 21.878 5.94108L22.1243 5.74484C22.014 5.57892 21.9537 5.38469 21.9504 5.18529C21.9866 5.11262 22.1967 5.13441 22.356 5.4033L22.6095 5.23612L22.7182 5.16347C22.7071 5.04862 22.7336 4.93328 22.7937 4.83492C22.8538 4.73656 22.9443 4.66056 23.0513 4.61842C23.2831 4.50941 23.5438 4.37131 23.5873 4.42219C23.6155 4.49869 23.6249 4.58089 23.6149 4.66184C23.6048 4.74279 23.5754 4.82012 23.5293 4.88731L23.4279 5.03266C23.4462 5.12539 23.4977 5.20816 23.5728 5.26522C23.6452 5.31609 23.8914 5.37423 23.9059 5.26522C23.9204 5.15621 24.0146 4.74198 24.087 4.86553C24.1594 4.98907 24.4346 5.2725 24.5216 5.22889C24.6085 5.18529 24.833 4.98181 24.7678 4.9164V4.86553C24.7243 4.67658 24.9127 4.40042 25.2531 4.18967L25.3979 4.10242C25.5645 4.22597 25.7239 4.34952 25.7601 4.38586C25.7793 4.39882 25.8009 4.40762 25.8237 4.41172C25.8465 4.41581 25.8698 4.4151 25.8923 4.40963C25.9148 4.40416 25.9359 4.39406 25.9543 4.37996C25.9727 4.36585 25.9879 4.34805 25.9991 4.32771V4.226C25.9991 3.95711 26.0787 3.86989 26.2815 3.98616C26.3395 3.98616 26.4336 4.0879 26.4481 4.06609L26.5567 3.94984C26.6208 3.97959 26.673 4.0303 26.7045 4.09368C26.7361 4.15707 26.7453 4.22935 26.7306 4.29865L26.564 4.36408H26.4988C26.4626 4.74925 26.564 4.74198 26.7088 4.36408L27.0058 4.51666L27.1651 4.59664C27.3462 4.66204 27.549 4.65478 27.6069 4.59664C27.6649 4.5385 27.9763 4.38587 28.0922 4.48761C28.2081 4.58935 28.3602 5.07627 28.4688 5.08354L28.5412 5.03266L28.6861 4.93818C28.8671 4.86551 28.9613 4.86551 28.8961 4.93818C28.8104 5.09041 28.7749 5.26593 28.7947 5.43963C28.8274 5.62227 28.8274 5.80931 28.7947 5.99195C28.7947 6.1155 28.8309 6.44979 28.8744 6.39165C28.9178 6.33351 29.0989 6.10821 29.1568 6.01373C29.2148 5.91926 29.0627 5.61405 29.0627 5.57771C29.0627 5.54137 29.1351 5.47598 29.2655 5.49778C29.3959 5.51958 29.2655 5.01811 29.2655 4.92363C29.2655 4.82916 29.3524 4.67655 29.4248 4.8437C29.4973 5.01085 29.6204 5.46144 29.5552 5.49051C29.4749 5.56271 29.4213 5.66004 29.4031 5.76667C29.4031 5.81754 29.7797 6.04283 29.7725 6.13003C29.7883 6.22821 29.8275 6.32108 29.8868 6.40079C29.946 6.4805 30.0236 6.5447 30.1129 6.58788L30.3229 6.50068C30.4191 6.46881 30.503 6.40753 30.5627 6.32542C30.6225 6.24331 30.6551 6.14449 30.6561 6.04283V5.803C30.7068 5.73759 30.8516 5.75212 30.9675 5.83932C31.1176 6.01448 31.2533 6.20165 31.3731 6.39892C31.4238 6.44979 31.6338 6.39893 31.6411 6.4934C31.6483 6.58788 31.7787 6.60968 31.7932 6.63148C31.8076 6.65328 31.909 6.63145 31.9887 6.50791C32.1689 6.33488 32.4002 6.22522 32.6478 6.19542L32.7637 6.31172C33.0896 6.61695 33.2562 6.54425 33.4879 6.10821L33.64 5.77394C33.8382 5.97396 34.0513 6.15856 34.2774 6.32622C34.415 6.40616 34.5816 6.67507 34.6033 6.43525H34.9003H35.0234L35.6245 6.35532L35.7259 6.22451L35.849 6.07188L36.4284 6.28989L36.6023 6.13731L37.0368 5.76667C37.2179 6.07916 37.3772 6.35533 37.3917 6.36259C37.705 6.2084 37.9931 6.00747 38.2463 5.76667L38.6664 5.48323L38.7895 5.4033C38.7533 5.55592 38.7171 5.70854 38.7171 5.73034C38.7245 5.82108 38.7543 5.90851 38.804 5.98468C38.8884 6.14287 38.9587 6.30824 39.0141 6.47885C39.0344 6.68493 39.0807 6.88761 39.1517 7.08205L39.2169 7.24919L39.2965 7.44542C39.2907 7.87041 39.3468 8.29396 39.4631 8.70265C39.579 9.16776 39.6731 10.6721 39.7383 10.9265V11.1663V11.4134C39.8174 11.894 39.861 12.3798 39.8687 12.8668V13.5936C39.975 13.8788 40.1321 14.1423 40.3322 14.3712L40.057 14.6037C40.0208 14.6037 40.1439 15.0398 40.1367 15.0398C39.8397 15.1633 40.3467 15.4031 40.0715 15.5776L39.9773 15.6357C40.1209 15.8505 40.1967 16.1038 40.1946 16.3624V16.3624L40.3757 16.6022C40.3432 16.8651 40.3628 17.1319 40.4336 17.3871C40.4369 17.6304 40.42 17.8735 40.3829 18.1139C40.4406 18.455 40.4745 18.7999 40.4843 19.1458C40.4843 19.4656 40.6944 20.3086 40.6292 20.3885C40.564 20.4685 40.7595 20.9917 40.832 21.2315L40.7957 21.4205L40.7161 21.7402C40.7668 22.0745 40.8247 22.5033 40.8392 22.6995C40.8537 22.8958 40.9841 23.3391 40.9334 23.3754C40.8827 23.4117 40.9334 23.746 41.0927 23.9277C41.252 24.1094 41.0348 24.8579 41.0927 25.0251V25.0832L40.8682 25.4248C41.0118 25.7151 41.0744 26.0391 41.0492 26.3623L41.1072 26.6021L41.1724 26.8419C41.1005 27.1442 41.0665 27.4542 41.071 27.7648V28.0192V28.2591C41.1418 28.5397 41.1189 28.8358 41.0058 29.1021L41.1289 29.3855L41.2231 29.5817C41.2181 30.0075 41.2496 30.433 41.3172 30.8535L41.2158 31.2532L41.1506 31.5221C41.2448 31.8782 41.339 32.2488 41.3534 32.3796C41.3679 32.5104 41.2593 32.8665 41.31 32.9756C41.3375 33.217 41.3375 33.4608 41.31 33.7023C41.31 33.9494 41.4259 34.5962 41.3752 34.618C41.3245 34.6398 41.3245 34.7124 41.4693 34.7197C41.6142 34.7269 41.3462 35.2284 41.3389 35.3374C41.3317 35.4464 41.3389 35.897 41.3824 36.115C41.4259 36.3331 41.3317 36.9072 41.3824 37.0671C41.3815 37.3761 41.3573 37.6846 41.31 37.99C41.31 38.1935 41.31 38.9129 41.31 39.131C41.3529 39.4361 41.4357 39.7342 41.5562 40.0176C41.5562 40.1121 41.4838 40.4173 41.4983 40.5335C41.5128 40.6498 41.4983 40.9987 41.4621 41.2603C41.4259 41.5219 41.3824 42.2632 41.3824 42.3504C41.3824 42.4376 41.4621 42.6702 41.3824 42.7428C41.3027 42.8155 41.3824 43.4332 41.3824 43.6367C41.4025 44.0436 41.4731 44.4464 41.5924 44.8358L41.3896 45.1774L41.2376 45.4245C41.2334 45.8908 41.2796 46.3562 41.3752 46.8125L41.2448 47.1686V47.2268C41.3228 47.309 41.372 47.4144 41.3851 47.5271C41.3982 47.6398 41.3743 47.7538 41.3172 47.8518C41.2957 48.3647 41.3444 48.8783 41.4621 49.3779C41.4361 49.9042 41.3634 50.4271 41.2448 50.9404C41.2644 51.2205 41.2982 51.4995 41.3462 51.7761L41.2376 52.1322L41.1724 52.343C41.2698 52.3806 41.349 52.4545 41.3935 52.5493C41.4381 52.644 41.4444 52.7523 41.4114 52.8517C41.3317 53.0116 41.2158 53.4549 41.2955 53.5784C41.3752 53.702 41.5707 54.0798 41.4838 54.1598C41.3355 54.4222 41.2722 54.7245 41.3027 55.0246L41.3969 55.2572C41.4509 55.3706 41.4789 55.4948 41.4789 55.6205C41.4789 55.7463 41.4509 55.8704 41.3969 55.9839L41.281 56.2165C41.3769 56.373 41.4177 56.5572 41.3969 56.7397C41.3607 56.8487 41.2738 57.2339 41.252 57.3356C41.2612 57.5442 41.3103 57.749 41.3969 57.9388C41.4766 58.0624 41.3969 58.4839 41.3969 58.5929C41.4198 58.8346 41.4198 59.0779 41.3969 59.3196C41.3969 59.4577 41.3245 59.8356 41.2448 59.8501C41.1651 59.8647 40.9334 59.9373 40.9623 59.9882C40.9913 60.0391 41.0058 60.1917 40.9623 60.228C40.9171 60.2784 40.8859 60.3399 40.8719 60.4062C40.8579 60.4726 40.8616 60.5415 40.8827 60.6059L41.013 60.6713C41.1217 60.7222 41.1651 60.9693 41.2448 61.1219C41.491 61.5434 41.491 61.558 41.2013 62.0013L41.1579 62.0739C41.1365 62.1309 41.1287 62.1921 41.135 62.2526C41.1413 62.3132 41.1615 62.3714 41.1941 62.4227C41.2665 62.5172 41.3969 62.9097 41.2955 63.0405C41.1941 63.1713 40.9985 63.5565 41.0854 63.5783C41.1709 63.6183 41.2464 63.6769 41.3065 63.7498C41.3666 63.8227 41.4098 63.9081 41.4331 63.9998C41.4002 64.613 41.4172 65.2279 41.4838 65.8384L41.2882 66.4706L41.2231 66.6669C41.4041 67.0012 41.4693 67.3282 41.3824 67.3936C41.2955 67.459 41.4621 67.757 41.491 67.7933C41.5152 68.0034 41.5152 68.2155 41.491 68.4256C41.491 68.7235 41.3462 69.5811 41.3245 69.6973C41.3451 69.9333 41.4115 70.1629 41.52 70.3732C41.5997 70.5113 41.5707 71.1944 41.759 71.4851L41.4983 71.8194L41.3462 72.0156C41.4167 72.2378 41.4167 72.4765 41.3462 72.6988C41.281 72.8368 41.5707 73.2511 41.5852 73.4255C41.5997 73.5999 41.4766 74.0214 41.4041 74.036C41.3677 74.054 41.3357 74.08 41.3108 74.1123C41.2859 74.1445 41.2685 74.1819 41.2602 74.2219C41.2518 74.2618 41.2526 74.303 41.2625 74.3426C41.2723 74.3822 41.2911 74.419 41.3172 74.4502L41.4404 74.5883L41.5852 74.7481C41.5277 74.9037 41.5127 75.0718 41.5417 75.235C41.5852 75.3223 41.6431 75.5984 41.5417 75.613C41.4403 75.6275 41.4331 75.7074 41.6576 75.7583L41.5345 76.0854L41.4693 76.2525C41.5122 76.4005 41.5461 76.5509 41.5707 76.7031C41.5707 76.8048 41.4476 77.19 41.4693 77.3135C41.4936 77.5587 41.4664 77.8062 41.3896 78.0403C41.3422 78.3166 41.3131 78.5958 41.3027 78.876L41.2665 79.0577C41.2665 79.1376 41.3607 79.312 41.3462 79.3266C41.1724 79.4864 41.3462 79.5591 41.3462 79.6899C41.3462 79.8207 41.252 79.8862 41.2086 79.9952C41.1651 80.1042 41.281 80.1187 41.3245 80.1187H41.3607C41.4041 80.046 41.4548 80.0097 41.4838 80.0388C41.5096 80.1241 41.5096 80.2151 41.4838 80.3004C41.4594 80.5273 41.4791 80.7568 41.5417 80.9762V81.1434C41.5417 81.405 41.3824 81.7611 41.4693 81.8701L41.6431 82.1318C41.5498 82.3203 41.4932 82.525 41.4766 82.7349C41.5182 82.9425 41.5889 83.1431 41.6866 83.3309C41.759 83.4326 41.4476 83.5271 41.4331 83.5416C41.4141 83.7179 41.4141 83.8958 41.4331 84.0721C41.4331 84.3483 41.5417 85.2276 41.5562 85.4311C41.5707 85.6346 41.1217 86.1579 41.1869 86.2596C41.252 86.3614 41.5707 86.5067 41.6069 86.8119C41.518 87.4765 41.3751 88.1328 41.1796 88.7741L41.52 89.2029L41.6069 89.3191C41.5754 89.5521 41.5196 89.781 41.4404 90.0023C41.4041 90.0822 41.4404 90.402 41.4404 90.5328C41.4404 90.6636 41.5345 91.0997 41.549 91.1651C41.5487 91.4079 41.5342 91.6506 41.5055 91.8918C41.5021 92.4565 41.5457 93.0204 41.6359 93.5778L41.4041 93.9557C41.4041 93.9557 41.5852 94.8568 41.5924 94.8714C41.5997 94.8859 41.6938 94.9586 41.7011 95.0095L41.7445 95.242C41.6504 95.4528 41.5055 95.6054 41.4186 95.5836C41.3317 95.5618 41.0999 95.6344 41.0999 95.7216C41.0999 95.8089 41.1651 95.9906 41.2448 95.9252H41.3245H41.4331C41.5924 95.9252 41.6793 96.1141 41.6359 96.3394V96.6955C41.6911 96.9345 41.7274 97.1775 41.7445 97.4222C41.7445 97.6548 41.6359 98.3452 41.6938 98.4833C41.7518 98.6213 41.6287 99.0792 41.6938 99.21C41.759 99.3408 41.6431 99.7768 41.6938 99.8495V99.9222C41.7441 100.257 41.7218 100.599 41.6286 100.925L41.5417 101.238C41.5417 101.674 41.5417 102.146 41.5417 102.277C41.5417 102.408 41.2593 102.553 41.4476 102.727L41.549 102.815L41.6069 102.865C41.7186 103.017 41.7908 103.195 41.817 103.381C41.7905 103.743 41.7174 104.1 41.5997 104.442C41.6084 104.588 41.6084 104.733 41.5997 104.879C41.575 105.047 41.575 105.219 41.5997 105.387C41.6173 105.629 41.6173 105.872 41.5997 106.114C41.5614 106.392 41.4934 106.665 41.3969 106.928C41.3607 106.928 41.4403 107.059 41.6576 107.182L41.4693 107.56C41.4186 107.662 41.6649 107.945 41.6938 108.163V108.352C41.6578 108.486 41.6562 108.627 41.6892 108.762C41.7221 108.896 41.7885 109.021 41.8821 109.123L41.6576 109.442L41.5345 109.617C41.4259 109.915 41.3969 110.198 41.4693 110.249C41.5417 110.3 41.73 110.562 41.6359 110.641C41.5736 110.711 41.5356 110.799 41.5278 110.892C41.5199 110.985 41.5426 111.078 41.5924 111.157L41.6576 111.296C41.6903 111.397 41.6903 111.506 41.6576 111.608H41.3027C41.2013 111.986 41.2086 112.335 41.3027 112.335C41.3889 112.371 41.462 112.433 41.5124 112.512C41.5629 112.592 41.5882 112.684 41.5852 112.778L41.6214 112.938C41.6214 113.061 41.7518 113.149 41.5707 113.163C41.5338 113.161 41.4972 113.17 41.4653 113.189C41.4335 113.208 41.4079 113.236 41.3917 113.269C41.3754 113.302 41.3694 113.34 41.3742 113.376C41.3789 113.413 41.3944 113.448 41.4186 113.476C41.6649 113.825 41.4983 114.202 41.549 114.595V114.849C41.5852 115.133 41.6214 115.409 41.6214 115.452V115.503L41.578 115.809C41.5128 116.223 41.4186 116.455 41.3752 116.317C41.3317 116.179 41.0927 116.463 41.0203 116.484C40.9478 116.506 40.8682 116.673 41.0203 116.688C41.1724 116.702 41.5779 116.841 41.52 116.979L41.4476 117.066L41.3679 117.175C41.287 117.237 41.2309 117.326 41.2097 117.426C41.1884 117.526 41.2035 117.63 41.252 117.72C41.3534 117.916 41.4259 118.447 41.3027 118.519C41.1796 118.592 40.9623 118.904 41.1217 119.05H41.6359C41.6509 119.334 41.6364 119.619 41.5924 119.9C41.5688 120.234 41.5688 120.569 41.5924 120.903C41.5924 120.954 41.4983 121.201 41.4621 121.324C41.4286 121.651 41.4556 121.981 41.5417 122.298L41.4838 122.48L41.4259 122.654C41.2013 122.763 41.071 122.981 41.1434 123.134C41.2158 123.287 41.4331 123.628 41.491 123.614H41.5997C41.6242 123.632 41.6438 123.656 41.6564 123.684C41.6691 123.712 41.6745 123.743 41.6721 123.774C41.6024 123.902 41.5146 124.019 41.4114 124.122C41.3027 124.231 41.5273 124.682 41.5345 124.755C41.5265 124.929 41.5022 125.101 41.4621 125.271H41.4041L41.2086 125.329C41.2201 125.108 41.2201 124.888 41.2086 124.667C41.2086 124.493 40.803 124.413 40.774 124.58C40.745 124.747 40.774 125.242 40.8972 125.242L41.013 125.314C41.1579 125.401 41.3752 125.547 41.3824 125.685C41.3824 126.056 41.0855 125.765 40.9696 125.917C40.9696 125.917 41.0782 126.106 41.2448 126.259C41.4114 126.412 41.4114 127.196 41.4259 127.444C41.4403 127.691 41.0275 127.96 41.1796 128.032C41.3317 128.105 41.4476 127.574 41.4766 127.545C41.5055 127.516 41.6359 127.494 41.7228 127.545V127.633V127.741C41.6132 127.963 41.477 128.171 41.3172 128.359L40.7016 128.41C40.6219 128.41 40.4698 128.679 40.4771 128.686C40.9044 129.319 40.3902 129.108 40.1946 129.18C40.1512 129.246 40.2308 129.311 40.3757 129.326C40.5205 129.34 40.7885 129.493 40.6726 129.631C40.5568 129.769 41.0782 129.994 41.1796 130.038C41.281 130.082 41.5924 130.307 41.6069 130.394C41.6214 130.481 41.6069 130.968 41.6069 131.339V131.666V131.739C41.6069 131.811 41.6069 131.877 41.5562 131.884C41.5055 131.891 41.3679 131.884 41.2593 131.884C41.1506 131.884 40.9261 131.622 40.9478 131.477V131.361V131.252C41.047 131.103 41.1205 130.938 41.1651 130.765V130.598C41.1651 130.525 41.1651 130.38 41.0927 130.358L40.9116 130.271C40.8164 130.238 40.7311 130.182 40.6638 130.107C40.5966 130.031 40.5498 129.94 40.5278 129.842L40.4698 129.791C40.3322 129.682 40.1149 129.682 40.0063 129.544L39.8108 129.282C39.6624 129.401 39.5434 129.553 39.4631 129.726C39.4631 129.82 39.5645 130.111 39.7818 130.111C39.9991 130.111 40.5423 130.307 40.5495 130.518L40.6944 130.648C40.8754 130.808 40.8971 130.961 40.7306 131.201L40.7378 131.397ZM39.1155 129.035C39.0667 129.145 39.0444 129.264 39.0503 129.384C39.0503 129.384 39.1951 129.384 39.2748 129.246C39.378 128.942 39.378 128.612 39.2748 128.308L39.4921 128.032C39.4821 127.98 39.4569 127.932 39.4197 127.894L39.3255 127.8C39.1806 127.676 39.0358 127.72 39.0068 127.894C38.9778 128.069 39.1734 128.861 39.1155 129.035ZM39.4269 134.311C39.5066 134.558 39.6731 134.682 39.789 134.587C39.9049 134.493 39.6659 134.035 39.6007 133.926C39.5295 133.658 39.4953 133.382 39.4993 133.105C39.4993 132.916 39.4052 132.378 39.282 132.465C39.1589 132.552 39.282 133.061 39.282 133.192C39.2968 133.436 39.2773 133.68 39.2241 133.919L39.3182 134.137L39.4269 134.311ZM19.2055 7.53262C19.2707 7.32914 19.2055 7.24191 19.0679 7.32912L18.1481 7.91777L18.4885 8.21575L18.7492 8.43377C18.6623 8.67359 18.6261 8.74627 18.6695 8.57912C18.713 8.41197 19.1403 7.72884 19.2055 7.53262ZM39.4848 91.9354C39.4741 92.1196 39.5142 92.3031 39.6007 92.4659V92.4659L39.7383 92.4005C39.7885 92.4348 39.8495 92.4493 39.9096 92.4413C39.9698 92.4332 40.0248 92.4032 40.0643 92.3569C40.115 92.2624 39.9411 91.9063 39.8977 91.7319C39.8542 91.5575 39.5066 91.6883 39.5138 91.9354H39.4848ZM19.0027 4.42946C18.7999 4.56027 18.7999 4.63297 19.0027 4.58936C19.2055 4.54576 19.4228 3.94257 19.4372 3.76815H19.2344H19.1403C18.952 3.62281 18.9375 3.76812 19.1403 4.14602L19.0968 4.2696L19.0027 4.42946ZM39.2313 135.925C39.3255 136.339 39.4052 136.55 39.4124 136.397C39.4866 136.142 39.5938 135.897 39.7311 135.67C39.7963 135.554 39.8977 135.183 39.7818 135.183C39.6659 135.183 39.4341 135.35 39.5283 135.561V135.605L39.2313 135.925ZM39.9556 118.069C39.9556 118.156 40.1657 118.112 40.4481 117.967L40.535 117.778L40.6509 117.538C40.7896 117.353 40.8564 117.123 40.8392 116.891L40.774 116.855L40.6871 116.811C40.5567 116.811 40.4698 117.059 40.4988 117.32L40.4336 117.466L40.354 117.625C40.1947 117.743 40.0635 117.894 39.9701 118.069H39.9556ZM39.9556 59.1234C39.9049 58.9998 39.7963 58.9708 39.7166 59.0652C39.6369 59.1597 39.4197 59.4213 39.3545 59.4722C39.2893 59.5231 39.3545 59.8138 39.5355 59.7556C39.7166 59.6975 39.9918 59.2469 39.9411 59.1234H39.9556ZM40.354 123.919C40.1512 123.955 40.1294 123.977 40.3033 123.97C40.4771 123.962 40.9623 124.021 40.9478 123.861C40.9333 123.701 40.5423 123.883 40.3395 123.919H40.354ZM26.9913 179.608C27.0275 179.456 26.9406 179.369 26.7958 179.42V179.492C26.7958 179.776 26.6581 179.848 26.4409 179.819H26.3467C26.2019 179.863 26.2381 179.994 26.4264 180.103C26.6147 180.212 26.9479 179.761 26.9768 179.608H26.9913ZM30.475 182.123C30.4026 182.123 30.3157 182.232 30.2867 182.355L30.2432 182.457C30.207 182.552 30.0622 182.595 30.1925 182.741C30.3229 182.886 30.3591 182.951 30.4823 182.741C30.6054 182.53 30.9168 182.879 30.8878 182.501C30.8878 182.363 30.6488 182.246 30.5185 182.13L30.475 182.123Z" fill="#D26D54"/>
</svg>
