<svg width="267" height="265" viewBox="0 0 267 265" fill="none" xmlns="http://www.w3.org/2000/svg">
<path d="M22.3574 41.6984C22.0323 40.2822 22.0088 38.8134 22.2887 37.3875C22.5685 35.9617 23.1453 34.6107 23.9816 33.4226C24.8179 32.2345 25.8949 31.2358 27.1425 30.4916C28.3901 29.7473 29.7804 29.2741 31.2229 29.1029L92.9769 21.7728C115.639 18.7798 137.997 15.3849 160.05 11.5882C179.443 8.26267 199.543 4.47062 220.35 0.212061C222.775 -0.286417 225.299 0.100551 227.464 1.30285C229.629 2.50514 231.292 4.44327 232.152 6.7662L238.316 23.5187C238.857 24.9926 239.056 26.5703 238.898 28.1324C238.739 29.6945 238.227 31.2001 237.401 32.5351C236.575 33.8702 235.456 34.9997 234.129 35.8383C232.802 36.6768 231.302 37.2024 229.742 37.3752C219.158 38.5668 208.607 39.6569 198.089 40.6453C186.203 41.7538 174.161 42.8069 161.962 43.8046C159.424 44.0048 157.049 45.1351 155.293 46.9788C153.537 48.8224 152.523 51.2497 152.445 53.7951L151.559 83.4203C151.515 84.8413 151.766 86.256 152.294 87.5759C152.822 88.8958 153.617 90.0925 154.628 91.0913C155.639 92.0901 156.846 92.8694 158.172 93.3806C159.498 93.8917 160.916 94.1238 162.336 94.0621L256.006 89.9052C257.401 89.8415 258.794 90.0613 260.102 90.5513C261.41 91.0414 262.604 91.7914 263.614 92.7563C264.624 93.7211 265.428 94.8806 265.977 96.1648C266.527 97.449 266.81 98.8314 266.811 100.228V115.692C266.807 118.435 265.715 121.064 263.775 123.002C261.835 124.94 259.205 126.029 256.463 126.029H160.396C157.701 126.028 155.111 127.081 153.181 128.963C151.25 130.845 150.131 133.407 150.063 136.103L146.96 252.317C146.898 254.775 145.962 257.131 144.319 258.96C142.676 260.789 140.434 261.971 137.997 262.294L124.588 264.067C123.129 264.263 121.646 264.144 120.237 263.719C118.827 263.294 117.526 262.572 116.418 261.603C115.311 260.633 114.424 259.437 113.816 258.096C113.209 256.755 112.895 255.3 112.897 253.827V155.682L113.007 136.435C113.015 135.073 112.753 133.723 112.237 132.462C111.721 131.202 110.961 130.056 110 129.09C109.04 128.124 107.898 127.358 106.641 126.835C105.384 126.312 104.035 126.043 102.674 126.043H11.414C9.09971 126.041 6.85269 125.264 5.03211 123.835C3.21154 122.405 1.92252 120.407 1.37105 118.159L0.290563 113.711C-0.0685728 112.227 -0.095136 110.682 0.2128 109.187C0.520735 107.691 1.15553 106.283 2.0717 105.062C2.98786 103.841 4.16271 102.837 5.51203 102.124C6.86136 101.41 8.35176 101.004 9.87641 100.935L103.006 96.778C105.668 96.6602 108.182 95.5198 110.024 93.5942C111.867 91.6687 112.896 89.1064 112.897 86.441V57.869C112.898 56.4685 112.615 55.0823 112.065 53.7945C111.515 52.5067 110.709 51.3441 109.696 50.3775C108.683 49.4108 107.484 48.6601 106.172 48.1709C104.86 47.6818 103.463 47.4644 102.064 47.532C91.5455 48.0585 80.833 48.465 69.9265 48.7514L32.7051 49.7352C30.3182 49.7954 27.9839 49.0282 26.0979 47.5634C24.212 46.0986 22.8904 44.0265 22.3574 41.6984Z" fill="#3D4349"/>
<path d="M245.27 190.337C236.626 180.167 226.946 170.926 216.388 162.763C214.872 161.521 213.122 160.597 211.242 160.044C209.362 159.492 207.391 159.323 205.444 159.548C201.87 160.227 198.187 160.076 194.681 159.104C192.884 158.562 190.981 158.471 189.14 158.841C180.496 160.559 180.829 172.476 184.126 178.531C191.149 191.487 198.31 204.221 209.766 213.851C218.521 221.209 232.027 228.373 243.926 225.616C262.087 221.417 253.041 199.732 245.27 190.337Z" fill="#CEB48D"/>
<path d="M112.897 155.682C97.9638 169.668 82.5414 182.748 66.6296 194.924C52.9989 205.381 38.223 215.921 22.302 226.544C21.2833 227.221 20.138 227.685 18.9352 227.907C17.7324 228.13 16.4971 228.106 15.3037 227.838C14.1103 227.57 12.9834 227.063 11.9912 226.348C10.9989 225.632 10.1617 224.723 9.5301 223.676L7.64617 220.53C6.5291 218.678 6.11592 216.485 6.4822 214.353C6.84847 212.221 7.96972 210.292 9.64092 208.919C24.1028 197.085 37.5581 184.984 50.0068 172.615C64.7117 157.938 78.5111 142.381 91.3285 126.029L102.258 113.489C103.04 112.59 103.992 111.854 105.059 111.325C106.127 110.796 107.289 110.484 108.478 110.407C109.666 110.33 110.859 110.489 111.986 110.875C113.113 111.261 114.152 111.867 115.044 112.658L130.087 125.932C131.029 126.764 131.787 127.784 132.313 128.925C132.839 130.067 133.121 131.305 133.142 132.562C133.163 133.819 132.922 135.066 132.434 136.224C131.946 137.383 131.222 138.427 130.309 139.29L112.897 155.682Z" fill="#3D4349"/>
</svg>
