<svg width="18" height="18" viewBox="0 0 18 18" fill="none" xmlns="http://www.w3.org/2000/svg">
<path d="M15.6663 5.66671C15.6663 3.82576 14.174 2.33337 12.333 2.33337H8.99967H5.66634C3.82539 2.33337 2.33301 3.82576 2.33301 5.66671V12.3334C2.33301 14.1743 3.82539 15.6667 5.66634 15.6667H12.333C14.174 15.6667 15.6663 14.1743 15.6663 12.3334V5.66671Z" stroke="#7E8082" stroke-width="1.5" stroke-linecap="round" stroke-linejoin="round"/>
<path d="M11.396 10.1993C11.6543 9.70143 11.7491 9.13479 11.6668 8.57996C11.5829 8.01401 11.3192 7.49006 10.9146 7.08549C10.51 6.68093 9.98608 6.41721 9.42013 6.33329C8.8653 6.25102 8.29865 6.34578 7.80079 6.60412C7.30292 6.86245 6.89919 7.27119 6.64701 7.77221C6.39484 8.27322 6.30707 8.84099 6.39618 9.39477C6.48528 9.94854 6.74674 10.4601 7.14336 10.8567C7.53997 11.2533 8.05155 11.5148 8.60532 11.6039C9.1591 11.693 9.72687 11.6052 10.2279 11.3531C10.7289 11.1009 11.1376 10.6972 11.396 10.1993Z" stroke="#7E8082" stroke-width="1.5" stroke-linecap="round" stroke-linejoin="round"/>
<path d="M12.667 5.33337H12.6737" stroke="#7E8082" stroke-width="1.5" stroke-linecap="round" stroke-linejoin="round"/>
</svg>
