<svg width="18" height="18" viewBox="0 0 18 18" fill="none" xmlns="http://www.w3.org/2000/svg">
<g clip-path="url(#clip0_874_8954)">
<path d="M9 16.3333C9 16.3333 15 12.3333 15 7.66663C15 6.07533 14.3679 4.5492 13.2426 3.42399C12.1174 2.29877 10.5913 1.66663 9 1.66663C7.4087 1.66663 5.88258 2.29877 4.75736 3.42399C3.63214 4.5492 3 6.07533 3 7.66663C3 12.3333 9 16.3333 9 16.3333Z" stroke="#7E8082" strokeWidth="1.5" strokeLinecap="round" strokeLinejoin="round"/>
<path d="M9 9.66663C10.1046 9.66663 11 8.7712 11 7.66663C11 6.56206 10.1046 5.66663 9 5.66663C7.89543 5.66663 7 6.56206 7 7.66663C7 8.7712 7.89543 9.66663 9 9.66663Z" stroke="#7E8082" strokeWidth="1.5" strokeLinecap="round" strokeLinejoin="round"/>
</g>
<defs>
<clipPath id="clip0_874_8954">
<rect width="16" height="16" fill="white" transform="translate(1 1)"/>
</clipPath>
</defs>
</svg>
