<svg width="22" height="22" viewBox="0 0 22 22" fill="none" xmlns="http://www.w3.org/2000/svg">
<g clip-path="url(#clip0_3101_10364)">
<path d="M11 20.7777C11 20.7777 19 15.4444 19 9.22217C19 7.10044 18.1571 5.0656 16.6569 3.56531C15.1566 2.06502 13.1217 1.22217 11 1.22217C8.87827 1.22217 6.84344 2.06502 5.34315 3.56531C3.84285 5.0656 3 7.10044 3 9.22217C3 15.4444 11 20.7777 11 20.7777Z" stroke="#4D4E4F" stroke-width="1.5" stroke-linecap="round" stroke-linejoin="round"/>
<path d="M10.9997 11.8888C12.4724 11.8888 13.6663 10.6948 13.6663 9.22209C13.6663 7.74933 12.4724 6.55542 10.9997 6.55542C9.52691 6.55542 8.33301 7.74933 8.33301 9.22209C8.33301 10.6948 9.52691 11.8888 10.9997 11.8888Z" stroke="#4D4E4F" stroke-width="1.5" stroke-linecap="round" stroke-linejoin="round"/>
</g>
<defs>
<clipPath id="clip0_3101_10364">
<rect width="21.3333" height="21.3333" fill="white" transform="translate(0.333008 0.333252)"/>
</clipPath>
</defs>
</svg>
