<svg width="40" height="40" viewBox="0 0 40 40" fill="none" xmlns="http://www.w3.org/2000/svg">
<path d="M20 38.3334C20 38.3334 35 28.3334 35 16.6667C35 12.6885 33.4196 8.87319 30.6066 6.06015C27.7936 3.2471 23.9782 1.66675 20 1.66675C16.0218 1.66675 12.2064 3.2471 9.3934 6.06015C6.58035 8.87319 5 12.6885 5 16.6667C5 28.3334 20 38.3334 20 38.3334Z" fill="#997469"/>
<path d="M20 21.6667C22.7614 21.6667 25 19.4282 25 16.6667C25 13.9053 22.7614 11.6667 20 11.6667C17.2386 11.6667 15 13.9053 15 16.6667C15 19.4282 17.2386 21.6667 20 21.6667Z" fill="white" stroke="white" stroke-width="2" stroke-linecap="round" stroke-linejoin="round"/>
</svg>
