<svg width="18" height="18" viewBox="0 0 18 18" fill="none" xmlns="http://www.w3.org/2000/svg">
<path d="M15.6665 14.28V12.28C15.6746 11.953 15.5622 11.6345 15.3508 11.385C15.1394 11.1355 14.8436 10.9723 14.5198 10.9266C13.8797 10.8422 13.2513 10.6857 12.6465 10.46C12.4078 10.3703 12.1485 10.3509 11.8992 10.404C11.6499 10.4572 11.4211 10.5807 11.2398 10.76L10.3931 11.6066C8.7241 10.6576 7.34216 9.27568 6.39313 7.60665L7.23979 6.75998C7.41903 6.57872 7.54256 6.34988 7.59573 6.10057C7.6489 5.85126 7.62949 5.59193 7.53979 5.35332C7.31409 4.74847 7.15754 4.12003 7.07313 3.47998C7.02784 3.15961 6.86761 2.86664 6.6223 2.65567C6.37699 2.4447 6.06333 2.33013 5.73979 2.33332H3.73979C3.55469 2.33349 3.37164 2.37221 3.20232 2.447C3.033 2.52179 2.8811 2.63102 2.7563 2.76773C2.63151 2.90444 2.53654 3.06564 2.47746 3.24107C2.41838 3.41649 2.39647 3.60229 2.41313 3.78665C2.63195 5.84731 3.33311 7.82745 4.45979 9.56665C5.48335 11.1774 6.84901 12.5431 8.45979 13.5666C10.1911 14.6894 12.1617 15.3904 14.2131 15.6133C14.398 15.63 14.5844 15.6079 14.7603 15.5485C14.9362 15.489 15.0977 15.3934 15.2345 15.2679C15.3713 15.1424 15.4804 14.9897 15.5548 14.8195C15.6292 14.6494 15.6672 14.4656 15.6665 14.28Z" stroke="#7E8082" stroke-width="1.5" stroke-linecap="round" stroke-linejoin="round"/>
</svg>
