<svg width="20" height="42" viewBox="0 0 20 42" fill="none" xmlns="http://www.w3.org/2000/svg">
<path d="M12.8405 11.1292C11.5961 9.09117 11.5763 7.04132 13.5856 3.74183C15.5949 0.44234 12.358 0.0636 12.358 0.0636L6.57799 0.119437C6.57799 0.119437 3.34901 0.56064 5.42168 3.82069C7.49436 7.08075 7.51416 9.13061 6.30937 11.1923C5.10458 13.254 -0.519103 22.7385 0.380463 31.34C1.28003 39.9416 4.96569 41.136 4.96569 41.136C4.96569 41.136 6.6064 41.9401 9.87199 41.9086C13.1376 41.8771 14.7624 41.0413 14.7624 41.0413C14.7624 41.0413 18.4243 39.7759 19.1576 31.1586C19.8908 22.5414 14.0849 13.1672 12.8405 11.1292Z" fill="#997469"/>
</svg>
