<svg width="18" height="18" viewBox="0 0 18 18" fill="none" xmlns="http://www.w3.org/2000/svg">
<g clip-path="url(#clip0_874_8961)">
<path d="M9.00016 13.6667C11.5775 13.6667 13.6668 11.5774 13.6668 9.00004C13.6668 6.42271 11.5775 4.33337 9.00016 4.33337C6.42283 4.33337 4.3335 6.42271 4.3335 9.00004C4.3335 11.5774 6.42283 13.6667 9.00016 13.6667Z" stroke="#7E8082" strokeWidth="1.5" strokeLinecap="round" strokeLinejoin="round"/>
<path d="M9 7V9L10 10" stroke="#7E8082" strokeWidth="1.5" strokeLinecap="round" strokeLinejoin="round"/>
<path d="M12.0068 12.5666L11.7735 15.12C11.7434 15.4524 11.5898 15.7615 11.3429 15.9861C11.0961 16.2108 10.7739 16.3347 10.4401 16.3333H7.55348C7.2197 16.3347 6.89755 16.2108 6.65069 15.9861C6.40382 15.7615 6.25019 15.4524 6.22015 15.12L5.98682 12.5666M5.99348 5.4333L6.22682 2.87997C6.25675 2.54869 6.40944 2.24056 6.65489 2.01607C6.90035 1.79158 7.22085 1.66695 7.55348 1.66664H10.4535C10.7873 1.66528 11.1094 1.78917 11.3563 2.01382C11.6031 2.23847 11.7568 2.54754 11.7868 2.87997L12.0202 5.4333" stroke="#7E8082" strokeWidth="1.5" strokeLinecap="round" strokeLinejoin="round"/>
</g>
<defs>
<clipPath id="clip0_874_8961">
<rect width="16" height="16" fill="white" transform="translate(1 1)"/>
</clipPath>
</defs>
</svg>
