<svg width="651" height="206" viewBox="0 0 651 206" fill="none" xmlns="http://www.w3.org/2000/svg">
<g filter="url(#filter0_d_1568_14746)">
<path d="M22 128H191V188H22V128Z" fill="#F7F7F6"/>
<path d="M87.9485 167.936V168.128C87.9485 168.32 88.0125 168.472 88.1405 168.584C88.2845 168.712 88.4285 168.808 88.5725 168.872C88.7325 168.936 88.8285 168.968 88.8605 168.968C89.0685 168.968 89.1725 168.848 89.1725 168.608L89.1005 159.704C89.4685 159.656 89.8445 159.6 90.2285 159.536C90.6285 159.472 91.0205 159.408 91.4045 159.344L91.8125 160.496C91.8925 160.72 91.9965 160.832 92.1245 160.832C92.2685 160.832 92.4205 160.792 92.5805 160.712C92.7565 160.616 92.8445 160.496 92.8445 160.352C92.8445 160.304 92.7725 160.08 92.6285 159.68C92.5005 159.264 92.3165 158.776 92.0765 158.216C91.8365 157.64 91.5645 157.096 91.2605 156.584C91.1485 156.392 91.0125 156.296 90.8525 156.296C90.7885 156.296 90.6765 156.336 90.5165 156.416C90.3565 156.496 90.2765 156.6 90.2765 156.728C90.2765 156.76 90.2845 156.8 90.3005 156.848C90.3325 156.896 90.3565 156.952 90.3725 157.016C90.5005 157.224 90.6125 157.456 90.7085 157.712C90.8205 157.952 90.9325 158.2 91.0445 158.456C90.3565 158.568 89.6365 158.672 88.8845 158.768C88.1485 158.848 87.4445 158.928 86.7725 159.008C87.6045 158.112 88.4045 157.152 89.1725 156.128C89.9565 155.088 90.7645 153.92 91.5965 152.624C91.6125 152.592 91.6205 152.552 91.6205 152.504C91.6205 152.408 91.5645 152.288 91.4525 152.144C91.3405 151.984 91.2045 151.84 91.0445 151.712C90.9005 151.584 90.7565 151.52 90.6125 151.52C90.4845 151.52 90.4205 151.6 90.4205 151.76C90.4205 151.92 90.3805 152.104 90.3005 152.312C90.2365 152.52 90.0685 152.84 89.7965 153.272C89.5405 153.704 89.1165 154.344 88.5245 155.192C88.2205 154.92 87.9245 154.672 87.6365 154.448C87.3645 154.224 87.0925 154.016 86.8205 153.824C87.8125 152.448 88.5325 151.352 88.9805 150.536C89.4285 149.704 89.6525 149.232 89.6525 149.12C89.6525 148.944 89.5645 148.792 89.3885 148.664C89.2285 148.536 89.0605 148.432 88.8845 148.352C88.7245 148.272 88.6285 148.232 88.5965 148.232C88.4685 148.232 88.4045 148.304 88.4045 148.448C88.4045 148.608 88.3965 148.752 88.3805 148.88C88.3645 148.992 88.3165 149.128 88.2365 149.288C87.9165 150.024 87.5965 150.688 87.2765 151.28C86.9725 151.856 86.5725 152.52 86.0765 153.272C85.8205 153.096 85.5965 152.952 85.4045 152.84C85.2285 152.728 85.1005 152.672 85.0205 152.672C84.8925 152.672 84.7805 152.752 84.6845 152.912C84.5885 153.072 84.5405 153.2 84.5405 153.296C84.5405 153.408 84.5725 153.496 84.6365 153.56C84.7165 153.608 84.8045 153.672 84.9005 153.752C85.3645 154.056 85.8365 154.4 86.3165 154.784C86.8125 155.152 87.3325 155.592 87.8765 156.104C87.5245 156.6 87.1485 157.104 86.7485 157.616C86.3645 158.112 85.9645 158.608 85.5485 159.104C85.3885 159.12 85.2365 159.136 85.0925 159.152C84.9485 159.152 84.8045 159.152 84.6605 159.152C84.5485 159.152 84.4365 159.152 84.3245 159.152C84.2125 159.152 84.1085 159.144 84.0125 159.128H83.9165C83.8365 159.128 83.7965 159.152 83.7965 159.2C83.7965 159.232 83.8045 159.264 83.8205 159.296C83.9965 159.776 84.1885 160.064 84.3965 160.16C84.6205 160.24 84.7645 160.28 84.8285 160.28C84.8285 160.28 84.8525 160.28 84.9005 160.28C84.9485 160.264 85.0605 160.248 85.2365 160.232C85.4285 160.2 85.7405 160.16 86.1725 160.112C86.6205 160.048 87.2445 159.968 88.0445 159.872V166.616C88.0445 166.92 88.0365 167.16 88.0205 167.336C88.0045 167.528 87.9805 167.728 87.9485 167.936ZM97.7405 162.056L97.7165 165.92C97.7165 166.592 97.8605 167.12 98.1485 167.504C98.4365 167.904 98.9245 168.136 99.6125 168.2C100.092 168.248 100.596 168.272 101.124 168.272C102.052 168.272 102.788 168.232 103.332 168.152C103.892 168.088 104.308 167.976 104.58 167.816C104.868 167.672 105.06 167.472 105.156 167.216C105.268 166.976 105.348 166.688 105.396 166.352C105.46 165.936 105.508 165.504 105.54 165.056C105.572 164.608 105.588 164.168 105.588 163.736C105.588 162.936 105.484 162.536 105.276 162.536C105.068 162.536 104.916 162.912 104.82 163.664C104.708 164.624 104.588 165.336 104.46 165.8C104.348 166.248 104.204 166.544 104.028 166.688C103.868 166.832 103.644 166.936 103.356 167C103.1 167.048 102.804 167.088 102.468 167.12C102.132 167.152 101.788 167.168 101.436 167.168C100.668 167.168 100.1 167.12 99.7325 167.024C99.3645 166.944 99.1245 166.808 99.0125 166.616C98.9005 166.408 98.8445 166.136 98.8445 165.8L98.8685 161.912L101.724 161.552C101.708 161.616 101.692 161.688 101.676 161.768C101.676 161.848 101.66 161.928 101.628 162.008C101.628 162.024 101.62 162.048 101.604 162.08C101.604 162.096 101.604 162.112 101.604 162.128C101.604 162.288 101.676 162.432 101.82 162.56C101.964 162.672 102.108 162.76 102.252 162.824C102.412 162.872 102.492 162.896 102.492 162.896C102.652 162.896 102.748 162.768 102.78 162.512L103.092 156.44V156.344C103.092 156.136 103.012 155.984 102.852 155.888C102.692 155.792 102.524 155.728 102.348 155.696C102.188 155.664 102.076 155.648 102.012 155.648C101.868 155.648 101.796 155.688 101.796 155.768C101.796 155.8 101.804 155.832 101.82 155.864C101.932 156.136 101.988 156.392 101.988 156.632C101.988 156.68 101.988 156.736 101.988 156.8C101.988 156.848 101.98 156.896 101.964 156.944L101.82 160.568L98.8685 160.904L98.9165 154.16C99.6845 153.968 100.452 153.76 101.22 153.536C101.988 153.312 102.74 153.072 103.476 152.816C103.604 152.768 103.668 152.68 103.668 152.552C103.668 152.472 103.612 152.344 103.5 152.168C103.404 151.992 103.284 151.832 103.14 151.688C102.996 151.528 102.852 151.448 102.708 151.448C102.628 151.448 102.564 151.488 102.516 151.568C102.404 151.728 102.228 151.888 101.988 152.048C101.748 152.192 101.388 152.352 100.908 152.528C100.428 152.704 99.7725 152.92 98.9405 153.176L98.9645 149.048C98.9645 148.92 98.8845 148.808 98.7245 148.712C98.5645 148.6 98.3885 148.512 98.1965 148.448C98.0045 148.384 97.8605 148.352 97.7645 148.352C97.6205 148.352 97.5485 148.4 97.5485 148.496C97.5485 148.56 97.5565 148.616 97.5725 148.664C97.7325 148.984 97.8125 149.344 97.8125 149.744L97.7885 153.512C97.0685 153.72 96.3245 153.928 95.5565 154.136C94.8045 154.328 94.0765 154.512 93.3725 154.688C92.9405 154.8 92.7245 154.936 92.7245 155.096C92.7245 155.224 92.8605 155.288 93.1325 155.288C93.2925 155.288 93.6285 155.248 94.1405 155.168C94.6525 155.088 95.2365 154.984 95.8925 154.856C96.5645 154.712 97.1965 154.568 97.7885 154.424L97.7405 161.048L94.9565 161.36L95.1245 156.968V156.92C95.1245 156.776 95.0605 156.664 94.9325 156.584C94.8045 156.504 94.6525 156.432 94.4765 156.368C94.3645 156.336 94.2605 156.312 94.1645 156.296C94.0845 156.264 94.0045 156.248 93.9245 156.248C93.7965 156.248 93.7325 156.288 93.7325 156.368C93.7325 156.432 93.7485 156.488 93.7805 156.536C93.8765 156.696 93.9325 156.848 93.9485 156.992C93.9805 157.136 93.9965 157.296 93.9965 157.472L93.9485 160.76C93.9485 160.952 93.9325 161.12 93.9005 161.264C93.8845 161.408 93.8605 161.552 93.8285 161.696C93.8125 161.76 93.8045 161.84 93.8045 161.936C93.8045 162.112 93.9165 162.288 94.1405 162.464C94.2205 162.544 94.3165 162.584 94.4285 162.584C94.5245 162.584 94.6365 162.56 94.7645 162.512C94.8925 162.448 95.0605 162.408 95.2685 162.392L97.7405 162.056ZM85.5245 161.672V161.912C85.5245 162.2 85.4525 162.568 85.3085 163.016C85.1805 163.464 85.0205 163.936 84.8285 164.432C84.6365 164.912 84.4525 165.352 84.2765 165.752C84.1005 166.136 83.9725 166.408 83.8925 166.568C83.8125 166.712 83.7565 166.84 83.7245 166.952C83.6925 167.064 83.6765 167.16 83.6765 167.24C83.6765 167.384 83.7245 167.456 83.8205 167.456C83.9965 167.456 84.2045 167.296 84.4445 166.976C84.7005 166.64 84.9645 166.224 85.2365 165.728C85.5085 165.232 85.7645 164.736 86.0045 164.24C86.2445 163.728 86.4365 163.296 86.5805 162.944C86.7405 162.576 86.8205 162.36 86.8205 162.296C86.8205 162.184 86.7725 162.088 86.6765 162.008C86.5805 161.912 86.4765 161.816 86.3645 161.72C86.2525 161.64 86.1405 161.576 86.0285 161.528C85.9165 161.48 85.8125 161.456 85.7165 161.456C85.5885 161.456 85.5245 161.528 85.5245 161.672ZM92.6765 166.352C92.8525 166.256 92.9405 166.136 92.9405 165.992C92.9405 165.864 92.8765 165.616 92.7485 165.248C92.6205 164.88 92.4605 164.472 92.2685 164.024C92.0765 163.56 91.8845 163.12 91.6925 162.704C91.5005 162.288 91.3405 161.96 91.2125 161.72C91.1325 161.544 91.0045 161.456 90.8285 161.456C90.7645 161.456 90.6525 161.48 90.4925 161.528C90.3325 161.576 90.2525 161.704 90.2525 161.912C90.2525 161.992 90.2765 162.08 90.3245 162.176C90.5805 162.656 90.8445 163.248 91.1165 163.952C91.3885 164.64 91.6365 165.36 91.8605 166.112C91.9405 166.368 92.0685 166.496 92.2445 166.496C92.3405 166.496 92.4845 166.448 92.6765 166.352ZM119.652 157.664L127.308 157.328C127.516 157.296 127.62 157.192 127.62 157.016C127.62 156.84 127.484 156.648 127.212 156.44C126.956 156.216 126.732 156.104 126.54 156.104C126.492 156.104 126.42 156.12 126.324 156.152C126.084 156.216 125.844 156.264 125.604 156.296C125.38 156.328 125.164 156.352 124.956 156.368L118.908 156.704V148.544C118.908 148.32 118.804 148.144 118.596 148.016C118.388 147.888 118.18 147.8 117.972 147.752C117.78 147.704 117.676 147.68 117.66 147.68C117.532 147.68 117.468 147.728 117.468 147.824C117.468 147.872 117.476 147.912 117.492 147.944C117.572 148.168 117.62 148.392 117.636 148.616C117.668 148.84 117.684 149.072 117.684 149.312V156.776L110.652 157.112H110.412C110.268 157.112 110.1 157.104 109.908 157.088C109.716 157.072 109.532 157.04 109.356 156.992H109.26C109.18 156.992 109.14 157.024 109.14 157.088C109.14 157.248 109.228 157.432 109.404 157.64C109.58 157.848 109.676 157.96 109.692 157.976C109.772 158.04 109.868 158.088 109.98 158.12C110.108 158.136 110.244 158.144 110.388 158.144C110.468 158.144 110.556 158.144 110.652 158.144C110.748 158.128 110.844 158.12 110.94 158.12L116.772 157.808C115.364 159.728 113.924 161.368 112.452 162.728C110.98 164.088 109.524 165.24 108.084 166.184C107.732 166.392 107.556 166.592 107.556 166.784C107.556 166.896 107.636 166.952 107.796 166.952C108.036 166.952 108.452 166.784 109.044 166.448C109.652 166.112 110.356 165.656 111.156 165.08C111.956 164.488 112.78 163.816 113.628 163.064C114.476 162.296 115.26 161.48 115.98 160.616C116.716 159.736 117.308 158.856 117.756 157.976C117.756 157.976 117.748 158.176 117.732 158.576C117.732 158.976 117.724 159.456 117.708 160.016C117.708 160.56 117.708 161.064 117.708 161.528V165.272C117.708 165.72 117.692 166.168 117.66 166.616C117.644 167.048 117.604 167.504 117.54 167.984C117.54 168.016 117.532 168.04 117.516 168.056C117.516 168.088 117.516 168.12 117.516 168.152C117.516 168.376 117.596 168.552 117.756 168.68C117.916 168.808 118.076 168.896 118.236 168.944C118.412 168.992 118.508 169.016 118.524 169.016C118.764 169.016 118.884 168.888 118.884 168.632V161.384C118.884 161.112 118.876 160.784 118.86 160.4C118.86 160.016 118.86 159.64 118.86 159.272C118.86 158.888 118.852 158.576 118.836 158.336C118.836 158.08 118.836 157.952 118.836 157.952C119.46 158.864 120.188 159.752 121.02 160.616C121.852 161.464 122.716 162.264 123.612 163.016C124.524 163.768 125.412 164.448 126.276 165.056C127.14 165.664 127.916 166.184 128.604 166.616C128.668 166.648 128.724 166.664 128.772 166.664C128.884 166.664 129.02 166.608 129.18 166.496C129.34 166.368 129.484 166.232 129.612 166.088C129.74 165.928 129.804 165.808 129.804 165.728C129.804 165.648 129.708 165.552 129.516 165.44C127.884 164.64 126.212 163.576 124.5 162.248C122.788 160.904 121.172 159.376 119.652 157.664ZM125.22 151.208C125.252 151.176 125.268 151.136 125.268 151.088C125.268 150.944 125.188 150.776 125.028 150.584C124.868 150.392 124.692 150.232 124.5 150.104C124.308 149.96 124.156 149.888 124.044 149.888C123.916 149.888 123.852 149.984 123.852 150.176C123.82 150.544 123.756 150.816 123.66 150.992C123.308 151.616 122.836 152.288 122.244 153.008C121.668 153.728 121.028 154.448 120.324 155.168C120.132 155.36 120.036 155.52 120.036 155.648C120.036 155.776 120.108 155.84 120.252 155.84C120.396 155.84 120.564 155.768 120.756 155.624C122.516 154.248 124.004 152.776 125.22 151.208ZM115.308 155.768C115.484 155.768 115.644 155.68 115.788 155.504C115.948 155.312 116.028 155.136 116.028 154.976C116.028 154.816 115.94 154.648 115.764 154.472C115.7 154.392 115.532 154.232 115.26 153.992C115.004 153.736 114.7 153.44 114.348 153.104C113.996 152.768 113.636 152.44 113.268 152.12C112.916 151.8 112.604 151.536 112.332 151.328C112.06 151.104 111.876 150.992 111.78 150.992C111.636 150.992 111.492 151.088 111.348 151.28C111.252 151.392 111.204 151.496 111.204 151.592C111.204 151.688 111.3 151.824 111.492 152C112.084 152.512 112.66 153.056 113.22 153.632C113.78 154.208 114.34 154.832 114.9 155.504C115.044 155.68 115.18 155.768 115.308 155.768Z" fill="#B39C7A"/>
<rect x="22" y="4" width="169" height="124" fill="#F7F7F6"/>
<path opacity="0.19" d="M91.5846 48.2531C93.2423 45.0699 95.9434 42.5531 99.2359 41.1244C100.991 40.234 102.964 39.8601 104.923 40.0469C109.105 40.8865 108.519 47.968 116.012 51.8492C123.505 55.7304 126.23 55.7933 127.909 65.1715C129.494 74.0112 133.296 102.922 116.915 122.201C115.57 123.823 113.914 125.16 112.045 126.134C110.177 127.108 108.132 127.699 106.032 127.873C100.883 128.206 94.0717 126.21 88.7965 116.071C88.7489 116.087 71.8142 85.9721 91.5846 48.2531Z" fill="#404141"/>
<path d="M93.026 59.9759C93.026 59.9759 100.187 48.792 105.462 51.1841C110.737 53.5762 106.713 55.699 110.61 59.105C114.507 62.5109 122.919 61.3699 122.919 74.566C122.919 87.7621 123.553 98.5504 116.012 112.253C108.472 125.956 96.2575 115.612 93.2793 110.368C90.1426 104.76 82.8556 80.9978 93.026 59.9759Z" fill="#404141"/>
</g>
<g filter="url(#filter1_d_1568_14746)">
<path d="M241 128H410V188H241V128Z" fill="#F7F7F6"/>
<path d="M282.948 167.936V168.128C282.948 168.32 283.012 168.472 283.14 168.584C283.284 168.712 283.428 168.808 283.572 168.872C283.732 168.936 283.828 168.968 283.86 168.968C284.068 168.968 284.172 168.848 284.172 168.608L284.1 159.704C284.468 159.656 284.844 159.6 285.228 159.536C285.628 159.472 286.02 159.408 286.404 159.344L286.812 160.496C286.892 160.72 286.996 160.832 287.124 160.832C287.268 160.832 287.42 160.792 287.58 160.712C287.756 160.616 287.844 160.496 287.844 160.352C287.844 160.304 287.772 160.08 287.628 159.68C287.5 159.264 287.316 158.776 287.076 158.216C286.836 157.64 286.564 157.096 286.26 156.584C286.148 156.392 286.012 156.296 285.852 156.296C285.788 156.296 285.676 156.336 285.516 156.416C285.356 156.496 285.276 156.6 285.276 156.728C285.276 156.76 285.284 156.8 285.3 156.848C285.332 156.896 285.356 156.952 285.372 157.016C285.5 157.224 285.612 157.456 285.708 157.712C285.82 157.952 285.932 158.2 286.044 158.456C285.356 158.568 284.636 158.672 283.884 158.768C283.148 158.848 282.444 158.928 281.772 159.008C282.604 158.112 283.404 157.152 284.172 156.128C284.956 155.088 285.764 153.92 286.596 152.624C286.612 152.592 286.62 152.552 286.62 152.504C286.62 152.408 286.564 152.288 286.452 152.144C286.34 151.984 286.204 151.84 286.044 151.712C285.9 151.584 285.756 151.52 285.612 151.52C285.484 151.52 285.42 151.6 285.42 151.76C285.42 151.92 285.38 152.104 285.3 152.312C285.236 152.52 285.068 152.84 284.796 153.272C284.54 153.704 284.116 154.344 283.524 155.192C283.22 154.92 282.924 154.672 282.636 154.448C282.364 154.224 282.092 154.016 281.82 153.824C282.812 152.448 283.532 151.352 283.98 150.536C284.428 149.704 284.652 149.232 284.652 149.12C284.652 148.944 284.564 148.792 284.388 148.664C284.228 148.536 284.06 148.432 283.884 148.352C283.724 148.272 283.628 148.232 283.596 148.232C283.468 148.232 283.404 148.304 283.404 148.448C283.404 148.608 283.396 148.752 283.38 148.88C283.364 148.992 283.316 149.128 283.236 149.288C282.916 150.024 282.596 150.688 282.276 151.28C281.972 151.856 281.572 152.52 281.076 153.272C280.82 153.096 280.596 152.952 280.404 152.84C280.228 152.728 280.1 152.672 280.02 152.672C279.892 152.672 279.78 152.752 279.684 152.912C279.588 153.072 279.54 153.2 279.54 153.296C279.54 153.408 279.572 153.496 279.636 153.56C279.716 153.608 279.804 153.672 279.9 153.752C280.364 154.056 280.836 154.4 281.316 154.784C281.812 155.152 282.332 155.592 282.876 156.104C282.524 156.6 282.148 157.104 281.748 157.616C281.364 158.112 280.964 158.608 280.548 159.104C280.388 159.12 280.236 159.136 280.092 159.152C279.948 159.152 279.804 159.152 279.66 159.152C279.548 159.152 279.436 159.152 279.324 159.152C279.212 159.152 279.108 159.144 279.012 159.128H278.916C278.836 159.128 278.796 159.152 278.796 159.2C278.796 159.232 278.804 159.264 278.82 159.296C278.996 159.776 279.188 160.064 279.396 160.16C279.62 160.24 279.764 160.28 279.828 160.28C279.828 160.28 279.852 160.28 279.9 160.28C279.948 160.264 280.06 160.248 280.236 160.232C280.428 160.2 280.74 160.16 281.172 160.112C281.62 160.048 282.244 159.968 283.044 159.872V166.616C283.044 166.92 283.036 167.16 283.02 167.336C283.004 167.528 282.98 167.728 282.948 167.936ZM292.74 162.056L292.716 165.92C292.716 166.592 292.86 167.12 293.148 167.504C293.436 167.904 293.924 168.136 294.612 168.2C295.092 168.248 295.596 168.272 296.124 168.272C297.052 168.272 297.788 168.232 298.332 168.152C298.892 168.088 299.308 167.976 299.58 167.816C299.868 167.672 300.06 167.472 300.156 167.216C300.268 166.976 300.348 166.688 300.396 166.352C300.46 165.936 300.508 165.504 300.54 165.056C300.572 164.608 300.588 164.168 300.588 163.736C300.588 162.936 300.484 162.536 300.276 162.536C300.068 162.536 299.916 162.912 299.82 163.664C299.708 164.624 299.588 165.336 299.46 165.8C299.348 166.248 299.204 166.544 299.028 166.688C298.868 166.832 298.644 166.936 298.356 167C298.1 167.048 297.804 167.088 297.468 167.12C297.132 167.152 296.788 167.168 296.436 167.168C295.668 167.168 295.1 167.12 294.732 167.024C294.364 166.944 294.124 166.808 294.012 166.616C293.9 166.408 293.844 166.136 293.844 165.8L293.868 161.912L296.724 161.552C296.708 161.616 296.692 161.688 296.676 161.768C296.676 161.848 296.66 161.928 296.628 162.008C296.628 162.024 296.62 162.048 296.604 162.08C296.604 162.096 296.604 162.112 296.604 162.128C296.604 162.288 296.676 162.432 296.82 162.56C296.964 162.672 297.108 162.76 297.252 162.824C297.412 162.872 297.492 162.896 297.492 162.896C297.652 162.896 297.748 162.768 297.78 162.512L298.092 156.44V156.344C298.092 156.136 298.012 155.984 297.852 155.888C297.692 155.792 297.524 155.728 297.348 155.696C297.188 155.664 297.076 155.648 297.012 155.648C296.868 155.648 296.796 155.688 296.796 155.768C296.796 155.8 296.804 155.832 296.82 155.864C296.932 156.136 296.988 156.392 296.988 156.632C296.988 156.68 296.988 156.736 296.988 156.8C296.988 156.848 296.98 156.896 296.964 156.944L296.82 160.568L293.868 160.904L293.916 154.16C294.684 153.968 295.452 153.76 296.22 153.536C296.988 153.312 297.74 153.072 298.476 152.816C298.604 152.768 298.668 152.68 298.668 152.552C298.668 152.472 298.612 152.344 298.5 152.168C298.404 151.992 298.284 151.832 298.14 151.688C297.996 151.528 297.852 151.448 297.708 151.448C297.628 151.448 297.564 151.488 297.516 151.568C297.404 151.728 297.228 151.888 296.988 152.048C296.748 152.192 296.388 152.352 295.908 152.528C295.428 152.704 294.772 152.92 293.94 153.176L293.964 149.048C293.964 148.92 293.884 148.808 293.724 148.712C293.564 148.6 293.388 148.512 293.196 148.448C293.004 148.384 292.86 148.352 292.764 148.352C292.62 148.352 292.548 148.4 292.548 148.496C292.548 148.56 292.556 148.616 292.572 148.664C292.732 148.984 292.812 149.344 292.812 149.744L292.788 153.512C292.068 153.72 291.324 153.928 290.556 154.136C289.804 154.328 289.076 154.512 288.372 154.688C287.94 154.8 287.724 154.936 287.724 155.096C287.724 155.224 287.86 155.288 288.132 155.288C288.292 155.288 288.628 155.248 289.14 155.168C289.652 155.088 290.236 154.984 290.892 154.856C291.564 154.712 292.196 154.568 292.788 154.424L292.74 161.048L289.956 161.36L290.124 156.968V156.92C290.124 156.776 290.06 156.664 289.932 156.584C289.804 156.504 289.652 156.432 289.476 156.368C289.364 156.336 289.26 156.312 289.164 156.296C289.084 156.264 289.004 156.248 288.924 156.248C288.796 156.248 288.732 156.288 288.732 156.368C288.732 156.432 288.748 156.488 288.78 156.536C288.876 156.696 288.932 156.848 288.948 156.992C288.98 157.136 288.996 157.296 288.996 157.472L288.948 160.76C288.948 160.952 288.932 161.12 288.9 161.264C288.884 161.408 288.86 161.552 288.828 161.696C288.812 161.76 288.804 161.84 288.804 161.936C288.804 162.112 288.916 162.288 289.14 162.464C289.22 162.544 289.316 162.584 289.428 162.584C289.524 162.584 289.636 162.56 289.764 162.512C289.892 162.448 290.06 162.408 290.268 162.392L292.74 162.056ZM280.524 161.672V161.912C280.524 162.2 280.452 162.568 280.308 163.016C280.18 163.464 280.02 163.936 279.828 164.432C279.636 164.912 279.452 165.352 279.276 165.752C279.1 166.136 278.972 166.408 278.892 166.568C278.812 166.712 278.756 166.84 278.724 166.952C278.692 167.064 278.676 167.16 278.676 167.24C278.676 167.384 278.724 167.456 278.82 167.456C278.996 167.456 279.204 167.296 279.444 166.976C279.7 166.64 279.964 166.224 280.236 165.728C280.508 165.232 280.764 164.736 281.004 164.24C281.244 163.728 281.436 163.296 281.58 162.944C281.74 162.576 281.82 162.36 281.82 162.296C281.82 162.184 281.772 162.088 281.676 162.008C281.58 161.912 281.476 161.816 281.364 161.72C281.252 161.64 281.14 161.576 281.028 161.528C280.916 161.48 280.812 161.456 280.716 161.456C280.588 161.456 280.524 161.528 280.524 161.672ZM287.676 166.352C287.852 166.256 287.94 166.136 287.94 165.992C287.94 165.864 287.876 165.616 287.748 165.248C287.62 164.88 287.46 164.472 287.268 164.024C287.076 163.56 286.884 163.12 286.692 162.704C286.5 162.288 286.34 161.96 286.212 161.72C286.132 161.544 286.004 161.456 285.828 161.456C285.764 161.456 285.652 161.48 285.492 161.528C285.332 161.576 285.252 161.704 285.252 161.912C285.252 161.992 285.276 162.08 285.324 162.176C285.58 162.656 285.844 163.248 286.116 163.952C286.388 164.64 286.636 165.36 286.86 166.112C286.94 166.368 287.068 166.496 287.244 166.496C287.34 166.496 287.484 166.448 287.676 166.352ZM314.652 157.664L322.308 157.328C322.516 157.296 322.62 157.192 322.62 157.016C322.62 156.84 322.484 156.648 322.212 156.44C321.956 156.216 321.732 156.104 321.54 156.104C321.492 156.104 321.42 156.12 321.324 156.152C321.084 156.216 320.844 156.264 320.604 156.296C320.38 156.328 320.164 156.352 319.956 156.368L313.908 156.704V148.544C313.908 148.32 313.804 148.144 313.596 148.016C313.388 147.888 313.18 147.8 312.972 147.752C312.78 147.704 312.676 147.68 312.66 147.68C312.532 147.68 312.468 147.728 312.468 147.824C312.468 147.872 312.476 147.912 312.492 147.944C312.572 148.168 312.62 148.392 312.636 148.616C312.668 148.84 312.684 149.072 312.684 149.312V156.776L305.652 157.112H305.412C305.268 157.112 305.1 157.104 304.908 157.088C304.716 157.072 304.532 157.04 304.356 156.992H304.26C304.18 156.992 304.14 157.024 304.14 157.088C304.14 157.248 304.228 157.432 304.404 157.64C304.58 157.848 304.676 157.96 304.692 157.976C304.772 158.04 304.868 158.088 304.98 158.12C305.108 158.136 305.244 158.144 305.388 158.144C305.468 158.144 305.556 158.144 305.652 158.144C305.748 158.128 305.844 158.12 305.94 158.12L311.772 157.808C310.364 159.728 308.924 161.368 307.452 162.728C305.98 164.088 304.524 165.24 303.084 166.184C302.732 166.392 302.556 166.592 302.556 166.784C302.556 166.896 302.636 166.952 302.796 166.952C303.036 166.952 303.452 166.784 304.044 166.448C304.652 166.112 305.356 165.656 306.156 165.08C306.956 164.488 307.78 163.816 308.628 163.064C309.476 162.296 310.26 161.48 310.98 160.616C311.716 159.736 312.308 158.856 312.756 157.976C312.756 157.976 312.748 158.176 312.732 158.576C312.732 158.976 312.724 159.456 312.708 160.016C312.708 160.56 312.708 161.064 312.708 161.528V165.272C312.708 165.72 312.692 166.168 312.66 166.616C312.644 167.048 312.604 167.504 312.54 167.984C312.54 168.016 312.532 168.04 312.516 168.056C312.516 168.088 312.516 168.12 312.516 168.152C312.516 168.376 312.596 168.552 312.756 168.68C312.916 168.808 313.076 168.896 313.236 168.944C313.412 168.992 313.508 169.016 313.524 169.016C313.764 169.016 313.884 168.888 313.884 168.632V161.384C313.884 161.112 313.876 160.784 313.86 160.4C313.86 160.016 313.86 159.64 313.86 159.272C313.86 158.888 313.852 158.576 313.836 158.336C313.836 158.08 313.836 157.952 313.836 157.952C314.46 158.864 315.188 159.752 316.02 160.616C316.852 161.464 317.716 162.264 318.612 163.016C319.524 163.768 320.412 164.448 321.276 165.056C322.14 165.664 322.916 166.184 323.604 166.616C323.668 166.648 323.724 166.664 323.772 166.664C323.884 166.664 324.02 166.608 324.18 166.496C324.34 166.368 324.484 166.232 324.612 166.088C324.74 165.928 324.804 165.808 324.804 165.728C324.804 165.648 324.708 165.552 324.516 165.44C322.884 164.64 321.212 163.576 319.5 162.248C317.788 160.904 316.172 159.376 314.652 157.664ZM320.22 151.208C320.252 151.176 320.268 151.136 320.268 151.088C320.268 150.944 320.188 150.776 320.028 150.584C319.868 150.392 319.692 150.232 319.5 150.104C319.308 149.96 319.156 149.888 319.044 149.888C318.916 149.888 318.852 149.984 318.852 150.176C318.82 150.544 318.756 150.816 318.66 150.992C318.308 151.616 317.836 152.288 317.244 153.008C316.668 153.728 316.028 154.448 315.324 155.168C315.132 155.36 315.036 155.52 315.036 155.648C315.036 155.776 315.108 155.84 315.252 155.84C315.396 155.84 315.564 155.768 315.756 155.624C317.516 154.248 319.004 152.776 320.22 151.208ZM310.308 155.768C310.484 155.768 310.644 155.68 310.788 155.504C310.948 155.312 311.028 155.136 311.028 154.976C311.028 154.816 310.94 154.648 310.764 154.472C310.7 154.392 310.532 154.232 310.26 153.992C310.004 153.736 309.7 153.44 309.348 153.104C308.996 152.768 308.636 152.44 308.268 152.12C307.916 151.8 307.604 151.536 307.332 151.328C307.06 151.104 306.876 150.992 306.78 150.992C306.636 150.992 306.492 151.088 306.348 151.28C306.252 151.392 306.204 151.496 306.204 151.592C306.204 151.688 306.3 151.824 306.492 152C307.084 152.512 307.66 153.056 308.22 153.632C308.78 154.208 309.34 154.832 309.9 155.504C310.044 155.68 310.18 155.768 310.308 155.768ZM339.876 148.28V148.496C339.876 148.656 339.868 148.816 339.852 148.976C339.836 149.12 339.812 149.232 339.78 149.312C339.124 151.152 338.268 153.024 337.212 154.928C336.156 156.832 334.852 158.712 333.3 160.568C333.092 160.824 332.988 161.04 332.988 161.216C332.988 161.376 333.06 161.456 333.204 161.456C333.364 161.456 333.556 161.344 333.78 161.12C335.156 159.696 336.38 158.2 337.452 156.632C338.524 155.048 339.452 153.4 340.236 151.688C340.748 152.44 341.324 153.224 341.964 154.04C342.604 154.856 343.244 155.648 343.884 156.416C344.54 157.168 345.156 157.848 345.732 158.456C346.308 159.064 346.788 159.552 347.172 159.92C347.556 160.272 347.796 160.448 347.892 160.448C347.956 160.448 348.068 160.408 348.228 160.328C348.388 160.248 348.54 160.152 348.684 160.04C348.844 159.928 348.924 159.832 348.924 159.752C348.924 159.688 348.892 159.632 348.828 159.584C347.292 158.256 345.82 156.816 344.412 155.264C343.004 153.696 341.78 152.128 340.74 150.56C340.836 150.336 340.932 150.112 341.028 149.888C341.124 149.648 341.212 149.408 341.292 149.168C341.308 149.136 341.316 149.096 341.316 149.048C341.316 148.856 341.236 148.688 341.076 148.544C340.916 148.384 340.74 148.264 340.548 148.184C340.356 148.088 340.204 148.04 340.092 148.04C339.948 148.04 339.876 148.12 339.876 148.28ZM329.22 160.352L333.084 160.112C333.356 160.08 333.492 159.992 333.492 159.848C333.492 159.688 333.34 159.456 333.036 159.152L333.492 153.632C333.508 153.584 333.524 153.528 333.54 153.464C333.572 153.384 333.588 153.304 333.588 153.224C333.588 153.048 333.5 152.896 333.324 152.768C333.164 152.64 332.98 152.576 332.772 152.576C332.692 152.576 332.628 152.584 332.58 152.6L328.956 152.864C328.364 152.592 327.964 152.456 327.756 152.456C327.612 152.456 327.54 152.512 327.54 152.624C327.54 152.672 327.548 152.72 327.564 152.768C327.596 152.816 327.62 152.872 327.636 152.936C327.716 153.096 327.772 153.272 327.804 153.464C327.852 153.64 327.884 153.864 327.9 154.136L328.116 160.136C328.132 160.216 328.14 160.304 328.14 160.4C328.14 160.496 328.14 160.584 328.14 160.664C328.14 160.744 328.14 160.832 328.14 160.928C328.14 161.024 328.132 161.12 328.116 161.216V161.408C328.116 161.648 328.228 161.824 328.452 161.936C328.692 162.048 328.86 162.104 328.956 162.104C329.164 162.104 329.268 162 329.268 161.792V161.744L329.22 160.352ZM332.364 153.656L331.956 159.104L329.172 159.296L328.932 153.872L332.364 153.656ZM338.916 158.552L343.62 158.24C343.86 158.208 343.98 158.104 343.98 157.928C343.98 157.816 343.916 157.704 343.788 157.592C343.676 157.464 343.54 157.352 343.38 157.256C343.236 157.16 343.124 157.112 343.044 157.112C342.996 157.112 342.964 157.12 342.948 157.136C342.804 157.184 342.668 157.224 342.54 157.256C342.428 157.272 342.276 157.288 342.084 157.304L338.604 157.52C338.54 157.52 338.476 157.528 338.412 157.544C338.364 157.544 338.308 157.544 338.244 157.544C337.988 157.544 337.756 157.512 337.548 157.448H337.476C337.396 157.448 337.356 157.472 337.356 157.52C337.356 157.6 337.396 157.712 337.476 157.856C337.556 158 337.62 158.112 337.668 158.192C337.844 158.368 337.996 158.48 338.124 158.528C338.268 158.56 338.38 158.576 338.46 158.576C338.524 158.576 338.588 158.576 338.652 158.576C338.732 158.576 338.82 158.568 338.916 158.552ZM337.548 162.488L343.692 162.104C343.244 163.224 342.684 164.344 342.012 165.464C341.34 166.568 340.556 167.664 339.66 168.752C339.612 168.816 339.588 168.88 339.588 168.944C339.588 169.088 339.652 169.2 339.78 169.28C339.924 169.376 340.068 169.44 340.212 169.472C340.356 169.52 340.436 169.544 340.452 169.544C340.628 169.544 340.796 169.44 340.956 169.232C341.724 168.24 342.436 167.144 343.092 165.944C343.764 164.744 344.372 163.488 344.916 162.176C344.948 162.096 345.004 162.008 345.084 161.912C345.164 161.816 345.204 161.712 345.204 161.6C345.204 161.504 345.132 161.376 344.988 161.216C344.844 161.04 344.644 160.952 344.388 160.952C344.308 160.952 344.244 160.96 344.196 160.976L337.548 161.336C337.484 161.336 337.412 161.344 337.332 161.36C337.268 161.36 337.196 161.36 337.116 161.36C336.972 161.36 336.82 161.352 336.66 161.336C336.516 161.304 336.34 161.272 336.132 161.24H336.084C336.02 161.24 335.988 161.272 335.988 161.336C335.988 161.4 336.02 161.528 336.084 161.72C336.164 161.896 336.3 162.08 336.492 162.272C336.636 162.416 336.916 162.488 337.332 162.488H337.548ZM361.38 151.136L371.604 150.44C371.844 150.408 371.964 150.32 371.964 150.176C371.964 150.032 371.86 149.872 371.652 149.696C371.444 149.52 371.252 149.432 371.076 149.432C371.044 149.432 371.012 149.44 370.98 149.456C370.948 149.456 370.916 149.464 370.884 149.48C370.676 149.576 370.404 149.632 370.068 149.648L366.084 149.912L366.132 147.992C366.132 147.816 366.052 147.696 365.892 147.632C365.748 147.552 365.588 147.504 365.412 147.488C365.252 147.456 365.14 147.44 365.076 147.44C364.868 147.44 364.764 147.496 364.764 147.608C364.764 147.624 364.78 147.664 364.812 147.728C364.876 147.824 364.924 147.928 364.956 148.04C365.004 148.152 365.028 148.272 365.028 148.4L365.052 149.984L361.092 150.248H360.828C360.556 150.248 360.3 150.216 360.06 150.152C360.044 150.152 360.028 150.152 360.012 150.152C360.012 150.136 360.004 150.128 359.988 150.128C359.908 150.128 359.868 150.168 359.868 150.248C359.868 150.296 359.908 150.4 359.988 150.56C360.068 150.72 360.196 150.88 360.372 151.04C360.468 151.136 360.612 151.184 360.804 151.184C360.884 151.184 360.972 151.184 361.068 151.184C361.164 151.168 361.268 151.152 361.38 151.136ZM353.004 166.136L359.124 165.92C359.332 165.92 359.436 165.84 359.436 165.68C359.436 165.488 359.292 165.24 359.004 164.936L359.316 154.976C359.316 154.912 359.332 154.848 359.364 154.784C359.412 154.72 359.436 154.648 359.436 154.568C359.436 154.44 359.34 154.28 359.148 154.088C358.972 153.896 358.788 153.8 358.596 153.8C358.564 153.8 358.524 153.808 358.476 153.824C358.444 153.824 358.404 153.824 358.356 153.824L357.036 153.92L357.132 151.16L359.58 150.992C359.804 150.976 359.916 150.896 359.916 150.752C359.916 150.608 359.844 150.48 359.7 150.368C359.572 150.256 359.436 150.168 359.292 150.104C359.148 150.04 359.052 150.008 359.004 150.008C358.956 150.008 358.884 150.024 358.788 150.056C358.532 150.168 358.228 150.232 357.876 150.248L352.284 150.608H352.02C351.876 150.608 351.732 150.6 351.588 150.584C351.46 150.568 351.316 150.536 351.156 150.488H351.108C350.996 150.488 350.94 150.552 350.94 150.68C350.94 150.728 350.98 150.816 351.06 150.944C351.14 151.056 351.284 151.192 351.492 151.352C351.588 151.448 351.756 151.496 351.996 151.496C352.076 151.496 352.156 151.496 352.236 151.496C352.332 151.496 352.436 151.488 352.548 151.472L354.156 151.352C354.172 151.688 354.18 152.024 354.18 152.36C354.18 152.68 354.18 153 354.18 153.32V154.112L352.908 154.208C352.38 154 352.012 153.896 351.804 153.896C351.676 153.896 351.612 153.944 351.612 154.04C351.612 154.088 351.636 154.16 351.684 154.256C351.844 154.592 351.924 154.96 351.924 155.36L351.948 165.656C351.948 165.864 351.94 166.048 351.924 166.208C351.924 166.352 351.908 166.496 351.876 166.64C351.876 166.656 351.868 166.68 351.852 166.712C351.852 166.728 351.852 166.744 351.852 166.76C351.852 166.952 351.924 167.096 352.068 167.192C352.212 167.304 352.356 167.384 352.5 167.432C352.644 167.48 352.724 167.504 352.74 167.504C352.868 167.504 352.94 167.44 352.956 167.312C352.988 167.184 353.004 167.064 353.004 166.952V166.136ZM356.172 151.232L356.1 153.992L355.092 154.064V151.304L356.172 151.232ZM365.796 161.504L372.06 161.216C372.236 161.2 372.324 161.112 372.324 160.952C372.324 160.744 372.204 160.576 371.964 160.448C371.74 160.32 371.596 160.256 371.532 160.256C371.468 160.256 371.42 160.264 371.388 160.28C371.244 160.328 371.1 160.36 370.956 160.376C370.812 160.392 370.66 160.408 370.5 160.424L367.908 160.568L367.98 159.128L370.644 159.008C370.852 158.976 370.956 158.904 370.956 158.792C370.956 158.648 370.892 158.528 370.764 158.432C370.652 158.336 370.532 158.264 370.404 158.216C370.276 158.168 370.196 158.144 370.164 158.144C370.132 158.144 370.1 158.152 370.068 158.168C370.052 158.168 370.028 158.168 369.996 158.168C369.836 158.216 369.692 158.248 369.564 158.264C369.436 158.28 369.284 158.296 369.108 158.312L368.004 158.36L368.076 157.16L371.268 156.968C371.476 156.936 371.58 156.848 371.58 156.704C371.58 156.624 371.484 156.496 371.292 156.32C371.1 156.144 370.924 156.056 370.764 156.056C370.684 156.056 370.628 156.064 370.596 156.08C370.436 156.144 370.292 156.184 370.164 156.2C370.036 156.216 369.884 156.232 369.708 156.248L368.124 156.344L368.148 155.648C368.148 155.52 368.1 155.416 368.004 155.336C367.908 155.24 367.788 155.16 367.644 155.096L367.428 155.024C367.46 154.992 367.476 154.92 367.476 154.808C367.492 154.696 367.5 154.64 367.5 154.64L370.596 154.496C370.82 154.496 370.932 154.424 370.932 154.28C370.932 154.152 370.796 153.976 370.524 153.752L370.74 152.48C370.756 152.432 370.78 152.384 370.812 152.336C370.844 152.288 370.86 152.232 370.86 152.168C370.86 152.024 370.788 151.896 370.644 151.784C370.5 151.672 370.356 151.616 370.212 151.616H370.068L367.236 151.832C366.98 151.752 366.772 151.688 366.612 151.64C366.452 151.592 366.332 151.568 366.252 151.568C366.124 151.568 366.06 151.608 366.06 151.688C366.06 151.752 366.1 151.84 366.18 151.952C366.244 152.064 366.292 152.176 366.324 152.288C366.372 152.384 366.404 152.512 366.42 152.672L366.516 153.92C366.532 154.032 366.54 154.136 366.54 154.232C366.54 154.312 366.54 154.416 366.54 154.544C366.54 154.656 366.572 154.744 366.636 154.808C366.7 154.872 366.82 154.944 366.996 155.024C366.996 155.024 366.988 155.032 366.972 155.048C366.972 155.048 366.972 155.064 366.972 155.096C366.972 155.112 366.972 155.128 366.972 155.144C366.988 155.144 366.996 155.16 366.996 155.192C367.044 155.336 367.084 155.472 367.116 155.6C367.148 155.712 367.164 155.888 367.164 156.128V156.392L364.596 156.536V155.624C364.596 155.432 364.484 155.288 364.26 155.192C364.036 155.096 363.836 155.048 363.66 155.048C363.5 155.048 363.42 155.096 363.42 155.192C363.42 155.208 363.436 155.248 363.468 155.312C363.596 155.616 363.66 155.96 363.66 156.344V156.584L361.668 156.704C361.604 156.704 361.54 156.712 361.476 156.728C361.412 156.728 361.34 156.728 361.26 156.728C361.068 156.728 360.836 156.704 360.564 156.656H360.516C360.436 156.656 360.396 156.688 360.396 156.752C360.396 156.784 360.404 156.808 360.42 156.824C360.5 156.984 360.612 157.152 360.756 157.328C360.9 157.488 361.076 157.568 361.284 157.568C361.364 157.568 361.452 157.56 361.548 157.544C361.66 157.528 361.78 157.52 361.908 157.52L363.684 157.4L363.708 158.624L362.46 158.648H362.148C361.86 158.648 361.604 158.624 361.38 158.576C361.364 158.576 361.348 158.576 361.332 158.576C361.332 158.56 361.316 158.552 361.284 158.552C361.22 158.552 361.188 158.584 361.188 158.648C361.188 158.696 361.196 158.728 361.212 158.744C361.356 159.064 361.492 159.264 361.62 159.344C361.764 159.424 361.892 159.464 362.004 159.464C362.084 159.464 362.18 159.456 362.292 159.44C362.42 159.424 362.564 159.416 362.724 159.416L363.732 159.368L363.756 160.76L360.924 160.88C360.876 160.88 360.82 160.888 360.756 160.904C360.708 160.904 360.66 160.904 360.612 160.904C360.356 160.904 360.108 160.872 359.868 160.808H359.82C359.724 160.808 359.676 160.84 359.676 160.904C359.676 160.936 359.684 160.96 359.7 160.976C359.86 161.376 360.012 161.616 360.156 161.696C360.316 161.76 360.42 161.792 360.468 161.792C360.564 161.792 360.668 161.784 360.78 161.768C360.892 161.752 361.02 161.736 361.164 161.72L364.452 161.576C363.7 162.552 362.804 163.456 361.764 164.288C360.724 165.104 359.708 165.8 358.716 166.376C358.332 166.584 358.14 166.776 358.14 166.952C358.14 167.048 358.212 167.096 358.356 167.096C358.5 167.096 358.692 167.048 358.932 166.952C359.588 166.664 360.236 166.328 360.876 165.944C361.532 165.56 362.164 165.12 362.772 164.624L362.748 167.408C362.7 167.424 362.556 167.472 362.316 167.552C362.076 167.632 361.804 167.704 361.5 167.768C361.196 167.832 360.908 167.864 360.636 167.864C360.476 167.896 360.396 167.944 360.396 168.008C360.396 168.04 360.412 168.088 360.444 168.152C360.652 168.472 360.828 168.688 360.972 168.8C361.116 168.912 361.252 168.968 361.38 168.968C361.476 168.968 361.7 168.904 362.052 168.776C362.42 168.648 362.98 168.4 363.732 168.032C364.484 167.68 365.492 167.176 366.756 166.52C367.124 166.328 367.308 166.136 367.308 165.944C367.308 165.832 367.22 165.776 367.044 165.776C366.948 165.776 366.796 165.816 366.588 165.896C366.092 166.12 365.604 166.328 365.124 166.52C364.66 166.712 364.204 166.888 363.756 167.048L363.804 163.736C363.996 163.544 364.188 163.344 364.38 163.136C364.588 162.928 364.788 162.712 364.98 162.488C365.668 163.4 366.348 164.208 367.02 164.912C367.708 165.6 368.476 166.224 369.324 166.784C370.172 167.344 371.18 167.88 372.348 168.392C372.412 168.424 372.468 168.44 372.516 168.44C372.66 168.44 372.788 168.368 372.9 168.224C373.012 168.096 373.1 167.96 373.164 167.816C373.228 167.672 373.26 167.6 373.26 167.6C373.26 167.488 373.156 167.4 372.948 167.336C371.924 167 371.012 166.616 370.212 166.184C369.428 165.752 368.7 165.232 368.028 164.624C368.444 164.384 368.86 164.104 369.276 163.784C369.708 163.464 370.132 163.128 370.548 162.776C370.628 162.696 370.668 162.6 370.668 162.488C370.668 162.312 370.604 162.112 370.476 161.888C370.348 161.648 370.204 161.528 370.044 161.528C369.964 161.528 369.9 161.592 369.852 161.72C369.756 161.96 369.58 162.208 369.324 162.464C369.084 162.704 368.82 162.936 368.532 163.16C368.244 163.368 367.988 163.552 367.764 163.712C367.54 163.856 367.404 163.944 367.356 163.976C367.052 163.656 366.756 163.312 366.468 162.944C366.18 162.576 365.876 162.192 365.556 161.792C365.604 161.744 365.644 161.696 365.676 161.648C365.724 161.6 365.764 161.552 365.796 161.504ZM362.268 154.976L365.196 154.808C365.42 154.776 365.532 154.704 365.532 154.592C365.532 154.448 365.396 154.272 365.124 154.064L365.316 152.864C365.332 152.784 365.356 152.712 365.388 152.648C365.42 152.584 365.436 152.52 365.436 152.456C365.436 152.376 365.372 152.28 365.244 152.168C365.132 152.04 364.956 151.976 364.716 151.976H364.572L362.004 152.192C361.54 152.032 361.228 151.952 361.068 151.952C360.94 151.952 360.876 151.992 360.876 152.072C360.876 152.12 360.908 152.208 360.972 152.336C361.068 152.528 361.14 152.776 361.188 153.08L361.308 154.184V154.856C361.308 155.016 361.34 155.12 361.404 155.168C361.484 155.216 361.604 155.28 361.764 155.36C361.812 155.376 361.852 155.392 361.884 155.408C361.932 155.408 361.972 155.408 362.004 155.408C362.18 155.408 362.268 155.296 362.268 155.072V154.976ZM369.732 152.432L369.612 153.8L367.428 153.896L367.284 152.576L369.732 152.432ZM364.332 152.768L364.236 154.112L362.196 154.232L362.052 152.936L364.332 152.768ZM358.212 154.712L358.14 158.744C358.076 158.744 358.012 158.752 357.948 158.768C357.9 158.768 357.844 158.768 357.78 158.768C357.46 158.768 357.236 158.696 357.108 158.552C356.996 158.408 356.94 158.136 356.94 157.736V157.52L357.012 154.784L358.212 154.712ZM358.14 159.728L358.092 161.72L352.98 161.936L352.956 155.048L354.18 154.976L354.132 156.056C354.1 156.68 354.052 157.224 353.988 157.688C353.924 158.152 353.82 158.592 353.676 159.008C353.548 159.408 353.372 159.864 353.148 160.376C353.084 160.504 353.052 160.624 353.052 160.736C353.052 160.896 353.108 160.976 353.22 160.976C353.348 160.976 353.492 160.856 353.652 160.616C353.86 160.264 354.068 159.856 354.276 159.392C354.5 158.912 354.684 158.312 354.828 157.592C354.988 156.856 355.068 155.96 355.068 154.904L356.076 154.856L356.004 157.76V157.856C356.004 159.12 356.484 159.752 357.444 159.752C357.556 159.752 357.668 159.752 357.78 159.752C357.892 159.752 358.012 159.744 358.14 159.728ZM367.14 157.208L367.092 158.408L364.62 158.552V157.328L367.14 157.208ZM367.068 159.176L366.996 160.616L364.644 160.736L364.62 159.32L367.068 159.176ZM358.092 162.656L358.044 164.984L353.004 165.176L352.98 162.872L358.092 162.656Z" fill="#B39C7A"/>
<rect x="241" y="4" width="169" height="124" fill="#F7F7F6"/>
<path opacity="0.19" d="M310.584 48.2529C312.242 45.0697 314.943 42.5528 318.236 41.1242C319.991 40.2337 321.963 39.8607 323.923 40.0474C328.105 40.887 327.519 47.9682 335.012 51.8652C342.505 55.7623 345.23 55.7938 346.909 65.1721C348.493 74.0117 352.295 102.939 335.915 122.202C334.571 123.827 332.916 125.167 331.047 126.143C329.178 127.12 327.133 127.713 325.032 127.889C319.883 128.206 313.071 126.226 307.796 116.071C307.749 116.087 290.814 85.9719 310.584 48.2529Z" fill="#404141"/>
<path d="M325.048 110.543C332.931 110.543 339.321 98.9676 339.321 84.689C339.321 70.4105 332.931 58.8354 325.048 58.8354C317.165 58.8354 310.774 70.4105 310.774 84.689C310.774 98.9676 317.165 110.543 325.048 110.543Z" fill="#404141"/>
</g>
<g filter="url(#filter2_d_1568_14746)">
<rect x="460" y="4" width="169" height="116.408" fill="#F7F7F6"/>
<path d="M629 111.49C545.135 66.4285 560.807 139.653 460 93.1836V188H629V111.49Z" fill="#F7F7F6"/>
<path d="M489.948 160.038V160.23C489.948 160.422 490.012 160.574 490.14 160.686C490.284 160.814 490.428 160.91 490.572 160.974C490.732 161.038 490.828 161.07 490.86 161.07C491.068 161.07 491.172 160.95 491.172 160.71L491.1 151.806C491.468 151.758 491.844 151.702 492.228 151.638C492.628 151.574 493.02 151.51 493.404 151.446L493.812 152.598C493.892 152.822 493.996 152.934 494.124 152.934C494.268 152.934 494.42 152.894 494.58 152.814C494.756 152.718 494.844 152.598 494.844 152.454C494.844 152.406 494.772 152.182 494.628 151.782C494.5 151.366 494.316 150.878 494.076 150.318C493.836 149.742 493.564 149.198 493.26 148.686C493.148 148.494 493.012 148.398 492.852 148.398C492.788 148.398 492.676 148.438 492.516 148.518C492.356 148.598 492.276 148.702 492.276 148.83C492.276 148.862 492.284 148.902 492.3 148.95C492.332 148.998 492.356 149.054 492.372 149.118C492.5 149.326 492.612 149.558 492.708 149.814C492.82 150.054 492.932 150.302 493.044 150.558C492.356 150.67 491.636 150.774 490.884 150.87C490.148 150.95 489.444 151.03 488.772 151.11C489.604 150.214 490.404 149.254 491.172 148.23C491.956 147.19 492.764 146.022 493.596 144.726C493.612 144.694 493.62 144.654 493.62 144.606C493.62 144.51 493.564 144.39 493.452 144.246C493.34 144.086 493.204 143.942 493.044 143.814C492.9 143.686 492.756 143.622 492.612 143.622C492.484 143.622 492.42 143.702 492.42 143.862C492.42 144.022 492.38 144.206 492.3 144.414C492.236 144.622 492.068 144.942 491.796 145.374C491.54 145.806 491.116 146.446 490.524 147.294C490.22 147.022 489.924 146.774 489.636 146.55C489.364 146.326 489.092 146.118 488.82 145.926C489.812 144.55 490.532 143.454 490.98 142.638C491.428 141.806 491.652 141.334 491.652 141.222C491.652 141.046 491.564 140.894 491.388 140.766C491.228 140.638 491.06 140.534 490.884 140.454C490.724 140.374 490.628 140.334 490.596 140.334C490.468 140.334 490.404 140.406 490.404 140.55C490.404 140.71 490.396 140.854 490.38 140.982C490.364 141.094 490.316 141.23 490.236 141.39C489.916 142.126 489.596 142.79 489.276 143.382C488.972 143.958 488.572 144.622 488.076 145.374C487.82 145.198 487.596 145.054 487.404 144.942C487.228 144.83 487.1 144.774 487.02 144.774C486.892 144.774 486.78 144.854 486.684 145.014C486.588 145.174 486.54 145.302 486.54 145.398C486.54 145.51 486.572 145.598 486.636 145.662C486.716 145.71 486.804 145.774 486.9 145.854C487.364 146.158 487.836 146.502 488.316 146.886C488.812 147.254 489.332 147.694 489.876 148.206C489.524 148.702 489.148 149.206 488.748 149.718C488.364 150.214 487.964 150.71 487.548 151.206C487.388 151.222 487.236 151.238 487.092 151.254C486.948 151.254 486.804 151.254 486.66 151.254C486.548 151.254 486.436 151.254 486.324 151.254C486.212 151.254 486.108 151.246 486.012 151.23H485.916C485.836 151.23 485.796 151.254 485.796 151.302C485.796 151.334 485.804 151.366 485.82 151.398C485.996 151.878 486.188 152.166 486.396 152.262C486.62 152.342 486.764 152.382 486.828 152.382C486.828 152.382 486.852 152.382 486.9 152.382C486.948 152.366 487.06 152.35 487.236 152.334C487.428 152.302 487.74 152.262 488.172 152.214C488.62 152.15 489.244 152.07 490.044 151.974V158.718C490.044 159.022 490.036 159.262 490.02 159.438C490.004 159.63 489.98 159.83 489.948 160.038ZM499.74 154.158L499.716 158.022C499.716 158.694 499.86 159.222 500.148 159.606C500.436 160.006 500.924 160.238 501.612 160.302C502.092 160.35 502.596 160.374 503.124 160.374C504.052 160.374 504.788 160.334 505.332 160.254C505.892 160.19 506.308 160.078 506.58 159.918C506.868 159.774 507.06 159.574 507.156 159.318C507.268 159.078 507.348 158.79 507.396 158.454C507.46 158.038 507.508 157.606 507.54 157.158C507.572 156.71 507.588 156.27 507.588 155.838C507.588 155.038 507.484 154.638 507.276 154.638C507.068 154.638 506.916 155.014 506.82 155.766C506.708 156.726 506.588 157.438 506.46 157.902C506.348 158.35 506.204 158.646 506.028 158.79C505.868 158.934 505.644 159.038 505.356 159.102C505.1 159.15 504.804 159.19 504.468 159.222C504.132 159.254 503.788 159.27 503.436 159.27C502.668 159.27 502.1 159.222 501.732 159.126C501.364 159.046 501.124 158.91 501.012 158.718C500.9 158.51 500.844 158.238 500.844 157.902L500.868 154.014L503.724 153.654C503.708 153.718 503.692 153.79 503.676 153.87C503.676 153.95 503.66 154.03 503.628 154.11C503.628 154.126 503.62 154.15 503.604 154.182C503.604 154.198 503.604 154.214 503.604 154.23C503.604 154.39 503.676 154.534 503.82 154.662C503.964 154.774 504.108 154.862 504.252 154.926C504.412 154.974 504.492 154.998 504.492 154.998C504.652 154.998 504.748 154.87 504.78 154.614L505.092 148.542V148.446C505.092 148.238 505.012 148.086 504.852 147.99C504.692 147.894 504.524 147.83 504.348 147.798C504.188 147.766 504.076 147.75 504.012 147.75C503.868 147.75 503.796 147.79 503.796 147.87C503.796 147.902 503.804 147.934 503.82 147.966C503.932 148.238 503.988 148.494 503.988 148.734C503.988 148.782 503.988 148.838 503.988 148.902C503.988 148.95 503.98 148.998 503.964 149.046L503.82 152.67L500.868 153.006L500.916 146.262C501.684 146.07 502.452 145.862 503.22 145.638C503.988 145.414 504.74 145.174 505.476 144.918C505.604 144.87 505.668 144.782 505.668 144.654C505.668 144.574 505.612 144.446 505.5 144.27C505.404 144.094 505.284 143.934 505.14 143.79C504.996 143.63 504.852 143.55 504.708 143.55C504.628 143.55 504.564 143.59 504.516 143.67C504.404 143.83 504.228 143.99 503.988 144.15C503.748 144.294 503.388 144.454 502.908 144.63C502.428 144.806 501.772 145.022 500.94 145.278L500.964 141.15C500.964 141.022 500.884 140.91 500.724 140.814C500.564 140.702 500.388 140.614 500.196 140.55C500.004 140.486 499.86 140.454 499.764 140.454C499.62 140.454 499.548 140.502 499.548 140.598C499.548 140.662 499.556 140.718 499.572 140.766C499.732 141.086 499.812 141.446 499.812 141.846L499.788 145.614C499.068 145.822 498.324 146.03 497.556 146.238C496.804 146.43 496.076 146.614 495.372 146.79C494.94 146.902 494.724 147.038 494.724 147.198C494.724 147.326 494.86 147.39 495.132 147.39C495.292 147.39 495.628 147.35 496.14 147.27C496.652 147.19 497.236 147.086 497.892 146.958C498.564 146.814 499.196 146.67 499.788 146.526L499.74 153.15L496.956 153.462L497.124 149.07V149.022C497.124 148.878 497.06 148.766 496.932 148.686C496.804 148.606 496.652 148.534 496.476 148.47C496.364 148.438 496.26 148.414 496.164 148.398C496.084 148.366 496.004 148.35 495.924 148.35C495.796 148.35 495.732 148.39 495.732 148.47C495.732 148.534 495.748 148.59 495.78 148.638C495.876 148.798 495.932 148.95 495.948 149.094C495.98 149.238 495.996 149.398 495.996 149.574L495.948 152.862C495.948 153.054 495.932 153.222 495.9 153.366C495.884 153.51 495.86 153.654 495.828 153.798C495.812 153.862 495.804 153.942 495.804 154.038C495.804 154.214 495.916 154.39 496.14 154.566C496.22 154.646 496.316 154.686 496.428 154.686C496.524 154.686 496.636 154.662 496.764 154.614C496.892 154.55 497.06 154.51 497.268 154.494L499.74 154.158ZM487.524 153.774V154.014C487.524 154.302 487.452 154.67 487.308 155.118C487.18 155.566 487.02 156.038 486.828 156.534C486.636 157.014 486.452 157.454 486.276 157.854C486.1 158.238 485.972 158.51 485.892 158.67C485.812 158.814 485.756 158.942 485.724 159.054C485.692 159.166 485.676 159.262 485.676 159.342C485.676 159.486 485.724 159.558 485.82 159.558C485.996 159.558 486.204 159.398 486.444 159.078C486.7 158.742 486.964 158.326 487.236 157.83C487.508 157.334 487.764 156.838 488.004 156.342C488.244 155.83 488.436 155.398 488.58 155.046C488.74 154.678 488.82 154.462 488.82 154.398C488.82 154.286 488.772 154.19 488.676 154.11C488.58 154.014 488.476 153.918 488.364 153.822C488.252 153.742 488.14 153.678 488.028 153.63C487.916 153.582 487.812 153.558 487.716 153.558C487.588 153.558 487.524 153.63 487.524 153.774ZM494.676 158.454C494.852 158.358 494.94 158.238 494.94 158.094C494.94 157.966 494.876 157.718 494.748 157.35C494.62 156.982 494.46 156.574 494.268 156.126C494.076 155.662 493.884 155.222 493.692 154.806C493.5 154.39 493.34 154.062 493.212 153.822C493.132 153.646 493.004 153.558 492.828 153.558C492.764 153.558 492.652 153.582 492.492 153.63C492.332 153.678 492.252 153.806 492.252 154.014C492.252 154.094 492.276 154.182 492.324 154.278C492.58 154.758 492.844 155.35 493.116 156.054C493.388 156.742 493.636 157.462 493.86 158.214C493.94 158.47 494.068 158.598 494.244 158.598C494.34 158.598 494.484 158.55 494.676 158.454ZM521.652 149.766L529.308 149.43C529.516 149.398 529.62 149.294 529.62 149.118C529.62 148.942 529.484 148.75 529.212 148.542C528.956 148.318 528.732 148.206 528.54 148.206C528.492 148.206 528.42 148.222 528.324 148.254C528.084 148.318 527.844 148.366 527.604 148.398C527.38 148.43 527.164 148.454 526.956 148.47L520.908 148.806V140.646C520.908 140.422 520.804 140.246 520.596 140.118C520.388 139.99 520.18 139.902 519.972 139.854C519.78 139.806 519.676 139.782 519.66 139.782C519.532 139.782 519.468 139.83 519.468 139.926C519.468 139.974 519.476 140.014 519.492 140.046C519.572 140.27 519.62 140.494 519.636 140.718C519.668 140.942 519.684 141.174 519.684 141.414V148.878L512.652 149.214H512.412C512.268 149.214 512.1 149.206 511.908 149.19C511.716 149.174 511.532 149.142 511.356 149.094H511.26C511.18 149.094 511.14 149.126 511.14 149.19C511.14 149.35 511.228 149.534 511.404 149.742C511.58 149.95 511.676 150.062 511.692 150.078C511.772 150.142 511.868 150.19 511.98 150.222C512.108 150.238 512.244 150.246 512.388 150.246C512.468 150.246 512.556 150.246 512.652 150.246C512.748 150.23 512.844 150.222 512.94 150.222L518.772 149.91C517.364 151.83 515.924 153.47 514.452 154.83C512.98 156.19 511.524 157.342 510.084 158.286C509.732 158.494 509.556 158.694 509.556 158.886C509.556 158.998 509.636 159.054 509.796 159.054C510.036 159.054 510.452 158.886 511.044 158.55C511.652 158.214 512.356 157.758 513.156 157.182C513.956 156.59 514.78 155.918 515.628 155.166C516.476 154.398 517.26 153.582 517.98 152.718C518.716 151.838 519.308 150.958 519.756 150.078C519.756 150.078 519.748 150.278 519.732 150.678C519.732 151.078 519.724 151.558 519.708 152.118C519.708 152.662 519.708 153.166 519.708 153.63V157.374C519.708 157.822 519.692 158.27 519.66 158.718C519.644 159.15 519.604 159.606 519.54 160.086C519.54 160.118 519.532 160.142 519.516 160.158C519.516 160.19 519.516 160.222 519.516 160.254C519.516 160.478 519.596 160.654 519.756 160.782C519.916 160.91 520.076 160.998 520.236 161.046C520.412 161.094 520.508 161.118 520.524 161.118C520.764 161.118 520.884 160.99 520.884 160.734V153.486C520.884 153.214 520.876 152.886 520.86 152.502C520.86 152.118 520.86 151.742 520.86 151.374C520.86 150.99 520.852 150.678 520.836 150.438C520.836 150.182 520.836 150.054 520.836 150.054C521.46 150.966 522.188 151.854 523.02 152.718C523.852 153.566 524.716 154.366 525.612 155.118C526.524 155.87 527.412 156.55 528.276 157.158C529.14 157.766 529.916 158.286 530.604 158.718C530.668 158.75 530.724 158.766 530.772 158.766C530.884 158.766 531.02 158.71 531.18 158.598C531.34 158.47 531.484 158.334 531.612 158.19C531.74 158.03 531.804 157.91 531.804 157.83C531.804 157.75 531.708 157.654 531.516 157.542C529.884 156.742 528.212 155.678 526.5 154.35C524.788 153.006 523.172 151.478 521.652 149.766ZM527.22 143.31C527.252 143.278 527.268 143.238 527.268 143.19C527.268 143.046 527.188 142.878 527.028 142.686C526.868 142.494 526.692 142.334 526.5 142.206C526.308 142.062 526.156 141.99 526.044 141.99C525.916 141.99 525.852 142.086 525.852 142.278C525.82 142.646 525.756 142.918 525.66 143.094C525.308 143.718 524.836 144.39 524.244 145.11C523.668 145.83 523.028 146.55 522.324 147.27C522.132 147.462 522.036 147.622 522.036 147.75C522.036 147.878 522.108 147.942 522.252 147.942C522.396 147.942 522.564 147.87 522.756 147.726C524.516 146.35 526.004 144.878 527.22 143.31ZM517.308 147.87C517.484 147.87 517.644 147.782 517.788 147.606C517.948 147.414 518.028 147.238 518.028 147.078C518.028 146.918 517.94 146.75 517.764 146.574C517.7 146.494 517.532 146.334 517.26 146.094C517.004 145.838 516.7 145.542 516.348 145.206C515.996 144.87 515.636 144.542 515.268 144.222C514.916 143.902 514.604 143.638 514.332 143.43C514.06 143.206 513.876 143.094 513.78 143.094C513.636 143.094 513.492 143.19 513.348 143.382C513.252 143.494 513.204 143.598 513.204 143.694C513.204 143.79 513.3 143.926 513.492 144.102C514.084 144.614 514.66 145.158 515.22 145.734C515.78 146.31 516.34 146.934 516.9 147.606C517.044 147.782 517.18 147.87 517.308 147.87ZM544.932 148.446L553.332 148.038C553.54 148.006 553.644 147.894 553.644 147.702C553.644 147.526 553.572 147.374 553.428 147.246C553.284 147.102 553.124 146.99 552.948 146.91C552.772 146.814 552.636 146.766 552.54 146.766C552.476 146.766 552.412 146.782 552.348 146.814C552.124 146.878 551.9 146.926 551.676 146.958C551.468 146.99 551.236 147.014 550.98 147.03L544.548 147.414C544.676 146.518 544.78 145.606 544.86 144.678C544.94 143.734 544.98 142.766 544.98 141.774V141.366C544.98 141.19 544.892 141.038 544.716 140.91C544.54 140.782 544.34 140.686 544.116 140.622C543.908 140.542 543.74 140.502 543.612 140.502C543.468 140.502 543.396 140.558 543.396 140.67C543.396 140.686 543.396 140.702 543.396 140.718C543.412 140.718 543.42 140.734 543.42 140.766C543.484 140.942 543.524 141.134 543.54 141.342C543.572 141.55 543.588 141.718 543.588 141.846V142.782C543.588 143.582 543.556 144.382 543.492 145.182C543.444 145.966 543.356 146.734 543.228 147.486L536.892 147.846H536.604C536.444 147.846 536.276 147.838 536.1 147.822C535.94 147.806 535.772 147.774 535.596 147.726C535.58 147.726 535.564 147.726 535.548 147.726C535.532 147.71 535.508 147.702 535.476 147.702C535.396 147.702 535.356 147.742 535.356 147.822C535.356 147.902 535.396 148.03 535.476 148.206C535.572 148.382 535.692 148.55 535.836 148.71C535.996 148.854 536.18 148.926 536.388 148.926C536.484 148.926 536.596 148.926 536.724 148.926C536.852 148.91 537.004 148.894 537.18 148.878L543.036 148.542C542.956 148.894 542.82 149.398 542.628 150.054C542.436 150.694 542.156 151.422 541.788 152.238C541.42 153.054 540.916 153.91 540.276 154.806C539.652 155.686 538.86 156.558 537.9 157.422C536.94 158.286 535.78 159.078 534.42 159.798C534.02 160.006 533.82 160.198 533.82 160.374C533.82 160.502 533.924 160.566 534.132 160.566C534.372 160.566 534.82 160.414 535.476 160.11C536.148 159.806 536.908 159.358 537.756 158.766C538.62 158.158 539.484 157.406 540.348 156.51C541.212 155.614 541.964 154.566 542.604 153.366C542.94 152.726 543.236 152.046 543.492 151.326C543.748 150.59 543.956 149.854 544.116 149.118C544.852 150.75 545.66 152.19 546.54 153.438C547.42 154.686 548.3 155.758 549.18 156.654C550.076 157.534 550.9 158.254 551.652 158.814C552.42 159.374 553.044 159.782 553.524 160.038C554.02 160.31 554.3 160.446 554.364 160.446C554.412 160.446 554.524 160.406 554.7 160.326C554.892 160.246 555.076 160.142 555.252 160.014C555.428 159.886 555.516 159.766 555.516 159.654C555.516 159.574 555.42 159.478 555.228 159.366C552.86 158.182 550.844 156.686 549.18 154.878C547.532 153.054 546.116 150.91 544.932 148.446ZM570.876 140.382V140.598C570.876 140.758 570.868 140.918 570.852 141.078C570.836 141.222 570.812 141.334 570.78 141.414C570.124 143.254 569.268 145.126 568.212 147.03C567.156 148.934 565.852 150.814 564.3 152.67C564.092 152.926 563.988 153.142 563.988 153.318C563.988 153.478 564.06 153.558 564.204 153.558C564.364 153.558 564.556 153.446 564.78 153.222C566.156 151.798 567.38 150.302 568.452 148.734C569.524 147.15 570.452 145.502 571.236 143.79C571.748 144.542 572.324 145.326 572.964 146.142C573.604 146.958 574.244 147.75 574.884 148.518C575.54 149.27 576.156 149.95 576.732 150.558C577.308 151.166 577.788 151.654 578.172 152.022C578.556 152.374 578.796 152.55 578.892 152.55C578.956 152.55 579.068 152.51 579.228 152.43C579.388 152.35 579.54 152.254 579.684 152.142C579.844 152.03 579.924 151.934 579.924 151.854C579.924 151.79 579.892 151.734 579.828 151.686C578.292 150.358 576.82 148.918 575.412 147.366C574.004 145.798 572.78 144.23 571.74 142.662C571.836 142.438 571.932 142.214 572.028 141.99C572.124 141.75 572.212 141.51 572.292 141.27C572.308 141.238 572.316 141.198 572.316 141.15C572.316 140.958 572.236 140.79 572.076 140.646C571.916 140.486 571.74 140.366 571.548 140.286C571.356 140.19 571.204 140.142 571.092 140.142C570.948 140.142 570.876 140.222 570.876 140.382ZM560.22 152.454L564.084 152.214C564.356 152.182 564.492 152.094 564.492 151.95C564.492 151.79 564.34 151.558 564.036 151.254L564.492 145.734C564.508 145.686 564.524 145.63 564.54 145.566C564.572 145.486 564.588 145.406 564.588 145.326C564.588 145.15 564.5 144.998 564.324 144.87C564.164 144.742 563.98 144.678 563.772 144.678C563.692 144.678 563.628 144.686 563.58 144.702L559.956 144.966C559.364 144.694 558.964 144.558 558.756 144.558C558.612 144.558 558.54 144.614 558.54 144.726C558.54 144.774 558.548 144.822 558.564 144.87C558.596 144.918 558.62 144.974 558.636 145.038C558.716 145.198 558.772 145.374 558.804 145.566C558.852 145.742 558.884 145.966 558.9 146.238L559.116 152.238C559.132 152.318 559.14 152.406 559.14 152.502C559.14 152.598 559.14 152.686 559.14 152.766C559.14 152.846 559.14 152.934 559.14 153.03C559.14 153.126 559.132 153.222 559.116 153.318V153.51C559.116 153.75 559.228 153.926 559.452 154.038C559.692 154.15 559.86 154.206 559.956 154.206C560.164 154.206 560.268 154.102 560.268 153.894V153.846L560.22 152.454ZM563.364 145.758L562.956 151.206L560.172 151.398L559.932 145.974L563.364 145.758ZM569.916 150.654L574.62 150.342C574.86 150.31 574.98 150.206 574.98 150.03C574.98 149.918 574.916 149.806 574.788 149.694C574.676 149.566 574.54 149.454 574.38 149.358C574.236 149.262 574.124 149.214 574.044 149.214C573.996 149.214 573.964 149.222 573.948 149.238C573.804 149.286 573.668 149.326 573.54 149.358C573.428 149.374 573.276 149.39 573.084 149.406L569.604 149.622C569.54 149.622 569.476 149.63 569.412 149.646C569.364 149.646 569.308 149.646 569.244 149.646C568.988 149.646 568.756 149.614 568.548 149.55H568.476C568.396 149.55 568.356 149.574 568.356 149.622C568.356 149.702 568.396 149.814 568.476 149.958C568.556 150.102 568.62 150.214 568.668 150.294C568.844 150.47 568.996 150.582 569.124 150.63C569.268 150.662 569.38 150.678 569.46 150.678C569.524 150.678 569.588 150.678 569.652 150.678C569.732 150.678 569.82 150.67 569.916 150.654ZM568.548 154.59L574.692 154.206C574.244 155.326 573.684 156.446 573.012 157.566C572.34 158.67 571.556 159.766 570.66 160.854C570.612 160.918 570.588 160.982 570.588 161.046C570.588 161.19 570.652 161.302 570.78 161.382C570.924 161.478 571.068 161.542 571.212 161.574C571.356 161.622 571.436 161.646 571.452 161.646C571.628 161.646 571.796 161.542 571.956 161.334C572.724 160.342 573.436 159.246 574.092 158.046C574.764 156.846 575.372 155.59 575.916 154.278C575.948 154.198 576.004 154.11 576.084 154.014C576.164 153.918 576.204 153.814 576.204 153.702C576.204 153.606 576.132 153.478 575.988 153.318C575.844 153.142 575.644 153.054 575.388 153.054C575.308 153.054 575.244 153.062 575.196 153.078L568.548 153.438C568.484 153.438 568.412 153.446 568.332 153.462C568.268 153.462 568.196 153.462 568.116 153.462C567.972 153.462 567.82 153.454 567.66 153.438C567.516 153.406 567.34 153.374 567.132 153.342H567.084C567.02 153.342 566.988 153.374 566.988 153.438C566.988 153.502 567.02 153.63 567.084 153.822C567.164 153.998 567.3 154.182 567.492 154.374C567.636 154.518 567.916 154.59 568.332 154.59H568.548ZM592.38 143.238L602.604 142.542C602.844 142.51 602.964 142.422 602.964 142.278C602.964 142.134 602.86 141.974 602.652 141.798C602.444 141.622 602.252 141.534 602.076 141.534C602.044 141.534 602.012 141.542 601.98 141.558C601.948 141.558 601.916 141.566 601.884 141.582C601.676 141.678 601.404 141.734 601.068 141.75L597.084 142.014L597.132 140.094C597.132 139.918 597.052 139.798 596.892 139.734C596.748 139.654 596.588 139.606 596.412 139.59C596.252 139.558 596.14 139.542 596.076 139.542C595.868 139.542 595.764 139.598 595.764 139.71C595.764 139.726 595.78 139.766 595.812 139.83C595.876 139.926 595.924 140.03 595.956 140.142C596.004 140.254 596.028 140.374 596.028 140.502L596.052 142.086L592.092 142.35H591.828C591.556 142.35 591.3 142.318 591.06 142.254C591.044 142.254 591.028 142.254 591.012 142.254C591.012 142.238 591.004 142.23 590.988 142.23C590.908 142.23 590.868 142.27 590.868 142.35C590.868 142.398 590.908 142.502 590.988 142.662C591.068 142.822 591.196 142.982 591.372 143.142C591.468 143.238 591.612 143.286 591.804 143.286C591.884 143.286 591.972 143.286 592.068 143.286C592.164 143.27 592.268 143.254 592.38 143.238ZM584.004 158.238L590.124 158.022C590.332 158.022 590.436 157.942 590.436 157.782C590.436 157.59 590.292 157.342 590.004 157.038L590.316 147.078C590.316 147.014 590.332 146.95 590.364 146.886C590.412 146.822 590.436 146.75 590.436 146.67C590.436 146.542 590.34 146.382 590.148 146.19C589.972 145.998 589.788 145.902 589.596 145.902C589.564 145.902 589.524 145.91 589.476 145.926C589.444 145.926 589.404 145.926 589.356 145.926L588.036 146.022L588.132 143.262L590.58 143.094C590.804 143.078 590.916 142.998 590.916 142.854C590.916 142.71 590.844 142.582 590.7 142.47C590.572 142.358 590.436 142.27 590.292 142.206C590.148 142.142 590.052 142.11 590.004 142.11C589.956 142.11 589.884 142.126 589.788 142.158C589.532 142.27 589.228 142.334 588.876 142.35L583.284 142.71H583.02C582.876 142.71 582.732 142.702 582.588 142.686C582.46 142.67 582.316 142.638 582.156 142.59H582.108C581.996 142.59 581.94 142.654 581.94 142.782C581.94 142.83 581.98 142.918 582.06 143.046C582.14 143.158 582.284 143.294 582.492 143.454C582.588 143.55 582.756 143.598 582.996 143.598C583.076 143.598 583.156 143.598 583.236 143.598C583.332 143.598 583.436 143.59 583.548 143.574L585.156 143.454C585.172 143.79 585.18 144.126 585.18 144.462C585.18 144.782 585.18 145.102 585.18 145.422V146.214L583.908 146.31C583.38 146.102 583.012 145.998 582.804 145.998C582.676 145.998 582.612 146.046 582.612 146.142C582.612 146.19 582.636 146.262 582.684 146.358C582.844 146.694 582.924 147.062 582.924 147.462L582.948 157.758C582.948 157.966 582.94 158.15 582.924 158.31C582.924 158.454 582.908 158.598 582.876 158.742C582.876 158.758 582.868 158.782 582.852 158.814C582.852 158.83 582.852 158.846 582.852 158.862C582.852 159.054 582.924 159.198 583.068 159.294C583.212 159.406 583.356 159.486 583.5 159.534C583.644 159.582 583.724 159.606 583.74 159.606C583.868 159.606 583.94 159.542 583.956 159.414C583.988 159.286 584.004 159.166 584.004 159.054V158.238ZM587.172 143.334L587.1 146.094L586.092 146.166V143.406L587.172 143.334ZM596.796 153.606L603.06 153.318C603.236 153.302 603.324 153.214 603.324 153.054C603.324 152.846 603.204 152.678 602.964 152.55C602.74 152.422 602.596 152.358 602.532 152.358C602.468 152.358 602.42 152.366 602.388 152.382C602.244 152.43 602.1 152.462 601.956 152.478C601.812 152.494 601.66 152.51 601.5 152.526L598.908 152.67L598.98 151.23L601.644 151.11C601.852 151.078 601.956 151.006 601.956 150.894C601.956 150.75 601.892 150.63 601.764 150.534C601.652 150.438 601.532 150.366 601.404 150.318C601.276 150.27 601.196 150.246 601.164 150.246C601.132 150.246 601.1 150.254 601.068 150.27C601.052 150.27 601.028 150.27 600.996 150.27C600.836 150.318 600.692 150.35 600.564 150.366C600.436 150.382 600.284 150.398 600.108 150.414L599.004 150.462L599.076 149.262L602.268 149.07C602.476 149.038 602.58 148.95 602.58 148.806C602.58 148.726 602.484 148.598 602.292 148.422C602.1 148.246 601.924 148.158 601.764 148.158C601.684 148.158 601.628 148.166 601.596 148.182C601.436 148.246 601.292 148.286 601.164 148.302C601.036 148.318 600.884 148.334 600.708 148.35L599.124 148.446L599.148 147.75C599.148 147.622 599.1 147.518 599.004 147.438C598.908 147.342 598.788 147.262 598.644 147.198L598.428 147.126C598.46 147.094 598.476 147.022 598.476 146.91C598.492 146.798 598.5 146.742 598.5 146.742L601.596 146.598C601.82 146.598 601.932 146.526 601.932 146.382C601.932 146.254 601.796 146.078 601.524 145.854L601.74 144.582C601.756 144.534 601.78 144.486 601.812 144.438C601.844 144.39 601.86 144.334 601.86 144.27C601.86 144.126 601.788 143.998 601.644 143.886C601.5 143.774 601.356 143.718 601.212 143.718H601.068L598.236 143.934C597.98 143.854 597.772 143.79 597.612 143.742C597.452 143.694 597.332 143.67 597.252 143.67C597.124 143.67 597.06 143.71 597.06 143.79C597.06 143.854 597.1 143.942 597.18 144.054C597.244 144.166 597.292 144.278 597.324 144.39C597.372 144.486 597.404 144.614 597.42 144.774L597.516 146.022C597.532 146.134 597.54 146.238 597.54 146.334C597.54 146.414 597.54 146.518 597.54 146.646C597.54 146.758 597.572 146.846 597.636 146.91C597.7 146.974 597.82 147.046 597.996 147.126C597.996 147.126 597.988 147.134 597.972 147.15C597.972 147.15 597.972 147.166 597.972 147.198C597.972 147.214 597.972 147.23 597.972 147.246C597.988 147.246 597.996 147.262 597.996 147.294C598.044 147.438 598.084 147.574 598.116 147.702C598.148 147.814 598.164 147.99 598.164 148.23V148.494L595.596 148.638V147.726C595.596 147.534 595.484 147.39 595.26 147.294C595.036 147.198 594.836 147.15 594.66 147.15C594.5 147.15 594.42 147.198 594.42 147.294C594.42 147.31 594.436 147.35 594.468 147.414C594.596 147.718 594.66 148.062 594.66 148.446V148.686L592.668 148.806C592.604 148.806 592.54 148.814 592.476 148.83C592.412 148.83 592.34 148.83 592.26 148.83C592.068 148.83 591.836 148.806 591.564 148.758H591.516C591.436 148.758 591.396 148.79 591.396 148.854C591.396 148.886 591.404 148.91 591.42 148.926C591.5 149.086 591.612 149.254 591.756 149.43C591.9 149.59 592.076 149.67 592.284 149.67C592.364 149.67 592.452 149.662 592.548 149.646C592.66 149.63 592.78 149.622 592.908 149.622L594.684 149.502L594.708 150.726L593.46 150.75H593.148C592.86 150.75 592.604 150.726 592.38 150.678C592.364 150.678 592.348 150.678 592.332 150.678C592.332 150.662 592.316 150.654 592.284 150.654C592.22 150.654 592.188 150.686 592.188 150.75C592.188 150.798 592.196 150.83 592.212 150.846C592.356 151.166 592.492 151.366 592.62 151.446C592.764 151.526 592.892 151.566 593.004 151.566C593.084 151.566 593.18 151.558 593.292 151.542C593.42 151.526 593.564 151.518 593.724 151.518L594.732 151.47L594.756 152.862L591.924 152.982C591.876 152.982 591.82 152.99 591.756 153.006C591.708 153.006 591.66 153.006 591.612 153.006C591.356 153.006 591.108 152.974 590.868 152.91H590.82C590.724 152.91 590.676 152.942 590.676 153.006C590.676 153.038 590.684 153.062 590.7 153.078C590.86 153.478 591.012 153.718 591.156 153.798C591.316 153.862 591.42 153.894 591.468 153.894C591.564 153.894 591.668 153.886 591.78 153.87C591.892 153.854 592.02 153.838 592.164 153.822L595.452 153.678C594.7 154.654 593.804 155.558 592.764 156.39C591.724 157.206 590.708 157.902 589.716 158.478C589.332 158.686 589.14 158.878 589.14 159.054C589.14 159.15 589.212 159.198 589.356 159.198C589.5 159.198 589.692 159.15 589.932 159.054C590.588 158.766 591.236 158.43 591.876 158.046C592.532 157.662 593.164 157.222 593.772 156.726L593.748 159.51C593.7 159.526 593.556 159.574 593.316 159.654C593.076 159.734 592.804 159.806 592.5 159.87C592.196 159.934 591.908 159.966 591.636 159.966C591.476 159.998 591.396 160.046 591.396 160.11C591.396 160.142 591.412 160.19 591.444 160.254C591.652 160.574 591.828 160.79 591.972 160.902C592.116 161.014 592.252 161.07 592.38 161.07C592.476 161.07 592.7 161.006 593.052 160.878C593.42 160.75 593.98 160.502 594.732 160.134C595.484 159.782 596.492 159.278 597.756 158.622C598.124 158.43 598.308 158.238 598.308 158.046C598.308 157.934 598.22 157.878 598.044 157.878C597.948 157.878 597.796 157.918 597.588 157.998C597.092 158.222 596.604 158.43 596.124 158.622C595.66 158.814 595.204 158.99 594.756 159.15L594.804 155.838C594.996 155.646 595.188 155.446 595.38 155.238C595.588 155.03 595.788 154.814 595.98 154.59C596.668 155.502 597.348 156.31 598.02 157.014C598.708 157.702 599.476 158.326 600.324 158.886C601.172 159.446 602.18 159.982 603.348 160.494C603.412 160.526 603.468 160.542 603.516 160.542C603.66 160.542 603.788 160.47 603.9 160.326C604.012 160.198 604.1 160.062 604.164 159.918C604.228 159.774 604.26 159.702 604.26 159.702C604.26 159.59 604.156 159.502 603.948 159.438C602.924 159.102 602.012 158.718 601.212 158.286C600.428 157.854 599.7 157.334 599.028 156.726C599.444 156.486 599.86 156.206 600.276 155.886C600.708 155.566 601.132 155.23 601.548 154.878C601.628 154.798 601.668 154.702 601.668 154.59C601.668 154.414 601.604 154.214 601.476 153.99C601.348 153.75 601.204 153.63 601.044 153.63C600.964 153.63 600.9 153.694 600.852 153.822C600.756 154.062 600.58 154.31 600.324 154.566C600.084 154.806 599.82 155.038 599.532 155.262C599.244 155.47 598.988 155.654 598.764 155.814C598.54 155.958 598.404 156.046 598.356 156.078C598.052 155.758 597.756 155.414 597.468 155.046C597.18 154.678 596.876 154.294 596.556 153.894C596.604 153.846 596.644 153.798 596.676 153.75C596.724 153.702 596.764 153.654 596.796 153.606ZM593.268 147.078L596.196 146.91C596.42 146.878 596.532 146.806 596.532 146.694C596.532 146.55 596.396 146.374 596.124 146.166L596.316 144.966C596.332 144.886 596.356 144.814 596.388 144.75C596.42 144.686 596.436 144.622 596.436 144.558C596.436 144.478 596.372 144.382 596.244 144.27C596.132 144.142 595.956 144.078 595.716 144.078H595.572L593.004 144.294C592.54 144.134 592.228 144.054 592.068 144.054C591.94 144.054 591.876 144.094 591.876 144.174C591.876 144.222 591.908 144.31 591.972 144.438C592.068 144.63 592.14 144.878 592.188 145.182L592.308 146.286V146.958C592.308 147.118 592.34 147.222 592.404 147.27C592.484 147.318 592.604 147.382 592.764 147.462C592.812 147.478 592.852 147.494 592.884 147.51C592.932 147.51 592.972 147.51 593.004 147.51C593.18 147.51 593.268 147.398 593.268 147.174V147.078ZM600.732 144.534L600.612 145.902L598.428 145.998L598.284 144.678L600.732 144.534ZM595.332 144.87L595.236 146.214L593.196 146.334L593.052 145.038L595.332 144.87ZM589.212 146.814L589.14 150.846C589.076 150.846 589.012 150.854 588.948 150.87C588.9 150.87 588.844 150.87 588.78 150.87C588.46 150.87 588.236 150.798 588.108 150.654C587.996 150.51 587.94 150.238 587.94 149.838V149.622L588.012 146.886L589.212 146.814ZM589.14 151.83L589.092 153.822L583.98 154.038L583.956 147.15L585.18 147.078L585.132 148.158C585.1 148.782 585.052 149.326 584.988 149.79C584.924 150.254 584.82 150.694 584.676 151.11C584.548 151.51 584.372 151.966 584.148 152.478C584.084 152.606 584.052 152.726 584.052 152.838C584.052 152.998 584.108 153.078 584.22 153.078C584.348 153.078 584.492 152.958 584.652 152.718C584.86 152.366 585.068 151.958 585.276 151.494C585.5 151.014 585.684 150.414 585.828 149.694C585.988 148.958 586.068 148.062 586.068 147.006L587.076 146.958L587.004 149.862V149.958C587.004 151.222 587.484 151.854 588.444 151.854C588.556 151.854 588.668 151.854 588.78 151.854C588.892 151.854 589.012 151.846 589.14 151.83ZM598.14 149.31L598.092 150.51L595.62 150.654V149.43L598.14 149.31ZM598.068 151.278L597.996 152.718L595.644 152.838L595.62 151.422L598.068 151.278ZM589.092 154.758L589.044 157.086L584.004 157.278L583.98 154.974L589.092 154.758Z" fill="#B39C7A"/>
<path opacity="0.19" d="M530.585 47.7889C532.243 44.6057 534.944 42.0888 538.236 40.6602C539.992 39.7697 541.964 39.3963 543.924 39.583C548.106 40.4226 547.52 47.5038 555.013 51.385C562.506 55.2662 565.231 55.3294 566.91 64.7077C568.494 73.5473 572.296 102.474 555.916 121.738C554.57 123.359 552.915 124.696 551.046 125.67C549.177 126.644 547.133 127.235 545.032 127.409C539.884 127.742 533.072 125.746 527.797 115.607C527.749 115.623 510.815 85.5079 530.585 47.7889Z" fill="#404141"/>
<path d="M545.049 99.496C551.409 99.496 556.566 92.3609 556.566 83.5593C556.566 74.7577 551.409 67.6226 545.049 67.6226C538.688 67.6226 533.532 74.7577 533.532 83.5593C533.532 92.3609 538.688 99.496 545.049 99.496Z" fill="#404141"/>
</g>
<defs>
<filter id="filter0_d_1568_14746" x="11" y="0" width="191" height="206" filterUnits="userSpaceOnUse" color-interpolation-filters="sRGB">
<feFlood flood-opacity="0" result="BackgroundImageFix"/>
<feColorMatrix in="SourceAlpha" type="matrix" values="0 0 0 0 0 0 0 0 0 0 0 0 0 0 0 0 0 0 127 0" result="hardAlpha"/>
<feOffset dy="7"/>
<feGaussianBlur stdDeviation="5.5"/>
<feComposite in2="hardAlpha" operator="out"/>
<feColorMatrix type="matrix" values="0 0 0 0 0 0 0 0 0 0 0 0 0 0 0 0 0 0 0.21 0"/>
<feBlend mode="normal" in2="BackgroundImageFix" result="effect1_dropShadow_1568_14746"/>
<feBlend mode="normal" in="SourceGraphic" in2="effect1_dropShadow_1568_14746" result="shape"/>
</filter>
<filter id="filter1_d_1568_14746" x="230" y="0" width="191" height="206" filterUnits="userSpaceOnUse" color-interpolation-filters="sRGB">
<feFlood flood-opacity="0" result="BackgroundImageFix"/>
<feColorMatrix in="SourceAlpha" type="matrix" values="0 0 0 0 0 0 0 0 0 0 0 0 0 0 0 0 0 0 127 0" result="hardAlpha"/>
<feOffset dy="7"/>
<feGaussianBlur stdDeviation="5.5"/>
<feComposite in2="hardAlpha" operator="out"/>
<feColorMatrix type="matrix" values="0 0 0 0 0 0 0 0 0 0 0 0 0 0 0 0 0 0 0.21 0"/>
<feBlend mode="normal" in2="BackgroundImageFix" result="effect1_dropShadow_1568_14746"/>
<feBlend mode="normal" in="SourceGraphic" in2="effect1_dropShadow_1568_14746" result="shape"/>
</filter>
<filter id="filter2_d_1568_14746" x="449" y="0" width="191" height="206" filterUnits="userSpaceOnUse" color-interpolation-filters="sRGB">
<feFlood flood-opacity="0" result="BackgroundImageFix"/>
<feColorMatrix in="SourceAlpha" type="matrix" values="0 0 0 0 0 0 0 0 0 0 0 0 0 0 0 0 0 0 127 0" result="hardAlpha"/>
<feOffset dy="7"/>
<feGaussianBlur stdDeviation="5.5"/>
<feComposite in2="hardAlpha" operator="out"/>
<feColorMatrix type="matrix" values="0 0 0 0 0 0 0 0 0 0 0 0 0 0 0 0 0 0 0.21 0"/>
<feBlend mode="normal" in2="BackgroundImageFix" result="effect1_dropShadow_1568_14746"/>
<feBlend mode="normal" in="SourceGraphic" in2="effect1_dropShadow_1568_14746" result="shape"/>
</filter>
</defs>
</svg>
