<svg xmlns="http://www.w3.org/2000/svg" width="1440" height="401" fill="none" viewBox="0 0 1440 401">
  <path fill="#3D4349" d="M1440 212.981c-.69.495-1.38.988-2.08 1.478a.504.504 0 00-.12.697c.16.226.47.279.7.12.5-.353 1-.709 1.5-1.065v-1.23zM2.854 105.402c-.954.811-1.905 1.626-2.854 2.447v-1.321c.734-.632 1.47-1.262 2.206-1.888a.5.5 0 01.648.762zM302.324.638a.5.5 0 01.503-.498c1.665.007 3.331.022 4.997.044a.5.5 0 11-.013 1 559.899 559.899 0 00-4.989-.044.5.5 0 01-.498-.502zM298.335.639a.5.5 0 01-.498.502c-1.667.008-3.334.023-5 .046a.5.5 0 01-.014-1c1.669-.023 3.339-.038 5.01-.046a.5.5 0 01.502.498zM312.315.76a.5.5 0 01.511-.488c1.668.036 3.336.08 5.005.132a.5.5 0 11-.031 1 569.155 569.155 0 00-4.996-.132.5.5 0 01-.489-.511zM288.327.767a.5.5 0 01-.488.512c-1.665.038-3.329.084-4.993.137a.5.5 0 11-.032-1c1.667-.053 3.334-.099 5.002-.137a.5.5 0 01.511.488zM322.319 1.06a.5.5 0 01.52-.48c1.664.066 3.328.14 4.993.22a.5.5 0 01-.048.998c-1.662-.08-3.324-.153-4.985-.218a.5.5 0 01-.48-.52zM278.338 1.08a.5.5 0 01-.479.52c-1.662.068-3.322.145-4.982.23a.5.5 0 01-.051-1c1.663-.084 3.327-.16 4.991-.23a.5.5 0 01.521.48zM332.293 1.532a.5.5 0 01.528-.47c1.663.094 3.327.195 4.991.304a.5.5 0 11-.065.998c-1.661-.109-3.322-.21-4.983-.304a.501.501 0 01-.471-.528zM268.36 1.577a.5.5 0 01-.469.53 523.1 523.1 0 00-4.988.324.5.5 0 11-.07-.998c1.665-.116 3.331-.225 4.998-.325a.5.5 0 01.529.469zM342.27 2.175a.5.5 0 01.535-.462c1.664.123 3.329.252 4.994.39a.5.5 0 11-.082.996 596.04 596.04 0 00-4.986-.389.5.5 0 01-.461-.535zM258.38 2.265a.5.5 0 01-.459.538c-1.659.132-3.318.271-4.974.42a.5.5 0 11-.089-.997 515.85 515.85 0 014.984-.42.5.5 0 01.538.459zM352.243 2.986a.5.5 0 01.543-.453c1.657.15 3.315.307 4.972.47a.499.499 0 11-.098.996c-1.655-.164-3.31-.32-4.964-.47a.5.5 0 01-.453-.543zM248.428 3.143a.5.5 0 01-.448.547c-1.656.164-3.31.336-4.963.516a.5.5 0 01-.108-.994c1.656-.18 3.313-.353 4.972-.517a.5.5 0 01.547.448zM362.18 3.96a.5.5 0 01.55-.445c1.658.178 3.315.362 4.973.553a.5.5 0 11-.115.994 617 617 0 00-4.964-.552.5.5 0 01-.444-.55zM238.488 4.217a.5.5 0 01-.437.555c-1.654.197-3.307.402-4.958.615a.5.5 0 01-.128-.991c1.655-.214 3.311-.42 4.968-.617a.5.5 0 01.555.438zM372.117 5.096a.5.5 0 01.557-.434c1.658.204 3.315.415 4.972.633a.5.5 0 01-.131.992 627.72 627.72 0 00-4.963-.633.5.5 0 01-.435-.558zM228.571 5.488a.5.5 0 01-.426.564c-1.648.23-3.295.468-4.939.714a.5.5 0 01-.149-.99 494.6 494.6 0 014.95-.715.5.5 0 01.564.427zM382.03 6.392a.5.5 0 01.565-.426c1.649.23 3.297.467 4.946.71a.5.5 0 11-.146.99c-1.646-.243-3.292-.48-4.939-.71a.5.5 0 01-.426-.564zM218.691 6.957a.5.5 0 01-.415.573 492.28 492.28 0 00-4.929.815.5.5 0 01-.168-.986c1.645-.28 3.291-.553 4.939-.817a.5.5 0 01.573.415zM391.914 7.843a.5.5 0 01.571-.417c1.648.256 3.296.519 4.943.788a.5.5 0 11-.162.987 642.79 642.79 0 00-4.934-.787.5.5 0 01-.418-.571zM208.831 8.63a.5.5 0 01-.403.581c-1.638.298-3.274.603-4.908.917a.501.501 0 01-.189-.982c1.638-.314 3.277-.62 4.919-.919a.5.5 0 01.581.403zM401.79 9.45a.501.501 0 01.578-.408c1.643.281 3.285.57 4.927.864a.5.5 0 11-.176.984c-1.64-.294-3.28-.582-4.92-.863a.501.501 0 01-.409-.577zM199.013 10.507a.5.5 0 01-.39.59c-1.631.33-3.259.67-4.886 1.019a.5.5 0 11-.209-.978c1.63-.35 3.262-.69 4.896-1.021a.5.5 0 01.589.39zM411.626 11.205a.5.5 0 01.583-.4c1.637.307 3.274.62 4.91.939a.5.5 0 11-.191.981c-1.634-.318-3.268-.63-4.903-.936a.5.5 0 01-.399-.584zM189.239 12.59a.5.5 0 01-.378.597c-1.624.366-3.245.74-4.865 1.124a.5.5 0 11-.23-.973c1.623-.384 3.248-.76 4.875-1.126a.5.5 0 01.598.378zM421.437 13.11a.5.5 0 01.589-.39c1.635.33 3.27.668 4.903 1.012a.501.501 0 01-.206.978c-1.631-.343-3.263-.68-4.895-1.01a.5.5 0 01-.391-.59zM179.509 14.881a.5.5 0 01-.365.606c-1.615.4-3.228.81-4.839 1.228a.5.5 0 11-.252-.968c1.615-.419 3.231-.83 4.85-1.23a.5.5 0 01.606.364zM431.233 15.163a.5.5 0 01.595-.382c1.626.355 3.251.716 4.876 1.083a.5.5 0 01-.22.975 696.189 696.189 0 00-4.869-1.08.5.5 0 01-.382-.596zM440.974 17.356a.5.5 0 01.601-.374c1.623.38 3.245.764 4.866 1.155a.5.5 0 01-.234.972 698.19 698.19 0 00-4.859-1.153.501.501 0 01-.374-.6zM169.83 17.383a.5.5 0 01-.351.613c-1.606.436-3.21.88-4.811 1.334a.501.501 0 01-.273-.962c1.605-.455 3.212-.9 4.822-1.337a.5.5 0 01.613.352zM450.696 19.692a.499.499 0 01.605-.364c1.62.402 3.238.81 4.855 1.225a.5.5 0 11-.248.97 698.54 698.54 0 00-4.848-1.225.5.5 0 01-.364-.606zM160.212 20.095a.5.5 0 01-.338.62c-1.595.472-3.188.951-4.779 1.44a.5.5 0 01-.293-.956c1.594-.49 3.19-.97 4.789-1.442a.5.5 0 01.621.338zM460.386 22.169a.5.5 0 01.611-.356c1.61.425 3.219.855 4.827 1.292a.5.5 0 11-.262.965 692.684 692.684 0 00-4.82-1.29.5.5 0 01-.356-.611zM150.655 23.02a.5.5 0 01-.324.628 445.704 445.704 0 00-4.75 1.547.5.5 0 01-.315-.95 452.803 452.803 0 014.76-1.55.5.5 0 01.629.325zM470.029 24.78a.5.5 0 01.616-.348c1.606.448 3.21.902 4.814 1.361a.5.5 0 01-.276.961 705.78 705.78 0 00-4.807-1.359.5.5 0 01-.347-.616zM141.157 26.16a.5.5 0 01-.309.636 434.491 434.491 0 00-4.704 1.65.5.5 0 01-.337-.942c1.569-.56 3.141-1.111 4.715-1.654a.499.499 0 01.635.31zM479.644 27.527a.5.5 0 01.621-.338c1.601.47 3.2.947 4.799 1.429a.5.5 0 01-.289.957 730.962 730.962 0 00-4.792-1.427.5.5 0 01-.339-.62zM131.751 29.508a.5.5 0 01-.295.643c-1.56.577-3.117 1.163-4.672 1.76a.5.5 0 11-.357-.935 431.553 431.553 0 014.682-1.763.5.5 0 01.642.295zM489.218 30.407a.5.5 0 01.625-.33c1.592.492 3.182.99 4.771 1.493a.5.5 0 11-.302.954c-1.586-.503-3.175-1-4.764-1.491a.5.5 0 01-.33-.626zM122.41 33.075a.5.5 0 01-.28.65 431.682 431.682 0 00-4.638 1.869.5.5 0 11-.379-.926 431.491 431.491 0 014.648-1.873.5.5 0 01.649.28zM498.747 33.418a.5.5 0 01.63-.322c1.586.514 3.171 1.034 4.754 1.559a.5.5 0 01-.315.949 736.71 736.71 0 00-4.747-1.557.5.5 0 01-.322-.63zM508.242 36.559a.5.5 0 01.634-.313c1.579.536 3.156 1.076 4.731 1.623a.5.5 0 11-.327.944 779.069 779.069 0 00-4.725-1.62.5.5 0 01-.313-.634zM113.154 36.856a.5.5 0 01-.265.655 431.61 431.61 0 00-4.578 1.97.5.5 0 11-.401-.917 440.644 440.644 0 014.589-1.974.5.5 0 01.655.266zM517.688 39.826a.5.5 0 01.638-.304c1.571.556 3.141 1.118 4.708 1.685a.5.5 0 11-.34.94 733.89 733.89 0 00-4.702-1.682.5.5 0 01-.304-.639zM104.001 40.844a.5.5 0 01-.25.661 427.69 427.69 0 00-4.542 2.08.5.5 0 01-.422-.906c1.515-.705 3.032-1.4 4.553-2.085a.5.5 0 01.661.25zM527.09 43.22a.5.5 0 01.642-.297c1.565.578 3.127 1.16 4.688 1.748a.5.5 0 11-.353.936 753.016 753.016 0 00-4.681-1.745.5.5 0 01-.296-.643zM94.92 45.055a.5.5 0 01-.234.667c-1.5.72-2.998 1.448-4.492 2.186a.5.5 0 01-.443-.897c1.498-.74 2.999-1.47 4.502-2.19a.5.5 0 01.668.234zM536.45 46.738a.5.5 0 01.646-.288c1.556.598 3.11 1.201 4.662 1.81a.5.5 0 11-.364.93 785.031 785.031 0 00-4.657-1.806.5.5 0 01-.287-.646zM85.964 49.466a.5.5 0 01-.219.672c-1.48.753-2.957 1.515-4.43 2.286a.5.5 0 01-.464-.886 426.565 426.565 0 014.44-2.291.5.5 0 01.673.219zM545.759 50.377a.5.5 0 01.65-.278c1.548.618 3.095 1.241 4.639 1.87a.5.5 0 11-.377.926 740.17 740.17 0 00-4.633-1.868.5.5 0 01-.279-.65zM77.108 54.088a.5.5 0 01-.203.678c-1.467.79-2.93 1.589-4.39 2.398a.5.5 0 01-.485-.875c1.463-.81 2.93-1.612 4.4-2.404a.5.5 0 01.678.203zM555.021 54.139a.5.5 0 01.654-.27c1.54.638 3.078 1.28 4.614 1.929a.5.5 0 01-.389.921c-1.534-.647-3.07-1.29-4.608-1.927a.5.5 0 01-.271-.653zM564.234 58.02a.5.5 0 01.657-.262 788.32 788.32 0 014.59 1.99.5.5 0 01-.401.916 793.137 793.137 0 00-4.584-1.987.5.5 0 01-.262-.657zM68.331 58.936a.5.5 0 01-.187.682 419.049 419.049 0 00-4.304 2.485.5.5 0 01-.505-.863c1.435-.84 2.873-1.67 4.314-2.49a.5.5 0 01.682.186zM573.397 62.02a.5.5 0 01.66-.254c1.524.678 3.045 1.36 4.563 2.048a.5.5 0 11-.412.911 799.945 799.945 0 00-4.557-2.045.5.5 0 01-.254-.66zM59.73 63.956a.5.5 0 01-.172.686c-1.424.856-2.844 1.721-4.26 2.595a.5.5 0 01-.526-.85c1.42-.877 2.844-1.744 4.271-2.602a.5.5 0 01.686.171zM582.506 66.136a.5.5 0 01.663-.245c1.514.697 3.025 1.399 4.534 2.105a.5.5 0 11-.424.906 774.824 774.824 0 00-4.528-2.103.5.5 0 01-.245-.663zM51.212 69.199a.5.5 0 01-.155.69c-1.41.893-2.816 1.796-4.218 2.708a.5.5 0 11-.545-.838 425.165 425.165 0 014.228-2.715.5.5 0 01.69.155zM591.563 70.37a.5.5 0 01.666-.237c1.506.717 3.01 1.438 4.511 2.164a.5.5 0 11-.435.9 758.275 758.275 0 00-4.506-2.162.5.5 0 01-.236-.666zM42.81 74.648a.5.5 0 01-.138.693 423.792 423.792 0 00-4.117 2.782.5.5 0 01-.564-.826 425.186 425.186 0 014.126-2.787.5.5 0 01.694.138zM600.567 74.718a.5.5 0 01.669-.228c1.496.736 2.99 1.476 4.48 2.22a.5.5 0 11-.446.895 794.62 794.62 0 00-4.475-2.218.5.5 0 01-.228-.669zM609.509 79.178a.5.5 0 01.672-.22c1.487.755 2.971 1.514 4.452 2.278a.5.5 0 01-.458.888c-1.48-.762-2.962-1.52-4.447-2.274a.5.5 0 01-.219-.672zM34.583 80.263a.5.5 0 01-.123.697c-1.36.955-2.719 1.919-4.073 2.893a.5.5 0 01-.583-.812 427.95 427.95 0 014.082-2.9.5.5 0 01.697.122zM618.401 83.755a.5.5 0 01.675-.212c1.478.774 2.953 1.553 4.425 2.335a.5.5 0 11-.469.883 786.618 786.618 0 00-4.42-2.332.5.5 0 01-.211-.674zM26.443 86.102a.5.5 0 01-.106.7c-1.346.992-2.69 1.994-4.028 3.005a.5.5 0 01-.603-.798 429.48 429.48 0 014.038-3.012.5.5 0 01.699.105zM627.232 88.442a.5.5 0 01.678-.202c1.466.791 2.93 1.588 4.391 2.388a.5.5 0 11-.481.877c-1.459-.8-2.92-1.594-4.385-2.385a.5.5 0 01-.203-.678zM18.461 92.115a.5.5 0 01-.09.701 431.309 431.309 0 00-3.913 3.064.5.5 0 01-.621-.784 434.705 434.705 0 013.923-3.07.5.5 0 01.701.089zM635.993 93.236a.5.5 0 01.68-.194 765.3 765.3 0 014.369 2.448.5.5 0 01-.491.87 799.272 799.272 0 00-4.364-2.444.5.5 0 01-.194-.68zM644.712 98.15a.5.5 0 01.682-.185c1.448.83 2.892 1.663 4.333 2.501a.499.499 0 11-.502.864c-1.44-.837-2.882-1.67-4.328-2.497a.5.5 0 01-.185-.683zM10.64 98.295a.5.5 0 01-.073.704 414.183 414.183 0 00-3.869 3.174.5.5 0 01-.638-.77c1.288-1.069 2.58-2.13 3.877-3.181a.5.5 0 01.703.073zM653.356 103.168a.501.501 0 01.685-.176c1.435.846 2.866 1.697 4.294 2.551a.5.5 0 11-.514.858 793.35 793.35 0 00-4.288-2.548.5.5 0 01-.177-.685zM661.93 108.292a.5.5 0 01.687-.168c1.428.868 2.853 1.739 4.275 2.614a.5.5 0 01-.525.852 704.295 704.295 0 00-4.269-2.611.5.5 0 01-.168-.687zM670.457 113.536a.5.5 0 01.689-.159 734.55 734.55 0 014.232 2.663.5.5 0 01-.535.845 768.933 768.933 0 00-4.227-2.66.499.499 0 01-.159-.689zM678.898 118.877a.5.5 0 01.691-.15c1.4.9 2.797 1.804 4.19 2.711a.501.501 0 01-.546.838 855.344 855.344 0 00-4.184-2.708.5.5 0 01-.151-.691zM687.277 124.33a.5.5 0 01.693-.141 773.35 773.35 0 014.17 2.776.5.5 0 01-.557.83 791.761 791.761 0 00-4.165-2.772.5.5 0 01-.141-.693zM695.592 129.896a.5.5 0 01.695-.132 748.27 748.27 0 014.123 2.822.5.5 0 11-.567.824 695.19 695.19 0 00-4.119-2.819.5.5 0 01-.132-.695zM703.814 135.555a.5.5 0 01.696-.123c.682.476 1.363.953 2.042 1.432.649.456 1.302.913 1.96 1.37a.5.5 0 11-.571.821c-.659-.458-1.314-.916-1.964-1.373-.679-.478-1.359-.955-2.04-1.431a.5.5 0 01-.123-.696zM711.825 141.118a.5.5 0 01.695-.133c1.355.919 2.73 1.839 4.124 2.762a.5.5 0 01-.552.834 462.99 462.99 0 01-4.134-2.769.5.5 0 01-.133-.694zM720.191 146.669a.5.5 0 01.691-.148c1.391.899 2.799 1.8 4.225 2.702a.501.501 0 01-.535.845 475.124 475.124 0 01-4.233-2.708.5.5 0 01-.148-.691zM728.538 151.965a.5.5 0 01.688-.162c1.389.861 2.793 1.723 4.213 2.586a.5.5 0 11-.52.854 531.922 531.922 0 01-4.22-2.59.499.499 0 01-.161-.688zM737.058 157.153a.5.5 0 01.685-.174 625.51 625.51 0 004.395 2.594.5.5 0 11-.504.863 571.443 571.443 0 01-4.403-2.598.5.5 0 01-.173-.685zM745.666 162.196a.5.5 0 01.682-.185c1.41.81 2.832 1.619 4.267 2.428a.5.5 0 11-.492.871 678.81 678.81 0 01-4.273-2.431.5.5 0 01-.184-.683zM754.277 167.063a.5.5 0 01.68-.195c1.459.809 2.931 1.618 4.416 2.427a.5.5 0 01-.479.878c-1.486-.81-2.96-1.62-4.422-2.431a.499.499 0 01-.195-.679zM763.142 171.903a.5.5 0 01.677-.205c1.423.763 2.857 1.526 4.302 2.288a.5.5 0 01-.467.884 772.532 772.532 0 01-4.308-2.29.5.5 0 01-.204-.677zM771.811 176.483a.501.501 0 01.675-.213c1.465.761 2.941 1.521 4.426 2.28a.5.5 0 11-.455.891 824.457 824.457 0 01-4.432-2.284.5.5 0 01-.214-.674zM780.729 181.048a.5.5 0 01.671-.222 827.85 827.85 0 004.52 2.257.5.5 0 01-.444.896 795.161 795.161 0 01-4.525-2.259.5.5 0 01-.222-.672zM789.633 185.468a.5.5 0 01.669-.23c1.469.718 2.948 1.434 4.434 2.149a.5.5 0 11-.433.901 840.97 840.97 0 01-4.44-2.151.5.5 0 01-.23-.669zM798.556 189.767a.5.5 0 01.666-.238c1.504.713 3.016 1.424 4.537 2.135a.499.499 0 11-.423.906 886.62 886.62 0 01-4.542-2.137.5.5 0 01-.238-.666zM807.682 194.035a.499.499 0 01.663-.245c1.485.683 2.977 1.365 4.477 2.045a.5.5 0 01-.414.911 902.656 902.656 0 01-4.481-2.048.499.499 0 01-.245-.663zM816.648 198.108a.499.499 0 01.66-.252c1.503.672 3.013 1.343 4.531 2.012a.5.5 0 11-.404.915c-1.519-.67-3.03-1.341-4.535-2.014a.5.5 0 01-.252-.661zM825.753 202.129a.5.5 0 01.658-.259c1.532.665 3.07 1.329 4.615 1.991a.5.5 0 11-.394.919 956.112 956.112 0 01-4.619-1.993.5.5 0 01-.26-.658zM834.979 206.087a.5.5 0 01.655-.266c1.503.635 3.013 1.268 4.529 1.9a.5.5 0 11-.384.923 924.377 924.377 0 01-4.534-1.902.498.498 0 01-.266-.655zM844.077 209.882a.5.5 0 01.653-.273c1.528.627 3.062 1.253 4.602 1.876a.5.5 0 11-.375.927c-1.542-.624-3.077-1.25-4.607-1.878a.5.5 0 01-.273-.652zM853.321 213.628a.5.5 0 01.649-.279c1.552.619 3.11 1.236 4.673 1.851a.501.501 0 01-.366.931 1036.51 1036.51 0 01-4.677-1.853.499.499 0 01-.279-.65zM862.625 217.293a.5.5 0 01.647-.286c1.528.593 3.061 1.183 4.599 1.77a.5.5 0 01-.357.935c-1.54-.589-3.074-1.179-4.604-1.772a.5.5 0 01-.285-.647zM1434.54 217.42c.15.228.1.539-.13.695-1.37.934-2.75 1.858-4.13 2.77a.509.509 0 01-.7-.142.504.504 0 01.15-.692c1.38-.91 2.75-1.831 4.11-2.763a.507.507 0 01.7.132zM871.856 220.825a.5.5 0 01.644-.291c1.549.583 3.102 1.164 4.66 1.742a.5.5 0 01-.348.938c-1.559-.579-3.114-1.161-4.664-1.744a.5.5 0 01-.292-.645zM1426.26 222.899a.5.5 0 01-.15.69c-1.41.894-2.81 1.776-4.23 2.648a.505.505 0 01-.69-.164.502.502 0 01.17-.688c1.41-.868 2.81-1.748 4.21-2.639a.5.5 0 01.69.153zM881.208 224.302a.5.5 0 01.642-.298c1.568.573 3.141 1.144 4.718 1.712a.5.5 0 11-.339.941 1082.95 1082.95 0 01-4.723-1.714.5.5 0 01-.298-.641zM890.601 227.69a.5.5 0 01.638-.304c1.548.55 3.1 1.096 4.657 1.641a.5.5 0 11-.331.944c-1.557-.545-3.111-1.092-4.661-1.642a.5.5 0 01-.303-.639zM1417.79 228.132c.14.237.06.544-.17.685-1.43.85-2.86 1.688-4.3 2.515a.509.509 0 01-.69-.184.508.508 0 01.19-.683c1.43-.825 2.86-1.66 4.29-2.507a.496.496 0 01.68.174zM899.942 230.961a.5.5 0 01.636-.31c1.565.539 3.134 1.075 4.707 1.609a.499.499 0 11-.321.947 1129.4 1129.4 0 01-4.712-1.61.5.5 0 01-.31-.636zM1409.17 233.101c.14.242.05.546-.19.68-1.45.806-2.91 1.6-4.38 2.384a.492.492 0 01-.67-.205.5.5 0 01.2-.676c1.46-.782 2.92-1.574 4.36-2.377a.5.5 0 01.68.194zM909.385 234.168a.5.5 0 01.633-.316c1.581.528 3.166 1.053 4.756 1.575a.5.5 0 01-.312.95c-1.591-.523-3.178-1.048-4.761-1.577a.5.5 0 01-.316-.632zM918.867 237.288a.5.5 0 01.63-.322c1.565.506 3.134 1.009 4.707 1.509a.5.5 0 01-.303.953c-1.574-.5-3.145-1.004-4.712-1.511a.5.5 0 01-.322-.629zM1400.41 237.81c.13.246.03.547-.22.674-1.47.761-2.95 1.511-4.43 2.251a.497.497 0 01-.67-.225.498.498 0 01.22-.67c1.48-.738 2.96-1.486 4.43-2.244a.498.498 0 01.67.214zM928.306 240.295a.5.5 0 01.626-.328c1.58.495 3.163.986 4.749 1.474a.5.5 0 01-.294.956c-1.588-.489-3.173-.981-4.754-1.475a.5.5 0 01-.327-.627zM1391.52 242.255c.12.249.02.548-.23.667-1.5.719-3 1.427-4.51 2.125a.497.497 0 01-.66-.244.495.495 0 01.24-.663c1.51-.696 3-1.402 4.49-2.119.25-.12.55-.015.67.234zM937.827 243.23a.5.5 0 01.624-.333c1.593.482 3.189.961 4.789 1.436a.5.5 0 01-.285.959c-1.601-.476-3.199-.956-4.794-1.438a.5.5 0 01-.334-.624zM947.397 246.081a.5.5 0 01.62-.339c1.582.462 3.166.92 4.753 1.376a.5.5 0 01-.276.961c-1.589-.456-3.174-.915-4.757-1.377a.502.502 0 01-.34-.621zM1382.5 246.449c.11.252 0 .548-.25.66-1.52.677-3.05 1.344-4.57 2a.502.502 0 01-.4-.919c1.53-.654 3.04-1.319 4.56-1.994a.5.5 0 01.66.253zM956.922 248.82a.5.5 0 01.617-.345c1.593.449 3.189.895 4.787 1.337a.5.5 0 01-.266.964 987.51 987.51 0 01-4.792-1.339.5.5 0 01-.346-.617zM1373.35 250.392a.491.491 0 01-.27.653c-1.53.632-3.06 1.254-4.6 1.866a.499.499 0 11-.37-.929c1.53-.61 3.06-1.23 4.59-1.861.25-.105.55.016.65.271zM966.516 251.48a.5.5 0 01.614-.351c1.603.435 3.21.867 4.819 1.296a.499.499 0 11-.257.966 999.994 999.994 0 01-4.824-1.297.5.5 0 01-.352-.614zM976.166 254.055a.5.5 0 01.61-.357c1.596.416 3.194.83 4.795 1.239a.5.5 0 01-.248.969c-1.602-.41-3.202-.824-4.799-1.241a.5.5 0 01-.358-.61zM1364.13 254.072c.1.258-.03.547-.29.646-1.55.592-3.1 1.174-4.66 1.747a.496.496 0 01-.64-.297.497.497 0 01.3-.642c1.55-.571 3.1-1.152 4.65-1.742.26-.099.54.03.64.288zM985.773 256.519a.5.5 0 01.606-.364c1.605.403 3.213.801 4.822 1.197a.5.5 0 11-.238.971c-1.611-.396-3.22-.795-4.827-1.198a.499.499 0 01-.363-.606zM1354.8 257.515a.504.504 0 01-.31.638c-1.57.553-3.14 1.096-4.72 1.63a.493.493 0 01-.63-.314.497.497 0 01.31-.633c1.57-.533 3.14-1.074 4.71-1.626.26-.092.54.045.64.305zM995.433 258.895a.5.5 0 01.603-.369c1.614.387 3.23.771 4.844 1.152.27.063.44.332.38.601a.507.507 0 01-.6.372 842.25 842.25 0 01-4.857-1.153.5.5 0 01-.37-.603zM1345.36 260.721a.503.503 0 01-.33.63c-1.57.51-3.14 1.01-4.72 1.501a.501.501 0 11-.3-.955c1.58-.49 3.15-.989 4.72-1.497.26-.085.54.058.63.321zM1005.15 261.182a.495.495 0 01.59-.376c1.62.371 3.23.737 4.85 1.099.27.061.44.328.37.598a.492.492 0 01-.59.378c-1.62-.363-3.24-.729-4.85-1.1a.49.49 0 01-.37-.599zM1014.84 263.361c.06-.27.32-.441.59-.382 1.62.354 3.24.704 4.86 1.05.27.058.44.324.38.594a.497.497 0 01-.59.384c-1.62-.346-3.24-.697-4.86-1.051a.498.498 0 01-.38-.595zM1335.89 263.675a.505.505 0 01-.34.622c-1.59.472-3.18.935-4.78 1.389a.502.502 0 01-.62-.344.504.504 0 01.35-.617c1.59-.453 3.18-.915 4.76-1.387.27-.078.55.072.63.337zM1024.56 265.443a.5.5 0 01.59-.387c1.63.338 3.25.672 4.88 1.001.27.055.44.319.39.59a.503.503 0 01-.59.39c-1.63-.33-3.26-.664-4.88-1.002a.507.507 0 01-.39-.592zM1326.31 266.408a.49.49 0 01-.35.613c-1.6.436-3.21.863-4.83 1.28a.504.504 0 01-.61-.358.515.515 0 01.36-.61c1.61-.416 3.22-.842 4.82-1.277.27-.072.54.085.61.352zM1034.32 267.428a.507.507 0 01.59-.394c1.63.321 3.26.638 4.89.951a.49.49 0 01.39.585.495.495 0 01-.58.397c-1.63-.313-3.26-.63-4.89-.952a.507.507 0 01-.4-.587zM1316.66 268.919a.5.5 0 01-.36.605c-1.61.395-3.21.782-4.83 1.16a.507.507 0 01-.6-.373.506.506 0 01.38-.601c1.6-.377 3.21-.763 4.81-1.157.26-.066.54.098.6.366zM1044.09 269.307c.05-.271.32-.45.59-.4 1.62.303 3.25.602 4.88.897a.5.5 0 11-.17.984c-1.64-.295-3.27-.594-4.9-.898a.5.5 0 01-.4-.583zM1053.88 271.081a.503.503 0 01.58-.406c1.63.286 3.27.567 4.9.844a.5.5 0 11-.17.986c-1.63-.277-3.27-.559-4.9-.845a.495.495 0 01-.41-.579zM1307.01 271.195a.5.5 0 01-.38.597c-1.62.361-3.24.713-4.86 1.056a.508.508 0 01-.6-.385.509.509 0 01.39-.593c1.62-.343 3.24-.694 4.85-1.054.27-.06.54.11.6.379zM1063.69 272.749c.05-.272.3-.457.58-.413 1.63.268 3.27.532 4.91.791.27.043.46.299.42.572a.509.509 0 01-.58.416c-1.64-.26-3.28-.523-4.91-.792a.502.502 0 01-.42-.574zM1297.27 273.266c.06.27-.12.534-.39.588-1.63.327-3.26.645-4.9.955a.506.506 0 01-.59-.398.504.504 0 01.4-.585c1.64-.309 3.27-.626 4.9-.952a.49.49 0 01.58.392zM1073.52 274.308c.05-.273.3-.461.57-.419 1.64.249 3.28.494 4.92.734a.5.5 0 01-.14.99c-1.65-.241-3.29-.486-4.93-.735a.505.505 0 01-.42-.57zM1287.47 275.132a.498.498 0 01-.4.58c-1.63.289-3.26.571-4.89.845a.492.492 0 01-.57-.41.49.49 0 01.41-.576c1.62-.273 3.25-.555 4.87-.844.27-.048.53.133.58.405zM1083.37 275.755a.498.498 0 01.56-.426c1.64.231 3.29.457 4.93.678.27.036.46.288.43.562a.507.507 0 01-.57.429c-1.64-.222-3.28-.448-4.93-.679a.497.497 0 01-.42-.564zM1277.7 276.783a.507.507 0 01-.42.571c-1.64.258-3.28.508-4.92.75a.5.5 0 01-.15-.989c1.64-.242 3.28-.491 4.91-.749.28-.043.53.144.58.417zM1093.23 277.087a.494.494 0 01.56-.432c1.64.211 3.28.418 4.93.619.27.033.47.283.43.557a.494.494 0 01-.55.436c-1.65-.202-3.3-.409-4.94-.62a.498.498 0 01-.43-.56zM1267.85 278.243a.495.495 0 01-.43.563c-1.64.227-3.29.445-4.95.656a.506.506 0 01-.56-.433.504.504 0 01.44-.559c1.65-.21 3.29-.428 4.94-.654a.5.5 0 01.56.427zM1103.1 278.303a.5.5 0 01.56-.439c1.64.192 3.29.379 4.94.56.28.03.47.278.44.552a.495.495 0 01-.55.442c-1.65-.182-3.3-.369-4.95-.561a.505.505 0 01-.44-.554zM1113 279.4a.498.498 0 01.55-.446c1.65.171 3.3.338 4.95.499.27.027.47.271.44.546a.493.493 0 01-.54.449c-1.65-.161-3.3-.328-4.96-.499a.499.499 0 01-.44-.549zM1257.95 279.516a.507.507 0 01-.44.555c-1.64.193-3.28.378-4.93.557a.503.503 0 01-.55-.444.502.502 0 01.45-.551c1.64-.177 3.28-.363 4.91-.556.28-.032.52.164.56.439zM1122.9 280.373a.497.497 0 01.54-.453c1.65.151 3.3.296 4.95.436.27.023.48.265.45.54a.495.495 0 01-.54.456c-1.65-.14-3.3-.285-4.95-.436a.498.498 0 01-.45-.543zM1248.09 280.593c.03.275-.17.52-.44.547-1.65.164-3.3.32-4.96.469a.505.505 0 01-.54-.454.503.503 0 01.45-.542c1.65-.149 3.3-.305 4.95-.468.27-.027.52.173.54.448zM1132.8 281.219a.5.5 0 01.54-.46c1.65.13 3.31.255 4.97.373a.5.5 0 01-.07.998c-1.66-.119-3.32-.244-4.98-.374a.498.498 0 01-.46-.537zM1238.19 281.495a.506.506 0 01-.46.538c-1.66.135-3.32.262-4.98.382a.493.493 0 01-.53-.463.494.494 0 01.46-.534c1.66-.12 3.31-.247 4.97-.381.27-.023.51.182.54.458zM1142.74 281.938a.503.503 0 01.53-.466c1.66.108 3.31.21 4.97.306.27.016.48.253.47.528a.501.501 0 01-.53.47c-1.66-.096-3.31-.198-4.97-.306a.499.499 0 01-.47-.532zM1228.23 282.223a.498.498 0 01-.47.531c-1.65.105-3.3.203-4.95.294a.5.5 0 11-.06-.999c1.65-.091 3.3-.188 4.95-.293.27-.018.51.192.53.467zM1152.68 282.524a.49.49 0 01.52-.474c1.65.085 3.31.165 4.96.238.27.012.49.246.48.522a.51.51 0 01-.53.477c-1.65-.074-3.31-.153-4.96-.238a.49.49 0 01-.47-.525zM1218.32 282.777c.02.276-.2.51-.47.523-1.66.077-3.31.148-4.97.212a.499.499 0 01-.52-.481.504.504 0 01.48-.519c1.66-.063 3.31-.134 4.96-.211.28-.013.51.2.52.476zM1162.59 282.972a.505.505 0 01.52-.481c1.66.062 3.32.119 4.98.169.28.008.49.239.48.515 0 .276-.23.493-.51.485-1.66-.051-3.32-.107-4.98-.17a.504.504 0 01-.49-.518zM1208.39 283.168a.5.5 0 01-.49.515c-1.66.05-3.32.094-4.98.131a.492.492 0 01-.51-.488.494.494 0 01.48-.511c1.66-.038 3.32-.081 4.98-.132.28-.008.51.209.52.485zM1172.56 283.282a.506.506 0 01.51-.489c1.66.039 3.32.071 4.98.097.27.005.49.232.49.508s-.23.497-.51.492c-1.66-.026-3.32-.058-4.98-.097a.496.496 0 01-.49-.511zM1198.41 283.399a.491.491 0 01-.49.507c-1.66.024-3.32.042-4.97.053a.502.502 0 01-.51-.497c0-.276.22-.501.5-.503 1.66-.011 3.31-.029 4.97-.053.27-.004.5.217.5.493zM1182.51 283.446a.506.506 0 01.51-.495c1.65.013 3.31.021 4.96.023.28 0 .5.224.5.5s-.22.5-.5.5c-1.66-.002-3.31-.01-4.97-.024a.502.502 0 01-.5-.504z" style="mix-blend-mode:multiply"/>
  <path fill="#E6C49E" d="M1440 69.88c-27.4 25.03-57.21 46.988-89.12 65.917-125.67 74.544-284.16 102.194-457.606 85.463-180.412-17.403-380.273-18.743-556.728 18.675C205.761 267.669 87.712 316.722 0 396.413v4.066c87.384-80.297 205.661-129.722 337.168-157.609 176.038-37.33 375.561-36.012 555.818-18.624 173.904 16.776 333.074-10.923 459.424-85.869 31.31-18.571 60.6-40.04 87.59-64.443v-4.053z"/>
</svg>
