<svg xmlns="http://www.w3.org/2000/svg" width="48" height="88" fill="none" viewBox="0 0 48 88">
  <path fill="#404141" d="M9.585 8.253a15.65 15.65 0 017.651-7.129A10.393 10.393 0 0122.924.047c4.182.84 3.596 7.92 11.089 11.802 7.493 3.881 10.218 3.944 11.897 13.323 1.584 8.84 5.386 37.766-10.994 57.03a15.841 15.841 0 01-10.883 5.67c-5.15.334-11.96-1.662-17.236-11.801-.048.016-16.982-30.1 2.788-67.818z" opacity=".19"/>
  <path fill="#404141" d="M24.049 59.96c6.36 0 11.517-7.135 11.517-15.937 0-8.801-5.157-15.937-11.517-15.937-6.361 0-11.517 7.136-11.517 15.937 0 8.802 5.156 15.937 11.517 15.937z"/>
</svg>
