<svg width="48" height="88" viewBox="0 0 48 88" fill="none" xmlns="http://www.w3.org/2000/svg">
<path opacity="0.19" d="M9.5846 8.25313C11.2423 5.06989 13.9434 2.55307 17.2359 1.12438C18.9913 0.233952 20.9637 -0.139896 22.9231 0.0468714C27.1053 0.886479 26.5192 7.96801 34.0123 11.8492C41.5054 15.7304 44.2302 15.7933 45.9094 25.1715C47.4936 34.0112 51.2957 62.9222 34.9154 82.2015C33.5697 83.8231 31.9141 85.1602 30.0453 86.134C28.1766 87.1079 26.1321 87.699 24.032 87.8729C18.8834 88.2056 12.0717 86.21 6.79645 76.0713C6.74893 76.0872 -10.1858 45.9721 9.5846 8.25313Z" fill="#404141"/>
<path d="M11.026 19.9759C11.026 19.9759 18.1865 8.79203 23.4618 11.1841C28.7371 13.5762 24.7133 15.699 28.6103 19.105C32.5074 22.5109 40.9193 21.3699 40.9193 34.566C40.9193 47.7621 41.5528 58.5504 34.0122 72.2534C26.4716 85.9564 14.2575 75.6119 11.2793 70.3683C8.14264 64.7604 0.855613 40.9978 11.026 19.9759Z" fill="#404141"/>
</svg>
