<svg width="181" height="139" viewBox="0 0 181 139" fill="none" xmlns="http://www.w3.org/2000/svg">
<path d="M113.608 130.665C113.749 131.146 113.893 131.647 114.167 132.076C115.326 133.889 117.131 135.221 118.799 136.638C119.42 137.166 120.277 137.548 121.101 137.807C122.568 138.269 124.116 138.384 125.667 138.228C127.676 138.026 129.689 137.837 131.687 137.574C132.611 137.452 133.528 137.222 134.408 136.944C136.978 136.13 139.577 135.313 142.353 135.849C143.796 136.128 145.171 135.931 146.577 135.93C147.19 135.929 147.806 135.81 148.416 135.839C151.127 135.968 153.791 135.824 156.408 135.143C157.254 134.923 158.102 135.035 159.004 135.379C160.357 135.895 161.718 136.638 163.331 136.272C163.482 136.238 163.706 136.338 163.857 136.427C164.77 136.97 165.818 137.02 166.855 137.114C169.377 137.343 172.004 136.115 173.14 134.137C173.939 132.747 174.353 131.342 173.767 129.725C173.45 128.852 173.152 128.028 172.312 127.509C171.547 127.036 170.695 126.591 169.807 126.371C167.489 125.798 165.144 125.289 162.781 124.892C161.835 124.733 160.806 124.881 159.829 124.985C158.706 125.103 157.607 125.375 156.485 125.495C155.018 125.652 153.538 125.727 151.941 125.846C152.079 125.602 152.109 125.47 152.201 125.397C153.421 124.421 153.648 123.172 153.41 121.817C153.245 120.876 153.016 119.943 152.79 119.01C152.132 116.288 151.457 113.568 150.795 110.846C150.648 110.242 151.034 109.793 151.732 109.77C152.105 109.759 152.49 109.862 152.855 109.82C153.991 109.688 155.098 109.673 156.211 110.019C156.525 110.117 156.946 110.018 157.293 109.932C157.649 109.844 157.971 109.656 158.313 109.521C158.778 109.338 159.125 109.401 159.315 109.876C159.643 110.696 160.115 111.362 161.237 111.509C162.141 111.626 162.913 112.133 163.947 111.989C164.978 111.846 166.023 111.899 166.864 111.235C166.992 111.134 167.212 111.061 167.382 111.073C168.58 111.157 169.521 110.738 170.517 110.182C171.776 109.478 173 108.817 173.305 107.442C173.528 106.436 173.678 105.404 173.719 104.378C173.783 102.813 172.856 101.658 171.138 101.159C170.02 100.834 169.261 100.252 168.708 99.351C168.288 98.6652 167.795 97.9923 167.212 97.4072C166.179 96.372 164.824 96.1014 163.688 96.8932C163.024 97.3552 162.499 97.2913 161.907 97.125C161.072 96.8909 160.361 97.1031 159.785 97.5306C159.393 97.8221 159.212 98.3323 159.001 98.6471C159.304 99.1134 159.507 99.4259 159.794 99.8686C158.336 100.183 157.024 100.49 155.699 100.744C154.104 101.051 152.497 101.312 150.95 101.584C150.945 99.889 150.942 98.0947 150.933 96.3003C150.926 95.0311 150.9 93.7615 150.902 92.4918C150.903 91.9943 150.898 91.4863 151.009 91.0046C151.063 90.7702 151.341 90.4524 151.583 90.3995C152.86 90.1215 154.159 89.9216 155.448 89.684C156.963 89.4047 158.55 89.5716 160.038 89.0298C160.951 88.6969 161.91 88.8596 162.91 89.1915C164.174 89.6107 165.504 89.8525 166.613 90.5945C166.752 90.6875 166.975 90.7088 167.162 90.7182C168.943 90.806 170.567 90.3239 172.146 89.6862C172.189 89.6691 172.235 89.6471 172.262 89.6158C172.656 89.1686 173.211 89.2093 173.786 89.1492C174.994 89.023 176.207 88.8393 177.372 88.5445C178.092 88.3624 178.644 87.9151 178.746 87.127C178.793 86.7624 179.113 86.3801 179.422 86.1031C179.807 85.7582 180.309 85.5144 180.749 85.2345C180.763 84.8722 180.891 84.5048 180.771 84.2145C180.154 82.7234 179.437 81.2668 177.879 80.3084C176.829 79.663 175.746 79.0598 174.689 78.424C174.024 78.0237 173.434 77.3879 172.711 77.2345C171.698 77.0198 171.107 76.3927 170.346 75.9303C170.151 75.8122 169.997 75.6433 169.805 75.5212C169.233 75.1583 168.679 75.014 167.961 75.3188C167.438 75.5413 166.773 75.6672 166.196 75.611C164.621 75.4567 163.203 75.7075 161.871 76.4867C161.767 77.097 161.663 77.7072 161.538 78.4402C161.067 78.4912 160.568 78.5606 160.066 78.5958C159.548 78.632 159.022 78.6052 158.506 78.6585C156.956 78.8186 155.415 79.0466 153.861 79.1699C151.461 79.3601 149.053 79.4847 146.65 79.6384C144.482 79.7773 142.309 79.8754 140.148 80.0685C137.33 80.3201 134.525 80.6652 131.71 80.9371C128.802 81.218 125.887 81.4518 122.977 81.7234C122.229 81.7931 121.493 81.9429 120.748 82.0311C119.537 82.1741 118.293 82.1948 117.116 82.4495C114.889 82.9316 112.907 82.826 110.974 81.4983C109.622 80.5687 108.294 81.0421 107.876 82.342C107.244 84.3059 108.023 86.2439 109.849 87.5919C110.782 88.281 111.701 89.0382 112.405 89.9022C113.51 91.2574 114.549 92.6271 115.89 93.8412C117.103 94.9403 118.238 95.8838 120.061 96.1948C122.163 96.5532 124.137 96.2561 126.141 95.8942C126.458 95.837 126.755 95.6872 127.072 95.6449C129.301 95.3481 131.554 95.2119 133.732 94.6203C135.31 94.1919 136.812 93.733 138.117 92.7908C139.012 92.1447 140.105 91.7447 141.45 92.0779C141.55 92.8296 141.604 93.5315 141.741 94.2216C142.235 96.6965 142.356 99.1818 142.147 101.678C142.092 102.339 141.942 102.996 141.923 103.658C141.898 104.568 141.977 105.481 141.973 106.393C141.967 108.059 141.884 109.726 141.924 111.391C141.964 113.052 142.25 114.717 142.19 116.372C142.091 119.096 142.552 121.748 143.222 124.39C143.36 124.936 143.561 125.47 143.724 125.984C141.241 126.106 138.834 126.211 136.43 126.345C133.458 126.509 130.471 126.582 127.573 127.263C127.259 127.336 126.921 127.364 126.593 127.365C123.847 127.372 121.281 128.052 118.748 128.878C118.275 129.032 117.644 129.297 117.284 129.145C116.334 128.742 115.509 129.224 114.632 129.226C113.814 129.227 113.393 129.93 113.608 130.665Z" fill="black"/>
<path d="M44.3399 47.5642C44.2479 48.6152 44.3745 49.7625 45.2298 50.345C47.3299 51.7754 49.4865 53.3869 52.2757 52.0647C53.0422 51.7011 53.8365 51.2975 54.4487 50.7298C55.3228 49.9203 56.0577 48.9562 56.8152 48.0282C57.0458 47.746 57.1707 47.3714 57.3167 47.0276C57.9944 45.4308 57.7306 43.7621 57.4326 42.1793C57.0351 40.0695 56.9592 37.9368 57.0606 35.849C57.172 33.5636 57.7907 31.2988 58.2405 29.0353C58.6502 26.9714 58.8675 26.8397 60.9544 27.0411C61.0416 27.0495 61.1229 27.1186 61.3138 27.211C61.5492 29.7147 61.0897 32.219 60.8427 34.9033C59.7171 34.5804 59.1436 35.1335 58.7878 35.9049C58.9647 36.6872 59.3606 37.4305 59.2237 38.0576C58.9864 39.1461 59.3612 39.9643 59.9244 40.7473C60.4245 41.4428 60.4723 42.0108 59.8914 42.6785C59.7119 42.8848 59.6202 43.3708 59.7393 43.5955C60.0955 44.2668 60.4604 45.0179 61.0332 45.4712C62.081 46.3004 63.265 46.9633 64.4203 47.6488C65.4949 48.2865 67.3687 47.8616 67.8572 46.7744C68.4258 45.5103 68.831 44.1687 69.2408 42.8403C69.3451 42.5025 69.2569 42.0708 69.1575 41.7098C68.388 38.9129 68.6134 36.1816 69.6909 33.5151C69.9583 32.8539 70.4778 32.2804 70.6712 31.6062C71.2133 29.7153 71.6999 27.8041 72.1019 25.8787C72.3625 24.6298 71.9763 23.3966 71.6386 22.1942C71.5388 21.8393 71.3454 21.4554 71.079 21.2116C69.2941 19.5765 67.276 18.4231 64.771 18.3934C64.1798 18.3863 63.7012 18.2791 63.2004 17.8597C62.5317 17.2995 61.6622 17.0847 60.7471 17.2123C60.244 17.2824 59.7329 17.2985 59.1833 17.3421C59.1342 17.0563 59.0425 16.86 59.081 16.6934C59.3716 15.4283 59.637 14.1538 60.0086 12.9117C60.4391 11.4742 60.1756 10.0709 59.5637 8.8442C58.8614 7.43671 57.8168 6.19809 56.8998 4.90103C56.4268 4.23168 55.8372 3.63626 55.4242 2.93462C54.4126 1.21651 53.1168 -0.016621 50.7629 0.000169395C50.5589 0.343081 50.1565 0.784799 50.0158 1.29852C49.6108 2.77479 49.2386 4.26816 48.988 5.77704C48.6021 8.10219 48.3183 10.4451 48.0099 12.7825C47.7981 14.3883 47.6176 15.9979 47.4103 17.7105C46.7549 17.7105 46.2302 17.7031 45.7061 17.7118C44.1113 17.7392 42.5137 17.7199 40.9228 17.8151C37.0745 18.045 33.2289 18.3175 29.3839 18.5969C27.1272 18.7609 24.8673 18.9155 22.6212 19.1803C21.0943 19.3605 19.5922 19.7425 18.0739 20.003C15.0888 20.5155 12.0939 20.975 9.11397 21.5155C6.71585 21.9504 4.52276 22.9456 2.49338 24.2701C1.6629 24.8119 0.93768 25.5145 0 26.2781C0.291572 26.623 0.549241 27.0828 0.938326 27.3547C1.76848 27.9349 2.01194 28.6598 1.77817 29.6097C1.71198 29.8794 1.59412 30.2404 1.71004 30.4331C2.39005 31.5629 1.89764 32.5381 1.46819 33.4225C1.79948 34.1018 2.0268 34.6007 2.28414 35.0837C2.43074 35.3585 2.56667 35.7063 2.80884 35.8522C4.69938 36.9885 6.38423 38.4777 8.57248 39.1134C9.1327 39.2762 9.67839 39.7092 10.081 40.1535C11.5809 41.8096 14.1291 42.3007 15.9008 41.6375C16.5095 41.4095 17.0135 41.4693 17.5654 41.551C18.846 41.7405 20.1146 42.0327 21.4004 42.158C23.9835 42.4095 26.5737 42.5884 29.1627 42.777C31.1947 42.9249 32.9803 42.3278 34.7491 41.2784C36.4675 40.2591 37.492 38.9346 37.8162 37.015C38.0594 35.5762 38.9325 34.6249 40.1433 33.9188C40.5595 33.6763 40.9712 33.4254 41.3826 33.1748C42.6444 32.4063 43.9053 31.6359 45.1892 30.8526C46.0216 31.623 45.9418 32.5817 45.8191 33.4351C45.5673 35.1919 45.1494 36.9242 44.8207 38.6708C44.7235 39.1867 44.688 39.7147 44.6377 40.2387C44.4449 42.25 45.0732 44.2723 44.5502 46.2817C44.4426 46.7005 44.3774 47.1341 44.3399 47.5642Z" fill="black"/>
<path d="M79.296 89.1273C80.1239 88.7637 80.9727 88.7308 81.8859 89.3336C83.109 90.1408 84.6618 90.1773 85.9027 89.538C87.3773 88.7782 88.6779 87.6345 88.8271 85.7301C88.8972 84.8347 89.2088 84.0795 89.9727 83.5038C90.8026 82.8783 91.3357 82.023 91.3612 80.9465C91.3928 79.6097 91.4464 78.2687 91.3722 76.9358C91.2901 75.4583 91.1816 73.9665 90.8923 72.5196C90.4442 70.2791 90.6127 68.0224 90.4726 65.7757C90.3205 63.3453 90.8988 60.921 90.2562 58.4709C89.83 56.8445 89.1019 55.5539 87.8355 54.5177C85.9166 52.9468 83.655 52.3566 81.2404 52.3831C78.5559 52.4124 75.8581 52.4308 73.1933 52.7098C70.6127 52.9798 68.0606 53.5451 65.5068 54.0379C63.9008 54.3479 62.3147 54.7631 60.7203 55.1325C59.7439 55.3588 58.8255 55.4153 58.0387 54.5865C57.7545 54.2871 57.3109 54.1386 56.9993 53.9562C55.3586 54.9959 54.4158 56.5096 53.8714 58.2329C53.2931 60.0627 52.8998 61.951 52.4197 63.8122C51.7632 66.3556 51.8378 68.9765 51.6092 71.5638C51.5033 72.7618 51.3393 74.0136 51.5643 75.1702C52.0952 77.9013 52.8227 80.5952 53.5104 83.2942C54.0923 85.5767 55.6015 86.8683 57.9108 87.2794C58.4197 87.3701 59.0022 87.4689 59.3832 87.7737C60.2427 88.4618 61.1765 88.6255 62.2243 88.5751C63.7616 88.5012 65.3141 88.3375 66.8368 88.4737C68.4939 88.6223 70.1242 89.0698 71.7661 89.3872C74.2944 89.8757 76.8019 90.2228 79.296 89.1273ZM61.8197 65.2122C61.656 64.6149 61.5453 64.003 61.3964 63.3175C61.6586 63.1838 61.8888 63.0185 62.1455 62.9436C64.5404 62.2432 66.9224 61.4854 69.3441 60.8916C71.44 60.3779 73.5711 59.9646 75.7106 59.6972C76.503 59.5981 77.44 59.8922 78.1746 60.2716C79.3689 60.8887 80.461 61.6759 81.8494 61.8671C82.4984 61.9562 82.4881 62.0327 82.5052 63.3246C82.048 63.3246 81.5917 63.3459 81.1378 63.3204C80.0861 63.2613 79.0151 63.0114 77.9886 63.138C74.7406 63.5393 71.5001 64.0246 68.275 64.5839C66.287 64.9287 64.3325 65.4673 62.2711 65.94C62.0667 65.6191 61.8801 65.4328 61.8197 65.2122ZM64.3644 72.9277C64.2566 72.3191 64.1733 71.8509 64.0541 71.1777C65.2114 70.8948 66.3451 70.5367 67.5062 70.3556C68.8326 70.1486 70.1917 70.1534 71.5223 69.9671C73.0415 69.7544 74.5714 69.5296 76.0496 69.1347C78.1972 68.5609 80.3341 68.9384 82.5462 68.8451C82.5462 69.7237 82.5462 70.4712 82.5462 71.4118C81.8672 71.4118 81.2453 71.5251 80.6815 71.3921C78.2689 70.8238 75.9024 71.322 73.5375 71.6462C70.8749 72.011 68.2301 72.5022 65.5746 72.9197C65.2059 72.9778 64.8204 72.9277 64.3644 72.9277ZM65.5608 82.641C65.5608 80.7195 65.5608 79.0688 65.5608 77.3788C65.5459 77.3898 65.5892 77.3314 65.6228 77.3365C67.0583 77.5548 68.4358 77.0301 69.8407 77.0017C70.9844 76.9788 72.1384 77.1973 73.2792 77.3662C74.6082 77.5629 75.9221 78.0459 77.2782 77.7272C78.438 77.4547 79.5695 77.0601 80.7109 76.7107C81.1533 76.5755 81.5882 76.4163 82.1994 76.2096C82.314 77.8447 82.4171 79.3136 82.5255 80.8596C79.7193 81.6119 76.8042 81.2099 73.9618 81.5929C71.1552 81.971 68.3415 82.2965 65.5608 82.641Z" fill="black"/>
<path d="M99.8782 45.5884C100.914 45.5316 101.541 44.84 102.009 44.0573C102.479 43.2697 102.858 42.4702 103.667 41.921C103.94 41.736 103.987 41.1567 104.054 40.7444C104.194 39.8919 104.271 39.0295 104.386 38.1729C104.494 37.3702 104.668 36.5733 104.724 35.768C104.838 34.0905 104.911 32.4099 104.967 30.7292C105.007 29.5387 105.152 28.3191 104.959 27.1609C104.701 25.613 104.365 23.9821 102.969 22.9717C101.724 22.0709 100.413 21.2543 99.0877 20.4741C98.3222 20.0237 97.4804 19.8484 96.5982 20.3104C95.7529 20.7531 94.8569 20.7547 93.9179 20.5636C93.3751 20.4532 92.782 20.5307 92.2188 20.5923C91.214 20.7021 90.2134 20.8529 89.214 21.0063C87.4084 21.2833 85.6018 21.5555 83.8023 21.8694C82.9489 22.0182 82.0826 22.1787 81.2737 22.4758C79.8856 22.9856 78.68 22.9953 77.8117 21.4993C77.6338 22.0124 77.5069 22.3782 77.3038 22.9633C76.7119 22.3133 76.2712 21.8296 75.637 21.1335C75.3994 21.5726 75.1769 21.9149 75.0248 22.2859C74.8821 22.634 74.8327 23.0192 74.709 23.3763C74.3965 24.2772 73.9325 25.149 73.7736 26.0747C73.5628 27.303 73.5414 28.5704 73.5175 29.8222C73.4885 31.3537 73.3965 32.9055 73.5905 34.415C73.9212 36.9853 74.2796 39.5503 74.9838 42.0721C75.5618 44.1415 76.585 45.7205 78.3674 46.8835C79.7894 47.8115 81.3793 47.6685 82.9409 47.7557C84.4255 47.8383 85.9383 47.7554 87.389 48.0185C89.2802 48.3614 91.1313 48.3091 92.8753 47.6475C95.029 46.8303 97.4723 47.0033 99.4516 45.6469C99.5579 45.5739 99.7342 45.5962 99.8782 45.5884ZM96.8956 33.4257C96.8637 33.8096 96.8817 34.1984 96.8921 34.5846C96.9144 35.4086 96.5111 35.9436 95.79 36.2933C92.9712 37.6611 90.0474 38.7305 86.8456 39.4815C86.4397 37.9827 86.0803 36.5926 85.6822 35.2139C85.4827 34.5226 85.2353 33.8429 84.9699 33.1735C84.4743 31.9236 84.9476 30.9775 86.1914 30.4489C87.2034 30.0192 88.2269 29.931 89.2963 29.8891C90.2444 29.8516 91.2056 29.7476 92.1259 29.5268C93.0551 29.304 93.7907 29.7534 94.6221 29.9204C96.6861 30.3337 97.0416 31.6692 96.8956 33.4257Z" fill="black"/>
<path d="M46.4252 103.719C46.9254 105.665 47.8566 107.482 49.2579 108.786C51.0752 110.477 53.378 111.429 56.0119 110.759C56.8717 110.541 57.7116 110.596 58.5786 110.756C59.9902 111.016 61.3225 110.771 62.4843 109.868C63.1271 109.368 63.7516 108.844 64.3984 108.35C66.2059 106.967 67.7829 105.532 68.0025 102.978C68.2566 100.023 67.0177 97.4737 64.3289 96.3824C63.6583 96.1102 63.1636 95.7572 62.8846 95.0872C62.7368 94.7317 62.5253 94.4033 62.3503 94.0588C61.5098 92.4066 60.1236 91.7986 58.4255 92.7518C57.854 93.0727 57.2883 93.0692 56.7623 92.8044C55.1297 91.9817 53.6128 92.1144 52.1869 93.2432C50.8107 94.3326 49.3332 95.3042 48.328 96.8092C47.6964 97.7546 47.2589 97.7853 45.8069 97.0763C45.6557 97.7999 45.6089 98.423 45.3923 98.9803C44.9451 100.129 45.2027 101.136 45.7759 102.151C46.0519 102.641 46.2854 103.175 46.4252 103.719Z" fill="black"/>
<path d="M116.686 112.951C116.627 113.559 116.58 114.013 116.537 114.468C116.345 116.524 116.335 118.556 117.215 120.543C117.719 121.68 118.852 122.271 119.821 122.951C120.356 123.326 121.249 123.337 122.093 123.256C123.281 123.142 124.553 123.204 125.71 123.466C126.507 123.646 127.084 123.49 127.731 123.261C128.426 123.014 129.185 122.842 129.227 121.972C129.235 121.803 129.576 121.64 129.781 121.493C130.026 121.318 130.344 121.202 130.536 120.994C132.314 119.069 133.391 116.854 133.64 114.386C133.709 113.706 133.46 112.742 132.932 112.312C131.211 110.911 129.664 109.354 127.832 108.042C126.638 107.186 125.409 107.041 124.017 107.048C122.491 107.057 121.192 107.704 119.886 108.215C118.666 108.693 117.787 109.777 117.913 110.943C118.029 112.021 117.729 112.597 116.686 112.951Z" fill="black"/>
<path d="M80.8516 106.882C81.6924 106.895 82.4399 107.366 82.6188 108.145C83.0243 109.912 84.7796 109.247 85.7024 110.028C86.8865 109.578 88.273 109.544 89.1864 108.54C89.7547 107.915 90.0841 107.072 90.6598 106.457C92.2604 104.747 93.0405 102.667 93.5293 100.45C93.8493 98.9997 92.8845 97.3662 91.6249 96.7436C90.4341 96.1547 89.3362 95.3794 88.1832 94.7104C87.8232 94.5014 87.4028 94.2041 87.0343 94.2347C85.2691 94.3823 83.5122 94.6287 81.8574 94.8272C81.5749 95.3151 81.4031 95.8808 81.0256 96.2125C79.9326 97.1734 79.9307 98.5318 79.8206 99.7384C79.7228 100.812 79.7286 101.977 79.3053 102.883C78.7283 104.119 79.2759 105.017 79.6504 106.005C79.8319 106.483 80.1923 106.873 80.8516 106.882Z" fill="black"/>
</svg>
