<svg width="121" height="163" viewBox="0 0 121 163" fill="none" xmlns="http://www.w3.org/2000/svg">
<path d="M8.20489 67.5018C8.35362 67.4727 8.51546 67.4168 8.64178 67.4378C9.26816 67.5417 9.82847 67.1319 10.3966 66.6027C11.147 65.9035 11.7801 65.106 12.4143 64.2913C13.3484 63.0912 13.8394 61.897 13.7716 60.6471C13.702 59.3655 13.6325 58.0839 13.5708 56.7989C13.5268 55.8776 13.5775 54.9637 14.0697 53.9059C14.3328 53.3407 14.5458 52.7518 14.8314 52.1784C14.9199 52.0009 14.94 51.807 14.9961 51.6204C15.0855 51.3241 15.1536 51.0243 15.2753 50.7318C15.9206 49.1789 14.4076 50.4757 15.0348 48.9211C15.4447 47.9058 15.7177 45.5685 16.1144 44.5512C16.1948 44.3449 16.9373 43.3247 17.1195 43.1966C17.6862 42.7975 19.9711 41.6571 20.5547 41.3189C22.1943 40.3685 23.8601 39.5116 25.4415 37.994C25.3975 38.5007 25.3705 38.9016 25.3262 39.3064C25.1952 40.5074 25.082 41.7049 24.9114 42.9148C24.8346 43.4594 24.5846 44.0433 24.5086 44.5876C24.3869 45.4567 24.322 46.3154 24.2821 47.1621C24.2685 47.4535 24.3666 47.7245 24.4777 47.9535C24.6003 48.2065 24.8125 48.3861 24.9566 48.6239C25.3216 49.2264 25.7296 49.7992 26.0091 50.4675C26.3019 51.1675 26.5554 51.8766 27.2106 52.232C27.4106 52.3406 27.55 52.5379 27.7299 52.6785C28.0384 52.9192 28.3411 53.1692 28.6747 53.375C29.2257 53.715 29.9443 53.6323 30.6633 53.5855C31.3811 53.5389 32.0485 53.2484 32.66 52.6366C33.2055 52.0911 33.6622 51.435 34.1951 50.8701C35.0293 49.9858 35.1766 49.0098 35.4039 48.0618C35.5358 47.5123 35.5236 46.9726 35.5314 46.4449C35.5349 46.2112 35.4665 45.983 35.362 45.8148C35.1169 45.4201 34.8291 45.0638 34.5604 44.6901C34.3078 44.3393 34.3345 43.8105 34.2082 43.3884C34.042 42.8339 33.9169 42.2189 34.0379 41.6158C34.2359 40.6282 34.2495 39.8065 33.9035 39.0715C33.6089 38.446 33.8942 37.5661 34.0013 36.7855C34.1448 35.7402 34.3241 34.6758 34.749 33.5916C35.0963 32.7055 35.4694 31.8216 35.8009 30.9347C36.5065 29.0474 37.1827 27.158 37.8903 25.271C38.2832 24.2226 38.7204 23.1777 39.1273 22.1301C39.6384 20.8142 40.1056 19.4927 40.6604 18.1829C40.8792 17.6662 40.918 17.2777 40.739 16.9325C40.383 16.2461 39.8893 15.7068 39.1788 15.4329C38.6543 15.2306 38.3606 14.6717 37.6865 14.6999C37.6094 14.7031 37.5762 14.576 37.5049 14.5355C37.3719 14.4601 37.2255 14.4042 37.0121 14.307C37.0569 14.5911 37.0846 14.7651 37.1308 15.0585C36.8567 14.941 36.6771 14.8641 36.6267 14.8426C36.0687 15.1831 35.6449 15.5344 35.2299 15.6747C34.5392 15.9085 34.0868 16.49 33.7146 17.0588C32.7086 18.5956 31.781 20.1706 31.1098 21.8274C30.6525 22.9564 30.1504 24.0806 29.6821 25.2087C28.9241 27.0343 28.1444 28.8573 27.6492 30.7018C27.4336 31.5058 27.148 32.3149 26.8898 33.1355C26.2789 32.9917 25.7305 32.8031 25.1327 32.7364C24.2749 32.6412 23.4648 32.3795 22.421 32.8665C21.6608 33.2213 18.9882 34.6496 18.1391 34.9826C18.3245 34.1455 19.4338 31.4991 19.6058 30.6739C20.0025 28.7717 21.5196 27.5097 22.2024 25.5909C22.3835 25.0824 22.4889 24.5623 22.7194 24.0654C24.5377 20.1499 26.1796 17.0943 28.2049 13.7187C30.9922 9.07385 27.5404 4.43245 23.5757 6.64778C18.7512 9.34367 14.1497 17.2197 11.8165 21.6361C7.46673 29.8705 4.75134 38.4434 2.2461 46.8472C1.20902 50.3258 0.0447354 53.8876 0.00107483 57.1607C-0.064707 62.1237 2.8914 68.5403 8.20489 67.5018Z" fill="black"/>
<path d="M34.9227 142.481C35.5349 142.044 36.1205 141.549 36.5382 140.846C36.6409 140.673 36.7952 140.447 36.9387 140.379C37.664 140.032 37.9507 139.316 38.3416 138.699C38.477 138.485 38.4584 138.176 38.608 137.995C39.0949 137.403 39.455 136.733 40.0677 136.208C41.1077 135.317 41.9413 134.192 42.8029 133.092C43.9386 131.643 45.1629 130.261 46.3536 128.855C46.6249 128.534 46.9826 128.257 47.1829 127.914C47.8678 126.739 48.8126 125.959 49.8389 125.197C50.6024 124.63 51.3743 123.966 52.0106 123.223C53.7064 121.244 55.6012 119.77 57.703 118.646C58.2992 118.327 58.8924 117.856 59.4378 117.372C60.4426 116.482 60.9764 115.292 61.5001 114.161C61.8881 113.323 62.0455 112.443 62.3674 111.586C62.5377 111.133 62.5849 110.768 62.554 110.355C62.5185 109.882 62.3273 109.656 61.9666 109.516C61.6791 109.404 61.4823 109.13 61.1857 109.041C60.5826 108.861 59.9734 108.652 59.3022 108.656C58.7163 108.659 58.1688 108.654 57.7159 108.381C57.5785 108.298 57.3913 108.248 57.2074 108.275C56.2541 108.413 55.4525 108.284 54.9283 107.605C54.8605 107.518 54.7196 107.503 54.5938 107.447C54.262 107.936 53.9619 108.378 53.663 108.818C52.935 109.032 52.2417 109.438 51.5551 109.927C51.103 110.249 50.7319 110.588 50.6568 111.157C50.6417 111.273 50.5573 111.439 50.465 111.534C49.6771 112.35 49.0722 113.291 48.4307 114.213C47.8302 115.076 47.1599 115.897 46.5396 116.749C45.9371 117.577 45.3809 118.425 44.6459 119.164C43.8434 119.97 43.0849 120.836 42.3258 121.694C41.4054 122.736 40.5162 123.807 39.593 124.845C38.2913 126.308 36.9789 127.76 35.653 129.197C35.2551 129.628 34.7967 129.994 34.2611 130.486C34.2224 129.933 34.1625 129.512 34.1689 129.065C34.1776 128.487 34.2408 127.888 34.278 127.299C34.3089 126.81 34.3962 126.292 34.3522 125.838C34.2472 124.754 34.4189 123.606 34.6747 122.424C34.8418 121.653 34.9358 120.891 35.0974 120.121C35.2391 119.444 35.2522 118.786 35.7683 118.076C36.5326 117.024 36.8089 115.856 36.9006 114.818C37.0199 113.468 36.8421 112.209 35.9234 111.486C35.8134 111.4 35.7409 111.261 35.6696 111.13C35.3081 110.466 34.9402 109.811 34.2504 109.492C34.1584 109.45 34.0277 109.391 34.0262 109.295C34.0184 108.769 33.6438 108.618 33.3175 108.455C32.3372 107.967 31.4637 107.357 30.8285 106.44C30.7354 106.306 30.5715 106.237 30.4379 106.142C29.6852 105.602 28.7314 105.537 27.664 105.709C27.2708 105.773 27.0234 105.95 26.7879 106.379C26.3944 107.095 26.0495 107.86 25.3256 108.366C25.2132 108.444 25.0982 108.58 25.0281 108.704C24.5688 109.521 23.9054 110.005 23.1792 110.436C22.9659 110.562 22.6678 110.859 22.6172 111.059C22.4955 111.538 22.5351 112.009 22.0839 112.46C21.9617 113.455 22.0132 114.379 22.3014 115.175C22.4649 115.627 22.6288 116.06 22.5159 116.644C22.3046 117.737 22.0711 118.834 21.8679 119.925C21.7399 120.613 21.6342 121.297 21.5481 121.975C21.4785 122.525 21.4616 123.061 21.4069 123.607C21.3263 124.412 21.1976 125.233 21.1542 126.026C21.1065 126.898 21.1132 127.754 21.1304 128.604C21.1569 129.926 20.8783 131.37 21.1927 132.579C21.2733 132.89 21.3184 133.223 21.3792 133.546C21.6086 134.768 21.7486 136.03 22.2688 137.089C22.8806 138.334 23.6446 139.414 24.5732 140.342C25.116 140.885 25.6961 141.387 26.2913 141.868C26.5411 142.07 26.5516 142.334 26.4273 142.719C25.8367 144.552 25.2062 146.389 24.6861 148.219C24.0737 150.374 23.5675 152.522 22.9988 154.674C22.8078 155.398 22.6326 156.136 22.3252 156.848C22.1308 157.298 21.7739 157.7 22.012 158.103C22.0452 158.16 21.9265 158.353 21.8732 158.482C21.6788 158.951 21.6718 159.319 21.9925 159.542C22.1069 159.622 22.1916 159.753 22.2533 159.89C22.5849 160.624 22.88 161.389 23.236 162.104C23.6496 162.935 24.3394 163.278 25.4801 162.74C25.6711 162.65 25.8684 162.639 26.0631 162.585C26.2747 162.526 26.4866 162.474 26.6988 162.395C27.0161 162.277 27.3351 162.116 27.6512 162.012C28.27 161.809 28.8868 161.647 29.5056 161.436C29.6599 161.383 29.8226 161.214 29.9751 161.088C30.3818 160.749 30.8018 160.216 31.1857 160.105C31.8269 159.92 32.097 159.397 32.4187 158.935C32.6268 158.636 32.6632 158.244 32.809 157.898C33.3137 156.704 33.3868 155.599 33.3367 154.529C33.2936 153.612 33.1952 152.72 33.1335 151.812C32.9606 149.277 33.3198 146.602 34.0236 143.838C34.1578 143.313 34.4119 142.846 34.9227 142.481Z" fill="black"/>
<path d="M16.9142 83.8892C17.0591 83.367 17.296 82.8081 17.5906 82.3159C18.2557 81.2049 18.9813 80.1247 19.684 79.0329C19.9168 78.6714 20.1535 78.3123 20.4766 77.8166C20.5784 78.1458 20.662 78.3385 20.7021 78.5579C20.891 79.5903 21.0401 80.6481 21.2552 81.6636C21.6862 83.6991 22.1814 85.6941 22.5941 87.7412C23.0709 90.1058 23.5034 92.4993 23.9234 94.8998C24.1059 95.943 24.3021 96.9666 24.9454 97.6315C25.1136 97.8052 25.4245 97.8009 25.6154 97.9531C26.2095 98.4264 26.9593 98.615 27.726 98.7407C28.4987 98.8676 29.333 98.8487 30.1494 98.8667C30.4961 98.8746 30.8273 98.6537 31.1469 98.2881C31.4263 97.9688 31.7433 97.6937 32.14 97.3046C32.3694 96.9469 32.7629 96.4713 32.9827 95.9622C33.3858 95.0281 34.2093 94.6791 34.7506 93.9605C34.7856 93.9142 34.8831 93.9127 34.9492 93.9026C35.3395 93.8417 35.6407 93.5233 35.9012 93.1469C36.2045 92.7089 36.4682 92.242 36.7774 91.8089C37.3921 90.9476 37.9626 90.0127 38.6673 89.2702C39.6124 88.2744 38.8256 88.3131 39.4049 87.1308C40.7097 84.4675 42.7073 80.7104 42.6884 78.2142C42.8887 76.6043 43.0194 76.5516 44.1321 73.8344C44.2797 73.6126 44.4325 73.3885 44.5521 73.1554C45.0158 72.2513 45.4041 71.3641 45.0528 70.5852C44.9457 70.3471 46.695 67.9327 46.7526 67.6041C46.8589 66.9972 47.0024 66.3833 47.1217 65.7741C47.2093 65.3262 47.2474 64.8823 47.3735 64.4332C47.4928 64.0076 47.5702 63.6423 47.3706 63.3513C47.3004 63.2494 47.3182 63.0357 47.3423 62.8617C47.4631 61.9975 47.6363 61.1187 47.7228 60.2656C47.9067 58.4464 47.2 57.3666 46.0756 56.6648C45.8451 56.5207 45.5639 56.4543 45.2999 56.3499C44.9963 56.6665 44.9873 56.6907 44.661 56.6578C44.3967 56.6313 44.2215 56.7006 43.9924 57.0475C43.7043 57.4839 43.4068 57.6527 43.0764 57.7295C42.7568 58.3655 42.4486 58.9884 42.1313 59.6084C40.7595 62.2891 39.636 65.0133 38.6577 67.7659C38.4577 68.3283 36.1612 73.61 35.9286 74.1511C35.3791 75.4295 34.7917 76.7131 34.1147 77.9528C32.625 80.6801 31.123 83.3993 29.8548 86.202C29.6712 86.6075 29.4293 86.9998 29.1772 87.467C29.0713 85.9904 28.9997 84.6049 28.8637 83.2535C28.7872 82.4923 28.8521 81.7114 29.0719 80.8658C29.2107 80.3317 29.3592 79.7877 29.4209 79.271C29.5329 78.3277 29.4954 77.446 29.3181 76.6264C29.2366 76.2494 29.2238 75.8207 29.2325 75.3946C29.2515 74.4623 29.3201 73.5105 29.3385 72.5788C29.3685 71.055 29.1656 69.6937 28.215 68.8787C28.1559 68.828 28.1297 68.7349 28.0825 68.6676C27.6724 68.0814 27.0932 67.763 26.3739 67.6536C25.5825 67.5331 24.7355 67.6736 23.8556 67.8919C22.5659 68.2124 21.2907 68.4287 20.0015 68.7451C19.5256 68.8621 19.0189 69.0789 18.5427 69.3566C18.164 69.5778 17.8013 69.9449 17.4468 70.2752C16.7529 70.9226 16.0511 71.5632 15.3866 72.2548C14.4738 73.2043 13.5866 74.1971 12.866 75.3425C12.1563 76.4698 11.4703 77.6105 10.7702 78.7433C10.0542 79.9024 9.37806 81.0684 8.80087 82.2938C7.61039 84.8203 6.59572 87.3517 5.91141 89.9292C5.63286 90.9782 5.28328 92.0356 4.91595 93.0864C4.37951 94.6215 3.74585 96.1528 3.46468 97.6891C3.2359 98.9386 2.9815 100.193 2.75883 101.442C2.64997 102.052 2.54839 102.668 2.51724 103.255C2.49309 103.706 2.67879 104.097 2.60457 104.55C2.4372 105.574 2.49134 106.467 2.65608 107.347C2.75126 107.853 2.78939 108.389 3.24172 108.507C3.57325 108.593 3.74265 108.964 4.17838 108.857C4.43016 108.795 4.63129 108.819 4.74975 109.086C4.83009 109.267 5.05247 109.378 5.37788 109.149C5.53652 109.038 5.84156 108.959 5.89308 109.045C6.07092 109.345 6.36199 109.109 6.62541 109.033C6.80995 108.98 7.06114 108.839 7.16534 108.91C7.65725 109.243 8.26879 108.872 8.8649 108.651C9.16616 108.539 9.46421 108.503 9.76547 108.411C10.0362 108.328 10.3121 108.247 10.5811 108.109C11.238 107.772 11.6283 107.053 12.0975 106.461C13.0843 105.214 13.504 103.974 13.1844 102.756C12.9998 102.053 12.9914 101.301 13.5331 100.423C14.2974 99.1846 14.6688 97.8943 15.026 96.6072C15.2079 95.9511 15.2393 95.3477 15.0822 94.8043C14.9646 94.3977 15.014 93.9124 15.0891 93.4022C15.2396 92.3794 15.6369 91.2995 15.5508 90.3297C15.5121 89.8966 15.5237 89.4378 15.5057 88.9937C15.4576 87.7933 15.4134 87.7857 15.9883 86.4579C16.3608 85.5969 16.6734 84.7557 16.9142 83.8892Z" fill="black"/>
<path d="M96.5144 22.1977C97.5236 20.7962 98.3601 19.2434 98.8808 17.6559C99.0293 17.203 99.1565 16.7253 99.1719 16.3006C99.2461 14.2506 98.6072 12.6838 97.433 11.5271C96.3893 10.499 95 9.946 93.6986 9.27712C93.4035 9.12577 93.0888 8.96364 92.7325 8.95287C90.4014 8.88214 87.9986 9.23404 85.4523 10.4065C84.9747 10.6262 84.4382 10.979 83.9518 10.6731C84.0851 11.0966 83.8191 11.202 83.609 11.3292C82.5439 11.9724 81.4812 12.6291 80.4107 13.2462C79.9546 13.5087 79.481 13.6845 79.0159 13.9054C78.9795 13.9226 78.9475 13.9837 78.9079 14.0315C78.9585 14.1645 79.0098 14.2995 79.0758 14.4724C78.7821 14.6939 78.5318 14.8936 78.2745 15.0747C77.9258 15.32 77.4368 15.4958 77.2549 15.8023C77.0348 16.1732 76.7775 16.3891 76.5118 16.6389C75.0093 16.1115 73.3968 15.8431 71.6096 16.0256C69.8419 16.206 68.0571 16.4476 66.2591 17.4949C65.4133 16.7725 64.8189 15.8376 63.6672 15.589C63.643 16.0559 63.6209 16.4805 63.5958 16.9684C62.8944 16.9422 62.3087 17.2009 61.8352 17.9053C61.6719 17.8154 61.5461 17.7458 61.4003 17.6655C61.1261 18.0343 60.7931 18.364 60.629 18.725C60.195 19.6794 59.825 20.6466 59.4455 21.6101C58.7006 23.5014 58.214 25.3788 57.8257 27.2551C57.5716 28.4831 57.2613 29.7196 56.9688 30.9531C56.8034 31.6511 56.6253 32.3505 56.4504 33.0497C56.1546 34.2314 55.8432 35.4152 55.5708 36.5941C55.5009 36.8965 55.491 37.2228 55.5585 37.4713C55.7314 38.1085 55.9698 38.7037 56.1648 39.3275C56.1954 39.4253 56.1532 39.5825 56.1153 39.7135C56.0225 40.036 55.9052 40.3599 55.8109 40.6827C55.654 41.2197 55.2005 41.5932 54.9036 42.0525C54.3282 42.0845 54.286 42.5415 54.2484 42.9196C54.127 44.1447 54.0191 45.3669 53.9387 46.5798C53.8881 47.3444 53.9966 48.0768 53.3412 48.8982C53.2501 49.012 53.1843 49.2737 53.2338 49.3508C53.4494 49.6849 53.3423 50.1396 53.308 50.575C53.2969 50.7168 53.3426 50.8905 53.4349 50.9438C53.9349 51.2331 54.0933 51.8269 54.24 52.3933C54.3614 52.862 54.6731 53.0919 54.915 53.4485C55.2989 52.8267 55.6426 53.13 55.9657 53.0648C56.0475 52.8445 56.1081 52.6815 56.2289 52.3567C56.4338 52.7776 56.5828 53.0838 56.7944 53.5189C56.9199 53.029 56.9929 52.7447 57.0631 52.4714C57.6531 52.1523 57.3137 52.9988 57.798 52.8861C57.805 52.4236 57.812 51.9751 57.8187 51.5367C57.9866 51.606 58.1415 51.67 58.2917 51.7317C58.3738 51.6101 58.4023 51.5827 58.4052 51.5615C58.5391 50.5485 59.421 49.9786 60.0154 49.2384C60.3821 49.209 60.78 48.6371 61.1453 48.9049C61.3008 49.019 61.5345 48.8423 61.6524 48.5966C61.7775 48.3352 61.9117 48.0567 61.9583 47.8008C62.1658 46.6552 62.3472 45.5142 62.5267 44.3741C62.546 44.2524 62.5247 44.1144 62.4671 44.0385C62.2846 43.7986 62.4365 43.4889 62.5201 43.1609C62.6601 42.6119 62.7287 42.0653 62.7797 41.5312C62.8024 41.2919 62.6481 41.1004 62.6793 40.8614C62.8193 39.7868 62.996 38.7031 63.1613 37.6221C63.2501 37.0408 63.3426 36.459 63.4448 35.8053C63.7687 35.6501 64.1652 35.3419 64.3084 35.4173C64.5607 35.5503 64.7453 35.3806 64.9773 35.2528C65.693 34.8587 66.4253 34.5237 67.1216 34.0661C67.7028 33.6842 68.2308 33.1062 68.8756 33.0692C69.3494 32.3843 70.101 32.0068 70.516 31.2078C70.7681 30.7226 71.1072 30.1928 71.6707 29.8767C71.9827 29.7018 72.3189 29.3464 72.5326 29.016C73.0271 28.252 73.5926 27.6652 74.3154 27.1299C75.1729 26.4948 75.9917 25.7185 76.7627 24.9253C77.4025 24.2672 78.0606 23.5399 78.5126 22.7653C79.4173 21.2159 79.5203 19.7775 79.0208 18.5477C78.8823 18.2066 78.6349 17.9464 78.3866 17.572C78.7492 17.4178 79.0773 17.1829 79.3052 17.2038C79.6283 17.2338 79.8798 17.0598 80.1496 16.8452C80.528 16.5449 80.8979 16.3239 81.2955 16.3682C81.2714 16.6016 81.2766 16.8068 81.2236 17.0173C80.8109 18.656 80.4072 20.2944 79.9613 21.9358C79.5089 23.6001 78.9626 25.2726 78.5467 26.9329C78.037 28.9671 77.6609 30.9889 77.1478 33.0235C76.8029 34.3907 76.3287 35.7703 75.8909 37.1448C75.819 37.3706 75.6435 37.7368 75.5038 37.7973C75.0876 37.9775 74.9709 38.3384 74.7924 38.658C74.5238 39.1392 74.2842 39.6305 74.0406 40.1195C74.0054 40.1902 74.0033 40.2781 74.0068 40.3489C74.0362 40.913 74.0709 41.4744 74.111 42.1625C73.6907 41.9055 73.3426 42.0769 73.0012 42.529C73.06 42.6314 73.0978 42.8425 73.1901 42.8329C73.5705 42.7941 73.6759 43.0474 73.7661 43.3355C73.8805 43.702 74.0525 44.0402 74.0965 44.4416C74.2362 45.7211 74.6259 46.8001 75.4174 47.5814C75.8831 47.2589 76.35 46.9355 76.6349 46.7379C77.1944 46.728 77.6243 46.879 77.9968 46.6779C78.6101 46.3469 79.2228 45.8355 79.7616 45.3026C79.9997 45.0668 80.197 44.8526 80.4744 44.7286C81.0414 44.4751 81.4574 44.0527 81.6923 43.4208C82.002 42.5869 82.3038 41.7521 82.64 40.9211C83.177 39.5935 83.5327 38.286 83.7516 36.973C83.9699 35.6647 84.3852 34.347 84.2461 33.0843C84.1378 32.1028 84.4723 30.9028 84.6201 29.7973C84.6859 29.306 85.0137 28.7063 84.5226 28.4586C84.4653 28.4298 84.506 28.2203 84.5369 28.0904C84.6105 27.7802 84.6978 27.4676 84.7933 27.1552C84.9045 26.7917 85.1612 26.3952 84.8969 26.1278C84.869 26.0995 84.9453 25.9505 84.9793 25.8579C85.041 25.6894 85.147 25.5107 85.1644 25.3547C85.2293 24.7693 85.3237 24.652 85.8703 24.5758C86.4655 24.4925 87.0605 24.4113 87.6522 24.3444C87.7605 24.3321 87.9098 24.3496 87.9401 24.4267C88.0457 24.6951 88.3086 24.6517 88.5458 24.7006C89.0753 24.8101 89.7622 24.781 89.4784 25.8309C89.9071 25.7828 90.2747 25.7959 90.6531 25.6879C91.4358 25.4647 92.2278 25.1407 93.0096 24.9239C94.4231 24.5347 95.6101 23.454 96.5144 22.1977ZM64.2688 30.2473C64.2362 30.0319 64.153 29.8427 64.1835 29.6273C64.4123 28.0174 64.653 26.4031 65.1804 24.7481C65.3347 24.2646 65.567 23.7811 65.7364 23.2968C65.9593 22.6591 66.1555 22.0202 66.3936 21.2896C67.7116 20.9688 68.8252 21.2756 69.9525 21.4977C69.7139 23.1341 65.9806 28.8723 64.2688 30.2473ZM89.9444 17.781C88.8619 18.9398 87.6947 20.0042 86.5598 21.1039C86.4355 21.2241 86.2909 21.3161 86.0918 21.4709C86.1613 21.0268 86.2312 20.651 86.2755 20.2819C86.4125 19.1365 86.7269 17.9129 86.3459 16.9721C86.1744 16.5492 86.1314 16.0812 86.0912 15.6009C86.0734 15.3867 86.1116 15.146 86.1267 14.8764C86.2836 14.7807 86.4312 14.645 86.561 14.6188C87.5515 14.4189 88.5353 14.2611 89.5279 14.0451C89.956 13.9517 90.2631 14.0655 90.528 14.2623C90.9401 14.5688 91.32 14.9169 91.7039 15.2394C91.3537 16.2945 90.6211 17.0566 89.9444 17.781Z" fill="black"/>
<path d="M119.507 1.75378C119.218 1.22374 118.861 0.752206 118.577 0.218675C118.436 -0.0464902 118.262 -0.0514381 118.025 0.101956C117.832 0.511783 118.212 0.718443 117.849 1.15388C117.574 0.898906 117.322 0.665177 117.069 0.429119C116.92 0.853208 116.788 1.23247 116.613 1.73282C116.295 1.56487 116.082 1.45223 115.885 1.34803C115.331 1.59049 114.917 2.04223 114.583 2.55509C113.992 3.46236 113.41 4.37778 112.873 5.30862C111.499 7.6919 110.153 10.0854 108.794 12.4739C108.651 12.7257 108.491 12.971 108.405 13.1125C108.04 13.1556 107.769 13.1829 107.496 13.2208C106.592 13.3459 105.815 13.3096 105.554 12.3473C105.083 10.6093 104.795 8.77788 104.735 6.82713C104.716 6.20395 104.532 5.73358 104.134 5.33452C104.113 5.97721 104.094 6.54625 104.075 7.11529C103.879 6.90164 103.876 6.54596 103.706 6.38238C103.464 6.14865 103.168 6.64201 102.886 6.79162C102.787 6.65686 102.695 6.53082 102.568 6.3588C102.458 6.73603 102.45 7.1051 102.277 7.29226C101.681 7.93553 101.642 8.61226 101.502 9.25145C101.079 11.1845 100.786 13.0953 100.746 14.9381C100.73 15.6707 100.732 16.4089 100.845 17.0792C100.959 17.7522 101.283 18.3098 101.406 18.9787C101.649 20.2929 102.278 21.2718 103.054 22.1269C103.271 22.3653 103.316 22.6346 103.13 23.0034C102.961 23.3392 102.737 23.6661 102.513 23.9814C101.778 25.0112 100.958 26.0017 100.308 27.0676C99.5269 28.3497 98.8231 29.6584 97.864 30.8529C97.2761 31.5856 96.7318 32.3598 95.8519 32.3598C95.8146 32.3598 95.7584 32.4186 95.656 32.4864C95.7468 33.1512 95.192 33.0223 94.9752 33.1579C94.6969 33.7016 94.4667 34.1505 94.2094 34.6531C94.0903 34.4901 94.0234 34.3979 93.9259 34.264C93.6662 34.7178 93.5722 35.2356 93.0564 35.3345C93.0104 35.8756 92.8908 36.3952 92.9522 36.8196C93.0084 37.2061 92.7531 37.8733 93.3749 37.8692C93.4465 37.8689 93.4631 38.0578 93.493 38.1669C93.5661 38.4321 93.5934 38.7328 93.7081 38.9633C93.9972 39.5446 94.274 40.0973 95.1737 39.9235C95.8973 39.7838 96.6019 39.3851 97.3098 39.1886C97.6253 39.101 98.0189 38.933 98.2322 39.0329C98.8228 39.3097 99.4463 39.3982 100.226 39.0905C100.444 39.0046 100.663 38.9255 100.879 38.867C101.124 38.8006 101.366 38.761 101.754 38.6789C102.434 37.9847 103.229 37.1156 104.077 36.3268C104.721 35.7278 105.143 35.0426 105.546 34.3076C105.857 33.7401 106.197 33.1789 106.56 32.6337C107.09 31.8359 107.731 31.0817 108.183 30.2609C109.24 28.339 110.319 26.422 111.084 24.4139C111.6 23.0604 112.113 21.7043 112.834 20.3613C113.834 18.4967 114.924 16.6764 116.033 14.858C116.939 13.3733 117.83 11.8816 118.709 10.3858C118.85 10.1447 118.925 9.86212 118.982 9.6051C119.273 8.29412 119.492 6.98955 119.844 5.67449C120.264 4.09835 120.094 2.83365 119.507 1.75378Z" fill="black"/>
<path d="M74.9471 133.215C75.3386 132.354 75.648 131.498 75.7391 130.644C75.8171 129.913 75.8668 129.186 75.9993 128.444C76.1064 127.844 76.2173 127.199 76.5075 126.62C76.9095 125.819 77.4811 125.062 78.0117 124.236C77.3333 123.637 76.72 123.054 76.0613 122.528C75.4553 122.044 74.975 121.443 74.6062 120.723C74.3969 120.314 74.4019 120.32 73.8125 120.637C73.6454 120.726 73.4673 120.736 73.2947 120.806C72.9992 120.925 72.6889 121.016 72.4124 121.203C71.986 121.492 71.5942 121.753 71.32 121.491C70.8916 121.752 70.5339 121.984 70.1709 122.189C69.4351 122.605 68.7135 123.035 68.0542 123.684C67.6726 124.06 67.2293 124.35 66.8346 124.712C65.7848 125.673 64.6938 126.592 63.7167 127.637C62.5169 128.92 61.6172 130.394 60.8741 131.967C59.8708 134.09 58.7644 136.193 57.9937 138.355C57.7736 138.973 57.5428 139.612 57.4584 140.21C57.1996 142.04 57.252 143.76 57.5504 145.37C57.9008 147.262 58.7362 148.652 60.6442 148.907C60.8852 148.939 61.1 149.041 61.3107 149.137C62.321 149.6 63.4865 149.378 64.741 148.659C65.221 148.384 65.7463 148.06 66.0281 147.482C66.3459 146.831 66.8518 146.399 67.3432 145.921C67.7294 146.483 68.0836 147.035 68.4734 147.552C68.7717 147.948 69.1923 148.175 69.7497 148.182C70.4445 148.189 71.1512 148.166 71.8253 148.228C72.3874 148.278 72.9611 148.123 73.5648 147.906C74.0057 147.747 74.3218 147.434 74.6216 147.032C74.851 146.725 75.1007 146.431 75.3406 146.13C75.7708 145.592 76.2217 145.066 76.6184 144.506C76.7494 144.322 76.844 143.96 76.7735 143.838C76.6353 143.599 76.6295 143.33 76.6172 143.03C76.6038 142.691 76.5628 142.309 76.3823 142.108C75.9757 141.658 75.8776 140.997 75.6605 140.416C75.5519 140.126 75.5612 139.83 75.7647 139.444C75.962 139.071 76.0977 138.679 76.2854 138.236C75.618 138.665 75.0524 139.046 74.479 139.394C73.8628 139.768 73.4702 139.621 73.3974 139.014C73.3773 138.848 73.3829 138.667 73.3898 138.488C73.4562 136.749 74.1425 134.983 74.9471 133.215ZM70.2885 129.268C69.0261 132.353 68.2653 135.41 67.6584 138.461C67.585 138.829 67.4575 139.206 67.3603 139.56C66.1044 140.139 64.5349 140.395 63.6489 140.168C63.5706 139.618 63.6914 139.007 63.9487 138.384C64.2919 137.553 64.695 136.752 65.3039 135.992C65.9446 135.193 66.4129 134.302 66.8341 133.382C67.3129 132.335 67.7684 131.251 68.7487 130.408C69.1623 130.052 69.4726 129.521 69.853 129.093C69.9613 128.971 70.1514 128.932 70.3039 128.855C70.3013 128.993 70.3423 129.136 70.2885 129.268Z" fill="black"/>
<path d="M63.6281 86.9392C63.7303 88.2705 63.39 89.8965 64.5552 90.572C64.8683 91.3215 65.3629 91.8734 66.0463 92.2294C66.8383 92.6418 67.7735 92.744 68.8118 92.2905C69.6646 91.9182 70.5064 91.2822 71.3447 90.735C71.7274 90.485 72.0831 90.1453 72.4635 89.8839C73.7503 89.0008 74.9996 88.0572 76.076 86.7969C76.1316 86.732 76.207 86.6854 76.237 86.6603C76.726 86.9377 77.139 87.3246 77.6795 87.4474C78.8965 87.7242 80.231 87.572 81.6721 86.7579C82.3296 86.3864 83.0017 85.8718 83.6427 85.6893C84.4219 85.4675 84.8538 84.955 85.2779 84.2637C85.3786 84.0995 85.5227 83.9112 85.6691 83.8186C86.1141 83.5377 86.4276 83.1349 86.6651 82.684C87.0799 81.8967 87.4784 81.1027 87.8483 80.3042C88.266 79.4022 88.7556 78.4874 89.0149 77.5877C89.4545 76.0631 89.9801 74.5576 90.6519 73.0496C90.8615 72.5795 91.0056 72.0981 91.2163 71.5212C92.4932 72.0087 93.8959 71.8623 95.3734 71.4403C95.6842 71.3515 96.0152 71.2034 96.3182 71.0124C97.0563 70.5467 97.7878 70.0516 98.5143 69.546C99.2673 69.0218 99.6864 67.9055 99.2955 67.3787C98.8729 66.8085 98.7329 66.0139 98.2352 65.4888C97.9418 65.1794 97.809 64.833 97.2059 65.2187C97.0776 65.3007 96.912 65.2856 96.7731 65.2853C96.193 65.2839 95.5972 65.3168 95.0462 65.2443C94.7313 65.2024 94.3968 65.0691 94.2359 64.8246C93.822 64.1947 93.218 63.8471 92.5139 63.6306C91.8389 63.4228 91.0946 63.6329 90.275 64.1347C90.3239 64.4185 90.362 64.6394 90.4022 64.872C90.1379 64.9701 89.9289 65.0478 89.781 65.1028C89.6425 65.4346 89.5782 65.717 89.4181 65.9356C89.2565 66.1562 89.0004 66.3131 88.7824 66.5005C88.6328 67.262 88.6328 67.262 87.7919 67.6794C87.7534 67.9253 87.7843 68.2001 87.6612 68.4222C87.3553 68.9741 87.2956 69.5239 87.3005 69.9736C87.3096 70.7702 87.0456 71.5494 86.7431 72.3554C86.5411 72.8933 86.3671 73.4391 86.1153 73.9671C85.6216 75.003 85.0899 76.0308 84.5552 77.0565C84.4699 77.2204 84.2961 77.4168 84.1488 77.4934C83.7192 77.716 83.2826 77.8855 82.759 78.1154C82.8355 77.1514 82.8524 76.2357 82.9956 75.2932C83.2407 73.6804 83.574 72.0486 83.8531 70.4282C84.0731 69.1516 84.2981 67.8721 84.4545 66.6103C84.501 66.2339 84.4673 65.9132 84.8096 65.6142C84.7901 65.1255 84.4693 65.0193 84.1407 64.973C83.3382 64.8595 82.5162 64.7928 81.5391 64.6904C81.6762 65.1578 81.6066 65.4914 81.1802 65.7519C81.131 65.7819 81.1296 65.9842 81.0949 66.1073C81.0737 66.1827 81.0315 66.2592 80.9858 66.3646C80.8498 66.3306 80.7302 66.3009 80.6828 66.2889C80.3611 66.5355 80.0942 66.7357 79.8308 66.9433C79.696 67.0495 79.5488 67.1528 79.4393 67.2853C78.9212 67.914 78.4025 68.5438 77.9109 69.1929C77.7564 69.397 77.5718 69.7227 77.5986 69.8857C77.6757 70.3529 77.3855 70.811 77.1646 71.2258C76.8901 71.741 76.7146 72.2305 76.6637 72.721C76.6171 73.1713 76.3941 73.49 75.9683 73.7354C76.1328 74.3687 75.7561 74.9555 75.3961 75.5528C74.467 77.0943 73.5897 78.6466 72.8652 80.2612C72.3273 81.4598 71.4087 82.4116 70.3378 83.2737C70.3521 82.5004 70.3463 81.8251 70.3821 81.1361C70.4193 80.4163 70.4959 79.6837 70.5567 78.9563C70.6548 77.7827 70.8501 76.598 71.2122 75.3703C71.5365 74.2701 71.7178 73.1765 72.0185 72.076C72.4309 70.5659 71.7306 69.647 71.5295 68.4641C71.5045 68.3162 71.3513 68.2315 71.2405 68.139C71.0847 68.0092 70.9133 67.8991 70.7352 67.7708C70.5585 67.8523 70.3844 67.9891 70.2988 67.9617C70.0523 67.8825 69.8471 68.0738 69.6844 68.2729C69.1148 68.9694 68.5236 69.6595 68.0189 70.3965C66.0606 73.256 64.5159 76.1926 64.0306 79.3193C63.792 80.8593 63.5472 82.3933 63.601 83.8521C63.6397 84.8688 63.5515 85.9411 63.6281 86.9392ZM90.9567 64.546C91.214 64.1924 91.3656 64.303 91.5379 64.5053C91.3062 64.6319 91.1214 64.7326 90.8845 64.8615C90.9118 64.7314 90.9037 64.6185 90.9567 64.546ZM82.0461 65.9082C81.7833 66.0465 81.5589 66.1649 81.2445 66.3303C81.494 65.6573 81.5633 65.6241 82.0461 65.9082Z" fill="black"/>
<path d="M43.6097 90.3124C43.4659 92.3726 44.149 93.8131 45.4827 94.7722C45.9668 95.1203 46.3914 95.5508 46.8045 95.9865C47.0621 96.2584 47.3511 96.3774 47.8008 96.3131C48.5884 96.2005 49.3927 96.0832 50.125 96.1388C51.2881 96.2269 52.4341 96.1693 53.6915 95.1858C54.4457 94.5961 55.1672 93.9115 55.9423 93.398C56.6426 92.9341 57.0251 92.3284 57.3639 91.633C57.843 90.6486 58.2657 89.6444 59.028 88.7674C59.1077 88.6757 59.138 88.5366 59.255 88.2793C58.97 88.5051 58.8187 88.6254 58.6365 88.77C58.6371 88.5674 58.6985 88.3416 58.6277 88.2432C58.2435 87.7073 58.6554 87.2279 59.1546 86.7354C59.5158 86.3786 59.8761 86.0203 60.2278 85.6521C60.3145 85.5613 60.3654 85.4282 60.4475 85.2903C60.3483 85.3016 60.2997 85.2888 60.2653 85.3139C59.0198 86.2176 57.7775 87.1298 56.5309 88.0301C55.5054 88.7706 54.459 89.2846 53.3725 89.6185C52.0775 90.0161 50.8032 90.3412 49.5691 90.3887C49.3167 90.3986 49.0108 90.5103 48.9788 90.1314C49.3333 89.6502 47.6463 88.7721 48.0514 88.6158C48.8446 88.309 52.1375 86.5218 52.9283 86.1777C53.9732 85.7234 54.9745 85.0632 55.9796 84.3711C57.5901 83.2624 59.0719 83.1655 60.5302 81.6967C61.3597 80.8608 61.7372 81.38 62.2807 80.3878C62.4085 80.1549 62.3977 79.8767 62.453 79.6188C62.49 79.4468 62.5103 79.2715 62.577 79.1015C62.657 78.8981 62.8183 78.6961 62.875 78.4973C62.9458 78.2499 63.0118 78.0028 63.0768 77.7553C63.1093 77.087 63.0925 76.4409 63.0567 75.8026C62.9234 75.2728 62.7537 74.7605 62.547 74.2744C62.2862 74.1991 62.0079 74.1312 61.6968 74.0439C61.8307 73.7718 61.9579 73.5331 62.0635 73.2967C61.5204 72.3542 60.8148 71.5573 59.9585 70.9778C58.5235 71.1906 57.1145 71.206 55.6367 71.7197C54.1857 72.2241 52.7246 73.1137 51.3801 74.1705C50.0863 75.1875 48.9101 76.3713 47.8168 77.6421C47.6759 77.8645 47.538 78.088 47.4061 78.3133C46.7722 79.397 46.098 80.4955 45.6449 81.6109C45.095 82.9632 44.5845 84.3428 44.3502 85.7065C44.3077 85.953 44.2736 86.2575 43.9168 86.3407C43.9104 86.8626 43.9296 87.287 43.8903 87.7271C43.8131 88.584 43.6688 89.4613 43.6097 90.3124ZM53.6929 77.8913C54.7559 76.8338 56.532 76.3637 57.4021 77.0012C57.5453 77.1063 57.692 78.4891 58.0453 78.5957C55.7476 80.3759 53.5538 81.9581 51.1941 83.1428C51.1388 82.1796 52.2743 79.3027 53.6929 77.8913Z" fill="black"/>
<path d="M45.155 145.246C45.5238 145.067 45.8999 144.944 46.2725 144.816C47.4769 144.403 48.4983 143.688 49.308 142.383C49.6189 141.882 50.1256 141.414 50.5963 141.054C51.4011 140.441 52.2455 139.918 53.0771 139.369C53.9544 138.79 54.7272 138.065 55.4106 137.198C55.6862 136.848 55.9674 136.501 56.2626 136.168C56.6788 135.7 57.1512 135.276 57.5249 134.78C58.0398 134.098 58.6217 133.471 59.0825 132.733C59.3956 132.231 59.4215 131.924 59.2641 131.576C59.1669 131.361 59.0632 131.134 59.0496 130.875C59.0216 130.357 58.8004 130.054 58.3658 129.952C57.5441 129.76 56.7178 129.578 55.8658 129.385C55.8495 128.131 55.7613 127.98 54.7441 127.304C54.4573 127.113 54.1744 126.905 53.9538 126.639C53.7672 126.414 53.5993 126.227 53.2142 126.396C52.9036 126.533 52.5735 126.614 52.2863 126.816C51.4948 127.374 50.7165 127.963 49.8803 128.361C49.7339 128.431 49.5834 128.533 49.4498 128.647C48.5524 129.413 47.6303 130.145 46.7708 130.966C44.6564 132.984 42.7808 135.217 41.2093 137.716C39.843 139.887 38.9823 142.116 38.6936 144.331C38.5143 145.706 38.4185 147.09 38.6129 148.351C38.6924 148.867 38.6764 149.442 38.8234 149.911C38.971 150.382 39.2123 150.81 39.5097 151.155C40.0654 151.798 40.573 152.531 41.6025 152.532C42.1762 152.533 42.7421 152.562 43.3268 152.522C44.0848 152.471 44.8742 152.311 45.621 152.293C47.3136 152.252 49.0344 151.867 50.8222 150.938C51.7548 150.453 52.655 149.901 53.0983 148.75C53.2541 148.344 53.4325 148.069 53.8339 147.836C54.4058 147.505 54.572 146.98 54.3336 146.543C54.2667 146.42 54.2746 146.235 54.2341 146.088C54.1933 145.94 54.1704 145.764 54.079 145.668C53.6979 145.265 53.6301 144.751 54.0624 144.038C54.3261 143.603 54.6075 143.175 54.8692 142.739C55.0424 142.451 55.1949 142.154 55.3565 141.861C55.3012 141.83 55.2459 141.798 55.1906 141.767C54.9009 142.015 54.6049 142.253 54.3237 142.513C53.7329 143.06 53.1609 143.637 52.5616 144.169C51.8348 144.814 51.0754 145.286 50.2479 145.42C49.2993 145.573 48.3268 145.837 47.389 145.949C46.5769 146.046 45.7992 145.996 45.0051 146.014C44.7961 146.019 44.6104 145.95 44.7112 145.69C44.7729 145.53 44.9944 145.324 45.155 145.246ZM45.775 139.835C46.294 139.518 46.691 139.05 46.985 138.572C47.7144 137.386 48.7253 136.602 49.7179 135.771C50.1673 135.395 50.6365 135.046 51.0623 134.637C51.6252 134.097 52.0624 134.332 52.4787 134.719C52.7732 134.992 52.6658 135.603 52.228 136.042C51.7475 136.523 51.2183 136.951 50.6932 137.365C50.0535 137.871 49.4061 138.372 48.7434 138.813C48.0317 139.287 47.3023 139.71 46.5734 140.116C46.0466 140.41 45.5081 140.639 44.8424 140.961C45.0735 140.329 45.4423 140.039 45.775 139.835Z" fill="black"/>
<path d="M78.5742 142.555C79.3235 142.676 79.5068 143.319 79.6669 144.02C79.8162 144.676 80.0529 145.271 80.5911 145.604C81.0146 145.865 82.8652 145.58 83.4019 145.133C83.4919 145.058 83.5673 144.956 83.656 144.878C84.0752 144.51 84.4809 144.045 84.9213 143.811C85.3541 143.582 85.6248 143.269 85.8196 142.887C86.0274 142.479 86.2678 141.988 86.2533 141.635C86.2332 141.152 86.4381 140.831 86.7586 140.436C87.2889 139.783 87.8038 139.113 88.2922 138.43C88.4572 138.199 88.5527 137.902 88.6258 137.639C88.7506 137.19 88.7707 136.737 88.9457 136.296C89.2816 135.45 89.4888 134.569 90.1411 133.783C90.7785 133.015 91.3776 132.211 92.0316 131.46C93.1068 130.224 94.2655 129.208 95.6857 128.97C95.9907 128.919 96.3458 128.775 96.6413 128.569C97.1768 128.195 97.6946 127.922 98.2526 127.808C98.8097 127.694 98.9198 127.521 99.2399 126.879C99.4251 126.507 99.7284 125.984 100.009 125.85C100.972 125.391 101.427 124.523 101.879 123.677C102.392 122.716 102.254 121.86 101.515 121.637C100.551 121.347 99.5002 121.223 98.5131 120.974C97.8926 120.818 97.0389 121.218 96.5452 120.528C95.9779 121.577 95.1734 121.593 94.4562 121.988C94.1701 122.146 93.8988 122.415 93.6136 122.548C92.3427 123.136 91.1092 123.865 89.9117 124.768C89.7842 124.865 89.6244 124.883 89.4728 124.94C89.4542 124.841 89.421 124.778 89.4323 124.706C89.5636 123.87 89.6532 123.038 89.8576 122.193C89.9647 121.751 89.9091 121.433 89.816 121.106C89.7531 120.885 89.6719 120.676 89.6012 120.46C89.5034 120.163 89.5028 119.858 89.5805 119.458C89.7214 118.735 89.5688 118.073 89.0638 117.775C88.7378 117.583 88.2474 117.629 87.8306 117.568C87.3913 118.278 87.0432 117.581 86.6261 117.946C86.5405 118.021 86.4526 118.092 86.3656 118.165C86.3717 118.359 86.377 118.528 86.3842 118.773C86.1118 118.804 85.9468 118.798 85.7779 118.85C85.6176 118.899 85.3297 119.016 85.3093 119.09C85.1545 119.65 84.717 119.734 84.3715 119.993C84.189 120.131 83.9652 120.376 83.9096 120.566C83.8115 120.901 83.824 121.233 83.799 121.563C83.7873 121.714 83.8284 121.857 83.7902 122.009C83.4945 123.19 83.1921 124.372 82.8786 125.555C82.6286 126.498 82.3579 127.442 82.1 128.387C81.4975 130.591 81.3214 132.747 80.5404 134.971C80.5882 136.302 79.4937 137.325 78.7125 138.371C78.3533 138.852 78.2474 139.168 78.3341 139.523C78.3693 139.668 78.3941 139.725 78.2974 139.904C77.6772 141.054 77.697 141.208 78.4837 141.812C78.3784 142.112 78.2107 142.497 78.5742 142.555Z" fill="black"/>
<path d="M37.4331 34.9407C37.0887 36.8798 37.2561 38.5823 37.5812 40.2283C37.6575 40.6136 37.8516 40.9335 38.0097 41.2691C38.6125 42.5501 39.7212 43.2618 40.8348 43.9429C41.0982 44.1039 41.6571 43.8448 42.0803 43.779C42.4884 43.182 43.0626 43.1142 43.5484 42.8569C44.38 42.4165 45.0381 41.8053 45.622 41.0095C46.0971 40.3613 46.5802 39.7183 47.1205 38.9918C47.4153 39.2922 47.6866 39.4869 47.8656 39.7655C48.4483 40.6718 49.2252 41.3477 50.1316 41.8681C50.3135 41.9726 50.5964 41.9441 50.8453 41.9333C51.6315 41.8999 52.2282 41.0133 52.9471 40.657C53.0175 40.6224 53.0993 40.462 53.1316 40.3607C53.4 39.518 53.9102 38.9214 54.7299 38.6189C54.6659 38.1727 54.5486 37.7955 54.5689 37.3726C54.589 36.9595 54.477 36.6728 54.3145 36.3873C53.8579 35.5848 53.6768 34.6147 53.7164 33.5223C53.7295 33.1643 53.788 32.7908 53.8139 32.4279C53.9143 31.0313 53.9685 29.6473 54.1192 28.2376C54.2732 26.7983 54.5861 25.3249 55.0259 23.8364C55.0792 23.6565 55.1237 23.4201 55.0582 23.3118C54.8137 22.9096 55.0739 22.3924 55.2256 21.9127C55.3627 21.4796 55.3251 21.2598 54.943 21.3081C54.3454 21.7861 54.6312 22.5958 53.8497 23.0313C53.5959 22.9247 53.2908 22.8252 53.0184 22.6773C51.7071 21.9662 50.5688 20.9894 48.9169 20.666C48.6387 21.2386 48.129 21.2924 47.6581 21.5375C47.1324 21.8108 46.6169 22.1688 46.102 22.507C45.7949 22.7087 45.4771 22.9122 45.1997 23.1689C44.412 23.8983 43.6515 24.6691 42.8636 25.3982C41.9118 26.2784 41.0775 27.257 40.2937 28.3089C38.7094 30.4343 37.8438 32.629 37.4331 34.9407ZM45.2771 33.338C45.6261 32.1298 46.065 30.9172 46.4673 29.7067C46.4935 29.6278 46.529 29.5338 46.5846 29.4723C47.3062 28.6734 47.9421 27.7562 48.9073 27.2049C49.2715 27.4645 49.6603 27.7026 49.9945 28.0051C50.087 28.0889 50.0806 28.3674 50.0131 28.5502C49.4173 30.1628 48.8005 31.7738 48.1802 33.3843C48.1206 33.5386 48.0094 33.7007 47.8967 33.8369C47.1266 34.7663 46.3567 35.6966 45.5693 36.61C45.4072 36.798 45.1723 36.9168 44.8778 37.1374C44.9622 35.7894 44.9089 34.6123 45.2771 33.338Z" fill="black"/>
</svg>
