<svg width="248" height="112" viewBox="0 0 248 112" fill="none" xmlns="http://www.w3.org/2000/svg">
<path d="M20.877 55.4154C21.2001 56.0108 21.5855 56.5242 22.12 56.8902C22.6961 57.2848 23.3534 57.5784 24.0632 57.1784C24.3285 57.0288 24.5267 56.7335 24.8022 56.6359C25.2736 56.469 25.5142 56.1066 25.7799 55.7433C26.0792 55.3341 26.3816 54.9377 26.6173 54.4764C26.996 53.7362 27.0684 53.116 26.4981 52.4887C25.7265 51.6394 25.3601 50.6117 24.9893 49.5739C24.8238 49.1109 24.6353 48.6452 24.5541 48.1645C24.4124 47.3262 24.332 46.4769 24.2512 45.6293C24.1608 44.6728 24.0981 43.714 24.0248 42.7556C24.0195 42.6885 24.0191 42.6192 24.031 42.5535C24.2252 41.4945 24.2451 40.4231 24.2861 39.3509C24.2994 39.0039 24.4442 38.6565 24.5611 38.3206C24.6565 38.0465 24.8057 37.7913 24.9218 37.5238C25.1275 37.0489 25.1584 37.0369 25.6735 37.2285C25.7989 37.2753 25.9322 37.3062 26.0651 37.3278C27.0623 37.4894 27.8507 37.0979 28.5477 36.4172C29.3383 35.6447 29.6331 34.3659 29.2257 33.3338C29.5122 33.5607 29.7823 33.8158 30.0927 34.0048C30.3244 34.1456 30.3999 34.3111 30.3814 34.5574C30.3218 35.3436 30.2692 36.1302 30.2052 36.916C30.1019 38.1727 29.9598 39.4273 29.8953 40.6858C29.8587 41.4031 29.9642 42.1266 29.9699 42.8475C29.9832 44.4746 30.0031 46.1025 29.9651 47.7292C29.932 49.148 29.8335 50.5654 29.7439 51.9819C29.702 52.6441 29.8163 52.8326 30.4674 53.0881C30.757 53.2016 31.0837 53.3124 31.2925 53.5238C32.0142 54.2557 32.7108 55.0145 33.38 55.795C34.077 56.6081 34.846 56.8306 35.7655 56.39C35.9645 56.2942 36.1327 56.1327 36.3124 55.9976C36.4554 55.8899 36.5781 55.7336 36.7375 55.6736C37.7651 55.2895 38.2339 54.4279 38.5928 53.492C38.6802 53.2638 38.674 52.9297 38.5698 52.7116C38.301 52.1475 37.9474 51.6244 37.6393 51.0783C37.4429 50.7305 37.1997 50.3893 37.099 50.0127C36.9785 49.562 37.001 49.0747 36.9379 48.6063C36.7547 47.2481 36.5406 45.8938 36.3782 44.5333C36.3093 43.9572 36.2841 43.3648 36.3345 42.7887C36.4466 41.5117 36.6223 40.2408 36.7666 38.9664C36.8324 38.3868 37.0068 38.2164 37.6181 38.1432C37.8172 38.1193 38.0256 38.0999 38.2083 38.0253C39.2876 37.5878 40.3673 37.1844 41.508 36.8979C43.102 36.4975 44.7141 36.1951 46.3151 35.838C47.6765 35.5339 49.0458 35.2646 50.4103 34.9733C50.7603 34.8987 51.1223 34.84 51.449 34.7022C52.5066 34.2573 53.6446 34.237 54.7491 34.048C55.1627 33.9774 55.3154 34.1456 55.3543 34.5817C55.4161 35.2774 55.4567 35.9753 55.4929 36.6732C55.5551 37.8673 55.6138 39.0618 55.6615 40.2567C55.7251 41.8556 55.7847 43.4544 55.65 45.0542C55.5494 46.2442 55.4668 47.4361 55.3922 48.628C55.3265 49.683 55.2823 50.7393 55.2293 51.7842C54.7283 51.9669 54.2529 52.1404 53.7519 52.3231C53.8636 52.5787 53.9594 52.799 54.0556 53.0193C53.8728 53.308 53.7757 53.5967 53.7722 53.8862C53.7664 54.4032 53.6362 54.8075 53.0999 54.9911C53.0266 55.0163 52.9781 55.113 52.9026 55.1924C53.212 55.8007 53.4424 56.4108 52.8937 57.0857C53.2297 57.3545 53.5457 57.5929 53.8459 57.8498C54.8991 58.7517 55.8147 59.7789 56.5161 60.976C56.8176 61.4907 57.2016 61.9132 57.7618 62.0381C58.3079 62.1599 58.891 62.1184 59.4578 62.1387C59.5147 62.141 59.5717 62.0708 59.633 62.0438C60.6911 61.5755 61.416 60.7743 61.9435 59.7643C62.0688 59.5242 62.0785 59.3291 61.8614 59.1688C61.4429 58.8598 61.476 58.4771 61.574 58.0211C61.7483 57.2071 61.8137 56.3838 61.5775 55.5557C61.4296 55.0379 61.2866 54.5042 61.2548 53.9714C61.1529 52.2437 60.9953 50.5164 61.2049 48.7807C61.4226 46.9775 61.5784 45.1672 61.766 43.3604C61.8053 42.9799 61.9139 42.6011 61.9077 42.2224C61.8852 40.8875 62.2308 39.6431 62.7707 38.3961C63.7118 38.2019 64.536 37.7777 65.0908 36.9133C65.455 36.347 65.6938 35.8009 65.4709 35.0933C65.3001 34.5521 64.9655 34.0864 64.8097 33.5669C64.6154 32.9206 64.4062 32.2947 64.0773 31.708C63.7348 31.0971 63.39 30.4945 62.6422 30.2853C62.3403 30.2005 62.0529 30.0641 61.755 29.9639C60.9251 29.6845 60.0559 29.4876 59.3655 28.9054C58.9232 28.5324 58.3401 28.2658 58.1419 27.6848C57.9967 27.2597 57.8051 26.919 57.4608 26.6303C57.2043 26.4149 57.007 26.1416 57.0352 25.7532C57.1041 24.805 57.1557 23.8559 57.1977 22.9064C57.2162 22.4857 57.1857 22.0628 57.1919 21.6413C57.2034 20.8873 57.2573 20.1325 57.2365 19.3794C57.2061 18.2542 57.3716 17.1546 57.5226 16.0462C57.5857 15.5831 57.9397 15.441 58.1454 15.1417C58.4778 14.6574 58.8376 15.0949 59.1797 15.0679C59.2194 15.0649 59.2631 15.1002 59.3042 15.1183C60.658 15.7204 62.3606 14.8009 63.1146 13.8081C63.8495 12.8405 63.6019 11.4151 63.138 10.6109C62.7283 9.90059 62.0119 9.42606 61.2385 9.07777C60.5896 8.78599 59.8997 8.68623 59.2123 8.60368C57.6731 8.41916 56.3921 7.4904 54.9022 7.16021C54.3593 7.04014 54.1818 7.01012 53.774 7.41845C53.6817 7.5107 53.5802 7.6449 53.4702 7.65858C52.7207 7.75216 52.2117 8.30483 51.6057 8.65356C51.1894 8.89281 50.8605 9.28304 50.3666 9.4318C50.2103 9.47859 50.0355 9.62294 49.9658 9.76905C49.7804 10.1575 49.4435 10.2948 49.0825 10.444C47.7511 10.9953 46.4171 11.5418 45.1047 12.1373C43.9566 12.6582 42.8389 13.2457 41.7035 13.7949C41.5195 13.884 41.312 13.9255 41.0975 13.9948C41.0661 13.5455 41.0335 13.1959 41.0189 12.8454C40.9968 12.3037 40.9615 11.7599 40.9849 11.2196C40.9937 11.0152 41.1297 10.8051 41.2436 10.6197C41.436 10.3049 41.6042 9.98844 41.5565 9.6066C41.5071 9.20888 41.4762 8.80497 41.3809 8.41784C41.0745 7.17478 40.4141 6.69494 39.1327 6.7488C37.9192 6.79956 36.7044 6.83267 35.4931 6.91566C35.0755 6.94435 34.6014 7.00041 34.269 7.2198C33.794 7.53277 33.3146 7.66609 32.7695 7.7376C32.4706 7.77688 32.1201 7.90799 32.0358 8.34897C32.8719 8.33882 33.4939 8.63502 33.7548 9.43047C33.866 9.76993 33.9145 10.1372 33.9428 10.4956C34.0457 11.7987 34.1384 13.1027 34.2121 14.4076C34.2434 14.9607 34.2174 15.5173 34.2174 16.1252C33.926 16.074 33.6259 15.9804 33.3239 15.976C32.3991 15.9623 31.5701 15.6988 30.7857 15.2039C30.3341 14.9192 29.8221 14.7188 29.3162 14.54C29.1392 14.4773 28.8765 14.5453 28.6925 14.6349C28.2126 14.8684 27.8295 15.2922 27.2455 15.3284C27.1364 15.335 26.9956 15.4652 26.9387 15.5747C26.5793 16.2669 25.806 16.4858 25.2952 17.0208C24.9266 17.4066 24.5333 17.7863 24.246 18.2215C23.9652 18.647 23.628 18.919 23.1733 19.0858C21.5488 19.6826 19.9235 20.2764 18.2995 20.8749C16.8436 21.4117 15.3847 21.9405 13.936 22.4972C13.0107 22.8525 12.0979 23.2405 11.1881 23.6343C10.1975 24.0634 9.22151 24.5269 8.23006 24.9551C7.6562 25.2031 7.06469 25.4106 6.51953 25.6216C5.74394 25.163 5.02309 24.7502 4.13052 24.9122C4.02943 24.9308 3.90892 24.8853 3.80607 24.8465C2.94882 24.5238 2.18868 24.9219 1.68545 25.4534C1.03611 26.1394 0.398688 26.8978 0.101607 27.861C-0.143827 28.6573 0.0552571 29.4479 0.700183 29.9895C1.24049 30.4429 1.89292 30.4892 2.5427 30.5325C3.59021 30.6027 4.38964 31.0432 4.85446 32.01C5.24954 32.8315 5.88564 33.4093 6.68771 33.8083C8.0248 34.4736 9.41883 34.4422 10.8287 34.1001C11.2406 34.0004 11.641 33.8494 12.055 33.7642C13.3409 33.4993 14.256 32.7184 14.7844 31.58C15.2174 30.6464 15.8438 29.8593 16.3907 29.0127C16.7178 28.5068 17.1902 28.0936 17.5102 27.5842C17.9609 26.866 18.5533 26.2974 19.1744 25.7434C19.6891 25.2848 20.1901 24.8089 20.952 24.4571C20.8425 24.7317 20.798 24.9003 20.7136 25.0455C20.3292 25.7099 19.9367 26.3694 19.5421 27.0271C18.1145 29.406 16.7042 31.7959 15.2488 34.1575C14.2224 35.8226 13.133 37.4492 12.0718 39.0931C11.0071 40.7423 9.97238 42.4113 8.87101 44.0349C7.41386 46.1824 5.94832 48.3234 4.65626 50.5764C4.5874 50.696 4.53398 50.8245 4.48057 50.9335C4.95864 50.8064 5.40536 50.7066 5.83796 50.5649C6.04499 50.4974 6.22907 50.3553 6.41756 50.2374C6.58177 50.135 6.73495 50.0149 6.89783 49.9103C7.2033 49.7134 7.52687 49.5408 7.81335 49.3206C8.00493 49.1731 8.13736 48.9506 8.31217 48.778C8.55054 48.5423 8.83879 48.349 9.04273 48.0881C9.28728 47.7747 9.4303 47.3769 9.91764 47.3447C9.97679 47.3408 10.0214 47.1757 10.0796 47.0896C10.1653 46.9633 10.2359 46.7612 10.3498 46.7316C10.7528 46.6274 10.8641 46.254 11.0971 45.9993C11.3346 45.7393 11.5103 45.4219 11.7527 45.1676C12.0127 44.8952 12.3375 44.6851 12.5993 44.4145C12.8434 44.1629 13.2473 44.0084 13.2014 43.5502C13.6918 43.0748 14.0816 42.4837 14.7636 42.2272C14.9256 42.1663 15.0766 42.0485 15.2033 41.9262C15.7573 41.3916 16.4093 40.982 16.9995 40.4942C17.1094 40.4033 17.2502 40.349 17.4458 40.2391C17.5115 40.827 17.5804 41.3338 17.6223 41.8432C17.7375 43.2364 17.8007 44.6352 17.9613 46.0231C18.1097 47.3032 18.2412 48.5803 18.2006 49.8684C18.1926 50.1253 18.0766 50.3791 18.005 50.6329C17.8836 51.0651 17.708 51.4897 17.6541 51.9298C17.6254 52.1642 17.7402 52.4838 17.904 52.6586C18.1569 52.9279 18.4968 53.1226 18.8177 53.3195C19.6807 53.8501 20.4024 54.5413 20.877 55.4154ZM26.2377 30.5162C26.4738 30.246 26.6372 30.3361 26.7873 30.8066C27.3823 30.3723 27.8308 29.8161 28.1967 29.1936C28.5296 28.6286 28.8946 28.098 29.4314 27.7016C29.5356 27.6244 29.6075 27.4968 29.6786 27.3829C30.1823 26.5742 30.8215 25.8988 31.5507 25.2804C32.0959 24.8187 32.5165 24.213 33.0198 23.6983C33.3751 23.335 33.7764 23.0167 34.288 22.5621C34.375 23.1443 34.4429 23.5509 34.4941 23.9596C34.533 24.2713 34.5687 24.5856 34.5701 24.8986C34.5705 25.0707 34.5056 25.246 34.4549 25.415C34.352 25.7602 34.2235 26.0988 34.1361 26.4475C34.1004 26.591 34.088 26.7874 34.1591 26.9022C34.4911 27.439 34.6283 28.0689 35.1938 28.4975C36.3707 29.3896 37.2659 30.5471 37.9179 31.8758C38.1977 32.4465 38.7032 32.7264 39.2201 33.001C39.3309 33.0597 39.5057 33.1012 39.6076 33.0548C40.0142 32.8707 40.4578 32.7118 40.7885 32.428C41.4206 31.8855 41.979 31.2582 42.5789 30.6773C42.9091 30.3577 43.0172 29.9763 43.0517 29.5274C43.1616 28.0843 42.2933 27.2156 41.2868 26.4179C41.1279 26.2921 40.9434 26.1964 40.7938 26.0608C40.5112 25.8044 40.3991 25.5042 40.4618 25.0954C40.6627 23.7839 40.8516 22.4694 40.9853 21.1499C41.0873 20.143 41.0975 19.1269 41.1513 18.1147C41.1562 18.0264 41.1787 17.9394 41.1959 17.8348C41.7225 17.6521 42.0677 18.1513 42.5378 18.1482C42.9651 17.822 43.3642 17.3863 43.8595 17.1634C45.1259 16.5926 46.3774 15.9601 47.7771 15.7376C48.2848 15.6568 48.7783 15.4913 49.2846 15.3973C49.8104 15.2997 50.3441 15.2423 50.9515 15.1562C51.1117 16.3062 51.0415 17.4221 51.0601 18.6369C50.7268 18.6369 50.4213 18.5914 50.1348 18.6457C49.3853 18.7883 48.6468 18.9874 47.899 19.1392C47.2616 19.2686 46.7323 19.529 46.3037 20.0508C46.086 20.3156 45.7122 20.4543 45.4032 20.641C44.8726 20.9615 44.342 21.2828 43.8025 21.5874C43.5381 21.7366 43.253 21.8487 42.97 21.9812C43.0918 22.3948 43.46 22.2985 43.7323 22.4292C43.6803 22.5678 43.6348 22.687 43.5902 22.8062C43.4317 23.2282 43.4516 23.2728 43.9186 23.4507C44.1928 23.5548 44.3786 23.7235 44.4249 24.0281C44.4894 24.4501 44.5724 24.8699 44.6324 25.2923C44.7834 26.3619 44.9149 27.4346 45.0805 28.5019C45.1171 28.7377 45.2266 28.9804 45.363 29.1782C45.7104 29.6814 46.3103 29.7004 46.7539 29.278C47.1079 28.9403 47.5238 28.6622 47.8513 28.3024C48.1449 27.9802 48.3925 27.6019 48.5951 27.2138C49.029 26.3835 49.0599 25.4932 48.8988 24.5834C48.8322 24.2073 48.7686 23.8254 48.7611 23.4449C48.7531 23.0357 48.9107 22.8856 49.3027 22.9554C49.8205 23.0476 50.2765 22.9271 50.7281 22.7038C50.8027 22.6671 50.8994 22.6751 51.015 22.6583C51.015 23.1077 51.0746 23.5407 51.0018 23.9504C50.8773 24.6496 51.0036 25.3784 50.6968 26.0617C50.5714 26.3403 50.5431 26.7071 50.5992 27.0099C50.6526 27.3004 50.8301 27.597 51.0278 27.8265C51.4693 28.3382 51.9539 28.8127 52.4285 29.2947C52.6152 29.4841 52.7428 29.6814 52.6501 29.9569C52.5605 30.2226 52.3724 30.3343 52.0925 30.3687C50.763 30.5329 49.5151 31.0035 48.2645 31.4467C46.8016 31.9654 45.3586 32.5406 43.9032 33.0817C42.7453 33.5126 41.568 33.8953 40.4261 34.3632C39.5101 34.7384 38.6339 35.2094 37.74 35.6381C37.5228 35.7422 37.306 35.8468 37.0575 35.9665C36.9211 35.6438 36.7697 35.3767 36.9295 35.0916C37.306 34.4206 37.0571 33.8255 36.7216 33.2504C36.391 32.684 35.9102 32.2841 35.2574 32.1331C34.6266 31.9874 33.9909 31.8634 33.3597 31.7195C32.9028 31.6153 32.4503 31.4904 31.9948 31.3809C31.8646 31.3496 31.6747 31.275 31.605 31.3328C31.1662 31.6957 30.606 31.5416 30.1218 31.7151C29.6067 31.8996 29.3188 32.1759 29.3299 32.7423C29.3334 32.9365 29.2623 33.1321 29.2235 33.3272C29.118 32.8615 28.8403 32.5233 28.4227 32.3101C27.7372 31.9601 27.0362 31.6727 26.2341 31.8532C25.9393 31.9195 25.6444 31.9252 25.4427 31.5438C25.6974 31.2114 25.9485 30.8472 26.2377 30.5162Z" fill="black"/>
<path d="M63.5027 80.319C63.2282 80.3534 62.9585 80.4245 62.532 80.5097C62.3528 80.7242 61.967 81.0261 61.8037 81.4199C61.5799 81.9598 61.556 82.6219 61.805 83.1357C62.0266 83.5922 62.4583 84.0274 62.9059 84.2773C63.8245 84.7893 64.8014 85.2082 65.7854 85.5848C66.1103 85.7092 66.293 85.9048 66.5168 86.1224C66.9295 86.5246 67.3864 86.8804 67.819 87.2622C67.9466 87.3748 68.1082 87.4909 68.1607 87.6387C68.4172 88.3644 69.0471 88.454 69.6487 88.4474C69.975 88.4439 70.2442 88.4969 70.5492 88.5785C71.0529 88.7132 71.5884 88.9873 72.1071 88.6143C72.6866 88.1971 73.2587 87.7698 73.8233 87.3333C74.1032 87.1165 74.342 86.845 74.6311 86.6438C74.8448 86.4945 75.1374 86.4566 75.3467 86.3034C75.9779 85.8426 76.5783 85.3384 77.2055 84.8719C77.9485 84.3187 78.7073 83.7868 79.4595 83.2461C79.4118 83.7339 79.3032 84.1762 79.0873 84.5576C78.1581 86.1975 77.1985 87.8206 76.2472 89.4481C75.9179 90.011 75.5948 90.5786 75.243 91.1269C74.8214 91.7842 74.3623 92.4176 73.9372 93.0723C73.5602 93.6527 73.2327 94.2659 72.8381 94.8336C72.0422 95.9777 71.1862 97.0804 70.4098 98.237C69.5092 99.578 68.5893 100.899 67.5184 102.112C67.4169 102.227 67.3732 102.391 67.2972 102.53C67.2218 102.668 67.1542 102.814 67.0589 102.938C66.5804 103.554 66.0824 104.154 65.6132 104.777C65.0182 105.566 64.4434 106.37 63.8625 107.169C63.791 107.267 63.7336 107.375 63.5972 107.597C63.8457 107.51 63.9729 107.484 64.0828 107.425C64.8526 107.014 65.4552 106.287 66.3967 106.198C66.4166 106.196 66.4378 106.179 66.4528 106.163C66.7993 105.809 67.145 105.455 67.5008 105.09C67.9704 105.215 67.3507 105.515 67.5952 105.754C67.8658 105.436 68.1205 105.137 68.3739 104.841C68.8153 104.961 68.9093 104.958 69.0418 104.799C69.3499 104.429 69.6562 104.057 69.9608 103.684C70.1171 103.492 70.284 103.357 70.5373 103.261C70.8812 103.131 71.1567 102.832 71.4855 102.649C71.915 102.411 72.0651 101.717 72.7767 101.899C72.9135 101.933 73.1281 101.508 73.3285 101.485C73.6507 101.447 73.7977 101.263 73.9712 101.058C74.0573 100.956 74.1685 100.876 74.2643 100.782C74.6395 100.413 75.0249 100.053 75.3838 99.6685C75.7493 99.2774 76.0839 98.8576 76.4414 98.459C76.5125 98.3796 76.6776 98.2657 76.7125 98.2904C77.0471 98.527 77.1318 98.1906 77.3075 98.0573C77.4108 97.9787 77.5291 97.9196 77.684 97.8256C77.8319 98.9534 77.6178 99.9404 77.4108 100.936C77.1384 102.245 77.3287 103.433 78.5682 104.202C79.2767 104.643 79.6692 105.368 80.1847 105.965C80.5886 106.433 81.0182 106.888 81.4203 107.361C81.6463 107.627 81.924 107.859 82.2096 108.062C83.4014 108.911 84.3086 108.619 85.2868 107.891C86.0372 107.332 86.3744 106.435 86.7995 105.634C86.9452 105.359 86.9028 104.976 86.9117 104.641C86.917 104.43 86.9148 104.186 86.8176 104.011C86.495 103.428 86.0849 102.894 85.8377 102.268C85.8046 102.185 85.7701 102.092 85.7083 102.031C85.3671 101.695 85.3684 101.266 85.383 100.839C85.4024 100.26 85.4664 99.6826 85.4625 99.1048C85.4558 98.1897 85.428 97.2733 85.3733 96.36C85.3115 95.3319 85.2086 94.3065 85.1265 93.2797C85.1053 93.0149 85.0947 92.7491 85.0766 92.4295C85.338 92.498 85.5538 92.5072 85.7158 92.6052C86.3577 92.9941 86.9827 93.4108 87.6153 93.8178C87.4908 93.9776 87.388 94.1101 87.2798 94.2491C87.3778 94.3396 87.4334 94.4244 87.5107 94.4579C88.3759 94.8331 88.4183 95.5858 88.3971 96.3688C88.3957 96.4134 88.3737 96.4576 88.3737 96.5017C88.3746 97.5417 88.3167 98.5866 88.3957 99.6209C88.4836 100.764 88.722 101.894 88.8434 103.035C88.8875 103.448 88.7886 103.878 88.7458 104.3C88.7215 104.543 88.6456 104.785 88.6518 105.026C88.6615 105.38 88.7917 105.741 88.7484 106.083C88.6884 106.555 88.8985 106.798 89.2631 107C90.2815 107.561 91.1251 108.328 91.9073 109.183C92.3253 109.64 92.8767 109.975 93.2952 110.432C93.6545 110.825 94.1555 110.797 94.5656 111.018C95.0017 111.253 95.4401 111.242 95.8091 110.879C96.1424 110.55 96.4862 110.57 96.8548 110.787C96.9908 110.867 97.1087 110.985 97.2521 111.041C97.6331 111.192 97.9681 111.514 98.4241 111.409C98.5817 110.796 99.1772 110.221 99.8278 110.095C100.467 109.971 101.114 109.884 101.761 109.803C103.143 109.629 104.534 109.528 105.89 109.168C106.804 108.925 107.729 108.7 108.687 108.987C108.986 109.076 109.306 109.095 109.608 109.177C110.019 109.29 110.4 109.414 110.646 109.85C110.797 110.118 111.12 110.342 111.415 110.457C111.667 110.556 111.898 110.613 112.104 110.822C112.332 111.054 112.653 111.139 112.977 110.977C113.596 110.664 114.211 110.343 114.827 110.025C115.619 109.615 116.029 108.534 115.674 107.786C115.365 107.136 115.04 106.493 114.744 105.838C114.501 105.3 114.33 104.771 114.606 104.157C114.934 103.424 115.154 102.643 115.449 101.894C115.728 101.187 116.035 100.491 116.346 99.797C116.529 99.3878 116.772 99.0042 116.935 98.5879C117.21 97.8847 117.659 97.6455 118.403 97.7726C119.209 97.9103 119.972 97.6437 120.468 97.0495C121.085 96.3101 121.502 95.4233 121.203 94.389C121.047 93.8487 120.969 93.2594 120.693 92.7871C120.393 92.2724 119.91 91.8623 119.497 91.4151C118.585 90.425 117.291 89.9801 116.249 89.1665C115.671 88.7158 114.988 88.3799 114.316 88.074C113.618 87.757 112.882 87.5438 112.09 87.772C110.74 88.1605 109.534 88.8646 108.287 89.4782C108.214 89.5144 108.178 89.6194 108.11 89.6733C107.959 89.7925 107.812 89.9364 107.638 90.0061C105.782 90.7512 103.916 91.4725 102.063 92.2247C100.898 92.6975 99.7422 93.1928 98.5985 93.7137C97.6366 94.1511 96.6972 94.6385 95.7491 95.1064C95.3504 95.3032 94.9549 95.5067 94.5197 95.727C94.3453 94.9492 93.7105 94.7139 93.1133 94.465C92.3068 94.1282 91.4813 93.8377 90.6651 93.5234C90.6422 93.5146 90.6378 93.4572 90.6373 93.4554C91.0002 92.9791 91.3732 92.5328 91.6914 92.0504C91.8195 91.8566 91.8755 91.5842 91.8782 91.3467C91.883 90.9675 91.8738 90.5689 91.7625 90.2123C91.6526 89.8609 91.4628 89.4998 91.2121 89.2336C90.4881 88.4664 89.4799 88.2219 88.5118 87.9769C87.8877 87.8188 87.214 87.8594 86.5629 87.8047C86.4168 87.7923 86.2729 87.7553 86.1052 87.7257C86.216 87.1964 86.5612 86.8768 86.8225 86.4981C87.3195 85.7786 87.708 84.98 88.2395 84.2901C88.7657 83.6067 89.076 82.8007 89.7774 82.1946C90.5177 81.555 90.9993 80.6161 91.7012 79.6617C91.7687 80.0241 91.8234 80.2391 91.8468 80.4571C91.9484 81.3974 91.9819 82.35 92.1554 83.277C92.2958 84.027 91.9665 84.8012 92.3275 85.5256C92.3501 85.5706 92.3139 85.6589 92.283 85.715C92.0207 86.1878 92.3271 86.487 92.6679 86.646C93.598 87.0803 94.2093 87.8722 94.9474 88.5251C95.6458 89.1427 96.2567 89.9041 97.2323 90.1301C97.4446 90.1791 97.6785 90.2586 97.8776 90.214C98.2029 90.1412 98.5512 90.0344 98.8117 89.8384C99.145 89.5872 99.4694 89.626 99.8327 89.6485C100.208 89.6715 100.588 89.6327 100.966 89.6119C101.185 89.5996 101.406 89.5845 101.62 89.5453C102.058 89.4654 102.496 89.3846 102.926 89.2733C103.274 89.1837 103.609 89.0486 103.951 88.9361C104.845 88.6425 105.753 88.3852 106.627 88.0413C106.985 87.9005 107.312 87.6131 107.578 87.3235C108.113 86.7426 108.261 86.0363 108.127 85.2537C108.099 85.0926 108.183 84.8259 108.307 84.7403C108.963 84.287 109.621 83.8244 110.329 83.4624C111.437 82.8956 112.42 82.199 113.305 81.3113C113.894 80.7198 114.354 80.1075 114.732 79.3575C115.051 78.7228 115.258 78.0778 115.468 77.4148C115.797 76.3704 115.635 75.3918 115.025 74.5301C114.724 74.1054 114.437 73.5991 113.765 73.521C113.243 73.4601 112.741 73.2124 112.236 73.0279C111.437 72.7357 110.663 72.3322 109.839 72.1521C109.02 71.9724 108.135 71.8687 107.401 72.5326C107.262 72.6589 107.056 72.7277 106.87 72.7811C106.446 72.903 106.086 73.0712 105.866 73.4985C105.519 74.1725 104.966 74.6113 104.216 74.7888C104.065 74.8245 103.922 74.9022 103.779 74.9675C102.694 75.4637 101.605 75.9493 100.529 76.4644C99.947 76.7434 99.3723 77.0462 98.8245 77.3874C98.0432 77.8743 97.2945 78.4142 96.5202 78.9135C96.3591 79.0176 96.1194 79.1364 95.964 79.0891C95.2661 78.8786 94.5859 78.6106 93.8544 78.3476C94.0513 78.1004 94.1873 77.9225 94.3307 77.7512C94.9545 77.0056 94.992 76.1603 94.728 75.2783C94.6751 75.1017 94.521 74.9521 94.4009 74.7998C94.3047 74.6775 94.1648 74.5848 94.0857 74.4542C93.628 73.6936 92.9711 73.2786 92.0878 73.1325C91.043 72.9595 90.0233 72.6801 89.0826 72.1526C88.673 71.923 88.2205 71.7579 87.7707 71.6175C87.5504 71.5487 87.2458 71.5165 87.0587 71.6167C86.4438 71.9464 85.7207 72.108 85.2748 72.7277C85.1707 72.873 84.9363 72.9197 84.7712 73.0261C84.5686 73.1568 84.3134 73.2614 84.1903 73.449C83.9205 73.8596 83.5224 74.0679 83.1004 74.2061C81.7333 74.6532 80.3542 75.0638 78.9783 75.484C78.461 75.642 77.9343 75.7718 77.4214 75.9422C76.1214 76.3744 74.8139 76.7893 73.5324 77.2722C72.2077 77.7715 70.9099 78.3423 69.6006 78.8821C68.6259 79.2843 67.6539 79.6952 66.6726 80.081C66.5027 80.1477 66.2842 80.1442 66.0997 80.1102C65.2111 79.9455 64.3635 80.2117 63.5027 80.319ZM105.653 94.5082C106.397 94.3458 107.156 94.2478 107.906 94.1171C108.634 93.9904 109.36 93.858 110.161 93.715C110.161 94.1816 110.201 94.5577 110.154 94.9227C109.881 97.0257 109.362 99.0792 108.892 101.143C108.848 101.337 108.809 101.535 108.797 101.734C108.754 102.415 108.448 102.93 107.851 103.261C107.699 103.346 107.601 103.411 107.51 103.601C107.406 103.82 107.091 104.007 106.833 104.07C106.214 104.22 105.637 104.376 105.157 104.859C104.952 105.065 104.537 105.062 104.084 105.193C104.147 104.871 104.128 104.628 104.237 104.474C104.627 103.922 104.767 103.294 104.903 102.654C104.936 102.499 105.064 102.338 105.192 102.232C105.884 101.659 106.587 101.096 107.295 100.542C107.744 100.19 108.21 99.8588 108.613 99.5599C108.448 99.1503 108.306 98.8117 108.178 98.4678C108.057 98.1425 107.818 97.9434 107.499 97.8671C107.018 97.7523 106.532 97.6437 106.042 97.5934C105.787 97.5669 105.517 97.6613 105.257 97.7196C105.066 97.7624 104.883 97.8362 104.597 97.9271C104.413 97.2747 104.255 96.6743 104.07 96.0819C103.969 95.7588 103.823 95.4502 103.662 95.0459C104.266 94.8804 104.952 94.6614 105.653 94.5082ZM98.1036 106.532C97.4181 105.404 96.9696 104.204 96.5105 102.996C97.9655 102.948 99.3436 102.599 100.79 102.277C100.977 103.441 100.452 104.571 101.056 105.676C100.022 105.976 99.0818 106.248 98.1036 106.532ZM95.4652 98.8625C95.6391 98.6343 95.8016 98.395 95.9945 98.184C96.1755 97.9862 96.3626 97.7629 96.5953 97.6477C97.3907 97.2544 98.191 96.8602 99.0214 96.5516C99.6857 96.3044 100.396 96.1817 101.167 95.983C101.167 97.1052 101.167 98.1977 101.167 99.3021C99.4345 100.148 97.5161 100.395 95.9773 101.653C95.8298 101.176 95.7164 100.79 95.5906 100.409C95.508 100.16 95.4233 99.9091 95.3103 99.6729C95.1575 99.3542 95.2798 99.1057 95.4652 98.8625ZM100.372 80.7432C101.03 80.4178 101.658 80.0298 102.297 79.6643C102.957 79.2865 103.611 78.8976 104.274 78.5254C104.382 78.4645 104.525 78.4654 104.8 78.4058C104.314 79.4193 103.88 80.3221 103.449 81.2265C103.237 81.6715 103.037 82.1222 102.826 82.5676C102.498 83.2593 102.163 83.9479 101.834 84.6383C101.63 85.0648 101.44 85.4982 101.225 85.9189C101.058 86.2473 100.773 86.2628 100.636 85.9273C100.354 85.2365 99.815 84.7549 99.3507 84.2097C99.2363 84.076 99.1057 83.936 99.0509 83.7758C98.8845 83.2862 98.7322 82.7985 98.3725 82.4007C98.2775 82.2957 98.2674 82.1147 98.2056 81.9311C98.9013 81.3766 99.6552 81.0972 100.372 80.7432Z" fill="black"/>
<path d="M239.052 77.5239C238.613 77.1831 238.753 76.7443 238.954 76.2821C239.03 76.1073 239.062 75.8809 239.025 75.6959C238.899 75.0669 238.615 74.5133 238.107 74.0993C237.456 73.5695 236.643 73.5691 235.875 73.4636C234.807 73.3171 233.729 73.2376 232.657 73.1153C232.406 73.0866 232.148 73.0081 231.968 73.242C231.651 73.6565 231.239 73.6005 230.774 73.5444C230.757 73.3475 230.739 73.1731 230.728 72.9979C230.627 71.4013 231.09 69.8783 231.352 68.3302C231.433 67.8509 231.579 67.3794 231.733 66.9172C231.78 66.7755 231.94 66.6519 232.077 66.5654C232.2 66.4877 232.362 66.4718 232.463 66.4423C232.539 66.0127 232.613 65.6402 232.668 65.265C232.717 64.9313 232.752 64.5949 232.778 64.2585C232.828 63.5972 232.225 63.2834 231.929 62.8248C231.74 62.5334 231.189 62.3802 230.785 62.3449C229.963 62.273 229.114 62.2249 228.307 62.3538C227.691 62.4522 227.086 62.6129 226.453 62.6332C225.958 62.6491 225.681 62.9625 225.583 63.426C225.515 63.7522 225.483 64.0864 225.433 64.4311C225.667 64.5657 225.875 64.6991 226.096 64.8085C226.419 64.9688 226.56 65.238 226.548 65.5775C226.533 66.0273 226.484 66.4754 226.451 66.9243C226.319 68.6975 226.179 70.4698 226.06 72.2439C226.014 72.9361 226.014 73.6318 225.992 74.3451C225.736 74.4127 225.524 74.4802 225.307 74.5239C223.898 74.8082 222.486 75.0854 221.077 75.3706C220.724 75.4421 220.378 75.5502 220.024 75.612C218.495 75.8787 216.959 76.1091 215.435 76.4022C214.13 76.6529 212.843 76.9893 211.541 77.255C209.908 77.5883 208.27 77.8942 206.632 78.2001C205.836 78.3489 205.04 78.5109 204.236 78.5943C203.176 78.7042 202.191 79.0411 201.227 79.3938C201.196 79.6604 201.138 79.882 201.155 80.0974C201.172 80.3093 201.21 80.5569 201.332 80.7167C202.381 82.0851 203.767 82.9437 205.421 83.4134C205.798 83.5202 206.221 83.7189 206.46 84.0089C207.004 84.6679 207.773 84.8551 208.495 85.1301C208.833 85.259 209.24 85.2325 209.616 85.2343C209.949 85.2356 210.282 85.1517 210.616 85.1535C211.246 85.157 211.821 85.0211 212.314 84.6083C212.556 84.4057 212.854 84.2459 213.038 84.0005C213.378 83.5467 213.846 83.42 214.349 83.2726C214.765 83.1507 215.13 82.8647 215.537 82.6992C216.596 82.2675 217.665 81.856 218.734 81.449C219.089 81.314 219.457 81.216 219.82 81.1008C219.943 80.914 220.094 80.7277 220.288 80.6545C220.642 80.5212 221.025 80.4669 221.39 80.3583C222.177 80.1243 223.009 80.0859 223.771 79.7076C224.296 79.4472 224.91 79.3664 225.557 79.185C225.467 80.3795 225.385 81.4707 225.297 82.6312C225.027 82.6691 224.825 82.6815 224.631 82.7283C224.132 82.8488 223.62 82.9428 223.142 83.1238C222.555 83.3463 222.004 83.6628 221.426 83.9096C220.065 84.4896 219.06 85.4223 218.397 86.7563C217.906 87.7434 217.716 88.8072 217.484 89.8609C217.438 90.0675 217.548 90.3363 217.653 90.542C217.869 90.9623 218.163 91.3428 218.366 91.7683C218.953 93.0025 219.717 94.0933 220.79 94.9563C220.936 95.0737 221.046 95.117 221.258 95.102C221.736 95.0689 222.23 95.0984 222.703 95.1836C223.345 95.2988 223.968 95.4026 224.688 94.932C223.968 99.2059 223.609 103.368 223.538 107.55C223.898 107.381 224.154 107.049 224.255 106.625C224.378 106.11 224.671 105.701 224.937 105.26C225.398 104.497 225.778 103.686 226.205 102.903C226.385 102.574 226.605 102.269 226.795 101.945C227.018 101.565 227.283 101.197 227.431 100.788C227.705 100.027 228.12 99.3392 228.463 98.6149C228.549 98.4339 228.648 98.2582 228.722 98.0728C228.991 97.4062 229.275 96.7445 229.51 96.0656C229.817 95.1779 230.151 94.2902 230.346 93.3755C230.534 92.4993 230.527 91.5838 230.661 90.6943C230.908 89.0606 230.594 87.5147 230.028 85.9949C229.88 85.598 229.661 85.1848 229.665 84.7818C229.676 83.793 229.737 82.7958 229.894 81.8203C230.079 80.6699 230.383 79.5385 230.643 78.4001C230.724 78.0412 230.921 77.8461 231.327 77.7781C232.865 77.5212 234.338 77.7794 235.768 78.3043C236.597 78.6089 237.375 78.604 238.172 78.2535C238.513 78.1043 238.918 78.0487 239.052 77.5239ZM225.157 90.0066C225.15 90.3187 224.913 90.5707 224.523 90.5659C224.041 90.5601 223.658 90.7283 223.269 90.9737C223.147 91.0505 222.93 91.0461 222.782 90.9989C222.441 90.8903 222.089 90.7742 221.797 90.5787C221.624 90.4634 221.557 90.1902 221.508 90.1028C221.574 88.1367 222.417 87.2031 224.176 86.8075C224.528 86.7281 224.804 86.8437 224.936 87.2004C225.021 87.4313 225.14 87.6674 225.15 87.9054C225.178 88.6046 225.17 89.306 225.157 90.0066Z" fill="black"/>
<path d="M151.741 25.705C151.067 25.4145 150.413 25.0358 149.632 25.068C149.09 25.0901 148.546 25.087 148.004 25.0711C147.285 25.0503 146.563 25.0402 145.849 24.9612C145.383 24.9095 145.028 24.9678 144.724 25.3642C144.371 25.8242 143.877 26.0753 143.299 26.1875C142.24 26.3932 141.185 26.6205 140.132 26.8553C138.462 27.2275 136.778 27.5572 135.21 28.2851C134.802 28.4749 134.378 28.6312 133.974 28.8294C132.747 29.4315 131.513 30.0217 130.309 30.6662C129.598 31.0463 128.93 31.5084 128.259 31.9574C127.947 32.1662 127.64 32.3052 127.254 32.2721C127.099 32.2584 126.935 32.3321 126.71 32.3798C126.812 32.5348 126.842 32.6288 126.906 32.6712C127.812 33.2675 128.779 33.7412 129.811 34.0749C130.276 34.2254 130.772 34.2991 131.215 34.4947C131.743 34.7273 132.246 34.9357 132.826 34.6766C132.863 34.7114 132.9 34.7463 132.938 34.7812C132.524 35.6265 132.134 36.4847 131.689 37.3128C131.317 38.0049 130.86 38.6507 130.475 39.3363C129.637 40.827 128.743 42.2899 128.104 43.8852C128.072 43.966 127.978 44.1024 127.957 44.0949C127.531 43.9355 127.623 44.3332 127.543 44.4966C127.096 45.4055 127.23 46.099 127.957 46.803C128.184 47.0229 128.506 47.2025 128.618 47.47C128.877 48.0889 129.407 48.4783 129.773 49.0013C130.018 49.3523 130.332 49.6697 130.853 49.5187C130.951 49.4904 131.08 49.5227 131.181 49.5624C132.565 50.1058 133.862 49.7191 135.051 49.0548C136.323 48.3441 137.558 47.5429 138.612 46.5121C138.782 46.3457 138.924 46.1374 139.033 45.9246C139.15 45.6968 139.293 45.5547 139.527 45.4214C140.068 45.1132 140.574 44.7376 141.07 44.3588C141.451 44.0684 141.796 43.7316 142.193 43.3837C142.359 43.6813 142.565 43.9051 142.603 44.1545C142.656 44.5054 142.851 44.7416 143.081 44.9402C143.622 45.4081 144.196 45.8385 144.757 46.2839C145.285 46.7033 145.844 47.0891 146.333 47.549C147.006 48.1821 147.678 48.8018 148.496 49.249C148.841 49.4375 149.137 49.4335 149.426 49.1748C149.795 48.8442 150.184 48.5511 150.655 48.3719C150.796 48.3185 150.921 48.1949 151.024 48.0779C151.947 47.0264 152.568 45.3975 151.593 43.7444C151.375 43.374 151.128 43.0571 150.767 42.7966C149.882 42.1592 148.937 41.5951 148.192 40.7758C148.012 40.5776 147.713 40.4562 147.604 40.2333C147.478 39.9763 147.308 39.8651 147.071 39.7808C146.858 39.7053 146.657 39.595 146.441 39.5327C145.536 39.2723 144.624 39.0383 143.723 38.7677C142.891 38.5179 141.799 38.818 141.306 39.5155C141.091 39.8196 140.829 39.9883 140.482 40.0412C139.945 40.1233 139.573 40.4474 139.17 40.846C140.194 41.2366 141.019 41.8127 141.809 42.4938C141.206 42.7083 140.627 42.9101 140.033 42.9719C138.689 43.1114 137.337 43.1846 135.989 43.2782C135.751 43.2946 135.513 43.2804 135.136 43.2804C135.605 42.6068 135.92 41.9981 136.401 41.4904C136.908 40.955 137.401 40.4041 137.88 39.843C138.216 39.4502 138.52 39.0299 138.837 38.6207C139.278 38.0495 139.724 37.4818 140.156 36.9045C140.688 36.1946 141.145 35.4482 142.005 35.0218C143.058 34.4996 143.315 33.6273 142.921 32.5193C142.826 32.2527 142.799 31.9622 142.739 31.6731C142.989 31.5658 143.167 31.4674 143.358 31.4109C144.281 31.1376 145.202 30.8534 146.135 30.6181C146.783 30.4543 147.438 30.2393 148.125 30.4671C148.463 30.5792 148.807 30.683 149.157 30.7448C149.575 30.8189 150.002 30.8516 150.426 30.8838C150.5 30.8896 150.585 30.811 150.659 30.7633C151.307 30.3488 151.865 29.8376 152.257 29.1728C152.483 28.7906 152.717 28.3928 152.834 27.9708C152.976 27.4548 152.226 25.9147 151.741 25.705Z" fill="black"/>
<path d="M205.69 26.1831C206.372 25.9195 207.084 25.7368 207.777 25.5011C208.576 25.2296 209.343 24.8455 210.266 24.8195C210.186 24.9736 210.126 25.0901 210.064 25.2066C209.685 25.9244 209.2 26.6068 208.948 27.3665C208.272 29.4081 207.85 31.5115 207.99 33.6781C208.069 34.9013 208.364 36.0945 209.086 37.1133C209.737 38.0301 210.426 38.9253 211.159 39.7777C211.804 40.5286 212.505 41.2464 213.558 41.4335C213.641 41.4485 213.718 41.513 213.793 41.562C214.972 42.3287 216.197 42.7287 217.572 42.0705C217.912 41.9076 218.265 41.7368 218.631 41.6684C219.133 41.5743 219.426 41.2971 219.564 40.8853C219.851 40.8076 220.114 40.7886 220.319 40.6699C220.685 40.4584 221.002 40.1613 221.367 39.9468C221.937 39.6117 222.363 39.0317 223.078 38.9827C222.984 38.163 223.378 37.6134 223.944 37.1031C222.826 37.1548 221.819 36.8524 220.818 36.501C220.267 36.3072 219.711 36.1201 219.146 35.9775C217.795 35.6367 216.579 35.013 215.45 34.2201C215.143 34.0043 214.828 33.7174 214.67 33.3889C214.378 32.7842 214.15 32.137 213.988 31.4842C213.859 30.9651 213.838 30.4133 214.091 29.8933C214.806 28.4233 216.209 27.5965 217.291 26.4713C217.549 26.2038 217.923 26.0471 218.174 25.7747C218.652 25.2552 219.233 24.8888 219.82 24.518C220.422 24.1379 221.014 23.7398 221.589 23.32C221.936 23.0661 222.199 22.6415 222.577 22.4989C223.116 22.2959 223.324 21.865 223.617 21.4682C223.718 21.3296 223.851 21.2139 223.969 21.0881C223.84 20.6308 223.588 20.1898 223.629 19.7779C223.688 19.1833 223.352 19.0311 222.955 18.8624C222.52 18.6775 222.071 18.5247 221.639 18.3332C220.777 17.9509 219.942 17.4997 219.057 17.185C218.682 17.0517 218.242 16.8667 217.783 17.0949C217.25 17.3598 216.764 17.7491 216.126 17.7765C216.006 17.7818 215.881 17.8851 215.775 17.965C215.384 18.2586 214.933 18.3729 214.462 18.4497C212.863 18.7106 211.259 18.9419 209.67 19.2557C208.191 19.548 206.731 19.9373 205.26 20.2723C204.536 20.437 203.808 20.5928 203.077 20.7195C202.456 20.8272 201.828 20.9098 201.2 20.9627C200.418 21.0281 199.625 21.1393 198.852 21.0674C198.172 21.0038 197.479 20.8303 196.863 20.4582C196.658 20.3341 196.396 20.2556 196.157 20.2467C195.419 20.2198 194.681 20.237 193.892 20.237C193.862 20.5928 193.806 20.8603 193.824 21.1225C193.861 21.6593 193.973 22.1926 193.988 22.7285C194.011 23.5199 194.291 24.1852 194.862 24.7149C195.66 25.4547 196.366 26.2608 196.914 27.2081C197.044 27.4323 197.268 27.6133 197.477 27.7779C197.895 28.1064 198.332 28.4101 198.815 28.7637C199.275 28.6065 199.792 28.3218 200.332 28.2666C201.736 28.124 202.923 27.4173 204.188 26.9158C204.704 26.7115 205.172 26.3835 205.69 26.1831Z" fill="black"/>
<path d="M147.459 74.798C147.053 74.4551 146.598 74.2246 146.035 74.3037C145.911 74.3209 145.757 74.3209 145.655 74.2622C145.056 73.9165 144.468 73.559 143.76 73.4658C143.681 73.4552 143.621 73.2985 143.586 73.2531C142.804 73.4561 142.158 73.6547 141.499 73.7863C140.821 73.9214 140.38 74.3544 140.301 75.0325C140.279 75.2214 140.229 75.4399 140.113 75.5794C139.781 75.9771 139.422 76.3541 139.049 76.7156C137.969 77.7649 136.88 78.8044 135.789 79.8427C135.502 80.1159 135.196 80.3698 134.847 80.6779C134.751 80.4007 134.607 80.1027 134.547 79.7893C134.331 78.6583 133.731 77.8157 132.735 77.2453C132.386 77.0454 132.047 76.8291 131.697 76.6304C131.098 76.2901 130.502 75.9458 129.891 75.6279C129.633 75.4942 129.313 75.4699 129.073 75.3154C128.558 74.9834 128.094 75.0258 127.543 75.2646C126.993 75.5035 126.452 75.8584 125.779 75.7255C125.532 75.6765 125.257 75.7749 125.116 76.0407C125.517 76.4115 125.935 76.7253 126.256 77.1178C126.487 77.3998 126.659 77.7724 126.734 78.13C126.85 78.6778 126.833 79.2516 126.919 79.8074C127.106 81.012 127.314 82.2242 128.024 83.2514C128.406 83.8036 128.885 84.2888 129.333 84.7933C129.631 85.1292 129.959 85.4387 130.259 85.7728C130.606 86.1595 130.703 86.5793 130.415 87.0583C130.241 87.347 130.08 87.6502 129.963 87.9654C129.487 89.2526 128.995 90.5372 128.829 91.9135C128.678 93.1672 128.539 94.416 128.761 95.6838C128.97 96.877 129.539 97.8922 130.251 98.8223C130.669 99.3679 131.173 99.9025 131.751 100.256C132.587 100.766 133.52 101.122 134.423 101.518C135.291 101.898 136.171 101.848 137.058 101.547C137.528 101.387 137.914 101.104 138.333 100.857C138.871 100.539 139.454 100.317 139.859 99.7944C140.168 99.3957 140.597 99.0837 140.872 98.6669C141.185 98.1942 141.559 97.7726 141.879 97.3224C142.379 96.617 142.84 95.8347 142.94 94.9228C142.952 94.8142 142.986 94.6786 143.06 94.6111C143.429 94.2765 143.467 93.7199 143.906 93.4201C144.092 93.293 144.179 93.0211 144.289 92.8489C144.05 92.6326 143.852 92.4538 143.656 92.2768C142.796 93.3424 141.724 94.0677 140.384 94.4014C138.471 94.8782 136.573 95.0115 134.668 94.3418C134.113 94.1472 133.882 93.779 133.842 93.2444C133.825 93.022 133.842 92.792 133.877 92.5708C134.029 91.616 134.163 90.6568 134.368 89.7135C134.457 89.3096 134.64 88.8884 134.894 88.5662C135.487 87.8162 136.157 87.1276 136.781 86.4019C137.19 85.9273 137.611 85.4559 137.952 84.9337C138.111 84.6891 138.282 84.5302 138.526 84.4031C139.184 84.0605 139.835 83.7061 140.49 83.3578C141.906 82.6047 143.168 81.5581 144.755 81.1272C145.347 80.9666 145.911 80.6589 146.547 81.0491C146.801 81.2049 147.082 81.1957 147.386 80.9065C147.915 80.4037 148.56 80.025 149.141 79.5752C149.314 79.4414 149.579 79.2229 149.558 79.0799C149.496 78.6689 149.756 78.4668 149.998 78.2165C149.582 77.632 149.108 77.0917 149.292 76.4062C148.638 75.8297 148.057 75.3039 147.459 74.798Z" fill="black"/>
<path d="M195.73 82.1289C196.202 81.5824 196.186 81.1842 195.589 80.7573C195.316 80.5622 195.026 80.3896 194.761 80.1852C193.337 79.0874 191.989 77.8912 190.461 76.9253C190.125 76.7125 189.859 76.7077 189.52 76.83C189.208 76.9416 188.879 77.0061 188.559 77.0944C188.43 77.1301 188.3 77.1654 188.177 77.2158C187.349 77.5552 186.537 77.9393 185.693 78.2302C184.611 78.6036 183.507 78.9206 182.402 79.2221C182.091 79.3073 181.732 79.3315 181.456 79.0318C181.362 78.9285 181.21 78.8773 181.083 78.8023C181.047 78.9991 181.068 79.1589 181.157 79.2552C181.826 79.976 182.496 80.6986 183.197 81.3877C183.386 81.5731 183.643 81.7581 183.988 81.5921C184.112 81.5325 184.314 81.6367 184.513 81.6724C184.091 82.7023 183.717 83.6933 183.28 84.6556C182.984 85.3093 182.616 85.9331 182.248 86.5515C182.009 86.9554 181.64 87.1289 181.155 86.993C180.996 86.9484 180.824 86.9515 180.575 86.9232C180.769 87.7924 180.992 88.5627 181.103 89.3489C181.218 90.1514 181.127 90.9596 180.891 91.8089C180.243 91.88 179.6 91.9634 178.954 92.0195C177.087 92.1819 175.224 92.4177 173.488 93.1434C171.918 93.7998 171.432 94.4337 171.621 95.9588C171.632 96.0484 171.661 96.1416 171.647 96.2276C171.513 97.0844 171.609 97.9355 171.766 98.772C171.885 99.4094 171.893 100.149 172.683 100.441C172.758 100.468 172.805 100.565 172.869 100.626C173.191 100.933 173.509 101.244 173.838 101.542C174.168 101.841 174.51 102.109 174.719 102.534C175.014 103.13 175.388 103.687 175.745 104.289C175.922 104.189 176.028 104.104 176.149 104.066C176.538 103.942 176.984 103.585 177.331 103.916C177.724 104.29 178.226 104.28 178.656 104.491C178.949 104.635 179.349 104.567 179.703 104.581C180.196 104.6 180.604 104.166 181.128 104.307C181.187 104.323 181.324 104.24 181.344 104.177C181.471 103.791 181.792 103.874 182.073 103.846C182.897 103.765 183.567 103.32 183.806 102.609C184.044 101.9 184.003 101.19 184.011 100.472C184.017 99.8239 183.984 99.1711 184.047 98.5283C184.118 97.8146 184.28 97.1105 184.401 96.4016C184.522 95.6873 185.061 95.4225 185.729 95.739C186.217 95.9698 186.711 96.1897 187.209 96.398C187.349 96.4563 187.524 96.504 187.664 96.4726C188.245 96.342 188.886 96.349 189.299 95.7937C189.371 95.697 189.539 95.6776 189.65 95.6039C189.888 95.4459 190.127 95.2883 190.346 95.1064C190.5 94.9784 190.613 94.8031 190.756 94.661C191.302 94.1194 191.296 93.4541 190.763 92.8847C190.312 92.4044 189.773 92.1113 189.125 92.023C188.412 91.9255 187.699 91.7895 186.982 91.771C186.522 91.7591 186.207 91.6332 186.005 91.2311C185.699 91.2139 185.412 91.1976 185.09 91.179C185.078 90.6316 184.911 90.1262 185.287 89.6539C185.378 89.5396 185.361 89.3065 185.335 89.1374C185.243 88.5397 184.742 88.1155 184.094 87.9553C183.434 87.7915 182.789 87.5628 182.137 87.3629C182.144 87.3143 182.151 87.2653 182.158 87.2168C182.334 87.2538 182.432 86.8385 182.683 87.2C182.729 87.2671 182.983 87.2627 183.092 87.2017C183.91 86.7444 184.737 86.2973 185.514 85.7781C185.874 85.5384 186.21 85.3363 186.63 85.199C186.986 85.0825 187.352 85.0652 187.695 84.9491C188.431 84.6989 189.153 84.3996 189.958 84.5633C190.021 84.5761 190.103 84.5753 190.155 84.5444C190.461 84.3607 190.713 84.5046 190.973 84.6565C191.108 84.7355 191.252 84.833 191.4 84.8507C192.563 84.9889 193.599 84.6878 194.4 83.8173C194.884 83.292 195.262 82.6705 195.73 82.1289ZM180.013 97.7576C179.975 98.1381 179.93 98.5182 179.906 98.8992C179.887 99.2112 179.715 99.3657 179.43 99.3423C179.121 99.3167 178.807 99.2602 178.513 99.164C177.659 98.8841 176.812 98.5782 175.963 98.2807C175.838 98.237 175.688 98.2127 175.599 98.128C175.039 97.5969 174.745 96.9498 174.747 96.2126C175.357 96.0828 175.908 95.9915 176.445 95.8462C177.593 95.5346 178.76 95.5695 179.93 95.622C180.011 95.6255 180.089 95.6957 180.211 95.7549C180.145 96.4192 180.079 97.0884 180.013 97.7576Z" fill="black"/>
<path d="M177.515 42.082C177.722 41.9332 177.786 41.7602 177.832 41.5262C177.923 41.0605 178.06 40.6036 178.193 40.0792C178.016 40.1507 177.874 40.2068 177.733 40.2646C177.627 40.3079 177.461 40.3251 177.425 40.4024C177.085 41.1285 176.403 41.3196 175.733 41.336C173.957 41.3801 172.177 41.5673 170.401 41.3655C169.939 41.313 169.488 41.1466 169.042 41.0005C168.727 40.8972 168.562 40.6624 168.449 40.3255C168.012 39.007 167.632 37.6801 167.481 36.2927C167.419 35.7144 167.293 35.1427 167.222 34.5654C167.175 34.1884 167.136 33.8034 167.161 33.4269C167.241 32.2381 167.338 31.0503 167.458 29.865C167.509 29.36 167.477 28.7438 167.752 28.384C168.408 27.5255 168.448 26.5565 168.571 25.577C168.658 24.8897 168.689 24.1693 168.932 23.5354C169.157 22.9487 169.194 22.3612 169.288 21.7683C169.346 21.4086 169.184 21.1481 168.877 20.9906C168.66 20.8784 168.417 20.8162 168.189 20.7235C167.94 20.6228 167.634 20.5721 167.463 20.3942C167.128 20.0468 166.73 20.0057 166.3 19.9501C165.904 19.8989 165.504 19.8111 165.129 19.6742C164.583 19.4747 164.063 19.2045 163.522 18.9891C163.211 18.8655 162.883 18.7812 162.559 18.6951C161.932 18.5283 161.344 18.4634 160.797 18.9816C160.356 19.3992 159.827 19.6596 159.162 19.6694C158.848 19.6738 158.518 19.9461 158.235 20.151C158.103 20.2463 158.064 20.471 158.015 20.5694C158.72 21.1813 159.314 21.7759 159.991 22.2539C160.384 22.5316 160.57 22.8715 160.68 23.2811C160.974 24.3763 161.053 25.5024 161.058 26.6289C161.063 27.5974 160.987 28.5659 160.968 29.5348C160.923 31.9053 160.967 34.2722 161.254 36.6295C161.498 38.6397 161.636 40.6721 162.347 42.5936C162.674 43.4773 162.977 44.3823 163.7 45.0581C164.209 45.5331 164.705 46.0217 165.188 46.5223C165.953 47.3142 166.852 47.8991 167.9 48.2125C168.813 48.4853 169.742 48.3635 170.61 48.0099C171.314 47.723 172.133 47.6276 172.639 46.9518C173.359 46.7739 173.735 46.0345 174.453 45.8403C174.586 45.8041 174.752 45.6505 174.784 45.5216C174.879 45.1371 175.174 45.0983 175.466 45.0806C175.742 45.0638 175.869 44.9451 175.925 44.686C175.966 44.4931 176.019 44.1642 176.117 44.1448C176.627 44.0437 176.634 43.559 176.716 43.2663C176.86 42.7547 177.109 42.3729 177.515 42.082Z" fill="black"/>
<path d="M172.144 81.4737C172.409 81.4309 172.737 81.5002 172.974 81.6317C173.462 81.9041 173.977 82.0361 174.52 82.059C174.728 82.0678 174.998 82.0197 175.142 81.8899C175.649 81.4348 176.257 81.0676 176.483 80.3467C176.58 80.0342 176.798 79.7539 176.988 79.4771C177.252 79.0926 177.26 78.6547 177.198 78.2402C177.148 77.9025 176.939 77.5913 176.821 77.2607C176.645 76.7676 176.349 76.463 175.786 76.4714C175.612 76.4741 175.437 76.3977 175.265 76.3496C174.184 76.0485 173.125 75.6424 171.972 75.6914C171.801 75.6989 171.627 75.6265 171.412 75.5828C171.482 75.2081 171.516 74.8496 171.62 74.5128C171.839 73.8048 172.087 73.1051 172.34 72.4076C172.454 72.0933 172.598 71.7896 172.743 71.4877C172.958 71.037 173.184 70.5956 172.937 70.0773C172.895 69.9886 172.92 69.8615 172.932 69.7538C172.98 69.3176 172.892 69.108 172.548 68.9336C171.555 68.4317 170.464 68.2255 169.406 67.9249C169.17 67.8583 168.88 67.9881 168.614 68.026C168.487 68.0437 168.353 68.09 168.232 68.0666C167.798 67.9828 167.371 67.8517 166.935 67.7872C166.762 67.7616 166.571 67.8649 166.333 67.9227C166.434 68.1231 166.471 68.2613 166.557 68.354C166.975 68.8065 167.106 69.3075 166.911 69.9056C166.771 70.3334 166.688 70.7788 166.565 71.2127C166.266 72.2757 165.951 73.3342 165.657 74.3989C165.351 75.5073 165.053 76.618 164.769 77.7326C164.689 78.0469 164.555 78.2477 164.218 78.3276C163.694 78.4521 163.177 78.6079 162.662 78.7699C161.184 79.2352 159.75 79.8311 158.159 79.9101C157.52 79.9419 156.939 80.0024 156.377 79.5919C156.371 80.4443 156.722 81.0331 157.344 81.5395C158.331 82.342 159.295 83.1794 160.21 84.0622C160.695 84.5301 161.218 84.78 161.784 84.8171C162.034 84.6564 162.224 84.5337 162.487 84.3646C162.501 84.6608 162.537 84.8418 162.512 85.0135C162.416 85.6593 162.334 86.3104 162.179 86.943C162.091 87.3014 161.908 87.6528 161.699 87.9609C161.432 88.3551 161.269 88.7612 161.35 89.2287C161.408 89.5593 161.511 89.8847 161.621 90.2029C162.066 91.4782 162.693 92.6643 163.447 93.7803C163.565 93.9555 163.833 94.0712 164.054 94.1277C164.46 94.2314 164.888 94.2508 165.298 94.3448C165.543 94.4009 165.756 94.4049 165.91 94.2009C166.35 93.6156 166.917 93.1728 167.499 92.7451C168.01 92.3708 167.967 91.766 168.113 91.242C168.133 91.1701 168.09 91.0434 168.032 90.9931C167.546 90.5698 167.639 89.999 167.705 89.4852C167.812 88.6504 167.826 87.7508 168.633 87.1831C168.695 87.1394 168.708 87.026 168.769 86.8878C168.522 86.9337 168.325 86.9699 168.028 87.0242C168.6 85.3106 169.139 83.698 169.712 81.9809C170.518 81.807 171.326 81.6066 172.144 81.4737Z" fill="black"/>
<path d="M100.649 70.9748C100.723 70.9315 100.82 70.9055 100.867 70.8419C101.107 70.5188 101.345 70.2561 101.822 70.4053C101.934 70.4402 102.148 70.2747 102.263 70.1524C102.862 69.5154 103.596 69.0727 104.348 68.6515C104.599 68.5107 104.842 68.3386 105.111 68.2481C105.642 68.0697 106.182 67.8896 106.732 67.7991C107.569 67.6618 108.413 67.4204 109.269 67.7042C109.562 67.8018 109.845 67.9854 110.141 68.0079C111.168 68.0856 112.113 67.8543 112.798 67.0178C113.067 66.6898 113.318 66.3195 113.465 65.9266C113.679 65.3519 114.023 64.7595 113.688 64.115C113.36 63.4851 113.053 62.837 112.648 62.2588C112.43 61.9476 112.059 61.669 111.699 61.5494C111.153 61.3675 110.556 61.3393 109.982 61.2408C109.649 61.1839 109.304 61.1578 108.99 61.0457C108.334 60.8113 107.687 60.5451 107.05 60.2618C106.437 59.9894 105.929 60.0834 105.392 60.5407C104.846 61.0047 104.295 61.4788 103.686 61.8478C102.843 62.3581 101.946 62.7814 101.065 63.2286C99.9023 63.8188 98.7405 64.4112 97.5645 64.9744C96.246 65.6057 95.0011 66.3407 93.8556 67.2593C93.0606 67.8962 92.1857 68.4167 91.0866 68.2772C91.0579 68.2737 91.023 68.3218 90.9268 68.3929C91.6397 68.9257 92.3504 69.4134 93.1547 69.7516C93.962 70.091 94.7906 70.3828 95.5807 70.7571C96.1391 71.0216 96.6909 71.1107 97.2754 70.9589C97.7751 70.8291 98.2668 70.6658 98.7581 70.5051C99.3519 70.3109 99.9385 70.0959 100.534 69.9087C100.649 69.873 100.79 69.9255 100.991 69.944C100.832 70.2906 100.695 70.5876 100.559 70.8852C100.589 70.9138 100.619 70.9443 100.649 70.9748Z" fill="black"/>
<path d="M11.5517 5.75641C10.8388 7.05863 10.2058 8.41381 9.14858 9.49663C9.07442 9.57256 9.03734 9.68424 8.96362 9.81358C9.21877 9.91952 9.43419 10.048 9.66638 10.0934C9.84692 10.1288 10.0831 10.1195 10.2332 10.029C10.6896 9.75222 11.1756 9.74251 11.6718 9.79327C12.0748 9.83432 12.4805 9.88685 12.8729 9.98264C13.3373 10.0961 13.7823 10.2793 14.0312 10.7313C14.2122 11.0602 14.3433 11.4186 14.5406 11.7369C14.8973 12.3116 15.2619 12.897 15.9148 13.187C17.1433 13.733 18.3638 14.3025 19.6166 14.7871C20.8835 15.2771 22.1592 15.406 23.3087 14.4362C23.3427 14.4075 23.3886 14.393 23.4239 14.3656C24.1677 13.7886 24.8299 13.1623 24.8352 12.1174C24.8361 11.9633 24.9159 11.8106 24.9279 11.6543C24.9446 11.4402 24.9641 11.2178 24.9257 11.009C24.746 10.0281 24.2944 9.15055 23.8265 8.2858C23.6711 7.99843 23.4407 7.74549 23.2151 7.50403C22.8501 7.1138 22.4638 6.74212 22.0793 6.37088C21.856 6.15502 21.637 5.92636 21.3823 5.75288C20.6769 5.27217 19.9419 4.83427 19.2423 4.34561C18.8785 4.09179 18.5426 3.78809 18.2318 3.47026C17.6187 2.84343 17.0576 2.16407 16.4255 1.55755C15.9872 1.13687 15.4447 0.97045 14.8156 1.19779C14.0798 1.46353 13.4119 1.90363 12.6041 1.99589C12.0611 2.05813 11.5305 2.2272 11.0119 2.34462C11.3915 2.87389 11.734 3.35593 12.0819 3.83355C12.2298 4.03617 12.2496 4.24496 12.1472 4.46921C11.9512 4.89916 11.7786 5.3428 11.5517 5.75641Z" fill="black"/>
<path d="M41.5437 49.7351C41.6938 50.0891 42.0288 50.3792 42.3233 50.6515C42.4729 50.7897 42.7223 50.8996 42.9205 50.8908C43.5756 50.8621 44.2417 50.7566 44.7246 50.2688C45.0977 49.8923 45.4932 49.8486 45.9562 49.9677C46.2392 50.0406 46.5367 50.0821 46.7998 50.1999C47.3595 50.4502 47.9374 50.4017 48.5125 50.3531C49.2316 50.2922 49.7786 50.0291 49.9971 49.2279C50.1944 48.5049 50.6566 47.8635 50.6817 47.0751C50.6861 46.9378 50.8062 46.7798 50.9148 46.6747C51.4467 46.1591 51.8184 45.4665 52.5596 45.1778C52.6602 45.1385 52.7529 45.0577 52.8275 44.9765C53.4155 44.3404 53.883 43.6465 54.0149 42.7566C54.0556 42.4833 54.1973 42.2052 54.3575 41.9744C54.5614 41.6804 54.6426 41.3842 54.6197 41.0328C54.5601 40.1257 53.792 39.3845 52.8469 39.1938C52.3892 39.1016 51.9045 39.128 51.456 39.0089C50.9373 38.8716 50.431 38.6632 49.9463 38.4293C49.5609 38.2434 49.2374 38.1768 48.8992 38.5017C48.8123 38.5851 48.66 38.6275 48.5333 38.6381C47.8173 38.6972 47.3322 39.0782 46.9697 39.6767C46.8095 39.9416 46.6316 40.2612 46.3774 40.391C45.5603 40.8072 44.7043 41.1462 43.8449 41.5232C43.5924 40.7291 43.0746 40.2343 42.3785 40.0078C41.8306 39.8299 41.229 39.8149 40.6503 39.7354C40.5646 39.724 40.4446 39.7244 40.3894 39.7734C40.1122 40.0197 39.8018 40.0365 39.4478 40.0272C39.2629 40.0224 39.0033 40.1786 38.9031 40.3398C38.7843 40.5313 38.7574 40.8024 38.9993 41.0076C39.1512 41.1365 39.2708 41.3091 39.3851 41.4756C39.5242 41.6773 39.7166 41.8808 39.7555 42.1055C39.8888 42.8806 39.9886 43.6642 40.0482 44.4481C40.0645 44.6644 39.9616 44.9959 39.801 45.0988C39.3679 45.376 39.4487 45.6651 39.684 45.9878C39.5207 46.1896 39.382 46.3604 39.2134 46.5688C39.4315 46.8208 39.6332 47.0539 39.8244 47.275C39.8244 47.6507 39.8244 47.9994 39.8244 48.3062C40.5439 48.6889 41.2193 48.9679 41.5437 49.7351ZM47.4483 43.221C47.6332 43.6928 47.7012 44.6666 47.6089 45.6925C46.6047 45.9998 45.6185 46.3012 44.575 46.6204C44.3799 45.9075 44.1896 45.2114 43.9923 44.4896C45.0826 43.7904 46.195 43.3185 47.4483 43.221Z" fill="black"/>
<path d="M81.4338 34.3994C80.845 34.8563 80.1382 34.9004 79.4721 35.0699C78.7592 35.2514 78.0454 35.5074 77.223 35.3317C77.1864 35.224 77.1454 35.1428 77.1312 35.0571C76.9763 34.1226 76.8072 33.1956 76.4042 32.3234C76.3097 32.119 76.3336 31.8449 76.353 31.6069C76.4073 30.9549 76.1093 30.4137 75.6732 30.031C75.3946 29.7865 75.1271 29.5764 75.0124 29.2294C74.8892 28.8577 74.6191 28.712 74.2695 28.626C73.7698 28.5032 73.263 28.3999 72.8564 28.034C72.7306 27.9206 72.5338 27.8791 72.3634 27.8234C71.9815 27.6981 71.601 27.5551 71.209 27.4778C70.9826 27.4332 70.723 27.465 70.4974 27.5295C70.2441 27.6018 70.0114 27.7484 69.7704 27.8645C69.3948 28.0455 69.3087 28.2163 69.4482 28.6233C69.555 28.9345 69.6274 29.2651 69.9691 29.4567C70.0913 29.5251 70.1739 29.7529 70.1862 29.9149C70.2511 30.7907 70.2895 31.6683 70.335 32.5454C70.3884 33.5819 70.4771 34.613 70.8237 35.6023C71.0426 36.2278 71.126 36.8427 70.953 37.5137C70.731 38.3736 70.8426 39.2441 71.3812 39.9636C71.6942 40.3821 72.1431 40.7167 72.5788 41.0208C73.2189 41.4675 73.632 42.1098 74.1207 42.6846C74.5127 43.1454 74.7934 43.7078 75.215 44.1351C75.5845 44.509 75.9968 44.961 76.6664 44.637C77.1255 44.415 77.6084 44.2287 78.0984 44.0874C78.7195 43.9086 79.1053 43.3745 79.6703 43.1154C79.7891 43.0607 79.8566 42.8678 79.9211 42.7265C80.0504 42.444 80.1621 42.1774 80.4216 41.9544C80.7929 41.6353 80.7598 41.1462 80.7412 40.6893C80.7275 40.3578 80.4812 40.2629 80.2415 40.1194C79.8319 39.8744 79.7277 39.5133 79.9422 39.0807C80.0451 38.8737 80.223 38.6857 80.4079 38.5426C80.6454 38.3586 80.7668 38.2557 80.7099 37.8633C80.6521 37.4664 80.7584 36.9411 81.1672 36.6021C81.3504 36.4498 81.5738 36.2318 81.5976 36.023C81.6687 35.3926 81.8311 34.8232 82.3008 34.3319C81.9838 34.3142 81.6263 34.2502 81.4338 34.3994Z" fill="black"/>
<path d="M139.196 23.9834C139.356 23.9808 139.537 23.8647 139.669 23.7534C140.231 23.2763 140.785 22.788 141.329 22.291C141.608 22.0367 141.863 21.7555 142.128 21.4863C142.486 21.1239 142.865 20.7795 143.197 20.3946C143.575 19.9567 143.843 19.3939 144.534 19.3701C144.953 18.839 145.676 18.7688 146.148 18.3045C146.261 18.1928 146.521 18.1879 146.707 18.2034C146.926 18.2219 147.134 18.3411 147.353 18.3742C147.91 18.4585 148.487 18.5587 148.909 18.04C149.445 17.3814 149.963 16.7091 150.484 16.039C150.522 15.9896 150.527 15.9115 150.54 15.8453C150.692 15.0666 150.52 14.3343 150.229 13.6156C150.095 13.2845 149.84 13.0916 149.562 12.8859C149.067 12.5191 148.492 12.5231 147.946 12.5226C146.807 12.5213 145.709 12.3761 144.643 11.9616C144.057 11.7334 143.924 11.8698 143.413 12.3037C142.839 12.7919 142.201 13.2558 141.513 13.5463C140.524 13.9639 139.461 14.2027 138.438 14.5408C137.457 14.8644 136.455 15.1496 135.518 15.5742C134.406 16.0783 133.237 16.3794 132.083 16.7409C131.949 16.7829 131.782 16.7206 131.63 16.7043C131.484 16.6888 131.338 16.6703 131.167 16.6504C131.419 17.2918 131.448 17.2609 132.274 18.0175C133.394 19.0434 134.748 19.721 135.974 20.5862C136.164 20.72 136.553 20.7954 136.723 20.6908C137.32 20.324 138.001 20.2604 138.635 20.0419C139.19 19.8508 139.762 19.7122 140.424 19.5219C139.882 21.5185 138.737 23.0383 137.772 24.6743C138.154 24.2333 138.611 23.9936 139.196 23.9834Z" fill="black"/>
<path d="M88.3964 35.5957C88.1678 36.2057 88.0636 36.8586 87.5502 37.3256C87.5189 37.3543 87.5462 37.4475 87.5462 37.4934C87.7714 37.5635 87.9806 37.6355 88.1938 37.692C88.2958 37.7189 88.4247 37.7587 88.5081 37.7198C89.0126 37.4867 89.526 37.2634 90.0006 36.9778C90.5563 36.6436 91.0754 36.2485 91.7499 35.7837C91.7265 36.2476 91.7129 36.5284 91.6987 36.8096C91.7279 36.8206 91.7574 36.8317 91.7866 36.8431C92.0461 36.43 92.3057 36.0168 92.5171 35.68C92.7939 35.6093 93.0045 35.5736 93.2018 35.5021C93.732 35.3105 93.777 35.3383 93.9187 35.8919C93.9513 36.0185 94.0679 36.1973 94.1685 36.2141C94.2899 36.2344 94.4422 36.117 94.5685 36.0393C94.6175 36.0088 94.6453 35.9267 94.6616 35.8627C94.8011 35.3145 95.0465 34.8554 95.5387 34.5195C95.8274 34.3221 96.0133 33.9796 96.2874 33.7536C96.8789 33.2658 97.0678 32.507 97.5499 31.9495C97.575 31.9203 97.5644 31.8616 97.5741 31.8179C97.6554 31.4436 97.794 31.0715 97.8077 30.6949C97.835 29.956 97.9273 29.1804 97.7485 28.4825C97.4792 27.4301 97.0034 26.4303 96.6074 25.411C96.5686 25.3108 96.4873 25.2177 96.4044 25.1457C95.9687 24.767 95.6288 24.2717 95.0465 24.0664C94.9172 24.021 94.8421 23.8365 94.7278 23.7323C94.203 23.2555 93.743 22.679 92.9515 22.6186C92.7758 22.6053 92.6081 22.5104 92.4319 22.4764C91.7279 22.3405 91.0264 22.167 90.3153 22.0964C89.4951 22.0147 88.7098 22.2601 87.97 22.596C87.4884 22.815 87.4178 23.169 87.755 23.5707C88.2724 24.1865 88.7902 24.8076 89.3698 25.3616C89.6527 25.6318 89.8187 25.8988 89.8805 26.2696C90.0999 27.5784 90.0094 28.8948 89.7569 30.1687C89.3958 31.9954 89.0568 33.8357 88.3964 35.5957Z" fill="black"/>
<path d="M246.96 97.5253C246.853 97.0627 246.809 96.5767 246.638 96.1401C246.44 95.6356 246.114 95.2118 245.647 94.8715C245.159 94.5157 244.593 94.3916 244.066 94.1577C243.408 93.8659 242.75 93.9281 242.061 94.1131C241.263 94.3272 240.609 94.7788 239.926 95.1964C239.206 95.6373 238.621 96.2434 237.976 96.7758C237.546 97.1298 237.385 97.5355 237.359 98.0559C237.347 98.3089 237.299 98.5693 237.213 98.8077C236.84 99.8503 237.045 100.833 237.52 101.777C237.788 102.31 238.102 102.823 238.435 103.32C238.668 103.668 238.973 103.922 239.466 103.803C239.8 103.723 240.153 103.719 240.564 103.673C240.041 104.654 239.551 105.572 239.016 106.575C239.402 106.304 239.727 106.119 239.997 105.874C240.324 105.577 240.594 105.219 240.908 104.906C241.172 104.644 241.475 104.422 241.738 104.16C242.061 103.838 242.354 103.487 242.672 103.16C242.894 102.932 243.127 102.714 243.37 102.509C243.928 102.039 244.312 101.391 244.942 100.993C245.617 100.567 246.074 99.9263 246.548 99.3038C246.628 99.1992 246.721 99.0959 246.828 99.0222C247.213 98.7596 247.265 98.6258 247.134 98.1623C247.073 97.9504 247.009 97.7394 246.96 97.5253ZM243.514 97.9994C243.308 98.5958 243.07 99.1873 242.782 99.7484C242.416 100.462 241.986 101.142 241.581 101.836C241.53 101.923 241.462 101.999 241.362 102.133C241.216 101.872 241.093 101.668 240.987 101.455C240.741 100.965 240.292 100.662 239.921 100.288C239.51 99.8751 239.25 99.382 239.095 98.8324C239.057 98.6973 239.066 98.5199 239.122 98.3914C239.367 97.8246 239.797 97.4278 240.348 97.1572C240.379 97.1422 240.422 97.1426 240.443 97.1205C240.978 96.5696 241.704 96.6553 242.366 96.5648C243.169 96.4549 243.782 97.2252 243.514 97.9994Z" fill="black"/>
<path d="M86.1338 61.1831C85.0214 60.9593 84.1376 60.2821 83.1877 59.7365C82.3088 59.232 81.4158 58.7566 80.4486 58.448C79.7331 58.2198 78.9999 58.2997 78.3355 58.6065C77.7709 58.8678 77.2231 59.2064 76.7472 59.6063C76.3372 59.9511 75.9544 60.0751 75.355 59.8164C75.7249 60.3382 76.0207 60.7501 76.3107 61.1663C76.553 61.5137 76.7936 61.8633 77.0245 62.2182C77.1066 62.3449 77.2085 62.4875 77.2178 62.6283C77.2672 63.3748 77.2412 64.1204 76.975 64.8311C76.8651 65.1246 76.6912 65.3939 76.5693 65.6839C76.2736 66.388 76.003 67.1027 75.6993 67.8032C75.498 68.2685 75.5828 68.4358 76.0794 68.5682C76.5084 68.6825 76.7733 68.4269 77.0805 68.2217C77.597 67.8769 78.0892 67.4258 78.6622 67.2514C79.6779 66.9424 80.6883 67.1225 81.5857 67.7502C81.9539 68.0076 82.3185 68.2738 82.707 68.4962C83.091 68.7161 83.4883 68.9394 83.9081 69.0639C84.3764 69.203 84.8766 69.2414 85.3648 69.3093C86.3549 69.4475 87.2365 69.3553 88.0147 68.5594C88.9827 67.5697 89.3151 65.7934 88.6141 64.5044C88.2411 63.8184 87.8686 63.1307 87.5327 62.4262C87.2369 61.8051 86.8312 61.3235 86.1338 61.1831Z" fill="black"/>
<path d="M183.67 27.7092C183.75 28.3704 184.008 29.0167 184.238 29.651C184.405 30.1145 184.576 30.1432 185.079 30.0381C185.384 29.9741 185.705 29.9913 186.016 29.9521C186.234 29.9247 186.456 29.8867 186.662 29.8135C186.932 29.7168 187.178 29.5508 187.451 29.4669C188.433 29.1654 189.028 28.4958 189.177 27.5101C189.266 26.9243 189.362 26.4056 189.937 26.0971C189.838 25.8137 189.709 25.5674 189.67 25.3078C189.608 24.8924 189.401 24.6086 189.059 24.3852C188.649 24.1173 188.306 23.7831 188.01 23.3814C187.803 23.1015 187.505 22.8654 187.201 22.687C186.756 22.4257 186.272 22.231 185.801 22.0143C185.639 21.9397 185.468 21.8285 185.301 21.8271C184.492 21.8214 183.684 21.8461 182.875 21.866C182.85 21.8664 182.826 21.9335 182.778 22.0042C182.919 22.1856 183.049 22.3948 183.22 22.5648C183.547 22.8905 183.67 23.2918 183.675 23.7292C183.68 24.2029 183.632 24.677 183.63 25.1511C183.627 26.0044 183.569 26.8669 183.67 27.7092Z" fill="black"/>
<path d="M178.899 31.5986C180.06 31.6229 180.968 31.354 181.521 30.3675C181.652 30.1344 181.767 29.8929 181.886 29.6541C182.303 28.8176 182.199 28.4027 181.493 27.8518C181.02 27.4832 180.59 27.0612 180.121 26.689C179.878 26.497 179.598 26.3483 179.322 26.2043C179.145 26.1116 178.916 26.1024 178.759 25.988C177.885 25.3489 176.931 25.4672 175.97 25.6707C175.609 25.747 175.483 26.075 175.752 26.3187C176.371 26.8784 176.428 27.5913 176.445 28.3444C176.462 29.0776 176.636 29.764 177.126 30.348C177.282 30.5339 177.422 30.7608 177.485 30.9921C177.629 31.5187 178.03 31.6083 178.472 31.6397C178.649 31.652 178.829 31.6061 178.899 31.5986Z" fill="black"/>
<path d="M128.73 25.445C129 25.114 129.218 24.986 129.624 25.0588C130.041 25.1343 130.472 25.208 130.891 25.1815C131.779 25.1254 132.395 24.5282 132.848 23.8678C133.614 22.751 133.035 20.9054 131.772 20.3669C131.032 20.0517 130.236 19.8301 129.444 19.6871C128.371 19.4933 127.338 19.22 126.374 18.7066C125.918 18.4639 125.47 18.3813 124.955 18.5826C124.533 18.7468 124.103 18.8541 123.853 19.2765C123.82 19.3321 123.76 19.4063 123.708 19.4107C123.041 19.4699 122.902 20.0512 122.61 20.4882C122.503 20.6472 122.359 20.8277 122.192 20.8917C121.442 21.1786 120.678 21.4272 119.852 21.7128C119.898 21.2819 119.973 20.9283 119.965 20.5765C119.931 19.0457 119.998 17.5249 120.275 16.0139C120.339 15.6612 120.471 15.433 120.802 15.3068C122.105 14.8097 123.407 14.3083 124.709 13.8086C125.255 13.5993 125.813 13.6143 126.37 13.7419C127.04 13.8951 127.705 13.9101 128.359 13.6898C128.54 13.6289 128.72 13.5128 128.854 13.3768C129.171 13.0572 129.486 12.7297 129.753 12.3695C130.103 11.8981 130.434 11.3838 130.302 10.7605C130.218 10.3619 129.925 10.0039 130.129 9.56025C130.148 9.51876 130.099 9.42341 130.055 9.37882C129.665 8.98242 129.298 8.55512 128.866 8.2086C128.347 7.79145 127.686 7.70007 127.053 7.52571C125.49 7.09576 123.885 6.92184 122.296 6.64903C122.147 6.62343 121.904 6.68479 121.824 6.79382C121.543 7.17654 121.155 7.24275 120.715 7.33016C120.745 7.17875 120.762 7.09267 120.779 7.00571C120.953 6.08665 120.999 5.12964 121.586 4.3333C121.636 4.26621 121.654 4.16203 121.655 4.07507C121.659 3.38732 121.469 2.74284 121.123 2.16059C120.774 1.57217 120.203 1.2614 119.549 1.09499C118.419 0.807617 117.254 0.648261 116.187 0.126934C115.959 0.0152532 115.633 -0.0394834 115.398 0.0324694C114.665 0.256715 113.955 0.553796 113.209 0.832778C113.55 1.21594 113.885 1.54833 114.165 1.92178C114.333 2.14558 114.504 2.42854 114.518 2.69296C114.558 3.43544 114.514 4.18278 114.51 4.92791C114.504 6.03236 114.503 7.13637 114.502 8.24082C114.501 8.93342 114.502 9.62558 114.502 10.3116C114.013 10.4789 113.574 10.6532 113.121 10.7799C111.256 11.3008 109.392 11.8265 107.517 12.3117C106.343 12.6154 105.16 12.9107 103.925 12.6021C103.699 12.5456 103.397 12.5598 103.198 12.6675C102.401 13.0987 101.547 13.3459 100.534 13.5499C100.692 13.9388 100.822 14.242 100.938 14.5502C101.047 14.838 101.2 15.1253 101.23 15.4233C101.302 16.1587 101.706 16.6205 102.335 16.9215C102.741 17.1162 103.174 17.2565 103.569 17.4698C103.92 17.6596 104.268 17.8803 104.558 18.1513C104.955 18.5221 105.425 18.8426 105.609 19.405C105.644 19.5083 105.819 19.5612 105.922 19.6464C106.686 20.2803 107.623 20.4498 108.557 20.5726C109.432 20.6873 110.257 20.4781 110.984 19.9448C111.742 19.3886 112.498 18.8302 113.27 18.2935C113.499 18.1345 113.747 17.9288 114.153 18.1204C114.127 19.9731 114.177 21.8545 114.143 23.7676C112.856 24.1296 111.649 24.4695 110.483 24.797C109.072 24.0916 107.652 23.689 106.103 24.0863C105.654 24.2015 105.212 24.3424 104.767 24.4748C104.411 24.5807 104.279 24.8747 104.247 25.1956C104.216 25.5117 104.497 25.5722 104.732 25.6671C105.129 25.8278 105.314 26.1584 105.345 26.5694C105.445 27.8499 105.525 29.1323 105.632 30.412C105.732 31.6012 105.85 32.7886 105.974 33.9761C106.07 34.8876 106.262 35.7599 105.955 36.7112C105.634 37.7066 106.095 38.6552 107 39.0869C107.481 39.3165 107.954 39.5619 108.432 39.7998C108.463 40.1393 108.528 40.4955 108.73 40.6094C109.136 40.839 109.546 41.0606 109.95 41.2998C110.499 41.6243 111.137 41.7973 111.686 42.1217C112.191 42.4206 112.697 42.3963 113.181 42.2352C113.57 42.1059 113.9 41.8026 114.26 41.5828C114.413 41.4892 114.577 41.4115 114.791 41.2963C115.079 42.5499 115.133 43.7104 115.121 44.882C114.959 44.9473 114.839 45.0149 114.711 45.044C113.724 45.2674 112.728 45.4576 111.748 45.7083C110.814 45.9472 109.879 46.2014 108.974 46.5316C108.089 46.8547 107.242 47.2838 106.377 47.6621C106.193 47.7425 106.001 47.8599 105.813 47.8616C105.157 47.8669 104.652 48.1742 104.17 48.5706C103.61 49.0314 103.056 49.5232 102.212 49.3267C102.428 49.8851 102.978 49.9372 103.292 50.2542C104.167 51.1331 105.311 51.3904 106.43 51.7135C107.96 52.155 109.536 52.4481 110.962 53.2095C111.545 53.5207 111.92 53.3861 112.084 52.7505C112.199 52.309 112.498 52.0715 112.787 51.7934C112.975 51.612 113.157 51.4235 113.347 51.2443C113.975 50.6528 114.526 49.9672 115.376 49.543C115.467 50.4047 115.499 51.2364 115.658 52.0428C115.765 52.5818 115.776 53.089 115.517 53.545C115.236 54.0416 115.315 54.5426 115.377 55.0393C115.426 55.4295 115.536 55.8126 115.897 56.0943C116.192 56.3251 116.431 56.6403 116.658 56.9453C117.046 57.4667 117.416 58.0017 117.773 58.5451C118.064 58.9883 118.407 59.371 118.895 59.5868C119.262 59.7493 119.629 59.8901 120.047 59.661C121.024 59.1264 121.895 58.4815 122.459 57.4967C122.612 57.2309 122.827 56.9661 122.691 56.6182C122.57 56.3088 122.464 55.9919 122.32 55.6939C122.155 55.3531 121.964 55.0242 121.767 54.7002C121.582 54.3961 121.332 54.1246 121.187 53.8037C120.967 53.315 120.825 52.7919 120.629 52.2923C120.121 51.002 119.849 49.6596 119.758 48.2819C119.72 47.7054 119.797 47.1576 120.465 46.9157C120.647 46.8494 120.805 46.7051 120.962 46.5815C121.866 45.869 122.883 45.3609 123.915 44.867C124.706 44.4887 125.435 44.0027 126.102 43.3652C125.926 43.314 125.806 43.2796 125.692 43.2465C125.707 42.7455 125.683 42.693 125.253 42.7574C124.074 42.9335 122.898 43.1344 121.722 43.3348C121.204 43.4226 120.69 43.5326 120.102 43.6469C120.155 42.8881 120.222 42.2409 120.24 41.5925C120.265 40.6681 120.252 39.7429 120.261 38.8181C120.27 37.96 120.765 37.3883 121.329 36.8701C121.427 36.916 121.453 36.9204 121.467 36.9358C122.068 37.613 122.871 37.8805 123.726 38.0098C123.916 38.0385 124.161 37.9405 124.33 37.8253C124.643 37.6112 124.889 37.2868 125.217 37.1058C125.948 36.7019 126.171 36.0084 126.339 35.2862C126.598 34.1787 126.554 33.0438 126.535 31.9199C126.512 30.5581 126.621 29.2625 127.268 28.0058C127.718 27.126 128.091 26.225 128.73 25.445ZM110.682 26.6709C111.781 26.5627 112.758 26.4669 113.811 26.3632C113.887 26.8709 113.976 27.3489 114.024 27.8314C114.08 28.3894 114.103 28.9509 114.131 29.511C114.144 29.7565 114.167 29.9993 113.87 30.1414C113.169 30.4786 112.478 30.8384 111.749 31.2066C111.172 29.737 110.997 28.2618 110.682 26.6709ZM114.435 36.3095C113.423 35.4019 112.986 34.2767 112.374 33.1709C113.014 33.1709 113.533 33.1709 114.087 33.1709C114.182 34.2175 114.478 35.1829 114.435 36.3095ZM121.967 34.6877L120.395 35.2372C120.421 35.2849 120.446 35.3317 120.474 35.3856C120.212 35.3705 120.11 35.3648 119.954 35.356L119.865 32.7542L122.219 31.6612L121.967 34.6877ZM121.883 28.0455C121.503 28.0455 120.063 28.8021 119.697 28.8021C119.544 28.1086 119.71 26.6585 119.788 26.0004C119.94 24.718 119.963 24.7215 121.271 24.4147C121.398 24.3852 122.613 23.9173 122.861 23.8396C122.544 25.1374 122.19 26.7883 121.883 28.0455Z" fill="black"/>
</svg>
