<svg width="147" height="70" viewBox="0 0 147 70" fill="none" xmlns="http://www.w3.org/2000/svg">
<path d="M15.554 23.2493C15.543 23.5129 15.4685 23.7736 15.4295 24.0001C14.0297 24.3683 13.031 24.18 12.4089 22.7349C12.0909 21.9959 11.3822 21.2938 10.4808 21.2457C9.27713 21.1816 8.06454 21.1594 6.89483 21.6941C5.37915 22.3869 3.80699 22.9559 2.33603 23.5474C2.01752 24.3353 1.90167 25.1688 1.43358 25.6792C-0.0331986 27.2778 0.458168 29.056 0.784525 30.8185C0.845978 31.1507 1.28426 31.4493 1.60565 31.6867C1.96286 31.9506 2.37918 32.1384 2.78085 32.3371C3.06876 32.4796 3.4401 32.76 3.66107 32.6771C4.6404 32.3099 5.36189 32.766 6.12261 33.2437C6.34384 33.3829 6.66183 33.4443 6.927 33.4242C8.27453 33.3243 9.62206 33.2103 10.9644 33.0552C12.7578 32.8478 14.5459 32.5981 16.497 32.346C16.616 33.0976 16.7977 33.7712 16.8176 34.4495C16.9667 39.4613 17.1097 44.473 17.1994 49.486C17.2439 51.9646 17.2585 54.4501 17.1175 56.9229C17.0394 58.2961 16.7303 59.6868 16.3105 61.0014C15.9141 62.2427 15.8634 62.7317 16.9497 63.5188C17.8699 64.1862 18.543 65.0458 18.7899 66.0837C19.3919 68.6145 23.0215 70.4322 25.363 69.9103C25.8633 69.7989 26.3782 69.7442 26.8889 69.6893C27.9786 69.5719 28.2453 69.2821 28.6483 68.2476C29.0309 67.2654 29.511 66.3067 30.1015 65.7992C32.6464 66.0141 34.9147 66.3185 37.188 66.3632C39.0889 66.4009 41.0128 66.5282 42.9029 65.9689C43.8169 65.698 44.8799 65.522 45.4392 66.7411C45.503 66.88 45.7196 66.9966 45.8856 67.0345C46.9701 67.2819 47.8989 67.7455 48.536 68.711C48.8328 69.1608 49.2407 69.1114 49.6204 68.7866C50.7658 67.8062 51.4295 66.6972 50.9007 65.0915C49.6003 61.1439 50.0271 57.0458 50.019 53.0017C50.0119 49.4565 50.3189 45.9115 50.3477 42.3653C50.3639 40.3627 50.0597 38.3595 49.9742 36.3538C49.9227 35.1454 50.0425 33.9307 50.0341 32.7192C50.026 31.5408 49.9528 30.3627 49.9117 29.2723C50.6586 28.9951 51.3029 28.7422 51.9564 28.5168C52.7315 28.2493 53.5017 28.221 54.2875 28.5343C54.8889 28.7744 55.5132 28.9697 56.1415 29.1271C57.6057 29.4932 57.833 29.4035 58.4838 28.1211C58.8089 27.4807 59.2574 26.7914 59.2587 26.1232C59.2608 25.072 58.943 24.0179 58.7417 22.969C58.5699 22.0728 58.2974 21.2357 57.2535 21.0488C57.1907 20.582 57.1394 20.1999 57.101 19.9138C56.4653 20.0116 55.9337 20.1735 55.4065 20.1591C54.151 20.1246 52.8984 19.9761 51.6429 19.9345C50.8181 19.9068 49.9902 19.9857 49.0911 20.02C49.0488 19.6583 48.981 19.39 48.9925 19.1254C49.0422 18.0059 49.106 16.8861 49.1824 15.7679C49.2839 14.2816 49.2002 12.7457 49.5566 11.3218C50.1934 8.77768 49.8647 6.41028 48.8757 4.06145C47.9502 1.86351 46.4026 0.498718 43.8676 0.302851C43.7481 0.677848 43.6218 1.02068 43.5303 1.37319C43.3692 1.99452 43.2578 2.63024 43.0737 3.24451C42.8208 4.08943 42.4489 4.90349 42.251 5.75913C41.2081 10.2719 41.2029 14.8527 41.4359 19.445C41.4586 19.8916 41.4704 20.339 41.489 20.8246C36.8512 21.1102 32.5262 22.5359 27.8813 22.4677C28.448 19.0998 27.9166 15.9214 27.352 12.8401C28.3565 11.7567 29.2796 10.8608 30.0698 9.86056C30.3886 9.4568 30.6148 8.79467 30.5416 8.30069C30.3055 6.70499 29.8256 5.22148 28.1486 4.44298C27.6593 4.21626 27.3193 3.63964 26.9527 3.18907C26.7812 2.97804 26.7053 2.68725 26.5934 2.4294C25.9383 0.925231 24.738 0.284284 23.1518 0.231983C22.7812 0.219954 22.4054 0.182297 22.0438 0.1028C19.7174 -0.407133 16.5054 1.03794 15.5007 3.15586C15.2138 3.76046 15.2828 4.52379 15.0742 5.17781C14.6822 6.40583 15.1526 7.42178 15.6903 8.46256C15.8746 8.81978 16.0035 9.25492 15.9986 9.65241C15.9709 11.8043 15.9029 13.9555 15.8302 16.1061C15.7512 18.4876 15.6539 20.8686 15.554 23.2493ZM28.5353 43.4722C28.6198 41.9809 28.7309 40.49 28.7929 38.9976C28.8609 37.3637 28.8876 35.7275 28.9302 34.0923C28.9616 32.8904 28.9896 31.6883 29.0217 30.3852C33.3196 30.0278 37.4396 29.6855 41.6856 29.3327C41.825 33.0149 41.9591 36.5601 42.0969 40.1982C39.8946 40.4599 37.6869 40.9997 35.3836 40.8747C33.931 40.7955 32.8135 41.6579 31.8473 42.6294C31.6169 42.8616 31.5173 43.5159 31.6768 43.7899C32.1893 44.6696 31.909 45.3626 31.4189 46.0867C31.2668 46.3116 31.1744 46.5773 31.096 46.7397C31.54 47.1157 31.9438 47.4625 32.353 47.8014C32.4548 47.8859 32.5858 48.0205 32.6865 48.0067C33.6253 47.877 34.4181 48.2896 35.2314 48.6442C35.3533 48.6973 35.5149 48.7088 35.6464 48.6819C37.6728 48.269 39.728 49.0485 41.7217 48.4206C41.9913 49.4536 41.326 56.2859 40.7774 58.0958C37.0449 57.7869 33.3282 58.9109 29.3714 58.7333C29.3162 57.2786 29.2411 55.9454 29.2207 54.6112C29.1873 52.4219 29.3034 50.2235 29.1376 48.0451C29.0204 46.5208 28.4464 45.0373 28.5353 43.4722Z" fill="black"/>
<path d="M132.766 62.9386C134.563 62.8672 136.361 62.8314 138.158 62.7529C138.741 62.7276 139.181 62.8798 139.482 63.4072C139.607 63.6279 139.807 63.8063 139.953 63.9802C141.065 63.7814 141.055 63.795 141.976 64.4373C142.273 64.6447 142.635 64.76 143.272 65.062C143.114 64.2103 143.016 63.6852 142.907 63.0968C143.103 63.0108 143.366 62.8949 143.686 62.754C143.686 61.9525 143.819 61.1452 143.66 60.4002C143.288 58.6591 143.403 56.9261 143.456 55.1774C143.485 54.2347 143.537 53.3597 144.533 52.6958C144.076 52.5158 143.777 52.3982 143.495 52.287C143.145 49.2612 143.032 46.285 143.221 43.297C143.301 42.029 143.423 40.756 143.383 39.4898C143.334 37.9851 143.722 36.6227 144.442 35.3457C145.042 34.2838 145.071 33.2971 144.329 32.301C144.176 32.0966 144.113 31.8269 143.992 31.5958C143.249 30.1831 142.323 28.9541 140.784 28.3068C140.343 28.1214 139.899 27.8947 139.531 27.5955C138.229 26.5391 136.842 26.5142 135.5 27.3699C134.429 28.0532 133.356 27.8997 132.13 27.8136C132.567 26.338 132.446 24.9282 131.778 23.6811C131.25 22.6934 131.248 21.6882 131.078 20.4905C132.133 20.3867 133.119 20.2706 134.108 20.1981C135.111 20.1246 136.116 20.07 137.121 20.0512C138.959 20.0174 140.828 19.8051 142.623 20.0734C143.896 20.2632 144.821 19.9766 145.84 19.3503C145.655 18.956 145.493 18.6082 145.284 18.1607C145.671 17.7567 146.028 17.3148 146.455 16.9563C146.902 16.581 147.017 16.2418 146.692 15.7157C146.498 15.4011 146.244 14.8883 146.369 14.6534C146.961 13.5449 146.342 12.5653 146.051 11.6231C145.792 10.7832 145.191 9.83445 144.213 9.73351C142.181 9.52352 140.12 9.25652 138.106 9.96729C137.572 10.1561 137.011 10.3004 136.45 10.3724C133.236 10.785 130.014 11.1302 126.804 11.5742C122.89 12.1161 118.967 12.5442 115.012 12.4871C111.509 12.4367 108.131 13.0776 104.787 14.0415C104.103 14.2384 103.36 14.2293 102.486 14.3341C101.956 14.8961 102.413 15.7743 102.295 16.5745C102.016 18.4473 102.991 19.6955 104.445 20.5867C107.688 22.5744 107.083 22.2805 110.185 21.5151C111.107 21.2875 112.064 21.1555 113.012 21.0956C113.878 21.0407 114.755 21.1487 115.626 21.1743C116.656 21.2049 117.686 21.2245 118.901 21.2528C118.81 23.9695 118.724 26.5263 118.642 28.9501C115.201 29.7286 111.927 30.4697 108.852 31.1659C108.228 30.8615 107.759 30.6329 107.117 30.3199C107.282 30.8808 107.369 31.1763 107.485 31.572C106.093 31.3636 105.106 30.0741 103.564 30.6415C103.658 31.0939 103.764 31.5027 103.825 31.9179C103.912 32.5131 104.125 33.1475 104.006 33.7058C103.22 37.4114 103.226 41.1953 102.855 44.9393C102.591 47.598 102.58 50.2831 102.496 52.9575C102.479 53.5129 102.498 54.1434 102.738 54.6191C103.466 56.0597 104.275 57.4632 105.123 58.838C105.802 59.9399 106.758 60.806 107.97 61.2807C108.527 61.4988 108.953 61.7558 109.277 62.2561C109.648 62.8285 110.149 63.1865 110.896 63.2257C111.359 63.2498 111.8 63.5487 112.267 63.6415C113.421 63.8703 114.577 64.147 115.744 64.2226C116.739 64.2874 117.752 64.118 118.754 64.0189C121.369 63.7608 123.978 63.4394 126.596 63.2294C128.647 63.0646 130.709 63.0202 132.766 62.9386ZM138.174 52.0438C137.146 52.0438 136.119 52.0438 135.092 52.0438C135.091 52.0083 135.091 51.9724 135.09 51.9371C136.116 51.888 137.142 51.8391 138.168 51.7899C138.17 51.8744 138.171 51.9594 138.174 52.0438ZM131.721 35.0887C133.084 34.9485 134.459 34.8076 135.913 34.6582C136.627 36.1339 136.648 37.7186 136.886 39.2505C137.135 40.8494 137.389 42.4492 137.569 44.0567C137.738 45.5705 138.182 47.0729 137.859 48.6458C138.146 46.8093 136.826 46.4356 135.523 46.0627C135.579 44.83 137.103 45.5334 137.287 44.5638C136.118 42.7568 134.322 41.9087 132.206 41.6072C132.159 39.3889 131.158 37.3938 131.721 35.0887ZM129.406 47.0815C129.843 47.7154 130.288 48.2442 131.077 48.3995C131.268 48.4372 131.445 48.5431 131.629 48.6179C131.614 48.7196 131.6 48.821 131.585 48.9222C128.807 49.1139 126.03 49.3054 123.17 49.5025C122.965 47.8564 123.385 46.3462 123.608 44.8187C123.662 44.4484 123.749 44.0496 123.666 43.7013C123.571 43.3051 123.175 42.9652 123.13 42.5755C122.897 40.5502 122.325 38.5437 122.814 36.4684C122.961 35.847 123.194 35.567 123.844 35.551C124.965 35.5241 126.085 35.4263 127.338 35.3504C127.625 37.7963 127.877 40.1341 128.183 42.4647C128.39 44.0507 128.437 45.6759 129.406 47.0815ZM127.424 20.8825C127.286 23.4287 127.157 25.8011 127.021 28.3071C125.856 28.3071 124.814 28.3071 123.758 28.3071C123.708 28.2616 123.595 28.2072 123.593 28.1489C123.528 26.2457 122.752 24.5412 122.142 22.7849C121.983 22.3257 122.064 21.7836 122.029 21.1958C123.885 21.0883 125.599 20.9886 127.424 20.8825ZM112.657 46.8527C112.989 44.7693 113.303 42.7241 112.695 40.6171C112.544 40.0949 112.981 39.4032 113.148 38.7913C115.108 38.3802 116.437 36.6574 118.541 36.5173C118.584 37.6985 118.626 38.8292 118.668 39.9602C118.67 40.0042 118.683 40.058 118.663 40.0907C117.586 41.8708 118.546 43.7534 118.425 45.5841C118.347 46.7622 118.969 47.848 119.765 48.7957C119.945 48.6529 120.109 48.5224 120.354 48.3276C120.529 48.6058 120.698 48.8749 120.881 49.1657C120.773 49.2564 120.709 49.3577 120.639 49.3616C118.415 49.4913 116.191 49.6186 113.966 49.7272C113.541 49.7478 113.112 49.6892 112.635 49.6644C112.634 48.6589 112.517 47.7353 112.657 46.8527ZM119.284 57.2075C117.585 57.3537 115.888 57.5333 114.187 57.6465C112.283 57.7729 112.145 57.6178 112.093 55.6999C120.749 54.2486 129.462 53.5653 138.268 53.4646C138.268 54.4065 138.268 55.2038 138.268 56.1306C136.345 56.2229 134.559 56.315 132.772 56.3932C130.236 56.5038 127.698 56.5712 125.165 56.7187C123.202 56.8327 121.244 57.0388 119.284 57.2075Z" fill="black"/>
<path d="M88.0245 4.07056C87.1458 3.73401 86.1914 3.49186 85.2567 3.43197C84.1929 3.36424 83.1127 3.54154 82.0405 3.62365C81.2526 3.68406 80.3679 3.68772 80.0301 4.5635C79.3104 6.42776 77.9213 8.16519 78.7785 10.3773C78.8209 10.4866 78.7534 10.6354 78.7492 10.7661C78.7241 11.5328 79.0664 12.053 79.6901 12.5221C81.1328 13.6076 82.4683 14.8383 83.9275 15.8997C85.4372 16.9978 86.9361 18.2493 88.9549 17.7807C89.3898 17.7807 89.7405 17.7865 90.0909 17.7797C91.8401 17.7441 92.725 17.106 93.0017 15.4055C93.2308 13.9967 93.2256 12.5511 93.3534 11.1246C93.4627 9.90498 93.0854 8.82052 92.559 7.75045C91.61 5.82055 89.9191 4.79676 88.0245 4.07056Z" fill="black"/>
<path d="M84.5724 44.8791C86.3022 45.474 87.9173 45.1573 89.5083 44.4918C89.8867 44.3339 90.2235 43.9848 90.4824 43.6487C91.4763 42.359 91.9996 40.9103 91.8074 39.2542C91.7833 38.9934 91.7313 38.7319 91.7394 38.472C91.8108 36.1585 90.5135 34.4971 88.9743 33.0497C88.1989 32.3204 87.1234 31.9072 86.1754 31.3654C85.2267 30.8235 84.1916 30.7364 83.1291 30.84C82.3886 30.9119 81.6511 31.0183 80.9092 31.0678C79.8567 31.1381 79.8446 31.1716 79.4338 32.2103C79.0335 33.222 78.5471 34.1998 78.1036 35.1948C77.4733 36.608 76.6261 37.9827 77.4354 39.6258C77.5607 39.8797 77.5141 40.2178 77.5494 40.517C77.569 40.6825 77.5405 40.8844 77.6253 41.0065C78.0703 41.648 78.4942 42.3174 79.0288 42.8789C79.3284 43.1937 79.8075 43.3893 80.2416 43.512C81.034 43.7361 81.9539 43.6929 82.6312 44.0867C83.2672 44.4568 83.9003 44.6482 84.5724 44.8791Z" fill="black"/>
<path d="M85.3906 65.0817C85.7373 65.3732 86.2344 65.5092 86.6829 65.6504C87.1364 65.7927 87.6421 65.7869 88.0786 65.9616C88.9224 66.2997 89.7815 66.3105 90.6434 66.1813C92.8649 65.8486 95.254 64.0631 95.0743 61.4888C95.0079 60.538 95.0136 59.56 94.7806 58.6471C94.2498 56.5679 93.0061 54.9782 91.1332 53.8932C90.1643 53.332 89.1023 52.8603 88.299 52.1144C87.9243 51.7666 87.4026 51.4356 87.1034 50.7714C86.3458 51.7055 85.7287 52.5611 85.0145 53.3263C83.8783 54.543 82.7237 55.7514 81.4881 56.8641C80.6113 57.6542 80.3386 58.1717 80.8553 59.2344C81.9544 61.4959 83.4638 63.4619 85.3906 65.0817Z" fill="black"/>
</svg>
