<svg width="28" height="68" viewBox="0 0 28 68" fill="none" xmlns="http://www.w3.org/2000/svg">
<path d="M14.14 27.2138H18.508V28.4318H14.14V27.2138ZM13.244 26.4998V29.1458H19.432V26.4998H13.244ZM13.692 22.5938H18.956V23.5878H13.692V22.5938ZM13.692 20.9418H18.956V21.9218H13.692V20.9418ZM12.81 20.2418V24.2878H19.866V20.2418H12.81ZM12.334 24.9738V25.7858H20.3V24.9738H12.334ZM12.026 30.8678V31.6938H20.426V30.8678H12.026ZM14.826 19.0798V20.7178H15.694V19.0798H14.826ZM16.912 19.0798V20.7178H17.766V19.0798H16.912ZM14.952 20.4798V24.0218H15.694V20.4798H14.952ZM16.912 20.4798V24.0218H17.654V20.4798H16.912ZM17.78 29.2298C17.612 29.7618 17.276 30.5458 16.996 31.0358L17.71 31.2878C18.004 30.8398 18.382 30.1398 18.732 29.5098L17.78 29.2298ZM14.098 29.5098C14.336 30.0558 14.616 30.7978 14.728 31.2598L15.582 30.9658C15.456 30.5178 15.176 29.8038 14.91 29.2578L14.098 29.5098ZM7.728 21.4878V22.4538H11.522V21.4878H7.728ZM9.506 25.6178V31.9598H10.472V24.4558L9.506 25.6178ZM10.43 24.6658L9.814 25.1978C10.262 25.7298 11.298 27.0878 11.704 27.7178L12.362 26.8498C12.054 26.4858 10.794 25.0018 10.43 24.6658ZM11.214 21.4878V21.7118C10.556 23.6858 8.974 25.7298 7.448 26.8218C7.602 27.0038 7.84 27.5358 7.924 27.8298C9.562 26.5558 11.326 24.2738 12.18 21.8378L11.62 21.4458L11.424 21.4878H11.214ZM8.778 19.6258C9.24 20.1858 9.716 20.9558 9.94 21.4598L10.752 20.8998C10.514 20.4098 10.038 19.6678 9.548 19.1498L8.778 19.6258ZM11.242 40.0478V40.8318H16.842V40.0478H11.242ZM10.934 42.4418H17.066V43.7578H10.934V42.4418ZM9.982 41.6858V44.5138H18.06V41.6858H9.982ZM7.798 48.6718V49.6378H20.23V48.6718H7.798ZM9.156 45.4098V49.1338H10.136V46.2778H12.054V49.1338H13.034V46.2778H14.952V49.1338H15.932V46.2778H17.878V49.1338H18.9V45.4098H9.156ZM13.972 37.0098C12.712 38.6338 10.192 40.0758 7.448 41.0278C7.672 41.2098 7.994 41.6018 8.134 41.8398C10.934 40.8038 13.426 39.3058 14.924 37.4158L13.972 37.0098ZM14.322 37.5418L13.678 38.1438C14.938 39.2918 17.556 40.9158 19.866 41.7278C20.034 41.4618 20.37 41.0278 20.608 40.8038C18.242 40.0898 15.526 38.6338 14.322 37.5418Z" fill="#3D4349"/>
<rect x="27.5" y="1.33984" width="66" height="27" transform="rotate(90 27.5 1.33984)" stroke="#3D4349"/>
</svg>
