<svg width="24" height="24" viewBox="0 0 24 24" fill="none" xmlns="http://www.w3.org/2000/svg">
<path d="M21.5834 8.6436C21.6102 7.9321 21.4962 7.22237 21.2481 6.55609C21 5.8898 20.6227 5.2804 20.1386 4.76372C19.6544 4.24703 19.0731 3.83347 18.4288 3.54734C17.7844 3.26121 17.0901 3.10828 16.3865 3.09753C15.3754 3.10081 14.3942 3.44511 13.5983 4.07597C12.8023 4.70683 12.237 5.58823 11.9916 6.58073C11.7463 5.58823 11.1809 4.70683 10.385 4.07597C9.58898 3.44511 8.60786 3.10081 7.59679 3.09753C6.89463 3.11051 6.20206 3.2651 5.55965 3.55222C4.91725 3.83934 4.3379 4.25322 3.85552 4.76968C3.37313 5.28613 2.99741 5.89478 2.75033 6.55996C2.50325 7.22514 2.38978 7.9335 2.41656 8.6436C2.41656 9.26922 2.41658 15.6776 11.9916 20.9024C21.6001 15.6776 21.6001 9.26922 21.5834 8.6436Z" fill="#D26D54" stroke="#D26D54" stroke-width="2" stroke-linecap="round" stroke-linejoin="round"/>
</svg>
