<svg width="28" height="120" viewBox="0 0 28 120" fill="none" xmlns="http://www.w3.org/2000/svg">
<path d="M11.06 18.94V19.948H20.37V18.94H11.06ZM13.44 27.004V27.914H18.102V27.004H13.44ZM12.096 29.524V30.448H19.278V29.524H12.096ZM11.564 21.866V31.12H12.586V22.804H18.802V31.078H19.852V21.866H11.564ZM7.98 19.248C8.722 19.682 9.744 20.326 10.248 20.718L10.864 19.864C10.346 19.5 9.324 18.898 8.582 18.492L7.98 19.248ZM7.476 23C8.26 23.434 9.31 24.036 9.842 24.414L10.444 23.546C9.898 23.182 8.82 22.608 8.064 22.244L7.476 23ZM7.728 30.294L8.666 30.91C9.38 29.608 10.234 27.83 10.878 26.346L10.052 25.744C9.352 27.34 8.4 29.202 7.728 30.294ZM13.986 19.528V22.468H14.924V19.528H13.986ZM16.254 19.5V22.482H17.206V19.5H16.254ZM14.098 22.398V23.294C14.098 24.064 13.804 24.974 12.474 25.688C12.656 25.814 13.006 26.136 13.132 26.304C14.602 25.492 14.966 24.288 14.966 23.308V22.398H14.098ZM16.226 22.412V24.54C16.226 25.436 16.45 25.674 17.346 25.674C17.528 25.674 18.536 25.674 18.718 25.674C19.292 25.674 19.558 25.52 19.67 25.072C19.404 25.002 19.04 24.89 18.872 24.736C18.844 24.778 18.788 24.792 18.578 24.792C18.382 24.792 17.598 24.792 17.444 24.792C17.122 24.792 17.08 24.764 17.08 24.512V22.412H16.226ZM14.742 37.374V41.616H15.54V37.374H14.742ZM16.814 37.374V41.616H17.612V37.374H16.814ZM17.64 46.32C18.34 47.02 19.138 48.028 19.502 48.686L20.314 48.182C19.936 47.538 19.138 46.586 18.396 45.886L17.64 46.32ZM13.72 45.9C13.286 46.74 12.544 47.58 11.788 48.168C12.026 48.294 12.418 48.574 12.6 48.728C13.342 48.098 14.126 47.118 14.658 46.166L13.72 45.9ZM12.292 36.898V37.766H20.146V36.898H12.292ZM13.216 42.736V43.576H19.264V42.736H13.216ZM12.32 44.556V45.41H20.216V44.556H12.32ZM13.482 39.516H18.984V41.182H13.482V39.516ZM12.6 38.704V41.994H19.908V38.704H12.6ZM15.68 44.99V49.12H16.646V44.99H15.68ZM7.798 38.956V39.922H12.292V38.956H7.798ZM9.772 36.24V49.106H10.738V36.24H9.772ZM9.702 39.586C9.296 41.504 8.358 43.94 7.434 45.186C7.616 45.438 7.882 45.9 7.994 46.208C8.946 44.78 9.884 42.022 10.318 39.824L9.702 39.586ZM10.682 40.608L10.178 41C10.542 41.574 11.452 43.24 11.76 43.94L12.404 43.184C12.138 42.764 11.004 40.986 10.682 40.608ZM12.292 56.718C11.578 57.81 10.22 59.028 8.274 59.896C8.512 60.05 8.834 60.4 8.988 60.652C11.046 59.63 12.46 58.3 13.426 56.942L12.292 56.718ZM12.166 57.768L11.424 58.608H17.052V57.768H12.166ZM16.744 57.768V57.936C15.134 60.358 11.102 62.01 7.49 62.654C7.672 62.878 7.91 63.312 8.008 63.578C11.802 62.808 15.96 61.072 17.85 58.16L17.15 57.726L16.954 57.768H16.744ZM11.732 58.426L10.808 58.846C12.684 61.268 16.072 62.766 19.838 63.354C19.992 63.046 20.272 62.598 20.51 62.36C16.758 61.884 13.37 60.526 11.732 58.426ZM10.22 62.808V67.106H11.256V63.704H16.8V67.092H17.878V62.808H10.22ZM10.794 65.748V66.644H17.36V65.748H10.794ZM8.064 55.514V58.16H9.1V56.48H18.844V58.16H19.908V55.514H8.064ZM13.048 54.38C13.398 54.954 13.804 55.738 13.986 56.214L15.064 55.906C14.868 55.416 14.434 54.66 14.056 54.128L13.048 54.38ZM13.454 80.206C12.18 81.284 9.688 82.18 7.532 82.572C7.728 82.768 7.994 83.118 8.12 83.356C10.304 82.894 12.866 81.844 14.28 80.598L13.454 80.206ZM14.658 80.122L13.79 80.332C14.812 82.824 16.814 84.35 19.824 84.952C19.95 84.686 20.216 84.308 20.412 84.098C17.542 83.622 15.54 82.264 14.658 80.122ZM18.774 80.878C18.046 81.41 16.8 82.11 15.89 82.53L16.548 83.062C17.472 82.656 18.648 82.054 19.544 81.424L18.774 80.878ZM7.77 79.898V80.752H20.23V79.898H7.77ZM15.862 72.968V77.56H16.814V72.968H15.862ZM18.522 72.38V78.176C18.522 78.358 18.466 78.414 18.256 78.414C18.06 78.428 17.374 78.428 16.604 78.4C16.744 78.666 16.898 79.016 16.94 79.282C17.934 79.282 18.578 79.268 18.97 79.128C19.362 78.974 19.474 78.736 19.474 78.19V72.38H18.522ZM10.892 72.24V79.352H11.802V72.24H10.892ZM13.538 76.356V78.078C13.538 78.19 13.496 78.218 13.37 78.232C13.258 78.246 12.894 78.246 12.446 78.232C12.544 78.428 12.684 78.68 12.726 78.904C13.342 78.904 13.762 78.904 14.056 78.778C14.35 78.652 14.406 78.456 14.406 78.064V76.356H13.538ZM8.442 76.356V78.988H9.282V77.07H13.93V76.356H8.442ZM7.714 74.844V75.614H14.784V74.844H7.714ZM9.17 73.248L8.862 73.99H14.294V73.248H9.17ZM9.044 72.296C8.792 73.052 8.4 73.85 7.91 74.424C8.12 74.522 8.498 74.704 8.666 74.83C9.114 74.242 9.576 73.332 9.87 72.492L9.044 72.296ZM10.332 85.134C10.598 84.966 11.018 84.854 14.742 83.972C14.728 83.776 14.742 83.426 14.77 83.174L10.724 84.042L10.29 84.392L10.332 85.134ZM10.346 85.134C10.346 84.728 11.536 84.014 11.536 84.014V81.942L10.542 81.956V83.286C10.542 83.93 10.178 84.21 9.954 84.35C10.094 84.518 10.276 84.91 10.346 85.134ZM13.286 79.016C13.538 79.464 13.818 80.094 13.916 80.472L14.952 80.136C14.826 79.772 14.532 79.17 14.252 78.736L13.286 79.016ZM13.832 90.464V100.74C13.832 102.238 14.238 102.644 15.652 102.644C15.96 102.644 17.99 102.644 18.326 102.644C19.838 102.644 20.104 101.748 20.272 99.13C19.978 99.06 19.572 98.864 19.306 98.668C19.194 101.062 19.068 101.692 18.284 101.692C17.836 101.692 16.072 101.692 15.722 101.692C14.994 101.692 14.84 101.524 14.84 100.768V90.464H13.832ZM11.34 90.296C10.444 92.452 8.946 94.538 7.392 95.868C7.588 96.12 7.882 96.68 7.994 96.918C9.66 95.364 11.284 93.012 12.32 90.632L11.34 90.296ZM9.898 93.712V103.12H10.906V92.746L10.892 92.732L9.898 93.712ZM14.42 94.314V95.308H19.852V94.314H14.42Z" fill="#998669"/>
<rect x="27.5" y="0.5" width="119" height="27" transform="rotate(90 27.5 0.5)" stroke="#998669"/>
</svg>
