<svg width="387" height="386" viewBox="0 0 387 386" fill="none" xmlns="http://www.w3.org/2000/svg">
<g style="mix-blend-mode:color-burn">
<g style="mix-blend-mode:color-burn">
<path d="M4.64033 8.11311C5.44337 8.11311 6.22834 7.8752 6.89605 7.42946C7.56375 6.98372 8.08416 6.35017 8.39147 5.60893C8.69878 4.86769 8.77921 4.05206 8.62255 3.26516C8.46588 2.47827 8.07918 1.75546 7.51134 1.18814C6.9435 0.620819 6.22002 0.23447 5.4324 0.0779471C4.64479 -0.0785759 3.82846 0.0017583 3.08655 0.308789C2.34463 0.61582 1.71047 1.13576 1.26432 1.80285C0.818175 2.46995 0.580078 3.25424 0.580078 4.05655C0.580078 5.13242 1.00778 6.16422 1.76923 6.92498C2.53068 7.68573 3.56348 8.11311 4.64033 8.11311Z" fill="#3B3B3B"/>
</g>
<g style="mix-blend-mode:color-burn">
<path d="M51.8132 8.11311C52.6163 8.11311 53.4012 7.8752 54.0689 7.42946C54.7366 6.98372 55.257 6.35017 55.5643 5.60893C55.8716 4.86769 55.9521 4.05206 55.7954 3.26516C55.6387 2.47827 55.252 1.75546 54.6842 1.18814C54.1164 0.620819 53.3929 0.23447 52.6053 0.0779471C51.8177 -0.0785759 51.0013 0.0017583 50.2594 0.308789C49.5175 0.61582 48.8834 1.13576 48.4373 1.80285C47.9911 2.46995 47.7529 3.25424 47.7529 4.05655C47.7529 5.13242 48.1807 6.16422 48.9422 6.92498C49.7036 7.68573 50.7364 8.11311 51.8132 8.11311Z" fill="#3B3B3B"/>
</g>
<g style="mix-blend-mode:color-burn">
<path d="M98.9871 8.11311C99.7901 8.11311 100.575 7.8752 101.243 7.42946C101.91 6.98372 102.431 6.35017 102.738 5.60893C103.045 4.86769 103.126 4.05206 102.969 3.26516C102.813 2.47827 102.426 1.75546 101.858 1.18814C101.29 0.620819 100.567 0.23447 99.7791 0.0779471C98.9915 -0.0785759 98.1751 0.0017583 97.4332 0.308789C96.6913 0.61582 96.0572 1.13576 95.6111 1.80285C95.1649 2.46995 94.9268 3.25424 94.9268 4.05655C94.9268 5.13242 95.3546 6.16422 96.116 6.92498C96.8774 7.68573 97.9102 8.11311 98.9871 8.11311Z" fill="#3B3B3B"/>
</g>
<g style="mix-blend-mode:color-burn">
<path d="M146.129 8.11299C146.933 8.11913 147.721 7.88644 148.393 7.44444C149.065 7.00245 149.59 6.37107 149.902 5.63039C150.214 4.88971 150.299 4.07312 150.146 3.2842C149.993 2.49527 149.609 1.76957 149.042 1.19915C148.475 0.628731 147.752 0.239293 146.964 0.0802435C146.175 -0.0788058 145.357 -0.000300483 144.613 0.3058C143.87 0.611899 143.234 1.1318 142.786 1.79955C142.339 2.4673 142.1 3.25281 142.1 4.05643C142.1 5.12696 142.523 6.15409 143.278 6.91396C144.033 7.67383 145.057 8.10482 146.129 8.11299Z" fill="#3B3B3B"/>
</g>
<g style="mix-blend-mode:color-burn">
<path d="M193.302 8.11299C194.106 8.11913 194.894 7.88644 195.566 7.44444C196.238 7.00245 196.763 6.37107 197.075 5.63039C197.387 4.88971 197.472 4.07312 197.319 3.2842C197.166 2.49527 196.781 1.76957 196.215 1.19915C195.648 0.628731 194.925 0.239293 194.136 0.0802435C193.348 -0.0788058 192.53 -0.000300483 191.786 0.3058C191.043 0.611899 190.407 1.1318 189.959 1.79955C189.511 2.4673 189.272 3.25281 189.272 4.05643C189.272 5.12696 189.696 6.15409 190.451 6.91396C191.206 7.67383 192.23 8.10482 193.302 8.11299Z" fill="#3B3B3B"/>
</g>
<g style="mix-blend-mode:color-burn">
<path d="M240.475 8.11311C241.278 8.11311 242.063 7.8752 242.731 7.42946C243.399 6.98372 243.919 6.35017 244.226 5.60893C244.534 4.86769 244.614 4.05206 244.458 3.26516C244.301 2.47827 243.914 1.75546 243.346 1.18814C242.778 0.620819 242.055 0.23447 241.267 0.0779471C240.48 -0.0785759 239.663 0.0017583 238.922 0.308789C238.18 0.61582 237.545 1.13576 237.099 1.80285C236.653 2.46995 236.415 3.25424 236.415 4.05655C236.415 5.13242 236.843 6.16422 237.604 6.92498C238.366 7.68573 239.398 8.11311 240.475 8.11311Z" fill="#3B3B3B"/>
</g>
<g style="mix-blend-mode:color-burn">
<path d="M287.617 8.11311C288.42 8.11311 289.205 7.8752 289.873 7.42946C290.54 6.98372 291.061 6.35017 291.368 5.60893C291.676 4.86769 291.756 4.05206 291.599 3.26516C291.443 2.47827 291.056 1.75546 290.488 1.18814C289.92 0.620819 289.197 0.23447 288.409 0.0779471C287.621 -0.0785759 286.805 0.0017583 286.063 0.308789C285.321 0.61582 284.687 1.13576 284.241 1.80285C283.795 2.46995 283.557 3.25424 283.557 4.05655C283.557 5.13242 283.984 6.16422 284.746 6.92498C285.507 7.68573 286.54 8.11311 287.617 8.11311Z" fill="#3B3B3B"/>
</g>
<g style="mix-blend-mode:color-burn">
<path d="M334.821 8.11311C335.624 8.11311 336.409 7.8752 337.077 7.42946C337.744 6.98372 338.265 6.35017 338.572 5.60893C338.879 4.86769 338.96 4.05206 338.803 3.26516C338.647 2.47827 338.26 1.75546 337.692 1.18814C337.124 0.620819 336.401 0.23447 335.613 0.0779471C334.825 -0.0785759 334.009 0.0017583 333.267 0.308789C332.525 0.61582 331.891 1.13576 331.445 1.80285C330.999 2.46995 330.761 3.25424 330.761 4.05655C330.761 5.13242 331.188 6.16422 331.95 6.92498C332.711 7.68573 333.744 8.11311 334.821 8.11311Z" fill="#3B3B3B"/>
</g>
<g style="mix-blend-mode:color-burn">
<path d="M381.994 8.11311C382.797 8.11311 383.582 7.8752 384.25 7.42946C384.917 6.98372 385.438 6.35017 385.745 5.60893C386.052 4.86769 386.133 4.05206 385.976 3.26516C385.819 2.47827 385.433 1.75546 384.865 1.18814C384.297 0.620819 383.574 0.23447 382.786 0.0779471C381.998 -0.0785759 381.182 0.0017583 380.44 0.308789C379.698 0.61582 379.064 1.13576 378.618 1.80285C378.172 2.46995 377.934 3.25424 377.934 4.05655C377.934 5.13242 378.361 6.16422 379.123 6.92498C379.884 7.68573 380.917 8.11311 381.994 8.11311Z" fill="#3B3B3B"/>
</g>
<g style="mix-blend-mode:color-burn">
<path d="M4.64033 55.2435C5.44337 55.2435 6.22834 55.0056 6.89605 54.5598C7.56375 54.1141 8.08416 53.4805 8.39147 52.7393C8.69878 51.9981 8.77921 51.1824 8.62255 50.3955C8.46588 49.6086 8.07918 48.8858 7.51134 48.3185C6.9435 47.7512 6.22002 47.3648 5.4324 47.2083C4.64479 47.0518 3.82846 47.1321 3.08655 47.4392C2.34463 47.7462 1.71047 48.2661 1.26432 48.9332C0.818175 49.6003 0.580078 50.3846 0.580078 51.1869C0.580078 52.2628 1.00778 53.2946 1.76923 54.0553C2.53068 54.8161 3.56348 55.2435 4.64033 55.2435Z" fill="#3B3B3B"/>
</g>
<g style="mix-blend-mode:color-burn">
<path d="M51.8132 55.2435C52.6163 55.2435 53.4012 55.0056 54.0689 54.5598C54.7366 54.1141 55.257 53.4805 55.5643 52.7393C55.8716 51.9981 55.9521 51.1824 55.7954 50.3955C55.6387 49.6086 55.252 48.8858 54.6842 48.3185C54.1164 47.7512 53.3929 47.3648 52.6053 47.2083C51.8177 47.0518 51.0013 47.1321 50.2594 47.4392C49.5175 47.7462 48.8834 48.2661 48.4373 48.9332C47.9911 49.6003 47.7529 50.3846 47.7529 51.1869C47.7529 52.2628 48.1807 53.2946 48.9422 54.0553C49.7036 54.8161 50.7364 55.2435 51.8132 55.2435Z" fill="#3B3B3B"/>
</g>
<g style="mix-blend-mode:color-burn">
<path d="M98.9871 55.2435C99.7901 55.2435 100.575 55.0056 101.243 54.5598C101.91 54.1141 102.431 53.4805 102.738 52.7393C103.045 51.9981 103.126 51.1824 102.969 50.3955C102.813 49.6086 102.426 48.8858 101.858 48.3185C101.29 47.7512 100.567 47.3648 99.7791 47.2083C98.9915 47.0518 98.1751 47.1321 97.4332 47.4392C96.6913 47.7462 96.0572 48.2661 95.6111 48.9332C95.1649 49.6003 94.9268 50.3846 94.9268 51.1869C94.9268 52.2628 95.3546 53.2946 96.116 54.0553C96.8774 54.8161 97.9102 55.2435 98.9871 55.2435Z" fill="#3B3B3B"/>
</g>
<g style="mix-blend-mode:color-burn">
<path d="M146.129 55.2434C146.933 55.2495 147.721 55.0168 148.393 54.5748C149.065 54.1328 149.59 53.5014 149.902 52.7608C150.214 52.0201 150.299 51.2035 150.146 50.4146C149.993 49.6256 149.609 48.8999 149.042 48.3295C148.475 47.7591 147.752 47.3697 146.964 47.2106C146.175 47.0516 145.357 47.1301 144.613 47.4362C143.87 47.7423 143.234 48.2622 142.786 48.9299C142.339 49.5977 142.1 50.3832 142.1 51.1868C142.1 52.2573 142.523 53.2845 143.278 54.0443C144.033 54.8042 145.057 55.2352 146.129 55.2434Z" fill="#3B3B3B"/>
</g>
<g style="mix-blend-mode:color-burn">
<path d="M193.302 55.2434C194.106 55.2495 194.894 55.0168 195.566 54.5748C196.238 54.1328 196.763 53.5014 197.075 52.7608C197.387 52.0201 197.472 51.2035 197.319 50.4146C197.166 49.6256 196.781 48.8999 196.215 48.3295C195.648 47.7591 194.925 47.3697 194.136 47.2106C193.348 47.0516 192.53 47.1301 191.786 47.4362C191.043 47.7423 190.407 48.2622 189.959 48.9299C189.511 49.5977 189.272 50.3832 189.272 51.1868C189.272 52.2573 189.696 53.2845 190.451 54.0443C191.206 54.8042 192.23 55.2352 193.302 55.2434Z" fill="#3B3B3B"/>
</g>
<g style="mix-blend-mode:color-burn">
<path d="M240.475 55.2435C241.278 55.2435 242.063 55.0056 242.731 54.5598C243.399 54.1141 243.919 53.4805 244.226 52.7393C244.534 51.9981 244.614 51.1824 244.458 50.3955C244.301 49.6086 243.914 48.8858 243.346 48.3185C242.778 47.7512 242.055 47.3648 241.267 47.2083C240.48 47.0518 239.663 47.1321 238.922 47.4392C238.18 47.7462 237.545 48.2661 237.099 48.9332C236.653 49.6003 236.415 50.3846 236.415 51.1869C236.415 52.2628 236.843 53.2946 237.604 54.0553C238.366 54.8161 239.398 55.2435 240.475 55.2435Z" fill="#3B3B3B"/>
</g>
<g style="mix-blend-mode:color-burn">
<path d="M287.617 55.2435C288.42 55.2435 289.205 55.0056 289.873 54.5598C290.54 54.1141 291.061 53.4805 291.368 52.7393C291.676 51.9981 291.756 51.1824 291.599 50.3955C291.443 49.6086 291.056 48.8858 290.488 48.3185C289.92 47.7512 289.197 47.3648 288.409 47.2083C287.621 47.0518 286.805 47.1321 286.063 47.4392C285.321 47.7462 284.687 48.2661 284.241 48.9332C283.795 49.6003 283.557 50.3846 283.557 51.1869C283.557 52.2628 283.984 53.2946 284.746 54.0553C285.507 54.8161 286.54 55.2435 287.617 55.2435Z" fill="#3B3B3B"/>
</g>
<g style="mix-blend-mode:color-burn">
<path d="M334.821 55.2435C335.624 55.2435 336.409 55.0056 337.077 54.5598C337.744 54.1141 338.265 53.4805 338.572 52.7393C338.879 51.9981 338.96 51.1824 338.803 50.3955C338.647 49.6086 338.26 48.8858 337.692 48.3185C337.124 47.7512 336.401 47.3648 335.613 47.2083C334.825 47.0518 334.009 47.1321 333.267 47.4392C332.525 47.7462 331.891 48.2661 331.445 48.9332C330.999 49.6003 330.761 50.3846 330.761 51.1869C330.761 52.2628 331.188 53.2946 331.95 54.0553C332.711 54.8161 333.744 55.2435 334.821 55.2435Z" fill="#3B3B3B"/>
</g>
<g style="mix-blend-mode:color-burn">
<path d="M381.994 55.2435C382.797 55.2435 383.582 55.0056 384.25 54.5598C384.917 54.1141 385.438 53.4805 385.745 52.7393C386.052 51.9981 386.133 51.1824 385.976 50.3955C385.819 49.6086 385.433 48.8858 384.865 48.3185C384.297 47.7512 383.574 47.3648 382.786 47.2083C381.998 47.0518 381.182 47.1321 380.44 47.4392C379.698 47.7462 379.064 48.2661 378.618 48.9332C378.172 49.6003 377.934 50.3846 377.934 51.1869C377.934 52.2628 378.361 53.2946 379.123 54.0553C379.884 54.8161 380.917 55.2435 381.994 55.2435Z" fill="#3B3B3B"/>
</g>
<g style="mix-blend-mode:color-burn">
<path d="M4.6404 102.343C5.44474 102.343 6.23095 102.104 6.8993 101.657C7.56765 101.21 8.08805 100.574 8.39442 99.8312C8.7008 99.0882 8.7793 98.2709 8.6201 97.4832C8.46091 96.6955 8.07114 95.9727 7.50021 95.4067C6.92927 94.8406 6.20289 94.4567 5.41326 94.3037C4.62362 94.1507 3.80632 94.2355 3.06497 94.5472C2.32363 94.859 1.69169 95.3838 1.2493 96.0549C0.806906 96.7261 0.574056 97.5134 0.580196 98.317C0.588376 99.3875 1.01975 100.411 1.7803 101.165C2.54086 101.92 3.56891 102.343 4.6404 102.343Z" fill="#3B3B3B"/>
</g>
<g style="mix-blend-mode:color-burn">
<path d="M51.8134 102.343C52.6177 102.343 53.4039 102.104 54.0723 101.657C54.7406 101.21 55.2609 100.574 55.5673 99.8312C55.8737 99.0881 55.9523 98.2709 55.7931 97.4832C55.6339 96.6955 55.2441 95.9727 54.6732 95.4067C54.1023 94.8406 53.3759 94.4567 52.5862 94.3037C51.7966 94.1507 50.9793 94.2355 50.2379 94.5472C49.4966 94.859 48.8646 95.3838 48.4222 96.0549C47.9799 96.7261 47.7469 97.5134 47.753 98.317C47.753 98.8483 47.8583 99.3743 48.0627 99.8647C48.2671 100.355 48.5667 100.8 48.9442 101.175C49.3216 101.549 49.7694 101.845 50.2619 102.045C50.7543 102.246 51.2816 102.347 51.8134 102.343Z" fill="#3B3B3B"/>
</g>
<g style="mix-blend-mode:color-burn">
<path d="M98.9862 102.343C99.7906 102.343 100.577 102.104 101.245 101.657C101.913 101.21 102.434 100.574 102.74 99.8312C103.047 99.0881 103.125 98.2709 102.966 97.4832C102.807 96.6955 102.417 95.9727 101.846 95.4067C101.275 94.8406 100.549 94.4567 99.7591 94.3037C98.9694 94.1507 98.1521 94.2355 97.4108 94.5472C96.6694 94.859 96.0375 95.3838 95.5951 96.0549C95.1527 96.7261 94.9198 97.5134 94.9259 98.317C94.9259 98.8483 95.0312 99.3743 95.2356 99.8647C95.44 100.355 95.7396 100.8 96.117 101.175C96.4945 101.549 96.9423 101.845 97.4347 102.045C97.9271 102.246 98.4545 102.347 98.9862 102.343Z" fill="#3B3B3B"/>
</g>
<g style="mix-blend-mode:color-burn">
<path d="M146.129 102.343C146.935 102.349 147.724 102.116 148.396 101.672C149.069 101.229 149.594 100.596 149.905 99.8531C150.216 99.1107 150.299 98.2925 150.144 97.5027C149.988 96.7129 149.601 95.9873 149.031 95.4181C148.461 94.8489 147.735 94.462 146.944 94.3064C146.154 94.1509 145.335 94.2338 144.592 94.5447C143.849 94.8556 143.215 95.3803 142.771 96.0521C142.327 96.7239 142.094 97.5125 142.1 98.3174C142.1 99.385 142.524 100.409 143.28 101.164C144.036 101.919 145.06 102.343 146.129 102.343Z" fill="#3B3B3B"/>
</g>
<g style="mix-blend-mode:color-burn">
<path d="M193.302 102.343C194.108 102.349 194.897 102.116 195.569 101.672C196.242 101.229 196.767 100.596 197.078 99.8531C197.389 99.1107 197.472 98.2925 197.316 97.5027C197.161 96.7129 196.773 95.9873 196.204 95.4181C195.634 94.8489 194.908 94.462 194.117 94.3064C193.327 94.1509 192.508 94.2338 191.765 94.5447C191.021 94.8556 190.388 95.3803 189.944 96.0521C189.5 96.7239 189.266 97.5125 189.273 98.3174C189.273 99.385 189.697 100.409 190.453 101.164C191.208 101.919 192.233 102.343 193.302 102.343Z" fill="#3B3B3B"/>
</g>
<g style="mix-blend-mode:color-burn">
<path d="M240.474 102.343C241.279 102.343 242.065 102.104 242.733 101.657C243.402 101.21 243.922 100.574 244.228 99.8312C244.535 99.0882 244.613 98.2709 244.454 97.4832C244.295 96.6955 243.905 95.9727 243.334 95.4067C242.763 94.8406 242.037 94.4567 241.247 94.3037C240.458 94.1507 239.64 94.2355 238.899 94.5472C238.158 94.859 237.526 95.3838 237.083 96.0549C236.641 96.7261 236.408 97.5134 236.414 98.317C236.422 99.3875 236.854 100.411 237.614 101.165C238.375 101.92 239.403 102.343 240.474 102.343Z" fill="#3B3B3B"/>
</g>
<g style="mix-blend-mode:color-burn">
<path d="M287.617 102.343C288.421 102.343 289.208 102.104 289.876 101.657C290.544 101.21 291.065 100.574 291.371 99.8312C291.677 99.0882 291.756 98.2709 291.597 97.4832C291.438 96.6955 291.048 95.9727 290.477 95.4067C289.906 94.8406 289.18 94.4567 288.39 94.3037C287.6 94.1507 286.783 94.2355 286.042 94.5472C285.3 94.859 284.668 95.3838 284.226 96.0549C283.783 96.7261 283.551 97.5134 283.557 98.317C283.565 99.3875 283.996 100.411 284.757 101.165C285.517 101.92 286.545 102.343 287.617 102.343Z" fill="#3B3B3B"/>
</g>
<g style="mix-blend-mode:color-burn">
<path d="M334.821 102.343C335.625 102.343 336.412 102.104 337.08 101.657C337.748 101.21 338.269 100.574 338.575 99.8312C338.882 99.0882 338.96 98.2709 338.801 97.4832C338.642 96.6955 338.252 95.9727 337.681 95.4067C337.11 94.8406 336.384 94.4567 335.594 94.3037C334.804 94.1507 333.987 94.2355 333.246 94.5472C332.504 94.859 331.872 95.3838 331.43 96.0549C330.988 96.7261 330.755 97.5134 330.761 98.317C330.769 99.3875 331.2 100.411 331.961 101.165C332.722 101.92 333.75 102.343 334.821 102.343Z" fill="#3B3B3B"/>
</g>
<g style="mix-blend-mode:color-burn">
<path d="M381.994 102.343C382.798 102.343 383.585 102.104 384.253 101.657C384.921 101.21 385.442 100.574 385.748 99.8312C386.054 99.0882 386.133 98.2709 385.974 97.4832C385.815 96.6955 385.425 95.9727 384.854 95.4067C384.283 94.8406 383.556 94.4567 382.767 94.3037C381.977 94.1507 381.16 94.2355 380.419 94.5472C379.677 94.859 379.045 95.3838 378.603 96.0549C378.16 96.7261 377.928 97.5134 377.934 98.317C377.942 99.3875 378.373 100.411 379.134 101.165C379.894 101.92 380.922 102.343 381.994 102.343Z" fill="#3B3B3B"/>
</g>
<g style="mix-blend-mode:color-burn">
<path d="M4.64033 149.442C5.44337 149.442 6.22834 149.204 6.89605 148.759C7.56375 148.313 8.08416 147.679 8.39147 146.938C8.69878 146.197 8.77921 145.381 8.62255 144.594C8.46588 143.807 8.07918 143.085 7.51134 142.517C6.9435 141.95 6.22002 141.564 5.4324 141.407C4.64479 141.251 3.82846 141.331 3.08655 141.638C2.34463 141.945 1.71047 142.465 1.26432 143.132C0.818175 143.799 0.580078 144.583 0.580078 145.386C0.580078 146.462 1.00778 147.493 1.76923 148.254C2.53068 149.015 3.56348 149.442 4.64033 149.442Z" fill="#3B3B3B"/>
</g>
<g style="mix-blend-mode:color-burn">
<path d="M51.8134 149.442C52.6165 149.442 53.4014 149.204 54.0691 148.759C54.7368 148.313 55.2573 147.679 55.5646 146.938C55.8719 146.197 55.9523 145.381 55.7956 144.594C55.639 143.807 55.2523 143.085 54.6844 142.517C54.1166 141.95 53.3931 141.564 52.6055 141.407C51.8179 141.251 51.0014 141.331 50.2595 141.638C49.5176 141.945 48.8835 142.465 48.4374 143.132C47.9912 143.799 47.753 144.583 47.753 145.386C47.7489 145.92 47.8512 146.449 48.0537 146.943C48.2563 147.437 48.5553 147.886 48.9331 148.263C49.311 148.641 49.7602 148.939 50.2547 149.142C50.7492 149.344 51.2791 149.446 51.8134 149.442Z" fill="#3B3B3B"/>
</g>
<g style="mix-blend-mode:color-burn">
<path d="M98.9862 149.442C99.7892 149.442 100.574 149.204 101.242 148.759C101.91 148.313 102.43 147.679 102.737 146.938C103.045 146.197 103.125 145.381 102.968 144.594C102.812 143.807 102.425 143.085 101.857 142.517C101.289 141.95 100.566 141.564 99.7783 141.407C98.9907 141.251 98.1742 141.331 97.4323 141.638C96.6904 141.945 96.0564 142.465 95.6102 143.132C95.1641 143.799 94.9259 144.583 94.9259 145.386C94.9218 145.92 95.024 146.449 95.2266 146.943C95.4292 147.437 95.7281 147.886 96.106 148.263C96.4838 148.641 96.933 148.939 97.4275 149.142C97.922 149.344 98.4519 149.446 98.9862 149.442Z" fill="#3B3B3B"/>
</g>
<g style="mix-blend-mode:color-burn">
<path d="M146.129 149.442C146.933 149.448 147.721 149.216 148.393 148.774C149.065 148.332 149.59 147.7 149.902 146.959C150.214 146.219 150.299 145.402 150.146 144.613C149.993 143.824 149.609 143.099 149.042 142.528C148.475 141.958 147.752 141.568 146.964 141.409C146.175 141.25 145.357 141.329 144.613 141.635C143.87 141.941 143.234 142.461 142.786 143.129C142.339 143.796 142.1 144.582 142.1 145.386C142.096 145.917 142.197 146.444 142.397 146.936C142.598 147.428 142.894 147.875 143.269 148.252C143.643 148.629 144.089 148.928 144.58 149.133C145.071 149.337 145.597 149.442 146.129 149.442Z" fill="#3B3B3B"/>
</g>
<g style="mix-blend-mode:color-burn">
<path d="M193.302 149.442C194.106 149.448 194.894 149.216 195.566 148.774C196.238 148.332 196.763 147.7 197.075 146.959C197.387 146.219 197.472 145.402 197.319 144.613C197.166 143.824 196.781 143.099 196.215 142.528C195.648 141.958 194.925 141.568 194.136 141.409C193.348 141.25 192.53 141.329 191.786 141.635C191.043 141.941 190.407 142.461 189.959 143.129C189.512 143.796 189.273 144.582 189.273 145.386C189.268 145.917 189.37 146.444 189.57 146.936C189.771 147.428 190.067 147.875 190.442 148.252C190.816 148.629 191.262 148.928 191.753 149.133C192.244 149.337 192.77 149.442 193.302 149.442Z" fill="#3B3B3B"/>
</g>
<g style="mix-blend-mode:color-burn">
<path d="M240.475 149.442C241.278 149.442 242.063 149.204 242.731 148.759C243.399 148.313 243.919 147.679 244.226 146.938C244.534 146.197 244.614 145.381 244.458 144.594C244.301 143.807 243.914 143.085 243.346 142.517C242.778 141.95 242.055 141.564 241.267 141.407C240.48 141.251 239.663 141.331 238.922 141.638C238.18 141.945 237.545 142.465 237.099 143.132C236.653 143.799 236.415 144.583 236.415 145.386C236.415 146.462 236.843 147.493 237.604 148.254C238.366 149.015 239.398 149.442 240.475 149.442Z" fill="#3B3B3B"/>
</g>
<g style="mix-blend-mode:color-burn">
<path d="M287.617 149.442C288.42 149.442 289.205 149.204 289.873 148.759C290.54 148.313 291.061 147.679 291.368 146.938C291.676 146.197 291.756 145.381 291.599 144.594C291.443 143.807 291.056 143.085 290.488 142.517C289.92 141.95 289.197 141.564 288.409 141.407C287.621 141.251 286.805 141.331 286.063 141.638C285.321 141.945 284.687 142.465 284.241 143.132C283.795 143.799 283.557 144.583 283.557 145.386C283.557 146.462 283.984 147.493 284.746 148.254C285.507 149.015 286.54 149.442 287.617 149.442Z" fill="#3B3B3B"/>
</g>
<g style="mix-blend-mode:color-burn">
<path d="M334.821 149.442C335.624 149.442 336.409 149.204 337.077 148.759C337.744 148.313 338.265 147.679 338.572 146.938C338.879 146.197 338.96 145.381 338.803 144.594C338.647 143.807 338.26 143.085 337.692 142.517C337.124 141.95 336.401 141.564 335.613 141.407C334.825 141.251 334.009 141.331 333.267 141.638C332.525 141.945 331.891 142.465 331.445 143.132C330.999 143.799 330.761 144.583 330.761 145.386C330.761 146.462 331.188 147.493 331.95 148.254C332.711 149.015 333.744 149.442 334.821 149.442Z" fill="#3B3B3B"/>
</g>
<g style="mix-blend-mode:color-burn">
<path d="M381.994 149.442C382.797 149.442 383.582 149.204 384.25 148.759C384.917 148.313 385.438 147.679 385.745 146.938C386.052 146.197 386.133 145.381 385.976 144.594C385.819 143.807 385.433 143.085 384.865 142.517C384.297 141.95 383.574 141.564 382.786 141.407C381.998 141.251 381.182 141.331 380.44 141.638C379.698 141.945 379.064 142.465 378.618 143.132C378.172 143.799 377.934 144.583 377.934 145.386C377.934 146.462 378.361 147.493 379.123 148.254C379.884 149.015 380.917 149.442 381.994 149.442Z" fill="#3B3B3B"/>
</g>
<g style="mix-blend-mode:color-burn">
<path d="M4.64033 196.603C5.44337 196.603 6.22834 196.365 6.89605 195.92C7.56375 195.474 8.08416 194.84 8.39147 194.099C8.69878 193.358 8.77921 192.542 8.62255 191.755C8.46588 190.969 8.07918 190.246 7.51134 189.678C6.9435 189.111 6.22002 188.725 5.4324 188.568C4.64479 188.412 3.82846 188.492 3.08655 188.799C2.34463 189.106 1.71047 189.626 1.26432 190.293C0.818175 190.96 0.580078 191.744 0.580078 192.547C0.580078 193.623 1.00778 194.654 1.76923 195.415C2.53068 196.176 3.56348 196.603 4.64033 196.603Z" fill="#3B3B3B"/>
</g>
<g style="mix-blend-mode:color-burn">
<path d="M51.8134 196.603C52.6165 196.603 53.4014 196.365 54.0691 195.92C54.7368 195.474 55.2573 194.84 55.5646 194.099C55.8719 193.358 55.9523 192.542 55.7956 191.755C55.639 190.968 55.2523 190.246 54.6844 189.678C54.1166 189.111 53.3931 188.725 52.6055 188.568C51.8179 188.412 51.0014 188.492 50.2595 188.799C49.5176 189.106 48.8835 189.626 48.4374 190.293C47.9912 190.96 47.753 191.744 47.753 192.547C47.7489 193.081 47.8512 193.61 48.0537 194.104C48.2563 194.598 48.5553 195.047 48.9331 195.424C49.311 195.802 49.7602 196.101 50.2547 196.303C50.7492 196.505 51.2791 196.607 51.8134 196.603Z" fill="#3B3B3B"/>
</g>
<g style="mix-blend-mode:color-burn">
<path d="M98.9862 196.603C99.7892 196.603 100.574 196.365 101.242 195.92C101.91 195.474 102.43 194.84 102.737 194.099C103.045 193.358 103.125 192.542 102.968 191.755C102.812 190.968 102.425 190.246 101.857 189.678C101.289 189.111 100.566 188.725 99.7783 188.568C98.9907 188.412 98.1742 188.492 97.4323 188.799C96.6904 189.106 96.0564 189.626 95.6102 190.293C95.1641 190.96 94.9259 191.744 94.9259 192.547C94.9218 193.081 95.024 193.61 95.2266 194.104C95.4292 194.598 95.7281 195.047 96.106 195.424C96.4838 195.802 96.933 196.101 97.4275 196.303C97.922 196.505 98.4519 196.607 98.9862 196.603Z" fill="#3B3B3B"/>
</g>
<g style="mix-blend-mode:color-burn">
<path d="M146.129 196.604C146.933 196.61 147.721 196.377 148.393 195.935C149.065 195.493 149.59 194.862 149.902 194.121C150.214 193.38 150.299 192.564 150.146 191.775C149.993 190.986 149.609 190.26 149.042 189.69C148.475 189.119 147.752 188.73 146.964 188.571C146.175 188.412 145.357 188.49 144.613 188.797C143.87 189.103 143.234 189.623 142.786 190.29C142.339 190.958 142.1 191.744 142.1 192.547C142.096 193.078 142.197 193.605 142.397 194.097C142.598 194.589 142.894 195.037 143.269 195.414C143.643 195.791 144.089 196.09 144.58 196.294C145.071 196.499 145.597 196.604 146.129 196.604Z" fill="#3B3B3B"/>
</g>
<g style="mix-blend-mode:color-burn">
<path d="M193.302 196.604C194.106 196.61 194.894 196.377 195.566 195.935C196.238 195.493 196.763 194.862 197.075 194.121C197.387 193.38 197.472 192.564 197.319 191.775C197.166 190.986 196.781 190.26 196.215 189.69C195.648 189.119 194.925 188.73 194.136 188.571C193.348 188.412 192.53 188.49 191.786 188.797C191.043 189.103 190.407 189.623 189.959 190.29C189.512 190.958 189.273 191.744 189.273 192.547C189.268 193.078 189.37 193.605 189.57 194.097C189.771 194.589 190.067 195.037 190.442 195.414C190.816 195.791 191.262 196.09 191.753 196.294C192.244 196.499 192.77 196.604 193.302 196.604Z" fill="#3B3B3B"/>
</g>
<g style="mix-blend-mode:color-burn">
<path d="M240.475 196.603C241.278 196.603 242.063 196.365 242.731 195.92C243.399 195.474 243.919 194.84 244.226 194.099C244.534 193.358 244.614 192.542 244.458 191.755C244.301 190.969 243.914 190.246 243.346 189.678C242.778 189.111 242.055 188.725 241.267 188.568C240.48 188.412 239.663 188.492 238.922 188.799C238.18 189.106 237.545 189.626 237.099 190.293C236.653 190.96 236.415 191.744 236.415 192.547C236.415 193.623 236.843 194.654 237.604 195.415C238.366 196.176 239.398 196.603 240.475 196.603Z" fill="#3B3B3B"/>
</g>
<g style="mix-blend-mode:color-burn">
<path d="M287.617 196.603C288.42 196.603 289.205 196.365 289.873 195.92C290.54 195.474 291.061 194.84 291.368 194.099C291.676 193.358 291.756 192.542 291.599 191.755C291.443 190.969 291.056 190.246 290.488 189.678C289.92 189.111 289.197 188.725 288.409 188.568C287.621 188.412 286.805 188.492 286.063 188.799C285.321 189.106 284.687 189.626 284.241 190.293C283.795 190.96 283.557 191.744 283.557 192.547C283.557 193.623 283.984 194.654 284.746 195.415C285.507 196.176 286.54 196.603 287.617 196.603Z" fill="#3B3B3B"/>
</g>
<g style="mix-blend-mode:color-burn">
<path d="M334.821 196.603C335.624 196.603 336.409 196.365 337.077 195.92C337.744 195.474 338.265 194.84 338.572 194.099C338.879 193.358 338.96 192.542 338.803 191.755C338.647 190.969 338.26 190.246 337.692 189.678C337.124 189.111 336.401 188.725 335.613 188.568C334.825 188.412 334.009 188.492 333.267 188.799C332.525 189.106 331.891 189.626 331.445 190.293C330.999 190.96 330.761 191.744 330.761 192.547C330.761 193.623 331.188 194.654 331.95 195.415C332.711 196.176 333.744 196.603 334.821 196.603Z" fill="#3B3B3B"/>
</g>
<g style="mix-blend-mode:color-burn">
<path d="M381.994 196.603C382.797 196.603 383.582 196.365 384.25 195.92C384.917 195.474 385.438 194.84 385.745 194.099C386.052 193.358 386.133 192.542 385.976 191.755C385.819 190.969 385.433 190.246 384.865 189.678C384.297 189.111 383.574 188.725 382.786 188.568C381.998 188.412 381.182 188.492 380.44 188.799C379.698 189.106 379.064 189.626 378.618 190.293C378.172 190.96 377.934 191.744 377.934 192.547C377.934 193.623 378.361 194.654 379.123 195.415C379.884 196.176 380.917 196.603 381.994 196.603Z" fill="#3B3B3B"/>
</g>
<g style="mix-blend-mode:color-burn">
<path d="M4.64033 243.734C5.44337 243.734 6.22834 243.496 6.89605 243.05C7.56375 242.604 8.08416 241.971 8.39147 241.23C8.69878 240.488 8.77921 239.673 8.62255 238.886C8.46588 238.099 8.07918 237.376 7.51134 236.809C6.9435 236.241 6.22002 235.855 5.4324 235.699C4.64479 235.542 3.82846 235.622 3.08655 235.929C2.34463 236.236 1.71047 236.756 1.26432 237.423C0.818175 238.091 0.580078 238.875 0.580078 239.677C0.580078 240.753 1.00778 241.785 1.76923 242.546C2.53068 243.306 3.56348 243.734 4.64033 243.734Z" fill="#3B3B3B"/>
</g>
<g style="mix-blend-mode:color-burn">
<path d="M51.8134 243.734C52.6165 243.734 53.4014 243.496 54.0691 243.05C54.7368 242.604 55.2573 241.971 55.5646 241.23C55.8719 240.488 55.9523 239.673 55.7956 238.886C55.639 238.099 55.2523 237.376 54.6844 236.809C54.1166 236.241 53.3931 235.855 52.6055 235.699C51.8179 235.542 51.0014 235.622 50.2595 235.929C49.5176 236.236 48.8835 236.756 48.4374 237.423C47.9912 238.091 47.753 238.875 47.753 239.677C47.7489 240.211 47.8512 240.74 48.0537 241.234C48.2563 241.728 48.5553 242.177 48.9331 242.555C49.311 242.932 49.7602 243.231 50.2547 243.433C50.7492 243.636 51.2791 243.738 51.8134 243.734Z" fill="#3B3B3B"/>
</g>
<g style="mix-blend-mode:color-burn">
<path d="M98.9862 243.734C99.7892 243.734 100.574 243.496 101.242 243.05C101.91 242.604 102.43 241.971 102.737 241.23C103.045 240.488 103.125 239.673 102.968 238.886C102.812 238.099 102.425 237.376 101.857 236.809C101.289 236.241 100.566 235.855 99.7783 235.699C98.9907 235.542 98.1742 235.622 97.4323 235.929C96.6904 236.236 96.0564 236.756 95.6102 237.423C95.1641 238.091 94.9259 238.875 94.9259 239.677C94.9218 240.211 95.024 240.74 95.2266 241.234C95.4292 241.728 95.7281 242.177 96.106 242.555C96.4838 242.932 96.933 243.231 97.4275 243.433C97.922 243.636 98.4519 243.738 98.9862 243.734Z" fill="#3B3B3B"/>
</g>
<g style="mix-blend-mode:color-burn">
<path d="M146.129 243.734C146.933 243.74 147.721 243.508 148.393 243.066C149.065 242.624 149.59 241.992 149.902 241.251C150.214 240.511 150.299 239.694 150.146 238.905C149.993 238.116 149.609 237.391 149.042 236.82C148.475 236.25 147.752 235.86 146.964 235.701C146.175 235.542 145.357 235.621 144.613 235.927C143.87 236.233 143.234 236.753 142.786 237.421C142.339 238.088 142.1 238.874 142.1 239.678C142.096 240.209 142.197 240.736 142.397 241.228C142.598 241.72 142.894 242.167 143.269 242.544C143.643 242.921 144.089 243.22 144.58 243.425C145.071 243.629 145.597 243.734 146.129 243.734Z" fill="#3B3B3B"/>
</g>
<g style="mix-blend-mode:color-burn">
<path d="M193.302 243.734C194.106 243.74 194.894 243.508 195.566 243.066C196.238 242.624 196.763 241.992 197.075 241.251C197.387 240.511 197.472 239.694 197.319 238.905C197.166 238.116 196.781 237.391 196.215 236.82C195.648 236.25 194.925 235.86 194.136 235.701C193.348 235.542 192.53 235.621 191.786 235.927C191.043 236.233 190.407 236.753 189.959 237.421C189.512 238.088 189.273 238.874 189.273 239.678C189.268 240.209 189.37 240.736 189.57 241.228C189.771 241.72 190.067 242.167 190.442 242.544C190.816 242.921 191.262 243.22 191.753 243.425C192.244 243.629 192.77 243.734 193.302 243.734Z" fill="#3B3B3B"/>
</g>
<g style="mix-blend-mode:color-burn">
<path d="M240.475 243.734C241.278 243.734 242.063 243.496 242.731 243.05C243.399 242.604 243.919 241.971 244.226 241.23C244.534 240.488 244.614 239.673 244.458 238.886C244.301 238.099 243.914 237.376 243.346 236.809C242.778 236.241 242.055 235.855 241.267 235.699C240.48 235.542 239.663 235.622 238.922 235.929C238.18 236.236 237.545 236.756 237.099 237.423C236.653 238.091 236.415 238.875 236.415 239.677C236.415 240.753 236.843 241.785 237.604 242.546C238.366 243.306 239.398 243.734 240.475 243.734Z" fill="#3B3B3B"/>
</g>
<g style="mix-blend-mode:color-burn">
<path d="M287.617 243.734C288.42 243.734 289.205 243.496 289.873 243.05C290.54 242.604 291.061 241.971 291.368 241.23C291.676 240.488 291.756 239.673 291.599 238.886C291.443 238.099 291.056 237.376 290.488 236.809C289.92 236.241 289.197 235.855 288.409 235.699C287.621 235.542 286.805 235.622 286.063 235.929C285.321 236.236 284.687 236.756 284.241 237.423C283.795 238.091 283.557 238.875 283.557 239.677C283.557 240.753 283.984 241.785 284.746 242.546C285.507 243.306 286.54 243.734 287.617 243.734Z" fill="#3B3B3B"/>
</g>
<g style="mix-blend-mode:color-burn">
<path d="M334.821 243.734C335.624 243.734 336.409 243.496 337.077 243.05C337.744 242.604 338.265 241.971 338.572 241.23C338.879 240.488 338.96 239.673 338.803 238.886C338.647 238.099 338.26 237.376 337.692 236.809C337.124 236.241 336.401 235.855 335.613 235.699C334.825 235.542 334.009 235.622 333.267 235.929C332.525 236.236 331.891 236.756 331.445 237.423C330.999 238.091 330.761 238.875 330.761 239.677C330.761 240.753 331.188 241.785 331.95 242.546C332.711 243.306 333.744 243.734 334.821 243.734Z" fill="#3B3B3B"/>
</g>
<g style="mix-blend-mode:color-burn">
<path d="M381.994 243.734C382.797 243.734 383.582 243.496 384.25 243.05C384.917 242.604 385.438 241.971 385.745 241.23C386.052 240.488 386.133 239.673 385.976 238.886C385.819 238.099 385.433 237.376 384.865 236.809C384.297 236.241 383.574 235.855 382.786 235.699C381.998 235.542 381.182 235.622 380.44 235.929C379.698 236.236 379.064 236.756 378.618 237.423C378.172 238.091 377.934 238.875 377.934 239.677C377.934 240.753 378.361 241.785 379.123 242.546C379.884 243.306 380.917 243.734 381.994 243.734Z" fill="#3B3B3B"/>
</g>
<g style="mix-blend-mode:color-burn">
<path d="M4.64033 290.864C5.44337 290.864 6.22834 290.626 6.89605 290.18C7.56375 289.735 8.08416 289.101 8.39147 288.36C8.69878 287.619 8.77921 286.803 8.62255 286.016C8.46588 285.229 8.07918 284.506 7.51134 283.939C6.9435 283.372 6.22002 282.985 5.4324 282.829C4.64479 282.672 3.82846 282.753 3.08655 283.06C2.34463 283.367 1.71047 283.887 1.26432 284.554C0.818175 285.221 0.580078 286.005 0.580078 286.808C0.580078 287.883 1.00778 288.915 1.76923 289.676C2.53068 290.437 3.56348 290.864 4.64033 290.864Z" fill="#3B3B3B"/>
</g>
<g style="mix-blend-mode:color-burn">
<path d="M51.8132 290.864C52.6163 290.864 53.4012 290.626 54.0689 290.18C54.7366 289.735 55.257 289.101 55.5643 288.36C55.8716 287.619 55.9521 286.803 55.7954 286.016C55.6387 285.229 55.252 284.506 54.6842 283.939C54.1164 283.372 53.3929 282.985 52.6053 282.829C51.8177 282.672 51.0013 282.753 50.2594 283.06C49.5175 283.367 48.8834 283.887 48.4373 284.554C47.9911 285.221 47.7529 286.005 47.7529 286.808C47.7529 287.883 48.1807 288.915 48.9422 289.676C49.7036 290.437 50.7364 290.864 51.8132 290.864Z" fill="#3B3B3B"/>
</g>
<g style="mix-blend-mode:color-burn">
<path d="M98.9871 290.864C99.7901 290.864 100.575 290.626 101.243 290.18C101.91 289.735 102.431 289.101 102.738 288.36C103.045 287.619 103.126 286.803 102.969 286.016C102.813 285.229 102.426 284.506 101.858 283.939C101.29 283.372 100.567 282.985 99.7791 282.829C98.9915 282.672 98.1751 282.753 97.4332 283.06C96.6913 283.367 96.0572 283.887 95.6111 284.554C95.1649 285.221 94.9268 286.005 94.9268 286.808C94.9268 287.883 95.3546 288.915 96.116 289.676C96.8774 290.437 97.9102 290.864 98.9871 290.864Z" fill="#3B3B3B"/>
</g>
<g style="mix-blend-mode:color-burn">
<path d="M146.129 290.864C146.933 290.87 147.721 290.637 148.393 290.195C149.065 289.753 149.59 289.122 149.902 288.381C150.214 287.641 150.299 286.824 150.146 286.035C149.993 285.246 149.609 284.521 149.042 283.95C148.475 283.38 147.752 282.99 146.964 282.831C146.175 282.672 145.357 282.751 144.613 283.057C143.87 283.363 143.234 283.883 142.786 284.551C142.339 285.218 142.1 286.004 142.1 286.807C142.1 287.878 142.523 288.905 143.278 289.665C144.033 290.425 145.057 290.856 146.129 290.864Z" fill="#3B3B3B"/>
</g>
<g style="mix-blend-mode:color-burn">
<path d="M193.302 290.864C194.106 290.87 194.894 290.637 195.566 290.195C196.238 289.753 196.763 289.122 197.075 288.381C197.387 287.641 197.472 286.824 197.319 286.035C197.166 285.246 196.781 284.521 196.215 283.95C195.648 283.38 194.925 282.99 194.136 282.831C193.348 282.672 192.53 282.751 191.786 283.057C191.043 283.363 190.407 283.883 189.959 284.551C189.511 285.218 189.272 286.004 189.272 286.807C189.272 287.878 189.696 288.905 190.451 289.665C191.206 290.425 192.23 290.856 193.302 290.864Z" fill="#3B3B3B"/>
</g>
<g style="mix-blend-mode:color-burn">
<path d="M240.475 290.864C241.278 290.864 242.063 290.626 242.731 290.18C243.399 289.735 243.919 289.101 244.226 288.36C244.534 287.619 244.614 286.803 244.458 286.016C244.301 285.229 243.914 284.506 243.346 283.939C242.778 283.372 242.055 282.985 241.267 282.829C240.48 282.672 239.663 282.753 238.922 283.06C238.18 283.367 237.545 283.887 237.099 284.554C236.653 285.221 236.415 286.005 236.415 286.808C236.415 287.883 236.843 288.915 237.604 289.676C238.366 290.437 239.398 290.864 240.475 290.864Z" fill="#3B3B3B"/>
</g>
<g style="mix-blend-mode:color-burn">
<path d="M287.617 290.864C288.42 290.864 289.205 290.626 289.873 290.18C290.54 289.735 291.061 289.101 291.368 288.36C291.676 287.619 291.756 286.803 291.599 286.016C291.443 285.229 291.056 284.506 290.488 283.939C289.92 283.372 289.197 282.985 288.409 282.829C287.621 282.672 286.805 282.753 286.063 283.06C285.321 283.367 284.687 283.887 284.241 284.554C283.795 285.221 283.557 286.005 283.557 286.808C283.557 287.883 283.984 288.915 284.746 289.676C285.507 290.437 286.54 290.864 287.617 290.864Z" fill="#3B3B3B"/>
</g>
<g style="mix-blend-mode:color-burn">
<path d="M334.821 290.864C335.624 290.864 336.409 290.626 337.077 290.18C337.744 289.735 338.265 289.101 338.572 288.36C338.879 287.619 338.96 286.803 338.803 286.016C338.647 285.229 338.26 284.506 337.692 283.939C337.124 283.372 336.401 282.985 335.613 282.829C334.825 282.672 334.009 282.753 333.267 283.06C332.525 283.367 331.891 283.887 331.445 284.554C330.999 285.221 330.761 286.005 330.761 286.808C330.761 287.883 331.188 288.915 331.95 289.676C332.711 290.437 333.744 290.864 334.821 290.864Z" fill="#3B3B3B"/>
</g>
<g style="mix-blend-mode:color-burn">
<path d="M381.994 290.864C382.797 290.864 383.582 290.626 384.25 290.18C384.917 289.735 385.438 289.101 385.745 288.36C386.052 287.619 386.133 286.803 385.976 286.016C385.819 285.229 385.433 284.506 384.865 283.939C384.297 283.372 383.574 282.985 382.786 282.829C381.998 282.672 381.182 282.753 380.44 283.06C379.698 283.367 379.064 283.887 378.618 284.554C378.172 285.221 377.934 286.005 377.934 286.808C377.934 287.883 378.361 288.915 379.123 289.676C379.884 290.437 380.917 290.864 381.994 290.864Z" fill="#3B3B3B"/>
</g>
<g style="mix-blend-mode:color-burn">
<path d="M4.64033 337.994C5.44337 337.994 6.22834 337.757 6.89605 337.311C7.56375 336.865 8.08416 336.232 8.39147 335.49C8.69878 334.749 8.77921 333.933 8.62255 333.147C8.46588 332.36 8.07918 331.637 7.51134 331.069C6.9435 330.502 6.22002 330.116 5.4324 329.959C4.64479 329.803 3.82846 329.883 3.08655 330.19C2.34463 330.497 1.71047 331.017 1.26432 331.684C0.818175 332.351 0.580078 333.136 0.580078 333.938C0.580078 335.014 1.00778 336.046 1.76923 336.806C2.53068 337.567 3.56348 337.994 4.64033 337.994Z" fill="#3B3B3B"/>
</g>
<g style="mix-blend-mode:color-burn">
<path d="M51.8132 337.994C52.6163 337.994 53.4012 337.757 54.0689 337.311C54.7366 336.865 55.257 336.232 55.5643 335.49C55.8716 334.749 55.9521 333.933 55.7954 333.147C55.6387 332.36 55.252 331.637 54.6842 331.069C54.1164 330.502 53.3929 330.116 52.6053 329.959C51.8177 329.803 51.0013 329.883 50.2594 330.19C49.5175 330.497 48.8834 331.017 48.4373 331.684C47.9911 332.351 47.7529 333.136 47.7529 333.938C47.7529 335.014 48.1807 336.046 48.9422 336.806C49.7036 337.567 50.7364 337.994 51.8132 337.994Z" fill="#3B3B3B"/>
</g>
<g style="mix-blend-mode:color-burn">
<path d="M98.9871 337.994C99.7901 337.994 100.575 337.757 101.243 337.311C101.91 336.865 102.431 336.232 102.738 335.49C103.045 334.749 103.126 333.933 102.969 333.147C102.813 332.36 102.426 331.637 101.858 331.069C101.29 330.502 100.567 330.116 99.7791 329.959C98.9915 329.803 98.1751 329.883 97.4332 330.19C96.6913 330.497 96.0572 331.017 95.6111 331.684C95.1649 332.351 94.9268 333.136 94.9268 333.938C94.9268 335.014 95.3546 336.046 96.116 336.806C96.8774 337.567 97.9102 337.994 98.9871 337.994Z" fill="#3B3B3B"/>
</g>
<g style="mix-blend-mode:color-burn">
<path d="M146.129 337.994C146.933 338 147.721 337.768 148.393 337.326C149.065 336.884 149.59 336.252 149.902 335.512C150.214 334.771 150.299 333.954 150.146 333.166C149.993 332.377 149.609 331.651 149.042 331.081C148.475 330.51 147.752 330.121 146.964 329.962C146.175 329.803 145.357 329.881 144.613 330.187C143.87 330.493 143.234 331.013 142.786 331.681C142.339 332.349 142.1 333.134 142.1 333.938C142.1 335.008 142.523 336.035 143.278 336.795C144.033 337.555 145.057 337.986 146.129 337.994Z" fill="#3B3B3B"/>
</g>
<g style="mix-blend-mode:color-burn">
<path d="M193.302 337.994C194.106 338 194.894 337.768 195.566 337.326C196.238 336.884 196.763 336.252 197.075 335.512C197.387 334.771 197.472 333.954 197.319 333.166C197.166 332.377 196.781 331.651 196.215 331.081C195.648 330.51 194.925 330.121 194.136 329.962C193.348 329.803 192.53 329.881 191.786 330.187C191.043 330.493 190.407 331.013 189.959 331.681C189.511 332.349 189.272 333.134 189.272 333.938C189.272 335.008 189.696 336.035 190.451 336.795C191.206 337.555 192.23 337.986 193.302 337.994Z" fill="#3B3B3B"/>
</g>
<g style="mix-blend-mode:color-burn">
<path d="M240.475 337.994C241.278 337.994 242.063 337.757 242.731 337.311C243.399 336.865 243.919 336.232 244.226 335.49C244.534 334.749 244.614 333.933 244.458 333.147C244.301 332.36 243.914 331.637 243.346 331.069C242.778 330.502 242.055 330.116 241.267 329.959C240.48 329.803 239.663 329.883 238.922 330.19C238.18 330.497 237.545 331.017 237.099 331.684C236.653 332.351 236.415 333.136 236.415 333.938C236.415 335.014 236.843 336.046 237.604 336.806C238.366 337.567 239.398 337.994 240.475 337.994Z" fill="#3B3B3B"/>
</g>
<g style="mix-blend-mode:color-burn">
<path d="M287.617 337.994C288.42 337.994 289.205 337.757 289.873 337.311C290.54 336.865 291.061 336.232 291.368 335.49C291.676 334.749 291.756 333.933 291.599 333.147C291.443 332.36 291.056 331.637 290.488 331.069C289.92 330.502 289.197 330.116 288.409 329.959C287.621 329.803 286.805 329.883 286.063 330.19C285.321 330.497 284.687 331.017 284.241 331.684C283.795 332.351 283.557 333.136 283.557 333.938C283.557 335.014 283.984 336.046 284.746 336.806C285.507 337.567 286.54 337.994 287.617 337.994Z" fill="#3B3B3B"/>
</g>
<g style="mix-blend-mode:color-burn">
<path d="M334.821 337.994C335.624 337.994 336.409 337.757 337.077 337.311C337.744 336.865 338.265 336.232 338.572 335.49C338.879 334.749 338.96 333.933 338.803 333.147C338.647 332.36 338.26 331.637 337.692 331.069C337.124 330.502 336.401 330.116 335.613 329.959C334.825 329.803 334.009 329.883 333.267 330.19C332.525 330.497 331.891 331.017 331.445 331.684C330.999 332.351 330.761 333.136 330.761 333.938C330.761 335.014 331.188 336.046 331.95 336.806C332.711 337.567 333.744 337.994 334.821 337.994Z" fill="#3B3B3B"/>
</g>
<g style="mix-blend-mode:color-burn">
<path d="M381.994 337.994C382.797 337.994 383.582 337.757 384.25 337.311C384.917 336.865 385.438 336.232 385.745 335.49C386.052 334.749 386.133 333.933 385.976 333.147C385.819 332.36 385.433 331.637 384.865 331.069C384.297 330.502 383.574 330.116 382.786 329.959C381.998 329.803 381.182 329.883 380.44 330.19C379.698 330.497 379.064 331.017 378.618 331.684C378.172 332.351 377.934 333.136 377.934 333.938C377.934 335.014 378.361 336.046 379.123 336.806C379.884 337.567 380.917 337.994 381.994 337.994Z" fill="#3B3B3B"/>
</g>
<g style="mix-blend-mode:color-burn">
<path d="M4.64033 385.125C5.44337 385.125 6.22834 384.887 6.89605 384.441C7.56375 383.995 8.08416 383.362 8.39147 382.621C8.69878 381.879 8.77921 381.064 8.62255 380.277C8.46588 379.49 8.07918 378.767 7.51134 378.2C6.9435 377.633 6.22002 377.246 5.4324 377.09C4.64479 376.933 3.82846 377.013 3.08655 377.321C2.34463 377.628 1.71047 378.147 1.26432 378.815C0.818175 379.482 0.580078 380.266 0.580078 381.068C0.580078 382.144 1.00778 383.176 1.76923 383.937C2.53068 384.697 3.56348 385.125 4.64033 385.125Z" fill="#3B3B3B"/>
</g>
<g style="mix-blend-mode:color-burn">
<path d="M51.8132 385.125C52.6163 385.125 53.4012 384.887 54.0689 384.441C54.7366 383.995 55.257 383.362 55.5643 382.621C55.8716 381.879 55.9521 381.064 55.7954 380.277C55.6387 379.49 55.252 378.767 54.6842 378.2C54.1164 377.633 53.3929 377.246 52.6053 377.09C51.8177 376.933 51.0013 377.013 50.2594 377.321C49.5175 377.628 48.8834 378.147 48.4373 378.815C47.9911 379.482 47.7529 380.266 47.7529 381.068C47.7529 382.144 48.1807 383.176 48.9422 383.937C49.7036 384.697 50.7364 385.125 51.8132 385.125Z" fill="#3B3B3B"/>
</g>
<g style="mix-blend-mode:color-burn">
<path d="M98.9871 385.125C99.7901 385.125 100.575 384.887 101.243 384.441C101.91 383.995 102.431 383.362 102.738 382.621C103.045 381.879 103.126 381.064 102.969 380.277C102.813 379.49 102.426 378.767 101.858 378.2C101.29 377.633 100.567 377.246 99.7791 377.09C98.9915 376.933 98.1751 377.013 97.4332 377.321C96.6913 377.628 96.0572 378.147 95.6111 378.815C95.1649 379.482 94.9268 380.266 94.9268 381.068C94.9268 382.144 95.3546 383.176 96.116 383.937C96.8774 384.697 97.9102 385.125 98.9871 385.125Z" fill="#3B3B3B"/>
</g>
<g style="mix-blend-mode:color-burn">
<path d="M146.129 385.125C146.933 385.131 147.721 384.898 148.393 384.456C149.065 384.014 149.59 383.383 149.902 382.642C150.214 381.901 150.299 381.085 150.146 380.296C149.993 379.507 149.609 378.781 149.042 378.211C148.475 377.64 147.752 377.251 146.964 377.092C146.175 376.933 145.357 377.011 144.613 377.318C143.87 377.624 143.234 378.144 142.786 378.811C142.339 379.479 142.1 380.265 142.1 381.068C142.1 382.139 142.523 383.166 143.278 383.926C144.033 384.686 145.057 385.117 146.129 385.125Z" fill="#3B3B3B"/>
</g>
<g style="mix-blend-mode:color-burn">
<path d="M193.302 385.125C194.106 385.131 194.894 384.898 195.566 384.456C196.238 384.014 196.763 383.383 197.075 382.642C197.387 381.901 197.472 381.085 197.319 380.296C197.166 379.507 196.781 378.781 196.215 378.211C195.648 377.64 194.925 377.251 194.136 377.092C193.348 376.933 192.53 377.011 191.786 377.318C191.043 377.624 190.407 378.144 189.959 378.811C189.511 379.479 189.272 380.265 189.272 381.068C189.272 382.139 189.696 383.166 190.451 383.926C191.206 384.686 192.23 385.117 193.302 385.125Z" fill="#3B3B3B"/>
</g>
<g style="mix-blend-mode:color-burn">
<path d="M240.475 385.125C241.278 385.125 242.063 384.887 242.731 384.441C243.399 383.995 243.919 383.362 244.226 382.621C244.534 381.879 244.614 381.064 244.458 380.277C244.301 379.49 243.914 378.767 243.346 378.2C242.778 377.633 242.055 377.246 241.267 377.09C240.48 376.933 239.663 377.013 238.922 377.321C238.18 377.628 237.545 378.147 237.099 378.815C236.653 379.482 236.415 380.266 236.415 381.068C236.415 382.144 236.843 383.176 237.604 383.937C238.366 384.697 239.398 385.125 240.475 385.125Z" fill="#3B3B3B"/>
</g>
<g style="mix-blend-mode:color-burn">
<path d="M287.617 385.125C288.42 385.125 289.205 384.887 289.873 384.441C290.54 383.995 291.061 383.362 291.368 382.621C291.676 381.879 291.756 381.064 291.599 380.277C291.443 379.49 291.056 378.767 290.488 378.2C289.92 377.633 289.197 377.246 288.409 377.09C287.621 376.933 286.805 377.013 286.063 377.321C285.321 377.628 284.687 378.147 284.241 378.815C283.795 379.482 283.557 380.266 283.557 381.068C283.557 382.144 283.984 383.176 284.746 383.937C285.507 384.697 286.54 385.125 287.617 385.125Z" fill="#3B3B3B"/>
</g>
<g style="mix-blend-mode:color-burn">
<path d="M334.821 385.125C335.624 385.125 336.409 384.887 337.077 384.441C337.744 383.995 338.265 383.362 338.572 382.621C338.879 381.879 338.96 381.064 338.803 380.277C338.647 379.49 338.26 378.767 337.692 378.2C337.124 377.633 336.401 377.246 335.613 377.09C334.825 376.933 334.009 377.013 333.267 377.321C332.525 377.628 331.891 378.147 331.445 378.815C330.999 379.482 330.761 380.266 330.761 381.068C330.761 382.144 331.188 383.176 331.95 383.937C332.711 384.697 333.744 385.125 334.821 385.125Z" fill="#3B3B3B"/>
</g>
<g style="mix-blend-mode:color-burn">
<path d="M381.994 385.125C382.797 385.125 383.582 384.887 384.25 384.441C384.917 383.995 385.438 383.362 385.745 382.621C386.052 381.879 386.133 381.064 385.976 380.277C385.819 379.49 385.433 378.767 384.865 378.2C384.297 377.633 383.574 377.246 382.786 377.09C381.998 376.933 381.182 377.013 380.44 377.321C379.698 377.628 379.064 378.147 378.618 378.815C378.172 379.482 377.934 380.266 377.934 381.068C377.934 382.144 378.361 383.176 379.123 383.937C379.884 384.697 380.917 385.125 381.994 385.125Z" fill="#3B3B3B"/>
</g>
</g>
</svg>
