<svg width="198" height="198" viewBox="0 0 198 198" fill="none" xmlns="http://www.w3.org/2000/svg">
<g style="mix-blend-mode:color-burn">
<g style="mix-blend-mode:color-burn">
<path d="M2.28657 4.2984C2.69729 4.2984 3.09878 4.17672 3.44028 3.94875C3.78178 3.72077 4.04794 3.39674 4.20511 3.01763C4.36229 2.63852 4.40341 2.22134 4.32329 1.81888C4.24316 1.41643 4.04538 1.04675 3.75496 0.756597C3.46454 0.466442 3.09452 0.268842 2.6917 0.188788C2.28888 0.108734 1.87134 0.149836 1.49189 0.306867C1.11244 0.463898 0.788113 0.729815 0.559932 1.071C0.331751 1.41219 0.209961 1.81334 0.209961 2.22368C0.209961 2.77393 0.428749 3.30163 0.81819 3.69071C1.20763 4.0798 1.73582 4.2984 2.28657 4.2984Z" fill="#3B3B3B"/>
</g>
<g style="mix-blend-mode:color-burn">
<path d="M26.3999 4.2984C27.5468 4.2984 28.4765 3.36951 28.4765 2.22366C28.4765 1.07781 27.5468 0.148926 26.3999 0.148926C25.253 0.148926 24.3232 1.07781 24.3232 2.22366C24.3232 3.36951 25.253 4.2984 26.3999 4.2984Z" fill="#3B3B3B"/>
</g>
<g style="mix-blend-mode:color-burn">
<path d="M50.5141 4.2984C51.661 4.2984 52.5907 3.36951 52.5907 2.22366C52.5907 1.07781 51.661 0.148926 50.5141 0.148926C49.3672 0.148926 48.4375 1.07781 48.4375 2.22366C48.4375 3.36951 49.3672 4.2984 50.5141 4.2984Z" fill="#3B3B3B"/>
</g>
<g style="mix-blend-mode:color-burn">
<path d="M74.6274 4.2984C75.7743 4.2984 76.704 3.36951 76.704 2.22366C76.704 1.07781 75.7743 0.148926 74.6274 0.148926C73.4805 0.148926 72.5508 1.07781 72.5508 2.22366C72.5508 3.36951 73.4805 4.2984 74.6274 4.2984Z" fill="#3B3B3B"/>
</g>
<g style="mix-blend-mode:color-burn">
<path d="M98.7097 4.29817C99.1217 4.30431 99.5262 4.18789 99.8717 3.96368C100.217 3.73948 100.488 3.41761 100.65 3.03909C100.812 2.66056 100.858 2.24246 100.781 1.83798C100.705 1.4335 100.509 1.06093 100.22 0.767664C99.9309 0.474402 99.561 0.273709 99.1573 0.191114C98.7537 0.108518 98.3346 0.147773 97.9533 0.303853C97.5721 0.459933 97.2459 0.725784 97.0163 1.06761C96.7867 1.40944 96.6641 1.8118 96.6641 2.22345C96.664 2.76838 96.8785 3.29145 97.2613 3.67966C97.6441 4.06787 98.1643 4.29004 98.7097 4.29817Z" fill="#3B3B3B"/>
</g>
<g style="mix-blend-mode:color-burn">
<path d="M122.823 4.2984C123.97 4.2984 124.899 3.36951 124.899 2.22366C124.899 1.07781 123.97 0.148926 122.823 0.148926C121.676 0.148926 120.746 1.07781 120.746 2.22366C120.746 3.36951 121.676 4.2984 122.823 4.2984Z" fill="#3B3B3B"/>
</g>
<g style="mix-blend-mode:color-burn">
<path d="M146.937 4.2984C148.084 4.2984 149.014 3.36951 149.014 2.22366C149.014 1.07781 148.084 0.148926 146.937 0.148926C145.79 0.148926 144.86 1.07781 144.86 2.22366C144.86 3.36951 145.79 4.2984 146.937 4.2984Z" fill="#3B3B3B"/>
</g>
<g style="mix-blend-mode:color-burn">
<path d="M171.05 4.2984C172.197 4.2984 173.127 3.36951 173.127 2.22366C173.127 1.07781 172.197 0.148926 171.05 0.148926C169.903 0.148926 168.974 1.07781 168.974 2.22366C168.974 3.36951 169.903 4.2984 171.05 4.2984Z" fill="#3B3B3B"/>
</g>
<g style="mix-blend-mode:color-burn">
<path d="M195.164 4.2984C195.574 4.2984 195.976 4.17672 196.317 3.94875C196.659 3.72077 196.925 3.39674 197.082 3.01763C197.239 2.63852 197.28 2.22134 197.2 1.81888C197.12 1.41643 196.922 1.04675 196.632 0.756597C196.341 0.466442 195.971 0.268842 195.569 0.188788C195.166 0.108734 194.748 0.149836 194.369 0.306867C193.989 0.463898 193.665 0.729815 193.437 1.071C193.209 1.41219 193.087 1.81334 193.087 2.22368C193.087 2.77393 193.306 3.30163 193.695 3.69071C194.085 4.0798 194.613 4.2984 195.164 4.2984Z" fill="#3B3B3B"/>
</g>
<g style="mix-blend-mode:color-burn">
<path d="M2.28657 28.3898C2.69729 28.3898 3.09878 28.2681 3.44028 28.0401C3.78178 27.8121 4.04794 27.4881 4.20511 27.109C4.36229 26.7299 4.40341 26.3127 4.32329 25.9103C4.24316 25.5078 4.04538 25.1381 3.75496 24.8479C3.46454 24.5578 3.09452 24.3602 2.6917 24.2801C2.28888 24.2 1.87134 24.2411 1.49189 24.3982C1.11244 24.5552 0.788113 24.8211 0.559932 25.1623C0.331751 25.5035 0.209961 25.9047 0.209961 26.315C0.209961 26.8653 0.428749 27.393 0.81819 27.7821C1.20763 28.1712 1.73582 28.3898 2.28657 28.3898Z" fill="#3B3B3B"/>
</g>
<g style="mix-blend-mode:color-burn">
<path d="M26.3999 28.3902C27.5468 28.3902 28.4765 27.4613 28.4765 26.3155C28.4765 25.1696 27.5468 24.2407 26.3999 24.2407C25.253 24.2407 24.3232 25.1696 24.3232 26.3155C24.3232 27.4613 25.253 28.3902 26.3999 28.3902Z" fill="#3B3B3B"/>
</g>
<g style="mix-blend-mode:color-burn">
<path d="M50.5141 28.3902C51.661 28.3902 52.5907 27.4613 52.5907 26.3155C52.5907 25.1696 51.661 24.2407 50.5141 24.2407C49.3672 24.2407 48.4375 25.1696 48.4375 26.3155C48.4375 27.4613 49.3672 28.3902 50.5141 28.3902Z" fill="#3B3B3B"/>
</g>
<g style="mix-blend-mode:color-burn">
<path d="M74.6274 28.3902C75.7743 28.3902 76.704 27.4613 76.704 26.3155C76.704 25.1696 75.7743 24.2407 74.6274 24.2407C73.4805 24.2407 72.5508 25.1696 72.5508 26.3155C72.5508 27.4613 73.4805 28.3902 74.6274 28.3902Z" fill="#3B3B3B"/>
</g>
<g style="mix-blend-mode:color-burn">
<path d="M98.7097 28.3899C99.1217 28.396 99.5262 28.2796 99.8717 28.0554C100.217 27.8312 100.488 27.5094 100.65 27.1308C100.812 26.7523 100.858 26.3342 100.781 25.9297C100.705 25.5253 100.509 25.1527 100.22 24.8595C99.9309 24.5662 99.561 24.3655 99.1573 24.2829C98.7537 24.2003 98.3346 24.2395 97.9533 24.3956C97.5721 24.5517 97.2459 24.8175 97.0163 25.1594C96.7867 25.5012 96.6641 25.9036 96.6641 26.3152C96.664 26.8601 96.8785 27.3832 97.2613 27.7714C97.6441 28.1596 98.1643 28.3818 98.7097 28.3899Z" fill="#3B3B3B"/>
</g>
<g style="mix-blend-mode:color-burn">
<path d="M122.823 28.3902C123.97 28.3902 124.899 27.4613 124.899 26.3155C124.899 25.1696 123.97 24.2407 122.823 24.2407C121.676 24.2407 120.746 25.1696 120.746 26.3155C120.746 27.4613 121.676 28.3902 122.823 28.3902Z" fill="#3B3B3B"/>
</g>
<g style="mix-blend-mode:color-burn">
<path d="M146.937 28.3902C148.084 28.3902 149.014 27.4613 149.014 26.3155C149.014 25.1696 148.084 24.2407 146.937 24.2407C145.79 24.2407 144.86 25.1696 144.86 26.3155C144.86 27.4613 145.79 28.3902 146.937 28.3902Z" fill="#3B3B3B"/>
</g>
<g style="mix-blend-mode:color-burn">
<path d="M171.05 28.3902C172.197 28.3902 173.127 27.4613 173.127 26.3155C173.127 25.1696 172.197 24.2407 171.05 24.2407C169.903 24.2407 168.974 25.1696 168.974 26.3155C168.974 27.4613 169.903 28.3902 171.05 28.3902Z" fill="#3B3B3B"/>
</g>
<g style="mix-blend-mode:color-burn">
<path d="M195.164 28.3898C195.574 28.3898 195.976 28.2681 196.317 28.0401C196.659 27.8121 196.925 27.4881 197.082 27.109C197.239 26.7299 197.28 26.3127 197.2 25.9103C197.12 25.5078 196.922 25.1381 196.632 24.8479C196.341 24.5578 195.971 24.3602 195.569 24.2801C195.166 24.2 194.748 24.2411 194.369 24.3982C193.989 24.5552 193.665 24.8211 193.437 25.1623C193.209 25.5035 193.087 25.9047 193.087 26.315C193.087 26.8653 193.306 27.393 193.695 27.7821C194.085 28.1712 194.613 28.3898 195.164 28.3898Z" fill="#3B3B3B"/>
</g>
<g style="mix-blend-mode:color-burn">
<path d="M2.28657 52.4815C2.69729 52.4815 3.09878 52.3598 3.44028 52.1319C3.78178 51.9039 4.04794 51.5798 4.20511 51.2007C4.36229 50.8216 4.40341 50.4045 4.32329 50.002C4.24316 49.5996 4.04538 49.2299 3.75496 48.9397C3.46454 48.6495 3.09452 48.4519 2.6917 48.3719C2.28888 48.2918 1.87134 48.3329 1.49189 48.49C1.11244 48.647 0.788113 48.9129 0.559932 49.2541C0.331751 49.5953 0.209961 49.9964 0.209961 50.4068C0.209961 50.957 0.428749 51.4847 0.81819 51.8738C1.20763 52.2629 1.73582 52.4815 2.28657 52.4815Z" fill="#3B3B3B"/>
</g>
<g style="mix-blend-mode:color-burn">
<path d="M26.3999 52.4815C26.8106 52.4815 27.2121 52.3598 27.5536 52.1319C27.8951 51.9039 28.1612 51.5798 28.3184 51.2007C28.4756 50.8216 28.5167 50.4045 28.4366 50.002C28.3565 49.5996 28.1587 49.2299 27.8683 48.9397C27.5779 48.6495 27.2078 48.4519 26.805 48.3719C26.4022 48.2918 25.9846 48.3329 25.6052 48.49C25.2257 48.647 24.9014 48.9129 24.6732 49.2541C24.445 49.5953 24.3232 49.9964 24.3232 50.4068C24.3232 50.957 24.542 51.4847 24.9315 51.8738C25.3209 52.2629 25.8491 52.4815 26.3999 52.4815Z" fill="#3B3B3B"/>
</g>
<g style="mix-blend-mode:color-burn">
<path d="M50.5141 52.4815C50.9248 52.4815 51.3263 52.3598 51.6678 52.1319C52.0093 51.9039 52.2755 51.5798 52.4326 51.2007C52.5898 50.8216 52.6309 50.4045 52.5508 50.002C52.4707 49.5996 52.2729 49.2299 51.9825 48.9397C51.6921 48.6495 51.322 48.4519 50.9192 48.3719C50.5164 48.2918 50.0989 48.3329 49.7194 48.49C49.34 48.647 49.0156 48.9129 48.7875 49.2541C48.5593 49.5953 48.4375 49.9964 48.4375 50.4068C48.4375 50.957 48.6563 51.4847 49.0457 51.8738C49.4352 52.2629 49.9633 52.4815 50.5141 52.4815Z" fill="#3B3B3B"/>
</g>
<g style="mix-blend-mode:color-burn">
<path d="M74.6274 52.4814C75.1781 52.4814 75.7063 52.2628 76.0958 51.8738C76.4852 51.4847 76.704 50.957 76.704 50.4067C76.704 49.8565 76.4852 49.3288 76.0958 48.9397C75.7063 48.5506 75.1781 48.332 74.6274 48.332C74.0766 48.332 73.5484 48.5506 73.159 48.9397C72.7696 49.3288 72.5508 49.8565 72.5508 50.4067C72.5508 50.957 72.7696 51.4847 73.159 51.8738C73.5484 52.2628 74.0766 52.4814 74.6274 52.4814Z" fill="#3B3B3B"/>
</g>
<g style="mix-blend-mode:color-burn">
<path d="M98.7097 52.4817C99.1217 52.4878 99.5262 52.3714 99.8717 52.1472C100.217 51.923 100.488 51.6011 100.65 51.2226C100.812 50.8441 100.858 50.426 100.781 50.0215C100.705 49.6171 100.509 49.2445 100.22 48.9513C99.9309 48.658 99.561 48.4573 99.1573 48.3747C98.7537 48.2921 98.3346 48.3313 97.9533 48.4874C97.5721 48.6435 97.2459 48.9094 97.0163 49.2512C96.7867 49.593 96.6641 49.9953 96.6641 50.407C96.664 50.9519 96.8785 51.475 97.2613 51.8632C97.6441 52.2514 98.1643 52.4736 98.7097 52.4817Z" fill="#3B3B3B"/>
</g>
<g style="mix-blend-mode:color-burn">
<path d="M122.699 52.4814C123.249 52.4814 123.778 52.2628 124.167 51.8738C124.556 51.4847 124.775 50.957 124.775 50.4067C124.775 49.8565 124.556 49.3288 124.167 48.9397C123.778 48.5506 123.249 48.332 122.699 48.332C122.148 48.332 121.62 48.5506 121.23 48.9397C120.841 49.3288 120.622 49.8565 120.622 50.4067C120.622 50.957 120.841 51.4847 121.23 51.8738C121.62 52.2628 122.148 52.4814 122.699 52.4814Z" fill="#3B3B3B"/>
</g>
<g style="mix-blend-mode:color-burn">
<path d="M146.937 52.4815C147.348 52.4815 147.749 52.3598 148.091 52.1319C148.432 51.9039 148.698 51.5798 148.855 51.2007C149.013 50.8216 149.054 50.4045 148.974 50.002C148.894 49.5996 148.696 49.2299 148.405 48.9397C148.115 48.6495 147.745 48.4519 147.342 48.3719C146.939 48.2918 146.522 48.3329 146.142 48.49C145.763 48.647 145.439 48.9129 145.21 49.2541C144.982 49.5953 144.86 49.9964 144.86 50.4068C144.86 50.957 145.079 51.4847 145.469 51.8738C145.858 52.2629 146.386 52.4815 146.937 52.4815Z" fill="#3B3B3B"/>
</g>
<g style="mix-blend-mode:color-burn">
<path d="M171.05 52.4815C171.461 52.4815 171.862 52.3598 172.204 52.1319C172.545 51.9039 172.812 51.5798 172.969 51.2007C173.126 50.8216 173.167 50.4045 173.087 50.002C173.007 49.5996 172.809 49.2299 172.519 48.9397C172.228 48.6495 171.858 48.4519 171.455 48.3719C171.053 48.2918 170.635 48.3329 170.256 48.49C169.876 48.647 169.552 48.9129 169.324 49.2541C169.095 49.5953 168.974 49.9964 168.974 50.4068C168.974 50.957 169.192 51.4847 169.582 51.8738C169.971 52.2629 170.499 52.4815 171.05 52.4815Z" fill="#3B3B3B"/>
</g>
<g style="mix-blend-mode:color-burn">
<path d="M195.164 52.4815C195.574 52.4815 195.976 52.3598 196.317 52.1319C196.659 51.9039 196.925 51.5798 197.082 51.2007C197.239 50.8216 197.28 50.4045 197.2 50.002C197.12 49.5996 196.922 49.2299 196.632 48.9397C196.341 48.6495 195.971 48.4519 195.569 48.3719C195.166 48.2918 194.748 48.3329 194.369 48.49C193.989 48.647 193.665 48.9129 193.437 49.2541C193.209 49.5953 193.087 49.9964 193.087 50.4068C193.087 50.957 193.306 51.4847 193.695 51.8738C194.085 52.2629 194.613 52.4815 195.164 52.4815Z" fill="#3B3B3B"/>
</g>
<g style="mix-blend-mode:color-burn">
<path d="M2.28657 76.5732C2.69729 76.5732 3.09878 76.4516 3.44028 76.2236C3.78178 75.9956 4.04794 75.6716 4.20511 75.2925C4.36229 74.9134 4.40341 74.4962 4.32329 74.0938C4.24316 73.6913 4.04538 73.3217 3.75496 73.0315C3.46454 72.7414 3.09452 72.5438 2.6917 72.4637C2.28888 72.3836 1.87134 72.4247 1.49189 72.5817C1.11244 72.7388 0.788113 73.0047 0.559932 73.3459C0.331751 73.687 0.209961 74.0882 0.209961 74.4985C0.209961 75.0488 0.428749 75.5765 0.81819 75.9656C1.20763 76.3546 1.73582 76.5732 2.28657 76.5732Z" fill="#3B3B3B"/>
</g>
<g style="mix-blend-mode:color-burn">
<path d="M26.3999 76.5733C27.5468 76.5733 28.4765 75.6444 28.4765 74.4986C28.4765 73.3527 27.5468 72.4238 26.3999 72.4238C25.253 72.4238 24.3232 73.3527 24.3232 74.4986C24.3232 75.6444 25.253 76.5733 26.3999 76.5733Z" fill="#3B3B3B"/>
</g>
<g style="mix-blend-mode:color-burn">
<path d="M50.5141 76.5733C51.661 76.5733 52.5907 75.6444 52.5907 74.4986C52.5907 73.3527 51.661 72.4238 50.5141 72.4238C49.3672 72.4238 48.4375 73.3527 48.4375 74.4986C48.4375 75.6444 49.3672 76.5733 50.5141 76.5733Z" fill="#3B3B3B"/>
</g>
<g style="mix-blend-mode:color-burn">
<path d="M74.6274 76.5733C75.7743 76.5733 76.704 75.6444 76.704 74.4986C76.704 73.3527 75.7743 72.4238 74.6274 72.4238C73.4805 72.4238 72.5508 73.3527 72.5508 74.4986C72.5508 75.6444 73.4805 76.5733 74.6274 76.5733Z" fill="#3B3B3B"/>
</g>
<g style="mix-blend-mode:color-burn">
<path d="M98.7097 76.573C99.1217 76.5792 99.5262 76.4627 99.8717 76.2385C100.217 76.0143 100.488 75.6925 100.65 75.3139C100.812 74.9354 100.858 74.5174 100.781 74.1129C100.705 73.7084 100.509 73.3358 100.22 73.0426C99.9309 72.7493 99.561 72.5486 99.1573 72.466C98.7537 72.3834 98.3346 72.4226 97.9533 72.5787C97.5721 72.7348 97.2459 73.0007 97.0163 73.3425C96.7867 73.6843 96.6641 74.0867 96.6641 74.4983C96.664 75.0432 96.8785 75.5663 97.2613 75.9545C97.6441 76.3427 98.1643 76.5649 98.7097 76.573Z" fill="#3B3B3B"/>
</g>
<g style="mix-blend-mode:color-burn">
<path d="M122.823 76.5733C123.97 76.5733 124.899 75.6444 124.899 74.4986C124.899 73.3527 123.97 72.4238 122.823 72.4238C121.676 72.4238 120.746 73.3527 120.746 74.4986C120.746 75.6444 121.676 76.5733 122.823 76.5733Z" fill="#3B3B3B"/>
</g>
<g style="mix-blend-mode:color-burn">
<path d="M146.937 76.5733C148.084 76.5733 149.014 75.6444 149.014 74.4986C149.014 73.3527 148.084 72.4238 146.937 72.4238C145.79 72.4238 144.86 73.3527 144.86 74.4986C144.86 75.6444 145.79 76.5733 146.937 76.5733Z" fill="#3B3B3B"/>
</g>
<g style="mix-blend-mode:color-burn">
<path d="M171.05 76.5733C172.197 76.5733 173.127 75.6444 173.127 74.4986C173.127 73.3527 172.197 72.4238 171.05 72.4238C169.903 72.4238 168.974 73.3527 168.974 74.4986C168.974 75.6444 169.903 76.5733 171.05 76.5733Z" fill="#3B3B3B"/>
</g>
<g style="mix-blend-mode:color-burn">
<path d="M195.164 76.5732C195.574 76.5732 195.976 76.4516 196.317 76.2236C196.659 75.9956 196.925 75.6716 197.082 75.2925C197.239 74.9134 197.28 74.4962 197.2 74.0938C197.12 73.6913 196.922 73.3217 196.632 73.0315C196.341 72.7414 195.971 72.5438 195.569 72.4637C195.166 72.3836 194.748 72.4247 194.369 72.5817C193.989 72.7388 193.665 73.0047 193.437 73.3459C193.209 73.687 193.087 74.0882 193.087 74.4985C193.087 75.0488 193.306 75.5765 193.695 75.9656C194.085 76.3546 194.613 76.5732 195.164 76.5732Z" fill="#3B3B3B"/>
</g>
<g style="mix-blend-mode:color-burn">
<path d="M2.28657 100.665C2.69729 100.665 3.09878 100.543 3.44028 100.315C3.78178 100.087 4.04794 99.7629 4.20511 99.3838C4.36229 99.0047 4.40341 98.5876 4.32329 98.1851C4.24316 97.7826 4.04538 97.413 3.75496 97.1228C3.46454 96.8327 3.09452 96.6351 2.6917 96.555C2.28888 96.475 1.87134 96.516 1.49189 96.673C1.11244 96.8301 0.788113 97.096 0.559932 97.4372C0.331751 97.7784 0.209961 98.1795 0.209961 98.5898C0.209961 99.1401 0.428749 99.6678 0.81819 100.057C1.20763 100.446 1.73582 100.665 2.28657 100.665Z" fill="#3B3B3B"/>
</g>
<g style="mix-blend-mode:color-burn">
<path d="M26.3999 100.665C27.5468 100.665 28.4765 99.7357 28.4765 98.5899C28.4765 97.444 27.5468 96.5151 26.3999 96.5151C25.253 96.5151 24.3232 97.444 24.3232 98.5899C24.3232 99.7357 25.253 100.665 26.3999 100.665Z" fill="#3B3B3B"/>
</g>
<g style="mix-blend-mode:color-burn">
<path d="M50.5141 100.665C51.661 100.665 52.5907 99.7357 52.5907 98.5899C52.5907 97.444 51.661 96.5151 50.5141 96.5151C49.3672 96.5151 48.4375 97.444 48.4375 98.5899C48.4375 99.7357 49.3672 100.665 50.5141 100.665Z" fill="#3B3B3B"/>
</g>
<g style="mix-blend-mode:color-burn">
<path d="M74.6274 100.665C75.7743 100.665 76.704 99.7357 76.704 98.5899C76.704 97.444 75.7743 96.5151 74.6274 96.5151C73.4805 96.5151 72.5508 97.444 72.5508 98.5899C72.5508 99.7357 73.4805 100.665 74.6274 100.665Z" fill="#3B3B3B"/>
</g>
<g style="mix-blend-mode:color-burn">
<path d="M98.7097 100.665C99.1217 100.671 99.5262 100.555 99.8717 100.33C100.217 100.106 100.488 99.7843 100.65 99.4058C100.812 99.0272 100.858 98.6092 100.781 98.2047C100.705 97.8002 100.509 97.4276 100.22 97.1344C99.9309 96.8411 99.561 96.6404 99.1573 96.5578C98.7537 96.4752 98.3346 96.5144 97.9533 96.6705C97.5721 96.8266 97.2459 97.0925 97.0163 97.4343C96.7867 97.7762 96.6641 98.1785 96.6641 98.5901C96.664 99.1351 96.8785 99.6581 97.2613 100.046C97.6441 100.435 98.1643 100.657 98.7097 100.665Z" fill="#3B3B3B"/>
</g>
<g style="mix-blend-mode:color-burn">
<path d="M122.823 100.665C123.97 100.665 124.899 99.7357 124.899 98.5899C124.899 97.444 123.97 96.5151 122.823 96.5151C121.676 96.5151 120.746 97.444 120.746 98.5899C120.746 99.7357 121.676 100.665 122.823 100.665Z" fill="#3B3B3B"/>
</g>
<g style="mix-blend-mode:color-burn">
<path d="M146.937 100.665C148.084 100.665 149.014 99.7357 149.014 98.5899C149.014 97.444 148.084 96.5151 146.937 96.5151C145.79 96.5151 144.86 97.444 144.86 98.5899C144.86 99.7357 145.79 100.665 146.937 100.665Z" fill="#3B3B3B"/>
</g>
<g style="mix-blend-mode:color-burn">
<path d="M171.05 100.665C172.197 100.665 173.127 99.7357 173.127 98.5899C173.127 97.444 172.197 96.5151 171.05 96.5151C169.903 96.5151 168.974 97.444 168.974 98.5899C168.974 99.7357 169.903 100.665 171.05 100.665Z" fill="#3B3B3B"/>
</g>
<g style="mix-blend-mode:color-burn">
<path d="M195.164 100.665C195.574 100.665 195.976 100.543 196.317 100.315C196.659 100.087 196.925 99.7629 197.082 99.3838C197.239 99.0047 197.28 98.5876 197.2 98.1851C197.12 97.7826 196.922 97.413 196.632 97.1228C196.341 96.8327 195.971 96.6351 195.569 96.555C195.166 96.475 194.748 96.516 194.369 96.673C193.989 96.8301 193.665 97.096 193.437 97.4372C193.209 97.7784 193.087 98.1795 193.087 98.5898C193.087 99.1401 193.306 99.6678 193.695 100.057C194.085 100.446 194.613 100.665 195.164 100.665Z" fill="#3B3B3B"/>
</g>
<g style="mix-blend-mode:color-burn">
<path d="M2.28657 124.756C2.69729 124.756 3.09878 124.635 3.44028 124.407C3.78178 124.179 4.04794 123.855 4.20511 123.476C4.36229 123.096 4.40341 122.679 4.32329 122.277C4.24316 121.874 4.04538 121.505 3.75496 121.215C3.46454 120.924 3.09452 120.727 2.6917 120.647C2.28888 120.567 1.87134 120.608 1.49189 120.765C1.11244 120.922 0.788113 121.188 0.559932 121.529C0.331751 121.87 0.209961 122.271 0.209961 122.682C0.209961 123.232 0.428749 123.76 0.81819 124.149C1.20763 124.538 1.73582 124.756 2.28657 124.756Z" fill="#3B3B3B"/>
</g>
<g style="mix-blend-mode:color-burn">
<path d="M26.3999 124.756C27.5468 124.756 28.4765 123.827 28.4765 122.682C28.4765 121.536 27.5468 120.607 26.3999 120.607C25.253 120.607 24.3232 121.536 24.3232 122.682C24.3232 123.827 25.253 124.756 26.3999 124.756Z" fill="#3B3B3B"/>
</g>
<g style="mix-blend-mode:color-burn">
<path d="M50.5141 124.756C51.661 124.756 52.5907 123.827 52.5907 122.682C52.5907 121.536 51.661 120.607 50.5141 120.607C49.3672 120.607 48.4375 121.536 48.4375 122.682C48.4375 123.827 49.3672 124.756 50.5141 124.756Z" fill="#3B3B3B"/>
</g>
<g style="mix-blend-mode:color-burn">
<path d="M74.6274 124.756C75.7743 124.756 76.704 123.827 76.704 122.682C76.704 121.536 75.7743 120.607 74.6274 120.607C73.4805 120.607 72.5508 121.536 72.5508 122.682C72.5508 123.827 73.4805 124.756 74.6274 124.756Z" fill="#3B3B3B"/>
</g>
<g style="mix-blend-mode:color-burn">
<path d="M98.7097 124.756C99.1217 124.762 99.5262 124.646 99.8717 124.422C100.217 124.197 100.488 123.876 100.65 123.497C100.812 123.119 100.858 122.7 100.781 122.296C100.705 121.892 100.509 121.519 100.22 121.226C99.9309 120.932 99.561 120.732 99.1573 120.649C98.7537 120.567 98.3346 120.606 97.9533 120.762C97.5721 120.918 97.2459 121.184 97.0163 121.526C96.7867 121.867 96.6641 122.27 96.6641 122.681C96.664 123.226 96.8785 123.749 97.2613 124.138C97.6441 124.526 98.1643 124.748 98.7097 124.756Z" fill="#3B3B3B"/>
</g>
<g style="mix-blend-mode:color-burn">
<path d="M122.823 124.756C123.97 124.756 124.899 123.827 124.899 122.682C124.899 121.536 123.97 120.607 122.823 120.607C121.676 120.607 120.746 121.536 120.746 122.682C120.746 123.827 121.676 124.756 122.823 124.756Z" fill="#3B3B3B"/>
</g>
<g style="mix-blend-mode:color-burn">
<path d="M146.937 124.756C148.084 124.756 149.014 123.827 149.014 122.682C149.014 121.536 148.084 120.607 146.937 120.607C145.79 120.607 144.86 121.536 144.86 122.682C144.86 123.827 145.79 124.756 146.937 124.756Z" fill="#3B3B3B"/>
</g>
<g style="mix-blend-mode:color-burn">
<path d="M171.05 124.756C172.197 124.756 173.127 123.827 173.127 122.682C173.127 121.536 172.197 120.607 171.05 120.607C169.903 120.607 168.974 121.536 168.974 122.682C168.974 123.827 169.903 124.756 171.05 124.756Z" fill="#3B3B3B"/>
</g>
<g style="mix-blend-mode:color-burn">
<path d="M195.164 124.756C195.574 124.756 195.976 124.635 196.317 124.407C196.659 124.179 196.925 123.855 197.082 123.476C197.239 123.096 197.28 122.679 197.2 122.277C197.12 121.874 196.922 121.505 196.632 121.215C196.341 120.924 195.971 120.727 195.569 120.647C195.166 120.567 194.748 120.608 194.369 120.765C193.989 120.922 193.665 121.188 193.437 121.529C193.209 121.87 193.087 122.271 193.087 122.682C193.087 123.232 193.306 123.76 193.695 124.149C194.085 124.538 194.613 124.756 195.164 124.756Z" fill="#3B3B3B"/>
</g>
<g style="mix-blend-mode:color-burn">
<path d="M2.28657 148.848C2.69729 148.848 3.09878 148.726 3.44028 148.498C3.78178 148.271 4.04794 147.946 4.20511 147.567C4.36229 147.188 4.40341 146.771 4.32329 146.369C4.24316 145.966 4.04538 145.597 3.75496 145.306C3.46454 145.016 3.09452 144.819 2.6917 144.739C2.28888 144.659 1.87134 144.7 1.49189 144.857C1.11244 145.014 0.788113 145.28 0.559932 145.621C0.331751 145.962 0.209961 146.363 0.209961 146.773C0.209961 147.324 0.428749 147.851 0.81819 148.241C1.20763 148.63 1.73582 148.848 2.28657 148.848Z" fill="#3B3B3B"/>
</g>
<g style="mix-blend-mode:color-burn">
<path d="M26.3999 148.848C26.8106 148.848 27.2121 148.726 27.5536 148.498C27.8951 148.271 28.1612 147.946 28.3184 147.567C28.4756 147.188 28.5167 146.771 28.4366 146.369C28.3565 145.966 28.1587 145.597 27.8683 145.306C27.5779 145.016 27.2078 144.819 26.805 144.739C26.4022 144.659 25.9846 144.7 25.6052 144.857C25.2257 145.014 24.9014 145.28 24.6732 145.621C24.445 145.962 24.3232 146.363 24.3232 146.773C24.3232 147.324 24.542 147.851 24.9315 148.241C25.3209 148.63 25.8491 148.848 26.3999 148.848Z" fill="#3B3B3B"/>
</g>
<g style="mix-blend-mode:color-burn">
<path d="M50.5137 148.848C50.9245 148.822 51.3185 148.675 51.6455 148.426C51.9725 148.176 52.2179 147.835 52.3504 147.445C52.4829 147.056 52.4965 146.636 52.3897 146.239C52.2828 145.842 52.0602 145.485 51.7502 145.215C51.4401 144.944 51.0566 144.772 50.6483 144.719C50.24 144.667 49.8253 144.737 49.457 144.921C49.0887 145.105 48.7833 145.393 48.5796 145.751C48.376 146.108 48.2832 146.518 48.3131 146.928C48.3529 147.473 48.6063 147.981 49.0183 148.34C49.4304 148.7 49.9677 148.882 50.5137 148.848Z" fill="#3B3B3B"/>
</g>
<g style="mix-blend-mode:color-burn">
<path d="M74.6274 148.848C75.1781 148.848 75.7063 148.63 76.0958 148.241C76.4852 147.851 76.704 147.324 76.704 146.773C76.704 146.223 76.4852 145.695 76.0958 145.306C75.7063 144.917 75.1781 144.699 74.6274 144.699C74.0766 144.699 73.5484 144.917 73.159 145.306C72.7696 145.695 72.5508 146.223 72.5508 146.773C72.5508 147.324 72.7696 147.851 73.159 148.241C73.5484 148.63 74.0766 148.848 74.6274 148.848Z" fill="#3B3B3B"/>
</g>
<g style="mix-blend-mode:color-burn">
<path d="M98.7097 148.848C99.1217 148.854 99.5262 148.738 99.8717 148.513C100.217 148.289 100.488 147.967 100.65 147.589C100.812 147.21 100.858 146.792 100.781 146.388C100.705 145.983 100.509 145.611 100.22 145.317C99.9309 145.024 99.561 144.824 99.1573 144.741C98.7537 144.658 98.3346 144.698 97.9533 144.854C97.5721 145.01 97.2459 145.276 97.0163 145.617C96.7867 145.959 96.6641 146.362 96.6641 146.773C96.664 147.318 96.8785 147.841 97.2613 148.229C97.6441 148.618 98.1643 148.84 98.7097 148.848Z" fill="#3B3B3B"/>
</g>
<g style="mix-blend-mode:color-burn">
<path d="M122.699 148.848C123.249 148.848 123.778 148.63 124.167 148.241C124.556 147.851 124.775 147.324 124.775 146.773C124.775 146.223 124.556 145.695 124.167 145.306C123.778 144.917 123.249 144.699 122.699 144.699C122.148 144.699 121.62 144.917 121.23 145.306C120.841 145.695 120.622 146.223 120.622 146.773C120.622 147.324 120.841 147.851 121.23 148.241C121.62 148.63 122.148 148.848 122.699 148.848Z" fill="#3B3B3B"/>
</g>
<g style="mix-blend-mode:color-burn">
<path d="M146.937 148.848C147.348 148.848 147.749 148.726 148.091 148.498C148.432 148.271 148.698 147.946 148.855 147.567C149.013 147.188 149.054 146.771 148.974 146.369C148.894 145.966 148.696 145.597 148.405 145.306C148.115 145.016 147.745 144.819 147.342 144.739C146.939 144.659 146.522 144.7 146.142 144.857C145.763 145.014 145.439 145.28 145.21 145.621C144.982 145.962 144.86 146.363 144.86 146.773C144.86 147.324 145.079 147.851 145.469 148.241C145.858 148.63 146.386 148.848 146.937 148.848Z" fill="#3B3B3B"/>
</g>
<g style="mix-blend-mode:color-burn">
<path d="M171.05 148.848C171.461 148.848 171.862 148.726 172.204 148.498C172.545 148.271 172.812 147.946 172.969 147.567C173.126 147.188 173.167 146.771 173.087 146.369C173.007 145.966 172.809 145.597 172.519 145.306C172.228 145.016 171.858 144.819 171.455 144.739C171.053 144.659 170.635 144.7 170.256 144.857C169.876 145.014 169.552 145.28 169.324 145.621C169.095 145.962 168.974 146.363 168.974 146.773C168.974 147.324 169.192 147.851 169.582 148.241C169.971 148.63 170.499 148.848 171.05 148.848Z" fill="#3B3B3B"/>
</g>
<g style="mix-blend-mode:color-burn">
<path d="M195.164 148.848C195.574 148.848 195.976 148.726 196.317 148.498C196.659 148.271 196.925 147.946 197.082 147.567C197.239 147.188 197.28 146.771 197.2 146.369C197.12 145.966 196.922 145.597 196.632 145.306C196.341 145.016 195.971 144.819 195.569 144.739C195.166 144.659 194.748 144.7 194.369 144.857C193.989 145.014 193.665 145.28 193.437 145.621C193.209 145.962 193.087 146.363 193.087 146.773C193.087 147.324 193.306 147.851 193.695 148.241C194.085 148.63 194.613 148.848 195.164 148.848Z" fill="#3B3B3B"/>
</g>
<g style="mix-blend-mode:color-burn">
<path d="M2.28658 172.909C2.55781 172.913 2.82715 172.863 3.07892 172.762C3.3307 172.661 3.55988 172.511 3.75313 172.321C3.94638 172.131 4.09983 171.904 4.20457 171.654C4.3093 171.404 4.36322 171.136 4.36319 170.865C4.36319 170.592 4.30948 170.323 4.20512 170.071C4.10076 169.819 3.9478 169.59 3.75497 169.398C3.56213 169.205 3.33321 169.052 3.08126 168.948C2.82932 168.844 2.55928 168.79 2.28658 168.79C2.01387 168.79 1.74384 168.844 1.49189 168.948C1.23995 169.052 1.01102 169.205 0.81819 169.398C0.625359 169.59 0.472393 169.819 0.368033 170.071C0.263674 170.323 0.209961 170.592 0.209961 170.865C0.20993 171.136 0.263854 171.404 0.368589 171.654C0.473324 171.904 0.62678 172.131 0.820029 172.321C1.01328 172.511 1.24246 172.661 1.49423 172.762C1.74601 172.863 2.01534 172.913 2.28658 172.909Z" fill="#3B3B3B"/>
</g>
<g style="mix-blend-mode:color-burn">
<path d="M26.3999 172.909C26.6711 172.913 26.9404 172.863 27.1922 172.762C27.444 172.661 27.6732 172.511 27.8664 172.321C28.0597 172.131 28.2131 171.904 28.3179 171.654C28.4226 171.404 28.4765 171.136 28.4765 170.865C28.4765 170.315 28.2577 169.787 27.8683 169.398C27.4788 169.009 26.9506 168.79 26.3999 168.79C25.8491 168.79 25.3209 169.009 24.9315 169.398C24.542 169.787 24.3232 170.315 24.3232 170.865C24.3232 171.136 24.3771 171.404 24.4819 171.654C24.5866 171.904 24.7401 172.131 24.9333 172.321C25.1266 172.511 25.3558 172.661 25.6075 172.762C25.8593 172.863 26.1286 172.913 26.3999 172.909Z" fill="#3B3B3B"/>
</g>
<g style="mix-blend-mode:color-burn">
<path d="M50.5141 172.909C50.7853 172.913 51.0547 172.863 51.3064 172.762C51.5582 172.661 51.7874 172.511 51.9806 172.321C52.1739 172.131 52.3273 171.904 52.4321 171.654C52.5368 171.404 52.5907 171.136 52.5907 170.865C52.5907 170.315 52.3719 169.787 51.9825 169.398C51.593 169.009 51.0648 168.79 50.5141 168.79C49.9633 168.79 49.4352 169.009 49.0457 169.398C48.6563 169.787 48.4375 170.315 48.4375 170.865C48.4375 171.136 48.4914 171.404 48.5961 171.654C48.7009 171.904 48.8543 172.131 49.0476 172.321C49.2408 172.511 49.47 172.661 49.7218 172.762C49.9735 172.863 50.2429 172.913 50.5141 172.909Z" fill="#3B3B3B"/>
</g>
<g style="mix-blend-mode:color-burn">
<path d="M74.6274 172.909C74.8972 172.913 75.1651 172.863 75.4151 172.761C75.6652 172.66 75.8924 172.51 76.0832 172.319C76.274 172.129 76.4245 171.902 76.5258 171.652C76.6271 171.402 76.6772 171.134 76.673 170.865C76.6771 170.594 76.6272 170.325 76.5263 170.073C76.4253 169.822 76.2753 169.593 76.0849 169.4C75.8946 169.206 75.6677 169.053 75.4174 168.949C75.1672 168.844 74.8987 168.79 74.6274 168.79C74.3547 168.79 74.0846 168.844 73.8327 168.948C73.5808 169.052 73.3518 169.205 73.159 169.398C72.9662 169.59 72.8132 169.819 72.7089 170.071C72.6045 170.323 72.5508 170.592 72.5508 170.865C72.5508 171.136 72.6047 171.404 72.7094 171.654C72.8141 171.904 72.9676 172.131 73.1608 172.321C73.3541 172.511 73.5833 172.661 73.835 172.762C74.0868 172.863 74.3562 172.913 74.6274 172.909Z" fill="#3B3B3B"/>
</g>
<g style="mix-blend-mode:color-burn">
<path d="M98.7095 172.909C98.9808 172.913 99.2501 172.863 99.5019 172.762C99.7537 172.661 99.9828 172.511 100.176 172.321C100.369 172.131 100.523 171.904 100.628 171.654C100.732 171.404 100.786 171.136 100.786 170.865C100.822 170.573 100.795 170.277 100.708 169.997C100.621 169.716 100.475 169.457 100.28 169.237C100.086 169.017 99.8461 168.841 99.578 168.72C99.3098 168.599 99.0191 168.537 98.725 168.537C98.431 168.537 98.1402 168.599 97.8721 168.72C97.604 168.841 97.3646 169.017 97.1697 169.237C96.9749 169.457 96.829 169.716 96.7418 169.997C96.6546 170.277 96.6281 170.573 96.6639 170.865C96.6639 171.133 96.7168 171.399 96.8196 171.647C96.9224 171.895 97.0731 172.12 97.2631 172.31C97.453 172.5 97.6785 172.65 97.9267 172.753C98.1749 172.856 98.4409 172.909 98.7095 172.909Z" fill="#3B3B3B"/>
</g>
<g style="mix-blend-mode:color-burn">
<path d="M122.699 172.909C122.97 172.913 123.24 172.863 123.492 172.762C123.743 172.661 123.972 172.511 124.166 172.321C124.359 172.131 124.512 171.904 124.617 171.654C124.722 171.404 124.776 171.136 124.776 170.865C124.776 170.592 124.722 170.323 124.618 170.071C124.513 169.819 124.36 169.59 124.168 169.398C123.975 169.205 123.746 169.052 123.494 168.948C123.242 168.844 122.972 168.79 122.699 168.79C122.428 168.79 122.159 168.844 121.909 168.949C121.659 169.053 121.432 169.206 121.242 169.4C121.051 169.593 120.901 169.822 120.8 170.073C120.699 170.325 120.649 170.594 120.654 170.865C120.649 171.134 120.699 171.402 120.801 171.652C120.902 171.902 121.053 172.129 121.243 172.319C121.434 172.51 121.661 172.66 121.911 172.761C122.162 172.863 122.429 172.913 122.699 172.909Z" fill="#3B3B3B"/>
</g>
<g style="mix-blend-mode:color-burn">
<path d="M146.937 172.909C147.208 172.913 147.478 172.863 147.729 172.762C147.981 172.661 148.21 172.511 148.403 172.321C148.597 172.131 148.75 171.904 148.855 171.654C148.96 171.404 149.014 171.136 149.014 170.865C149.014 170.315 148.795 169.787 148.405 169.398C148.016 169.009 147.488 168.79 146.937 168.79C146.386 168.79 145.858 169.009 145.469 169.398C145.079 169.787 144.86 170.315 144.86 170.865C144.86 171.136 144.914 171.404 145.019 171.654C145.124 171.904 145.277 172.131 145.47 172.321C145.664 172.511 145.893 172.661 146.145 172.762C146.396 172.863 146.666 172.913 146.937 172.909Z" fill="#3B3B3B"/>
</g>
<g style="mix-blend-mode:color-burn">
<path d="M171.05 172.909C171.321 172.913 171.591 172.863 171.843 172.762C172.094 172.661 172.324 172.511 172.517 172.321C172.71 172.131 172.863 171.904 172.968 171.654C173.073 171.404 173.127 171.136 173.127 170.865C173.127 170.315 172.908 169.787 172.519 169.398C172.129 169.009 171.601 168.79 171.05 168.79C170.499 168.79 169.971 169.009 169.582 169.398C169.192 169.787 168.974 170.315 168.974 170.865C168.974 171.136 169.028 171.404 169.132 171.654C169.237 171.904 169.39 172.131 169.584 172.321C169.777 172.511 170.006 172.661 170.258 172.762C170.51 172.863 170.779 172.913 171.05 172.909Z" fill="#3B3B3B"/>
</g>
<g style="mix-blend-mode:color-burn">
<path d="M195.164 172.909C195.435 172.913 195.704 172.863 195.956 172.762C196.208 172.661 196.437 172.511 196.63 172.321C196.823 172.131 196.977 171.904 197.082 171.654C197.186 171.404 197.24 171.136 197.24 170.865C197.24 170.315 197.021 169.787 196.632 169.398C196.242 169.009 195.714 168.79 195.164 168.79C194.613 168.79 194.085 169.009 193.695 169.398C193.306 169.787 193.087 170.315 193.087 170.865C193.087 171.136 193.141 171.404 193.246 171.654C193.35 171.904 193.504 172.131 193.697 172.321C193.89 172.511 194.119 172.661 194.371 172.762C194.623 172.863 194.892 172.913 195.164 172.909Z" fill="#3B3B3B"/>
</g>
<g style="mix-blend-mode:color-burn">
<path d="M2.28679 197C2.69881 197 3.10151 196.878 3.44364 196.648C3.78578 196.419 4.05188 196.093 4.2081 195.712C4.36432 195.331 4.4036 194.912 4.32093 194.509C4.23826 194.106 4.03738 193.736 3.74385 193.447C3.45033 193.158 3.07742 192.963 2.67258 192.887C2.26774 192.81 1.84926 192.856 1.4704 193.018C1.09153 193.179 0.769407 193.45 0.544998 193.795C0.320589 194.141 0.204043 194.545 0.210192 194.956C0.218333 195.501 0.440706 196.021 0.829265 196.403C1.21782 196.786 1.74137 197 2.28679 197Z" fill="#3B3B3B"/>
</g>
<g style="mix-blend-mode:color-burn">
<path d="M26.3999 197.031C27.5468 197.031 28.4765 196.102 28.4765 194.957C28.4765 193.811 27.5468 192.882 26.3999 192.882C25.253 192.882 24.3232 193.811 24.3232 194.957C24.3232 196.102 25.253 197.031 26.3999 197.031Z" fill="#3B3B3B"/>
</g>
<g style="mix-blend-mode:color-burn">
<path d="M50.5141 197.031C51.661 197.031 52.5907 196.102 52.5907 194.957C52.5907 193.811 51.661 192.882 50.5141 192.882C49.3672 192.882 48.4375 193.811 48.4375 194.957C48.4375 196.102 49.3672 197.031 50.5141 197.031Z" fill="#3B3B3B"/>
</g>
<g style="mix-blend-mode:color-burn">
<path d="M74.6274 197.031C75.7743 197.031 76.704 196.102 76.704 194.957C76.704 193.811 75.7743 192.882 74.6274 192.882C73.4805 192.882 72.5508 193.811 72.5508 194.957C72.5508 196.102 73.4805 197.031 74.6274 197.031Z" fill="#3B3B3B"/>
</g>
<g style="mix-blend-mode:color-burn">
<path d="M98.7099 197C99.1232 197.006 99.5289 196.889 99.8751 196.664C100.221 196.438 100.492 196.114 100.653 195.734C100.814 195.354 100.858 194.934 100.779 194.529C100.7 194.123 100.501 193.751 100.209 193.459C99.9168 193.167 99.5439 192.969 99.1382 192.889C98.7326 192.81 98.3125 192.854 97.9318 193.015C97.5511 193.176 97.2271 193.447 97.0013 193.792C96.7755 194.138 96.6582 194.544 96.6643 194.957C96.6723 195.496 96.8904 196.011 97.2723 196.393C97.6542 196.774 98.1699 196.992 98.7099 197Z" fill="#3B3B3B"/>
</g>
<g style="mix-blend-mode:color-burn">
<path d="M122.823 197.031C123.97 197.031 124.899 196.102 124.899 194.957C124.899 193.811 123.97 192.882 122.823 192.882C121.676 192.882 120.746 193.811 120.746 194.957C120.746 196.102 121.676 197.031 122.823 197.031Z" fill="#3B3B3B"/>
</g>
<g style="mix-blend-mode:color-burn">
<path d="M146.937 197.031C148.084 197.031 149.014 196.102 149.014 194.957C149.014 193.811 148.084 192.882 146.937 192.882C145.79 192.882 144.86 193.811 144.86 194.957C144.86 196.102 145.79 197.031 146.937 197.031Z" fill="#3B3B3B"/>
</g>
<g style="mix-blend-mode:color-burn">
<path d="M171.05 197.031C172.197 197.031 173.127 196.102 173.127 194.957C173.127 193.811 172.197 192.882 171.05 192.882C169.903 192.882 168.974 193.811 168.974 194.957C168.974 196.102 169.903 197.031 171.05 197.031Z" fill="#3B3B3B"/>
</g>
<g style="mix-blend-mode:color-burn">
<path d="M195.164 197C195.576 197 195.978 196.878 196.321 196.648C196.663 196.419 196.929 196.093 197.085 195.712C197.241 195.331 197.281 194.912 197.198 194.509C197.115 194.106 196.914 193.736 196.621 193.447C196.327 193.158 195.954 192.963 195.55 192.887C195.145 192.81 194.726 192.856 194.347 193.018C193.969 193.179 193.646 193.45 193.422 193.795C193.198 194.141 193.081 194.545 193.087 194.956C193.095 195.501 193.318 196.021 193.706 196.403C194.095 196.786 194.618 197 195.164 197Z" fill="#3B3B3B"/>
</g>
</g>
</svg>
