<svg width="1004" height="379" viewBox="0 0 1004 379" fill="none" xmlns="http://www.w3.org/2000/svg">
<g style="mix-blend-mode:color-burn">
<g style="mix-blend-mode:color-burn">
<path d="M903.974 295.763C910.885 294.772 917.828 293.874 924.833 293.007C917.767 292.568 910.682 293.504 903.974 295.763Z" fill="#595959"/>
</g>
<g style="mix-blend-mode:color-burn">
<path d="M-8.55625 347.012C-2.66736 346.083 3.22153 345.206 9.11041 344.38C-4.26811 340.416 -18.4426 339.957 -32.0498 343.049C-29.1983 344.504 -26.4089 346.145 -23.5574 347.508C-18.5868 346.834 -13.5605 346.668 -8.55625 347.012Z" fill="#595959"/>
</g>
<g style="mix-blend-mode:color-burn">
<path d="M716.181 341.098C723.092 338.558 730.004 336.081 736.854 333.79C750.038 326.415 764.658 321.969 779.719 320.753C786.444 318.895 793.139 317.13 799.865 315.458C784.898 313.666 769.721 315.022 755.309 319.437C740.898 323.853 727.569 331.231 716.181 341.098Z" fill="#595959"/>
</g>
<g style="mix-blend-mode:color-burn">
<path d="M873.134 282.417C855.53 295.33 854.538 302.173 853.081 303.938L860.21 302.669C862.847 299.517 865.683 296.539 868.702 293.75C881.784 281.12 898.978 273.613 917.142 272.601C935.306 271.589 953.229 277.14 967.635 288.238L975.787 287.433C961.839 274.977 944.034 267.683 925.349 266.77C906.664 265.857 888.232 271.38 873.134 282.417Z" fill="#595959"/>
</g>
<g style="mix-blend-mode:color-burn">
<path d="M122.363 319.422C118.072 319.077 113.757 319.669 109.718 321.156C99.0248 325.243 95.4605 330.229 94.2207 333.945L102.744 333.078C105.243 329.974 108.549 327.619 112.3 326.269C116.05 324.92 120.101 324.629 124.006 325.429C127.848 326.158 131.461 327.793 134.544 330.198C137.458 330.012 140.402 329.888 143.346 329.733C141.518 325.522 136.807 320.567 122.363 319.422Z" fill="#595959"/>
</g>
<g style="mix-blend-mode:color-burn">
<path d="M-63.0439 326.358C-60.9363 327.535 -58.8597 328.773 -56.8451 329.919C-43.49 323.722 -28.9531 320.479 -14.2282 320.412C7.06057 320.509 27.7961 327.195 45.1256 339.549L53.494 338.528C37.2737 325.565 17.6695 317.528 -2.98891 315.37C-23.6473 313.213 -44.4913 317.027 -63.0439 326.358Z" fill="#595959"/>
</g>
<g style="mix-blend-mode:color-burn">
<path d="M1002.94 198.375C1002.94 196.053 1003.15 193.761 1003.25 191.47C989.241 198.911 977.065 209.372 967.605 222.095C944.483 213.641 943.677 219.835 950.496 210.576C963.114 193.312 979.852 179.474 999.188 170.32L996.367 167.688L994.105 166.263C988.185 169.019 990.416 167.471 985.302 160.72C969.371 150.667 953.161 141.078 936.672 131.953C923.448 129.439 909.807 130.227 896.96 134.246C884.113 138.265 872.458 145.391 863.03 154.992C844.713 173.571 861.729 170.691 833.369 160.318C840.499 148.134 850.099 137.574 861.553 129.313C873.007 121.053 886.063 115.276 899.882 112.351C897.372 110.989 894.985 109.533 892.506 108.109C870.378 114.239 850.782 127.256 836.561 145.268C822.552 162.95 834.764 158.336 810.154 154.063C802.995 152.824 826.984 113.807 870.376 94.422C868.609 93.2453 866.781 92.1305 865.045 90.9538H863.278C845.767 99.3146 853.453 100.708 843.256 90.9538H834.268C838.224 94.188 841.848 97.8083 845.085 101.761C819.515 119.381 837.46 117.058 816.632 103.867C808.067 98.44 798.173 95.4714 788.033 95.2857C777.893 95.1 767.896 97.7043 759.138 102.814C736.264 116.129 756.039 119.164 729.539 101.111C733.74 96.2983 738.53 92.0329 743.796 88.4146L734.746 87.8572C717.978 101.761 733.165 99.7482 706.014 88.3836C706.665 87.5475 707.347 86.7734 707.998 85.9683L700.962 85.4419L700.373 86.185C699.319 85.7825 698.39 85.4728 697.274 85.1631C677.128 83.4703 657.002 81.4576 636.897 79.1248C634.17 79.5893 633.953 79.7751 633.24 78.6913L625.739 77.8242C629.583 82.8717 627.723 78.7222 606.709 86.6495C603.455 82.1286 599.86 77.8635 595.954 73.8915L585.726 72.4361C591.466 77.3126 596.662 82.7944 601.223 88.7862C575.157 99.9959 588.825 102.133 573.328 88.7862C558.791 76.2897 540.322 69.2919 521.146 69.0146C501.97 68.7372 483.306 75.198 468.413 87.2688C450.436 101.885 466.491 99.903 438.969 88.3836C450.384 73.5026 465.689 62.0584 483.197 55.3119L473.155 53.2991C457.467 60.8559 443.844 72.0971 433.452 86.0612C410.33 77.6074 409.524 83.8316 416.343 74.5418C424.006 64.1381 433.178 54.9331 443.556 47.2297L435.962 45.6195L434.227 47.013C433.731 46.2698 433.173 45.6195 432.677 44.9073L424.153 43.0493C433.762 52.3391 427.842 50.4502 414.669 66.9551C412.679 61.0763 408.859 55.9877 403.767 52.4336C398.675 48.8794 392.579 47.0462 386.369 47.2019C380.16 47.3576 374.163 49.4941 369.256 53.299C364.349 57.1038 360.789 62.3774 359.097 68.3486C344.003 48.9019 339.446 54.0732 351.472 41.7487C356.282 36.8902 362.043 33.0742 368.395 30.539L359.407 28.4953C351.214 33.1951 344.372 39.9246 339.539 48.0349C321.532 32.8615 320.075 38.9308 327.452 29.4552C329.38 27.0139 331.45 24.6874 333.651 22.4879L326.987 20.9705C311.707 37.4135 326.429 34.4407 299.092 24.4077C300.828 21.3111 302.718 18.679 304.671 16.0159L298.472 14.6534C290.662 26.018 297.666 21.9924 275.908 18.2455C273.987 17.9049 274.421 14.7463 276.745 10.0705L270.949 8.86278C269.803 10.8136 268.284 13.2909 266.517 16.883C230.905 13.2909 246.898 24.6555 233.137 3.53662L226.349 3.13407C231.835 11.4949 233.26 17.5952 229.82 18.2145C206.172 22.302 218.662 26.1728 204.095 8.30539C202.235 5.98294 200.252 3.81531 198.268 1.70962L189.652 1.39996C192.684 4.22554 195.551 7.22393 198.237 10.3801C211.751 26.3276 208.124 23.4478 198.826 27.5353C179.641 35.9581 197.586 31.7777 168.328 10.3801C163.081 6.5393 157.389 3.34721 151.374 0.873535C144.307 0.873535 137.272 0.873536 130.205 1.15223C148.721 3.59501 165.677 12.7937 177.812 26.9779C187.575 38.4044 184.972 32.3351 167.181 47.013C162.149 38.9472 155.127 32.3086 146.789 27.7342C138.45 23.1598 129.075 20.803 119.563 20.8901C110.051 20.9771 100.72 23.505 92.467 28.2313C84.2139 32.9575 77.3148 39.7235 72.4319 47.88C70.2313 46.022 68.3716 44.5976 66.698 43.328L63.1956 47.88C73.8072 55.9309 83.1207 65.5597 90.8114 76.4307C95.8015 83.46 95.2746 78.01 72.7108 86.5257C66.4373 77.9993 58.9386 70.4448 50.457 64.1062L46.7687 68.6582C54.4657 74.3705 61.3205 81.1357 67.1319 88.7552C41.0658 99.9649 54.7342 102.102 39.2372 88.7552C37.5325 87.2998 35.7658 85.9373 33.9682 84.6058C32.6974 86.1231 31.3956 87.7024 30.1249 89.0649C35.1783 92.7289 39.768 96.9921 43.7933 101.761C18.781 119.009 35.4249 117.244 16.4875 104.641C15.8056 105.384 15.1857 106.158 14.5038 106.901C13.822 107.645 13.2331 108.264 12.6132 108.976C19.8348 113.373 23.8951 118.452 21.5085 121.053C2.91202 141.119 16.6114 135.886 1.4243 126.193C0.272751 125.478 -0.928787 124.847 -2.17102 124.304L-6.78915 128.763C-3.72699 129.787 -0.909576 131.431 1.48628 133.594C9.3278 140.778 5.70149 140.314 -0.621307 153.041C-29.2599 150.13 -24.5798 156.912 -28.733 148.706C-33.909 153.165 -39.178 157.5 -44.478 161.804C-19.4309 155.721 6.86917 157.311 30.9989 166.369C55.1286 175.427 75.9704 191.532 90.8114 212.588C95.7704 219.587 95.3056 214.168 72.7108 222.683C62.6969 209.117 49.6422 198.083 34.5923 190.463C19.5425 182.844 2.91591 178.852 -13.9557 178.807C-30.8274 178.762 -47.4752 182.665 -62.5657 190.203C-77.6561 197.742 -90.7698 208.706 -100.856 222.219C-106.799 219.977 -112.929 218.267 -119.174 217.11L-125.869 221.754C-107.595 224.708 -90.1834 231.6 -74.8438 241.953C-59.5043 252.305 -46.6041 265.87 -37.0394 281.705C-30.8406 292.016 -31.4295 288.951 -43.0213 291.49C-57.9605 294.772 -50.2429 297.002 -61.4318 282.541C-71.1202 269.946 -83.4846 259.655 -97.6339 252.41C-111.783 245.165 -127.365 241.146 -143.256 240.644C-143.256 242.595 -143.256 244.576 -143.473 246.527C-129.205 246.966 -115.19 250.4 -102.337 256.604C-89.4839 262.809 -78.0815 271.646 -68.8704 282.541C-55.357 298.519 -58.9523 295.639 -68.2505 299.727C-84.1195 306.694 -72.8067 306.447 -90.1944 289.694C-104.684 275.769 -123.814 267.685 -143.907 266.996C-143.907 268.761 -143.907 270.526 -143.907 272.322C-125.714 272.322 -106.28 279.289 -89.2336 299.17C-81.888 307.747 -81.516 306.447 -89.2336 311.556L-83.8406 314.807C-58.3753 298.436 -27.951 291.551 2.08966 295.362C32.1304 299.173 59.8668 313.437 80.4284 335.648L88.3009 334.781C85.8523 332.334 82.319 328.866 77.081 324.035C81.3568 316.466 87.5501 310.155 95.0393 305.733C102.528 301.312 111.05 298.936 119.749 298.845C128.447 298.754 137.017 300.951 144.597 305.215C152.177 309.479 158.501 315.66 162.935 323.137C160.176 325.646 157.883 327.689 155.961 329.331C159.061 329.331 161.943 329.331 164.949 329.331C178.344 316.738 194.285 307.163 211.699 301.249C229.112 295.335 247.592 293.221 265.893 295.05C284.193 296.878 301.889 302.606 317.785 311.848C333.682 321.09 347.409 333.63 358.043 348.622L364.676 349.489C362.196 342.956 370.596 321.899 391.114 325.398C402.302 327.287 413.832 339.302 407.448 349.056C404.007 354.227 400.164 347.446 372.424 350.759C385.938 352.927 399.42 355.125 412.717 357.2C422.635 358.717 432.522 360.297 442.409 361.876L441.076 361.287C435.652 358.903 469.777 320.381 519.863 320.381C571.438 320.381 603.052 360.018 600.169 361.287C579.868 370.206 584.672 372.404 580.736 368.1C567.216 352.98 548.542 343.436 528.359 341.329C508.176 339.222 487.931 344.704 471.574 356.705C468.115 359.172 464.879 361.939 461.904 364.972L468.816 366.087C481.369 354.041 516.826 336.298 553.709 354.723C560.435 358.067 580.488 371.878 576.583 374.634C574.723 375.965 573.173 377.111 571.779 378.195L580.829 378.659C607.83 360.105 640.873 352.479 673.284 357.324L683.45 353.484C678.026 352.029 679.297 350.047 691.199 336.824C709.638 316.293 734.195 302.229 761.246 296.709C788.297 291.189 816.407 294.505 841.428 306.168L851.284 304.248C849.796 303.814 847.099 302.235 840.994 299.572C833.183 296.135 829.371 298.922 842.388 283.222C851.069 272.742 861.756 264.099 873.823 257.8C885.891 251.501 899.096 247.673 912.664 246.539C926.232 245.406 939.89 246.99 952.836 251.199C965.783 255.409 977.759 262.158 988.061 271.052C988.65 268.947 989.239 266.841 989.797 264.859C978.774 255.853 966.082 249.109 952.447 245.012C938.811 240.915 924.501 239.547 910.335 240.985C896.169 242.423 882.427 246.64 869.895 253.394C857.363 260.147 846.289 269.305 837.305 280.342C823.265 297.683 833.4 295.206 815.826 291.366C805.195 289.044 805.195 291.893 810.867 282.417C819.968 267.249 832.097 254.115 846.499 243.834C860.901 233.552 877.268 226.344 894.58 222.658C911.892 218.971 929.778 218.886 947.125 222.406C964.471 225.927 980.906 232.978 995.406 243.121C996.832 237.361 998.186 231.602 999.467 225.842C987.069 236.773 998.041 235.132 975.384 225.285C972.161 223.767 983.04 209.616 1002.94 198.375ZM868.702 157.717C882.563 144.331 901.005 136.721 920.28 136.434C939.555 136.146 958.216 143.202 972.471 156.168C990.757 172.797 984.465 171.373 976.624 176.916C961.127 187.909 975.818 182.675 953.192 166.883C943.592 160.143 932.094 156.633 920.363 156.862C908.633 157.09 897.28 161.045 887.95 168.152C866.254 184.471 881.751 188.992 864.704 176.916C857.823 172.054 852.368 173.447 868.702 157.717ZM787.095 100.956C807.21 100.956 827.604 115.82 822.862 120.929C804.266 140.964 817.934 135.762 802.778 126.069C796.259 121.972 788.403 120.562 780.865 122.137C751.111 128.64 775.72 145.516 752.97 120.929C745.315 112.816 772.466 100.956 787.095 100.956ZM800.732 152.917C764.779 149.263 781.423 160.968 766.98 138.92C768.712 135.896 771.106 133.302 773.983 131.331C776.859 129.361 780.144 128.066 783.592 127.542C787.04 127.018 790.562 127.279 793.895 128.305C797.228 129.332 800.286 131.097 802.84 133.47C810.681 140.654 807.055 140.159 800.732 152.917ZM627.01 86.6805C718.257 66.9551 777.425 151.926 764.035 154.217C740.449 158.336 752.877 162.207 738.341 144.308C728.14 131.701 715.227 121.553 700.561 114.616C685.896 107.679 669.855 104.133 653.629 104.24C637.403 104.347 621.41 108.105 606.838 115.235C592.265 122.364 579.487 132.683 569.454 145.423C555.414 163.105 567.656 158.491 543.047 154.217C534.678 152.793 568.865 99.2837 627.01 86.6805ZM626.297 204.352C611.203 184.905 606.678 190.076 618.673 177.752C627.682 168.459 639.973 163.056 652.917 162.697C665.862 162.338 678.433 167.052 687.945 175.832C702.171 188.93 696.406 184.75 681.746 202.958C679.722 197.128 675.895 192.092 670.817 188.579C665.739 185.066 659.675 183.258 653.5 183.416C647.326 183.575 641.362 185.692 636.472 189.461C631.581 193.23 628.018 198.456 626.297 204.382V204.352ZM674.555 213.022C671.704 217.388 676.446 213.92 654.316 213.92C630.853 213.92 635.719 217.76 632.62 213.022C626.421 203.732 645.018 181.096 665.288 191.779C671.89 195.371 680.196 204.475 674.617 213.053L674.555 213.022ZM531.517 259.812C524.766 256.855 517.128 256.644 510.224 259.223C484.561 268.513 508.395 279.661 482.763 253.804C487.477 248.446 493.292 244.168 499.813 241.263C506.333 238.357 513.405 236.892 520.544 236.969C527.683 237.045 534.722 238.661 541.179 241.706C547.635 244.75 553.358 249.152 557.955 254.609C532.788 280.435 555.445 270.154 531.517 259.843V259.812ZM540.815 276.224C530.122 292.914 538.987 288.208 519.987 288.208C502.538 288.208 511.557 292.822 499.841 274.923C501.945 271.282 505 268.28 508.678 266.237C512.357 264.194 516.521 263.187 520.727 263.324C524.934 263.461 529.024 264.736 532.562 267.013C536.1 269.29 538.952 272.485 540.815 276.255V276.224ZM557.676 245.97C547.811 236.814 534.948 231.558 521.488 231.182C508.029 230.805 494.892 235.335 484.53 243.926C475.046 251.792 483.538 251.884 464.787 238.6C457.937 233.769 504.738 194.164 553.833 218.689C560.559 222.033 580.612 235.844 576.707 238.6C558.017 251.884 564.991 252.751 557.676 246.001V245.97ZM573.173 224.665C558.636 212.169 540.167 205.171 520.991 204.894C501.815 204.616 483.151 211.077 468.258 223.148C450.281 237.733 466.274 235.751 438.814 224.263C448.401 211.84 460.722 201.789 474.823 194.889C488.923 187.989 504.424 184.424 520.125 184.472C535.826 184.52 551.305 188.179 565.363 195.165C579.421 202.151 591.681 212.277 601.192 224.758C575.436 235.999 588.887 238.012 573.328 224.696L573.173 224.665ZM433.204 222.064C410.082 213.61 409.276 219.835 416.095 210.545C428.158 194.11 443.961 180.778 462.198 171.648C480.436 162.518 500.585 157.853 520.983 158.038C541.381 158.222 561.443 163.251 579.512 172.709C597.581 182.167 613.139 195.783 624.902 212.434C629.862 219.432 629.366 214.013 606.802 222.529C596.783 208.988 583.732 197.977 568.693 190.375C553.654 182.774 537.043 178.793 520.189 178.751C503.335 178.709 486.705 182.607 471.628 190.133C456.551 197.659 443.445 208.605 433.359 222.095L433.204 222.064ZM359.035 204.352C343.91 184.905 339.384 190.076 351.41 177.752C360.419 168.468 372.703 163.071 385.639 162.712C398.576 162.353 411.141 167.062 420.651 175.832C434.908 188.93 429.143 184.75 414.452 202.958C412.385 197.198 408.552 192.236 403.498 188.778C398.445 185.321 392.428 183.545 386.305 183.703C380.183 183.861 374.266 185.945 369.397 189.657C364.529 193.37 360.957 198.523 359.19 204.382L359.035 204.352ZM407.293 213.022C403.666 218.503 399.606 210.607 367.31 215.375C359.066 216.583 366.225 185.153 390.959 189.364C402.303 191.315 413.832 203.299 407.448 213.053L407.293 213.022ZM290.569 246.001C280.701 236.837 267.832 231.575 254.366 231.199C240.899 230.823 227.756 235.358 217.391 243.957C207.907 251.822 216.431 251.915 197.679 238.631C190.922 233.862 237.569 194.164 286.725 218.72C293.42 222.064 313.504 235.875 309.568 238.631C290.879 251.884 297.852 252.751 290.569 246.001ZM290.817 254.64C265.649 280.466 288.337 270.123 264.379 259.843C257.628 256.886 249.99 256.675 243.086 259.254C217.453 268.544 241.257 279.661 215.656 253.835C220.369 248.483 226.183 244.209 232.7 241.307C239.218 238.404 246.286 236.941 253.421 237.018C260.556 237.094 267.591 238.708 274.045 241.75C280.499 244.791 286.219 249.188 290.817 254.64ZM306.314 224.696C291.771 212.197 273.297 205.198 254.116 204.921C234.935 204.644 216.266 211.106 201.368 223.179C183.391 237.764 199.477 235.813 171.954 224.294C181.541 211.871 193.862 201.82 207.963 194.92C222.063 188.02 237.565 184.455 253.266 184.503C268.967 184.551 284.446 188.21 298.504 195.196C312.562 202.182 324.821 212.308 334.332 224.789C308.142 235.999 321.842 238.012 306.221 224.696H306.314ZM166.313 222.095C143.191 213.641 142.386 219.865 149.235 210.576C161.299 194.147 177.101 180.82 195.335 171.694C213.569 162.569 233.715 157.906 254.108 158.09C274.501 158.275 294.559 163.301 312.625 172.756C330.691 182.21 346.248 195.821 358.012 212.465C362.971 219.463 362.506 214.044 339.942 222.56C329.926 208.987 316.867 197.947 301.811 190.324C286.756 182.701 270.123 178.707 253.245 178.662C236.367 178.617 219.712 182.522 204.616 190.064C189.52 197.607 176.402 208.576 166.313 222.095ZM310.932 101.761C285.393 119.381 303.338 117.058 282.51 103.867C273.939 98.4406 264.04 95.4725 253.895 95.2868C243.75 95.1011 233.749 97.705 224.985 102.814C202.111 116.129 221.886 119.133 195.386 101.111C202.57 92.8148 211.468 86.1721 221.467 81.6394C231.466 77.1068 242.329 74.7918 253.309 74.8535C264.288 74.9153 275.125 77.3525 285.072 81.9974C295.019 86.6423 303.841 93.3848 310.932 101.761ZM171.861 88.2598C181.448 75.8369 193.769 65.786 207.87 58.8858C221.97 51.9857 237.472 48.4215 253.173 48.4694C268.874 48.5173 284.353 52.176 298.411 59.1621C312.469 66.1482 324.728 76.2741 334.239 88.7552C308.142 99.9649 321.842 102.102 306.345 88.7552C291.802 76.2564 273.328 69.2574 254.147 68.9801C234.966 68.7027 216.297 75.1647 201.398 87.2379C183.298 101.761 199.384 99.7791 171.861 88.2598ZM252.849 100.956C271.445 100.956 293.916 115.231 288.616 120.929C270.02 141.057 283.75 135.793 268.532 126.069C262.022 121.95 254.157 120.538 246.619 122.137C216.865 128.64 241.505 145.516 218.724 120.929C211.069 112.816 238.251 100.956 252.849 100.956ZM268.594 133.47C276.466 140.654 272.809 140.19 266.517 152.917C230.533 149.263 247.177 160.968 232.734 138.92C234.466 135.896 236.86 133.302 239.737 131.331C242.613 129.361 245.898 128.066 249.346 127.542C252.794 127.018 256.316 127.279 259.649 128.305C262.982 129.332 266.04 131.097 268.594 133.47ZM435.466 146.414C419.618 134.787 400.103 129.262 380.505 130.855C360.908 132.448 342.543 141.051 328.784 155.085C310.467 173.664 327.483 170.815 299.123 160.411C307.424 146.359 318.973 134.497 332.803 125.818C346.633 117.139 362.342 111.895 378.616 110.525C394.89 109.154 411.256 111.697 426.345 117.941C441.434 124.185 454.806 133.948 465.345 146.414C478.858 162.362 475.232 159.482 465.964 163.569C446.748 171.992 464.694 167.812 435.466 146.414ZM434.319 183.047C429.289 174.974 422.266 168.329 413.925 163.75C405.583 159.171 396.203 156.812 386.686 156.899C377.168 156.986 367.833 159.516 359.577 164.247C351.321 168.978 344.421 175.75 339.539 183.914C321.501 168.71 320.044 174.81 327.452 165.334C334.388 156.495 343.203 149.305 353.26 144.284C363.317 139.264 374.365 136.538 385.605 136.304C396.846 136.07 407.997 138.333 418.255 142.931C428.513 147.528 437.62 154.345 444.919 162.888C454.714 174.438 452.079 168.369 434.319 183.047ZM535.732 133.501C543.605 140.685 539.917 140.252 533.625 152.948C497.641 149.294 514.284 160.999 499.841 138.951C501.574 135.924 503.969 133.327 506.847 131.354C509.725 129.38 513.012 128.082 516.462 127.555C519.913 127.028 523.438 127.286 526.775 128.31C530.111 129.335 533.173 131.098 535.732 133.47V133.501ZM485.739 121.115C478.176 113.002 505.358 101.142 519.987 101.142C540.102 101.142 560.466 116.036 555.754 121.115C537.158 141.243 550.857 135.978 535.639 126.255C529.14 122.138 521.286 120.726 513.757 122.322C483.972 128.639 508.612 145.516 485.739 120.929V121.115ZM606.616 184.1C588.577 168.895 587.152 174.996 594.559 165.52C601.493 156.681 610.305 149.491 620.359 144.471C630.414 139.45 641.46 136.725 652.697 136.491C663.935 136.256 675.085 138.52 685.34 143.117C695.595 147.715 704.7 154.531 711.996 163.074C721.821 174.5 719.187 168.431 701.396 183.109C696.37 175.04 689.352 168.397 681.017 163.817C672.681 159.237 663.308 156.874 653.795 156.955C644.283 157.036 634.951 159.558 626.695 164.279C618.439 168.999 611.535 175.761 606.647 183.914L606.616 184.1ZM702.698 146.6C686.847 134.979 667.334 129.458 647.738 131.051C628.142 132.643 609.778 141.243 596.016 155.27C577.729 173.85 594.714 171.001 566.354 160.596C574.656 146.544 586.204 134.683 600.034 126.004C613.864 117.325 629.573 112.081 645.847 110.71C662.122 109.34 678.487 111.883 693.576 118.127C708.665 124.371 722.038 134.134 732.576 146.6C746.09 162.547 742.494 159.667 733.196 163.755C713.794 172.023 731.956 167.873 702.512 146.414L702.698 146.6ZM578.039 101.761C552.5 119.381 570.446 117.058 549.618 103.867C541.055 98.4333 531.16 95.4608 521.019 95.2751C510.877 95.0894 500.88 97.6976 492.124 102.814C469.219 116.129 489.024 119.102 462.524 101.111C469.706 92.8154 478.601 86.1731 488.597 81.6406C498.594 77.1082 509.454 74.7932 520.432 74.855C531.409 74.9168 542.243 77.3539 552.188 81.9986C562.132 86.6433 570.952 93.3854 578.039 101.761ZM496.928 154.403C473.279 158.522 485.77 162.423 471.234 144.494C461.026 131.892 448.109 121.748 433.442 114.814C418.774 107.881 402.732 104.336 386.506 104.443C370.28 104.55 354.286 108.307 339.712 115.433C325.137 122.559 312.355 132.873 302.315 145.609C288.306 163.291 300.518 158.677 275.908 154.403C267.54 152.979 301.758 99.4385 359.903 86.8663C450.746 67.0171 510.348 151.895 496.928 154.217V154.403ZM398.087 55.7764C404.782 59.3375 413.088 68.4415 407.386 77.0191C404.534 81.3543 409.09 77.9171 387.115 77.9171C363.591 77.9171 368.519 81.7569 365.419 77.0191C359.252 67.6983 377.91 45.0621 398.087 55.7764ZM357.795 76.4307C362.754 83.429 362.289 78.01 339.725 86.5257C329.707 72.9651 316.651 61.9358 301.602 54.3205C286.553 46.7051 269.928 42.7152 253.059 42.6701C236.189 42.6249 219.543 46.5258 204.454 54.0605C189.364 61.5952 176.249 72.5544 166.158 86.0612C143.037 77.6074 142.231 83.8316 149.08 74.5418C161.139 58.0951 176.941 44.7515 195.183 35.6138C213.424 26.476 233.58 21.8065 253.984 21.9911C274.389 22.1756 294.457 27.209 312.53 36.6752C330.602 46.1414 346.161 59.7686 357.919 76.4307H357.795ZM91.9272 68.3486C76.833 48.9019 72.3079 54.0732 84.3026 41.7487C93.3173 32.4191 105.634 26.9923 118.608 26.6334C131.583 26.2744 144.181 31.0119 153.699 39.8288C167.956 52.9585 162.191 48.7471 147.5 66.9551C145.51 61.0763 141.69 55.9877 136.598 52.4336C131.506 48.8794 125.409 47.0462 119.2 47.2019C112.99 47.3576 106.993 49.4941 102.086 53.299C97.1793 57.1038 93.6193 62.3774 91.9272 68.3486ZM140.309 76.9881C137.458 81.3543 142.138 77.8861 120.07 77.8861C96.6073 77.8861 101.473 81.7259 98.374 76.9881C92.1751 67.6983 110.772 45.0621 131.042 55.7454C137.644 59.3375 145.95 68.4415 140.309 76.9881ZM8.8009 154.217C0.525467 152.793 34.712 99.2527 92.795 86.6805C184.135 66.9241 243.148 151.926 229.82 154.217C206.172 158.336 218.662 162.207 204.095 144.308C193.887 131.712 180.972 121.572 166.308 114.643C151.643 107.713 135.605 104.17 119.383 104.277C103.161 104.384 87.1714 108.138 72.5998 115.261C58.0281 122.384 45.2482 132.693 35.2079 145.423C21.1986 163.105 33.3793 158.491 8.8009 154.217ZM31.9845 160.411C40.2846 146.353 51.8344 134.486 65.6671 125.803C79.4999 117.12 95.2131 111.873 111.492 110.503C127.77 109.132 144.141 111.678 159.233 117.925C174.325 124.173 187.699 133.942 198.237 146.414C211.751 162.362 208.124 159.482 198.826 163.569C179.641 171.992 197.586 167.812 168.328 146.414C152.484 134.789 132.975 129.266 113.382 130.858C93.79 132.451 75.4307 141.053 61.6769 155.085C43.3594 173.664 60.3752 170.784 31.9845 160.411ZM60.3442 165.458C67.2806 156.618 76.0958 149.429 86.1529 144.408C96.21 139.388 107.258 136.662 118.498 136.428C129.738 136.194 140.89 138.457 151.148 143.055C161.405 147.652 170.513 154.469 177.812 163.012C187.575 174.407 184.972 168.369 167.181 183.047C162.149 174.981 155.127 168.342 146.789 163.768C138.45 159.194 129.075 156.837 119.563 156.924C110.051 157.011 100.72 159.539 92.467 164.265C84.2139 168.991 77.3148 175.757 72.4319 183.914C54.3933 168.71 52.9366 174.81 60.3442 165.458ZM91.9272 204.382C76.833 184.936 72.3079 190.107 84.3026 177.783C93.3123 168.49 105.603 163.087 118.547 162.728C131.492 162.369 144.063 167.083 153.575 175.863C167.832 188.992 162.005 184.812 147.376 202.989C145.355 197.158 141.531 192.12 136.455 188.604C131.379 185.089 125.316 183.278 119.142 183.433C112.967 183.588 107.003 185.701 102.11 189.468C97.2179 193.234 93.6515 198.457 91.9272 204.382ZM140.185 213.053C136.466 218.689 133.986 210.421 100.203 215.406C91.9892 216.614 99.1488 185.184 123.882 189.395C135.319 191.315 146.725 203.299 140.309 213.053H140.185ZM-95.3704 224.294C-85.7851 211.848 -73.4576 201.776 -59.3452 194.861C-45.2327 187.947 -29.7149 184.374 -13.9967 184.422C1.72145 184.47 17.2171 188.137 31.2871 195.138C45.3571 202.138 57.6228 212.285 67.1319 224.789C41.0658 235.999 54.7342 238.074 39.2372 224.789C24.6997 212.293 6.23071 205.295 -12.945 205.017C-32.1206 204.74 -50.7846 211.201 -65.678 223.272C-83.8406 237.795 -67.6926 235.844 -95.2464 224.294H-95.3704ZM-69.5833 238.631C-76.34 233.862 -29.6938 194.164 19.4629 218.72C26.1886 222.064 46.2418 235.875 42.3366 238.631C23.7401 251.884 30.6208 252.751 23.3062 246.001C13.4472 236.833 0.582367 231.568 -12.881 231.192C-26.3444 230.816 -39.4836 235.354 -49.84 243.957C-59.2002 251.822 -50.6459 251.915 -69.4593 238.631H-69.5833ZM-51.6067 253.835C-46.8932 248.451 -41.0687 244.15 -34.5334 241.228C-27.9981 238.306 -20.9071 236.833 -13.7478 236.91C-6.58847 236.986 0.469376 238.611 6.94061 241.671C13.4118 244.732 19.143 249.156 23.7401 254.64C-1.42715 280.466 21.2296 270.123 -2.69792 259.843C-9.44868 256.886 -17.0869 256.675 -23.9909 259.254C-49.685 268.42 -25.8505 279.661 -51.4827 253.835H-51.6067ZM-14.4137 288.239C-31.8634 288.239 -22.8441 292.852 -34.5599 274.954C-32.4512 271.32 -29.3969 268.325 -25.7212 266.286C-22.0456 264.247 -17.8859 263.241 -13.6839 263.375C-9.48189 263.508 -5.3945 264.776 -1.8558 267.044C1.68291 269.312 4.54079 272.495 6.41435 276.255C-4.15465 292.976 4.6787 288.239 -14.2587 288.239H-14.4137ZM167.026 319.205C159.508 307.114 147.622 298.376 133.832 294.802C120.041 291.228 105.403 293.091 92.95 300.006C59.0424 318.864 86.3483 327.875 58.1436 309.667C46.3038 302.049 123.789 236.432 177.657 299.17C187.575 310.441 184.91 304.372 167.181 319.081L167.026 319.205ZM198.671 299.727C182.802 306.694 194.146 306.509 176.727 289.694C162.863 276.316 144.714 268.261 125.483 266.953C106.253 265.644 87.1782 271.165 71.626 282.541C40.6629 305.208 61.4599 309.234 39.7641 299.603C31.9535 296.166 28.1413 298.953 41.1588 283.253C50.6965 271.706 62.6573 262.393 76.1952 255.974C89.7331 249.555 104.517 246.187 119.502 246.107C134.487 246.028 149.306 249.238 162.912 255.513C176.517 261.787 188.577 270.972 198.237 282.417C211.751 298.395 208.124 295.516 198.826 299.603L198.671 299.727ZM223.931 291.49C208.961 294.772 216.679 297.002 205.521 282.541C195.551 269.681 182.806 259.233 168.234 251.977C153.662 244.721 137.64 240.843 121.36 240.632C105.08 240.42 88.9621 243.881 74.2067 250.757C59.4512 257.632 46.4386 267.745 36.1377 280.342C22.0974 297.652 32.2945 295.237 14.6588 291.366C3.99681 289.044 4.02782 291.893 9.69974 282.417C59.6623 199.273 179.672 198.994 230.161 281.581C236.36 291.954 235.647 288.858 224.086 291.366L223.931 291.49ZM252.694 288.393C235.244 288.393 244.294 293.007 232.579 275.109C234.68 271.466 237.732 268.462 241.409 266.417C245.086 264.371 249.25 263.362 253.456 263.495C257.662 263.629 261.753 264.9 265.292 267.175C268.832 269.449 271.687 272.641 273.553 276.41C262.984 292.976 271.693 288.239 252.849 288.239L252.694 288.393ZM281.487 291.49C270.825 289.168 270.856 292.016 276.559 282.541C326.429 199.521 446.438 198.932 497.021 281.705C503.219 292.078 502.6 288.982 491.039 291.49C476.1 294.772 483.817 297.002 472.628 282.541C462.655 269.638 449.891 259.156 435.29 251.879C420.689 244.602 404.63 240.719 388.315 240.519C372 240.32 355.85 243.809 341.075 250.727C326.301 257.645 313.283 267.811 302.997 280.466C289.081 297.652 299.278 295.237 281.642 291.366L281.487 291.49ZM306.717 299.727C298.906 296.29 295.125 299.077 308.142 283.377C317.68 271.835 329.639 262.527 343.174 256.112C356.709 249.696 371.489 246.329 386.47 246.25C401.451 246.17 416.266 249.379 429.869 255.65C443.472 261.921 455.529 271.101 465.19 282.541C478.703 298.519 475.077 295.639 465.81 299.727C449.94 306.694 461.253 306.478 443.835 289.694C429.982 276.307 411.836 268.246 392.608 266.937C373.379 265.628 354.307 271.155 338.765 282.541C307.801 305.208 328.598 309.234 306.872 299.603L306.717 299.727ZM325.313 309.667C313.442 302.049 390.99 236.463 444.795 299.17C454.59 310.565 451.955 304.496 434.195 319.205C426.672 307.12 414.786 298.387 400.998 294.814C387.21 291.24 372.574 293.099 360.119 300.006C324.91 319.514 354.293 328.092 325.437 309.543L325.313 309.667ZM389.471 319.421C385.18 319.074 380.864 319.665 376.825 321.155C344.901 333.294 376.391 353.732 343.941 323.85C348.216 316.281 354.41 309.969 361.899 305.547C369.388 301.126 377.91 298.75 386.608 298.659C395.307 298.568 403.876 300.765 411.456 305.029C419.037 309.293 425.361 315.474 429.794 322.951C396.228 353.298 428.524 322.549 389.471 319.421ZM605.562 356.735C595.656 343.898 582.988 333.45 568.494 326.164C554.001 318.878 538.054 314.941 521.832 314.643C505.61 314.346 489.529 317.696 474.778 324.446C460.027 331.196 446.984 341.173 436.613 353.639C432.336 358.81 434.908 358.47 429.267 356.735C412.593 351.254 406.301 356.735 424.184 336.855C437.369 322.166 453.761 310.707 472.091 303.365C490.421 296.023 510.196 292.995 529.885 294.516C549.575 296.037 568.649 302.066 585.632 312.136C602.614 322.206 617.048 336.047 627.816 352.586C604.415 357.293 608.599 360.637 605.593 356.735H605.562ZM674.617 349.087C670.898 354.754 668.418 346.424 634.635 351.44C626.421 352.617 633.612 321.217 658.283 325.429C669.41 327.318 680.971 339.333 674.617 349.087ZM656.672 319.421C652.38 319.077 648.065 319.668 644.026 321.155C612.102 333.294 643.623 353.732 611.172 323.85C615.448 316.281 621.641 309.969 629.13 305.547C636.62 301.126 645.141 298.75 653.84 298.659C662.538 298.568 671.108 300.765 678.688 305.029C686.268 309.293 692.592 315.474 697.026 322.951C663.366 353.298 695.631 322.549 656.609 319.421H656.672ZM701.489 319.081C693.965 306.996 682.08 298.263 668.292 294.69C654.503 291.116 639.868 292.975 627.413 299.882C593.722 318.616 620.687 327.751 592.607 309.543C580.767 301.957 658.252 236.309 712.089 299.046C721.821 310.472 719.218 304.372 701.427 319.081H701.489ZM733.134 299.603C717.265 306.57 728.578 306.354 711.19 289.57C697.329 276.186 679.179 268.128 659.947 266.819C640.715 265.51 621.639 271.035 606.089 282.417C575.095 305.208 595.768 309.141 574.072 299.603C566.262 296.166 562.449 298.953 575.467 283.253C585.005 271.711 596.964 262.403 610.499 255.988C624.034 249.572 638.814 246.206 653.795 246.126C668.775 246.046 683.591 249.255 697.193 255.526C710.796 261.797 722.854 270.977 732.514 282.417C745.904 298.395 742.37 295.516 733.072 299.603H733.134ZM758.363 291.366C743.424 294.649 751.142 296.878 739.953 282.417C729.98 269.514 717.215 259.032 702.615 251.755C688.014 244.478 671.955 240.595 655.639 240.395C639.324 240.196 623.175 243.685 608.4 250.603C593.625 257.521 580.608 267.688 570.322 280.342C556.25 297.652 566.478 295.237 548.843 291.366C538.181 289.044 538.212 291.893 543.884 282.417C593.908 199.087 713.949 199.18 764.345 281.581C770.699 291.954 769.831 288.858 758.301 291.366H758.363ZM787.157 288.27C771.443 288.27 777.146 291.831 770.389 280.404C761.277 264.921 796.517 253.588 807.985 276.286C797.261 292.914 806.125 288.239 787.095 288.239L787.157 288.27ZM822.924 256.994C804.328 277.029 817.996 271.796 802.84 262.134C796.327 258.021 788.465 256.61 780.927 258.202C751.173 264.673 775.782 281.55 753.032 256.994C745.315 248.664 774.263 235.318 792.333 237.268C806.218 238.693 828.255 251.141 822.862 256.963L822.924 256.994ZM843.876 238.662C825.279 251.915 832.16 252.782 824.846 246.032C814.987 236.864 802.122 231.599 788.659 231.223C775.195 230.847 762.056 235.385 751.699 243.988C742.215 251.853 750.708 251.946 731.956 238.662C725.168 233.862 771.908 194.226 821.002 218.751C827.697 222.095 847.719 235.875 843.814 238.631L843.876 238.662ZM867.463 225.316C847.161 234.234 851.966 236.432 848.029 232.159C834.513 217.035 815.842 207.485 795.659 205.372C775.475 203.259 755.228 208.736 738.868 220.733C716.583 237.083 734.126 236.618 708.401 225.316C702.822 222.869 737.256 184.409 787.157 184.409C838.886 184.378 870.221 224.046 867.401 225.285L867.463 225.316ZM872.763 220.733C862.848 207.9 850.172 197.459 835.671 190.183C821.171 182.907 805.219 178.983 788.996 178.7C772.772 178.418 756.693 181.784 741.948 188.551C727.203 195.318 714.17 205.311 703.814 217.791C699.536 222.931 702.109 222.621 696.468 220.733C679.607 215.19 673.501 220.733 691.385 200.852C704.569 186.164 720.962 174.704 739.291 167.362C757.621 160.02 777.397 156.992 797.086 158.513C816.775 160.034 835.85 166.063 852.832 176.133C869.814 186.203 884.249 200.044 895.016 216.583C871.864 221.197 875.676 224.572 872.701 220.702L872.763 220.733ZM878.279 187.847C882.555 180.278 888.749 173.966 896.238 169.544C903.727 165.123 912.249 162.747 920.947 162.656C929.646 162.565 938.215 164.762 945.795 169.026C953.376 173.29 959.7 179.471 964.133 186.949C931.992 215.964 962.801 194.876 930.04 184.657C926.003 183.296 921.698 182.925 917.487 183.573C879.953 188.466 911.319 218.286 878.218 187.816L878.279 187.847ZM941.724 213.084C938.873 217.45 943.615 213.982 921.485 213.982C898.054 213.982 902.889 217.791 899.789 213.084C893.405 203.361 912.621 181.313 932.457 191.841C938.997 195.371 947.365 204.475 941.663 213.053L941.724 213.084Z" fill="#595959"/>
</g>
<g style="mix-blend-mode:color-burn">
<path d="M197.896 329.578C201.895 329.733 205.862 329.888 209.86 330.104C223.318 323.801 237.986 320.493 252.849 320.412C275.412 320.577 297.309 328.065 315.24 341.748L326.243 343.42C309.156 327.681 287.462 317.841 264.355 315.349C241.248 312.857 217.952 317.845 197.896 329.578Z" fill="#595959"/>
</g>
<g style="mix-blend-mode:color-burn">
<path d="M499.811 371.165L514.595 373.519C521.711 372.747 528.911 373.518 535.702 375.779L551.199 377.018C543.762 371.926 535.19 368.731 526.233 367.711C517.275 366.69 508.204 367.877 499.811 371.165Z" fill="#595959"/>
</g>
</g>
</svg>
