<svg width="78" height="53" viewBox="0 0 78 53" fill="none" xmlns="http://www.w3.org/2000/svg">
<path fill-rule="evenodd" clip-rule="evenodd" d="M31.1452 17.2185C22.6729 19.5706 10.1324 28.5474 2.06145 33.2072C1.50251 33.5223 1.08898 34.0424 0.911159 34.6539C0.73334 35.2654 0.805671 35.9187 1.11238 36.471L9.69457 51.3358C10.0126 51.8655 10.5303 52.2463 11.1351 52.3951C11.7398 52.544 12.3826 52.449 12.9233 52.1306C21.2284 47.3357 35.0294 41.1328 41.5294 34.7438C48.4717 27.8888 55.6424 19.3362 64.0213 14.4986L73.3716 9.10025C73.437 9.2135 73.5454 9.29573 73.6729 9.32885C73.8005 9.36198 73.9368 9.34329 74.0518 9.27688L75.6781 8.33792C75.7932 8.27151 75.8775 8.16283 75.9126 8.03579C75.9477 7.90875 75.9307 7.77376 75.8653 7.66051L76.3727 7.36755C76.7754 7.13219 77.0715 6.75123 77.1979 6.30593C77.3244 5.86064 77.2711 5.38629 77.0494 4.98407L74.7195 0.948672C74.5316 0.638869 74.227 0.416809 73.872 0.330739C73.517 0.244669 73.1402 0.301532 72.8235 0.488979L71.9995 0.964725C71.9341 0.851471 71.8257 0.769237 71.6981 0.736111C71.5706 0.702986 71.4343 0.721681 71.3192 0.788088L69.6929 1.72705C69.5779 1.79346 69.4936 1.90214 69.4585 2.02918C69.4234 2.15622 69.4404 2.29121 69.5058 2.40447L60.1555 7.80287C51.7333 12.6654 40.5982 14.602 31.1452 17.2185Z" fill="#3D4349"/>
</svg>
