<svg width="1339" height="309" viewBox="0 0 1339 309" fill="none" xmlns="http://www.w3.org/2000/svg">
<path d="M1239.11 308.895C1183.97 309.058 1134.17 302.423 1088.41 288.871C1017.06 267.715 964.269 231.95 926.526 203.139C903.259 185.434 881.199 167.198 859.885 149.579C802.064 101.814 747.474 56.7024 668.481 18.5685C612.984 -8.2392 547.532 -5.47576 462.301 27.2284C407.442 48.3235 355.209 77.4931 315.197 109.383C290.146 127.788 268.592 144.512 247.75 160.707C148.548 237.796 88.6803 284.329 -86.6569 293.951L-106.924 295.094C-150.773 297.639 -200.449 300.511 -256.402 297.363L-256.404 296.929C-200.605 300.078 -150.805 297.206 -106.987 294.692L-86.6892 293.517C88.4624 283.989 148.299 237.487 247.408 160.46C267.292 144.918 289.804 127.511 314.855 109.105C354.899 77.1843 407.193 48.0146 462.083 26.9194C500.349 12.1904 533.922 3.76139 564.753 1.06921C603.115 -2.14067 638.031 3.48497 668.604 18.2275C747.628 56.3923 802.125 101.442 860.101 149.3C881.415 166.949 903.599 185.154 926.711 202.86C1015.24 270.291 1126.44 328.922 1338.64 301.634L1338.64 302.067C1305.64 306.406 1272.39 308.686 1239.11 308.895Z" fill="#002D52"/>
</svg>
