<svg width="1440" height="196" viewBox="0 0 1440 196" fill="none" xmlns="http://www.w3.org/2000/svg">
<path d="M1536.62 195.147C1415.15 195.505 1303.65 137.618 1209.1 88.5369L1208.07 88.0135C1075.96 19.4108 972.239 -6.23264 871.478 4.84107C809.014 11.7142 757.808 41.7477 712.603 68.2644C694.565 79.3231 675.974 89.4551 656.903 98.6209C591.407 128.294 530.739 145.226 476.603 148.947C401.182 155.363 342.419 135.16 280.182 113.916C200.043 86.5612 117.36 58.2855 -12.7545 79.2622C-60.5248 86.9899 -104.223 109.229 -146.498 130.782C-159.434 137.354 -172.834 144.175 -186.019 150.408L-186.768 148.892C-173.552 142.66 -160.182 135.839 -147.277 129.267C-104.879 107.682 -61.0566 85.3502 -13.0383 77.5908C117.354 56.5514 200.317 84.8883 280.58 112.304C342.631 133.519 401.238 153.536 476.319 147.275C530.269 143.555 590.72 126.655 655.938 97.1993C675.013 88.0745 693.605 77.9733 711.638 66.9357C756.966 40.3257 808.328 10.1989 871.164 3.29369C972.204 -7.81181 1076.3 17.8925 1208.72 86.6181L1209.78 87.1723C1337.95 153.712 1497.44 236.54 1670.28 167.657L1670.9 169.234C1628.2 186.322 1582.62 195.117 1536.62 195.147Z" fill="#002D52"/>
</svg>
