<svg width="1440" height="265" viewBox="0 0 1440 265" fill="none" xmlns="http://www.w3.org/2000/svg">
<path d="M1332.86 264.438C1287.84 264.696 1243.02 258.572 1199.72 246.251C1127.78 225.747 1068.66 190.527 1020.34 158.775L992.395 140.432C902.553 81.0258 831.593 34.1047 735.929 8.03491C664.926 -11.3261 595.15 17.2139 533.607 42.4163L527.014 45.0989C469.186 68.68 414.523 93.4286 368.937 116.788C220.815 190.15 162.097 195.619 -32.4621 213.782L-62.1154 216.564C-89.2589 219.121 -116.179 223.939 -144.709 229.194C-173.239 234.45 -202.204 239.49 -233.096 242.709L-233.098 241.842C-202.113 238.654 -172.994 233.427 -144.773 228.358C-116.553 223.289 -89.261 218.409 -62.0869 215.728L-32.4646 212.946C162.002 194.814 220.689 189.315 368.625 116.015C414.273 92.81 468.936 68.0614 526.794 44.3254L533.357 41.6119C595.054 16.3781 664.986 -12.1934 736.237 7.22886C832.056 33.3601 903.047 80.3121 992.951 139.626L1020.9 158.123C1130.12 229.89 1257.62 290.795 1449.39 250.964L1449.58 251.8C1411.2 259.945 1372.1 264.179 1332.86 264.438Z" fill="#002D52"/>
</svg>
