<svg width="1395" height="287" viewBox="0 0 1395 287" fill="none" xmlns="http://www.w3.org/2000/svg">
<path d="M1284.82 286.077C1237.24 286.52 1189.84 280.11 1144.08 267.046C1071.99 246.078 1015.01 209.737 973.358 180.442C954.132 166.873 935.806 153.457 918.069 140.349C848.057 89.0588 787.611 44.7388 702.189 12.6623C631.196 -13.9758 557.843 10.5182 494.595 35.5398C437.663 58.0965 384.897 84.6664 341.989 112.384L331.78 118.607C188.969 206.199 135.507 238.933 -74.3399 254.633C-93.5521 256.052 -112.886 258.215 -133.212 260.412C-168.317 264.324 -204.475 268.364 -244.517 269.225L-244.519 268.606C-204.632 267.745 -168.35 263.674 -133.245 259.762C-112.764 257.503 -93.4303 255.34 -74.1561 253.889C135.505 238.19 188.935 205.487 331.778 118.081L341.988 111.858C384.895 84.14 437.693 57.57 494.687 34.9822C524.685 23.0955 560.259 10.0156 596.443 4.11814C636.096 -2.4399 670.817 0.151679 702.653 12.1035C788.137 44.2108 851.657 90.6894 918.688 139.883C936.424 152.867 954.75 166.314 973.976 179.975C1072.84 249.667 1192.16 309.389 1394.2 275.783L1394.2 276.402C1358.07 282.598 1321.48 285.834 1284.82 286.077Z" fill="#002D52"/>
</svg>
