<svg width="1440" height="184" viewBox="0 0 1440 184" fill="none" xmlns="http://www.w3.org/2000/svg">
<path d="M1589.47 183.988C1473.3 184.331 1361.43 128.922 1266.27 81.8869L1254.91 76.3155C1120.57 9.97998 1009.48 -11.0897 905.281 10.0582C843.329 22.6275 794.141 54.1725 750.522 82.047C728.866 95.8909 708.48 108.988 688.98 118.026C621.165 149.471 560.397 164.204 503.147 163.042C429.534 162.454 371.061 135.407 309.143 106.822C224.103 67.5297 136.145 26.821 -0.561501 51.0067C-52.6047 60.2024 -98.5183 87.9598 -142.823 114.814C-153.095 121.038 -163.707 127.417 -174.103 133.487L-175.038 131.848C-164.672 125.872 -154.06 119.4 -143.819 113.176C-99.2672 86.2589 -53.1989 58.4081 -0.629073 49.1179C136.697 24.8995 224.903 65.6693 310.223 105.085C371.955 133.609 430.241 160.47 503.483 161.121C560.485 162.284 620.973 147.613 688.51 116.293C707.886 107.317 728.273 94.2514 749.835 80.4388C793.454 52.4404 842.89 20.8018 905.089 8.1698C1009.73 -13.0413 1121.21 8.08917 1255.92 74.6094L1267.19 80.181C1399.08 145.44 1563.18 226.644 1725.75 152.713L1726.53 154.444C1683.5 174.023 1636.75 184.1 1589.47 183.988Z" fill="#002D52"/>
</svg>
