<svg width="1440" height="212" viewBox="0 0 1440 212" fill="none" xmlns="http://www.w3.org/2000/svg">
<path d="M604.384 211.549C510.627 211.826 438.172 162.494 362.859 111.002C268.664 46.8089 171.363 -19.5741 24.1976 10.4641C-36.979 23.0311 -86.2658 63.0301 -133.945 101.786C-139.572 106.354 -145.138 110.892 -150.672 115.336L-152.165 113.7C-146.63 109.255 -141.065 104.718 -135.437 100.149C-87.5419 61.2069 -38.039 20.9286 23.6954 8.32887C171.728 -21.8976 269.464 44.7627 363.97 109.265C474.253 184.528 578.448 255.597 752.944 170.885C774.825 160.23 797.618 143.224 824.091 123.514C873.881 86.2072 935.827 40.0085 1019.54 19.5095C1117.54 -4.49995 1225.57 11.0358 1349.8 66.9966C1359.86 71.5086 1370.11 76.1645 1380.56 80.9644C1519.2 144.253 1691.73 223.017 1836.1 139.229L1837.25 141.239C1691.83 225.618 1518.71 146.577 1379.57 83.073C1369.23 78.2935 1358.99 73.6375 1348.85 69.1051C1069.25 -56.8141 928.351 48.4844 825.491 125.367C799.018 145.14 776.009 162.239 754.035 172.957C697.706 200.187 648.613 211.418 604.384 211.549Z" fill="#002D52"/>
</svg>
