<svg width="1284" height="337" viewBox="0 0 1284 337" fill="none" xmlns="http://www.w3.org/2000/svg">
<path d="M1197.02 334.981C1166.82 335.198 1136.64 333.362 1106.68 329.488C1156.29 336.092 1213.98 336.82 1283.35 330.422L1283.35 330.639C1252.97 333.454 1224.19 334.901 1197.02 334.981ZM-134.057 336.96C-178.86 337.117 -223.622 334.259 -268.04 328.406L-268.041 328.066C-212.006 335.415 -155.451 338.045 -98.975 335.927C60.1033 330.72 119.439 271.926 201.581 190.521C226.304 165.923 254.551 138.063 288.125 109.165C325.954 72.637 376.321 41.5531 429.851 21.6386C466.199 8.12294 501.078 1.14545 533.249 0.864673L534.52 0.860921C569.688 0.29204 604.336 9.39157 634.678 27.1652C709.692 71.8138 760.881 119.846 810.361 166.304C833.672 188.159 855.677 208.811 879.632 228.651C931.395 271.572 987.314 305.006 1064.91 322.149C1053.81 319.704 1043.03 316.908 1032.56 313.759C1003.21 304.948 974.984 292.748 948.459 277.406C924.161 263.225 901.133 246.975 879.632 228.837C855.677 208.966 833.672 188.314 810.393 166.459C760.882 120.156 709.693 71.9996 634.74 27.3508C564.943 -14.2165 484.838 1.41016 429.914 21.7623C376.415 41.6766 326.109 72.7294 288.249 109.257C254.768 138.155 226.614 166.015 201.706 190.613C160.387 231.58 124.662 266.925 79.7953 292.326C55.8281 305.869 30.1376 316.111 3.42232 322.774C-30.0748 330.9 -64.3569 335.362 -98.8195 336.082C-109.139 336.484 -120.885 336.921 -134.057 336.96Z" fill="#002D52"/>
</svg>
