<svg width="1440" height="244" viewBox="0 0 1440 244" fill="none" xmlns="http://www.w3.org/2000/svg">
<path d="M1382.23 243.949C1253.36 244.33 1153.34 191.023 1067.27 138.046C958.343 71.016 873.274 22.1857 769.886 4.22084C703.09 -7.41105 640.687 20.0854 585.65 44.1538C576.611 48.1131 568.099 51.8542 559.555 55.4405C496.003 82.1043 440.961 104.377 395.946 121.665C293.564 161.077 228.855 163.312 139.29 166.394C87.8452 168.188 29.5509 170.187 -49.7372 179.091C-82.952 182.812 -115.1 190.989 -149.168 199.637C-172.366 205.465 -196.43 211.729 -221.242 216.385L-221.431 215.333C-196.65 210.646 -172.616 204.537 -149.357 198.615C-115.289 189.968 -83.0791 181.76 -49.8022 178.039C29.4858 169.134 87.8112 167.135 139.225 165.342C228.666 162.26 293.313 160.025 395.54 120.675C440.555 103.387 495.566 81.1146 559.118 54.4509C567.631 50.8956 576.175 47.1545 585.182 43.1642C640.374 18.9715 702.808 -8.49402 770.038 3.16755C873.612 21.1628 958.774 70.0547 1067.79 137.146C1179.17 205.717 1313.98 274.869 1504.58 227.052L1504.83 228.073C1464.76 238.327 1423.6 243.658 1382.23 243.949Z" fill="#002D52"/>
</svg>
