<svg width="1440" height="211" viewBox="0 0 1440 211" fill="none" xmlns="http://www.w3.org/2000/svg">
<path d="M1484.64 210.302C1444.72 210.204 1404.98 204.759 1366.51 194.115C1293.15 174.327 1227.49 140.087 1161.12 103.743C1031.04 32.5328 932.748 17.8973 837.708 3.71669L837.46 3.71742C776.592 -5.39274 723.654 26.442 676.905 54.4496C659.969 65.1221 642.402 74.7601 624.3 83.3105C560.101 111.679 501.329 130.402 449.594 138.946C370.755 153.083 310.619 140.162 247.01 126.476C176.205 111.171 95.7545 93.913 -25.0713 111.518C-68.2586 117.839 -109.306 135.022 -148.93 151.675C-164.841 158.349 -181.31 165.241 -197.719 171.39L-198.219 169.998C-181.841 163.756 -165.403 156.988 -149.492 150.314C-109.775 133.661 -68.6348 116.415 -25.0755 110.093C96.0909 92.3947 176.572 109.684 247.718 124.957C311.204 138.612 371.154 151.471 449.745 137.397C501.387 128.853 560.035 110.193 624.109 81.8866C642.128 73.3517 659.612 63.7347 676.467 53.0884C723.402 24.9254 776.587 -6.972 838.014 2.16748L838.231 2.16684C933.115 16.3789 1031.6 30.9829 1161.98 102.378C1275.73 164.655 1431.54 249.941 1615.3 186.351L1615.77 187.774C1573.63 202.535 1529.3 210.15 1484.64 210.302V210.302Z" fill="#002D52"/>
</svg>
