<svg width="1440" height="230" viewBox="0 0 1440 230" fill="none" xmlns="http://www.w3.org/2000/svg">
<path d="M1433.19 229.58C1391.9 229.554 1350.81 223.893 1311.05 212.754C1236.61 192.288 1170.45 155.882 1114.32 123.378C1001.24 57.8776 914.485 35.2497 822.64 11.3362L803.781 6.40636C744.381 -9.18007 688.588 21.1147 639.386 47.86C622.861 56.827 607.265 65.3268 592.128 71.8434C529.135 98.97 472.228 119.452 422.986 132.758C337.141 156.762 276.253 151.585 205.754 145.569C141.952 140.121 69.6552 133.987 -37.2032 147.804C-75.6215 152.779 -111.725 164.869 -149.934 177.647C-169.225 184.083 -189.165 190.769 -209.357 196.402L-209.701 195.196C-189.541 189.562 -169.445 182.876 -150.341 176.441C-112.07 163.632 -76.0283 151.448 -37.3619 146.565C69.6205 132.717 142.01 138.852 205.875 144.299C276.249 150.284 337.013 155.493 422.642 131.52C471.822 118.245 528.698 97.7946 591.629 70.6682C606.704 64.1828 622.269 55.714 638.763 46.747C688.274 19.908 744.191 -10.5421 804.087 5.16678L822.977 10.0966C914.915 34.0717 1001.77 56.6683 1115 122.261C1241.48 195.556 1380.04 262.654 1560.02 209.201L1560.4 210.408C1519.14 222.887 1476.29 229.345 1433.19 229.58Z" fill="#002D52"/>
</svg>
