<svg width="1440" height="182" viewBox="0 0 1440 182" fill="none" xmlns="http://www.w3.org/2000/svg">
<path d="M559.855 181.596C549.936 181.628 540.023 181.13 530.158 180.104C457.456 173.166 398.746 139.4 336.59 103.663C246.926 52.1213 154.375 -1.20804 11.8804 25.7197C-44.8689 36.6325 -92.6865 70.3411 -138.927 102.93C-146.659 108.403 -154.639 114.031 -162.465 119.381L-163.648 117.65C-155.853 112.301 -147.873 106.672 -140.141 101.231C-93.7458 68.4862 -45.7116 34.6222 11.5024 23.6461C154.523 -3.40708 247.571 50.0755 337.576 101.833C399.67 137.447 458.069 171.12 530.306 178.029C589.585 184.048 651.846 171.168 720.681 138.512C741.418 128.665 763.533 113.303 786.948 97.0382C829.261 67.6502 877.204 34.3439 938.581 16.0784C1047.15 -15.9825 1162.87 -0.252651 1302.72 65.6021L1324.02 75.6652C1459.34 139.861 1627.75 219.721 1780.91 140.832L1781.88 142.718C1627.79 222.075 1458.85 141.968 1322.97 77.5882C1315.83 74.203 1308.78 70.8485 1301.8 67.5867C1162.47 1.94712 1047.25 -13.7532 939.176 18.1824C878.202 36.2918 830.259 69.4743 788.224 98.9234C764.717 115.25 742.539 130.644 721.648 140.553C663.831 167.85 610.53 181.446 559.855 181.596Z" fill="#002D52"/>
</svg>
