<svg width="140" height="146" viewBox="0 0 140 146" fill="none" xmlns="http://www.w3.org/2000/svg">
<path opacity="0.4" d="M33.4166 115.559C33.1067 114.258 32.8897 113.329 32.6418 112.462C30.0073 102.553 27.3728 92.6436 24.6453 82.7655V82.1771C24.4283 81.6816 24.2733 81.1862 24.0874 80.6907C23.7154 79.3902 23.3745 78.1206 23.0336 76.82C22.8476 76.1697 22.7236 75.5504 22.5996 74.931C22.4292 73.3978 22.4292 71.8504 22.5996 70.3171C22.6983 69.5836 22.8537 68.8589 23.0646 68.1495L23.9944 64.7432C24.2113 64.1858 24.4283 63.6284 24.7073 63.0711V62.1111C27.6517 51.3349 30.5341 40.4349 33.5406 29.2871L29.6353 28.1413L24.7073 26.8408L14.5412 24.1467C13.7663 24.9828 13.0225 25.8189 12.3096 26.6859L24.7073 30.0303L26.7839 30.5876L29.8833 31.4857C29.6043 32.6933 29.3874 33.8081 29.1084 34.8919L24.5523 51.8613C23.8704 54.4625 23.1886 57.0327 22.4757 59.6338L19.9652 68.9236C19.8427 69.3503 19.7494 69.7848 19.6862 70.2242C19.6862 70.6268 19.4692 71.0293 19.3453 71.4319C19.1904 72.0415 19.1904 72.6802 19.3453 73.2898C19.3453 73.6924 19.5622 74.095 19.6552 74.4666C19.7242 75.0016 19.8383 75.5299 19.9962 76.0458C23.0956 87.5033 26.195 98.9917 29.2944 110.449C29.5423 111.378 29.7283 112.276 30.0072 113.546C28.8605 113.917 27.8067 114.32 26.7528 114.63L11.6277 118.624C12.3096 119.46 13.0225 120.296 13.7353 121.07L30.3172 116.642L33.4166 115.559ZM46.5891 108.498C57.964 105.402 69.3698 102.305 80.6827 99.2084C81.7753 98.8372 82.7635 98.2109 83.5651 97.3814C91.4996 89.547 99.3722 81.6507 107.276 73.7543C107.71 73.3208 108.112 72.8254 108.484 72.3918C108.407 72.1638 108.303 71.9455 108.174 71.7415C99.837 63.4117 91.5306 55.0508 83.1312 46.7519C82.2362 45.9901 81.1745 45.4491 80.0318 45.1727C69.2871 42.3444 58.5528 39.5059 47.8289 36.657C47.1241 36.5042 46.4095 36.4007 45.6903 36.3473C45.4733 36.9047 45.2873 37.2763 45.1634 37.6789C42.2189 48.6409 39.1195 59.5099 36.392 70.5648C36.0522 71.8852 36.0522 73.27 36.392 74.5904C39.1815 85.2737 42.064 95.8951 44.9464 106.547C45.1324 107.229 45.4423 107.879 45.6593 108.498C45.9689 108.518 46.2795 108.518 46.5891 108.498ZM43.9856 91.374C42.4979 85.8621 40.8862 80.3501 39.5844 74.8072C39.1845 73.5023 39.1206 72.1177 39.3985 70.7816C41.909 61.0273 44.5435 51.3349 47.178 41.6116C47.3437 41.054 47.5402 40.5061 47.7669 39.9704C48.6109 40.0396 49.4496 40.1637 50.2774 40.342C59.5757 42.8192 68.8739 45.2965 78.1722 47.8357C79.3984 48.0949 80.5391 48.6595 81.4885 49.4769C89.1441 56.9707 96.6756 64.5574 104.393 72.268C103.773 72.9802 103.308 73.6305 102.72 74.2188C95.9008 81.0314 89.0821 87.8749 82.2324 94.6564C81.4672 95.5434 80.4999 96.2337 79.4119 96.6692C68.9979 99.5181 58.5528 102.274 47.6739 105.185C46.4341 100.354 45.3184 95.8641 43.9856 91.374ZM120.479 78.9876C119.772 80.0014 119.006 80.9733 118.186 81.8984C109.259 90.8476 100.271 99.7658 91.4066 108.746C89.9391 110.268 88.0688 111.342 86.0137 111.843C75.3517 114.63 64.6897 117.468 54.0277 120.358C51.3622 121.04 48.7277 121.814 45.8143 122.619C46.1552 123.919 46.4031 125.034 46.7131 126.149C48.2421 131.867 49.7815 137.596 51.3312 143.335C52.3644 143.583 53.3975 143.8 54.4306 143.985L50.1534 128.069C49.9055 127.047 49.6885 126.025 49.4096 124.817C50.3084 124.508 51.0523 124.167 51.8581 123.95C63.6359 120.854 75.4137 117.571 87.2224 114.66C89.4796 114.093 91.5311 112.901 93.1423 111.223C101.418 102.831 109.786 94.5326 118.124 86.2027L121.223 83.1061C121.961 84.1897 122.768 85.2241 123.641 86.2027L135.449 98.0627C135.821 97.0408 136.162 96.0189 136.503 94.9661L123.331 81.8055C122.804 81.1862 121.812 80.3501 120.479 79.1115V78.9876ZM57.3131 88.4632C62.6751 87.0697 67.7891 85.7072 72.8101 84.3138C73.3268 84.1679 73.7968 83.8905 74.1739 83.5086C77.8622 79.8856 81.5505 76.2007 85.5178 72.268C82.4183 69.1714 79.3189 66.3844 76.6225 63.4117C74.6888 61.3809 72.1604 60.0148 69.4008 59.5099C65.4026 58.6119 61.4663 57.4972 57.2821 56.4133C56.5692 58.9216 56.1353 61.2131 55.2985 63.3807C52.8962 69.202 52.8962 75.7364 55.2985 81.5578C56.1353 83.6325 56.6002 86.0479 57.3131 88.5871V88.4632ZM56.1973 71.4009C57.1581 67.6231 58.2119 63.8452 59.2967 59.6338C63.4809 60.7796 67.2622 61.7395 71.0125 62.7304C71.8166 62.9924 72.5488 63.4377 73.1511 64.031C75.8166 66.6321 78.4201 69.2643 81.3335 72.1751L72.3143 81.1243C72.1607 81.2713 71.9662 81.3684 71.7563 81.403L59.3587 84.8402C58.2429 80.5978 57.1581 76.7271 56.2593 72.8563C56.1358 72.4232 56.1146 71.9674 56.1973 71.5248V71.4009ZM86.3856 32.8482C88.2282 33.32 89.9026 34.2959 91.2207 35.6661C100.178 44.7082 109.228 53.6883 118.248 62.6994C119.053 63.5046 119.921 64.2787 120.913 65.2077C121.905 64.2787 122.773 63.5046 123.579 62.6994L136.317 50.2201C135.976 49.1982 135.604 48.2073 135.232 47.1235L123.548 58.7977C122.742 59.6028 121.874 60.346 120.913 61.275L118.248 58.7977C109.693 50.2511 101.108 41.7045 92.5844 33.1269C91.3427 31.8243 89.7492 30.9099 87.9973 30.4948C77.6659 27.811 67.4172 25.0757 57.2511 22.2887L49.3786 20.0902C49.7505 18.6347 50.0294 17.4271 50.3394 16.2194L54.1517 2.06791C53.0979 2.2537 52.0131 2.50143 51.0523 2.74916L46.7751 18.6657C46.4961 19.7805 46.2792 20.8953 46.0002 22.1339L49.2546 23.0939C61.5593 26.3453 73.9569 29.7206 86.3856 32.972V32.8482ZM138.301 73.5685C137.929 73.197 137.681 72.7634 137.278 72.268L139.881 69.6668C139.881 68.3662 139.788 67.0657 139.603 65.7651C137.929 67.4682 136.224 69.1404 134.55 70.8126C134.055 71.308 133.59 71.8344 133.125 72.3299C133.466 72.7944 133.621 73.0421 133.838 73.2898L139.695 79.1115C139.695 77.8109 139.881 76.5103 139.912 75.1788L138.301 73.5685ZM33.4786 129.71C32.5487 129.896 31.8049 129.989 31.0921 130.205L25.4201 131.723C26.4739 132.466 27.5587 133.209 28.5195 133.921L29.8523 133.581C30.3096 133.466 30.7765 133.394 31.247 133.364C31.557 134.293 31.8979 135.16 32.1458 136.058C33.3236 136.708 34.5014 137.359 35.7412 137.947L34.3774 132.961C34.2844 131.94 33.8815 130.887 33.4786 129.71ZM10.9459 100.912C10.9459 100.509 10.7599 100.075 10.6359 99.6729C8.46632 91.4979 6.32774 83.2919 4.06517 75.1168C3.98853 74.8521 3.92645 74.5833 3.87921 74.3117C3.84889 73.8994 3.84889 73.4854 3.87921 73.0731C3.87921 72.6396 3.87921 72.206 3.87921 71.8035C3.90601 71.333 3.97865 70.8663 4.09614 70.41C4.08462 70.2141 4.08462 70.0176 4.09614 69.8217C6.4207 61.4608 8.62131 53.038 10.8529 44.6462C11.0698 43.7482 11.1938 42.8502 11.3488 41.8903L9.64412 41.3948H9.48914L8.12539 40.9303L3.60023 39.7226C3.13531 40.6207 2.70142 41.5187 2.2675 42.4477L4.65406 43.0979C5.61488 43.3457 6.60669 43.6553 7.75348 44.0269C7.75348 44.4295 7.75348 44.7701 7.56752 45.1107L7.38152 46.0397C7.38152 46.4423 7.38151 46.8139 7.13356 47.1855L3.56925 60.5009C2.73241 63.5975 1.92657 66.6941 1.05873 69.7907C0.593704 71.4095 0.593704 73.1264 1.05873 74.7452C1.95756 77.8419 2.79442 81.2791 3.69325 84.5305C4.84004 88.8658 5.9868 93.201 7.16458 97.5672C7.41253 98.5582 7.59849 99.5491 7.87743 100.664L1.67861 102.336C2.08153 103.234 2.51546 104.163 2.94938 105.061L6.73066 104.008L8.24935 103.606H8.65229L11.4728 102.831C11.2248 102.15 11.2248 101.5 10.9459 100.912ZM34.1295 13.3086C34.5944 11.6364 35.0283 9.93328 35.4932 8.26112C34.2844 8.88044 33.0757 9.49976 31.8979 10.181C31.7482 10.6145 31.5722 11.0385 31.371 11.4506L30.1312 11.2029C28.9535 11.9151 27.8377 12.6583 26.6909 13.4324L33.3856 15.1975C33.6742 14.5846 33.9227 13.9537 34.1295 13.3086ZM96.1177 17.0555C97.6581 17.4222 99.0582 18.2292 100.147 19.3779C104.455 23.7751 108.856 28.0794 113.196 32.4456C115.644 34.9539 118 37.524 120.634 40.311C121.905 39.1033 122.68 38.3911 123.424 37.6479L127.98 33.0649C127.453 32.2288 126.864 31.4237 126.275 30.6186L123.393 33.4675C122.649 34.2107 121.874 34.9229 120.82 35.9138C115.83 30.9283 110.902 26.4072 106.47 21.4217C102.552 16.8022 97.1517 13.6832 91.1897 12.5964C85.5798 11.5435 80.0938 9.74749 74.5768 8.26112L71.4774 7.3631C71.7254 6.21735 71.8493 5.22644 72.1283 4.26649C72.4072 3.30654 72.6862 2.0679 72.9961 0.953125H69.8967C69.3698 2.99689 68.8119 5.04065 68.254 7.14634C68.0648 7.97269 67.9302 8.81058 67.8511 9.65459C68.8119 9.96425 69.6178 10.2429 70.4236 10.4597C79.071 12.5035 87.5944 14.8259 96.1177 17.0555ZM120.448 104.473C119.707 105.546 118.911 106.579 118.062 107.569C112.142 113.515 106.16 119.398 100.302 125.375C99.1368 126.607 97.6411 127.478 95.9938 127.883C90.0429 129.431 84.092 131.011 78.1411 132.621L67.8511 135.439C68.0991 136.584 68.285 137.482 68.533 138.535L70.3926 145.472H73.492C73.0891 144.047 72.7172 142.623 72.3452 141.198C71.9733 139.774 71.8803 139.155 71.6014 138.102C72.4382 137.792 73.0891 137.482 73.771 137.297C81.5505 135.191 89.268 133.054 97.1406 131.104C99.1102 130.59 100.887 129.514 102.255 128.007C107.586 122.557 113.041 117.2 118.434 111.812C119.177 111.068 119.983 110.356 120.944 109.427C121.874 110.263 122.742 111.007 123.548 111.812L126.895 115.125L128.569 112.648L123.207 107.322C122.401 106.207 121.626 105.556 120.448 104.473Z" fill="#B3B3B3"/>
</svg>
