<svg width="984" height="432" viewBox="0 0 984 432" fill="none" xmlns="http://www.w3.org/2000/svg">
<g style="mix-blend-mode:overlay">
<g style="mix-blend-mode:overlay">
<path d="M155.11 395.219C161.804 394.197 168.499 393.175 175.225 392.122C159.934 387.581 143.728 387.058 128.176 390.605C131.43 392.277 134.623 394.042 137.846 395.684C143.571 394.965 149.354 394.809 155.11 395.219Z" fill="#FFFAF9"/>
</g>
<g style="mix-blend-mode:overlay">
<path d="M980.701 388.468C988.574 385.588 996.415 382.801 1004.26 380.169C1019.27 371.762 1035.92 366.692 1053.07 365.306C1060.72 363.241 1068.36 361.239 1076.01 359.298C1058.96 357.251 1041.68 358.788 1025.27 363.812C1008.85 368.836 993.673 377.234 980.701 388.468Z" fill="#FFFAF9"/>
</g>
<g style="mix-blend-mode:overlay">
<path d="M304.223 363.788C299.339 363.381 294.425 364.069 289.841 365.801C277.63 370.415 273.57 376.113 272.175 380.355L281.876 379.333C284.728 375.809 288.493 373.135 292.761 371.601C297.029 370.066 301.637 369.731 306.082 370.632C310.459 371.465 314.572 373.334 318.077 376.082C321.424 375.865 324.772 375.71 328.119 375.555C326.012 370.725 320.681 365.12 304.223 363.788Z" fill="#FFFAF9"/>
</g>
<g style="mix-blend-mode:overlay">
<path d="M92.8115 371.684C95.2291 373.047 97.6156 374.44 100.033 375.772C118.615 367.06 139.194 363.481 159.629 365.409C180.064 367.337 199.609 374.701 216.23 386.734L225.776 385.557C207.279 370.747 184.909 361.565 161.334 359.105C137.758 356.646 113.972 361.012 92.8115 371.684Z" fill="#FFFAF9"/>
</g>
<g style="mix-blend-mode:overlay">
<path d="M1307.35 225.896C1307.35 223.264 1307.6 220.632 1307.69 218.031C1291.75 226.535 1277.88 238.452 1267.09 252.93C1240.74 243.268 1239.81 250.36 1247.62 239.8C1262 220.173 1281.06 204.45 1303.07 194.063L1299.97 190.967L1297.37 189.326C1290.64 192.422 1293.18 190.688 1287.33 183.132C1269.18 171.675 1250.73 160.754 1231.97 150.37C1216.91 147.516 1201.37 148.417 1186.73 152.992C1172.1 157.566 1158.82 165.674 1148.07 176.598C1127.18 197.841 1146.58 194.497 1114.25 182.792C1122.36 168.909 1133.29 156.875 1146.33 147.462C1159.37 138.049 1174.23 131.467 1189.97 128.137C1187.09 126.588 1184.36 124.885 1181.54 123.275C1156.33 130.268 1134 145.12 1117.82 165.667C1101.86 185.826 1115.77 180.562 1087.72 175.7C1079.57 174.307 1106.91 129.685 1156.34 107.575C1154.33 106.275 1152.25 105.005 1150.15 103.642H1148.13C1128.2 113.18 1136.94 114.759 1125.32 103.642H1115.06C1119.58 107.196 1123.73 111.19 1127.46 115.564C1098.35 135.63 1118.81 132.967 1095.07 117.98C1085.32 111.782 1074.05 108.387 1062.5 108.169C1050.95 107.95 1039.56 110.916 1029.58 116.741C1003.51 131.914 1026.2 135.321 995.857 114.821C1000.65 109.338 1006.11 104.47 1012.1 100.329L1001.81 99.7098C982.685 115.564 999.979 113.273 969.047 100.329C969.791 99.3691 970.566 98.4711 971.31 97.5731L963.313 96.9538L962.631 97.7898L959.253 96.6132C936.317 94.7139 913.402 92.4327 890.508 89.7696C887.409 90.2961 887.13 90.5128 886.324 89.2742L877.77 88.2833C882.171 94.012 880.063 89.3051 856.074 98.3163C852.271 93.1978 848.073 88.3834 843.521 83.9171L831.898 82.2449C838.486 87.7744 844.451 94.0043 849.689 100.825C819.996 113.583 835.555 116.029 817.765 100.825C801.21 86.5821 780.173 78.6028 758.329 78.2802C736.484 77.9576 715.221 85.3122 698.251 99.0595C677.764 115.719 696.082 113.459 664.716 100.36C677.72 83.4285 695.148 70.4097 715.081 62.7363L703.551 60.5067C685.678 69.1193 670.153 81.9209 658.3 97.8208C631.955 88.1904 631.056 95.2816 638.836 84.7222C647.556 72.8624 658.003 62.3727 669.83 53.6013L661.399 51.7743L659.385 53.3536C658.858 52.5175 658.238 51.7743 657.649 50.9692L647.948 48.8635C658.858 59.3919 652.132 57.2553 637.131 76.0826C634.863 69.3852 630.511 63.588 624.71 59.5387C618.908 55.4894 611.963 53.4002 604.888 53.5766C597.814 53.7531 590.981 56.1859 585.39 60.5193C579.798 64.8528 575.74 70.8597 573.81 77.6619C556.608 55.5212 551.432 61.4047 565.131 47.3462C570.568 41.7674 577.1 37.3712 584.317 34.4333L574.058 32.0799C564.743 37.4574 556.955 45.1207 551.432 54.3445C530.914 37.0344 529.271 43.9709 537.671 33.3185C539.873 30.5245 542.243 27.8668 544.768 25.3602L537.175 23.6571C519.787 42.2367 536.524 39.1401 505.406 27.5588C507.389 24.2145 509.528 21.056 511.76 17.9903L504.631 16.442C495.767 29.3858 503.732 24.8338 478.968 20.5295C476.767 20.1579 477.263 16.5659 479.898 11.2397L473.327 9.90817C471.994 12.1377 470.227 14.9556 468.244 19.198C427.703 15.1105 445.773 28.0543 430.245 4.02462L422.496 3.52917C428.695 13.0667 430.369 20.0341 426.433 20.7153C399.499 25.3912 413.725 29.8193 397.143 9.44368C395.036 6.81156 392.773 4.33428 390.48 1.91892L380.685 1.5783C384.142 4.78614 387.402 8.19856 390.449 11.7971C405.946 29.9742 401.73 26.6918 391.161 31.3367C369.28 40.9671 389.736 36.1984 356.417 11.7971C350.416 7.44174 343.925 3.80421 337.077 0.958984C329.039 0.958984 321.011 1.07253 312.994 1.29961C334.078 4.08537 353.386 14.5634 367.203 30.7174C378.33 43.7231 375.354 36.9106 355.084 53.5394C349.354 44.3454 341.355 36.7777 331.854 31.563C322.353 26.3483 311.669 23.6617 300.829 23.7612C289.99 23.8607 279.357 26.7429 269.954 32.1312C260.55 37.5195 252.691 45.2327 247.132 54.5303C244.714 52.4865 242.544 50.7834 240.623 49.3589L236.625 54.5303C248.761 63.6717 259.414 74.6283 268.208 87.0137C273.911 95.0029 273.291 88.8097 247.597 98.4711C240.426 88.7756 231.886 80.1703 222.243 72.9241C220.849 74.6892 219.454 76.3923 218.059 78.1264C226.805 84.6528 234.597 92.3653 241.212 101.041C211.519 113.799 227.109 116.246 209.288 101.041C207.335 99.3382 205.32 97.7899 203.275 96.3035C201.849 98.0066 200.33 99.6788 198.905 101.382C204.741 105.521 210.04 110.368 214.681 115.812C186.166 135.445 205.104 133.277 183.687 118.909L181.424 121.51L179.254 123.832C187.468 128.849 192.117 134.67 189.389 137.612C168.097 160.496 183.811 154.52 166.516 143.465C165.209 142.649 163.841 141.935 162.425 141.328L157.156 146.407C160.604 147.58 163.77 149.457 166.454 151.919C175.411 160.094 171.258 159.567 164.067 174.059C131.461 170.746 136.761 178.456 132.019 169.105C126.13 174.183 120.149 179.138 114.105 184.061C142.641 177.125 172.607 178.94 200.095 189.269C227.583 199.599 251.319 217.963 268.208 241.968C273.88 249.926 273.322 243.764 247.597 253.456C236.194 237.992 221.322 225.412 204.176 216.726C187.029 208.039 168.083 203.488 148.858 203.437C129.633 203.386 110.663 207.836 93.4701 216.431C76.2771 225.026 61.339 237.526 49.8538 252.93C43.076 250.377 36.0854 248.429 28.9638 247.108L21.3702 252.403C42.1852 255.77 62.0168 263.625 79.4869 275.421C96.957 287.218 111.647 302.674 122.535 320.715C129.695 332.42 128.951 328.951 115.747 331.862C98.7006 335.578 107.503 338.056 94.7643 321.674C83.7419 307.335 69.6748 295.615 53.5755 287.359C37.4761 279.102 19.7449 274.514 1.65794 273.925C1.65794 276.154 1.47197 278.384 1.40998 280.613C17.6673 281.112 33.6373 285.026 48.28 292.101C62.9227 299.176 75.9099 309.252 86.3959 321.674C101.893 339.852 97.7088 336.569 87.1088 341.214C69.0392 349.141 81.9018 348.894 62.0965 329.788C45.598 313.916 23.8044 304.706 0.914062 303.931C0.914062 305.944 0.914062 307.957 0.914062 310.124C21.6491 310.124 43.779 318.082 63.2123 340.719C71.5807 350.473 71.9837 349.017 63.2123 354.746C65.2889 355.954 67.3035 357.254 69.4111 358.462C98.3694 339.868 132.951 332.043 167.102 336.357C201.254 340.671 232.798 356.849 256.213 382.058L265.17 381.098C262.381 378.311 258.351 374.317 252.401 368.867C257.291 360.272 264.351 353.109 272.877 348.092C281.403 343.074 291.097 340.378 300.991 340.271C310.886 340.165 320.635 342.652 329.267 347.485C337.899 352.317 345.113 359.327 350.187 367.814C347.088 370.663 344.453 372.985 342.222 374.936C345.662 374.936 349.071 374.936 352.481 374.936C367.744 360.58 385.913 349.662 405.76 342.921C425.607 336.179 446.671 333.771 467.53 335.858C488.389 337.945 508.557 344.478 526.672 355.018C544.787 365.558 560.428 379.858 572.539 396.953L580.35 398.223C577.529 390.76 587.075 366.792 610.476 370.756C623.215 372.923 636.356 386.61 629.072 397.727C625.167 403.611 620.766 395.9 589.183 399.647C604.68 402.124 619.929 404.602 635.24 406.986C646.522 408.72 657.773 410.547 669.055 412.343L667.536 411.631C661.337 408.906 700.204 365.182 757.264 365.182C816.153 365.182 852.013 410.361 848.759 411.631C825.637 421.788 831.03 424.327 826.629 419.434C811.229 402.212 789.959 391.338 766.969 388.933C743.979 386.529 720.917 392.766 702.281 406.429C698.343 409.191 694.66 412.3 691.278 415.718L699.119 416.988C713.408 403.27 753.824 383.08 795.821 404.044C803.477 407.853 826.35 423.584 821.887 426.742C819.748 428.229 818.013 429.56 816.401 430.799L826.753 431.294C857.529 410.147 895.196 401.469 932.133 407.017L943.694 402.62C937.495 400.979 938.983 398.749 952.527 383.669C973.527 360.279 1001.5 344.256 1032.31 337.966C1063.13 331.676 1095.15 335.453 1123.65 348.739L1134.87 346.54C1133.19 346.045 1130.12 344.249 1123.18 341.214C1114.25 337.281 1109.95 340.471 1124.76 322.634C1134.65 310.711 1146.83 300.879 1160.57 293.712C1174.31 286.546 1189.34 282.189 1204.79 280.898C1220.23 279.606 1235.78 281.405 1250.52 286.189C1265.27 290.974 1278.9 298.647 1290.64 308.762L1292.6 301.577C1280.04 291.343 1265.58 283.682 1250.06 279.034C1234.54 274.387 1218.25 272.842 1202.13 274.491C1186.01 276.139 1170.37 280.946 1156.11 288.639C1141.85 296.331 1129.25 306.758 1119.03 319.321C1103.03 339.077 1114.56 336.259 1094.54 331.893C1082.45 329.23 1082.42 332.451 1088.9 321.705C1134.87 245.188 1232.87 230.356 1299.13 276.898C1300.75 270.353 1302.29 263.799 1303.75 257.234C1289.74 269.621 1302.14 267.948 1276.32 256.584C1272.11 254.819 1284.82 238.716 1307.35 225.896ZM1154.42 179.447C1170.22 164.213 1191.23 155.555 1213.19 155.233C1235.14 154.911 1256.4 162.948 1272.63 177.713C1293.49 196.633 1286.3 194.992 1277.38 201.34C1259.68 213.727 1276.45 207.905 1250.69 189.883C1239.74 182.202 1226.63 178.202 1213.26 178.464C1199.89 178.725 1186.94 183.235 1176.31 191.338C1151.73 209.918 1169.27 215.089 1149.81 201.34C1142.03 195.89 1135.8 197.501 1154.42 179.571V179.447ZM1061.44 114.821C1084.35 114.821 1107.56 131.76 1102.2 137.55C1080.94 160.403 1096.56 154.427 1079.29 143.403C1071.88 138.722 1062.92 137.122 1054.34 138.944C1020.44 146.314 1048.49 165.544 1022.42 137.55C1013.86 128.446 1044.83 114.945 1061.47 114.945L1061.44 114.821ZM1076.94 173.997C1035.96 169.848 1054.93 183.287 1038.47 158.05C1040.45 154.605 1043.18 151.652 1046.46 149.409C1049.74 147.166 1053.49 145.692 1057.42 145.097C1061.35 144.501 1065.36 144.8 1069.16 145.97C1072.96 147.141 1076.44 149.153 1079.36 151.857C1088.34 160.125 1084.22 159.598 1077.15 174.121L1076.94 173.997ZM879.102 98.6569C983.026 76.1755 1050.47 172.975 1035.22 175.608C1008.32 180.283 1022.48 184.712 1005.93 164.336C994.305 149.979 979.594 138.422 962.888 130.522C946.181 122.621 927.909 118.581 909.426 118.7C890.943 118.819 872.725 123.094 856.122 131.209C839.518 139.324 824.957 151.069 813.519 165.575C797.557 185.733 811.473 180.469 783.454 175.608C773.908 173.966 812.837 112.994 879.102 98.6569ZM878.296 232.74C861.095 210.599 855.919 216.483 869.618 202.424C879.876 191.838 893.874 185.684 908.616 185.279C923.358 184.874 937.673 190.25 948.498 200.257C964.739 215.182 958.168 210.413 941.586 231.223C939.317 224.535 934.969 218.748 929.176 214.703C923.383 210.658 916.448 208.568 909.383 208.737C902.318 208.907 895.491 211.327 889.899 215.644C884.307 219.962 880.242 225.952 878.296 232.74ZM933.249 242.711C929.995 247.666 935.419 243.733 910.189 243.733C883.472 243.733 888.927 248.099 885.394 242.711C878.358 232.059 899.651 206.357 922.587 218.527C930.242 222.459 939.696 232.833 933.249 242.711ZM770.313 295.942C762.62 292.57 753.915 292.325 746.044 295.26C716.848 305.696 743.999 318.547 714.771 289.067C720.153 282.982 726.784 278.126 734.211 274.829C741.639 271.532 749.69 269.871 757.818 269.959C765.945 270.047 773.958 271.882 781.313 275.34C788.667 278.797 795.19 283.796 800.439 289.996C771.77 319.414 797.588 307.74 770.313 295.942ZM780.913 314.521C768.732 333.534 778.836 328.208 757.171 328.208C737.304 328.208 747.594 333.442 734.236 313.066C736.64 308.925 740.123 305.512 744.315 303.192C748.506 300.871 753.249 299.73 758.038 299.889C762.827 300.048 767.483 301.501 771.512 304.094C775.54 306.687 778.789 310.323 780.913 314.614V314.521ZM800.129 280.056C788.889 269.622 774.232 263.633 758.896 263.205C743.559 262.778 728.591 267.942 716.786 277.734C705.969 286.714 715.67 286.807 694.315 271.54C686.629 266.245 739.784 221.035 795.728 249.09C803.383 252.899 826.257 268.63 821.794 271.788C800.501 286.838 808.435 287.86 800.129 280.149V280.056ZM817.951 255.81C801.395 241.566 780.355 233.589 758.509 233.272C736.663 232.955 715.4 240.318 698.437 254.076C677.981 270.673 696.175 268.413 664.902 255.345C675.811 241.176 689.842 229.71 705.906 221.837C721.97 213.964 739.634 209.897 757.526 209.951C775.418 210.005 793.058 214.178 809.074 222.148C825.09 230.117 839.052 241.668 849.875 255.903C820.182 268.784 835.679 271.169 817.951 255.903V255.81ZM658.486 252.713C632.141 243.052 631.242 250.143 639.022 239.583C652.763 220.863 670.764 205.676 691.539 195.277C712.314 184.878 735.267 179.565 758.502 179.777C781.737 179.989 804.589 185.719 825.171 196.495C845.752 207.271 863.473 222.783 876.871 241.751C882.512 249.709 881.985 243.547 856.26 253.239C844.833 237.793 829.943 225.235 812.785 216.572C795.627 207.908 776.676 203.38 757.451 203.35C738.226 203.32 719.261 207.789 702.075 216.398C684.89 225.008 669.961 237.519 658.486 252.93V252.713ZM573.996 232.523C556.794 210.382 551.618 216.266 565.317 202.207C575.581 191.62 589.584 185.465 604.331 185.06C619.078 184.655 633.398 190.031 644.229 200.04C660.439 214.965 653.868 210.197 637.317 231.006C635.034 224.312 630.667 218.524 624.856 214.488C619.044 210.451 612.092 208.378 605.017 208.572C597.942 208.766 591.114 211.216 585.533 215.565C579.951 219.913 575.908 225.932 573.996 232.74V232.523ZM628.979 242.711C624.857 248.904 620.239 239.955 583.418 245.374C574.12 246.768 582.209 210.971 610.383 215.771C623.122 217.938 636.263 231.532 628.979 242.711ZM495.705 280.242C484.461 269.814 469.806 263.829 454.471 263.401C439.136 262.974 424.169 268.134 412.361 277.919C401.544 286.9 411.246 286.992 389.891 271.726C382.328 266.338 435.576 221.035 491.365 249.09C499.021 252.899 521.864 268.63 517.401 271.788C496.201 286.838 504.166 287.86 495.829 280.149L495.705 280.242ZM496.015 290.089C467.345 319.507 493.163 307.771 465.888 296.035C458.242 292.695 449.597 292.45 441.775 295.353C412.547 305.789 439.667 318.578 410.471 289.16C415.846 283.069 422.471 278.206 429.895 274.901C437.319 271.596 445.369 269.927 453.496 270.006C461.623 270.085 469.638 271.912 476.996 275.361C484.354 278.81 490.883 283.802 496.139 289.996L496.015 290.089ZM513.526 256.026C496.973 241.777 475.932 233.796 454.085 233.479C432.237 233.162 410.973 240.529 394.013 254.292C373.526 270.921 391.843 268.692 360.477 255.562C371.386 241.393 385.418 229.926 401.481 222.054C417.545 214.181 435.209 210.114 453.102 210.167C470.994 210.221 488.633 214.395 504.649 222.365C520.665 230.334 534.627 241.885 545.45 256.119C515.882 268.753 531.472 271.231 513.65 255.903L513.526 256.026ZM354.092 252.93C327.747 243.268 326.818 250.36 334.597 239.8C348.339 221.08 366.34 205.893 387.115 195.494C407.89 185.095 430.842 179.782 454.078 179.994C477.313 180.206 500.165 185.936 520.746 196.712C541.328 207.488 559.049 223 572.446 241.968C578.087 249.926 577.56 243.764 551.835 253.456C540.43 238.016 525.564 225.457 508.429 216.786C491.295 208.115 472.366 203.572 453.158 203.521C433.951 203.469 414.998 207.911 397.817 216.491C380.636 225.071 365.704 237.55 354.216 252.93H354.092ZM519.043 115.75C489.94 135.785 510.365 133.153 486.654 118.166C476.9 111.968 465.625 108.574 454.068 108.356C442.51 108.137 431.115 111.103 421.133 116.927C395.067 132.1 417.754 135.507 387.411 115.007C395.594 105.554 405.73 97.9846 417.122 92.8196C428.513 87.6546 440.889 85.0167 453.398 85.0873C465.908 85.1579 478.253 87.9354 489.585 93.2287C500.918 98.522 510.967 106.205 519.043 115.75ZM360.601 100.515C371.507 86.3402 385.537 74.8688 401.601 66.9924C417.665 59.1159 435.331 55.0465 453.226 55.1004C471.12 55.1543 488.761 59.3302 504.778 67.3033C520.794 75.2764 534.755 86.8321 545.574 101.072C515.882 113.83 531.472 116.277 513.65 101.072C497.095 86.8298 476.058 78.8506 454.214 78.528C432.37 78.2053 411.106 85.5599 394.137 99.3072C373.588 115.75 391.967 113.583 360.601 100.484V100.515ZM452.871 114.976C473.978 114.976 499.641 131.233 493.628 137.705C472.304 160.62 488.08 154.644 470.723 143.558C463.354 138.905 454.459 137.305 445.928 139.099C411.989 146.468 440.07 165.698 414.004 137.705C405.295 128.446 436.227 114.945 452.871 114.945V114.976ZM470.816 152.135C479.774 160.31 475.589 159.784 468.43 174.276C427.425 170.127 446.393 183.566 429.966 158.329C431.927 154.873 434.645 151.906 437.916 149.648C441.187 147.39 444.927 145.9 448.855 145.29C452.784 144.679 456.8 144.964 460.603 146.122C464.406 147.281 467.897 149.284 470.816 151.98V152.135ZM660.903 166.844C642.854 153.588 620.62 147.289 598.293 149.103C575.965 150.918 555.043 160.726 539.375 176.722C518.516 197.934 537.888 194.652 505.592 182.916C515.047 166.908 528.202 153.396 543.955 143.51C559.709 133.623 577.603 127.649 596.141 126.087C614.679 124.526 633.322 127.423 650.51 134.535C667.697 141.647 682.931 152.768 694.935 166.968C710.432 185.176 706.217 181.863 695.648 186.539C673.766 195.859 694.191 191.091 660.903 166.689V166.844ZM659.571 208.617C653.843 199.422 645.846 191.852 636.347 186.635C626.847 181.417 616.164 178.727 605.325 178.824C594.485 178.92 583.852 181.799 574.447 187.185C565.042 192.57 557.181 200.281 551.618 209.577C531.069 192.267 529.426 199.235 537.857 188.551C545.756 178.48 555.796 170.288 567.252 164.567C578.708 158.847 591.292 155.741 604.096 155.474C616.901 155.208 629.604 157.787 641.288 163.025C652.973 168.264 663.346 176.031 671.658 185.764C682.816 198.615 679.841 191.71 659.571 208.463V208.617ZM775.117 152.135C784.074 160.31 779.89 159.815 772.73 174.276C731.725 170.127 750.693 183.566 734.236 158.329C736.2 154.873 738.921 151.905 742.195 149.647C745.469 147.389 749.211 145.899 753.141 145.289C757.072 144.679 761.09 144.963 764.896 146.122C768.701 147.281 772.195 149.283 775.117 151.98V152.135ZM718.181 137.829C709.564 128.539 740.527 115.1 757.171 115.1C780.107 115.1 803.291 132.038 797.929 137.829C776.605 160.744 792.381 154.767 775.024 143.682C767.652 139.035 758.76 137.436 750.229 139.222C716.166 146.438 744.216 165.667 718.181 137.674V137.829ZM855.919 209.577C835.369 192.267 833.727 199.235 842.157 188.551C850.056 178.48 860.097 170.288 871.552 164.567C883.008 158.847 895.593 155.741 908.397 155.474C921.201 155.208 933.904 157.787 945.589 163.025C957.273 168.264 967.647 176.031 975.959 185.764C987.117 198.801 984.141 191.958 963.871 208.617C958.157 199.414 950.171 191.833 940.679 186.602C931.187 181.371 920.508 178.666 909.669 178.747C898.829 178.828 888.192 181.692 878.779 187.064C869.367 192.435 861.494 200.135 855.919 209.423V209.577ZM965.204 166.844C947.154 153.588 924.921 147.289 902.593 149.103C880.265 150.918 859.344 160.726 843.676 176.722C822.817 197.934 842.188 194.652 809.861 182.916C819.32 166.908 832.478 153.396 848.234 143.51C863.99 133.623 881.887 127.649 900.427 126.088C918.967 124.527 937.612 127.423 954.802 134.535C971.992 141.648 987.228 152.768 999.235 166.968C1014.73 185.145 1010.52 181.863 999.917 186.539C977.974 195.89 998.647 191.183 965.204 166.689V166.844ZM823.313 115.75C794.24 135.785 814.665 133.153 790.924 118.166C781.175 111.968 769.906 108.573 758.353 108.355C746.8 108.136 735.41 111.102 725.433 116.927C699.367 132.1 721.962 135.507 691.712 115.007C699.889 105.55 710.022 97.9767 721.411 92.8088C732.8 87.6409 745.175 85.0014 757.684 85.072C770.192 85.1426 782.537 87.9218 793.867 93.218C805.197 98.5142 815.243 106.201 823.313 115.75ZM730.919 175.639C703.985 180.314 718.212 184.743 701.63 164.367C690.011 150.005 675.304 138.444 658.599 130.54C641.895 122.636 623.623 118.594 605.141 118.713C586.659 118.832 568.44 123.109 551.839 131.227C535.238 139.345 520.681 151.096 509.249 165.606C493.256 185.764 507.203 180.5 479.154 175.639C469.608 173.997 508.567 113.025 574.833 98.6879C678.322 76.2685 746.261 172.975 730.919 175.608V175.639ZM618.441 63.4485C626.066 67.5051 635.519 77.8787 629.103 87.6639C626.004 92.5875 631.056 88.6858 606.013 88.6858C579.234 88.6858 584.751 93.052 581.217 87.6639C574.089 77.0116 595.32 51.2788 618.441 63.4485ZM572.694 87.0137C578.366 94.9719 577.808 88.7787 552.083 98.4711C540.676 83.0124 525.804 70.438 508.657 61.7556C491.511 53.0732 472.567 48.5241 453.344 48.4729C434.121 48.4218 415.154 52.8699 397.961 61.4609C380.769 70.0519 365.829 82.5469 354.34 97.9447C327.995 88.3142 327.065 95.4055 334.845 84.8461C348.59 66.1498 366.585 50.985 387.348 40.6018C408.11 30.2185 431.046 24.914 454.263 25.1258C477.48 25.3375 500.315 31.0592 520.885 41.8194C541.454 52.5795 559.169 68.0699 572.57 87.0137H572.694ZM269.85 77.7239C252.618 55.5831 247.473 61.4666 261.141 47.4081C271.4 36.813 285.405 30.6532 300.154 30.2481C314.904 29.8429 329.225 35.2246 340.052 45.2404C356.262 60.1661 349.691 55.3973 333.14 76.2065C330.896 69.4726 326.547 63.6367 320.734 59.5578C314.921 55.479 307.95 53.373 300.848 53.5499C293.747 53.7267 286.89 56.1771 281.287 60.5402C275.684 64.9034 271.632 70.9486 269.726 77.7858L269.85 77.7239ZM324.803 87.602C321.548 92.5566 326.849 88.6239 301.743 88.6239C275.026 88.6239 280.481 92.9901 276.948 87.602C269.943 76.9187 291.205 51.2169 314.141 63.3866C321.642 67.505 331.095 77.8787 324.679 87.6639L324.803 87.602ZM174.977 175.546C165.679 173.935 204.484 112.932 270.656 98.595C374.734 76.0827 441.961 172.914 426.743 175.546C399.809 180.221 414.035 184.65 397.453 164.274C385.831 149.918 371.123 138.361 354.419 130.46C337.715 122.56 319.445 118.52 300.965 118.638C282.484 118.757 264.268 123.033 247.667 131.148C231.067 139.262 216.508 151.008 205.073 165.513C188.956 185.733 202.841 180.469 174.853 175.608L174.977 175.546ZM201.415 182.575C210.875 166.573 224.032 153.067 239.785 143.184C255.539 133.302 273.431 127.33 291.966 125.769C310.502 124.208 329.142 127.103 346.329 134.211C363.516 141.319 378.75 152.434 390.758 166.627C406.256 184.835 402.04 181.522 391.471 186.198C369.589 195.797 390.046 191.029 356.727 166.627C338.677 153.372 316.444 147.072 294.116 148.887C271.788 150.702 250.867 160.509 235.199 176.506C214.247 197.779 233.587 194.497 201.291 182.637L201.415 182.575ZM233.68 188.335C241.586 178.267 251.63 170.08 263.088 164.362C274.546 158.645 287.131 155.541 299.936 155.275C312.74 155.008 325.445 157.585 337.131 162.821C348.817 168.056 359.194 175.818 367.513 185.548C378.64 198.553 375.664 191.741 355.394 208.401C349.667 199.205 341.67 191.635 332.17 186.418C322.671 181.2 311.988 178.511 301.148 178.607C290.308 178.703 279.675 181.583 270.27 186.968C260.865 192.354 253.004 200.065 247.442 209.361C226.799 192.112 225.157 199.049 233.556 188.397L233.68 188.335ZM269.85 232.678C252.618 210.537 247.473 216.421 261.141 202.362C271.404 191.774 285.407 185.62 300.154 185.215C314.902 184.809 329.222 190.186 340.052 200.195C356.293 215.151 349.66 210.413 333.14 231.161C330.896 224.427 326.547 218.591 320.734 214.512C314.921 210.433 307.95 208.327 300.848 208.504C293.747 208.681 286.89 211.131 281.287 215.494C275.684 219.857 271.632 225.903 269.726 232.74L269.85 232.678ZM324.679 242.711C320.433 249.152 317.581 239.614 279.118 245.374C269.819 246.768 277.909 210.971 306.082 215.771C318.821 217.938 331.963 231.532 324.679 242.711ZM56.3316 255.531C67.2375 241.362 81.266 229.896 97.3273 222.023C113.389 214.15 131.05 210.083 148.941 210.137C166.831 210.191 184.468 214.365 200.481 222.334C216.495 230.303 230.454 241.854 241.274 256.088C211.581 268.877 227.078 271.231 209.35 256.088C192.794 241.845 171.754 233.867 149.908 233.55C128.062 233.233 106.799 240.597 89.8363 254.354C69.3182 270.797 87.7287 268.568 56.3316 255.438V255.531ZM85.7141 271.881C78.0275 266.431 131.152 221.221 187.158 249.183C194.813 252.992 217.656 268.723 213.193 271.881C191.9 286.931 199.866 287.952 191.497 280.242C180.259 269.816 165.608 263.832 150.279 263.405C134.949 262.977 119.987 268.136 108.185 277.919C97.3988 286.807 107.038 286.9 85.7141 271.788V271.881ZM106.201 289.16C111.581 283.076 118.208 278.22 125.633 274.923C133.059 271.626 141.107 269.965 149.232 270.054C157.357 270.142 165.368 271.977 172.72 275.434C180.072 278.891 186.592 283.89 191.838 290.089C163.168 319.507 188.987 307.771 161.712 296.035C154.03 292.661 145.334 292.417 137.474 295.353C108.247 305.696 135.367 318.485 106.201 289.16ZM148.601 328.394C128.703 328.394 138.993 333.627 125.665 313.252C128.057 309.105 131.53 305.685 135.715 303.356C139.899 301.026 144.637 299.875 149.425 300.024C154.212 300.174 158.87 301.618 162.9 304.204C166.931 306.79 170.184 310.42 172.312 314.707C160.131 333.689 170.173 328.301 148.601 328.301V328.394ZM355.27 363.479C346.71 349.706 333.175 339.751 317.469 335.675C301.764 331.599 285.091 333.716 270.904 341.586C232.254 363.262 263.372 373.233 231.263 352.61C217.749 343.939 306.051 269.187 367.389 340.657C378.516 353.57 375.54 346.664 355.27 363.479ZM391.347 341.276C373.278 349.203 386.171 348.987 366.335 329.85C350.554 314.552 329.858 305.337 307.922 303.841C285.985 302.344 264.227 308.663 246.512 321.674C211.054 347.624 234.765 352.083 210.032 341.214C201.136 337.281 196.797 340.471 211.643 322.634C222.519 309.502 236.146 298.913 251.564 291.616C266.982 284.319 283.815 280.491 300.875 280.403C317.935 280.314 334.807 283.967 350.3 291.103C365.793 298.24 379.53 308.686 390.542 321.705C406.039 339.852 401.916 336.569 391.347 341.214V341.276ZM420.079 331.986C403.063 335.702 411.865 338.179 399.127 321.798C387.771 307.093 373.232 295.145 356.599 286.849C339.965 278.553 321.669 274.125 303.08 273.896C284.491 273.666 266.091 277.642 249.258 285.525C232.424 293.407 217.594 304.993 205.878 319.414C189.854 339.139 201.477 336.352 181.393 331.986C169.243 329.323 169.274 332.574 175.752 321.798C232.657 227.073 369.342 226.733 426.805 320.838C434.088 332.513 433.282 328.951 420.079 331.862V331.986ZM452.871 328.425C433.003 328.425 443.294 333.627 429.966 313.283C432.358 309.136 435.831 305.716 440.015 303.387C444.199 301.057 448.938 299.906 453.725 300.055C458.513 300.205 463.17 301.649 467.201 304.235C471.231 306.821 474.484 310.451 476.612 314.738C464.401 333.689 474.474 328.301 452.871 328.301V328.425ZM485.694 331.986C473.544 329.323 473.575 332.574 480.053 321.798C536.865 227.197 673.58 226.609 731.105 320.838C738.296 332.636 737.49 329.075 724.286 331.986C707.271 335.702 716.042 338.179 703.303 321.798C691.95 307.093 677.414 295.145 660.784 286.85C644.153 278.554 625.859 274.126 607.272 273.896C588.685 273.667 570.288 277.643 553.457 285.525C536.626 293.408 521.799 304.994 510.086 319.414C494.155 339.015 505.747 336.228 485.694 331.862V331.986ZM514.425 341.276C505.53 337.343 501.191 340.533 516.006 322.696C526.887 309.568 540.518 298.983 555.939 291.689C571.359 284.395 588.192 280.569 605.253 280.481C622.314 280.392 639.187 284.043 654.682 291.177C670.177 298.31 683.918 308.752 694.935 321.767C710.432 339.944 706.217 336.662 695.648 341.307C677.578 349.234 690.441 348.987 670.636 329.88C654.853 314.616 634.171 305.428 612.256 303.943C590.34 302.458 568.606 308.772 550.905 321.767C515.448 347.624 539.158 352.083 514.425 341.214V341.276ZM535.563 352.61C522.05 343.939 610.383 269.218 671.658 340.657C682.816 353.631 679.841 346.85 659.571 363.479C651.005 349.712 637.471 339.761 621.767 335.686C606.063 331.611 589.393 333.723 575.205 341.586C534.974 363.912 568.448 373.666 535.563 352.548V352.61ZM608.523 363.85C603.639 363.443 598.726 364.131 594.142 365.863C557.755 379.674 593.646 403.022 556.701 368.96C561.591 360.365 568.652 353.202 577.178 348.185C585.703 343.167 595.397 340.471 605.292 340.364C615.186 340.258 624.936 342.745 633.568 347.578C642.2 352.41 649.413 359.42 654.488 367.907C616.21 402.372 653 367.349 608.523 363.788V363.85ZM854.679 406.367C843.386 391.75 828.947 379.858 812.432 371.571C795.917 363.283 777.748 358.811 759.269 358.487C740.791 358.163 722.476 361.995 705.679 369.698C688.883 377.402 674.036 388.78 662.236 402.991C657.37 408.875 660.315 408.503 653.868 406.367C634.868 400.173 627.709 406.367 648.072 383.73C663.093 366.996 681.768 353.94 702.651 345.576C723.534 337.212 746.064 333.763 768.496 335.496C790.928 337.23 812.659 344.1 832.006 355.573C851.353 367.047 867.797 382.816 880.063 401.66C853.346 406.831 858.119 410.764 854.679 406.305V406.367ZM933.249 397.541C929.034 403.982 926.244 394.445 887.719 400.204C878.42 401.536 886.541 365.77 914.683 370.57C927.422 372.768 940.564 386.486 933.249 397.541ZM912.886 363.788C907.992 363.384 903.069 364.071 898.474 365.801C862.117 379.612 898.009 402.96 861.064 368.898C865.954 360.303 873.014 353.14 881.54 348.123C890.066 343.105 899.76 340.409 909.654 340.302C919.549 340.196 929.298 342.683 937.93 347.516C946.562 352.348 953.776 359.358 958.85 367.845C920.51 402.372 957.269 367.349 912.886 363.788ZM963.933 363.417C955.368 349.65 941.833 339.7 926.13 335.625C910.426 331.549 893.755 333.661 879.567 341.524C841.196 362.89 871.881 373.109 839.926 352.548C826.412 343.877 914.683 269.125 976.021 340.595C987.272 353.6 984.172 346.664 963.871 363.479L963.933 363.417ZM999.979 341.214C981.91 349.141 994.803 348.925 974.967 329.788C959.187 314.532 938.511 305.348 916.602 303.863C894.694 302.378 872.966 308.688 855.268 321.674C819.81 347.624 843.521 352.083 818.788 341.214C809.861 337.281 805.522 340.502 820.368 322.634C831.247 309.501 844.877 298.912 860.297 291.615C875.718 284.318 892.553 280.49 909.616 280.402C926.678 280.313 943.552 283.966 959.048 291.102C974.544 298.239 988.283 308.686 999.297 321.705C1014.64 339.852 1010.52 336.569 999.917 341.214H999.979ZM1028.74 331.924C1011.7 335.64 1020.5 338.117 1007.76 321.736C996.403 307.031 981.864 295.083 965.231 286.787C948.597 278.491 930.301 274.063 911.712 273.834C893.123 273.604 874.723 277.58 857.89 285.463C841.057 293.346 826.227 304.931 814.51 319.352C798.486 339.077 810.14 336.29 790.025 331.924C777.906 329.261 777.937 332.513 784.384 321.736C841.382 226.794 978.129 226.887 1035.44 320.776C1042.72 332.513 1041.82 328.982 1028.68 331.862L1028.74 331.924ZM1061.53 328.363C1043.62 328.363 1050.13 332.389 1042.44 319.383C1032.06 301.732 1072.2 288.85 1085.28 314.676C1073.03 333.596 1083.17 328.301 1061.47 328.301L1061.53 328.363ZM1102.29 292.69C1081.03 315.543 1096.65 309.598 1079.39 298.574C1071.97 293.882 1063.02 292.271 1054.44 294.084C1020.53 301.485 1048.58 320.715 1022.51 292.69C1013.71 283.246 1046.69 268.165 1067.3 270.24C1083.35 271.819 1108.37 286.063 1102.23 292.628L1102.29 292.69ZM1126.16 271.85C1104.83 286.9 1112.8 287.921 1104.46 280.211C1093.22 269.777 1078.56 263.787 1063.23 263.36C1047.89 262.933 1032.92 268.097 1021.12 277.888C1010.3 286.869 1020 286.962 998.647 271.695C990.898 266.214 1044.11 221.035 1100.06 248.997C1107.71 252.899 1130.53 268.63 1126.09 271.788L1126.16 271.85ZM1153 256.615C1129.88 266.772 1135.3 269.311 1130.9 264.387C1115.49 247.169 1094.22 236.301 1071.23 233.902C1048.24 231.504 1025.18 237.746 1006.55 251.412C981.135 269.992 1001.13 269.497 971.806 256.615C965.452 253.828 1004.69 210.011 1061.53 210.011C1120.36 209.949 1156.16 255.097 1152.94 256.553L1153 256.615ZM1159.04 251.412C1147.75 236.796 1133.31 224.904 1116.79 216.616C1100.28 208.329 1082.11 203.857 1063.63 203.533C1045.15 203.209 1026.84 207.041 1010.04 214.744C993.246 222.448 978.398 233.826 966.599 248.037C961.733 253.89 964.646 253.549 958.23 251.412C939.014 245.219 932.04 251.412 952.434 228.776C967.453 212.046 986.125 198.994 1007 190.631C1027.88 182.267 1050.41 178.817 1072.83 180.548C1095.26 182.278 1116.99 189.143 1136.33 200.61C1155.68 212.077 1172.12 227.839 1184.39 246.675C1158.02 252.001 1162.39 255.748 1158.98 251.351L1159.04 251.412ZM1165.24 213.944C1170.14 205.359 1177.2 198.205 1185.73 193.197C1194.26 188.188 1203.95 185.498 1213.84 185.394C1223.73 185.291 1233.48 187.778 1242.11 192.607C1250.74 197.437 1257.95 204.441 1263.03 212.922C1226.45 245.962 1261.54 221.933 1224.35 210.29C1219.75 208.761 1214.85 208.347 1210.06 209.082C1167.22 214.842 1202.96 248.595 1165.27 213.882L1165.24 213.944ZM1237.55 242.711C1234.45 247.666 1239.72 243.733 1214.49 243.733C1187.8 243.733 1193.23 248.099 1189.69 242.711C1182.41 231.656 1204.26 206.512 1226.89 218.527C1234.51 222.459 1244 232.833 1237.55 242.711Z" fill="#FFFAF9"/>
</g>
<g style="mix-blend-mode:overlay">
<path d="M390.294 375.37C394.819 375.556 399.344 375.741 403.869 375.989C419.205 368.786 435.926 365.003 452.871 364.903C478.578 365.086 503.527 373.63 523.941 389.243L536.338 391.131C516.898 373.218 492.212 362.017 465.919 359.179C439.625 356.341 413.115 362.017 390.294 375.37Z" fill="#FFFAF9"/>
</g>
<g style="mix-blend-mode:overlay">
<path d="M734.204 422.593L751.034 425.287C759.153 424.402 767.367 425.279 775.116 427.857C780.943 428.352 786.801 428.817 792.69 429.25C784.217 423.475 774.463 419.851 764.272 418.691C754.081 417.531 743.76 418.87 734.204 422.593Z" fill="#FFFAF9"/>
</g>
</g>
</svg>
