<svg width="70" height="70" viewBox="0 0 70 70" fill="none" xmlns="http://www.w3.org/2000/svg">
<path d="M41.7153 26.6592C39.5688 25.6129 38.4475 23.8968 38.3622 20.0346C38.2768 16.1724 35.346 17.5976 35.346 17.5976L30.507 20.7593C30.507 20.7593 28.0247 22.8709 31.5274 24.5003C35.0301 26.1296 36.1514 27.8457 36.2475 30.2317C36.3435 32.6177 36.717 43.6378 42.1099 50.3989C47.5027 57.16 51.2511 56.1801 51.2511 56.1801C51.2511 56.1801 53.0666 55.9735 55.8005 54.1872C58.5344 52.4009 59.4528 50.8213 59.4528 50.8213C59.4528 50.8213 61.8557 47.7821 57.8298 40.1278C53.804 32.4736 43.8618 27.7054 41.7153 26.6592Z" fill="#3D4349"/>
<path d="M31.5789 39H13.4211C13.4211 39 11 39 11 42.5172C11 46.0345 12.8158 50.7241 17.0526 52.4828V54.2414C17.0621 54.711 17.2615 55.1583 17.6078 55.4871C17.9541 55.816 18.4198 56.0001 18.9048 56H26.0952C26.5802 56.0001 27.0459 55.816 27.3922 55.4871C27.7385 55.1583 27.9379 54.711 27.9474 54.2414V52.4828C32.1842 50.7241 34 46.0345 34 42.5172C34 39 31.5789 39 31.5789 39Z" fill="#3D4349"/>
</svg>
