<svg width="70" height="70" viewBox="0 0 70 70" fill="none" xmlns="http://www.w3.org/2000/svg">
<path d="M52.8405 25.1293C51.5961 23.0913 51.5763 21.0414 53.5856 17.7419C55.5949 14.4425 52.358 14.0637 52.358 14.0637L46.578 14.1196C46.578 14.1196 43.349 14.5608 45.4217 17.8208C47.4944 21.0809 47.5142 23.1307 46.3094 25.1924C45.1046 27.2541 39.4809 36.7386 40.3805 45.3402C41.28 53.9417 44.9657 55.1361 44.9657 55.1361C44.9657 55.1361 46.6064 55.9403 49.872 55.9087C53.1376 55.8772 54.7624 55.0415 54.7624 55.0415C54.7624 55.0415 58.4243 53.7761 59.1576 45.1588C59.8908 36.5415 54.0849 27.1673 52.8405 25.1293Z" fill="#3D4349"/>
<path d="M31.5789 39H13.4211C13.4211 39 11 39 11 42.5172C11 46.0345 12.8158 50.7241 17.0526 52.4828V54.2414C17.0621 54.711 17.2615 55.1583 17.6078 55.4871C17.9541 55.816 18.4198 56.0001 18.9048 56H26.0952C26.5802 56.0001 27.0459 55.816 27.3922 55.4871C27.7385 55.1583 27.9379 54.711 27.9474 54.2414V52.4828C32.1842 50.7241 34 46.0345 34 42.5172C34 39 31.5789 39 31.5789 39Z" fill="#3D4349"/>
</svg>
