<svg xmlns="http://www.w3.org/2000/svg" width="31" height="30" fill="none" viewBox="0 0 31 30">
  <path stroke="#3D4349" strokeLinecap="round" strokeLinejoin="round" strokeWidth="2" d="M21.583 14.644a5.4 5.4 0 00-.335-2.088 5.352 5.352 0 00-1.11-1.792 5.28 5.28 0 00-1.71-1.217 5.228 5.228 0 00-2.042-.45 4.512 4.512 0 00-2.788.98 4.604 4.604 0 00-1.607 2.504 4.604 4.604 0 00-1.606-2.505 4.511 4.511 0 00-2.788-.978 5.228 5.228 0 00-2.037.454 5.28 5.28 0 00-1.705 1.218 5.353 5.353 0 00-1.105 1.79 5.4 5.4 0 00-.334 2.084c0 .625 0 7.034 9.576 12.258C21.6 21.678 21.6 15.27 21.582 14.645z"/>
</svg>
