<svg width="22" height="20" viewBox="0 0 22 20" fill="none" xmlns="http://www.w3.org/2000/svg">
<path d="M20.5833 6.64372C20.6101 5.93222 20.4961 5.2225 20.248 4.55621C19.9999 3.88993 19.6226 3.28052 19.1384 2.76384C18.6543 2.24716 18.073 1.8336 17.4286 1.54747C16.7843 1.26133 16.0899 1.10841 15.3864 1.09766C14.3753 1.10093 13.3941 1.44524 12.5981 2.0761C11.8022 2.70695 11.2368 3.58835 10.9915 4.58085C10.7462 3.58835 10.1808 2.70695 9.38483 2.0761C8.58886 1.44524 7.60774 1.10093 6.59667 1.09766C5.89451 1.11063 5.20194 1.26522 4.55953 1.55234C3.91713 1.83946 3.33778 2.25335 2.8554 2.7698C2.37301 3.28625 1.99729 3.8949 1.75021 4.56008C1.50313 5.22527 1.38965 5.93362 1.41644 6.64372C1.41644 7.26934 1.41646 13.6778 10.9915 18.9025C20.6 13.6778 20.6 7.26934 20.5833 6.64372Z" stroke="#3D4349" stroke-width="2" stroke-linecap="round" stroke-linejoin="round"/>
</svg>
