<svg width="49" height="42" viewBox="0 0 49 42" fill="none" xmlns="http://www.w3.org/2000/svg">
<path d="M41.8405 11.1293C40.5961 9.09129 40.5763 7.04144 42.5856 3.74195C44.5949 0.442462 41.358 0.0637221 41.358 0.0637221L35.578 0.11956C35.578 0.11956 32.349 0.560762 34.4217 3.82082C36.4944 7.08087 36.5142 9.13073 35.3094 11.1924C34.1046 13.2541 28.4809 22.7386 29.3805 31.3402C30.28 39.9417 33.9657 41.1361 33.9657 41.1361C33.9657 41.1361 35.6064 41.9403 38.872 41.9087C42.1376 41.8772 43.7624 41.0415 43.7624 41.0415C43.7624 41.0415 47.4243 39.7761 48.1576 31.1588C48.8908 22.5415 43.0849 13.1673 41.8405 11.1293Z" fill="#3D4349"/>
<path d="M20.5789 25H2.42105C2.42105 25 0 25 0 28.5172C0 32.0345 1.81579 36.7241 6.05263 38.4828V40.2414C6.06214 40.711 6.26149 41.1583 6.6078 41.4871C6.95411 41.816 7.41979 42.0001 7.90477 42H15.0952C15.5802 42.0001 16.0459 41.816 16.3922 41.4871C16.7385 41.1583 16.9379 40.711 16.9474 40.2414V38.4828C21.1842 36.7241 23 32.0345 23 28.5172C23 25 20.5789 25 20.5789 25Z" fill="#3D4349"/>
</svg>
