<svg xmlns="http://www.w3.org/2000/svg" width="52" height="48" fill="none" viewBox="0 0 52 48">
  <mask id="a" width="52" height="46" x="0" y="0" maskUnits="userSpaceOnUse" style="mask-type:alpha">
    <path fill="#C4C4C4" d="M0 0h52v46H0z"/>
  </mask>
  <g mask="url(#a)">
    <path fill="#3D4349" d="M21.579 25H3.42S1 25 1 28.517c0 3.518 1.816 8.207 6.053 9.966v1.758c.01.47.208.917.555 1.246.346.329.812.513 1.297.513h7.19c.485 0 .95-.184 1.297-.513.346-.329.546-.776.555-1.246v-1.758C22.184 36.724 24 32.035 24 28.517 24 25 21.579 25 21.579 25zM31.808 13.602c-2.195-.94-3.4-2.598-3.674-6.452-.275-3.853-3.132-2.286-3.132-2.286L20.324 8.26s-2.376 2.23 1.203 3.686c3.578 1.455 4.782 3.114 4.995 5.493.213 2.378 1.128 13.367 6.846 19.855 5.718 6.488 9.414 5.325 9.414 5.325s1.803-.295 4.446-2.214c2.643-1.918 3.483-3.54 3.483-3.54s2.25-3.154-2.146-10.602c-4.397-7.447-14.562-11.721-16.757-12.66z"/>
  </g>
  <path stroke="#3D4349" strokeLinecap="round" strokeWidth="2" d="M12 47h28.5"/>
</svg>
