<svg xmlns="http://www.w3.org/2000/svg" width="173" height="30" fill="none" viewBox="0 0 173 30">
  <path fill="#3D4349" d="M12.021 27.353v.186c0 .283.168.548.504.796.354.248.664.372.929.372.336 0 .504-.168.504-.505l-.08-12.206a53.078 53.078 0 003.185 3.582 36.248 36.248 0 003.158 2.813 70.467 70.467 0 003.689 2.654c.088.053.168.08.238.08.177 0 .38-.09.61-.266.23-.177.434-.363.611-.557.177-.213.265-.345.265-.398a.33.33 0 00-.106-.24c-.07-.07-.15-.132-.239-.185a50.125 50.125 0 01-3.9-2.441 32.675 32.675 0 01-3.344-2.734 47.71 47.71 0 01-3.29-3.423l8.81-.451a1.14 1.14 0 00.371-.106c.124-.07.186-.168.186-.292 0-.16-.089-.345-.266-.557a2.138 2.138 0 00-.61-.584 1.161 1.161 0 00-.716-.265.501.501 0 00-.16.026.779.779 0 00-.185.027 5.2 5.2 0 01-.956.212c-.283.035-.61.07-.982.106l-6.395.345-.026-4.617c1.008-.23 2.034-.478 3.078-.743a62.495 62.495 0 003.184-.903c.16-.053.239-.185.239-.398 0-.194-.08-.442-.239-.743-.159-.3-.345-.566-.557-.796-.212-.247-.398-.371-.557-.371-.089 0-.16.044-.213.132a1.712 1.712 0 01-.504.505 4.08 4.08 0 01-.451.238 81.778 81.778 0 01-5.573 1.885c-1.999.583-4.157 1.132-6.475 1.645-.495.106-.743.283-.743.53 0 .23.222.346.664.346h.186a44.456 44.456 0 003.13-.425c1.045-.177 2.088-.363 3.132-.557v4.378l-7.324.398h-.318c-.46 0-.956-.053-1.486-.159a.588.588 0 00-.186-.026c-.106 0-.16.061-.16.185 0 .106.071.319.213.637.141.3.327.53.557.69.23.142.549.212.956.212h.371c.142 0 .292-.008.451-.026l5.44-.292c-1.309 2.158-2.742 4.025-4.299 5.6-1.557 1.556-3.096 2.91-4.617 4.06-.372.282-.557.53-.557.742 0 .124.088.186.265.186.141 0 .478-.142 1.008-.425.531-.283 1.186-.698 1.964-1.247a31.395 31.395 0 002.548-2.043 26.397 26.397 0 002.706-2.733 23.208 23.208 0 002.468-3.397l.027 9.553c0 .354-.018.69-.053 1.009a16.97 16.97 0 01-.08.981zM45.59 16.898l-2.123.345c-.513.07-.77.195-.77.371 0 .107.089.204.266.292.177.089.38.15.61.186.265.036.69.115 1.274.239.584.106 1.15.23 1.698.371.07.018.133.036.186.053h.212c.319 0 .558-.08.717-.238.177-.177.3-.354.371-.531.071-.177.106-.283.106-.319a.61.61 0 00-.106-.345 1.784 1.784 0 00-.292-.371c-.336-.354-.76-.929-1.273-1.725a260.646 260.646 0 01-1.593-2.654 99.207 99.207 0 003.424-.822c.813-.212 1.397-.38 1.751-.504.354-.142.566-.266.637-.372a.57.57 0 00.106-.318.633.633 0 00-.371-.61 2.154 2.154 0 00-.744-.24 3.597 3.597 0 00-.504-.08h-.185a.75.75 0 00-.398.187c-.124.088-.257.159-.399.212-.353.141-.902.31-1.645.504-.743.195-1.574.39-2.494.584a77.66 77.66 0 01-2.23-4.325 1.844 1.844 0 00-.37-.584c-.125-.142-.39-.213-.797-.213-.212 0-.46.018-.743.053-.265.018-.407.08-.425.186v.053c0 .124.071.23.213.319.141.088.256.194.345.318.035.053.097.133.186.239.088.106.159.221.212.345.371.725.716 1.424 1.035 2.096l.955 1.858c-.938.195-1.884.38-2.84.557-.937.177-1.795.319-2.573.425a32.19 32.19 0 01-1.885.212h-.743c-.035 0-.15-.026-.345-.08a1.958 1.958 0 00-.504-.08.204.204 0 00-.08.027h-.052c-.089.018-.133.089-.133.213 0 .159.07.354.212.584.142.23.328.433.557.61.248.177.514.265.797.265.424 0 1-.044 1.724-.133a50.104 50.104 0 002.336-.344c.849-.142 1.654-.284 2.415-.425.76-.142 1.388-.265 1.884-.371.407.76.805 1.468 1.194 2.122.389.655.787 1.274 1.194 1.858zm1.114 9.606v-.08c0-.3-.115-.6-.345-.902-.23-.318-.495-.513-.796-.583a1.783 1.783 0 00-.477-.053 26.854 26.854 0 01-.531-.054 16.952 16.952 0 01-2.707-.743c-.849-.318-1.574-.61-2.176-.875-.69-.354-1.238-.7-1.645-1.035a4.785 4.785 0 01-.982-1.168 1.665 1.665 0 01-.212-.61 6.21 6.21 0 00-.08-.664c-.017-.194-.088-.3-.212-.318h-.053c-.177 0-.319.168-.425.504-.106.319-.159.646-.159.982 0 .601.203 1.176.61 1.725a7.412 7.412 0 001.62 1.512c.671.46 1.397.876 2.175 1.248.779.371 1.54.68 2.282.928.76.266 1.424.47 1.99.61.584.142.991.213 1.221.213.319 0 .54-.062.664-.186a.672.672 0 00.238-.45zM81.918 11.83v-.026c0-.124-.08-.257-.238-.398-.16-.16-.345-.3-.558-.425-.194-.141-.38-.212-.557-.212h-.053c-.16 0-.3.035-.425.106a1.183 1.183 0 01-.398.106c-.654.053-1.362.133-2.123.24l-.106-4.273c-.017-.354-.088-.584-.212-.69-.106-.124-.336-.23-.69-.319a2.61 2.61 0 00-.77-.106c-.3 0-.46.044-.477.133v.053c0 .07.026.141.08.212.052.071.097.142.132.213.053.07.106.176.16.318.07.124.105.248.105.371.036.62.062 1.3.08 2.044l.053 2.282c-1.132.177-2.255.363-3.37.557-1.097.195-1.99.363-2.68.504h-.345a2.1 2.1 0 01-.345-.026.71.71 0 00-.266-.053l-.132.026c-.089.018-.133.071-.133.16 0 .159.097.398.292.716.212.3.451.495.717.584a.79.79 0 00.398.106c.123 0 .238-.018.345-.053a2.78 2.78 0 01.371-.08c.69-.159 1.486-.318 2.388-.477a60.594 60.594 0 012.787-.478v1.54c0 1.538-.027 2.936-.08 4.192a11.437 11.437 0 01-.584 3.025c-.318.99-.743 1.92-1.274 2.786a11.325 11.325 0 01-1.724 2.256c-.319.336-.478.566-.478.69s.026.195.08.212a.5.5 0 00.159.027.538.538 0 00.292-.106c.124-.071.274-.15.45-.24a10.66 10.66 0 002.469-2.414 12.717 12.717 0 001.672-3.025c.406-1.08.628-2.132.663-3.158.018-.637.026-1.256.026-1.858.018-.601.027-1.185.027-1.751 0-.407-.009-.805-.026-1.194v-1.194a30.63 30.63 0 013.317-.319c.3-.017.54-.07.716-.159.177-.106.265-.248.265-.425zM67.35 18.544h-.08c-.124 0-.23.115-.318.345-.053.106-.16.336-.319.69-.159.336-.345.717-.557 1.141-.212.425-.416.814-.61 1.168a18.293 18.293 0 01-.08-1.115c-.017-.407-.026-.84-.026-1.3 0-1.08.035-2.247.106-3.503.07-1.274.168-2.53.292-3.768.124-1.256.247-2.38.371-3.37.018-.089.027-.168.027-.239a.872.872 0 00.026-.212c0-.177-.035-.31-.106-.398-.07-.16-.212-.275-.424-.345a1.8 1.8 0 00-.584-.16 5.328 5.328 0 00-.398-.026c-.248 0-.39.053-.425.16v.079c0 .07.018.141.053.212.053.07.097.15.133.239.07.141.106.274.106.398v.133a86.013 86.013 0 00-.186 2.043c-.07.867-.15 1.804-.239 2.813-.07.99-.132 1.955-.185 2.892a83.241 83.241 0 00-.106 2.389v.716c.017.425.044.947.08 1.566.052.601.123 1.212.211 1.83.089.62.204 1.16.345 1.62.142.442.328.707.558.796.07.017.141.044.212.08.088.017.177.026.265.026a.943.943 0 00.425-.106c.141-.089.248-.248.318-.478.053-.177.124-.487.213-.929.106-.442.22-.938.345-1.486.141-.566.265-1.114.371-1.645.124-.53.221-.982.292-1.354.07-.371.106-.592.106-.663 0-.106-.07-.186-.212-.239zm45.722-10.27c.142-.176.213-.353.213-.53a.64.64 0 00-.133-.372c-.088-.141-.318-.38-.69-.716a51.925 51.925 0 00-1.804-1.592.636.636 0 00-.425-.16.661.661 0 00-.478.213.674.674 0 00-.185.45c0 .16.061.293.185.399.301.248.655.593 1.062 1.035.424.424.822.867 1.194 1.327.141.159.292.238.451.238a.76.76 0 00.345-.08c.106-.07.195-.14.265-.211zm-11.49 17.541h.398a4.452 4.452 0 002.335-.743 5.098 5.098 0 001.646-1.91c.636.283 1.211.61 1.724.981a5.76 5.76 0 011.301 1.221c.212.283.424.425.637.425.035 0 .123-.036.265-.106.159-.071.31-.186.451-.345a.845.845 0 00.212-.584c0-.354-.23-.726-.69-1.115a8.301 8.301 0 00-1.618-1.088 17.03 17.03 0 00-1.778-.822c.035-.248.062-.487.079-.717.036-.248.053-.495.053-.743v-.318a2.07 2.07 0 00-.026-.345l-.08-1.752a194.92 194.92 0 00-.079-2.68c-.018-.99-.045-1.964-.08-2.919a56.188 56.188 0 013.317-.212c.637 0 .955-.142.955-.425v-.106c-.035-.3-.185-.557-.451-.77-.265-.212-.495-.327-.69-.345h-.079c-.018-.017-.044-.026-.08-.026-.159 0-.309.027-.451.08a3.342 3.342 0 01-.451.132c-.336.018-.681.044-1.035.08-.336.035-.69.07-1.061.106-.018-.938-.036-1.734-.054-2.388V7.212c0-.141-.026-.3-.079-.478-.036-.194-.168-.353-.398-.477-.212-.142-.593-.213-1.141-.213-.319 0-.487.062-.504.186v.027c0 .124.07.23.212.318.141.071.23.23.265.478.018.07.036.478.053 1.22.018.744.036 1.637.053 2.68a79.624 79.624 0 00-5.625.876c-.054 0-.15.01-.292.027a3.05 3.05 0 01-.266.027c-.07 0-.168-.018-.292-.053a.88.88 0 00-.344-.08.295.295 0 00-.133.026c-.089.036-.133.098-.133.186 0 .018.044.142.133.372.088.23.239.46.45.69.213.212.487.318.823.318.124 0 .248-.009.372-.027.142-.035.274-.061.398-.08.725-.158 1.504-.3 2.335-.424a57.479 57.479 0 012.601-.371c.035.955.062 1.92.08 2.892.017.956.035 1.831.053 2.627.017.779.035 1.372.053 1.778v.345c0 .354-.027.717-.08 1.088a7.462 7.462 0 00-1.459-.318 9.955 9.955 0 00-1.46-.106h-.318c-.496 0-1.044.088-1.646.265a4.099 4.099 0 00-1.539.85c-.424.37-.646.875-.663 1.512v.026c0 .655.345 1.221 1.035 1.699.69.477 1.618.716 2.786.716zm9.394-16.134c.142-.177.212-.354.212-.53 0-.16-.106-.372-.318-.638a6.124 6.124 0 00-.743-.822 11.59 11.59 0 00-.876-.796 5.476 5.476 0 00-.637-.531c-.141-.089-.265-.133-.371-.133a.661.661 0 00-.478.213.662.662 0 00-.212.477c0 .124.053.239.159.345.354.336.699.681 1.035 1.035.354.336.743.787 1.168 1.353.141.195.309.292.504.292.124 0 .23-.026.318-.08.106-.07.186-.132.239-.185zM93.86 22.603c-.018-.212-.035-.433-.053-.663v-.743c0-.885.035-1.866.106-2.946.07-1.079.168-2.184.292-3.317.124-1.15.256-2.264.398-3.343.16-1.08.318-2.053.478-2.92a2.3 2.3 0 00.026-.318 1.23 1.23 0 00.027-.239.551.551 0 00-.027-.212c-.035-.124-.16-.239-.371-.345a2.998 2.998 0 00-.69-.292 2.002 2.002 0 00-.664-.133c-.177 0-.283.045-.318.133 0 .018-.009.036-.027.053v.027c0 .07.036.141.106.212.071.07.124.133.16.186.07.141.106.274.106.398-.018.07-.062.416-.133 1.035-.07.619-.16 1.389-.265 2.309-.089.902-.186 1.857-.292 2.865a282.154 282.154 0 01-.265 2.866 145.009 145.009 0 00-.186 2.654v1.008c0 1.398.062 2.513.186 3.344.123.814.291 1.398.504 1.752.212.353.46.53.743.53a.74.74 0 00.45-.159c.16-.088.266-.248.32-.478.088-.3.212-.752.37-1.353.178-.601.355-1.238.532-1.91.194-.673.362-1.274.504-1.805.159-.53.256-.876.292-1.035.053-.248.08-.425.08-.53 0-.178-.054-.266-.16-.266-.07 0-.15.044-.239.133-.088.07-.177.168-.265.291-.053.089-.177.319-.372.69-.194.354-.415.761-.663 1.221-.23.46-.46.893-.69 1.3zm5.387.823v-.053c.035-.425.283-.726.743-.902.478-.195 1.035-.292 1.672-.292.46 0 .902.026 1.326.08.443.052.912.159 1.407.318-.106.212-.283.45-.531.716-.247.266-.584.505-1.008.717-.425.194-.973.292-1.645.292-.496 0-.947-.071-1.354-.213-.407-.141-.61-.362-.61-.663zM129.26 9.68h-.213c-.318 0-.513.088-.583.265v.08c0 .16.168.3.504.425.336.123.725.23 1.167.318.46.07.858.133 1.195.186.353.035.539.053.557.053.354 0 .592-.124.716-.372.124-.265.186-.513.186-.743 0-.194-.035-.336-.106-.424a12.77 12.77 0 00-.982-.982 11.04 11.04 0 00-1.194-1.035 7.507 7.507 0 00-1.141-.796c-.354-.212-.628-.319-.823-.319a.5.5 0 00-.371.133c-.213.16-.319.336-.319.53 0 .213.159.408.478.585.318.177.708.477 1.168.902.477.424.858.814 1.141 1.167l-.478.054h-.69a.876.876 0 00-.212-.027zm9.155 4.166v.213c0 .636-.292 1.22-.876 1.751a4.817 4.817 0 01-2.07 1.061 6.215 6.215 0 01-.875.133c-.354.018-.752.027-1.195.027-.442 0-.911-.01-1.406-.027-.478-.035-.946-.08-1.406-.133h-.213c-.371 0-.557.098-.557.292 0 .142.159.292.478.451.318.142.725.275 1.22.398.513.124 1.044.23 1.593.319.566.07 1.096.106 1.592.106.601 0 1.22-.088 1.857-.265a6.502 6.502 0 001.805-.85 4.374 4.374 0 001.353-1.38c.354-.548.531-1.185.531-1.91a.493.493 0 00-.027-.16v-.211c-.106-1.044-.575-1.823-1.406-2.336-.814-.53-1.902-.796-3.264-.796-.336 0-.734.027-1.194.08-.443.035-1.018.141-1.725.318-.69.177-1.566.451-2.627.823a74.53 74.53 0 00-3.981 1.486 95.737 95.737 0 00-.849-2.442 58.86 58.86 0 01-.69-2.149c-.088-.39-.212-.628-.371-.716-.142-.107-.416-.16-.823-.16-.849 0-1.274.124-1.274.372 0 .106.08.221.239.345.159.124.274.212.345.265.071.036.15.106.239.213a.912.912 0 01.159.238c.248.761.504 1.53.77 2.309.265.76.53 1.53.796 2.309-1.504.619-2.795 1.176-3.875 1.671-.123.071-.309.107-.557.107h-.159a.435.435 0 00-.133-.027h-.239a1.224 1.224 0 00-.238-.026c-.177 0-.275.044-.292.132-.018.018-.027.053-.027.106s.071.195.212.425c.142.23.337.451.584.663.248.213.531.319.849.319.266 0 .593-.097.982-.292.46-.248.982-.495 1.566-.743.584-.265 1.203-.54 1.857-.823a381.452 381.452 0 002.044 5.414c.654 1.627 1.203 2.901 1.645 3.821.088.177.133.336.133.478 0 .123.035.283.106.477.071.177.194.38.371.61.177.23.381.434.611.611.23.177.451.265.663.265a.233.233 0 00.106-.026.232.232 0 00.106-.027c.266-.141.398-.389.398-.743 0-.23-.026-.424-.079-.584-.053-.176-.204-.513-.451-1.008a40.4 40.4 0 01-1.247-2.574c-.46-1.061-.947-2.229-1.46-3.503a243.926 243.926 0 01-1.459-3.848 143.51 143.51 0 013.608-1.38c.973-.353 1.787-.619 2.442-.796a11.752 11.752 0 011.672-.345c.477-.07.911-.106 1.3-.106.778 0 1.424.133 1.937.398.513.266.805.726.876 1.38zm20.486 11.093h-.265c-.814 0-1.522-.15-2.123-.452-.602-.3-1.071-.822-1.407-1.565-.318-.743-.477-1.778-.477-3.105v-.106c0-1.115.062-2.6.185-4.458l.452-6.74c0-.107.008-.204.026-.293.018-.106.027-.203.027-.291 0-.354-.142-.602-.425-.743a2.235 2.235 0 00-.876-.24 6.803 6.803 0 00-.504-.052c-.265 0-.433.044-.504.132-.018.018-.027.045-.027.08 0 .124.08.283.239.478.177.194.266.513.266.955v.16c-.089 1.432-.177 2.847-.266 4.245a736.25 736.25 0 00-.186 3.874 136.139 136.139 0 00-.106 2.999c0 .902.071 1.77.213 2.6a6.21 6.21 0 00.849 2.177c.407.636.982 1.14 1.725 1.512.743.372 1.707.557 2.892.557 1.115 0 2.158-.15 3.131-.45a11.423 11.423 0 002.628-1.115c.796-.46 1.477-.929 2.043-1.407.566-.495.999-.937 1.3-1.326.301-.407.451-.7.451-.876 0-.16-.07-.239-.212-.239-.212 0-.548.195-1.008.584-.602.53-1.354 1.026-2.256 1.486-.902.46-1.858.84-2.866 1.14a12.542 12.542 0 01-2.919.479z"/>
  <path fill="#3D4349" d="M12.021 27.353l-.247-.027-.002.014v.013h.25zm.504.982l-.147.2.005.004.142-.204zm1.433-.133h.249v-.001l-.249.002zm-.08-12.206l.193-.158-.446-.545.005.704.249-.001zm3.185 3.582l-.177.175.001.001.176-.176zm3.158 2.813l-.154.195.002.002.152-.197zm3.689 2.654l-.14.206.012.007.128-.213zm1.459-.743l.184.167.007-.008-.191-.16zm.16-.637l.175-.176-.176.176zm-.24-.186l.128-.213-.005-.003-.123.216zm-3.9-2.441l-.145.202.002.002.143-.204zm-3.344-2.734l.17-.181-.17.181zm-3.29-3.423l-.013-.248-.513.026.338.386.187-.164zm8.81-.451l.012.248h.01l.008-.001-.03-.247zm.371-.106l.111.223.012-.007-.123-.216zm-.08-.85l-.204.142.006.01.007.008.191-.16zm-.61-.583l-.152.197.009.007.008.005.135-.21zm-.876-.239v.249h.04l.039-.013-.079-.236zm-.185.027l-.06-.242-.008.002-.007.002.075.238zm-.956.212l-.029-.247h-.002l.031.247zm-.982.106l.014.249.01-.001-.024-.248zm-6.395.345l-.249.002.002.26.26-.013-.013-.249zm-.026-4.617l-.056-.243-.194.045v.2l.25-.002zm6.262-1.646l.074.238.005-.002-.079-.236zm-.557-1.937l-.19.162.007.007.183-.169zm-.77-.239l.21.134.004-.006-.214-.128zm-.504.505l.125.214.007-.003.006-.004-.138-.207zm-.451.238l.089.233.003-.002-.092-.23zm-5.573 1.885l.07.238h.002l-.072-.238zM5.758 9.176l.053.243h.001l-.054-.243zm.107.876v.248h.024l-.024-.248zm3.13-.425l-.04-.245h-.001l.042.245zm3.132-.557h.249v-.3l-.294.055.045.245zm0 4.378l.014.249.235-.013v-.236h-.249zm-7.324.398v.25l.014-.001-.014-.249zM3 13.687l-.079.236.015.005.015.003.049-.244zm-.133.796l-.227.101.002.005.225-.106zm.557.69l-.142.205.012.007.13-.212zm1.778.186l-.013-.249H5.18l-.007.002.027.247zm5.44-.292l.213.129.244-.403-.47.026.013.248zm-4.299 5.6l.176.175h.001l-.177-.176zm-4.617 4.06l-.15-.2v.001l.15.198zm.716.503l.117.22-.117-.22zm1.964-1.247l.143.204.001-.001-.144-.203zm2.548-2.043l-.163-.188-.002.001.165.187zm2.706-2.733l-.187-.165-.001.002.188.163zm2.468-3.397h.249l-.002-.894-.46.766.213.128zm.027 9.553h.248-.248zm-.053 1.009l-.248-.028v.014l.248.014zm-.329.981v.186h.498v-.186h-.498zm0 .186c0 .395.238.725.606.996l.295-.4c-.304-.224-.403-.424-.403-.596h-.498zm.61 1c.372.26.733.416 1.072.416v-.497c-.191 0-.45-.091-.786-.327l-.285.408zm1.072.416c.207 0 .407-.051.554-.198.147-.148.199-.348.199-.555h-.498c0 .13-.032.182-.053.203-.02.02-.072.053-.202.053v.498zm.753-.754l-.08-12.207-.497.003.08 12.207.497-.003zm-.52-12.048a53.307 53.307 0 003.199 3.6l.355-.35a52.822 52.822 0 01-3.17-3.565l-.385.315zm3.2 3.601a36.515 36.515 0 003.18 2.832l.308-.39a36.01 36.01 0 01-3.136-2.794l-.352.352zm3.182 2.834a70.792 70.792 0 003.701 2.663l.279-.413a70.162 70.162 0 01-3.676-2.644l-.304.394zm3.713 2.67a.72.72 0 00.366.115v-.498c-.01 0-.044-.004-.11-.044l-.256.427zm.366.115c.257 0 .514-.126.762-.317l-.303-.394c-.212.163-.362.213-.459.213v.498zm.762-.317c.24-.185.455-.38.643-.587l-.368-.335a4.415 4.415 0 01-.578.528l.303.394zm.65-.595c.09-.109.164-.203.215-.28a.963.963 0 00.067-.116.381.381 0 00.041-.161h-.497c0-.045.015-.068.007-.053a.464.464 0 01-.032.054 2.997 2.997 0 01-.183.237l.382.319zm.323-.557a.578.578 0 00-.179-.415l-.352.352c.031.03.034.049.034.063h.497zm-.179-.415a1.483 1.483 0 00-.287-.223l-.256.426a.989.989 0 01.191.149l.352-.352zm-.292-.226a49.874 49.874 0 01-3.881-2.43l-.285.409a50.384 50.384 0 003.92 2.453l.246-.432zm-3.88-2.428a32.428 32.428 0 01-3.317-2.713l-.34.364a32.933 32.933 0 003.37 2.754l.288-.405zm-3.317-2.713a47.439 47.439 0 01-3.274-3.405l-.374.328a47.937 47.937 0 003.308 3.441l.34-.364zm-3.448-2.992l8.81-.452-.025-.496-8.81.45.025.498zm8.828-.453a1.39 1.39 0 00.452-.13l-.222-.446a.897.897 0 01-.291.082l.061.494zm.464-.137a.572.572 0 00.311-.508h-.497c0 .02 0 .041-.06.076l.246.432zm.311-.508c0-.247-.133-.49-.323-.716l-.382.318c.165.197.208.327.208.398h.497zm-.31-.699a2.387 2.387 0 00-.68-.651l-.268.418c.221.143.4.315.54.516l.409-.283zm-.662-.64a1.409 1.409 0 00-.868-.316v.497c.183 0 .37.065.564.214l.304-.394zm-.868-.316a.749.749 0 00-.238.04l.157.471a.252.252 0 01.08-.014v-.497zm-.16.026c-.079 0-.162.013-.246.034l.12.483a.537.537 0 01.126-.02v-.497zm-.26.038c-.324.103-.627.17-.91.203l.058.494a5.453 5.453 0 001.002-.222l-.15-.475zm-.912.203c-.28.035-.604.07-.974.105l.047.496c.373-.036.703-.071.99-.107l-.063-.494zm-.964.105l-6.395.345.027.497 6.395-.345-.027-.497zm-6.133.592l-.027-4.618-.497.003.026 4.617.498-.002zm-.22-4.374c1.01-.23 2.038-.478 3.084-.744l-.122-.482c-1.042.264-2.066.512-3.073.741l.11.485zm3.084-.744a62.764 62.764 0 003.197-.906l-.148-.475a62.245 62.245 0 01-3.171.899l.122.482zm3.202-.908a.566.566 0 00.314-.247.743.743 0 00.095-.387h-.498a.26.26 0 01-.024.131c-.007.011-.016.022-.044.031l.157.472zm.409-.634c0-.255-.102-.546-.268-.86l-.44.234c.153.288.21.492.21.626h.498zm-.268-.86a4.006 4.006 0 00-.594-.848l-.366.338c.197.213.37.46.52.744l.44-.233zm-.588-.84a1.772 1.772 0 00-.35-.324.72.72 0 00-.396-.135v.498c.014 0 .053.005.12.05.068.046.15.12.248.234l.378-.324zm-.746-.459a.488.488 0 00-.426.253l.427.256c.01-.018.016-.02.011-.016a.035.035 0 01-.009.004h-.003v-.497zm-.422.248a1.464 1.464 0 01-.433.43l.276.415a1.96 1.96 0 00.576-.578l-.42-.267zm-.42.423a3.927 3.927 0 01-.418.222l.184.462c.108-.043.273-.131.485-.255l-.251-.43zm-.415.221a81.548 81.548 0 01-5.555 1.878l.143.477a82.028 82.028 0 005.59-1.89l-.178-.465zm-5.553 1.878c-1.993.582-4.146 1.129-6.46 1.64l.108.487a101.357 101.357 0 006.491-1.65l-.14-.477zm-6.458 1.64c-.261.057-.485.136-.65.254-.172.123-.29.298-.29.52h.498c0-.024.006-.062.082-.115.083-.06.23-.122.465-.172l-.105-.486zm-.94.775a.522.522 0 00.3.479c.164.085.378.114.613.114v-.497c-.208 0-.326-.029-.383-.058a.127.127 0 01-.024-.016l-.006-.006v-.002a.059.059 0 01-.002-.014h-.497zm.913.593h.186v-.497h-.186v.497zm.21 0a44.777 44.777 0 003.15-.428l-.085-.49c-1.02.176-2.058.316-3.114.422l.05.495zm3.148-.428c1.046-.177 2.09-.363 3.136-.558l-.091-.489c-1.043.194-2.085.38-3.128.557l.083.49zm2.841-.802v4.378h.498V9.07h-.498zm.236 4.13l-7.324.398.027.497 7.324-.398-.027-.497zm-7.31.398h-.32v.497h.32v-.498zm-.32 0c-.44 0-.92-.051-1.437-.155l-.097.488a7.851 7.851 0 001.535.164v-.498zm-1.407-.147a.836.836 0 00-.264-.04v.498c.05 0 .085.007.107.014l.157-.472zm-.264-.04a.396.396 0 00-.308.134c-.081.094-.1.21-.1.301h.497c0-.032.008-.01-.02.023a.126.126 0 01-.049.035c-.014.006-.023.005-.02.005v-.497zm-.408.435c0 .096.03.208.066.318.039.116.095.257.168.42l.454-.202a4.376 4.376 0 01-.15-.376 1.192 1.192 0 01-.04-.148v-.012h-.498zm.236.743c.157.333.368.6.64.789l.284-.41a1.44 1.44 0 01-.474-.59l-.45.211zm.652.796c.284.175.654.25 1.086.25v-.498c-.383 0-.65-.068-.825-.176l-.261.424zm1.086.25H4.75v-.498h-.001-.003-.002-.003-.003-.002-.003-.003-.002-.003-.003-.001-.001-.003-.003-.001-.001-.003-.002-.003H4.7h-.002-.003-.003-.002-.003-.003-.002-.003-.003-.001-.001-.003-.002-.003-.003-.002-.003-.003-.002-.003-.003-.002-.003-.003-.001-.001-.003-.005-.003-.002-.003-.003-.002-.003-.003-.002-.003-.003-.001H4.6h-.003-.003-.001-.001-.003-.002-.003-.003-.002-.003-.003-.002-.003-.003-.002-.003-.003-.001-.001-.003-.002-.003-.003-.002-.003-.003-.002-.003-.003-.002-.003-.003-.001-.001-.003-.005-.003-.002-.003H4.5h-.002-.003-.003-.002-.003-.003-.001-.001-.003-.003-.001-.001-.003-.002-.003-.003-.002-.003-.003-.002-.003-.003-.001-.001-.003-.003-.001-.001-.003-.002-.001-.001-.001-.003-.002-.003-.003-.002-.003-.003-.002-.003-.003H4.4 4.4h-.003-.003-.001-.001-.003-.002-.003-.003-.002v.497zm.371 0c.152 0 .311-.01.479-.029l-.055-.494a3.848 3.848 0 01-.424.025v.497zm.465-.028l5.44-.292-.027-.496-5.44.291.027.497zm5.213-.67c-1.3 2.145-2.721 3.995-4.263 5.554l.354.35c1.572-1.59 3.017-3.472 4.335-5.645l-.425-.258zM6.167 20.49c-1.55 1.55-3.08 2.896-4.591 4.038l.3.397c1.532-1.158 3.08-2.52 4.643-4.083l-.352-.352zm-4.592 4.038c-.196.15-.354.298-.466.447a.834.834 0 00-.19.494h.498c0-.032.015-.096.09-.195.074-.1.194-.216.37-.35l-.302-.396zm-.655.941c0 .13.051.258.172.343a.59.59 0 00.342.092v-.498a.27.27 0 01-.06-.005c-.01-.002-.006-.003.004.004a.101.101 0 01.032.039c.008.016.007.027.007.025H.92zm.514.435a.77.77 0 00.213-.037 2.4 2.4 0 00.242-.089 8.55 8.55 0 00.67-.328l-.234-.44c-.262.14-.471.243-.63.31-.078.033-.141.056-.19.07-.05.015-.071.016-.071.016v.498zm1.125-.454c.544-.29 1.208-.712 1.99-1.263l-.286-.407c-.774.545-1.42.955-1.938 1.23l.234.44zm1.991-1.264a31.656 31.656 0 002.568-2.06l-.329-.373a31.157 31.157 0 01-2.527 2.027l.288.406zm2.566-2.058c.93-.805 1.841-1.725 2.733-2.759l-.377-.325a26.156 26.156 0 01-2.681 2.708l.325.376zm2.731-2.757a23.462 23.462 0 002.495-3.433l-.427-.256a22.963 22.963 0 01-2.442 3.36l.374.329zm2.032-3.56l.027 9.553.498-.002-.027-9.553-.498.002zm.027 9.552c0 .346-.017.673-.052.981l.495.055c.036-.329.054-.674.054-1.036h-.497zm-.053.995c-.017.332-.043.654-.078.968l.494.055c.036-.324.063-.656.081-.996l-.497-.027zm33.738-9.46l.04.245.39-.063-.226-.324-.204.142zm-2.123.345l.034.246h.006l-.04-.246zm-.504.663l.111-.222-.111.222zm.61.186l-.038.246h.005l.033-.246zm1.274.239l-.052.243.007.002.045-.245zm1.698.371l-.062.241h.002l.06-.24zm.186.053l-.079.236.039.013h.04v-.248zm.929-.238l.176.176-.176-.176zm.371-1.194l-.216.123.005.007.004.008.207-.138zm-.292-.372l-.18.171.004.005.176-.176zm-1.273-1.725l-.213.13.003.005.21-.135zm-1.593-2.654l-.054-.242-.334.075.174.294.214-.127zm3.424-.822l-.063-.24h-.002l.065.24zm1.751-.504l.082.235.01-.004-.092-.231zm.637-.372l.207.138-.207-.138zm-.266-.929l-.117.22.006.003.111-.223zm-.742-.238l-.05.243.009.002.008.001.032-.246zm-.69-.08v-.249h-.016l-.015.002.03.247zm-.398.186l.144.202.009-.006.008-.007-.161-.19zm-.399.212l-.087-.233-.005.002.092.231zm-1.645.504l.063.24-.063-.24zm-2.494.584l-.218.12.09.161.18-.038-.052-.243zm-1.248-2.335l.222-.114-.221.114zm-.981-1.99l-.23.098.004.007.226-.105zm-.372-.584l-.187.164.005.006.006.006.176-.176zm-1.539-.16l.017.249h.007l.007-.002-.031-.247zm-.425.186l-.245-.04-.003.02v.02h.248zm.213.372l-.132.21.132-.21zm.345.318l.207-.138-.005-.006-.202.144zm.186.239l-.192.16.192-.16zm.212.345l-.229.098.003.008.004.007.222-.113zM41.477 9.6l-.225.107.003.007.222-.114zm.955 1.858l.05.243.321-.066-.15-.291-.221.114zm-2.84.557l-.045-.244.046.244zm-2.573.425l-.034-.247.034.247zm-1.885.212v.249h.019l-.019-.249zm-1.088-.08l.066-.24-.066.24zm-.583-.053v.25h.058l.053-.027-.111-.223zm-.053 0v-.248h-.025l-.024.004.049.244zm.08.796l-.213.13.212-.13zm.556.61l-.151.198.007.005.144-.202zm2.521.133l.03.248-.03-.247zm2.336-.344l-.041-.246h-.001l.042.246zm2.415-.425l-.046-.245.046.245zm1.884-.371l.219-.118-.088-.165-.184.04.053.242zm3.502 13.586l.248.025.001-.012v-.013h-.249zm-.345-.982l-.201.146.004.006.197-.152zm-.796-.583l-.068.239.011.003.057-.242zm-.477-.053l-.023.247.011.001h.012v-.248zm-.531-.054l-.046.245.01.002h.009l.027-.247zm-2.707-.743l-.087.233h.001l.086-.233zm-2.176-.875l-.113.221.006.003.007.003.1-.227zm-1.645-1.035l-.163.188.005.003.158-.191zm-.982-1.168l-.213.128.213-.128zm-.212-.61l-.248.018v.01l.002.01.246-.038zm-.08-.664l-.248.023.001.01.002.012.245-.045zm-.212-.318l.035-.246-.017-.003h-.018v.249zm-.478.504l.236.079.002-.004-.238-.075zm.451 2.707l-.2.148.004.004.196-.152zm1.62 1.512l-.144.204.003.002.14-.206zm2.175 1.248l.107-.225-.107.225zm2.282.928l.082-.235h-.003l-.079.235zm1.99.61l-.06.242h.002l.058-.241zm1.885.027l-.164-.187-.007.005-.005.006.176.176zm-.916-10.303l-2.123.345.08.491 2.123-.345-.08-.49zm-2.117.345c-.265.036-.488.089-.651.168-.157.076-.333.215-.333.45h.497c0 .057-.047.046.052-.002.093-.045.255-.09.503-.124l-.068-.492zm-.984.617c0 .262.215.421.403.515l.222-.445a.443.443 0 01-.126-.084c-.013-.015-.002-.008-.002.014h-.497zm.403.515c.203.102.432.17.683.209l.076-.492a1.808 1.808 0 01-.537-.162l-.222.445zm.688.21c.255.034.672.112 1.255.235l.103-.486a19.263 19.263 0 00-1.292-.242l-.066.493zm1.262.237c.578.105 1.139.227 1.681.367l.124-.481a24.066 24.066 0 00-1.716-.376l-.089.49zm1.683.368c.066.016.122.032.167.047l.158-.471c-.061-.02-.13-.04-.205-.059l-.12.483zm.246.06H46.944v-.497h-.002-.002-.001-.002-.002-.001-.001-.001-.002-.001-.001-.001-.002-.002-.001-.002-.002-.001-.001-.001-.002-.001-.001-.001-.002-.002-.001-.002-.002-.001-.001-.001-.002-.001-.001-.001-.002-.002-.001-.002-.002-.001-.001-.001-.002-.001-.001-.001-.002-.002-.001-.002-.002-.001-.001-.001-.002-.001-.001-.001-.002-.002-.001-.002-.002-.001-.001-.001-.002-.001-.001-.001-.002-.002-.001-.002-.002-.001-.001-.001-.002-.001-.001-.001-.002-.002-.001-.002-.002-.001-.001-.001-.002-.001-.001-.001-.002-.002-.001-.002-.002-.001-.001-.001-.002-.001-.001-.001-.002-.002-.001-.002-.002-.001-.001-.001-.002-.001-.001-.001-.002-.002-.001-.002-.002-.001-.001-.001-.002-.001-.001-.001-.002-.002-.001-.002-.002-.001-.001-.001-.002-.001-.001-.001-.002-.002-.001-.002-.001v.497zm.212 0c.357 0 .67-.09.893-.311l-.352-.352c-.096.096-.26.166-.54.166v.497zm.893-.311a1.86 1.86 0 00.426-.615l-.462-.184a1.373 1.373 0 01-.316.447l.352.352zm.426-.615c.036-.09.065-.166.085-.226.01-.03.018-.058.025-.084a.42.42 0 00.014-.1h-.497c0-.024.004-.035 0-.021a3.756 3.756 0 01-.09.247l.463.184zm.124-.41a.858.858 0 00-.148-.483l-.414.276a.361.361 0 01.065.207h.497zm-.139-.469a2.033 2.033 0 00-.332-.424l-.352.352c.112.111.195.218.252.319l.432-.247zm-.327-.42c-.32-.336-.734-.895-1.245-1.688l-.419.27c.516.8.95 1.39 1.303 1.761l.36-.342zm-1.242-1.682a261.62 261.62 0 01-1.59-2.651l-.429.253c.567.956 1.098 1.842 1.594 2.656l.425-.258zm-1.75-2.282a98.946 98.946 0 003.433-.825l-.128-.48a98.94 98.94 0 01-3.414.82l.11.485zm3.431-.824a25.536 25.536 0 001.771-.51l-.164-.47c-.344.12-.919.286-1.732.498l.125.482zm1.781-.514c.183-.074.337-.145.458-.216a.88.88 0 00.294-.249l-.414-.276s-.006.009-.03.028a.807.807 0 01-.1.068 3.05 3.05 0 01-.392.183l.184.462zm.752-.465a.818.818 0 00.148-.456h-.498a.324.324 0 01-.064.18l.414.276zm.148-.456a.937.937 0 00-.13-.494.91.91 0 00-.38-.34l-.222.446a.414.414 0 01.178.152c.034.056.056.131.056.236h.498zm-.502-.83a2.403 2.403 0 00-.829-.266l-.065.493c.236.032.455.102.658.211l.236-.438zm-.813-.263a3.655 3.655 0 00-.553-.085v.498c.041 0 .182.02.456.074l.097-.487zm-.553-.085h-.185v.498h.185v-.498zm-.216.002a.997.997 0 00-.53.244l.324.378a.502.502 0 01.267-.128l-.061-.494zm-.512.23c-.106.076-.22.137-.34.182l.174.466a1.97 1.97 0 00.455-.243l-.29-.405zm-.346.184c-.339.136-.875.3-1.616.495l.126.48c.745-.194 1.306-.366 1.675-.513l-.185-.462zm-1.616.495c-.738.193-1.566.387-2.483.58l.103.487c.923-.195 1.759-.39 2.506-.586l-.126-.481zm-2.214.703a77.157 77.157 0 01-1.243-2.328l-.443.227c.39.763.808 1.544 1.251 2.343l.435-.242zm-1.243-2.328a65.208 65.208 0 01-.978-1.982l-.45.211c.266.57.595 1.236.985 1.998l.443-.227zM42.05 6.69a2.088 2.088 0 00-.424-.662l-.352.352c.113.112.221.277.319.506l.457-.196zm-.413-.65a.818.818 0 00-.415-.236 2.241 2.241 0 00-.568-.061v.497c.191 0 .336.017.44.045.106.028.151.062.169.083l.374-.328zm-.983-.297a6.33 6.33 0 00-.774.055l.062.493c.276-.034.513-.05.712-.05v-.498zm-.76.053c-.143.01-.278.032-.388.08a.422.422 0 00-.265.313l.49.082a.114.114 0 01-.028.059c-.009.01-.012.008.003.002a.727.727 0 01.222-.04l-.033-.496zm-.656.434v.053h.497V6.23h-.497zm0 .053c0 .239.143.413.329.53l.264-.422c-.098-.06-.096-.098-.096-.108h-.497zm.329.53a.95.95 0 01.274.252l.405-.29a1.443 1.443 0 00-.415-.384l-.264.422zm.27.245c.043.065.112.153.201.26L40.421 7a2.952 2.952 0 01-.17-.218l-.414.276zm.201.26c.074.088.132.183.175.284l.457-.196A1.643 1.643 0 0040.42 7l-.382.318zm.182.3c.37.723.715 1.42 1.032 2.089l.45-.213a75.636 75.636 0 00-1.039-2.103l-.443.226zm1.035 2.096l.956 1.858.442-.228-.955-1.857-.443.227zm1.126 1.5c-.935.195-1.88.38-2.834.557l.09.489c.958-.177 1.906-.364 2.846-.559l-.102-.487zm-2.834.557c-.935.176-1.789.317-2.562.422l.067.493c.784-.107 1.646-.249 2.587-.426l-.093-.49zm-2.562.422a31.98 31.98 0 01-1.869.211l.037.496a32.41 32.41 0 001.9-.214l-.068-.493zm-1.85.21h-.744v.498h.743v-.498zm-.744 0c.015 0 .02.002.002 0a6.118 6.118 0 01-.281-.07l-.131.48.242.062c.05.011.117.026.168.026v-.498zm-.28-.07a2.2 2.2 0 00-.569-.089v.498c.112 0 .258.021.439.07l.13-.48zm-.569-.089a.437.437 0 00-.19.053l.222.445.014-.007-.012.004a.171.171 0 01-.034.003v-.498zm-.08.027h-.001-.001-.002-.001-.002-.001-.002-.001-.002-.002-.001-.002-.001-.002-.001-.002-.001-.002-.001-.002-.002-.001-.002-.001-.002-.001-.002-.001-.002-.001-.002-.002-.001-.002v.497H33.463v-.497zm-.101.004a.393.393 0 00-.262.179.519.519 0 00-.07.278h.497c0-.017.001-.026.002-.028 0-.002 0 .004-.007.014a.108.108 0 01-.063.045l-.097-.488zm-.333.457c0 .227.099.469.25.714l.423-.26c-.132-.216-.175-.363-.175-.454h-.498zm.25.714c.158.258.365.483.617.677l.303-.394a2.024 2.024 0 01-.497-.544l-.424.26zm.624.682c.286.205.602.312.94.312v-.498c-.227 0-.442-.07-.651-.219l-.29.405zm.94.312c.44 0 1.026-.046 1.755-.134l-.06-.494c-.721.088-1.285.13-1.694.13v.498zm1.755-.134c.73-.09 1.513-.205 2.347-.347l-.083-.49a49.85 49.85 0 01-2.324.343l.06.494zm2.346-.347c.851-.142 1.658-.284 2.42-.425l-.091-.49c-.76.142-1.563.283-2.41.424l.081.491zm2.42-.425a73.565 73.565 0 001.89-.373l-.104-.487c-.492.106-1.117.23-1.877.37l.091.49zm1.62-.5c.408.764.808 1.475 1.199 2.133l.427-.254a53.75 53.75 0 01-1.188-2.113l-.439.235zm1.199 2.133c.392.66.793 1.284 1.204 1.873l.408-.284a30.337 30.337 0 01-1.184-1.843l-.428.255zm2.771 11.337v-.08h-.497v.08h.497zm0-.08c0-.368-.142-.72-.396-1.053l-.395.303c.205.268.294.517.294.75h.497zm-.392-1.047c-.255-.354-.567-.593-.94-.68l-.115.484c.228.053.447.203.652.487l.403-.291zm-.93-.678a2.021 2.021 0 00-.545-.062v.497c.182 0 .316.017.409.044l.137-.479zm-.523-.061a26.647 26.647 0 01-.526-.053l-.054.495c.16.018.34.035.535.053l.045-.495zm-.507-.05a16.687 16.687 0 01-2.667-.732l-.172.467c.88.323 1.796.575 2.747.754l.092-.49zm-2.666-.732a41.8 41.8 0 01-2.162-.87l-.201.455a42.4 42.4 0 002.189.881l.174-.466zm-2.15-.864c-.68-.349-1.211-.684-1.6-1.005l-.317.384c.426.351.991.705 1.69 1.064l.228-.443zM38.19 21.99a4.538 4.538 0 01-.932-1.107l-.426.256c.279.465.623.875 1.032 1.228l.326-.377zm-.932-1.107a1.417 1.417 0 01-.18-.52l-.491.076c.04.257.12.492.245.7l.426-.256zm-.177-.5a6.448 6.448 0 00-.083-.69l-.49.089c.034.184.06.396.077.637l.496-.036zm-.08-.668a.728.728 0 00-.107-.341.452.452 0 00-.318-.201l-.07.492a.044.044 0 01-.016-.006c-.008-.005-.01-.01-.01-.01 0 .002.006.01.011.03.006.018.011.045.014.08l.496-.044zm-.46-.545h-.053v.498h.053v-.498zm-.053 0c-.18 0-.324.09-.43.215-.1.12-.174.28-.232.463l.474.15a.879.879 0 01.14-.293.139.139 0 01.038-.034.018.018 0 01.01-.003v-.498zm-.66.674a3.333 3.333 0 00-.173 1.061h.498c0-.31.049-.61.146-.903l-.472-.157zm-.173 1.061c0 .662.225 1.288.66 1.873l.4-.296c-.38-.512-.562-1.036-.562-1.577h-.498zm.663 1.877c.442.571 1 1.092 1.672 1.564l.286-.407a7.163 7.163 0 01-1.565-1.461l-.393.304zm1.675 1.566c.683.467 1.42.89 2.209 1.266l.214-.449a15.956 15.956 0 01-2.142-1.228l-.281.41zm2.209 1.266a20.24 20.24 0 002.31.94l.158-.472a19.707 19.707 0 01-2.254-.917l-.214.45zm2.307.94c.766.266 1.437.472 2.012.616l.12-.483c-.556-.139-1.212-.34-1.968-.604l-.164.47zm2.014.617c.582.14 1.016.219 1.28.219v-.498c-.197 0-.577-.063-1.163-.205l-.117.484zm1.28.219c.335 0 .642-.062.839-.259l-.352-.352c-.052.052-.186.113-.488.113v.498zm.826-.248a.92.92 0 00.323-.613l-.495-.05a.423.423 0 01-.155.29l.327.373zm35.05-15.737l-.175.176.005.005.005.005.166-.186zm-.557-.425l-.146.201.01.008.011.006.125-.215zm-1.035-.106l.112.223.012-.007-.124-.216zm-.398.106l.02.248h.008l-.028-.248zm-2.123.24l-.248.005.007.279.276-.038-.035-.247zm-.106-4.273l.25-.006-.001-.007-.249.013zm-.212-.69l-.189.162.013.014.014.013.162-.19zm-.69-.319l-.073.238.013.004.06-.242zm-1.247.027l-.244-.049-.005.024v.025h.249zm.08.265l.198-.149-.199.15zm.132.213l-.222.11.01.02.013.019.2-.15zm.16.318l-.234.087.007.02.01.016.216-.123zm.105.371h-.248v.015l.248-.015zm.08 2.044l-.249.006.25-.006zm.053 2.282l.039.246.215-.034-.005-.218-.249.006zm-3.37.557l-.043-.245.043.245zm-2.68.504v.25h.025l.025-.006-.05-.244zm-.69-.026l-.093.23.025.01.027.005.04-.245zm-.266-.053v-.249h-.024l-.024.005.048.244zm-.132.026l-.049-.244.049.244zm.159.876l-.212.13.004.007.005.007.203-.144zm.717.584l.123-.216-.021-.012-.024-.008-.078.236zm.743.053l-.069-.24-.01.004.079.236zm.371-.08l.035.247.01-.002.011-.002-.056-.243zm2.388-.477l.044.245.004-.001-.048-.244zm2.787-.478h.249v-.288l-.286.042.037.246zm-.08 5.732l.249.013v-.003l-.249-.01zm-.584 3.025l-.236-.079v.003l.236.076zm-1.274 2.786l-.212-.13-.002.004.214.126zm-1.724 2.256l-.176-.176-.005.005.18.171zm-.398.902l-.08.236.08-.236zm.45-.08l-.123-.215-.007.004-.007.005.138.207zm.452-.238l.111.222.017-.008.015-.01-.143-.204zm2.468-2.415l-.2-.148.2.148zm1.672-3.025l.232.089v-.001l-.232-.088zm.663-3.158l.249.009v-.002l-.249-.007zm.026-1.858l-.248-.007v.007h.249zm0-2.945h-.248v.011l.249-.011zm0-1.194l-.037-.246-.211.032v.214h.249zm3.318-.319l.008.249h.006l-.014-.249zm.716-.159l.111.223.009-.005.008-.005-.128-.213zm-14.303 6.29l.087-.234-.042-.016h-.045v.25zm-.398.344l.222.111.006-.01.004-.012-.232-.089zm-.319.69l.225.107.002-.005-.227-.102zm-.557 1.141l-.222-.111.222.111zm-.61 1.168l-.248.026.083.789.383-.695-.218-.12zm-.08-1.115l-.248.011.248-.01zm.08-4.803l.248.014-.248-.014zm.292-3.768l.247.025-.247-.025zm.371-3.37l-.244-.049-.002.009V8.8l.246.03zm.027-.239l-.242-.06-.007.03v.03h.249zm-.08-.61l-.227.1.013.03.02.025.194-.155zm-.424-.345l-.103.226.011.006.013.004.079-.236zm-.584-.16l-.023.248.023-.248zm-.823.133l-.236-.079-.013.039v.04h.25zm.053.292l-.222.111.01.02.013.018.2-.149zm.133.239l-.231.092.004.01.004.01.223-.112zm.106.53l.247.027.002-.013v-.013h-.249zm-.186 2.044l-.248-.02.248.02zm-.239 2.813l-.247-.022v.004l.247.018zm-.185 2.892l-.249-.014.249.014zm-.106 2.389l-.25-.007v.007h.25zm0 .716h-.25v.01l.25-.01zm.08 1.566l-.25.014.001.008.248-.022zm.211 1.83l-.246.036.246-.035zm.345 1.62l-.237.073v.002l.237-.075zm.558.796l-.09.232.014.005.015.004.06-.241zm.212.08l-.111.222.03.015.032.006.049-.244zm.69-.08l.111.222.01-.005.01-.006-.131-.211zm.318-.478l.238.073v-.002l-.238-.071zm.213-.929l-.242-.058-.002.01.244.048zm.345-1.486l-.242-.06-.001.005.243.055zm.371-1.645l-.242-.057-.002.008.244.049zm.292-1.354l-.244-.046.244.046zm14.711-7.616v-.026h-.497v.026h.497zm0-.026c0-.232-.146-.428-.322-.584l-.33.372c.142.126.155.196.155.212h.497zm-.311-.574a2.966 2.966 0 00-.608-.464l-.251.43c.195.114.364.243.507.386l.352-.352zm-.587-.45c-.222-.161-.459-.26-.704-.26v.498c.108 0 .244.043.411.165l.293-.403zm-.704-.26h-.053v.498h.053v-.498zm-.053 0a1.09 1.09 0 00-.548.14l.247.431a.594.594 0 01.301-.073v-.498zm-.536.133a.94.94 0 01-.314.081l.055.495a1.43 1.43 0 00.482-.131l-.223-.445zm-.307.08c-.66.054-1.372.134-2.137.24l.069.494c.757-.106 1.46-.185 2.109-.238l-.04-.496zm-1.854.48l-.106-4.271-.497.012.106 4.272.497-.012zm-.106-4.278a2.074 2.074 0 00-.077-.498.772.772 0 00-.222-.368l-.324.378c.013.01.042.046.07.136.027.088.048.212.056.377l.497-.025zm-.272-.84a.977.977 0 00-.337-.236 2.768 2.768 0 00-.482-.161l-.12.483c.167.042.297.086.394.13a.504.504 0 01.167.109l.378-.324zm-.806-.393a2.858 2.858 0 00-.843-.118v.498c.263 0 .494.033.697.095l.146-.475zm-.843-.118c-.157 0-.299.011-.411.043-.094.026-.271.096-.31.29l.488.098c-.01.05-.04.08-.055.092-.012.009-.013.006.01 0 .047-.014.135-.025.278-.025v-.498zm-.726.382v.053h.498v-.053h-.498zm0 .053a.6.6 0 00.13.362l.398-.299c-.03-.039-.03-.058-.03-.063h-.498zm.13.362c.045.06.08.118.109.174l.445-.223a1.635 1.635 0 00-.156-.25l-.399.299zm.132.212c.032.043.076.124.125.256l.466-.174a1.55 1.55 0 00-.193-.38l-.398.298zm.142.292a.496.496 0 01.074.248h.497a.99.99 0 00-.139-.494l-.432.246zm.074.263c.035.616.062 1.294.08 2.035l.497-.012a62.146 62.146 0 00-.08-2.052l-.497.029zm.08 2.035l.052 2.282.498-.012-.053-2.282-.498.012zm.263 2.03c-1.134.177-2.259.363-3.375.558l.086.49c1.113-.194 2.235-.38 3.366-.556l-.077-.492zm-3.375.558c-1.098.195-1.994.364-2.687.506l.1.487c.687-.14 1.578-.308 2.673-.503l-.086-.49zm-2.637.5h-.345v.498h.345v-.497zm-.345 0c-.112 0-.213-.007-.304-.022l-.082.49c.121.02.25.03.386.03v-.497zm-.253-.008a.96.96 0 00-.358-.071v.498a.46.46 0 01.173.035l.185-.462zm-.358.178l-.048-.244h-.002c-.006.002.004 0-.003 0 0 .001 0 0 0 0v.001h-.001c-.006.001.005-.001 0 0h-.002c-.004.001.004 0 0 0l-.003.001c-.005.001.005-.001 0 0h-.002c-.003.001.002 0 0 0h-.001l-.002.001h-.004l-.001.001h-.005c-.011.003.004 0-.007.003h-.005l-.004.001-.005.001-.005.001-.005.001-.006.001-.003.001h-.003c-.01.002.003 0-.006.002l-.006.001-.007.001-.003.001h-.004c-.003.001.003 0 0 0l-.001.001h-.002l-.004.001-.015.003c-.01.002.009-.002-.002 0l-.002.001h-.004l-.008.002.098.488.03-.006.015-.003h.004c.01-.003-.006 0 .002-.001h.002c.017-.004-.015.003.001 0h.001c.009-.002-.007 0 .001-.001.013-.002-.011.002.002 0l.012-.003h.005l.002-.001c.002 0-.002 0 0 0h.003l.001-.001c.003 0-.003 0 0 0h.004l.005-.002a.353.353 0 00.01-.002l.014-.002.01-.003h.006l.002-.001-.049-.244zm-.181-.218a.414.414 0 00-.242.138.408.408 0 00-.09.266h.497c0-.003 0 .023-.025.053-.024.029-.048.032-.042.031l-.098-.488zm-.333.404c0 .125.038.259.092.392.055.136.135.288.237.454l.424-.26a2.746 2.746 0 01-.2-.382.601.601 0 01-.055-.204H68.4zm.338.86c.233.33.511.566.84.676l.158-.472c-.201-.067-.4-.22-.592-.491l-.406.287zm.796.656c.161.092.336.139.522.139v-.498a.54.54 0 01-.275-.073l-.247.432zm.522.139c.147 0 .29-.021.423-.066l-.157-.472a.836.836 0 01-.266.04v.498zm.413-.063c.113-.032.226-.056.338-.072l-.07-.493c-.135.02-.27.048-.405.087l.137.478zm.359-.076a47.007 47.007 0 012.376-.475l-.087-.49c-.905.16-1.706.32-2.4.48l.111.485zm2.38-.476a60.577 60.577 0 012.775-.476l-.073-.492c-.959.142-1.891.302-2.797.48l.095.488zm2.49-.722v1.54h.498v-1.54h-.498zm0 1.54c0 1.536-.027 2.93-.08 4.181l.498.021c.053-1.26.08-2.661.08-4.203h-.498zm-.08 4.179a11.19 11.19 0 01-.57 2.96l.471.157c.343-1.029.542-2.06.597-3.091l-.497-.026zm-.572 2.962a12.59 12.59 0 01-1.249 2.733l.425.26c.541-.885.974-1.832 1.298-2.84l-.474-.153zm-1.25 2.736a11.071 11.071 0 01-1.687 2.206l.352.352a11.573 11.573 0 001.763-2.305l-.429-.253zm-1.692 2.21a4.047 4.047 0 00-.382.455c-.045.065-.084.13-.112.192a.53.53 0 00-.052.215h.498c0 .018-.005.018.008-.01a.756.756 0 01.067-.114c.07-.1.179-.23.334-.395l-.36-.342zm-.546.862a.67.67 0 00.036.233c.03.08.093.175.214.215l.157-.472c.03.01.055.028.072.047a.117.117 0 01.023.036l-.002-.01a.37.37 0 01-.002-.049h-.498zm.25.448a.75.75 0 00.238.04v-.498a.255.255 0 01-.08-.014l-.158.472zm.238.04c.155 0 .3-.062.43-.148l-.276-.414c-.083.055-.132.064-.154.064v.498zm.415-.14c.119-.067.265-.144.44-.232l-.223-.445c-.18.09-.335.172-.464.246l.247.432zm.471-.25a10.908 10.908 0 002.525-2.472l-.4-.294a10.414 10.414 0 01-2.411 2.358l.286.407zm2.525-2.47c.72-.974 1.288-2.002 1.704-3.085l-.465-.178a12.468 12.468 0 01-1.64 2.966l.4.296zm1.704-3.086c.416-1.102.643-2.181.68-3.238l-.498-.017c-.034.996-.249 2.022-.647 3.08l.465.175zm.68-3.24c.017-.638.026-1.26.026-1.864h-.497c0 .6-.01 1.216-.027 1.851l.498.014zm.026-1.856c.018-.604.027-1.19.027-1.759h-.498c0 .564-.009 1.145-.026 1.744l.497.015zm.027-1.759c0-.41-.01-.812-.027-1.205l-.497.022c.017.385.026.78.026 1.183h.498zm-.027-1.194v-.002-.003-.002-.003-.002-.002-.003-.002-.003-.002-.002-.003-.002-.002-.003-.002-.003-.002-.002-.003-.002-.002-.003-.002-.003-.002-.002-.003-.002-.003-.002-.002-.003-.002-.003-.002-.002-.003-.002-.002-.003-.002-.003-.002-.002-.003-.002-.002-.003-.002-.002-.003-.002-.003-.002-.002-.003-.002-.002-.003-.002-.003-.002-.002-.003-.002-.002-.003-.002-.003-.002-.002-.003-.002-.002-.003-.002-.002-.003-.002-.003-.002-.002-.003-.002-.002-.003-.002-.003-.002-.002-.003-.002-.002-.003-.002-.003-.002-.002-.003-.002-.002-.003-.002-.002-.003-.002-.003-.002-.002-.002-.003-.002-.003-.002-.002-.003-.002-.002-.003-.002-.002-.003-.002-.003-.002-.002-.003-.002-.002-.003-.002-.002-.003-.002-.002-.003-.002-.003-.002-.002-.003-.002-.002-.003-.002-.002-.003-.002-.003-.002-.002-.003-.002-.002-.003-.002-.002-.003-.002-.002-.003-.002-.002-.003-.002-.002-.003-.002-.002-.003-.002-.003-.002-.002-.003-.002-.002-.003-.002-.002-.003-.002-.002-.003-.002-.002-.003-.002-.002-.003-.002-.002-.003-.002-.003-.002-.002-.003-.002-.002-.003-.002-.002-.003-.002-.002-.003-.002-.002-.003-.002-.002-.003-.002-.002-.003-.002-.002-.003-.002-.002-.003-.002-.002-.003-.002-.003-.002-.002-.002-.003-.002-.002-.003-.002-.002-.003-.002-.002-.003-.002-.003-.002-.002-.003-.002-.002-.002-.003-.002-.002-.003-.002-.002-.003-.002-.002-.003-.002-.003-.002-.002-.002-.003-.002-.002-.003-.002-.002-.003-.002-.002-.003-.002-.003-.002-.002-.002-.003-.002-.002-.003-.002-.002-.003-.002-.002-.003-.002-.002-.003-.002-.002-.003-.002-.002-.003-.002-.002-.003-.002-.002-.003-.002-.002-.002-.003-.002-.002-.003-.002-.002-.003-.002-.002-.003-.002-.002-.003-.002-.002-.003-.002-.002-.003-.002-.002-.003-.002-.002-.002-.003-.002-.002-.003-.002-.002-.003-.002-.002-.003-.002-.002-.003-.002-.002-.003-.002-.002-.002-.003-.002-.002-.003-.002-.002-.003-.002-.002-.003-.002-.002-.003-.002-.002-.002-.003-.002-.002-.003-.002-.002-.003-.002-.002-.003-.002-.002-.003-.002-.002-.002-.003-.002-.002-.003-.002-.002-.003-.002-.002-.002-.003V13v-.002-.003-.002-.002-.003-.002-.002-.002-.003-.002-.002-.003-.002-.002-.003-.002-.002-.002-.003-.002-.002-.003-.002-.002-.003-.002-.002-.003-.002-.002-.002-.003-.002-.002-.003-.002-.002-.002-.003-.002-.002-.003-.002-.002-.003-.002-.002-.002-.003-.002-.002-.003-.002-.002-.002-.003-.002-.002-.003-.002-.002-.003-.002-.002-.002-.003-.002-.002-.003-.002-.002-.002-.003-.002-.002-.003-.002-.002-.002-.003-.002-.002-.003-.002-.002-.002-.003-.002-.002-.003-.002-.002-.002-.003-.002-.002-.003-.002-.002-.002-.003-.002-.002-.003-.002-.002-.002-.003-.002-.002-.003-.002-.002-.002-.003-.002-.002h-.497V13.926h.497zm-.211-.948c.58-.088 1.15-.158 1.71-.21l-.046-.496a30.9 30.9 0 00-1.739.214l.075.492zm1.71-.21a27.454 27.454 0 011.578-.106l-.017-.497c-.501.018-1.037.053-1.607.107l.047.495zm1.584-.106c.319-.02.595-.076.813-.185l-.222-.446c-.135.068-.337.117-.62.134l.03.497zm.83-.195c.237-.142.386-.357.386-.638h-.497c0 .074-.028.142-.145.212l.256.426zM67.35 18.294h-.08v.498h.08v-.498zm-.08 0a.48.48 0 00-.355.167c-.083.09-.146.209-.195.338l.464.178a.583.583 0 01.097-.179c.019-.02.014-.006-.01-.006v-.498zm-.54.483c-.056.111-.165.346-.324.7l.454.203c.16-.355.264-.58.314-.68l-.445-.223zm-.322.695a60.34 60.34 0 01-.554 1.136l.445.223c.212-.426.399-.808.56-1.146l-.45-.213zm-.554 1.136c-.212.422-.413.808-.606 1.159l.436.24c.196-.357.401-.75.615-1.177l-.445-.222zm-.14 1.253c-.036-.33-.062-.697-.08-1.1l-.496.022c.017.411.044.788.08 1.13l.495-.052zm-.08-1.1a29.794 29.794 0 01-.026-1.289h-.497c0 .463.009.9.027 1.311l.497-.021zm-.026-1.289c0-1.074.036-2.237.106-3.489l-.497-.028a62.777 62.777 0 00-.106 3.517h.497zm.106-3.489c.07-1.27.168-2.523.291-3.757l-.495-.05a85.735 85.735 0 00-.293 3.78l.497.027zm.291-3.758c.124-1.254.248-2.375.371-3.363l-.494-.062c-.124.993-.248 2.119-.372 3.377l.495.048zm.368-3.345c.02-.1.031-.197.031-.288h-.497c0 .05-.007.114-.022.19l.488.098zm.024-.228c.022-.09.034-.18.034-.272h-.498c0 .05-.006.1-.019.152l.483.12zm.034-.272c0-.204-.04-.402-.16-.554l-.39.311c.021.026.052.092.052.243h.498zm-.128-.5c-.106-.24-.314-.393-.573-.48l-.157.473c.166.055.241.131.276.21l.454-.202zm-.549-.47a2.05 2.05 0 00-.664-.18l-.045.495c.165.015.332.06.504.138l.205-.453zm-.664-.18a5.492 5.492 0 00-.42-.028V7.7c.058 0 .18.007.375.025l.045-.495zm-.42-.028c-.137 0-.269.014-.38.056a.448.448 0 00-.28.273l.471.158c-.014.04-.043.045-.016.035a.632.632 0 01.205-.024v-.498zm-.674.408v.08h.498v-.08h-.498zm0 .08a.72.72 0 00.08.323l.445-.222a.223.223 0 01-.027-.101h-.498zm.103.361a.79.79 0 01.1.182l.463-.185a1.29 1.29 0 00-.165-.295l-.398.298zm.11.201a.65.65 0 01.08.287h.497c0-.172-.05-.343-.133-.51l-.445.223zm.08.287v.133h.497v-.133h-.498zm0 .106a86.113 86.113 0 00-.186 2.05l.496.04c.07-.866.133-1.545.185-2.037l-.494-.053zm-.186 2.05c-.07.866-.15 1.803-.238 2.811l.495.043c.089-1.008.168-1.946.24-2.814l-.497-.04zm-.239 2.815c-.07.992-.133 1.957-.186 2.896l.497.028c.053-.936.115-1.899.186-2.889l-.497-.035zm-.186 2.896c-.053.94-.088 1.738-.106 2.396l.497.013c.018-.651.053-1.445.106-2.38l-.497-.029zm-.106 2.403V19.526h.497v-.002-.003-.003-.002-.003-.002-.003-.003-.002-.003-.002-.003-.002-.003-.002-.003-.002-.003-.002-.003-.002-.003-.002-.003-.002-.003-.002-.003-.002-.003-.002-.002-.003-.002-.003-.002-.003-.002-.003-.002-.002-.003-.002-.002-.003-.002-.003-.002-.002-.003-.002-.002-.003-.002-.002-.003-.002-.002-.003-.002-.002-.003-.002-.002-.003-.002-.002-.002-.003-.002-.002-.002-.003-.002-.002-.002-.003-.002-.002-.002-.003-.002-.002-.002-.002-.003-.002-.002-.002-.002-.003-.002-.002-.002-.002-.002-.002-.002-.003-.002-.002-.002-.002-.002-.002-.003-.002-.002-.002-.002-.002-.002-.002-.002-.002-.002-.002-.002-.002-.002-.002-.002-.003-.002-.002-.002-.002-.002-.002-.002-.002-.001-.002-.002-.002-.002-.002-.002-.002-.002-.002-.002-.002-.002-.002-.002-.002-.002-.001-.002-.002-.002-.002-.002-.002-.002-.001-.002-.002-.002-.002-.002-.002-.001-.002-.002-.002-.002-.001-.002-.002-.002-.002-.001-.002-.002-.002-.001-.002-.002-.002-.002-.001-.002-.002-.001-.002-.002-.002-.001-.002-.002-.001-.002-.002-.001-.002-.002-.001-.002-.002-.001-.002-.002-.001-.002-.002-.001-.002-.002-.001-.002-.001-.002-.002-.001-.002-.001-.002-.001-.002-.002-.001-.002-.001-.002-.001-.002-.001-.002-.001-.002-.001-.002-.001-.002-.001-.002-.001-.002-.001-.002-.001-.002-.001-.002-.001-.001-.002-.001-.002-.001-.002-.002-.002-.001-.002-.002-.002-.001-.001-.002-.001V19v-.002-.002-.002-.002-.002-.002-.002-.001-.002-.001-.001-.002-.002-.001-.002-.002-.001-.002-.002-.001-.002-.002-.001-.001-.002-.002-.001-.001-.002-.002-.001-.001-.001-.002-.002-.001-.001-.001-.001-.002-.002-.002-.001-.001-.001-.001-.001-.001-.001-.002-.002-.002-.002-.002-.002-.002-.002-.002-.002-.002-.002-.002-.002-.001-.001-.001-.001-.001-.002-.002-.001-.001-.001-.001-.002-.002-.001-.001-.002-.001-.001-.002-.001-.001-.002-.001-.001-.002-.001-.002-.001-.001-.001-.002-.001-.001-.001-.001-.001-.001-.001-.001-.001-.001-.002-.001-.001-.001-.001-.002-.001-.001-.001-.001-.001-.001-.001-.001-.001-.001-.001-.001-.001-.001-.001-.001-.001-.001-.001-.001-.001-.001-.001-.001-.001-.001-.001-.001-.001-.001h-.497zm0 .726c.018.427.044.95.08 1.57l.496-.029c-.035-.618-.061-1.138-.079-1.561l-.497.02zm.08 1.578c.054.606.125 1.22.214 1.844l.493-.07a33.937 33.937 0 01-.211-1.818l-.496.044zm.214 1.844c.09.628.207 1.181.354 1.657l.475-.147a10.46 10.46 0 01-.336-1.58l-.493.07zm.354 1.66c.146.455.363.82.705.952l.179-.465c-.117-.045-.272-.21-.41-.64l-.474.152zm.734.96a.797.797 0 01.162.062l.222-.445a1.291 1.291 0 00-.263-.099l-.12.483zm.224.083c.104.021.21.032.314.032v-.498c-.072 0-.144-.007-.216-.022l-.098.488zm.314.032c.185 0 .364-.047.536-.133l-.222-.445a.695.695 0 01-.314.08v.498zm.557-.144c.21-.132.343-.354.424-.616l-.475-.146c-.061.197-.14.294-.213.34l.264.422zm.425-.618c.056-.189.13-.509.218-.951l-.488-.098c-.089.443-.158.742-.207.906l.477.143zm.215-.942c.107-.443.222-.94.346-1.49l-.485-.109c-.124.548-.239 1.042-.344 1.483l.483.116zm.345-1.484c.142-.57.267-1.122.374-1.656l-.488-.098a35.145 35.145 0 01-.369 1.634l.483.12zm.372-1.649c.125-.532.223-.987.294-1.363l-.488-.093c-.07.367-.167.815-.29 1.343l.484.113zm.294-1.363c.036-.187.063-.338.081-.452.017-.106.03-.2.03-.258h-.498v.013l-.005.038c-.003.033-.01.075-.018.129-.017.107-.043.252-.078.437l.488.093zm.11-.71c0-.114-.04-.22-.115-.305a.638.638 0 00-.258-.167l-.174.466a.278.278 0 01.048.023c.01.006.013.01.012.009a.04.04 0 01-.007-.012.041.041 0 01-.003-.014h.498zm45.262-10.508l.176.175.01-.01.009-.01-.195-.155zm.08-.903l-.211.132.004.007.005.006.202-.145zm-.69-.716l-.171.18.004.004.167-.184zm-1.804-1.592l-.162.189.162-.19zm-.903.053l-.176-.176-.005.006-.006.006.187.164zm0 .849l-.162.189.004.003.158-.192zM110.817 7l-.183.168.007.008.176-.176zm1.194 1.327l-.194.156.008.009.186-.165zm.796.159l.111.222.014-.007.013-.008-.138-.207zM101.98 25.814v.25l.01-.001-.01-.249zm2.335-.743l.138.207.004-.002-.142-.205zm1.646-1.91l.101-.228-.216-.096-.107.21.222.114zm1.724.981l-.145.202.003.002.142-.204zm1.301 1.221l.199-.15h-.001l-.198.15zm.902.319l-.101-.228-.01.005.111.223zm.451-.345l.186.165-.186-.165zm-.478-1.699l-.164.187.004.003.16-.19zm-1.618-1.088l.116-.22-.116.22zm-1.778-.822l-.246-.036-.028.196.184.072.09-.232zm.079-.717l-.246-.035-.001.008-.001.008.248.02zm.027-1.406l-.249.011.001.015.003.015.245-.041zm-.08-1.752l-.248.006v.006l.248-.012zm-.079-2.68l-.249.005v.004l.249-.009zm-.08-2.919l-.023-.248-.234.022.008.235.249-.009zm1.672-.133l-.016-.248.016.248zm1.645-.08v-.248h-.008l.008.249zm.955-.53h.249v-.015l-.001-.014-.248.029zm-.451-.77l.156-.194-.156.194zm-.69-.345l.023-.247-.011-.001h-.012v.248zm-.079 0l-.176.176.073.073h.103v-.248zm-.982.186l.013.249.021-.001.02-.005-.054-.243zm-1.035.08l-.025-.248h-.001l.026.248zm-1.061.106l-.249.005.005.268.267-.025-.023-.248zm-.054-2.388h-.248v.006l.248-.006zm-.079-1.646l-.245.045.003.014.004.013.238-.072zm-.398-.477l-.138.207.01.006.01.006.118-.22zm-1.645-.027l-.247-.035-.002.018v.017h.249zm.212.345l-.132.211.01.006.011.006.111-.223zm.265.478l-.246.035.002.013.003.012.241-.06zm.053 1.22l.249-.005-.249.006zm.053 2.68l.03.248.223-.027-.004-.224-.249.004zm-3.051.425l.039.246-.039-.246zm-2.574.451v.25h.024l.023-.005-.047-.245zm-.292.027l-.031-.247.03.247zm-.558-.027l-.098.23.015.005.015.005.068-.24zm-.477-.053l.092.231.01-.003.009-.005-.111-.223zm0 .558l-.232.089.232-.09zm.45.69l-.182.169.007.007.176-.176zm1.195.292l.035.246.013-.002.012-.003-.06-.242zm.398-.08l.035.246.01-.001.008-.002-.053-.243zm2.335-.425l.037.246h.004l-.041-.246zm2.601-.371l.249-.01-.01-.27-.269.033.03.247zm.08 2.892l-.249.005.249-.005zm.053 2.627l-.249.006.249-.006zm.053 1.778h.249l-.001-.01-.248.01zm-.08 1.433l-.076.237.281.09.041-.291-.246-.036zm-1.459-.318l-.037.246.009.001.028-.247zm-3.424.16l-.07-.24-.002.001.072.238zm-1.539.848l.164.188-.164-.188zm-.663 1.513l-.249-.007v.007h.249zm1.035 1.725l-.142.204.142-.204zm12.18-15.418l.176.176.01-.01.008-.01-.194-.156zm-.106-1.168l-.201.148.007.008.194-.156zm-.743-.822l-.176.176.005.005.171-.181zm-.876-.796l-.17.182.007.005.006.006.157-.193zm-.637-.531l.138-.207-.006-.004-.132.21zm-.902.902l-.176.176.005.005.171-.18zm1.035 1.035l-.181.172.01.008.171-.18zm1.168 1.353l.201-.146-.002-.003-.199.15zm.822.213l.128.213.01-.006-.138-.207zM93.86 22.603l-.248.021.067.805.397-.703-.216-.123zm-.053-.663h-.249v.019l.249-.02zm.106-3.689l-.248-.016.248.016zm.292-3.317l.247.027-.247-.027zm.398-3.343l-.246-.037v.004l.246.033zm.478-2.92l.245.046v-.01l-.245-.035zm.026-.318l-.244-.049-.005.025v.024h.25zm0-.45l-.24.067.007.023.01.02.223-.11zm-.371-.346l-.126.215.007.004.007.004.112-.223zm-.69-.292l-.084.234.008.003.007.002.069-.239zm-.982 0l-.231-.092-.018.044v.048h.249zm-.027.053l-.176-.176-.073.073v.103h.25zm.106.24l-.175.175.175-.176zm.16.185l.222-.111-.007-.014-.008-.013-.207.138zm.106.398l.241.06.008-.03v-.03h-.25zm-.133 1.035l-.247-.028.247.028zm-.265 2.309l-.247-.029v.004l.247.024zm-.292 2.865l-.248-.026v.005l.248.021zm-.265 2.866l-.248-.024v.005l.248.02zm-.16 2.203l-.248-.016v.016h.248zm-.026.451l-.249-.015v.015h.249zm.186 4.352l-.247.037.247-.037zm.504 1.752l-.214.128.214-.128zm1.194.371l-.121-.217-.015.008-.014.01.15.199zm.318-.478l-.238-.07-.002.007-.002.007.242.056zm.372-1.353l-.239-.07-.002.006.24.064zm.53-1.91l-.239-.07-.001.006.24.063zm.505-1.805l-.239-.072-.002.008.24.064zm.292-1.035l.242.054v-.002l-.242-.052zm-.319-.663l.156.194.01-.009.01-.01-.176-.175zm-.265.291l-.203-.144-.005.008-.005.008.213.128zm-.372.69l.218.12.003-.004-.22-.116zm-.663 1.221l-.22-.118-.003.007.223.111zm4.697 2.07l-.248-.02-.001.01v.01h.249zm.743-.902l.089.232.005-.002-.094-.23zm2.998-.213l-.03.247h.001l.029-.247zm1.407.319l.222.111.13-.26-.276-.088-.076.237zm-1.539 1.433l.104.226.007-.004-.111-.222zm10.411-15.581c.166-.208.266-.439.266-.686h-.497c0 .106-.042.23-.158.375l.389.311zm.266-.686a.88.88 0 00-.179-.516l-.404.289a.392.392 0 01.086.227h.497zm-.17-.504c-.11-.175-.367-.437-.734-.769l-.334.37c.376.34.579.556.646.663l.422-.264zm-.73-.765a51.263 51.263 0 00-1.814-1.6l-.323.378a51.934 51.934 0 011.795 1.583l.342-.36zm-1.814-1.6a.88.88 0 00-.586-.22v.498c.098 0 .183.031.263.1l.323-.378zm-.586-.22a.91.91 0 00-.654.286l.352.352c.102-.102.2-.14.302-.14v-.497zm-.665.298a.923.923 0 00-.247.615h.497a.43.43 0 01.125-.287l-.375-.328zm-.247.615c0 .234.095.435.272.587l.324-.378a.256.256 0 01-.099-.21h-.497zm.276.59c.289.238.634.573 1.037 1.011l.366-.337c-.411-.446-.774-.8-1.087-1.058l-.316.384zm1.044 1.019c.418.418.81.854 1.176 1.307l.387-.313a17.194 17.194 0 00-1.211-1.346l-.352.352zm1.184 1.316c.172.193.385.322.637.322v-.497c-.066 0-.154-.03-.265-.156l-.372.33zm.637.322c.161 0 .314-.035.456-.106l-.222-.445a.513.513 0 01-.234.054v.497zm.483-.121c.116-.078.218-.159.303-.244l-.352-.351a1.464 1.464 0 01-.227.18l.276.415zm-11.363 17.37h.398v-.497h-.398v.497zm.408 0a4.697 4.697 0 002.463-.785l-.276-.414a4.204 4.204 0 01-2.207.702l.02.497zm2.467-.787a5.341 5.341 0 001.725-2.002l-.443-.227a4.843 4.843 0 01-1.565 1.82l.283.409zm1.403-1.888a9.308 9.308 0 011.68.956l.291-.403a9.76 9.76 0 00-1.769-1.008l-.202.455zm1.683.958c.513.36.926.749 1.245 1.168l.396-.301a6 6 0 00-1.356-1.274l-.285.407zm1.244 1.166c.228.305.505.524.836.524v-.497c-.094 0-.242-.063-.438-.325l-.398.298zm.836.524c.043 0 .082-.01.104-.016a.865.865 0 00.081-.028c.053-.021.118-.051.191-.088l-.222-.445a2.12 2.12 0 01-.154.071l-.032.012c-.008.002.006-.003.032-.003v.497zm.366-.127c.198-.088.376-.227.536-.407l-.372-.33c-.123.138-.246.229-.366.282l.202.455zm.536-.407c.185-.209.275-.464.275-.75h-.497a.598.598 0 01-.15.42l.372.33zm.275-.75c0-.464-.3-.9-.778-1.304l-.321.38c.442.374.602.682.602.925h.497zm-.774-1.3a8.586 8.586 0 00-1.667-1.122l-.232.44c.623.33 1.145.681 1.57 1.055l.329-.373zm-1.667-1.122a17.274 17.274 0 00-1.804-.834l-.18.464a16.79 16.79 0 011.752.81l.232-.44zm-1.648-.567c.036-.253.063-.497.081-.733l-.496-.038c-.017.224-.043.458-.077.7l.492.07zm.08-.717a5.5 5.5 0 00.055-.778h-.497c0 .236-.017.472-.051.708l.493.07zm.055-.778v-.001-.001-.001-.001-.002-.001-.001-.001-.002-.001-.001-.001-.002-.001-.002-.001-.001-.001-.002-.001-.001-.001-.002-.001-.001-.001-.002-.001-.001-.001-.002-.001-.001-.001-.001-.001-.001-.002-.001-.001-.001-.002-.001-.001-.001-.002-.001-.001-.001-.002-.001-.001-.001-.002-.001-.002-.001-.001-.001-.002-.001-.001-.001-.002-.001-.001-.001-.002-.001-.001-.001-.002-.001-.001-.001-.001-.001-.001-.002-.001-.001-.001-.002-.001-.001-.001-.002-.001-.001-.001-.002-.001-.001-.001-.002-.001-.002-.001-.001-.001-.002-.001-.001-.001-.002-.001-.001-.001-.002-.001-.001-.001-.002-.001-.001-.001-.001-.001-.001-.002-.001-.001-.001-.002-.001-.001-.001-.002-.001-.001-.001-.002-.001-.001-.001-.002-.001-.002-.001-.001-.001-.002-.001-.001-.001-.002-.001-.001-.001-.002-.001-.001-.001-.002-.001-.001-.001-.001-.001-.001-.002-.001-.001-.001-.002-.001-.001-.001-.002-.001-.001-.001-.002-.001-.001-.001-.002-.001-.002-.001-.001-.001-.002-.001-.001-.001-.002-.001-.001-.001-.002-.001-.001-.001-.002-.001-.001-.001-.001-.001-.001-.002-.001-.001-.001-.002-.001-.001-.001-.002-.001-.001-.001-.002V20 20v-.001-.002-.001-.002-.001-.001-.001-.002-.001-.001-.001-.002-.001-.001-.001-.002-.001-.001-.001-.002-.001-.001-.001-.001-.001-.001-.002-.001-.001-.001-.002-.001-.001-.001-.002-.001-.001-.001-.002-.001h-.497V20.269h.497zm0-.318a2.27 2.27 0 00-.03-.386l-.49.082c.015.09.023.191.023.304h.497zm-.027-.357v-.002-.002-.005-.009l-.001-.019-.002-.038-.001-.02v-.002-.002-.005l-.001-.01-.001-.02-.001-.02-.001-.021v-.006-.005-.01l-.001-.021-.001-.022-.001-.01v-.004-.008l-.001-.005v-.003-.003-.011l-.001-.005v-.017l-.001-.023-.001-.011-.001-.012v-.012-.002-.003-.003l-.001-.003-.002-.047v-.012l-.001-.013-.001-.024v-.012l-.001-.013-.001-.025-.001-.025v-.003l-.001-.003v-.019l-.001-.013-.001-.013-.001-.026-.002-.053c-.001-.018 0 .01-.001-.007v-.003-.004-.006-.004-.003l-.002-.027-.001-.028v-.007-.003l-.001-.004v-.014l-.003-.056-.001-.029-.001-.014v-.015l-.001-.014v-.004-.004l-.001-.003v-.004l-.001-.03-.001-.03-.002-.03v-.003-.004-.004-.003l-.001-.016v-.004l-.001-.003v-.004-.004-.004-.004-.003l-.001-.004v-.008-.008l-.001-.008v-.003-.004l-.001-.031-.002-.032v-.008-.004l-.001-.004v-.016l-.001-.008v-.008l-.001-.016-.001-.032-.002-.033-.001-.033v-.004l-.001-.004v-.004-.004-.004-.005l-.001-.004v-.004l-.001-.033-.002-.034v-.009l-.001-.008v-.004-.005-.004-.004l-.001-.017-.001-.018-.001-.034-.001-.018-.001-.008v-.005-.004l-.001-.018-.001-.017v-.005-.004-.005-.004l-.001-.005v-.004-.009l-.001-.009v-.009-.004-.005l-.001-.009-.003-.072-.497.023V17.874l.001.009v.018l.001.018a.108.108 0 01.001.018l.002.036.001.035.001.005V18.026l.001.017v.01l.001.008V18.074l.001.004v.022l.001.004v.009l.001.017.001.017.001.034.001.009v.017l.001.004v.004l.003.067v.012l.001.004v.017l.001.008v.008l.001.017v.016l.001.008v.012l.001.004v.016l.001.008.001.032.002.031.002.062.002.031v.015l.001.004v.011l.001.015v.012l.001.003v.019l.001.004v.007l.001.015v.015l.002.029.002.058.001.028.002.028v.014c.001.015 0-.009.001.007v.017l.001.003v.014l.01.21v.012l.001.013v.012l.001.007v.006l.001.012v.012l.001.024.001.012v.012l.001.012v.011l.001.024.001.023.001.005v.014l.001.003v.017l.001.006v.019l.001.003v.01l.001.012v.021l.001.003V19.419l.001.021.001.01v.011l.007.155.497-.023zm-.079-1.745c-.018-.798-.044-1.692-.08-2.684l-.497.018c.035.99.062 1.882.08 2.677l.497-.011zm-.08-2.68c-.017-.992-.044-1.966-.079-2.923l-.498.018c.036.954.062 1.925.08 2.915l.497-.01zm-.305-2.666a58.039 58.039 0 011.665-.132l-.032-.497c-.551.036-1.111.08-1.679.133l.046.496zm1.664-.132c.564-.036 1.11-.062 1.638-.08l-.016-.497c-.533.018-1.084.045-1.653.08l.031.497zm1.63-.08c.329 0 .61-.035.818-.127a.691.691 0 00.277-.21.551.551 0 00.109-.336h-.497c0 .02-.005.03-.01.037a.211.211 0 01-.081.054c-.111.05-.308.085-.616.085v.498zm1.204-.673v-.106h-.497v.106h.497zm-.001-.135c-.044-.374-.234-.687-.543-.935l-.311.389c.221.177.333.377.359.604l.495-.058zm-.543-.935c-.279-.223-.556-.374-.823-.398l-.045.495c.122.011.305.09.557.292l.311-.389zm-.846-.4h-.002-.001-.001-.002-.001-.001-.006-.001-.002-.002-.001-.001-.001-.001-.001-.001-.001-.001-.002-.001-.001-.001-.001-.002-.001-.001H109.417h-.001-.001-.002-.001-.001-.001-.002-.001-.001-.001-.002-.001-.003-.001-.001-.001H109.387h-.001-.001-.001v.498H109.463v-.497zm.097.074a.356.356 0 00-.256-.1v.498c-.003 0-.051-.001-.096-.047l.352-.351zm-.256-.1c-.187 0-.367.031-.538.096l.174.465c.113-.042.233-.063.364-.063v-.498zm-.538.096c-.13.048-.269.09-.418.122l.108.486a3.57 3.57 0 00.484-.143l-.174-.465zm-.377.117c-.34.018-.689.045-1.047.08l.05.495c.35-.035.691-.06 1.023-.078l-.026-.497zm-1.048.08c-.335.036-.688.071-1.059.106l.047.496c.372-.036.727-.071 1.064-.107l-.052-.495zm-.787.35c-.017-.939-.035-1.736-.053-2.391l-.497.013c.017.654.035 1.45.053 2.387l.497-.01zm-.053-2.384v-.004-.004-.004-.004-.003-.004-.004-.004-.004-.003-.004-.004-.004-.003-.004-.004-.004-.003-.004-.004V8.3v-.003-.004-.004-.003-.004-.004-.003-.004-.004-.003-.004-.004-.003-.004-.003-.004-.004-.003-.004-.003-.004-.004-.003-.004-.003-.004-.003-.004-.003-.004-.004-.003-.004-.003-.004-.003-.004-.003-.003-.004-.003-.004-.003-.004-.003-.004-.003-.003-.004-.003-.004-.003-.003-.004-.003-.004V8.1v-.003-.004-.003-.003-.004-.003-.003-.004-.003-.003-.004-.003-.003-.003-.004-.003-.003-.003-.004-.003-.003-.003-.004-.003-.003-.003-.004-.003-.003-.003-.003-.003-.004-.003-.003-.003-.003-.003-.003-.004-.003-.003-.003-.003-.003-.003-.003-.003-.003-.003-.004-.003-.003-.003-.003-.003-.003-.003-.003-.003-.003-.003V7.9v-.003-.003-.003-.003-.003-.002-.003-.003-.003-.003-.003-.003-.003-.003-.003-.003-.002-.003-.003-.003-.003-.003-.003-.002-.003-.003-.003-.003-.003-.002-.003-.003-.003-.002-.003-.003-.003-.003-.002-.003-.003-.002-.003-.003-.003-.002-.003-.003-.002-.003-.003-.002-.003-.003-.002-.003-.003-.002-.003-.003-.002-.003-.002-.003-.003-.002-.003-.002-.003-.002-.003-.002-.003-.003-.002-.003-.002-.003-.002-.003-.002-.003-.002-.003-.002-.002-.003-.002-.003-.002-.003-.002-.002-.003-.002-.003-.002-.002-.003-.002-.003-.002-.002-.003-.002-.002-.003-.002-.002-.003-.002-.002V7.6 7.6v-.002-.002-.003-.002-.002-.002-.003-.002-.002-.002-.003-.002-.002-.002-.002-.003-.002-.002-.002-.002-.003-.002-.002-.002-.002-.002-.002-.002-.003-.002-.002-.002-.002-.002-.002-.002-.002-.002-.002-.002-.002-.003-.002-.002-.002V7.5v-.002-.002-.002-.002-.002-.002-.002-.001-.002-.002-.002-.002-.002-.002-.002-.002-.002-.002-.002-.002-.001-.002-.002-.002-.002-.002-.002-.001-.002-.002-.002-.002-.002-.001-.002-.002-.002-.001-.002-.002-.002-.002-.001-.002-.002-.002-.001-.002-.002-.001-.002-.002-.001V7.4v-.002-.001-.002-.002-.001-.002-.002-.001-.002-.002-.001-.002-.001-.002-.002-.001-.002-.001-.002-.001-.002-.002-.001-.002-.001-.002-.001-.002-.001-.002-.001-.002-.001-.002-.001-.002-.001-.002-.001-.001-.002-.001-.002-.001-.002-.002-.002-.001-.001-.002-.001-.002-.001-.001-.002-.001-.001-.002-.002-.002-.002-.001-.002-.001-.001-.002-.002-.001-.002-.002-.001-.001-.002-.002-.001-.001-.002-.002-.001-.001-.001-.002-.002-.002-.001-.001-.001-.001-.002-.002-.002-.002-.001-.001-.001-.001-.001-.001-.001-.001-.001-.001-.001-.001-.001-.001-.002-.002-.002-.001-.001-.001-.001-.001-.001-.002-.001-.001-.001-.001-.002-.001-.001-.001-.002-.001-.002-.001-.001-.001-.001h-.497V8.38h.497zm0-1.168c0-.172-.032-.356-.09-.549l-.476.143c.048.16.069.295.069.406h.497zm-.083-.522c-.053-.291-.252-.505-.525-.652l-.236.438c.186.1.253.205.271.303l.49-.09zm-.505-.64c-.279-.186-.727-.254-1.279-.254v.497c.544 0 .857.074 1.003.17l.276-.413zm-1.279-.254c-.17 0-.326.015-.451.061-.128.048-.273.149-.3.338l.493.07a.11.11 0 01-.029.06c-.01.01-.012.007.008 0a.89.89 0 01.279-.032v-.497zm-.753.434v.027h.497V6.23h-.497zm0 .027c0 .238.143.413.329.53l.264-.423c-.097-.06-.096-.098-.096-.107h-.497zm.35.54c.033.018.099.076.13.291l.493-.07c-.041-.28-.152-.54-.401-.665l-.222.445zm.135.316c-.002-.007.002.01.006.074.005.056.009.134.013.235.009.2.018.487.027.857l.497-.011a47.549 47.549 0 00-.04-1.117 1.125 1.125 0 00-.02-.158l-.483.12zm.046 1.166c.017.743.035 1.636.053 2.679l.497-.008a401.338 401.338 0 00-.053-2.682l-.497.011zm.272 2.428a74.845 74.845 0 00-3.062.426l.079.491c.987-.159 2.001-.3 3.042-.423l-.059-.494zm-3.062.426c-.992.16-1.853.31-2.582.452l.095.489c.722-.141 1.577-.291 2.566-.45l-.079-.491zm-2.534.448c-.071 0-.183.01-.323.028l.062.494a2.69 2.69 0 01.26-.025v-.497zm-.323.028a7.093 7.093 0 01-.216.024h-.019v.498c.055 0 .16-.011.297-.028l-.062-.494zm-.235.025a.924.924 0 01-.223-.044l-.137.479c.131.037.255.062.36.062v-.497zm-.194-.033a1.127 1.127 0 00-.442-.1V12c.064 0 .145.016.246.06l.196-.458zm-.442-.1a.541.541 0 00-.245.053l.223.445-.003.001a.128.128 0 01.025-.001V11.5zm-.226.044a.437.437 0 00-.29.417h.499l-.002.009a.08.08 0 01-.011.023c-.012.016-.022.018-.01.013l-.186-.462zm-.289.417c0 .037.009.068.01.072a12.606 12.606 0 00.14.389l.464-.179a11.965 11.965 0 01-.12-.323l-.002-.008.003.01c0 .003.003.018.003.04h-.498zm.15.461c.102.266.272.522.5.77l.366-.338a1.95 1.95 0 01-.402-.61l-.464.178zm.507.777c.265.264.605.39.998.39v-.497c-.278 0-.486-.085-.646-.245l-.352.351zm.998.39c.136 0 .272-.009.407-.028l-.07-.493a2.367 2.367 0 01-.337.024v.498zm.432-.033c.135-.034.26-.059.373-.075l-.07-.492c-.134.019-.275.047-.423.084l.12.483zm.391-.078a34.61 34.61 0 012.319-.422l-.073-.492c-.837.125-1.621.267-2.352.428l.106.486zm2.323-.422c.846-.141 1.709-.264 2.59-.37l-.06-.494c-.888.106-1.759.23-2.612.373l.082.49zm2.311-.608c.036.954.062 1.916.08 2.888l.497-.01a151.55 151.55 0 00-.079-2.896l-.498.018zm.08 2.888c.017.956.035 1.832.053 2.628l.497-.011c-.017-.796-.035-1.671-.053-2.626l-.497.009zm.053 2.628c.018.779.035 1.374.053 1.783l.497-.021c-.017-.405-.035-.995-.053-1.773l-.497.011zm.053 1.772v.345h.497v-.345h-.497zm0 .345c0 .342-.026.693-.077 1.053l.492.07c.055-.382.082-.756.082-1.123h-.497zm.245.851a7.718 7.718 0 00-1.508-.328l-.055.494c.46.051.93.154 1.411.308l.152-.474zm-1.499-.327c-.49-.073-.989-.109-1.496-.109v.497c.483 0 .958.035 1.423.104l.073-.492zm-1.496-.109h-.318v.497h.318v-.497zm-.318 0c-.525 0-1.097.093-1.716.276l.141.477c.584-.172 1.108-.256 1.575-.256v-.497zm-1.718.276a4.35 4.35 0 00-1.631.9l.328.374c.415-.365.897-.63 1.447-.798l-.144-.476zm-1.63.9c-.484.423-.73.997-.749 1.693l.498.014c.015-.578.213-1.013.578-1.332l-.328-.375zm-.749 1.7v.026h.498v-.026h-.498zm0 .026c0 .76.406 1.394 1.142 1.903l.283-.409c-.644-.446-.927-.943-.927-1.494h-.498zm1.142 1.903c.745.516 1.729.761 2.928.761v-.497c-1.136 0-2.01-.233-2.645-.673l-.283.41zM111.17 9.835c.167-.208.267-.438.267-.686h-.497c0 .106-.042.23-.158.376l.388.31zm.267-.686a.88.88 0 00-.106-.39 2.293 2.293 0 00-.267-.402l-.388.31c.099.125.167.23.21.315.044.087.054.14.054.167h.497zm-.367-.784a6.334 6.334 0 00-.773-.856l-.341.362c.293.275.53.538.713.789l.401-.295zm-.767-.851a11.748 11.748 0 00-.895-.813l-.314.386c.276.224.561.483.857.779l.352-.352zm-.882-.802a5.65 5.65 0 00-.669-.556l-.276.414c.142.095.343.26.605.506l.34-.364zm-.675-.56a.97.97 0 00-.503-.17v.497c.04 0 .117.018.239.095l.264-.422zm-.503-.17a.91.91 0 00-.654.285l.352.351c.102-.101.2-.139.302-.139v-.498zm-.654.285a.91.91 0 00-.285.653h.498c0-.102.037-.2.139-.302l-.352-.351zm-.285.653c0 .204.09.379.232.521l.352-.352c-.07-.07-.086-.125-.086-.169h-.498zm.237.526c.35.333.692.675 1.026 1.025l.36-.342a28.675 28.675 0 00-1.044-1.044l-.342.36zm1.035 1.034c.34.324.72.763 1.14 1.323l.398-.299c-.43-.573-.828-1.035-1.196-1.384l-.342.36zm1.137 1.32c.176.242.413.394.706.394v-.497c-.096 0-.196-.043-.303-.19l-.403.293zm.706.394c.16 0 .312-.034.446-.115l-.256-.427a.36.36 0 01-.19.045v.497zm.456-.121c.112-.075.207-.147.277-.217l-.352-.352c-.036.036-.1.088-.201.155l.276.414zm-16.767 12.51c-.018-.212-.035-.433-.053-.662l-.496.038c.017.23.035.452.053.665l.496-.041zm-.052-.643v-.002-.001-.002-.002-.002-.001-.002-.001-.002-.001-.002-.001-.001-.002-.001-.002-.001-.002-.001-.002-.001-.002-.002-.002-.001-.002-.001-.002-.001-.002-.001-.001-.002-.001-.002-.001-.002-.001-.002-.001-.002-.001-.001-.002-.001-.002-.001-.002-.001-.002-.001-.002-.002-.002-.001-.002-.001-.002-.001-.002-.001-.001-.002-.001-.002-.001-.002-.001-.002-.001-.002-.002-.002-.001-.002-.001-.002-.001-.002-.001-.002-.002-.002-.001-.002-.001-.002-.001-.002-.001-.001-.002-.001-.002-.001-.002-.001-.002-.001-.002-.002-.002-.001-.002-.001-.002-.001-.002-.001-.001-.002-.001-.002-.001-.002-.001-.002-.001-.002-.001-.001-.002-.001-.002-.001-.002-.001-.002-.001-.002-.002-.002-.001-.002-.001-.002-.001-.002-.001-.001-.002-.001-.002-.001-.002-.001-.002-.001-.002-.002-.002-.001-.002-.001-.002-.001-.002-.001-.002-.002-.002-.001-.002-.001-.002-.001-.002-.001-.001-.002-.001-.002-.001-.002-.001-.002-.001-.002-.002-.002-.001-.002-.001-.002-.001-.002-.001-.001-.002-.001-.002-.001-.002-.001-.002-.001-.001-.002-.001-.002-.001-.002-.001-.002-.001-.002-.001-.002-.002-.002-.001-.002-.001-.002-.001-.002-.001-.001-.002-.001-.002-.001-.002-.001-.002-.001-.002-.002-.002-.001-.002-.001-.002-.001-.002-.001-.002-.002-.002-.001-.002-.001-.002-.001-.002-.001-.001-.002-.001-.002-.001-.002-.001-.002-.001-.002-.002-.002-.001-.002-.001-.002-.001-.002-.001-.001-.002-.001-.002-.001-.002-.001-.002-.001-.002-.001-.001-.002-.001-.002-.001-.002-.001-.002-.001-.002-.002-.002-.001-.002-.001-.002-.001-.002-.001-.001-.002-.001-.002-.001-.002-.001-.002-.001-.002-.002-.002-.001-.002-.001-.002-.001-.002-.001-.002-.002-.002-.001-.002-.001-.002-.001-.002-.001-.001-.002-.001-.002-.001-.002-.001-.002-.001-.002-.002-.002-.001-.002-.001-.002-.001-.002-.001-.001-.002-.001-.002-.001-.002-.001-.002-.001-.002-.001-.001-.002-.001-.002-.001-.002-.001-.002-.001-.002-.002-.002-.001-.002-.001-.002-.001-.002-.001-.001-.002-.001-.002-.001-.002-.001-.002-.001-.002-.002-.002-.001-.002-.001-.002-.001-.002-.001-.002-.002-.002-.001-.002-.001-.002-.001-.002-.001-.001-.002-.001-.002-.001-.002-.001-.002-.001-.002-.002-.002-.001-.002-.001-.002-.001-.002-.001-.001-.002-.001-.002-.001-.002-.001-.002-.001-.002-.001-.001-.002-.001-.002-.001-.002-.001-.002-.001-.002-.002-.002-.001-.002-.001-.002-.001-.002-.001-.001-.002-.001-.002-.001-.002-.001-.002-.001-.002-.002-.002-.001-.002-.001-.002-.001-.002-.001-.002-.002-.002-.001-.002-.001-.002-.001-.002-.001-.001-.002-.001-.002-.001-.002-.001h-.498V21.939h.498zm0-.743c0-.878.035-1.854.105-2.93l-.496-.032a45.635 45.635 0 00-.107 2.962h.498zm.105-2.93c.07-1.075.168-2.177.291-3.306l-.494-.054a76.897 76.897 0 00-.293 3.328l.496.033zm.291-3.306c.124-1.148.256-2.26.398-3.338l-.494-.065a146.327 146.327 0 00-.398 3.35l.494.053zm.397-3.334c.159-1.077.318-2.047.476-2.91l-.49-.09c-.159.87-.319 1.846-.478 2.927l.492.073zm.478-2.92a2.55 2.55 0 00.029-.354h-.498c0 .073-.007.167-.024.283l.493.07zm.024-.305c.02-.1.031-.197.031-.288h-.497c0 .051-.007.114-.022.19l.488.098zm.031-.288c0-.059-.002-.114-.008-.163a.498.498 0 00-.044-.16l-.445.222c-.007-.012-.008-.02-.008-.017l.003.017a.861.861 0 01.005.101h.497zm-.036-.28c-.065-.23-.273-.386-.5-.5l-.222.446c.198.099.239.172.244.19l.478-.136zm-.485-.492a3.246 3.246 0 00-.747-.316l-.137.478c.229.066.44.155.633.268l.251-.43zm-.732-.311a2.246 2.246 0 00-.747-.147v.497c.158 0 .35.036.58.118l.167-.468zm-.747-.147c-.187 0-.45.043-.55.289l.463.185a.089.089 0 01-.021.03c-.008.008-.012.009-.008.007a.533.533 0 01.117-.014v-.497zm-.567.381c0-.071.037-.113.046-.123l.352.352a.324.324 0 00.1-.229h-.498zm.222.053h-.249V7.345h.498v-.001-.001-.001-.001-.001-.001-.001-.001-.001-.001-.001-.001-.001-.001-.001-.001-.001-.001-.001-.001-.001-.001-.001-.001-.001h-.249zm-.249.027c0 .16.082.29.18.388l.351-.352a.178.178 0 01-.033-.041c-.002-.005 0-.003 0 .005h-.498zm.18.388c.064.065.105.114.128.148l.414-.276a1.522 1.522 0 00-.19-.224l-.352.352zm.112.121a.65.65 0 01.08.287h.498c0-.172-.05-.343-.133-.51l-.445.223zm.087.227c-.013.053-.03.175-.051.34-.023.174-.052.417-.087.727l.494.056a55.78 55.78 0 01.114-.922l.009-.059.004-.022-.483-.12zm-.138 1.067c-.07.619-.16 1.388-.265 2.308l.494.057c.106-.92.195-1.69.265-2.309l-.494-.056zm-.266 2.312c-.088.902-.186 1.856-.292 2.864l.495.053c.106-1.01.204-1.965.292-2.868l-.495-.049zm-.292 2.869a283.955 283.955 0 01-.265 2.863l.495.049c.089-.904.177-1.86.266-2.869l-.496-.043zm-.266 2.868c-.07.903-.124 1.638-.16 2.206l.498.031c.035-.564.088-1.297.158-2.198l-.496-.04zm-.16 2.222l-.006.111a84.96 84.96 0 01-.02.325l.497.03c.017-.275.027-.438.027-.466h-.498zm-.026.451V20.878h.497v-.002-.002-.003-.002-.003-.002-.002-.003-.002-.002-.003-.002-.002-.003-.002-.003-.002-.002-.003-.002-.002-.003-.002-.002-.003-.002-.002-.003-.002-.002-.003-.002-.002-.003-.002-.002-.003-.002-.002-.003-.002-.002-.003-.002-.002-.003-.002-.002-.002-.003-.002-.002-.003-.002-.002-.003-.002-.002-.002-.003-.002-.002-.003-.002-.002-.002-.003-.002-.002-.003-.002-.002-.002-.003-.002-.002-.002-.003-.002-.002-.002-.003-.002-.002-.002-.003-.002-.002-.002-.003-.002-.002-.002-.003-.002-.002-.002-.002-.003-.002-.002-.002-.002-.003-.002-.002-.002-.003-.002-.002-.002-.002-.003-.002-.002-.002-.002-.003-.002-.002-.002-.002-.003-.002-.002-.002-.002-.002-.003-.002-.002-.002-.002-.003-.002-.002-.002-.002-.002-.002-.003-.002-.002-.002-.002-.002-.002-.003-.002-.002-.002-.002-.002-.003-.002-.002-.002-.002-.002-.002-.002-.002-.003-.002-.002-.002-.002-.002-.002-.002-.003-.002-.002-.002-.002-.002-.002-.002-.002-.003-.002-.002-.002-.002-.002-.002-.002-.002-.002-.002-.002-.002-.003-.002-.002-.002-.002-.002-.002-.002-.002-.002-.002-.002-.002-.002-.002-.002-.002-.003-.002-.002-.002-.002-.002-.002-.002-.002-.002-.002-.002-.002-.002-.002-.002-.002-.002-.002-.002-.002-.002-.002-.002-.002-.002-.002-.002-.002-.002-.002-.002-.002-.002-.002-.002-.002-.002-.002-.002-.002-.002-.002-.002-.002-.002-.002-.002-.002-.002-.002-.002-.002-.002-.002-.002-.001-.002-.002-.002-.002-.002-.002-.002-.002-.002-.002-.002-.002-.002-.002-.002-.002-.001-.002-.002-.002-.002-.002-.002-.002-.002-.002-.002-.002-.001-.002-.002-.002-.002-.002-.002-.002-.002-.002-.001-.002-.002-.002-.002-.002-.002-.002-.002-.001-.002-.002-.002-.002-.002-.002-.001-.002-.002-.002-.002-.002-.002-.001-.002-.002-.002-.002-.002-.002-.001-.002-.002-.002-.002-.002-.001-.002-.002-.002-.002-.002-.001-.002-.002-.002-.002-.001-.002-.002-.002-.002-.002-.001-.002-.002-.002-.002-.001-.002-.002-.002-.002-.001-.002-.002-.002-.001-.002-.002-.002-.002-.001-.002-.002-.002-.001-.002-.002-.002-.001-.002-.002-.002-.001-.002-.002-.002-.002-.001-.002-.002-.001-.002-.002-.002-.001-.002-.002-.002-.001-.002-.002-.002-.001-.002-.002-.001-.002-.002-.002-.001-.002-.002-.001-.002-.002-.002-.001-.002-.002-.001-.002-.002-.001-.002-.002V20v-.002-.002-.001-.002-.002-.002-.001-.002-.002-.001-.002-.002-.001-.002-.002-.001-.002-.001-.002-.002-.001-.002-.002-.001-.002-.002-.001-.002-.002-.001-.002-.002-.001-.002-.001-.002-.002-.001-.002-.002-.001-.002-.001-.002-.002-.001-.002-.001-.002-.002-.001-.002-.001-.002-.002-.001-.002-.001-.002-.002-.001-.002-.001-.002-.001-.002-.002-.001-.002-.001-.002-.002-.001-.002-.001-.002-.001-.002-.001-.002h-.497zm0 1.008c0 1.403.062 2.532.188 3.38l.493-.073c-.122-.814-.184-1.914-.184-3.307h-.497zm.188 3.381c.125.82.299 1.445.537 1.843l.427-.256c-.186-.31-.349-.854-.472-1.661l-.492.075zm.537 1.843c.235.39.55.651.957.651v-.498c-.16 0-.34-.093-.53-.41l-.427.257zm.957.651c.219 0 .42-.074.6-.209l-.299-.398a.491.491 0 01-.301.11v.497zm.572-.19c.237-.133.376-.363.44-.64l-.485-.112c-.042.183-.116.272-.197.317l.242.434zm.436-.625c.09-.305.214-.758.373-1.36l-.48-.128c-.16.601-.283 1.05-.37 1.347l.477.14zm.371-1.354c.178-.604.356-1.243.533-1.917l-.481-.127c-.177.67-.353 1.305-.529 1.904l.477.14zm.532-1.912c.194-.673.363-1.276.505-1.81l-.48-.127a88.915 88.915 0 01-.504 1.8l.479.137zm.503-1.802c.159-.528.259-.882.296-1.052l-.485-.108c-.033.149-.128.484-.288 1.017l.477.143zm.297-1.054c.053-.248.085-.448.085-.583h-.498c0 .077-.02.231-.074.479l.487.104zm.085-.583a.635.635 0 00-.075-.327.379.379 0 00-.333-.187v.498a.11.11 0 01-.051-.015.115.115 0 01-.043-.04c-.005-.008-.003-.01 0 .004a.356.356 0 01.004.067h.498zm-.408-.514c-.172 0-.313.103-.415.206l.352.351a.352.352 0 01.071-.058c.013-.007.01-.001-.008-.001v-.498zm-.394.187a1.702 1.702 0 00-.313.342l.405.289c.08-.111.153-.19.219-.242l-.311-.389zm-.323.358c-.058.096-.186.334-.38.703l.442.23c.195-.373.316-.596.364-.677l-.427-.256zm-.377.698c-.195.355-.416.763-.664 1.223l.438.236c.247-.46.468-.866.662-1.219l-.436-.24zm-.668 1.23a28.75 28.75 0 01-.684 1.289l.433.245c.233-.411.465-.848.696-1.312l-.445-.222zm5.169 2.234v-.053h-.498v.053h.498zm-.001-.032a.71.71 0 01.156-.407c.09-.11.228-.207.428-.284l-.178-.465c-.26.1-.477.242-.634.433-.159.193-.247.423-.268.681l.496.041zm.589-.693c.441-.18.966-.274 1.578-.274v-.497c-.662 0-1.252.101-1.766.31l.188.461zm1.578-.274c.45 0 .882.026 1.296.078l.061-.493a10.922 10.922 0 00-1.357-.082v.497zm1.297.078c.424.051.877.154 1.36.309l.152-.474a7.797 7.797 0 00-1.453-.329l-.059.494zm1.213-.04c-.091.183-.251.402-.49.659l.364.339c.256-.275.451-.533.571-.775l-.445-.223zm-.49.659c-.222.238-.532.46-.937.663l.222.445c.443-.221.806-.476 1.079-.769l-.364-.34zm-.93.66c-.381.174-.89.269-1.541.269v.497c.693 0 1.28-.1 1.748-.314l-.207-.452zm-1.541.269c-.472 0-.895-.068-1.272-.199l-.164.47c.437.152.916.226 1.436.226v-.497zm-1.272-.199a.864.864 0 01-.356-.205.31.31 0 01-.087-.223h-.498c0 .213.074.403.218.56.14.15.333.26.56.338l.163-.47zm28.525-13.909l-.231-.092-.018.044v.048h.249zm.504.505l-.086.233.086-.233zm1.167.318l-.048.244.011.002.037-.246zm1.195.186l-.039.245.007.002h.007l.025-.247zm1.273-.319l.223.112.003-.006-.226-.106zm.08-1.167l.194-.156-.008-.009-.186.165zm-.982-.982l-.176.176.009.008.167-.184zm-1.194-1.035l-.159.192.01.007.149-.2zm-1.141-.796l-.128.213.008.005.12-.218zm-1.194-.186l.149.2.014-.012.013-.012-.176-.176zm.159 1.115l-.121.217.121-.217zm1.168.902l-.169.183.003.003.166-.186zm1.141 1.167l.027.248.449-.05-.282-.353-.194.155zm-.478.054v.248h.014l.013-.001-.027-.247zm-.69 0l-.06.24.029.008h.031v-.248zm8.943 4.14h.249v-.014l-.002-.014-.247.027zm-.876 1.963l.164.187.003-.003-.167-.184zm-2.07 1.061l-.059-.241h-.001l.06.241zm-.875.133l.012.249.011-.001-.023-.248zm-2.601 0l-.018.248h.009l.009-.248zm-1.406-.133l.028-.247-.014-.001h-.014v.248zm-.292.743l-.112.223.011.005.101-.228zm1.22.398l-.06.242h.002l.058-.242zm1.593.319l-.04.246h.009l.031-.246zm3.449-.16l.067.24h.004l-.071-.24zm1.805-.848l-.137-.209-.003.003.14.206zm1.353-1.38l-.209-.135-.003.005.212.13zm.504-2.07h-.248v.04l.012.038.236-.078zm0-.212h.249v-.013l-.001-.013-.248.026zm-1.406-2.336l-.136.209.005.003.131-.212zm-4.458-.716l.02.248.008-.001-.028-.247zm-1.725.318l-.06-.241h-.002l.062.241zm-2.627.823l.078.236.004-.001-.082-.235zm-3.981 1.486l-.236.079.084.25.245-.098-.093-.231zm-.849-2.442l-.235.08.001.006.234-.086zm-.69-2.149l-.242.055.001.008.003.008.238-.07zm-.371-.716l-.15.199.014.01.015.008.121-.217zm-1.858.557l-.153.196.153-.196zm.345.265l-.149.2.018.013.02.01.111-.223zm.239.213l.191-.16-.191.16zm.159.238l.237-.077-.001-.001-.236.078zm.77 2.309l-.236.08.001.002.235-.082zm.796 2.309l.094.23.217-.09-.076-.22-.235.08zm-3.875 1.671l-.103-.226-.01.005-.01.005.123.216zm-.716.107l-.079.236.039.012h.04v-.248zm-.372-.027l-.048.244.024.005h.024v-.249zm-.53.106l.176.176.053-.053.015-.074-.244-.049zm.769 1.194l-.162.19.162-.19zm1.831.027l.112.223.006-.004-.118-.219zm1.566-.743l.097.229.006-.003-.103-.226zm1.857-.823l.234-.086-.091-.246-.241.104.098.228zm2.044 5.414l-.232.09.001.003.231-.093zm1.645 3.821l-.224.108.002.003.222-.111zm.239.955l-.234.085.003.008.231-.093zm.371.61l-.197.152.197-.151zm.611.611l-.152.197.152-.197zm.769.239v-.249h-.058l-.053.026.111.223zm.106-.027l.112.223.006-.003-.118-.22zm.319-1.326l-.239.071.003.007.236-.079zm-.451-1.009l.222-.111-.003-.007-.219.118zm-1.247-2.574l-.229.099.002.003.227-.102zm-1.46-3.503l-.232.09.001.003.231-.093zm-1.459-3.848l-.092-.231-.226.09.084.228.234-.087zm3.608-1.38l.086.234-.086-.233zm4.114-1.14l.028.247.008-.002-.036-.246zm3.237.291l.114-.22-.114.22zm-8.279-3.035h-.213v.498h.213V9.43zm-.213 0c-.344 0-.684.096-.814.422l.462.185c.011-.028.06-.11.352-.11v-.497zm-.832.514v.08h.497v-.08h-.497zm0 .08c0 .178.097.317.214.416.116.097.273.176.453.242l.172-.467a1.046 1.046 0 01-.304-.156c-.05-.042-.038-.054-.038-.035h-.497zm.667.658c.351.13.753.239 1.205.329l.097-.488a7.584 7.584 0 01-1.13-.308l-.172.467zm1.216.33c.459.072.857.133 1.193.187l.077-.492a308.43 308.43 0 00-1.195-.186l-.075.492zm1.207.188a84.638 84.638 0 00.582.055v-.498l-.129-.012a98.34 98.34 0 01-.404-.04l-.049.495zm.582.055c.417 0 .761-.153.939-.51l-.445-.222c-.07.139-.203.234-.494.234v.498zm.942-.515c.135-.29.209-.574.209-.849h-.498c0 .185-.05.397-.162.638l.451.21zm.209-.849c0-.214-.037-.425-.161-.58l-.388.311c.018.022.051.094.051.27h.498zm-.169-.589c-.272-.31-.607-.643-1.001-1.001l-.334.368c.384.35.705.67.962.962l.373-.329zm-.992-.993c-.38-.38-.787-.733-1.221-1.058l-.298.398c.415.311.804.649 1.167 1.012l.352-.352zm-1.212-1.05a7.724 7.724 0 00-1.179-.823l-.24.436c.337.185.704.44 1.102.77l.317-.384zm-1.171-.819c-.358-.214-.683-.353-.951-.353v.497c.122 0 .345.073.695.283l.256-.427zm-.951-.353c-.206 0-.4.058-.547.205l.352.352c.03-.03.083-.06.195-.06v-.497zm-.521.182c-.25.188-.418.43-.418.73h.498c0-.09.045-.201.219-.332l-.299-.398zm-.418.73c0 .354.267.613.606.801l.242-.435c-.298-.165-.35-.296-.35-.366h-.498zm.606.801c.293.163.666.448 1.12.868l.337-.366c-.465-.43-.872-.746-1.215-.937l-.242.435zm1.123.87c.471.42.841.798 1.112 1.138l.389-.311a10.142 10.142 0 00-1.17-1.198l-.331.372zm1.279.735l-.478.053.055.495.478-.053-.055-.495zm-.45.052h-.001-.001-.002-.001-.001-.001-.002-.001-.001-.003-.001-.001-.003-.001-.001-.003-.001-.001-.003-.001-.001-.003-.001-.001-.002-.001-.001-.001-.002-.001-.001-.003-.001-.001-.003-.001-.001-.003-.001-.001-.003-.001-.001-.003-.001-.001-.002-.001-.001-.001-.002-.001-.001-.003-.001-.001-.003-.001-.001-.003-.001-.001-.003-.001-.001-.003-.001-.001-.002-.001-.001-.001-.002-.001-.001-.003-.001-.001-.003-.001-.001-.003-.001-.001-.003-.001-.001-.003-.001-.001-.002-.001-.001-.001-.002-.001-.001-.003-.001-.001-.003-.001-.001-.003-.001H130h-.003-.001-.001-.003-.001-.001-.002-.001-.001-.001-.002-.001-.001-.003-.001-.001-.003-.001-.001-.003-.001-.001-.003-.001-.001-.003-.001-.001-.002-.001-.001-.001-.002-.001-.001-.003-.001-.001-.003-.001-.001-.003-.001-.001-.003-.001-.001-.003-.001-.001-.002-.001-.001-.001-.002-.001-.001-.003-.001-.001-.003-.001-.001-.003-.001-.001-.003-.001-.001-.003-.001-.001-.002-.001-.001-.001-.002-.001-.001-.003-.001-.001-.003-.001-.001-.003-.001-.001-.003-.001-.001-.003-.001-.001-.002-.001-.001-.001-.002-.001-.001-.003-.001-.001-.003-.001-.001-.003-.001-.001-.003-.001-.001-.003-.001-.001-.002-.001-.001-.001-.002-.001-.001-.003-.001-.001-.003-.001-.001-.003-.001-.001-.003-.001-.001-.003-.001-.001-.002-.001-.001-.001-.002-.001-.001-.003-.001-.001-.003-.001-.001-.003-.001-.001-.003-.001-.001-.003-.001-.001-.002-.001-.001-.001-.002-.001-.001-.003-.001-.001-.001v.497H130.162v-.497zm-.425 0h-.001-.001-.001-.001-.006-.001-.001-.001-.001-.001-.001-.001-.001-.006-.001-.001-.001-.001-.001-.001-.001-.001-.006-.001-.001-.001-.001-.001-.001-.001-.001-.001-.005-.001-.001-.001-.001-.001-.001-.001-.001-.001-.006-.001-.001-.001-.001-.001-.001-.001-.001-.006-.001-.001-.001-.001-.001-.001-.001-.001-.006-.001-.001-.001-.001-.001-.001-.001-.001-.006-.001-.001-.001-.001-.001-.001-.001-.001-.006-.001-.001-.001-.001-.001-.001-.001-.001-.001-.005-.001-.001-.001-.001-.001-.001-.001-.001-.001-.006-.001-.001-.001-.001-.001-.001-.001-.001-.006-.001-.001-.001-.001-.001-.001-.001-.001-.006-.001-.001-.001-.001-.001-.001-.001-.001-.006-.001-.001-.001-.001-.001-.001-.001-.001-.001-.005-.001-.001-.001-.001-.001-.001-.001-.001-.001-.005-.001-.001-.001-.001-.001-.001-.001-.001-.001-.006-.001-.001-.001-.001-.001-.001-.001-.001-.006-.001-.001-.001-.001-.001-.001-.001-.001-.006v.497H129.737v-.497zm-.205.007a1.121 1.121 0 00-.272-.034v.498c.05 0 .1.006.152.019l.12-.483zm8.634 4.381v.213h.498v-.213h-.498zm0 .213c0 .55-.249 1.071-.794 1.567l.334.368c.623-.566.958-1.212.958-1.935h-.498zm-.791 1.564a4.563 4.563 0 01-1.965 1.007l.118.483a5.058 5.058 0 002.175-1.116l-.328-.374zm-1.966 1.007a6.026 6.026 0 01-.839.126l.047.496c.377-.036.683-.082.913-.14l-.121-.482zm-.828.126c-.349.017-.742.026-1.182.026v.497c.446 0 .848-.009 1.207-.026l-.025-.497zm-1.182.026c-.439 0-.904-.009-1.397-.026l-.018.497c.498.017.97.026 1.415.026v-.497zm-1.388-.026a34.46 34.46 0 01-1.396-.132l-.057.495c.463.053.936.098 1.417.133l.036-.496zm-1.424-.133h-.213v.497h.213v-.497zm-.213 0c-.199 0-.387.024-.533.101a.48.48 0 00-.273.44h.498c0-.008.001-.003-.004.005-.005.007-.006.004.01-.004.039-.02.13-.045.302-.045v-.497zm-.806.54c0 .17.095.303.198.4.104.1.248.19.417.274l.223-.445a1.313 1.313 0 01-.299-.19c-.056-.054-.041-.066-.041-.039h-.498zm.626.679c.336.15.757.286 1.261.412l.121-.483a7.317 7.317 0 01-1.18-.384l-.202.455zm1.263.412c.519.126 1.056.233 1.611.322l.079-.49a20.881 20.881 0 01-1.573-.315l-.117.483zm1.62.324c.575.072 1.116.108 1.623.108v-.498c-.484 0-1.004-.034-1.562-.104l-.061.494zm1.623.108c.626 0 1.267-.092 1.924-.275l-.133-.479a6.68 6.68 0 01-1.791.256v.498zm1.928-.276a6.748 6.748 0 001.873-.881l-.279-.412a6.236 6.236 0 01-1.736.816l.142.477zm1.87-.88a4.621 4.621 0 001.429-1.457l-.424-.26c-.316.515-.741.95-1.278 1.301l.273.416zm1.426-1.453c.383-.593.571-1.277.571-2.045h-.498c0 .683-.166 1.272-.491 1.776l.418.27zm.571-2.045a.742.742 0 00-.04-.238l-.472.157c.01.03.014.056.014.081h.498zm-.027-.16v-.001-.001-.001-.001-.001-.001-.001-.001-.001-.001-.001-.001-.001-.001-.001-.001-.001-.001-.001-.001-.001-.001-.001-.001-.001-.001-.001-.001-.001-.001-.001-.001-.001-.001-.001-.001-.001-.001-.001-.001-.001-.001-.001-.001-.001-.001-.001-.001-.001-.001-.001-.001-.001-.001-.001-.001-.001-.001-.001-.001-.001-.001-.001-.001-.001-.001-.001-.001-.001-.001-.001-.001-.001-.001-.001-.001-.001-.001-.001-.001-.001-.001-.001-.001-.001-.001-.001-.001-.001-.001-.001-.001-.001-.001-.001-.001-.001-.001-.001-.001-.001-.001-.001-.001-.001-.001-.001-.001-.001-.001-.001-.001-.001-.001-.001-.001-.001-.001-.001-.001-.001-.001-.001-.001-.001-.001-.001-.001-.001-.001-.001-.001-.001-.001-.001-.001-.001-.001-.001-.001-.001-.001-.001-.001-.001-.001-.001-.001-.001-.001-.001-.001-.001-.001-.001-.001-.001-.001-.001-.001-.001-.001-.001-.001-.001-.001-.001-.001-.001-.001-.001-.001-.001-.001-.001-.001-.001-.001-.001-.001-.001-.001-.001-.001-.001-.001-.001-.001-.001-.001-.001-.001-.001-.001-.001-.001-.001-.001-.001-.001-.001-.001-.001-.001-.001-.001-.001-.001-.001-.001-.001h-.497V13.873h.497zm-.001-.237c-.113-1.114-.621-1.964-1.523-2.521l-.262.423c.76.47 1.191 1.175 1.29 2.149l.495-.05zm-1.518-2.518c-.868-.566-2.008-.837-3.4-.837v.498c1.332 0 2.368.26 3.128.756l.272-.417zm-3.4-.837c-.349 0-.757.028-1.223.082l.057.494c.454-.052.842-.078 1.166-.078v-.498zm-1.214.08c-.462.038-1.052.148-1.765.326l.12.483c.702-.176 1.262-.278 1.685-.312l-.04-.496zm-1.767.326c-.7.18-1.583.456-2.647.829l.164.47a33.026 33.026 0 012.607-.817l-.124-.482zm-2.644.828c-1.068.356-2.4.853-3.994 1.49l.185.463a74.376 74.376 0 013.966-1.481l-.157-.472zm-3.666 1.643a92.995 92.995 0 00-.851-2.447l-.468.17c.282.776.565 1.587.847 2.435l.472-.158zm-.849-2.443a55.417 55.417 0 01-.687-2.14l-.477.142c.195.658.426 1.378.693 2.159l.471-.16zm-.683-2.124a2.258 2.258 0 00-.181-.53.811.811 0 00-.313-.349l-.241.435c.021.012.063.047.112.143.049.094.096.228.138.411l.485-.11zm-.465-.86a1.004 1.004 0 00-.414-.165 2.99 2.99 0 00-.558-.044v.497c.194 0 .347.013.464.035a.53.53 0 01.209.075l.299-.398zm-.972-.21c-.431 0-.778.031-1.025.103a.872.872 0 00-.333.168.458.458 0 00-.165.35h.498c0 .02-.013.031-.005.025a.394.394 0 01.144-.065c.178-.052.468-.083.886-.083v-.497zm-1.523.62c0 .23.166.41.335.542l.306-.393a.625.625 0 01-.128-.124c-.02-.029-.015-.035-.015-.024h-.498zm.335.542c.16.124.276.214.349.268l.298-.398a26.886 26.886 0 01-.341-.263l-.306.393zm.387.292a.616.616 0 01.159.149l.382-.319a1.043 1.043 0 00-.319-.275l-.222.445zm.159.149c.041.049.07.088.09.118.022.032.025.044.024.04l.472-.157a1.107 1.107 0 00-.204-.32l-.382.319zm.114.156c.248.762.504 1.533.77 2.312l.471-.16c-.265-.778-.521-1.546-.768-2.306l-.473.154zm.771 2.314c.265.76.53 1.53.795 2.307l.471-.16c-.265-.78-.531-1.55-.796-2.31l-.47.163zm.936 1.997c-1.506.62-2.8 1.178-3.883 1.675l.207.453a108.31 108.31 0 013.865-1.668l-.189-.46zm-3.903 1.685c-.068.04-.202.074-.434.074v.497c.263 0 .501-.036.681-.139l-.247-.432zm-.434.074h-.002-.001-.001-.003-.001-.001-.002-.001-.001-.003-.001-.001-.003-.001-.001-.002-.001-.001-.003-.001-.001-.003-.001-.001-.002-.001-.001-.003-.001-.001-.002-.001-.001-.001-.002-.001-.001-.003-.001-.001-.002-.001-.001-.003-.001-.001-.003-.001-.001-.002-.001-.001-.003-.001-.001-.003-.001-.001-.002-.001-.001-.003-.001-.001-.002-.001-.001-.001-.002-.001-.001-.003-.001-.001-.002-.001-.001-.003-.001-.001-.003-.001-.001-.002-.001-.001-.003-.001-.001-.003-.001-.001-.002-.001-.001-.003-.001-.001-.002-.001-.001-.001-.002-.001-.001-.002v.497H120.131v-.497zm-.08.013a.687.687 0 00-.212-.04v.498l.011.002c.01.002.024.005.043.012l.158-.472zm-.212-.04h-.002-.001-.001-.001-.002-.001-.002-.002-.001-.002-.001-.002-.002-.001-.002-.001-.002-.001-.002-.001-.002-.001-.002-.001-.002-.001-.001-.002-.001-.002-.001-.003-.001-.002-.001-.001-.002-.001-.003-.001-.003-.001-.003-.001-.001-.002-.001-.001-.002-.001-.001-.001-.002-.001-.001-.003-.001-.001-.003-.001-.001-.001-.003-.001-.001-.001-.003-.001-.001-.001-.003-.001-.001-.001-.004-.001-.001-.001-.001-.004-.001-.001-.001-.001-.004-.001-.001-.001-.001-.001-.001-.005-.001-.001-.001-.001-.001-.001-.001-.006-.001-.001-.001-.001-.001-.001-.001-.001-.001-.001-.001-.001-.001H119.657h-.001-.001-.001-.001-.001-.001-.001-.001-.001-.001-.001-.001-.001-.001-.001-.001-.001-.001-.001-.001H119.623h-.001-.001-.001-.001-.001-.001-.001-.001-.001-.001-.001-.001-.001-.006-.001-.001-.001-.001v.498H119.839v-.498zm-.19.005c-.1-.02-.197-.031-.287-.031v.497c.05 0 .113.007.19.022l.097-.488zm-.287-.031a.75.75 0 00-.309.055.384.384 0 00-.227.277l.488.098a.135.135 0 01-.028.056c-.014.016-.026.022-.027.022l.024-.005a.508.508 0 01.079-.006v-.497zm-.468.205a.337.337 0 00-.086.156.527.527 0 00-.014.126h.498c0-.014.001-.014-.001-.006s-.011.042-.045.076l-.352-.352zm-.1.282c0 .059.017.111.029.142.013.036.031.076.051.116.04.08.097.18.17.297l.423-.26a3.387 3.387 0 01-.148-.26c-.016-.03-.024-.051-.029-.063-.006-.018.002-.003.002.028h-.498zm.25.555c.157.256.37.497.633.722l.324-.377a2.623 2.623 0 01-.534-.605l-.423.26zm.633.722c.292.25.632.379 1.011.379v-.498a1.02 1.02 0 01-.687-.258l-.324.377zm1.011.379c.321 0 .689-.116 1.093-.319l-.222-.445c-.374.188-.661.266-.871.266v.498zm1.1-.322c.452-.243.967-.488 1.545-.733l-.194-.458c-.59.25-1.119.5-1.587.753l.236.438zm1.551-.736c.582-.264 1.2-.538 1.853-.82l-.197-.457c-.656.284-1.277.558-1.862.824l.206.453zm1.521-.963c.726 1.965 1.407 3.77 2.045 5.418l.464-.18a367.32 367.32 0 01-2.042-5.41l-.467.172zm2.046 5.42c.655 1.63 1.206 2.91 1.652 3.837l.448-.216c-.439-.912-.985-2.18-1.638-3.806l-.462.186zm1.654 3.84a.854.854 0 01.106.367h.498c0-.193-.06-.39-.159-.59l-.445.223zm.106.367c0 .166.046.356.121.562l.468-.17a1.228 1.228 0 01-.091-.392h-.498zm.124.57c.082.206.221.43.405.67l.395-.304a2.422 2.422 0 01-.338-.551l-.462.185zm.405.67c.19.246.409.465.656.655l.303-.394a3.071 3.071 0 01-.564-.565l-.395.303zm.656.655c.258.198.531.317.815.317v-.497c-.14 0-.309-.059-.512-.214l-.303.394zm.815.317c.079 0 .152-.02.218-.053l-.223-.445-.002.001h.007v.497zm.106-.026c.079 0 .152-.02.218-.053l-.223-.445h-.002.007v.498zm.224-.056c.362-.193.529-.537.529-.963h-.497c0 .282-.098.434-.267.524l.235.439zm.529-.963c0-.247-.028-.47-.092-.662l-.472.157c.042.127.067.293.067.505h.497zm-.09-.655c-.06-.2-.221-.556-.467-1.048l-.445.222c.25.499.39.816.436.969l.476-.143zm-.47-1.055c-.35-.647-.763-1.5-1.24-2.558l-.453.204a41.044 41.044 0 001.255 2.59l.438-.236zm-1.238-2.555c-.459-1.059-.945-2.225-1.457-3.497l-.462.186a148.11 148.11 0 001.462 3.509l.457-.198zm-1.456-3.494a243.44 243.44 0 01-1.458-3.844l-.467.173a245.18 245.18 0 001.461 3.851l.464-.18zm-1.6-3.526a143.871 143.871 0 013.603-1.378l-.171-.467c-.975.355-2.181.815-3.615 1.382l.183.463zm3.603-1.378a31.052 31.052 0 012.421-.79l-.13-.48c-.664.18-1.485.448-2.462.803l.171.467zm2.421-.79a11.506 11.506 0 011.635-.337l-.057-.495c-.476.055-1.046.173-1.708.352l.13.48zm1.643-.338c.468-.07.889-.104 1.264-.104v-.498c-.404 0-.85.037-1.337.11l.073.492zm1.264-.104c.752 0 1.355.128 1.823.37l.228-.442c-.558-.288-1.246-.425-2.051-.425v.497zm1.823.37c.427.222.679.6.742 1.186l.495-.053c-.078-.725-.41-1.265-1.009-1.575l-.228.442zm21.476 12.252v.248h.009l-.009-.248zm-2.388-.452l.111-.222-.111.222zm-1.407-1.565l-.228.098.002.004.226-.102zm.16-14.41l.248.017v-.017h-.248zm.026-.292l.244.05.001-.009-.245-.04zm-.398-1.034l.111-.223-.111.223zm-.876-.24l-.031.248h.009l.008.001.014-.248zm-1.008.08l.176.176.01-.01.008-.01-.194-.156zm.212.558l-.193.157.009.01.184-.167zm.266 1.114l.248.015v-.015h-.248zm-.266 4.246l-.248-.016v.003l.248.013zm-.186 3.874l.249.011-.249-.01zm-.106 2.999l-.248-.005v.005h.248zm.213 2.6l-.246.042.001.006.245-.047zm.849 2.177l.209-.134-.209.134zm1.725 1.512l.111-.222-.111.222zm6.023.106l-.069-.239-.004.002.073.237zm2.628-1.114l-.125-.216-.002.002.127.214zm2.043-1.407l.16.19.004-.003-.164-.187zm1.3-1.326l.197.152.003-.005-.2-.148zm-.769-.531l-.161-.19-.004.003.165.187zm-5.122 2.627l.067.24.004-.002-.071-.238zm-2.919.229h-.265v.497h.265v-.497zm-.265 0c-.783 0-1.452-.145-2.012-.425l-.222.445c.642.321 1.389.477 2.234.477v-.497zm-2.012-.425c-.54-.27-.973-.743-1.291-1.446l-.453.205c.354.784.859 1.354 1.522 1.686l.222-.445zm-1.289-1.441c-.299-.699-.458-1.695-.458-3.007h-.497c0 1.342.16 2.415.498 3.203l.457-.196zm-.458-3.007v-.106h-.497v.106h.497zm0-.106c0-1.107.062-2.587.186-4.442l-.497-.033c-.124 1.86-.186 3.352-.186 4.475h.497zm.186-4.442l.451-6.74-.497-.033-.451 6.74.497.033zm.451-6.757c0-.092.008-.173.022-.243l-.488-.097a1.771 1.771 0 00-.031.34h.497zm.023-.25c.02-.117.03-.229.03-.333h-.497c0 .072-.007.155-.023.25l.49.082zm.03-.333c0-.21-.042-.406-.139-.575a.972.972 0 00-.423-.391l-.222.445a.48.48 0 01.213.193.646.646 0 01.074.328h.497zm-.562-.966a2.48 2.48 0 00-.972-.265l-.029.497c.265.016.524.086.779.213l.222-.445zm-.956-.263a6.537 6.537 0 00-.535-.055v.497a.096.096 0 00.012 0l.03.003.098.01c.082.008.193.021.333.039l.062-.494zm-.535-.055c-.144 0-.276.012-.388.041a.571.571 0 00-.31.185l.388.31c-.011.015-.01.002.048-.014.056-.014.141-.025.262-.025v-.497zm-.68.205a.354.354 0 00-.099.256h.497c0 .003-.001.05-.046.096l-.352-.352zm-.099.256c0 .216.131.435.295.635l.385-.315c-.154-.188-.183-.289-.183-.32h-.497zm.303.645c.115.126.201.368.201.788h.497c0-.465-.091-.86-.33-1.123l-.368.335zm.201.788v.16h.497v-.16h-.497zm0 .144c-.088 1.433-.177 2.848-.265 4.245l.497.032.265-4.247-.497-.03zm-.265 4.248c-.071 1.398-.133 2.69-.186 3.876l.497.023c.053-1.185.115-2.476.186-3.873l-.497-.026zm-.186 3.876a130.25 130.25 0 00-.106 3.005l.497.01c.018-.81.053-1.808.106-2.992l-.497-.023zm-.106 3.01c0 .915.071 1.796.215 2.642l.491-.083a15.234 15.234 0 01-.209-2.559h-.497zm.216 2.648c.165.842.459 1.597.884 2.262l.419-.267a5.98 5.98 0 01-.814-2.09l-.489.095zm.884 2.262c.434.679 1.044 1.212 1.823 1.602l.223-.445c-.707-.354-1.246-.83-1.627-1.424l-.419.267zm1.823 1.602c.79.394 1.796.583 3.004.583v-.497c-1.162 0-2.084-.183-2.781-.531l-.223.445zm3.004.583c1.137 0 2.206-.153 3.205-.462l-.147-.475c-.947.292-1.966.44-3.058.44v.497zm3.201-.46a11.632 11.632 0 002.684-1.14l-.253-.428c-.758.448-1.615.811-2.57 1.09l.139.477zm2.682-1.139c.806-.465 1.5-.942 2.079-1.431l-.321-.38a13.87 13.87 0 01-2.007 1.38l.249.431zm2.083-1.434c.572-.502 1.019-.956 1.333-1.362l-.394-.305c-.287.372-.707.802-1.267 1.292l.328.374zm1.336-1.367c.155-.209.276-.395.36-.558.08-.156.14-.316.14-.465h-.497a.64.64 0 01-.086.238c-.066.129-.171.292-.317.49l.4.295zm.5-1.023a.507.507 0 00-.116-.345.45.45 0 00-.345-.143v.498c.013 0 .013.002.006-.001a.091.091 0 01-.033-.023c-.01-.012-.013-.02-.012-.02 0 .002.003.012.003.034h.497zM167.95 21c-.173 0-.357.076-.536.18a4.557 4.557 0 00-.633.463l.321.38c.225-.19.411-.326.561-.413.157-.09.248-.112.287-.112V21zm-1.173.646c-.582.514-1.316.998-2.204 1.451l.226.443c.916-.467 1.687-.973 2.307-1.52l-.329-.374zm-2.204 1.451c-.888.453-1.829.828-2.824 1.125l.142.476a17.23 17.23 0 002.908-1.158l-.226-.443zm-2.82 1.123c-.992.279-1.945.434-2.861.469l.018.497c.96-.036 1.952-.199 2.977-.487l-.134-.479z"/>
</svg>
