<svg width="244" height="21" viewBox="0 0 244 21" fill="none" xmlns="http://www.w3.org/2000/svg">
<g style="mix-blend-mode:multiply" opacity="0.7" clip-path="url(#clip0_1414_14663)">
<path d="M173.567 0.582266C173.893 0.521238 174.175 0.430418 174.387 0.317917C174.53 0.227385 175.273 0.140471 175.159 0.202032L174.596 0.473631C174.53 0.513464 174.949 0.614864 175.016 0.680048L175.13 0.709013L175.397 0.781445L175.826 1.02769C175.902 1.0639 176.246 0.940781 176.35 0.882841L176.35 0.795921C176.349 0.70607 176.408 0.617584 176.522 0.538811C176.646 0.444656 176.684 0.176681 176.732 0.154953C176.78 0.152176 176.829 0.153675 176.875 0.15933C176.922 0.164984 176.964 0.174641 176.999 0.187544C177.134 0.253757 177.284 0.31554 177.447 0.372234C177.561 0.415689 177.008 0.524324 176.941 0.560539C176.875 0.596752 176.875 0.66194 177.094 0.611242C177.313 0.560543 177.923 0.705397 178.047 0.690912C178.171 0.676426 178.047 0.517086 177.981 0.462767L177.981 0.415687L177.981 0.364984C177.981 0.314285 178.286 0.288946 178.638 0.307052L178.982 0.307052C178.982 0.194792 179.134 0.11512 179.22 0.133226C179.475 0.149296 179.735 0.143106 179.983 0.115124L180.145 0.220135C179.868 0.220135 179.678 0.281696 179.716 0.321531C179.754 0.361364 180.011 0.455522 180.173 0.393961C180.445 0.295446 180.77 0.221206 181.127 0.176679C181.444 0.17033 181.762 0.17033 182.08 0.176679C181.998 0.201252 181.898 0.215221 181.794 0.21652C181.622 0.21652 181.155 0.296179 181.146 0.364984C181.136 0.43379 180.459 0.51708 180.335 0.524322C180.138 0.539411 179.95 0.568937 179.782 0.611242L179.782 0.629345C179.782 0.654693 179.916 0.690904 179.954 0.683662C180.603 0.600828 181.281 0.555658 181.966 0.549675L182.442 0.549675C182.616 0.455448 182.829 0.372331 183.072 0.303428C183.186 0.27808 183.443 0.397577 183.501 0.412063C183.651 0.443924 183.807 0.471758 183.968 0.495357C184.092 0.513464 184.397 0.585889 184.32 0.607616C184.244 0.629345 183.968 0.68004 183.863 0.661934L183.863 0.636583L183.691 0.506221C183.419 0.518413 183.15 0.541477 182.89 0.575027C182.776 0.619417 182.703 0.676532 182.681 0.73798C182.681 0.785057 183.195 0.868351 183.367 0.879215L183.367 0.897318C183.52 1.16167 183.977 1.00958 184.063 0.919044C184.216 0.756086 184.721 0.741607 185.016 0.654695L185.283 0.575027C185.464 0.47363 185.646 0.433799 185.693 0.488119L185.693 0.535186L185.693 0.622104C186.017 0.669181 186.494 0.752471 186.761 0.803171L186.761 0.864727C186.875 1.02044 187.18 1.02407 187.581 1.02407C187.752 1.02407 187.953 1.08925 188.096 1.07838C188.239 1.06752 188.286 0.984237 188.41 0.940782C188.563 0.940782 188.563 0.904561 188.41 0.875591C188.258 0.84662 188 0.741601 188.124 0.705388C188.248 0.669176 189.144 0.803172 189.078 0.85025L189.02 0.893703C188.877 1.02407 189.078 1.10374 189.516 1.04942C189.955 0.995097 189.955 1.10012 190.164 1.10736L190.431 1.10736C190.875 1.08987 191.315 1.05961 191.747 1.01683L191.976 1.06028L192.262 1.11098C192.555 1.09764 192.845 1.07584 193.129 1.04579C193.517 1.04811 193.901 1.07004 194.273 1.11098C194.445 1.11098 194.874 1.11098 195.084 1.11098C195.439 1.1319 195.802 1.11947 196.142 1.07477C196.336 1.03353 196.554 1.01188 196.776 1.01188C196.998 1.01188 197.216 1.03353 197.41 1.07477L197.887 1.03131L198.22 0.998713C198.622 1.01779 199.026 1.02626 199.431 1.02407C199.977 1.00056 200.519 0.96305 201.052 0.911805C201.443 0.87197 202.625 0.958884 203.092 0.937157L203.559 1.01683L203.902 1.07838L205.227 0.958884C205.342 0.958884 205.847 0.958884 206.181 0.958884C206.543 0.937552 206.911 0.930272 207.277 0.937157C207.277 0.962506 207.477 1.01321 207.582 0.984236C207.687 0.955266 208.059 0.915429 208.192 0.958884L208.326 0.991475L208.421 1.0132C208.547 1.0213 208.677 1.01095 208.783 0.984236C208.85 0.958886 209.107 0.915432 209.193 0.940781C209.279 0.96613 209.632 0.915427 209.718 0.90094C210.008 0.868796 210.304 0.845782 210.604 0.832135L210.957 0.87559C211.138 0.897316 211.319 0.926289 211.5 0.955258C211.681 0.984228 211.92 1.10373 212.234 0.987849C212.234 0.987849 212.444 0.987849 212.492 1.00958C212.835 1.12908 212.997 1.1653 213.359 0.98061L213.598 0.853863C213.76 1.00234 213.96 1.09287 214.036 1.06028C214.113 1.02769 214.389 0.951636 214.456 0.987848C214.58 1.05298 214.748 1.10426 214.942 1.13632C215.094 1.13632 215.476 1.01683 215.562 0.984236C215.647 0.951643 215.972 1.00958 216.019 0.984236C216.067 0.958885 216.162 0.944399 216.134 1.01682C216.105 1.08925 216.696 0.966129 216.734 0.962507C217.125 0.919052 217.135 1.15082 217.621 1.07477L217.878 1.03493C218.241 1.03493 218.622 1.03493 218.736 1.03493C218.851 1.03493 219.223 1.0132 219.461 1.00957C219.699 1.00595 220.414 1.07114 220.576 1.00957L220.738 0.973371L220.834 0.955257C221.073 0.979418 221.301 1.01727 221.511 1.06752C221.701 1.1146 222.664 0.991472 222.759 1.03493C222.855 1.07838 223.236 1.14719 223.35 1.10373C223.465 1.06028 223.903 1.15081 223.97 1.12909L224.027 1.10736C224.094 1.08201 224.17 1.02769 224.228 1.03131C224.437 1.03131 224.809 0.976995 224.781 1.11098L224.781 1.14719C224.533 1.19064 224.418 1.24134 224.533 1.26307C224.647 1.2848 225.019 1.29929 225.105 1.26307C225.19 1.22686 225.581 1.11822 225.581 1.21962L225.581 1.27031C225.581 1.29204 225.648 1.3355 225.667 1.3355L225.877 1.3355C226.106 1.3174 226.249 1.36809 226.191 1.44414L226.563 1.41155L226.63 1.41155C226.806 1.38779 226.998 1.38779 227.173 1.41155C227.641 1.43641 228.113 1.4449 228.584 1.4369C228.851 1.4369 229.681 1.5564 229.9 1.54553C230.119 1.53467 230.691 1.49845 230.777 1.57812C230.863 1.65779 231.864 1.70488 231.95 1.69763L232.407 1.91853C233.237 1.95112 233.971 1.98372 234.047 1.99096C234.123 1.9982 234.495 1.99096 234.791 1.99096C235.086 1.99096 236.287 1.96923 236.812 1.95474L236.917 2.16116C236.949 2.17651 236.99 2.18921 237.036 2.19854C237.082 2.20786 237.132 2.21362 237.184 2.21548L237.489 2.16116C237.743 2.19304 237.981 2.24077 238.194 2.30239C238.435 2.35508 238.691 2.39758 238.957 2.42913C239.18 2.46248 239.414 2.4844 239.653 2.49432C239.72 2.491 239.789 2.49587 239.849 2.50822C239.909 2.52057 239.957 2.53978 239.986 2.56312L240.091 2.59571C240.091 2.61744 240.339 2.61744 240.425 2.59571C240.73 2.55232 241.053 2.52905 241.378 2.52691C241.903 2.52691 241.645 2.58485 241.617 2.66452C241.588 2.74419 241.931 2.75506 241.512 2.77316C241.32 2.78258 241.134 2.80335 240.959 2.83472C240.759 2.86369 240.787 2.89628 240.959 2.94698L241.121 3.0013L240.396 3.21496C240.168 3.28739 239.882 3.55537 240.139 3.5771L240.33 3.5771L240.549 3.5771C240.809 3.54449 241.09 3.54449 241.35 3.5771C241.559 3.61331 241.512 3.93922 241.426 4.0551C241.324 4.20862 241.25 4.36474 241.207 4.52225C241.385 4.49517 241.545 4.45307 241.674 4.39913L241.922 4.51863L242.055 4.5802C241.971 4.66156 241.859 4.7383 241.722 4.80834L241.96 4.84093L242.084 4.85903C242.37 4.81196 242.532 4.82282 242.456 4.88438L242.456 4.9387L242.408 5.08355C242.585 5.19712 242.722 5.31882 242.818 5.44568C242.79 5.51565 242.718 5.58205 242.608 5.63936C242.499 5.69667 242.355 5.74324 242.189 5.77522C241.807 5.83316 241.817 6.1627 242.093 6.13735L242.255 6.09753L242.427 6.05045C242.627 6.01061 243.009 6.07942 243.285 6.20255L243.142 6.30756C243.142 6.34015 243.142 6.38361 243.047 6.41258C242.951 6.44155 242.742 6.56105 242.589 6.6371C242.437 6.71315 242.227 6.52846 242.027 6.6371L242.027 6.66969C241.788 6.66969 241.817 6.72039 242.084 6.74936L242.084 6.77833C242.084 6.83265 241.969 6.89421 241.865 6.94129C241.76 6.98836 241.636 6.96301 241.54 6.98474C241.445 7.00647 241.235 7.18392 241.464 7.20565C241.568 7.21167 241.665 7.22787 241.747 7.25265C241.829 7.27742 241.893 7.3099 241.931 7.34687L241.988 7.38671C242.379 7.38671 242.341 7.45551 241.903 7.50621C241.464 7.55691 240.253 7.77419 239.691 7.65831L239.014 7.6909C238.881 7.6909 238.585 7.60761 238.537 7.54605L238.394 7.39395C238.07 7.43741 237.889 7.53518 238.003 7.60761L238.003 7.66917C237.943 7.85886 237.844 8.0465 237.708 8.23047L237.708 8.27031C237.527 8.30291 237.308 8.34274 237.203 8.35722C237.098 8.37171 236.859 8.48397 236.688 8.48397C236.434 8.4891 236.182 8.50242 235.935 8.5238C235.815 8.55636 235.701 8.59142 235.591 8.62882C235.515 8.65779 235.162 8.55639 235.105 8.53829C235.048 8.52018 234.753 8.50208 234.724 8.5745C234.695 8.64693 234.467 8.77729 234.257 8.73022C234.124 8.7205 233.987 8.7216 233.856 8.73347C233.725 8.74533 233.601 8.76767 233.494 8.79902C233.508 8.80779 233.516 8.81749 233.52 8.82756C233.523 8.83762 233.521 8.84785 233.514 8.85764C233.507 8.86743 233.495 8.87658 233.478 8.88455C233.462 8.89252 233.441 8.89915 233.418 8.90404L233.342 8.90404C233.037 8.86421 232.693 8.71211 232.598 8.95474C232.426 8.95376 232.256 8.94277 232.093 8.92215C231.771 8.93177 231.452 8.95238 231.139 8.98371C230.958 8.98371 230.424 8.98371 230.186 8.98371C229.948 8.98371 229.471 9.13581 229.652 9.16478C229.833 9.19375 230.253 9.35308 230.148 9.45448C230.043 9.55588 231.101 9.84196 230.996 9.85283C230.891 9.86369 230.815 9.9506 231.082 10.0194L231.082 10.0773L231.082 10.2077C231.341 10.2096 231.594 10.237 231.816 10.2874L231.902 10.3308L232.093 10.4286C231.968 10.5622 231.968 10.7079 232.093 10.8414L232.159 10.9501L232.159 10.9827C232.159 11.0298 231.854 11.0189 231.578 10.9646C231.183 10.9416 230.778 10.963 230.415 11.0261C230.422 11.0533 230.449 11.0792 230.493 11.101C230.537 11.1227 230.596 11.1394 230.663 11.1493L230.739 11.1493L230.93 11.113C231.177 11.066 231.34 11.066 231.292 11.113L231.292 11.1565L231.292 11.2C231.292 11.2507 231.292 11.2869 231.34 11.276C231.507 11.2648 231.678 11.2648 231.845 11.276C231.988 11.276 231.711 11.5114 231.597 11.6164L231.206 11.6454C231.13 11.6454 230.987 11.6454 230.987 11.6671L231.054 11.9134C230.434 12.0075 230.1 12.1125 230.215 12.1451C230.329 12.1777 231.006 12.1451 231.111 12.1451C231.216 12.1451 231.959 12.2393 232.541 12.3189L233.151 12.2827C233.418 12.2646 233.456 12.3153 233.532 12.3914L233.637 12.5C233.738 12.4642 233.86 12.4382 233.993 12.4243C234.125 12.4105 234.265 12.4091 234.4 12.4203C234.807 12.4672 235.2 12.5303 235.572 12.6087L235.363 12.6992C235.462 12.7722 235.58 12.8413 235.715 12.9056C235.782 12.9056 235.982 12.9563 236.04 12.9056L236.106 12.9056L236.211 12.8766C236.354 12.8513 236.631 12.8114 236.831 12.7861C237.139 12.7499 237.463 12.7376 237.784 12.7499C237.889 12.7825 238.099 12.9201 237.994 12.9744C237.889 13.0287 237.136 12.9382 236.831 12.9382L236.831 12.9961C236.831 13.0613 236.945 13.2062 237.031 13.2062L238.366 13.2243C238.194 13.5104 238.204 13.753 238.366 13.7638C238.528 13.7747 238.881 13.6407 238.938 13.6552L239.147 13.724C239.228 13.7629 239.295 13.8055 239.348 13.8508C239.424 13.9087 239.167 14.1115 239.071 14.1586L239.071 14.2056L239.071 14.2491C239.089 14.2733 239.128 14.2945 239.182 14.309C239.235 14.3235 239.301 14.3305 239.367 14.3288L239.481 14.3288L239.576 14.3288C239.624 14.3233 239.674 14.3243 239.719 14.3316C239.765 14.3389 239.802 14.352 239.824 14.3686L239.643 14.4519C239.338 14.575 239.376 14.6366 239.729 14.5931L239.92 14.5931L240.301 14.5931C240.73 14.5931 241.102 14.6438 241.13 14.6945L241.13 14.7307L241.054 15.0929C241.399 15.2036 241.759 15.3075 242.131 15.4043L242.131 15.426L242.236 15.5057C242.21 15.6316 242.283 15.7577 242.446 15.8678L242.665 15.8932C243.209 15.962 243.199 16.0887 243.171 16.2263L243.171 16.2807C243.171 16.3784 243.457 16.4183 243.79 16.3712L243.571 16.4979C243.361 16.6138 243.733 16.6102 243.847 16.6609C243.962 16.7116 244.086 16.5088 244.191 16.6609L244.191 16.6826L243.809 16.7587C243.842 16.8535 243.952 16.9421 244.124 17.0122L244.029 17.1534C244.029 17.1896 243.933 17.2258 243.943 17.2584L243.943 17.2982C244.019 17.3381 244 17.367 243.943 17.3562C243.691 17.3526 243.442 17.3778 243.228 17.4286C243.047 17.4829 243.314 17.693 243.228 17.7075C242.885 17.6133 242.589 17.5952 242.274 17.7256L242.027 17.8414C241.75 17.7618 241.502 17.7292 241.474 17.7726C241.262 17.8896 240.948 17.9742 240.587 18.0116L240.291 17.8125L240.129 17.7111C239.71 17.827 239.433 17.9247 239.519 17.9356C239.605 17.9465 239.815 17.9935 239.796 18.0225C239.586 18.0225 239.386 18.0225 239.186 18.0008L239.09 18.0008C239.038 17.9961 238.984 17.9983 238.935 18.0068C238.887 18.0153 238.848 18.0298 238.823 18.0479C238.776 18.0804 238.423 18.0479 238.394 18.0877C238.366 18.1275 238.166 18.1818 238.099 18.1384C238.057 18.1215 238.006 18.1084 237.949 18.1002C237.892 18.0919 237.831 18.0888 237.77 18.0909C237.71 18.093 237.651 18.1003 237.599 18.1123C237.547 18.1243 237.503 18.1406 237.47 18.1601L237.317 18.2144L237.241 18.2434C236.996 18.2494 236.751 18.2332 236.526 18.1963C236.306 18.1601 235.496 18.2434 235.334 18.1963C235.172 18.1493 234.705 18.0768 234.533 18.1963L234.381 18.2724L234.228 18.3412C233.963 18.3487 233.697 18.3352 233.446 18.3013C233.294 18.2724 232.989 18.4172 232.798 18.4136C232.535 18.4046 232.276 18.3839 232.026 18.352C231.959 18.3303 231.645 18.3013 231.568 18.352C231.492 18.4027 231.139 18.5585 230.958 18.5367C230.708 18.5223 230.452 18.5323 230.215 18.5657C230.072 18.5838 229.671 18.5259 229.604 18.544L229.604 18.5621L229.604 18.6309C229.278 18.6008 228.958 18.5596 228.651 18.5078L228.603 18.6961C228.527 18.6961 228.155 18.7432 227.793 18.7757C227.156 18.7779 226.52 18.7671 225.886 18.7431L225.658 18.7214C225.419 18.6997 225.257 18.5983 225.248 18.7613C225.248 18.7794 224.971 18.812 224.962 18.8083C224.676 18.678 224.247 18.783 224.161 18.8083C223.903 18.9206 223.541 18.7721 223.265 18.8735L223.15 18.9133C222.702 18.8626 222.283 18.8192 222.197 18.812C221.955 18.8413 221.729 18.8867 221.53 18.9459C221.282 19.0184 220.433 18.8916 220.386 18.9025L220.386 19.0944C219.927 19.0573 219.449 19.0724 219.013 19.1379L218.717 18.9894L218.574 18.9133C218.269 18.964 217.859 19.0292 217.678 19.0618L217.478 19.0618L217.411 19.0618C217.253 19.0719 217.092 19.0719 216.934 19.0618C216.734 19.0618 215.981 19.0799 215.81 19.0618C215.638 19.0437 215.066 19.127 215.009 19.1089C214.951 19.0908 214.742 19.0365 214.694 19.0654L214.694 19.0872L214.637 19.1089C214.57 19.1342 214.503 19.1379 214.475 19.1089C214.432 19.0731 214.37 19.0411 214.294 19.0147L213.912 19.051C213.59 19.0663 213.271 19.0917 212.959 19.127L212.959 19.1451L212.568 19.2827C212.273 19.156 211.977 19.0836 211.901 19.1234C211.825 19.1632 211.577 19.2393 211.5 19.2212C211.424 19.2031 211.262 19.2791 211.252 19.4312L210.7 19.2393L210.595 19.2067C210.324 19.2241 210.049 19.2326 209.775 19.232C209.603 19.232 209.212 19.1958 209.203 19.232C209.193 19.2682 208.612 19.2863 208.526 19.2538C208.44 19.2212 208.278 19.2791 208.297 19.4203L207.687 19.2429C207.62 19.2248 207.287 19.2936 207.077 19.3262L206.972 19.3262C206.662 19.3746 206.343 19.4145 206.019 19.4457C205.58 19.4891 204.455 19.29 204.369 19.29C204.284 19.29 203.74 19.3226 203.416 19.3515C202.743 19.3698 202.068 19.3698 201.395 19.3515L201.28 19.3841L200.994 19.4674C200.746 19.4233 200.483 19.3916 200.213 19.3733L199.746 19.3733C199.431 19.4203 199.05 19.4747 198.888 19.4891C198.43 19.5137 197.968 19.527 197.505 19.529L197.009 19.529C196.886 19.5471 196.771 19.529 196.743 19.5C196.714 19.471 196.266 19.4819 196.199 19.5C196.132 19.5181 195.856 19.5869 195.751 19.5579C195.646 19.529 195.293 19.471 195.15 19.5C194.809 19.5501 194.454 19.5854 194.092 19.605L193.997 19.5616C193.778 19.4602 193.53 19.6593 193.301 19.5326L193.206 19.4783C192.946 19.531 192.649 19.5512 192.357 19.5362C192.262 19.5109 191.947 19.4529 191.919 19.4783C191.89 19.5036 191.757 19.5652 191.69 19.5543C191.623 19.5435 191.404 19.5543 191.356 19.6014C190.89 19.634 190.419 19.6546 189.945 19.663L189.392 19.6086C189.134 19.5769 188.861 19.5654 188.591 19.5747C188.321 19.584 188.058 19.6141 187.819 19.663L187.562 19.7209C187.233 19.7071 186.911 19.6741 186.608 19.6231C186.524 19.6078 186.428 19.6038 186.336 19.6117C186.244 19.6196 186.162 19.6389 186.103 19.6666C185.96 19.7463 185.283 19.6123 185.236 19.6449C185.188 19.6775 184.997 19.7463 184.978 19.6956C184.959 19.6449 184.797 19.5905 184.692 19.6557C184.587 19.7209 183.787 19.6231 183.462 19.6557L183.072 19.6376L182.566 19.6086C182.189 19.6728 181.778 19.7037 181.365 19.6992C181.365 19.6702 181.155 19.6159 181.108 19.6449C181.06 19.6738 180.841 19.7607 180.717 19.7644L180.354 19.6521C179.869 19.6658 179.381 19.6658 178.896 19.6521C178.572 19.6521 177.58 19.6956 177.342 19.6304L177.065 19.7499C177.065 19.7716 176.675 19.7137 176.474 19.7173L175.874 19.7173C175.216 19.7173 174.301 19.7716 173.834 19.8006L173.481 19.6738L173.414 19.6485C173.159 19.6636 172.9 19.6721 172.642 19.6738C172.451 19.6738 171.975 19.634 171.955 19.6738C171.936 19.7137 171.298 19.6919 171.078 19.6086L170.735 19.7137L170.621 19.7463C170.306 19.7245 169.944 19.7028 169.801 19.6956C169.658 19.6883 169.143 19.6666 168.952 19.6666L168.781 19.6666C168.654 19.663 168.526 19.663 168.4 19.6666C168.266 19.6666 168.152 19.7137 168.018 19.7209L167.932 19.7209C167.783 19.7048 167.624 19.7048 167.475 19.7209C167.179 19.7195 166.891 19.6856 166.645 19.6231L166.645 19.7752C166.276 19.753 165.913 19.7191 165.558 19.6738L165.139 19.6738L164.205 19.6738C163.823 19.7281 163.452 19.7897 163.366 19.8006C163.28 19.8114 162.975 19.7499 162.841 19.6593L162.432 19.7064C162.222 19.7318 161.84 19.7571 161.764 19.7245C161.431 19.5942 161.326 19.8078 161.021 19.7535L160.754 19.7064C160.387 19.7032 160.023 19.685 159.667 19.6521L159.6 19.6738L159.19 19.797C158.895 19.7415 158.564 19.7189 158.237 19.7318C158.161 19.7571 157.827 19.8042 157.741 19.7644C157.628 19.711 157.507 19.6602 157.379 19.6123C157.379 19.6123 157.102 19.6557 156.874 19.6956C156.371 19.733 155.858 19.7428 155.348 19.7245C155.034 19.7064 154.204 19.7245 153.956 19.7028C153.708 19.6811 153.098 19.7933 152.889 19.7499L152.297 19.9997C151.728 19.9144 151.137 19.8514 150.534 19.8114C150.343 19.8114 149.981 19.8368 150.009 19.7644C150.038 19.6919 149.285 19.8295 149.056 19.8585C148.808 19.8787 148.551 19.8787 148.303 19.8585C148.16 19.8585 147.798 19.8839 147.759 19.8585C147.721 19.8332 147.559 19.7716 147.493 19.8042C147.243 19.8677 146.953 19.904 146.654 19.9092L146.377 19.8585L145.557 19.7644L145.367 19.8078C145.128 19.8658 144.89 19.8947 144.842 19.873C144.663 19.8158 144.468 19.766 144.261 19.7245L143.832 19.8585L143.775 19.8585C143.629 19.8526 143.488 19.834 143.365 19.8042C142.912 19.7808 142.452 19.7981 142.02 19.8549L141.839 19.9128C141.72 19.8877 141.627 19.8476 141.577 19.7994C141.526 19.7512 141.521 19.6979 141.563 19.6485L141 19.7607L140.581 19.8477C140.581 19.739 140.581 19.7137 140.581 19.7897C140.581 19.8658 139.923 19.7499 139.885 19.7535C139.847 19.7571 139.58 19.7535 139.351 19.7897C138.905 19.7789 138.463 19.7485 138.035 19.6992C137.797 19.6811 137.235 19.7825 137.149 19.7571C137.063 19.7318 136.825 19.6593 136.806 19.6557C136.718 19.6694 136.637 19.6891 136.567 19.7137C136.342 19.7545 136.09 19.7696 135.843 19.7571L135.671 19.7571C135.566 19.7571 135.395 19.8114 135.366 19.8042L135.07 19.7209C134.681 19.7645 134.268 19.7645 133.879 19.7209L133.536 19.6847L133.402 19.6847C133.235 19.6851 133.071 19.7012 132.925 19.7318C132.821 19.7571 132.411 19.7644 132.277 19.797C131.82 19.7968 131.364 19.7811 130.914 19.7499L130.532 19.7499L130.208 19.7499C129.973 19.7182 129.719 19.712 129.474 19.7318C129.25 19.7784 128.994 19.7974 128.74 19.7861L128.54 19.7535C128.321 19.7209 128.149 19.6159 128.13 19.7897C128.051 19.7956 127.97 19.7956 127.892 19.7897C127.399 19.7628 126.902 19.7519 126.404 19.7571L126.042 19.7752C125.821 19.743 125.595 19.7152 125.365 19.6919C125.147 19.6979 124.93 19.7112 124.717 19.7318C124.12 19.74 123.522 19.723 122.934 19.6811C122.591 19.6449 121.638 19.8259 121.418 19.8223C120.972 19.8257 120.53 19.8525 120.103 19.902C119.826 19.9454 119.149 19.7571 119.149 19.7607C119.149 19.7644 118.663 19.8585 118.492 19.7861L118.311 19.7861C118.12 19.7861 117.843 19.8549 117.672 19.8368L117.319 19.8006C117.154 19.861 116.945 19.9014 116.718 19.9165L116.633 19.8947L116.471 19.8585C116.318 19.8042 116.118 19.7861 116.032 19.8151C115.946 19.844 115.698 19.8766 115.679 19.8151C115.66 19.7535 115.117 19.7644 115.031 19.8151C114.945 19.8658 114.545 19.8984 114.459 19.8585C114.373 19.8187 114.087 19.7064 114.04 19.71C113.763 19.8911 113.353 19.7426 113.01 19.7499L112.848 19.7499C112.646 19.7762 112.432 19.7885 112.219 19.7861C112.022 19.7774 111.828 19.7628 111.637 19.7426C111.446 19.7137 110.684 19.7933 110.293 19.7607L109.912 19.7897C109.702 19.8078 109.406 19.7354 109.206 19.7571L108.872 19.7897C108.529 19.768 108.014 19.7426 107.709 19.7318L107.433 19.7318L106.947 19.7607C106.403 19.7607 105.888 19.7897 105.793 19.7933C105.597 19.7713 105.422 19.7286 105.288 19.6702C105.154 19.6123 104.544 19.7028 104.449 19.6702C104.354 19.6376 104.02 19.5905 103.953 19.6159L103.953 19.634C103.953 19.6883 104.144 19.7789 104.125 19.7825L103.801 19.8368C103.761 19.7701 103.659 19.711 103.515 19.6702C103.369 19.6676 103.225 19.6828 103.105 19.7137C103.019 19.739 102.714 19.7825 102.618 19.7535C102.523 19.7245 102.247 19.7535 102.218 19.8694L101.722 19.7897C101.808 19.7282 101.608 19.6956 101.274 19.7137C100.941 19.7318 100.178 19.5905 100.102 19.6123L100.102 19.634L100.102 19.768C99.8602 19.7539 99.6276 19.7232 99.4152 19.6775C99.3484 19.6521 99.091 19.6014 99.072 19.6449C99.0562 19.661 99.0312 19.6756 98.9987 19.6876C98.9662 19.6996 98.9271 19.7088 98.8842 19.7143C98.8413 19.7199 98.7957 19.7217 98.7507 19.7197C98.7056 19.7177 98.6623 19.712 98.6239 19.7028C98.4142 19.6485 97.5752 19.7318 97.3464 19.7354C97.0291 19.7194 96.7275 19.6733 96.4694 19.6014C96.4694 19.5688 95.7924 19.634 95.7162 19.6666C95.6634 19.6811 95.6032 19.6912 95.5395 19.6963C95.4757 19.7015 95.4098 19.7015 95.3461 19.6964C95.2823 19.6912 95.2222 19.6811 95.1693 19.6666C95.1165 19.6522 95.0722 19.6336 95.0393 19.6123L94.5912 19.6521C94.1241 19.6919 94.8868 19.7861 94.5436 19.8006L94.2004 19.8006C93.8 19.8006 92.8561 19.8006 92.0935 19.8006L91.4071 19.8006C91.0639 19.8006 90.7206 19.8006 90.3774 19.8006L90.0914 19.8006C89.7098 19.7887 89.3283 19.8243 89.0046 19.902L88.6995 19.768L88.5184 19.6847C88.466 19.7747 88.339 19.8559 88.1561 19.9165L88.0132 19.8585L87.7844 19.768C87.4984 19.797 87.0884 19.8332 86.831 19.8477C86.4533 19.8712 86.0804 19.9051 85.7156 19.9491C85.544 19.9889 84.9052 19.8839 84.6764 19.8766C84.3417 19.8589 84.0035 19.8528 83.6659 19.8585C83.3765 19.8978 83.0803 19.9292 82.7793 19.9527L82.5504 19.9961L82.1119 20.0794C81.9308 19.9816 81.7592 19.9309 81.7401 19.9708C81.6964 20.0101 81.6189 20.0427 81.5202 20.063C81.4214 20.0834 81.3074 20.0905 81.1967 20.083C80.7558 20.0286 80.3027 19.9898 79.8429 19.9672C79.5855 19.9672 78.6703 20.1084 78.1841 20.1156L77.7742 20.1156C77.3547 20.1156 76.9638 20.1337 76.5634 20.1156L76.287 20.1156C76.0132 20.1604 75.708 20.1693 75.4194 20.141L75.2955 20.1663C74.8951 20.2424 74.7711 20.2062 74.733 20.0794C74.3263 20.1056 73.9393 20.1649 73.5985 20.2532L72.9979 20.1048L72.9407 20.1048C72.874 20.0867 72.8072 20.1265 72.8072 20.1917C72.8072 20.2569 72.0255 20.1917 71.8539 20.1627C71.5155 20.1448 71.1722 20.1448 70.8338 20.1627C70.5223 20.1941 70.2025 20.2123 69.8804 20.217C69.7279 20.217 69.1273 20.2786 68.7841 20.2641C68.4409 20.2496 67.4399 20.2641 67.2969 20.2641C67.1538 20.2641 66.8488 20.1555 66.8202 20.1808C66.7916 20.2062 66.6009 20.2569 66.5342 20.1808L66.4293 20.1808L66.2577 20.1591C66.0289 20.1591 65.5237 20.1844 65.1328 20.1917L64.904 20.246L64.5989 20.3148C64.416 20.2794 64.2198 20.255 64.0173 20.2424C63.8637 20.2524 63.7156 20.2719 63.5788 20.3003C63.2565 20.2966 62.9365 20.2783 62.6255 20.246C62.2027 20.2463 61.7822 20.2695 61.3766 20.3148C61.2908 20.3148 60.8999 20.1627 60.8808 20.2098C60.8277 20.2516 60.7472 20.2875 60.647 20.3142C60.5469 20.3408 60.4305 20.3572 60.3088 20.3619L60.0801 20.3619L59.775 20.3619C59.459 20.3111 59.1164 20.2888 58.7739 20.2967C58.5451 20.2967 57.8206 20.3909 57.6585 20.4017C57.4964 20.4126 57.0293 20.3474 57.0007 20.4017C56.9721 20.456 56.8386 20.5574 56.7624 20.5574C56.4573 20.4633 56.1999 20.3546 55.6851 20.4669L55.5326 20.4995C55.2757 20.479 55.0131 20.4705 54.7508 20.4741C54.5258 20.4625 54.3029 20.4456 54.0835 20.4234L54.0072 20.4234L53.6926 20.4488C53.3287 20.4764 52.9566 20.4849 52.5867 20.4741L52.3388 20.4741L52.1482 20.4741C51.8908 20.5466 51.6047 20.5719 51.5189 20.5285C51.4331 20.485 51.1472 20.4343 51.0232 20.4741C50.8993 20.514 50.3844 20.5973 50.251 20.5466C49.9603 20.4827 49.6331 20.4466 49.2976 20.4415L48.9735 20.4198L48.6589 20.4017C48.3867 20.4413 48.1009 20.4657 47.8104 20.4741L47.6102 20.5104L47.5054 20.5285C47.1239 20.5317 46.7453 20.5549 46.3804 20.5973L45.9228 20.4814L45.6845 20.4198C45.2173 20.4198 44.8169 20.485 44.7883 20.5466C44.7597 20.6081 44.1972 20.5466 44.0542 20.5466C43.7587 20.5215 43.4595 20.5033 43.1581 20.4923C42.9674 20.4923 42.5098 20.5647 42.4621 20.5574C42.4145 20.5502 42.2619 20.5031 42.1571 20.4778C42.0522 20.4524 41.3276 20.3909 41.442 20.4307C41.5564 20.4705 41.5278 20.5176 41.2037 20.4633L40.8414 20.5864C40.6889 20.6407 40.1836 20.5864 39.8881 20.5864L39.6403 20.5864C39.5044 20.539 39.35 20.4999 39.1826 20.4705C39.1254 20.4705 38.6488 20.4705 38.1816 20.4488L37.8574 20.5828L37.8002 20.6045C37.3522 20.5429 37.0186 20.5285 37.0757 20.5683C37.1329 20.6081 37.2092 20.7095 37.1711 20.724C36.9557 20.7529 36.7314 20.7712 36.5037 20.7783C36.1986 20.7964 35.3597 20.6987 35.2167 20.724L35.1595 20.724L34.864 20.6733C34.5414 20.6793 34.2185 20.6633 33.9106 20.6262C33.739 20.5936 33.1384 20.7747 32.7571 20.8652L32.3852 20.8145L31.9563 20.7602C31.7896 20.8138 31.6072 20.86 31.4129 20.8978C31.3026 20.9077 31.1966 20.9236 31.0982 20.9449C30.9838 20.9739 30.4881 20.8942 30.3546 20.8689C30.2211 20.8435 29.7064 20.7928 29.8112 20.8689C29.9161 20.9449 29.325 20.8689 29.2106 20.887C28.9669 20.8934 28.723 20.8746 28.5051 20.8327C28.265 20.7973 28.0019 20.7909 27.752 20.8145C27.752 20.8363 27.2467 20.8797 26.4363 20.8725L26.1408 20.8037L25.5879 20.6733C25.5402 20.8109 25.3019 20.8544 25.054 20.7711L24.5392 20.829C23.9285 20.8848 23.2867 20.8645 22.7088 20.7711C22.5681 20.7365 22.4059 20.7166 22.2385 20.7135C22.0711 20.7103 21.9045 20.7239 21.7554 20.753C21.5743 20.7892 21.0786 20.7059 20.8021 20.6552C20.6495 20.6299 21.193 20.5755 20.8021 20.5285C20.7067 20.5285 20.5161 20.5864 20.3826 20.5828C20.2491 20.5792 19.8392 20.5502 19.7725 20.5067L19.5818 20.3619C19.1432 20.3184 18.5522 20.2569 18.2757 20.2243C17.8297 20.1799 17.3729 20.1532 16.9124 20.1446C16.7408 20.1446 16.2165 20.1011 16.0925 20.1156C15.9686 20.1301 15.7303 20.1446 15.7493 20.0794C15.7684 20.0142 15.1487 20.1084 15.0438 20.1193C14.7454 20.1268 14.4461 20.1268 14.1477 20.1193C13.8045 20.1193 12.9465 19.978 12.8607 19.9889C12.7749 19.9997 12.4698 20.007 12.4603 19.9889C12.3929 19.9462 12.293 19.9123 12.1739 19.8916C12.0548 19.8709 11.922 19.8645 11.7929 19.873C11.161 19.8501 10.5395 19.7966 9.94343 19.7137L9.81949 19.5507C9.75276 19.4674 9.1426 19.4566 9.02819 19.3008L8.971 19.2284L8.10347 19.1089C8.04 19.0946 7.99183 19.0722 7.96743 19.0457C7.94303 19.0192 7.94393 18.9903 7.96999 18.9641L7.61726 18.9097C7.76039 18.8174 7.83913 18.7127 7.84605 18.6056L7.84605 18.5259L7.77931 18.3665C7.73878 18.2447 7.6174 18.1288 7.42658 18.0298L7.25498 18.0298C7.15965 18.0298 7.07383 18.0298 7.0643 17.9972C7.05477 17.9646 7.24545 17.9284 7.43612 17.8994L7.58863 17.8632C7.58863 17.8632 7.58863 17.8125 7.58863 17.7908C7.58863 17.769 7.47423 17.7908 7.41703 17.7908C7.35983 17.7908 7.35986 17.8161 7.32172 17.8161L7.1215 17.8161C6.90223 17.8161 6.73066 17.8161 6.74019 17.7835C6.6702 17.6969 6.52589 17.6217 6.33026 17.5699L6.16815 17.4974L6.06329 17.4467C6.06329 17.3526 6.27306 17.3091 6.5686 17.3526C6.86414 17.396 7.52192 17.3526 7.32172 17.1606C7.12152 16.9687 7.03573 16.4146 7.27407 16.3893C7.55293 16.3621 7.82187 16.322 8.07485 16.2698C7.86006 16.2345 7.65561 16.1909 7.46475 16.1394L7.37892 16.0779C7.14058 15.8932 6.98806 16.1756 6.74019 16.0779L6.59717 16.0236C6.30163 15.9837 6.1491 15.9004 6.24443 15.8425C6.33977 15.7845 6.05375 15.4804 5.99655 15.3355L6.18723 15.2051C6.22134 15.162 6.23071 15.1166 6.2147 15.072C6.19869 15.0273 6.15767 14.9845 6.09442 14.9465C6.03118 14.9084 5.94717 14.8759 5.84806 14.8511C5.74895 14.8264 5.63704 14.8101 5.51988 14.8032L5.10995 14.8032C4.65234 14.7742 4.45211 14.7452 4.67138 14.7416C4.89066 14.738 5.51988 14.68 5.51988 14.633C5.51988 14.5859 5.29111 14.4302 5.02418 14.4483L4.76675 14.4483L4.62373 14.4483C4.43477 14.4484 4.24631 14.4411 4.06129 14.4266C3.90875 14.4266 3.10791 14.4266 2.78377 14.4266C2.45963 14.4266 1.99252 14.1224 2.04019 14.097L2.23081 14.097C2.61215 14.097 2.81237 14.0173 2.65983 13.9196C2.58406 13.8459 2.45922 13.781 2.29756 13.7313L1.89717 13.6552C1.89717 13.5248 1.77324 13.4488 1.66837 13.4814L1.573 13.4814C1.45853 13.4899 1.33983 13.4822 1.23935 13.4597C1.21142 13.4449 1.19641 13.4272 1.19641 13.409C1.19641 13.3908 1.21142 13.373 1.23935 13.3583C1.32528 13.3149 1.44115 13.2815 1.57411 13.2617C1.70707 13.2419 1.85189 13.2364 1.99248 13.246C2.04039 13.2416 2.08506 13.2331 2.12305 13.2212C2.16105 13.2093 2.19141 13.1942 2.21179 13.1772C2.21179 13.1482 2.12599 13.1048 2.04019 13.0903L1.76368 13.0468C1.43954 13.007 1.44908 12.9273 1.76368 12.8658L2.05922 12.8658L2.29756 12.8658C2.6503 12.931 2.9268 12.8984 2.9268 12.7897L2.9268 12.7173L3.00302 12.6123C3.31579 12.5802 3.63448 12.5572 3.95637 12.5435C4.14704 12.5435 4.09938 12.3117 3.95637 12.1813C3.81337 12.051 3.60366 11.6562 3.80386 11.6273C4.00407 11.5983 3.80389 11.3846 3.70855 11.3448C3.61322 11.305 3.3939 11.1819 3.54644 11.1493L3.74666 11.1203C3.90873 11.0986 4.11849 11.2181 4.29962 11.1203C4.52803 11.139 4.75137 11.1657 4.96692 11.2C5.42282 11.2082 5.87938 11.1898 6.32072 11.1456C6.91796 11.1527 7.50775 11.198 8.0653 11.2796C8.56147 11.3043 9.06173 11.3152 9.56207 11.3122C9.78134 11.3122 10.3247 11.4317 10.3915 11.3883C10.4973 11.3096 10.556 11.2231 10.5631 11.1348C10.5631 11.0732 9.88625 11.0406 9.72418 11.0406L9.65744 11.0189C9.51443 10.9754 9.65741 10.8559 9.20933 10.874L9.14259 10.874C9.11631 10.8548 9.07781 10.8383 9.03058 10.8262C8.98335 10.814 8.92887 10.8065 8.87208 10.8043C8.81528 10.8022 8.75801 10.8054 8.70537 10.8138C8.65273 10.8222 8.6064 10.8354 8.57061 10.8523L8.57061 10.6894L8.57061 10.6568C8.26011 10.6243 7.93925 10.6085 7.61726 10.6097L7.56006 10.5083L7.56006 10.425C7.49332 10.3308 7.56007 10.2838 7.69354 10.3127C7.92855 10.3499 8.18714 10.36 8.43712 10.3417C8.54831 10.3232 8.66842 10.3136 8.78986 10.3136C8.9113 10.3136 9.03141 10.3232 9.14259 10.3417C9.36186 10.3924 9.85762 10.5445 9.93389 10.5119C9.81949 10.4033 9.52394 10.291 9.57161 10.1932L9.62881 10.081C9.97201 9.95423 10.1627 9.82025 10.0483 9.78765C9.92637 9.77138 9.79652 9.76553 9.66797 9.77054C9.53942 9.77554 9.41538 9.79128 9.3047 9.81662L9.18076 9.87819L9.10448 9.91802C9.10448 9.97596 9.02822 10.0158 8.99008 10.0122L8.73266 9.88905C8.51499 9.94418 8.2602 9.97434 7.99862 9.97596C7.90329 9.95785 7.93187 9.85284 8.28461 9.77317L8.0653 9.64642L7.96999 9.5921C7.81933 9.59765 7.66802 9.58439 7.53899 9.55433C7.40997 9.52427 7.31026 9.47905 7.25498 9.42552C7.11198 9.30964 6.93082 9.17927 6.99756 9.15754C7.09792 9.14343 7.20576 9.1387 7.31195 9.14375C7.41814 9.14879 7.51958 9.16346 7.60771 9.18652L7.7984 9.23721C7.92003 9.2281 8.02862 9.20233 8.10347 9.16479C8.17021 9.12858 8.24648 9.00545 8.10347 8.99821C7.96047 8.99097 7.41707 8.94389 7.57914 8.90768C7.74121 8.87147 8.11302 8.73385 8.05582 8.6904C7.99862 8.64694 7.73169 8.53468 7.64589 8.56727L7.57914 8.56727C7.33127 8.589 6.96901 8.49484 6.69254 8.32464L6.57808 8.25221C6.74015 8.16892 6.90223 8.08925 6.9499 8.07114C6.96691 8.06155 6.97845 8.05071 6.98383 8.03933C6.9892 8.02794 6.98827 8.01626 6.98109 8.00501C6.97392 7.99377 6.96067 7.98321 6.94216 7.97403C6.92366 7.96484 6.90031 7.95722 6.87362 7.95165L6.74019 7.95165C6.38745 7.95165 6.27304 7.91182 6.42557 7.81042C6.42557 7.78145 6.55903 7.73437 6.53043 7.72713L6.37792 7.67281C6.41695 7.64076 6.48347 7.6147 6.56662 7.59891C6.64977 7.58312 6.74459 7.57852 6.8355 7.58589L6.92133 7.66918L6.92133 7.70177C7.42661 7.71988 7.41707 7.66918 6.92133 7.59675L7.1215 7.44829L7.22641 7.36862C7.31221 7.27809 7.30268 7.17669 7.22641 7.14771C7.15014 7.11874 6.94992 6.96303 7.08338 6.90509C7.21685 6.84715 7.8556 6.7711 7.86514 6.71678L7.7984 6.68056L7.67446 6.60814C7.57912 6.51761 7.57912 6.47053 7.67446 6.50312C7.87415 6.54596 8.10441 6.56371 8.33227 6.55383C8.57187 6.53748 8.81722 6.53748 9.05682 6.55383C9.21889 6.55383 9.65742 6.53571 9.58115 6.51398C9.50489 6.49226 9.20933 6.40173 9.08539 6.37276C8.96146 6.34379 8.56107 6.41983 8.51341 6.41983C8.46574 6.41983 8.37995 6.38361 8.40855 6.31843C8.43715 6.25325 7.77931 6.31843 7.65537 6.31843C7.53143 6.31843 7.33125 6.27497 7.55052 6.23876C7.76979 6.20255 8.36088 6.14099 8.39901 6.17358C8.49373 6.21372 8.62141 6.24052 8.76129 6.24962C8.82802 6.24962 9.12356 6.06132 9.23796 6.06495C9.36675 6.05704 9.48857 6.03743 9.59314 6.0078C9.69771 5.97817 9.78193 5.93938 9.83858 5.89474L9.72418 5.78972C9.68238 5.74161 9.60199 5.69968 9.49428 5.6698C9.38657 5.63993 9.25693 5.62362 9.12356 5.62314L8.80894 5.62314C8.72314 5.5978 8.7422 5.52537 8.8566 5.46743C9.08638 5.39237 9.3319 5.32454 9.5907 5.26463C9.65743 5.23928 9.5907 5.13426 9.71464 5.13064C9.83857 5.12702 9.86717 5.06184 9.89577 5.0546C9.92437 5.04735 9.89573 4.99666 9.73366 4.95682C9.50668 4.86674 9.36283 4.75109 9.32373 4.62728L9.4763 4.56934C9.8767 4.40638 9.78134 4.32309 9.20933 4.20721L8.77083 4.13117C9.03322 4.03206 9.27539 3.92553 9.49533 3.81249C9.60019 3.74368 9.95296 3.66039 9.63835 3.64952L9.63835 3.50105L9.63835 3.43949L9.5335 3.13892L9.3619 3.08823L9.16168 3.02666L9.44767 2.73696L9.2475 2.65005L8.76129 2.43277C9.17123 2.34224 9.53351 2.26256 9.54304 2.25532C9.34076 2.0987 9.07718 1.95463 8.76129 1.828L8.38947 1.61797L8.28461 1.55641C8.48482 1.57451 8.68503 1.59262 8.71363 1.59262C8.83266 1.58895 8.94735 1.57401 9.04728 1.54917C9.2548 1.50697 9.47173 1.47183 9.69555 1.44415C9.96589 1.43397 10.2318 1.41085 10.4868 1.37534L10.7061 1.34275L10.9635 1.30292C11.521 1.30584 12.0767 1.27778 12.6128 1.21963C13.2229 1.16169 15.1964 1.11461 15.53 1.08202L15.8447 1.08202L16.1688 1.08202C16.7992 1.04246 17.4365 1.02067 18.0755 1.01683L19.0288 1.01683C19.403 0.963679 19.7486 0.885144 20.0489 0.785064L20.354 0.922677C20.354 0.940784 20.926 0.879226 20.926 0.882848C21.0881 1.03132 21.4027 0.777827 21.6315 0.915437L21.7078 0.962516C21.9896 0.890718 22.3218 0.852849 22.6611 0.853871L22.9757 0.763337C23.3206 0.779603 23.6705 0.769761 24.0053 0.734372C24.3244 0.732705 24.6433 0.741187 24.9587 0.759725C25.4063 0.730864 25.8586 0.713918 26.3124 0.70902C26.7319 0.709019 27.8378 0.603997 27.9427 0.63659C28.0475 0.669181 28.7339 0.571406 29.0485 0.535193L29.2964 0.553305L29.7159 0.593135C30.1544 0.567786 30.7169 0.538821 30.9743 0.531579C31.2317 0.524336 31.8132 0.459151 31.8609 0.4845C31.9086 0.50985 32.3471 0.4845 32.5855 0.404831C32.8238 0.325162 33.8058 0.433802 34.025 0.404831L34.1013 0.404831L34.5494 0.51709C34.9303 0.445288 35.3552 0.414002 35.7792 0.426558L36.0938 0.397593L36.4084 0.364991C36.8049 0.400915 37.2115 0.41795 37.6191 0.415694L37.9528 0.415694L38.2674 0.415694C38.6355 0.380303 39.024 0.391751 39.3733 0.448284L39.7451 0.386729L40.0025 0.339649C40.5611 0.342119 41.1193 0.326368 41.6708 0.29257L42.1952 0.343264L42.548 0.375855C43.0151 0.328777 43.5013 0.2817 43.6729 0.274458C43.8445 0.267214 44.3117 0.321545 44.4547 0.296196C44.7714 0.282434 45.0913 0.282434 45.408 0.296196C45.7321 0.296196 46.5806 0.238245 46.6092 0.263594C46.6378 0.288942 46.7331 0.288952 46.7427 0.216526C46.7522 0.1441 47.41 0.278086 47.553 0.281708C47.696 0.285328 48.2871 0.281708 48.5731 0.259979C48.8591 0.238252 49.6123 0.28533 49.822 0.259979C50.2274 0.260406 50.6321 0.272514 51.0327 0.296196C51.2997 0.296196 52.2435 0.296196 52.5295 0.296196C52.9297 0.274723 53.3208 0.233316 53.6926 0.173061C53.8165 0.173061 54.2169 0.20928 54.3694 0.202037C54.522 0.194795 54.9796 0.202034 55.3228 0.22014C55.666 0.238246 56.6384 0.259979 56.7528 0.259979C56.8672 0.259979 57.1723 0.220146 57.2677 0.259979C57.363 0.299814 58.1733 0.259979 58.4403 0.259979C58.9741 0.249921 59.5025 0.214641 60.0133 0.154958L60.4614 0.256355L60.7855 0.332399C61.3972 0.334466 62.0077 0.311395 62.6064 0.263593L63.0735 0.328784L63.1498 0.328784C63.2576 0.28979 63.3959 0.265163 63.5438 0.258632C63.6917 0.252099 63.8412 0.264014 63.9697 0.292569C64.6426 0.303338 65.3163 0.278964 65.9717 0.22014C66.6621 0.233125 67.348 0.269488 68.0214 0.328784C68.3889 0.318992 68.7548 0.302066 69.1178 0.278081L69.5849 0.332398L69.8614 0.364989C69.9107 0.316274 70.0077 0.276667 70.132 0.254409C70.2563 0.23215 70.3984 0.228957 70.5287 0.24549C70.7385 0.285325 71.32 0.343268 71.4821 0.303433C71.6441 0.263598 72.1399 0.16582 72.2447 0.209275C72.589 0.283448 72.9855 0.315087 73.3792 0.299807L73.6843 0.252728C73.8331 0.22572 73.996 0.211707 74.161 0.211707C74.3259 0.211707 74.4888 0.22572 74.6376 0.252728L74.9427 0.310671C75.148 0.26274 75.3897 0.242337 75.6292 0.252728C75.7722 0.270836 76.2774 0.314295 76.4109 0.32516C76.6844 0.320601 76.9531 0.296004 77.2022 0.252728C77.3642 0.212895 77.9172 0.252728 78.0602 0.252728C78.3773 0.241293 78.6965 0.241293 79.0135 0.252728C79.1947 0.252728 79.6904 0.28895 79.7095 0.328783C79.7285 0.368618 79.8239 0.484496 79.8906 0.470009C79.9573 0.455525 80.1576 0.448283 80.2052 0.470009C80.2713 0.492642 80.3519 0.508248 80.439 0.515244C80.526 0.522238 80.6164 0.520378 80.7009 0.50985L80.7868 0.444659C80.8535 0.390337 81.1776 0.368618 81.3778 0.328783C81.9308 0.20566 81.9499 0.205658 82.5314 0.350512L82.6267 0.372238C82.7015 0.382908 82.7817 0.386818 82.8612 0.383677C82.9406 0.380533 83.0169 0.370417 83.0843 0.354124C83.2082 0.317911 83.7231 0.252733 83.8947 0.303433C84.0663 0.35413 84.5715 0.451908 84.6002 0.408453C84.6527 0.365748 84.7296 0.327997 84.8252 0.297939C84.9208 0.267882 85.0328 0.24626 85.1531 0.234627C85.9576 0.251053 86.7642 0.242573 87.565 0.209274L88.3945 0.307056L88.6519 0.339647C89.0904 0.249115 89.5194 0.216522 89.6052 0.259977C89.691 0.303434 90.0819 0.220146 90.1296 0.20566C90.4051 0.1936 90.6834 0.1936 90.959 0.20566C91.3498 0.20566 92.4748 0.27808 92.6273 0.288944C92.9368 0.278614 93.238 0.245403 93.5139 0.191171C93.6951 0.151338 94.5912 0.165817 94.9726 0.0716626L95.4111 0.202036L95.6685 0.27808C95.96 0.242843 96.2731 0.242843 96.5647 0.27808C96.7458 0.310672 97.2892 0.165825 97.518 0.158582C97.7468 0.151338 98.2998 0.212902 98.3188 0.249115C98.3425 0.267351 98.3767 0.283304 98.4189 0.295772C98.4612 0.308242 98.5104 0.316906 98.5627 0.321092C98.6151 0.325279 98.6692 0.324884 98.7211 0.319942C98.773 0.315002 98.8213 0.305641 98.8623 0.292568L99.0434 0.231L99.2531 0.158582C99.4571 0.187326 99.6776 0.194828 99.8918 0.180309C100.006 0.15858 100.369 0.12961 100.388 0.180309C100.407 0.231006 100.512 0.234626 100.578 0.122365L101.007 0.183921L101.227 0.216524C101.421 0.195053 101.618 0.178117 101.818 0.16582C101.951 0.16582 102.456 0.227388 102.618 0.216524C102.94 0.204395 103.265 0.21796 103.572 0.256353C103.934 0.280088 104.301 0.294605 104.668 0.299806L104.906 0.31792C105.011 0.31792 105.24 0.270837 105.259 0.278079C105.469 0.364991 105.564 0.278079 105.736 0.278079C105.907 0.278079 105.993 0.325158 106.136 0.346885C106.279 0.368613 106.298 0.31067 106.298 0.288943L106.298 0.270841C106.203 0.249112 106.155 0.22376 106.194 0.209274C106.305 0.19638 106.425 0.19638 106.537 0.209274C106.834 0.221471 107.135 0.211639 107.423 0.180308L107.643 0.180308C107.986 0.180308 108.453 0.259978 108.596 0.216523L108.939 0.129603C109.187 0.176293 109.455 0.20457 109.73 0.212899C110.003 0.192067 110.266 0.156709 110.512 0.107877C110.646 0.0716638 110.77 0.227384 110.789 0.234626C111.02 0.244113 111.253 0.244113 111.485 0.234626C111.847 0.234626 113 0.180301 113.267 0.173058C113.534 0.165816 114.221 0.39034 114.354 0.357749C114.488 0.325156 114.678 0.165824 115.079 0.147717C115.951 0.19217 116.811 0.263627 117.653 0.361373L118.215 0.19117L118.368 0.147717C118.673 0.163487 118.974 0.191397 119.264 0.231C119.369 0.249106 119.788 0.231 119.96 0.231C120.131 0.231 120.703 0.183924 120.789 0.176682C121.108 0.176816 121.426 0.184071 121.743 0.198409C122.483 0.200135 123.223 0.178334 123.954 0.133229L124.45 0.249113C124.45 0.249113 125.632 0.158577 125.651 0.154955C125.67 0.151333 125.766 0.10426 125.832 0.100638L126.138 0.0789111C126.414 0.125988 126.614 0.198408 126.586 0.241863C126.557 0.285319 126.652 0.401201 126.767 0.401201C126.881 0.401201 127.12 0.368616 127.034 0.328781L127.034 0.288943L127.034 0.234625C127.034 0.154955 127.282 0.1115 127.577 0.133228L128.044 0.133228C128.358 0.105644 128.677 0.0874826 128.998 0.078911C129.303 0.0789109 130.208 0.133223 130.39 0.104252C130.571 0.0752812 131.171 0.136843 131.343 0.104252C131.514 0.0716591 132.086 0.129601 132.182 0.104252L132.277 0.104252C132.717 0.0791378 133.165 0.0902633 133.593 0.136852L134.003 0.180307C134.575 0.180307 135.194 0.180307 135.366 0.180307C135.538 0.180307 135.728 0.321539 135.957 0.227386L136.071 0.176681L136.138 0.147716C136.337 0.0918596 136.57 0.0557592 136.815 0.0426958C137.289 0.0559385 137.757 0.0924508 138.207 0.151331C138.397 0.14698 138.588 0.14698 138.779 0.151331C139 0.163667 139.225 0.163667 139.446 0.151331C139.764 0.142507 140.082 0.142507 140.4 0.151331C140.764 0.170484 141.122 0.204477 141.467 0.252725C141.467 0.270834 141.639 0.231004 141.801 0.122364L142.297 0.216522C142.43 0.24187 142.802 0.118736 143.088 0.104251L143.336 0.104251C143.512 0.122249 143.696 0.123058 143.873 0.106594C144.05 0.0901293 144.213 0.0569376 144.346 0.0101046L144.766 0.122363L144.995 0.183919C145.386 0.238241 145.757 0.252735 145.824 0.216522C145.891 0.180309 146.234 0.0861505 146.339 0.133228C146.43 0.16438 146.546 0.183368 146.668 0.187291C146.79 0.191213 146.912 0.179855 147.016 0.154954L147.197 0.122363C147.33 0.106027 147.474 0.106027 147.607 0.122363L147.607 0.299804C148.103 0.350503 148.56 0.346881 148.56 0.299804C148.608 0.256713 148.69 0.220159 148.793 0.194949C148.897 0.16974 149.019 0.157066 149.142 0.15858L149.352 0.140466C149.514 0.140466 149.628 0.0752842 149.647 0.165818C149.645 0.184264 149.656 0.202592 149.681 0.218511C149.706 0.23443 149.742 0.247239 149.786 0.255346C149.83 0.263452 149.879 0.266494 149.927 0.264098C149.975 0.261701 150.02 0.253965 150.057 0.241862C150.515 0.118737 151.01 0.202031 151.525 0.176681L151.859 0.176681C152.231 0.158574 152.593 0.140466 152.65 0.140466L152.717 0.140466L153.117 0.162192C153.661 0.194785 153.966 0.24186 153.785 0.263589C153.604 0.285317 153.975 0.404828 154.004 0.441041C154.033 0.477254 154.252 0.517089 154.271 0.441041C154.29 0.364993 154.471 0.162198 154.652 0.191169L154.767 0.227385L154.91 0.267215C154.991 0.307649 155.108 0.335708 155.239 0.346332C155.37 0.356954 155.507 0.349444 155.625 0.325156C155.882 0.274457 156.578 0.238242 156.673 0.299804C156.769 0.361367 157.179 0.470006 157.369 0.390338L157.369 0.133227C157.742 0.125716 158.116 0.132996 158.485 0.154954C158.923 0.16677 159.362 0.16677 159.8 0.154954C159.867 0.154954 160.191 0.202029 160.353 0.220135C160.782 0.236851 161.215 0.223353 161.631 0.180306L161.869 0.209271L162.098 0.238248C162.241 0.350508 162.527 0.415686 162.727 0.379473C162.927 0.34326 163.375 0.234627 163.356 0.205657L163.356 0.15133C163.38 0.13905 163.412 0.129292 163.449 0.12296C163.486 0.116627 163.526 0.113934 163.566 0.115124C163.734 0.149994 163.888 0.193896 164.024 0.245486C164.167 0.299807 164.758 0.187541 164.853 0.183918C165.081 0.187945 165.308 0.200072 165.53 0.220135L165.53 0.249112L165.606 0.346882C165.317 0.341141 165.028 0.341141 164.739 0.346882C164.51 0.346882 164.405 0.549679 164.624 0.564164C164.843 0.578648 165.492 0.564158 165.492 0.502596L165.587 0.444655C165.702 0.372227 165.892 0.263596 166.073 0.259974C166.56 0.259974 166.178 0.40844 166.378 0.466381C166.378 0.466381 166.626 0.412072 166.826 0.32878C167.027 0.24549 168.056 0.245489 168.38 0.238247C168.705 0.231005 169.057 0.437418 169.153 0.36137C169.248 0.285322 168.552 0.227381 168.514 0.212897C168.476 0.19841 168.447 0.133229 168.514 0.0897716L168.628 0.0897716L168.771 0.0897716C169.062 0.144579 169.334 0.212681 169.582 0.292565L169.648 0.600378C169.648 0.640213 170.001 0.716259 170.011 0.712639C170.84 0.498982 170.564 0.756088 170.659 0.853865C170.745 0.875591 170.83 0.835758 170.85 0.763331C170.869 0.690905 171.069 0.556915 171.25 0.614857C171.431 0.672796 171.727 0.412069 171.784 0.36137C171.841 0.310673 172.137 0.154957 172.251 0.147715C172.365 0.140473 173.004 0.147715 173.49 0.147715L173.919 0.147715L174.015 0.147715C174.11 0.147715 174.196 0.147707 174.205 0.173056C174.215 0.198404 174.205 0.26721 174.205 0.321531C174.205 0.375851 173.862 0.488119 173.671 0.477255L173.519 0.477255L173.376 0.477255C173.181 0.427649 172.965 0.390913 172.737 0.368609L172.518 0.368609C172.423 0.368609 172.232 0.368612 172.203 0.404825L172.089 0.495358C172.046 0.542982 171.972 0.585644 171.874 0.619255C171.775 0.652865 171.656 0.676296 171.526 0.687287L171.46 0.716252C171.317 0.785057 171.317 0.893702 171.136 0.948021L170.792 1.04579C170.948 1.11999 171.147 1.17949 171.374 1.21962C171.498 1.21962 171.879 1.16892 171.879 1.06028C171.879 0.951641 172.137 0.680044 172.413 0.676422L172.585 0.603993C172.794 0.51346 172.995 0.5026 173.309 0.58589L173.567 0.582266ZM170.468 1.39345C170.612 1.41782 170.769 1.42899 170.926 1.42604C170.926 1.42604 170.926 1.35361 170.745 1.31378C170.346 1.26218 169.914 1.26218 169.515 1.31378L169.153 1.20513C169.084 1.21014 169.021 1.22274 168.971 1.24135L168.848 1.28843C168.685 1.36085 168.743 1.43328 168.971 1.44777C169.2 1.46225 170.239 1.36448 170.468 1.39345ZM177.39 1.23772C177.714 1.19789 177.876 1.1146 177.752 1.05666C177.628 0.998716 177.027 1.11822 176.884 1.15081C176.533 1.18643 176.171 1.2035 175.807 1.20152C175.559 1.20152 174.854 1.24859 174.968 1.31015C175.082 1.37172 175.75 1.31015 175.921 1.31015C176.241 1.30276 176.562 1.31251 176.875 1.33912L177.161 1.29205L177.39 1.23772ZM11.0779 11.3484C10.811 11.3158 10.6965 11.3484 10.811 11.4172L11.5832 11.8771L11.9741 11.7069L12.2601 11.5766C12.5747 11.62 12.67 11.6381 12.4507 11.6164C12.2315 11.5947 11.3353 11.381 11.0779 11.3484ZM121.8 1.20876C122.041 1.21413 122.282 1.19408 122.496 1.15082L122.41 1.08201C122.455 1.05694 122.474 1.02645 122.463 0.996373C122.453 0.966299 122.413 0.938761 122.353 0.919047C122.229 0.893698 121.762 0.980614 121.533 1.00234C121.304 1.02407 121.476 1.19789 121.8 1.19427L121.8 1.20876ZM7.0071 11.4498C7.1787 11.5512 7.27407 11.5512 7.21687 11.4498C7.15967 11.3484 6.36838 11.2398 6.13958 11.2326L6.13958 11.334L6.13958 11.381C5.94891 11.4752 6.13954 11.4824 6.63528 11.381L6.79739 11.4028L7.0071 11.4498ZM179.506 1.3355C180.049 1.28843 180.326 1.24859 180.126 1.24497C179.791 1.20785 179.471 1.15429 179.172 1.08563C179.02 1.05304 178.534 1.00234 178.534 1.06028C178.534 1.11822 178.753 1.23411 179.029 1.18703L179.087 1.18703L179.506 1.3355ZM156.082 0.973374C156.197 0.973374 156.139 0.868348 155.949 0.727116L155.701 0.683663L155.386 0.62572C155.143 0.556395 154.841 0.522952 154.538 0.531573L154.49 0.564164L154.433 0.607617C154.433 0.672801 154.757 0.716262 155.1 0.701775L155.291 0.734366L155.501 0.774196C155.654 0.853833 155.853 0.919408 156.082 0.966124L156.082 0.973374ZM78.7561 0.973378C78.594 0.998726 78.5559 1.05304 78.6798 1.09288C78.8038 1.13271 79.147 1.24135 79.2137 1.27394C79.2804 1.30653 79.6618 1.27394 79.5855 1.18341C79.5093 1.09288 78.9182 0.955267 78.7561 0.980616L78.7561 0.973378ZM163.757 0.774195C163.804 0.875592 163.833 0.886458 163.823 0.799548C163.814 0.712636 163.89 0.470013 163.68 0.477255C163.471 0.484498 163.709 0.680049 163.757 0.781445L163.757 0.774195ZM236.812 7.45552C236.612 7.43741 236.497 7.48086 236.564 7.55329L236.659 7.55329C237.031 7.55329 237.126 7.6221 237.088 7.73074L237.088 7.77781C237.145 7.85024 237.317 7.83213 237.46 7.73798C237.603 7.64383 237.012 7.47724 236.812 7.46276L236.812 7.45552ZM240.11 5.71367C240.11 5.74988 240.253 5.79333 240.415 5.80781L240.549 5.82955C240.673 5.84766 240.73 5.92008 240.921 5.85489C241.111 5.78971 241.197 5.7716 240.921 5.71004C240.644 5.64848 241.102 5.49276 240.606 5.50725C240.425 5.50725 240.272 5.62676 240.12 5.69194L240.11 5.71367Z" fill="#E6C49E"/>
<path d="M0.285994 11.2123C0.171592 11.1724 0.533842 11.2449 1.09632 11.3752L1.78276 11.3318C1.88763 11.3318 2.07831 11.3788 2.15458 11.4187L2.31663 11.4983C2.46917 11.6106 2.31663 11.6794 2.0211 11.6468L1.78276 11.6468L1.19169 11.6468C1.47769 11.7156 1.41093 11.7663 1.04866 11.7591L0.800782 11.6432L0.619643 11.5563C0.181103 11.4911 -0.0858303 11.4295 0.0285716 11.4187C0.142973 11.4078 0.400396 11.2521 0.285994 11.2123Z" fill="#E6C49E"/>
</g>
<defs>
<clipPath id="clip0_1414_14663">
<rect width="21" height="244" fill="#none" transform="translate(0 21) rotate(-90)"/>
</clipPath>
</defs>
</svg>
