<svg width="22" height="44" viewBox="0 0 22 44" fill="none" xmlns="http://www.w3.org/2000/svg">
<path opacity="0.5" d="M13.8405 12.1298C12.5961 10.0918 12.5763 8.04193 14.5856 4.74244C16.5949 1.44295 13.358 1.06421 13.358 1.06421L7.57799 1.12005C7.57799 1.12005 4.34901 1.56125 6.42168 4.8213C8.49436 8.08136 8.51416 10.1312 7.30937 12.1929C6.10458 14.2546 0.480897 23.7391 1.38046 32.3406C2.28003 40.9422 5.96569 42.1366 5.96569 42.1366C5.96569 42.1366 7.6064 42.9408 10.872 42.9092C14.1376 42.8777 15.7624 42.0419 15.7624 42.0419C15.7624 42.0419 19.4243 40.7765 20.1576 32.1593C20.8908 23.542 15.0849 14.1678 13.8405 12.1298Z" fill="#3D4349" stroke="#3D4349" stroke-width="2"/>
</svg>
