<svg width="38" height="28" viewBox="0 0 38 28" fill="none" xmlns="http://www.w3.org/2000/svg">
<path d="M10.469 22.2069V21.8731L10.1607 21.7451C3.43488 18.9533 0.5 11.4664 0.5 5.7931C0.5 3.02467 1.44412 1.74141 2.28766 1.12868C2.7219 0.813249 3.15661 0.655313 3.48222 0.576475C3.64463 0.537149 3.77808 0.517963 3.86788 0.508644C3.9127 0.503994 3.94637 0.501829 3.96702 0.500829C3.97733 0.500329 3.98437 0.500122 3.98789 0.50004C3.9886 0.500023 3.98917 0.500011 3.98959 0.500003C3.98966 0.500002 3.98972 0.500001 3.98978 0.5H33.8926C33.893 0.500008 33.8936 0.50002 33.8945 0.50004C33.898 0.500122 33.905 0.500329 33.9153 0.500829C33.936 0.501829 33.9697 0.503994 34.0145 0.508644C34.1043 0.517963 34.2377 0.537149 34.4001 0.576475C34.7257 0.655313 35.1605 0.813249 35.5947 1.12868C36.4382 1.74141 37.3824 3.02467 37.3824 5.7931C37.3824 11.4664 34.4475 18.9533 27.7216 21.7451L27.4133 21.8731V22.2069V25.0982C27.3991 25.7339 27.1288 26.3425 26.6546 26.7927C26.1788 27.2445 25.5357 27.5001 24.8628 27.5H24.8627H13.0196H13.0195C12.3467 27.5001 11.7036 27.2445 11.2277 26.7927C10.7536 26.3425 10.4832 25.7338 10.469 25.0981V22.2069Z" fill="white" stroke="#7E8082"/>
</svg>
