<svg width="40" height="28" viewBox="0 0 40 28" fill="none" xmlns="http://www.w3.org/2000/svg">
<path d="M4.491 0V0.5H4.49305H35.6711L35.6712 0.499995L35.672 0.499998L35.6725 0.5L35.6732 0.5L35.6739 0.500051C35.6779 0.500141 35.6855 0.50036 35.6967 0.500876C35.7189 0.501909 35.7548 0.504126 35.8023 0.508857C35.8975 0.518334 36.0384 0.537788 36.2097 0.577557C36.5532 0.657333 37.0104 0.816854 37.4662 1.13439C38.3506 1.75055 39.3308 3.033 39.3308 5.7931C39.3308 11.4547 36.2774 18.9454 29.2518 21.7424L28.9367 21.8678V22.2069V25.0979C28.9221 25.7266 28.6433 26.3334 28.1467 26.7856C27.6476 27.2401 26.9693 27.5001 26.2562 27.5H26.2561H13.9081H13.908C13.1948 27.5001 12.5165 27.2401 12.0175 26.7856C11.5209 26.3334 11.2421 25.7266 11.2274 25.0979V22.2069V21.8678L10.9124 21.7424C3.88672 18.9454 0.833374 11.4547 0.833374 5.7931C0.833374 3.033 1.81359 1.75055 2.698 1.13439C3.15379 0.816854 3.61095 0.657333 3.95447 0.577557C4.12572 0.537788 4.26664 0.518334 4.36187 0.508857C4.40939 0.504126 4.44526 0.501909 4.4675 0.500876C4.47861 0.50036 4.4863 0.500141 4.4903 0.500051L4.49298 0.499995L4.49217 0.499998L4.49163 0.5C4.49132 0.5 4.491 0.5 4.491 0ZM4.491 0H35.6732L10.7274 22.2069C3.45159 19.3103 0.333374 11.5862 0.333374 5.7931C0.333374 0 4.491 0 4.491 0Z" fill="#F7F7F6" stroke="#7E8082"/>
</svg>
